<svg width="355" height="530" viewBox="0 0 355 530" fill="none" xmlns="http://www.w3.org/2000/svg">
    <path  style="transform: translate(50px, 50px);"  fill-rule="evenodd" clip-rule="evenodd" d="M125.483 73.4974C164.858 86.0727 207.538 100.974 229.186 135.289C250.339 168.817 242.1 210.565 236.032 248.723C230.791 281.675 217.209 311.473 196.931 338.106C176.607 364.799 149.447 383.187 120.293 400.731C80.0312 424.96 43.0972 465.051 -4.75517 459.477C-54.2005 453.717 -97.7263 415.387 -121.241 372.594C-143.503 332.081 -125.356 285.226 -125.412 239.901C-125.468 194.644 -148.828 143.731 -121.57 107.611C-94.2999 71.4742 -39.2296 70.7425 7.06515 64.3499C47.0051 58.8349 86.7125 61.1154 125.483 73.4974Z" stroke="#FBA2B8"/>
    <path fill-rule="evenodd" clip-rule="evenodd" d="M200.1 72.5384C239.476 85.1138 282.155 100.015 303.804 134.33C324.957 167.858 316.718 209.606 310.649 247.764C305.409 280.716 291.827 310.514 271.548 337.147C251.225 363.84 224.064 382.228 194.911 399.772C154.649 424.001 117.715 464.092 69.8625 458.518C20.4172 452.758 -23.1086 414.428 -46.6234 371.635C-68.885 331.122 -50.7381 284.267 -50.7944 238.942C-50.8507 193.685 -74.2098 142.772 -46.9528 106.652C-19.6822 70.5152 35.388 69.7835 81.6828 63.391C121.623 57.8759 161.33 60.1564 200.1 72.5384Z" fill="#FFF0F3"/>
</svg>
