<svg xmlns="http://www.w3.org/2000/svg" xmlns:xlink="http://www.w3.org/1999/xlink" width="205" height="385" fill="none" ><style><![CDATA[.B{opacity:.5}.C{fill:#fff}]]></style><g clip-path="url(#A)" class="C"><g class="B"><use xlink:href="#D" class="B"/><use xlink:href="#E" class="B"/><use xlink:href="#F" class="B"/><use xlink:href="#G" class="B"/><use xlink:href="#H" class="B"/><use xlink:href="#I" class="B"/><use xlink:href="#J" class="B"/><use xlink:href="#K" class="B"/><use xlink:href="#L" class="B"/><use xlink:href="#M" class="B"/><use xlink:href="#N" class="B"/><use xlink:href="#O" class="B"/><use xlink:href="#P" class="B"/><use xlink:href="#Q" class="B"/><use xlink:href="#R" class="B"/><use xlink:href="#S" class="B"/><use xlink:href="#T" class="B"/><use xlink:href="#U" class="B"/><use xlink:href="#V" class="B"/></g></g><g clip-path="url(#B)" class="C"><g class="B"><use xlink:href="#D" class="B"/><use xlink:href="#E" class="B"/><use xlink:href="#F" class="B"/><use xlink:href="#G" class="B"/><use xlink:href="#H" class="B"/><use xlink:href="#I" class="B"/><use xlink:href="#J" class="B"/><use xlink:href="#K" class="B"/><use xlink:href="#L" class="B"/><use xlink:href="#M" class="B"/><use xlink:href="#N" class="B"/><use xlink:href="#O" class="B"/><use xlink:href="#P" class="B"/><use xlink:href="#Q" class="B"/><use xlink:href="#R" class="B"/><use xlink:href="#S" class="B"/><use xlink:href="#T" class="B"/><use xlink:href="#U" class="B"/><use xlink:href="#V" class="B"/></g></g><g clip-path="url(#C)" class="C"><g class="B"><use xlink:href="#D" class="B"/><use xlink:href="#E" class="B"/><use xlink:href="#F" class="B"/><use xlink:href="#G" class="B"/><use xlink:href="#H" class="B"/><use xlink:href="#I" class="B"/><use xlink:href="#J" class="B"/><use xlink:href="#K" class="B"/><use xlink:href="#L" class="B"/><use xlink:href="#M" class="B"/><use xlink:href="#N" class="B"/><use xlink:href="#O" class="B"/><use xlink:href="#P" class="B"/><use xlink:href="#Q" class="B"/><use xlink:href="#R" class="B"/><use xlink:href="#S" class="B"/><use xlink:href="#T" class="B"/><use xlink:href="#U" class="B"/><use xlink:href="#V" class="B"/></g></g><defs><clipPath id="A"><path transform="matrix(-1 0 0 -1 204.9 384.6)" d="M0 0h204.9v384.6H0z" class="C"/></clipPath><clipPath id="B"><path transform="matrix(-1 0 0 -1 204.9 384.6)" d="M0 0h204.9v384.6H0z" class="C"/></clipPath><clipPath id="C"><path transform="matrix(-1 0 0 -1 204.9 384.6)" d="M0 0h204.9v384.6H0z" class="C"/></clipPath><path id="D" d="M81.9 121.2l.9.9s.1 0 .1-.1c-.2-.3-.6-.5-1-.8.1-.1 0 0 0 0z"/><path id="E" d="M20.1 178.3l5.4-7.5c.3-.5-.5-1-.8-.5l-5.1 7.7c-.2.3.3.5.5.3z"/><path id="F" d="M14.7 186.5l1.1.8c-.1.1-.1.2-.2.3-.6 2.6-3.7 4-6.1 2.7-1.4-.7-2.2-2-2.6-3.5.3-1 .3-1.9-.2-2.7 0-.2-.1-.3-.3-.4l-.2-.2c-.3-.2-.6-.1-.6.3-.2 1.2.3 2.1-.2 3.3-.5 1.3-1.5 2.4-2.9 2.8-.9.2-1.7.2-2.5 0v1.3c.9.2 2 .2 3.1-.1s2.3-1.4 3.2-2.7c.6 1.6 1.8 2.9 3.5 3.5 1.4.4 2.8.3 4-.3-.3.5-.6.9-.8 1.5-.5 1.5-.1 3.2.9 4.5.6.8 1.5 1.3 2.5 1.7-1.2.8-2.2 2-2.5 3.7-.7 3.9 3.4 6.9 6.8 7.8 0 .6-2-.7-2.2-.8-.6-.3-1.3-.5-2-.5-1.6-.1-3.2.5-4.3 1.6-1 1.1-1.5 2.4-1.4 3.8-1.2-1.3-2.8-2.1-4.7-2.1-2.3 0-4.4 1.3-5.7 3.2 0-.6-.2-1.3-.5-1.8v5.3c.3 0 .6-.1.6-.4 1.2-6.4 9.9-6.5 11.3-.1.1.4.6.4.8 0l.3.3c.1.1.3.1.4.1-4 1.9-8.7 2.5-13.4 1.4v1.9c1.6.3 3.2.3 4.9.2.1 0 .2 0 .3-.1 6.7.3 13.6-3.7 16.9-9.6 4.7-8.2 3.1-18.5-3.5-25.1-4.9-5-12-6.9-18.6-5.8v1.4c5.1-1 10.5-.1 14.8 2.8zm7.9 22c-1.5 4.9-4.7 8.5-8.7 10.6.2-.2.2-.5-.1-.7-3.3-2.8-1.4-8.2 3.1-7.8.5.1 4.7 2.3 4.2.1.6.1.9-.6.4-.9-2.6-1.6-7-2.7-6.3-6.7.3-1.7 1.4-2.8 2.7-3.5 1.5.2 2.9-.2 3.8-1.3.3-.1.7-.1 1-.2.9 3.4.9 7-.1 10.4zm0-11.1c-.2 0-.5 0-.7.1h-.2c-.2 0-.4.1-.6.2-.9.1-1.8.4-2.6.7-.4 0-.8 0-1.2-.1-1.8-.5-3.2-2.2-3.1-4.1s1.8-3.2 2.3-4.9c.2-.3.3-.6.4-1 2.7 2.4 4.7 5.6 5.7 9.1z"/><path id="G" d="M5.5.6C4.1 4.5 2.3 8.2 0 11.6v2.9c2.3-3.2 4.3-6.7 5.8-10.4 2.8 18.4 20 31.9 18.9 51.3-1-2.5-2.6-4.8-4.5-6.8.2 0 .5-.2.5-.5-.8-6.2-5.6-10.6-9-15.5-3.9-5.6-6.5-12-7.8-18.7-.2-.8-1.3-.5-1.3.2-.2 2.8-1.2 5.2-2.6 7.4v2.2c1.5-1.9 2.7-4 3.4-6.4 1.4 5.2 3.5 10.1 6.4 14.6 3.5 5.4 8.6 9.8 10.2 16.3-1.7-1.8-3.8-3.2-6-4.4l-.3-.3h-.2c-.2-.1-.5-.2-.7-.3-.8-.7-1.5-1.4-2.1-2.5-.8-1.4-1.5-3-2.2-4.5l-4.8-9.8c-.2-.4-.9-.4-1.1 0-.6 1.3-1.5 2.4-2.5 3.4v1.8c1.1-1 2.2-2.2 3-3.5 1.7 3.6 3.5 7.1 5.3 10.6.6 1.2 1.2 2.4 2 3.5-1.5-.4-3-.8-4.5-.9a18.08 18.08 0 0 0-5.7.3v1.6c1.7-.4 3.5-.5 5.3-.4 12.8.9 22.5 13.6 18.7 26h-.1c-.2.2-.3.4-.2.7v.1c-.2.4.5.7.7.4.1 0 .2 0 .3-.1 5.1-3.5 11.2 1.1 16.8-.2 3.5-.8 6.4-3.3 8-6.5 2.2 5.4 5.9 10 10.6 13.4 2.7 1.9 5.7 3.2 8.8 4.3 4.2 1.4 9.5 3.5 9.1 8.9 0 .4.4.5.7.3.2.4.7.6 1.1.1 4-4.4 8.8-8.2 14.9-9.3 6.7-1.2 12.9 1.4 17.1 6.6 7.5 9.3 6.6 22-.3 31.1-.2.1-.4.2-.7.3-.4.2-.4.6-.3.9l-.2.2c-.3.1-.4.3-.5.6-.2.3-.1.6.2.7.1.2.3.3.5.2 7.3-.9 11.9 5.6 17.1 9.5 4.9 3.7 10.1 3.8 15.7 2.7-3.4 5-5.2 11-5 17.1.1 3.9 1.4 7.6 1.5 11.5.1 2-.2 3.9-.9 5.7s-1.9 3.3-2.8 4.9c-.9.2-.9 1.6.1 1.5 8.6-.7 16.4 4.1 19.6 11.5-.1.4 0 .8.4.9.8 2.3 1.3 4.8 1.1 7.5-.3 5.4-2.4 12.1-6.6 15.7-2 1.7-4.4 2.7-7 3.3-1.4.3-2.8.5-4.3.6-.8.1-2.6-.2-3.4.1h-.1c0-.1 0-.3-.1-.3-.3-.1-.5 0-.7.1-.5.2-.8.8-.3 1.2.3.3.7.6 1 .9 0 .3.2.6.5.7 4.4 5.7 1.3 14.3 3.1 20.9 1.8 6.4 6.9 11.1 11.9 15.3-3.4.5-6.8 1.1-10.1 2.3-3.2 1.2-6 3.1-8.7 5.3-6.1 5.2-11.5 11.1-20 11.4-.8-.6-1.6.8-.8 1.4.4.3.8.6 1.1.9 0 .2 0 .4.2.4.1.1.3.1.5.2 6.8 6.8 9.8 20.5 2 27.4-8.9 7.8-22.3 5.8-30.1-2.3v-.2c.1-1-1.4-1-1.6 0-.8 6.4-6.2 10.9-8.9 16.5-2.8 5.9-1.6 12.1.3 18.1-7-4-15-6-23.1-5.6-9.1.4-18 3.3-26.4-1.4-.1-.4-.2-.8-.4-1.2s-.7-.3-.7.2a.9.9 0 0 0 .1.5c-.5-.2-1 .5-.6.9.2.2.5.4.7.6.7 8.8-4.8 17.6-14.5 17.6-4.3 0-7.8-2-10.7-4.8v2.6c3.2 2.7 7 4.5 11.4 4.3 1.2-.1 2.4-.3 3.5-.6 1.2 3.2-.4 6.3-2.1 9.1L8.4 363c-.8-2.6-2.3-4.8-3.8-7.1-1-1.5-2-3-2.7-4.7-.9-2.1-1-4.1-1.1-6.4 0-.5-.6-.7-.9-.3v5.2c.5 1.7 1.3 3.2 2.1 4.6 2 3.4 4.6 6.4 5.5 10.4.1.6.9.6 1.2.2 2.1-3.3 4.6-6.7 6.3-10.2 1.2-2.5 1.7-5.1.4-7.6 1.5-.5 3-1.2 4.2-2.2-.5 10.4-6 18.5-12.3 26.4-2-5-5.2-9.8-7.5-14.9v2.7c2.3 4.5 5 8.9 6.7 13.6.1.4.7.7 1 .3 6.4-8 14.1-17.6 12.6-28.5 1.2-1 2.3-2.1 3.2-3.3 2.5 16.2-9.4 27.8-17.1 40.8-1.5-6.2-3.8-11.9-6.5-17.6v3.2c.6 1.1 1.1 2.3 1.6 3.5 1.7 4.2 3 8.6 3.9 13.1.1.6 1 .7 1.3.2 4.5-7.8 10.4-14.5 14.4-22.3 2.8-5.4 4.9-11.8 4.1-17.9 2.2 5.4 6.4 9.7 11.7 12.6 8 4.2 17.4 4.7 26.3 3.7 7.3-.8 14.7-2.7 20.9-6.7.3.1.6.1.9.2.3 0 .4-.3.1-.4-.1-.1-.3-.1-.4-.2l2-1.4c5.7-4.6 9.6-11 11.8-17.9 1.8-5.5 2.5-11.3 2.3-17.1.1-.2.1-.3.2-.5 0-.1-.1-.3-.2-.3-.1-1.6-.3-3.3-.5-4.9 14 13.3 37 10.3 52.7 21.3.7.5 1.4-.6.9-1.2-11.8-13.7-14.3-35-29.1-46.1 3.2 1.2 6.6 1.8 10 1.9h.2c4.9.1 9.8-1 14.4-2.9h.4c.2 0 .3-.2.3-.3 4.5-2.1 8.6-5.1 11.8-8.9 7.7-9.1 10.5-21.2 8.4-32.6 0-.1.1-.2.1-.4.1-.3-.1-.5-.3-.6-.7-3.4-1.8-6.7-3.4-9.9-2-4-4.6-7.8-7.7-11-1.7-1.8-3.6-3.6-5.7-5.1 19.3-1.2 32.8-21 51.3-25.4.9-.2.6-1.5-.2-1.5-10-.5-18.3-6.7-27.2-10.5-8.4-3.5-17.7-4.8-26.8-3.7 10.7-8.9 19.4-22 19.5-36.2.1-13.6-7.8-26.9-21.5-30.3-8.4-2.1-17.7-1.4-26.3-.2-.2-.3-.3-.5-.5-.8-.4-.5-1.1.1-.8.6.1.1.1.2.2.3-.5.1-1 .1-1.5.2.9-.7 1.6-1.7 2.2-2.4 1.6-1.9 2.8-4 3.7-6.3 2-4.8 2.8-10 3.1-15.1.7-12.3-1.6-25.4 4.5-36.7.4-.7-.4-1.4-1-1-16.1 8.9-32.7 18.3-43.9 33.2 0-.1.1-.3.1-.4.1-.1.1-.2.1-.3 1.6-11.9-3.8-24.4-13.3-31.8-10.2-7.9-23.8-9.8-35.5-4.3C33.8 45.5 29 49.7 26.1 55c1.5-9-2.8-18.1-7.1-25.8C14 20.2 7.9 11.3 7.4.7 7-.1 5.8-.3 5.5.6zm125.2 107.8c.2.9.6 1.6.4 2.6-.1 1-.6 1.9-1.2 2.6-2.8.2-5.6.7-8.4 1.5 1.2-1.7 1.4-3.9.8-5.9l8.4-.8zm-12.9 1.3c.1 0 .2.1.4.1 1-.1 2-.3 3-.4.6 1.8.5 3.7-.4 5.7v.3c-2.3.7-4.6 1.5-6.8 2.5 1.8-2.6 3-5.3 3.8-8.2zm20.2 63.5c1.7-1.7 2.7-4.3 3.2-6.5.7-3.4.1-6.8-.4-10.2-1.4-8.2 0-16.3 5.2-23 .5-.6.1-1.5-.7-1.3-3.8.9-7.9 1.8-11.8.5-3.2-1.1-5.7-3.3-8.1-5.5-3.7-3.3-7.8-6.8-12.8-6.9 6.7-3.4 14-5.2 21.6-5.2 6.9.1 14.4 1.7 19.4 6.9 9.4 9.9 6.2 26.7-.4 37.2-3.7 5.8-8.8 10.6-14.7 14.1-.4-.1-.5-.1-.5-.1zm18.6 31.1c.4-1 .8-2.1 1.1-3.1 1.4-4.8 1.5-9.8 0-14.3 5.8-1.7 11.5 2.3 17.2 3.7-2.8 1.3-5.2 3.3-7.5 5.4-1.5 1.5-3 3-4.7 4.4-.5.6-4.7 4.2-6.1 3.9zm-.2.4c1.1.7 2.8-.4 3.7-.9 2-1.1 3.7-2.6 5.4-4.1 3.7-3.4 7.2-7.4 12.2-8.7.8-.2.5-1.2-.2-1.3-6.9-.6-13.3-6.3-20.3-4.1-.5-1.1-1-2.2-1.7-3.2 11.6-1.4 21.8 4.2 32.4 7.9-5.7 1.2-10.7 4.6-15.2 8.2-3.2 2.5-6.3 5.1-9.9 7.2-3.1 1.8-6.7 2.8-9.8 4.5 1.4-1.6 2.5-3.4 3.4-5.5zm-41 70l-1.4-1.4c6.4.4 12.1-4.7 16.6-8.7 3-2.7 6.1-5.5 9.9-7.2 4.1-1.8 8.5-2.4 12.9-3 .5-.1.7-.9.3-1.2-6.1-5.1-12.7-10.8-13.3-19.3-.4-5.2.8-11.5-1.7-16.2 11.8 3.6 21.2 13.9 23.7 26.1 1.5 7.1.4 14.8-3.3 21.1-3.9 6.7-10.5 10.9-18 12.5-8.6 1.9-17.3-.1-25.7-2.7zm4.8 7.8c-.8-2.2-1.9-4.2-3.3-6.1a49.71 49.71 0 0 0 7.8 2.1c-.1 0-.2.1-.3.2-.8 1.1-.5 2.8 0 4 .3.6.6 1.2 1 1.7-1.8-.5-3.6-1.1-5.2-1.9zm1.4 11.4c.1.1.1.2.3.3 5.1 3 8.7 7.3 11.3 12.5 2.4 4.7 4.7 9.5 7 14.3-5.3-3-10.9-5-16.8-6.2-6.4-1.3-12.7-2.4-18.4-5.8 1.7-.2 3.4-.6 5.1-1.2 1.8 3.2 6.8 3.3 9.9 3.8 4.3.7 10.2.6 13.1 4.5.5.7 1.5.1 1.1-.7-3-6.9-6.5-14.1-13.3-17.9.3-1.2.5-2.4.7-3.6zm-10.8 13.5a21.34 21.34 0 0 0 6.5-4.2c1.3-1.3 2.3-2.8 3-4.4 5.5 3.1 8.7 8.6 11.3 14.3-2-1.2-4.4-1.8-6.8-2.1s-4.7-.6-7.1-1.1c-2.2-.5-5.2-.6-6.9-2.5zM98 308.6c-.2.1-.3.4-.1.6l.3.3v.2c-1.7 2.2-4.3 3.6-7.1 3.4-1.1-4-2.9-7.8-5.3-11.2 3.2 3.6 7.5 5.8 12.2 6.7zm-71.4 21.5c0-.1-.1-.2-.2-.2 0-.1 0-.3-.1-.4 6.4 4 15.2 2.2 22.3 1.4 9.8-1.1 19.5.9 27.9 6.2.6.4 1.4-.2 1.2-.9-1.3-3.8-2.6-7.7-2.6-11.8 0-3.6 1.2-6.8 3.1-9.8 2.3-3.7 5.3-7.1 6.7-11.2 8.2 12.2 8.2 29-2.7 39.7-10.6 10.4-28.4 9.7-40.8 3-6.7-3.6-11.9-9.1-14.8-16zm-2.1 9.5c1.2-2.1 1.9-4.4 2-6.8.7 1.8 1.7 3.5 2.8 5-1.5 2.8-2.1 6-1.6 9.1-1.6-2.2-2.7-4.6-3.2-7.3zm4.1 8.7c-.5-3.4 0-6.5 1.5-9.4 1.4 1.8 3.1 3.5 4.9 4.9l-.1.1c-1.9 2.7-2.4 6.1-1.5 9.1-1.7-1.3-3.4-2.9-4.8-4.7zm13 9.2c-2.5-.9-4.9-2.1-7.1-3.6-1-3.2-.5-6.4 1.4-9.3 1.8 1.3 3.8 2.5 5.8 3.5l-.1.1c-1.3 3-.3 6.9 1.4 9.7-.4-.1-.9-.3-1.4-.4zm2.5.7c-.8-1.4-1.4-2.9-1.7-4.5-.3-1.8 0-3.5 0-5.3 2.5 1.2 5.2 2.1 7.9 2.8-.1.1-.2.2-.2.3-.7 2.9.1 5.9 2.1 8-2.7-.2-5.4-.6-8.1-1.3zm9.3 1.4c-2-2.1-2.8-4.9-2.2-7.8 0-.2 0-.3-.1-.4 2.3.5 4.7.9 7 1h.6v.1c-.3 2.7 1 5.2 3 6.8-2.7.3-5.5.4-8.3.3zm13.9-1.1c-1.5.3-2.9.5-4.4.7-2.1-1.5-3.2-4-3.1-6.7v-.1c2.7.1 5.5-.1 8.1-.6 0 0 0 .1-.1.1-.4 1.4.8 3.1 1.8 3.9.8.8 1.8 1.2 2.9 1.4-1.7.6-3.4 1-5.2 1.3zm6.7-1.7c-.1-.1-.1-.1-.2-.1a5.1 5.1 0 0 1-3.5-1.7c-.4-.4-.8-1-1-1.5s-.3-1.2-.6-1.7c0-.1-.1-.1-.1-.1 3-.6 5.9-1.6 8.6-3 .9 2.1 2.8 3.7 4.9 4.6-2.6 1.5-5.3 2.6-8.1 3.5zm14.1-8.3c-1.6 1.6-3.4 3-5.3 4.2-.8-.4-1.6-1-2.3-1.5-1.1-.9-1.8-2-2.7-3 1-.6 2.1-1.3 3-2.1 1.1-.9 2.2-1.9 3.2-3 1.6 2 4.3 2.8 6.7 2.2-.7 1.1-1.6 2.2-2.6 3.2zm3.5-4.3c-2.5.8-5 .1-6.7-1.9 1.5-1.8 2.9-3.8 4-5.9l.1.1c1.2.7 2.5 1.1 3.9 1.2.6 0 1.2-.1 1.8-.2.3-.1.5-.2.7-.3-.9 2.4-2.2 4.8-3.8 7zm4.3-7.9c-.8.2-1.9.3-2.7.3-1.3 0-2.5-.4-3.6-1.1-.1-.1-.2-.1-.3-.1.9-1.9 1.6-3.8 2.1-5.8 2.1 1 4.7.6 6.6-.7-.5 2.6-1.2 5-2.1 7.4zm2.3-8.5c-2 1.3-4.2 1.5-6.6 1.1.1-.4.2-.8.2-1.2.4-2.2.5-4.5.4-6.7h.1c1.7.6 3.6.3 5.1-.5.6-.3 1.1-.7 1.5-1.1.1 2.8-.2 5.6-.7 8.4zm.8-9.8c-1.6 1.6-4 2.3-6.3 1.8-.2 0-.3 0-.4.1-.1-1.9-.4-3.8-.9-5.7 2.7.1 5.4-1.1 7-3.3.3 2.4.5 4.8.6 7.1zm51 11.1c-15.8-8.9-36-7.4-50.3-19.4 0-.2-.1-.5-.1-.7v-.2c1.5.2 3 .2 4.5.1 0 .1 0 .3.1.4 4.7 4.1 11.1 5.1 17 6.3 7.2 1.4 14 3.7 20.2 7.6.6.4 1.2-.4.9-.9-2.9-5.9-5.5-12-8.7-17.8-2.6-4.8-6.3-8.8-11.1-11.6-.4-.2-.7-.1-.9.2.2-2.1 0-4.2-.3-6.2-.1-.8-.3-1.6-.5-2.4 15.9 10 18.8 30.1 29.2 44.6zm-23-44.2c-.8-.6-1.4-1.5-1.7-2.5-.4-1.2-.1-2.2-.1-3.4 0-.2-.1-.3-.2-.4 2.1.4 4.2.7 6.3.8-.2.1-.3.2-.3.5-.1 2.1.6 4.2 1.9 5.8-2-.1-4-.4-5.9-.8zm7 .9c-1.4-1.7-2.1-3.7-2-5.9 0-.2-.1-.4-.2-.4 1.8.1 3.6.1 5.3 0-.6 2.3 1.1 4.8 3.2 6-2.1.3-4.2.4-6.3.3zm10.6-1.2c-1 .3-1.9.5-2.9.7-1.2-.5-2.2-1.4-2.8-2.6-.6-1.1-.6-2.1-.6-3.3 1.7-.2 3.3-.5 4.9-.8.3 2.3 1.8 4.3 3.8 5.3-.8.2-1.6.4-2.4.7zm9.2-4.4c-.6-.2-1.2-.6-1.6-1-.8-.8-1.2-1.8-1.2-2.9 0-.7-1.1-.7-1.1 0-.1 1.4.6 2.7 1.6 3.6.4.4.9.7 1.4.9-1.5 1-3.1 1.8-4.8 2.5-2.1-.9-3.6-2.8-3.8-5.1 3.9-1.1 7.5-3 10.6-5.7.2.7.7 1.5 1.2 2 .7.8 1.6 1.4 2.7 1.6-1.6 1.5-3.2 2.9-5 4.1zm5.6-4.8c0-.1 0-.1 0 0-.2-.2-.5-.2-.7-.3-.5-.2-1.1-.5-1.5-.9a6.42 6.42 0 0 1-1-1.3c-.2-.4-.3-.8-.5-1.1 1-.9 1.9-2 2.7-3.1.4-.5.7-1 1.1-1.5.4.7 1.1 1.2 1.7 1.5a3.39 3.39 0 0 0 3.1 0c-1.3 2.4-3 4.6-4.9 6.7zm5.4-7.5c-.1-.1-.3-.2-.4-.1-.9.4-1.9.3-2.7-.1-.7-.4-1-1-1.3-1.7 1.2-2.1 2.2-4.3 2.9-6.5 1 1.3 3 1.8 4.6 1.3-.9 2.4-1.9 4.8-3.1 7.1zm4.5-14.7c-.2 2.3-.6 4.5-1.2 6.6-1.9.5-3.2-.4-4.5-1.7.5-1.8.7-3.6.9-5.5.8.6 1.7.9 2.7.9.5.1 1.4 0 2.1-.3zm-.6-10.2c-.8 1.5-2.4 2.5-4.2 2.4-.4 0-.5.7-.1.7 1.7.3 3.4-.4 4.5-1.6.3 2.3.5 4.6.4 6.9v.5c-.7.3-1.3.7-2.1.8-1 .1-2-.2-2.8-.8a34.76 34.76 0 0 0-2.3-13.9c1.7-.4 3.5-1.9 3.8-3.7 1.3 2.7 2.3 5.6 2.8 8.7zm-4.8-13l1.8 3.4c-.2-.1-.4 0-.5.2-.4.8-.6 1.5-1.2 2.2-.6.6-1.3 1-2.1 1.3-1-2.4-2.3-4.8-3.8-7h.1c1 0 2-.4 2.7-1.1.5-.5 1.1-1.4 1-2.2.7 1 1.3 2.1 2 3.2zm-6.7-8.8c1.5 1.5 2.9 3.2 4.2 5-.2 0-.3.1-.4.2-.2.3-.2.6-.2 1-.1.4-.3.7-.5 1a3.09 3.09 0 0 1-2 1.1c-.2 0-.3.2-.3.4-.4-.5-.8-1-1.2-1.6a33.29 33.29 0 0 0-2.5-2.8c1.5-.7 3.1-2.5 2.9-4.3zm-.9-.9c-.1.1-.1.2-.2.3-.1.9 0 1.7-.5 2.5s-1.2 1.4-2.1 1.7c-1.7-1.6-3.5-3.1-5.4-4.3 1.5-.8 2.9-2.5 3.2-4.3 1.9 1.2 3.5 2.6 5 4.1zm-8.2-4.8c.7.1 1.4.1 2.1.1-.1.6-.2 1.3-.5 1.9-.5 1-1.3 1.7-2.2 2.3l-.1.1c-2.8-1.7-5.8-3.1-9-3.9.8-.1 1.5-.2 2.1-.2 1.5-.1 2.9-.3 4.3-.7 1-.3 1.9-.6 2.7-1a1.38 1.38 0 0 0 .4.3c.2.1.4.1.6.2h-.5c-.4.1-.4.8.1.9zm31.2-34.6c6.9 3.3 13.5 7.4 21 8.8-17.4 6-30 23.2-48.8 24.8-.1 0-.1-.1-.2-.1-.1-.1-.2-.2-.4-.2l-1.8-.9a12.26 12.26 0 0 0 3.3-2.6c3.1 0 6.2-1.5 8.9-2.8 3.2-1.6 6.2-3.7 9-5.9 6.1-4.8 12.4-10.4 20.6-10.8.8 0 .9-1.1.2-1.3-11.6-3.6-23.2-11.1-35.9-8.9-.2 0-.3.2-.4.3-.1-.1-.1-.2-.2-.2-1.6-2.1-3.5-3.7-5.7-5 10.5-1.3 20.8.3 30.4 4.8zm-29.1-8.2c-.7.7-1.5 1.4-2.2 2.1-.3.1-.5.3-.5.5-2.3-1.1-4.8-1.8-7.3-2 2.1-1.1 4-2.4 5.8-3.9.2 1 1.1 1.9 1.8 2.5.5.3 1 .6 1.6.8h.8zm.6-.5c-.2 0-.4-.3-.7-.4-.5-.2-1-.4-1.4-.7-.5-.3-.9-.7-1.2-1.2-.3-.4-.4-.8-.7-1.1 1.4-1.2 2.8-2.6 4-4 .7 1.8 2.5 2.9 4.4 3.1-1.5 1.4-2.9 2.8-4.4 4.3zm5-5.3c-2 .1-3.7-1.4-4.2-3.3 1.1-1.4 2.2-2.9 3.1-4.5.9 1.8 2.9 3 4.9 3-1.2 1.7-2.4 3.3-3.8 4.8zm7.2-10c-.9 1.6-1.8 3.1-2.9 4.6-2.1-.1-3.9-1.4-4.7-3.4v-.1a74.55 74.55 0 0 0 2-4c.4.9 1.4 1.6 2.1 2 .6.3 1.2.5 1.8.6.9.1 1.1-.1 1.9-.4.2-.1.2-.5-.1-.4-.4 0-1.3-.2-1.6-.2-.5-.1-1.1-.3-1.6-.6-.9-.5-1.3-1.4-2.1-2 .6-1.6 1.2-3.3 1.6-5 1.5 1.7 4.1 3.1 6.4 2.7-.7 1.9-1.7 4.1-2.8 6.2zm3.4-8c-1.1.1-2 .3-3.2.1-1.3-.3-2.6-1-3.5-2 .4-1.5.6-3.1.8-4.6v-.2c2.5.6 5.8.9 7.4-1.2-.2 2.7-.7 5.3-1.5 7.9zm1.7-9.7c-.1 0-.3 0-.4.1-2 2.3-4.4 2.4-7.1 1.9.1-1.5.1-3.1.1-4.6 2.8.2 5.9-1.4 7.1-3.9a35.8 35.8 0 0 1 .3 6.5zm-.7-8.4c-.1.1-.2.1-.2.3-1.2 2.9-3.5 4.8-6.6 4.8-.2-2.5-.7-5-1.5-7.4 1.5-.3 2.9-1 3.9-2.1.7-.8 1.6-2 1.8-3.2 1.2 2.4 2.1 5 2.6 7.6zm-5.2-11.8l1.8 2.7c-.1 0-.1.1-.1.2-.3.5-.3 1.1-.5 1.7-.3.7-.7 1.4-1.2 2-.9 1.1-2.1 1.7-3.4 2.1-.7-1.8-1.7-3.6-2.9-5.1-.3-.3-.5-.7-.8-1 2-1.2 3.9-3.6 4-6 1.1.9 2.1 2.1 3.1 3.4zm-13.3-9.2c.1 1.9-.6 3.8-1.9 5.3-.2.2.1.7.4.5.5-.4.9-.5 1.3-1.1.3-.4.6-.9.8-1.4.4-.9.6-1.9.6-2.9a27.13 27.13 0 0 1 7.8 4.3c-.3 1.2-.4 2.4-1 3.6-.6 1.1-1.4 2-2.5 2.7-3.9-4-9.2-6.1-14.7-6.9.9-1.3 1.8-3.2 1.7-4.7 0-.3-.1-.6-.3-.9 2.7.3 5.3.8 7.8 1.5zm-9.3-1.5c-.1.3.2.8.5.6 0 0 .1.1.1.2.1.4.1.7 0 1.1l-.3 1.2c-.3.9-.7 1.7-1.1 2.5-.4 0-.8-.1-1.2-.1-2.3-.2-4.6-.2-6.9-.1 1.1-1.4 1.8-3.6 1.1-5.3 2.7-.2 5.3-.3 7.8-.1zM25.9 59.1c.2.2.4.5.5.6.6.6 1.3 1 2.1 1.3-1.3 2.1-2.3 4.4-2.9 6.7v.4c-.1 0-.1.1-.2.1.9-3.1 1-6.2.5-9.1zm53.3 30c0 .1 0 .1 0 0 .7-7-9.2-8.7-14-11-7-3.4-12.4-9.5-14.9-16.8-.2-.7-1.2-.7-1.4 0-1.8 5.5-7.2 8.2-12.7 7.2-3-.5-6.2-1.5-9.1-.9 4.2-14.2 20-22.3 33.9-17.1 7.3 2.7 13.3 8.3 16.5 15.4.7 1.5 1.3 3.1 1.7 4.8 0 .1 0 .1.1.2.6 2.3 1 4.6 1.1 6.9.2 3.9-.8 7.5-1.2 11.3zm33.8-2.3c-2.7-3.3-6.2-5.7-10.1-6.7 2.5-2.2 5.5-3.6 8.4-5.2l7.5-3.9c-3.3 6.6 1.6 15.2-2.3 21.7-.9-2.1-2.1-4.1-3.5-5.9zm3.7 6.3c5.5-6.8-1.4-16.8 4.4-23.5.5-.5-.1-1.3-.8-1l-10.4 5.5c-3 1.6-5.9 3.1-8.4 5.4-.1 0-.1.1-.1.1-1.8-.3-3.7-.4-5.6-.2h-.2c6.8-9.5 20.2-10.7 27.7-19.3-2.3 12.9 1.7 26.9-5 38.8-.2-1.8-.8-3.8-1.6-5.8zm13.5-44c-4.1 9.3-3.4 19.8-3.4 29.9 0 5.1-.3 10.3-1.6 15.3-.6 2.5-1.5 4.9-2.7 7.2-.6 1-1.2 2.1-1.9 3-.3.4-1.5 2.2-2.4 3 .5-2.5.5-5.2.2-7.7 8.7-12.2 3.1-28.2 6.6-41.9.2-.7-.7-1-1.1-.5-7.1 10.7-22.7 11-29.7 21.9-.1.2-.1.3-.1.4-2.2.4-4.3 1.2-6.3 2.3 10.7-14.7 26.7-24.1 42.4-32.9zM86.7 78.8c-.1 1.4-.3 2.9-.5 4.3-2 1.2-3.8 2.7-5.4 4.4 1.1-2.8 1.4-6.2 1.3-9.5 1.4-.8 3.5-.5 4.6.8zm-.7-9.2h.3c.4 2.6.6 5.3.5 8-1.3-1.2-3.2-1.6-4.8-.8-.2-2.2-.6-4.3-1.1-6.2.5-.3 1.1-.7 1.7-1 1.1-.3 2.2-.3 3.4 0zm-2.5-8.9c1.2 2.5 2 5.2 2.5 7.9-1.6-.5-4.1-.4-5.6.6-.4-1.4-1-2.8-1.6-4.1.6-.4 1.1-.9 1.7-1.2 1-.5 2.1-.7 3.3-.7.6 0 .6-1 0-1-1.3 0-2.5.2-3.7.7a6.37 6.37 0 0 0-1.8 1c-1.1-2.1-2.4-4-3.9-5.8.5-.8 1.2-1.5 2.1-2 1-.6 2.1-.6 3-1.2.2-.1.3-.4.2-.6 1.5 2.1 2.8 4.2 3.8 6.4zm-4-6.5s-.1 0-.1-.1c-1.2-.4-2.8.6-3.7 1.3-.7.6-1.3 1.3-1.8 2.1-1.1-1.2-2.2-2.3-3.4-3.3-.3-.3-.6-.5-1-.8 0-1.1.3-2.1 1-2.9.7-1 1.8-1.3 2.7-2 .1-.1.2-.2.1-.4 2.3 1.8 4.4 3.8 6.2 6.1zm-6.7-6.5c-1.3 0-2.6 1.4-3.2 2.4-.5.9-.8 1.8-.9 2.8-2.3-1.6-4.8-2.9-7.4-3.8.1-.8.2-1.7.5-2.5.3-1 1-1.8 1.4-2.7.2-.4-.3-.9-.7-.5-1.4 1.3-1.9 3.6-1.9 5.5-2.4-.8-4.8-1.2-7.2-1.3 0-.1.1-.1 0-.2-.2-1-.4-2-.2-3.1.1-1 .6-1.8.9-2.7 0-.1 0-.3-.1-.4 6.8 0 13.4 2.5 18.8 6.5zm-19.4-6.6c-1.6 1.5-1.5 4.5-.6 6.4-2.1-.1-4.2.1-6.3.5-.7-.9-1.4-1.6-2-2.6-.5-.9-.6-1.8-.8-2.8 3.1-1 6.4-1.5 9.7-1.5zm-10.7 1.8c.1 1.9 1.6 4.2 3.1 5.2-2.5.6-4.9 1.5-7.2 2.8-.8-.5-1.4-1.2-1.9-2-.5-.9-.5-1.8-.9-2.7 2.2-1.3 4.5-2.4 6.9-3.3zm-7.8 4c.1 1.8 1.5 3.5 2.9 4.5-.3.2-.7.4-1 .7-1.5 1-2.9 2.2-4.2 3.5-1-.2-1.9-.8-2.4-1.7-.4-.7-.4-1.4-.5-2.1 1.5-1.8 3.2-3.5 5.2-4.9zm-6.3 6.2c.2.6.5 1.2.8 1.6.6.8 1.5 1.4 2.5 1.5-1.2 1.3-2.2 2.6-3.2 4.1l-.1-.1c-.7-.2-1.2-.6-1.7-1.2-.2-.3-.4-.6-.5-.9s-.1-.5-.4-.7c.8-1.5 1.6-3 2.6-4.3z"/><path id="H" d="M5.3 56.5c8.1 8.9 16.3 17.6 22.7 27.9 3.1 5.1 5.9 10.4 7.9 16 .5 1.4 1 2.9 1.4 4.3 0 .2.1.5.1.7s.1.3.2.3c.3 1 .5 1.9.8 2.9.1.2.1.5.2.7 0 .4.1.8.1 1.2 0 .1.1.2.1.3.3 1.8.5 3.7 1.3 5.2-.7.7.4 1.8 1.1 1.1 7.8-7.5 17.3-12.8 27.6-16.1 5.5-1.8 11.2-3 16.9-3.8 6.1-.8 12.2-.7 18.3-1.4-.3 3-.1 6.1-.1 9.1l-.4 10c-.5 6.7-1.4 13.4-2.9 20-1.4 5.9-3.4 11.7-6 17.1-1.2 2.5-2.6 4.9-4.1 7.3-.8 1.3-1.7 2.5-2.6 3.8-.4.6-.8 1-1.1 1.6-.3.1-.7.1-1 .2-.7.2-.5 1.2.2 1.2 2.9.2 5.9-.1 8.9.2 2.9.3 5.7.8 8.5 1.5 5.8 1.4 11.5 3.7 16.8 6.5 10.2 5.4 18.9 12.9 27.8 20.1-.1 0-.2.1-.3.1-2.5 1.9-4.6 4.5-6.9 6.6s-4.7 4.1-7.2 5.9c-5 3.8-10.3 7.1-15.8 10-5.6 2.9-11.4 5.4-17.4 7.3-5.7 1.9-11.5 3-17.3 4.3-.2-.2-.4-.4-.6-.5-.7-.6-1.8.4-1.1 1.1 9.2 7.9 16.4 17.9 20.9 29 2.2 5.4 3.8 11.1 4.8 16.9 1 5.9 1 11.7 1 17.6-13.2-.9-26.3-1.4-39.1-4.9-5.8-1.6-11.5-3.8-16.9-6.5-5.1-2.5-9.7-5.8-14.7-8.6 0-.1 0-.2-.1-.3-.2-1-1.8-.6-1.5.4 2.6 11.9-.1 24.2-5.4 34.9-5.2 10.4-12.7 19-20.1 27.8-3.1-4.3-6.4-8.4-9.8-12.4v2.5c2.9 3.7 5.8 7.3 8.9 10.8.1.2.3.2.5.2.1.3.5.5.8.2 5.8-5.8 11.4-12.3 16.1-19.5 2.2 6.2 9.1 8.6 15.2 8.8 8.9.3 18.5-3.4 26.9 1.3.5.3 1.3-.2 1.1-.8-4.7-12.7 11.9-21.9 9.9-34.6 9.5 1.6 19.2 2.1 28.7 2.4.7 0 .9-.9.4-1.3 1.3-8.7.1-18.1-2.4-26.7 5.6 1.5 11.9-.3 16.4-3.8 5.6-4.3 9.6-11.8 17.3-12.6.8-.1 1-1 .4-1.4-11.2-8-1.1-28.2-14.5-34.4 3-1.9 6-3.9 8.9-6.1 2.4-1.8 4.7-3.7 7-5.7 2.3-2.1 5.1-4.3 6.8-6.9.1-.1.1-.3.1-.4.4 0 .8-.5.4-.9-6.8-6.6-14.3-12.7-22.4-17.7 4-3.9 6.3-9.2 6.9-14.7.4-3.2-.1-6.3-.5-9.4-.6-3.9-1.1-8.3 1.9-11.5.4-.4.2-1.3-.5-1.2-3.5.4-6.9-.2-9.9-2-2.8-1.7-4.9-4.2-7.1-6.4-3.5-3.5-8.3-7.2-13.6-5.7.5-3.2.8-6.4 1-9.6.3-3.5.4-7 .5-10.4.1-3.5.4-7.1-.1-10.6-.1-.7-1-.5-1.2.1-6.1-.7-12.6.1-18.6.9-3.9.5-7.8 1.3-11.6 2.3 1.1-5.2-3.3-10.2-7.2-13-5.6-3.9-12.7-6-16.6-12.1-.4-.6-1.1-.4-1.3.2-1.7 4.5-10.8 1.4-14.2 1.1-3.4-.2-6.7.4-9.2 2.8l-.1.1c-1.1-1.6-2.3-3.1-3.5-4.7.1-.2.2-.4.2-.7-.1.2-.2.3-.3.5-4.9-6.3-10.3-12.3-15.9-17.8-.5-.5-1.2-.1-1.3.5 0 0 0 0-.1 0l-4.3 5v2.6c1.3-2.2 3.1-4.2 4.9-6.3zm45.6 226.3c.7.4 1.4.7 2.2 1-.2-.1-.5 0-.7.1-.5-.4-1.1-.9-1.6-1.2 0 0 0 .1.1.1zm-13-2.3a60.94 60.94 0 0 0-.6-6c2.3 2 5 3.7 7.7 5.3a.47.47 0 0 0 .1.6c1.7 1.6 3.3 3.6 2.8 6.1-.7 3.2-4 3.7-6.3 1.9-2.2-1.8-3.1-4.9-3.7-7.9zm7 10.2c2.4-.2 4.1-2.2 4.4-4.6.1-1.1-.1-2.1-.4-3 2.8 1.5 5.1 3.8 6.1 6.8 1.1 3.5-.2 7.7-3.4 9.6-3.7 2.2-8.1-.1-10.3-3.4-1.9-2.8-2.3-6.2-2.6-9.5 1.3 2.6 3.3 4.4 6.2 4.1zm9 9.5c.5.9 1.4 1.6 2.1 2.4.8.8 1.5 1.7 2.3 2.5.1 0 .1.1.2.1-1.6 1.7-3.8 2.8-6.1 3.2-1.1.2-2.3.1-3.4-.1.2-2.1.4-4.3.2-6.4 1-.1 1.9-.4 2.9-.9v.2c-.2-.1-.5 0-.5.4.1 2.1 1 4.4 1.5 6.4.1.3.6.2.5-.1-.3-1.8-.5-3.8-1-5.5v-.4c0-.4.1-.8 0-1.2l.1-.1c1.2-.8 2.1-1.9 2.8-3.1 1.6 1.4 3.6 2.5 5.6 3-.3 1.6-1.1 3.1-2.2 4.3v-.1c-.6-.8-1.3-1.6-2-2.4s-1.4-1.9-2.3-2.5c-.4-.5-1-.2-.7.3zm-12.8-2l.6.6c.6.6 1.3 1.1 2 1.6-.4 1.6-.6 3.2-1 4.7-1-.9-2-1.9-2.7-3.1-.1-.1-.1-.2-.2-.3.6-1 1.2-2.3 1.3-3.5zm-1.7 2.9c-.6-1.1-1-2.2-1.4-3.3.5-.9 1-2 1-3 .4.9.8 1.8 1.4 2.6-.2.7-.3 1.5-.5 2.3-.1.5-.3 1-.5 1.4zm5.1-.2c1.2.6 2.4.9 3.7.9-.2 2 0 4.2.2 6.2-1.8-.4-3.6-1.3-5.1-2.4.6-1.5 1.1-3.1 1.2-4.7zm11.4-4.5c.4-1 .6-2 .7-3.1 1.4.7 2.8 1.4 4.1 2.3.3.8.4 1.6.5 2.5 0 .5 0 1.1-.1 1.6-1.8-.9-3.5-1.9-5.2-3.3zm.8-4c0-.7-.1-1.4-.3-2.1-.2-.8-.5-1.5-.8-2.3 1.9 1.9 3.7 4 4.7 6.4-1.1-.8-2.3-1.5-3.6-2zm-19-4.4c.1 2 .3 4 .9 5.8-.2 0-.3.1-.3.3-.2.8-.2 1.6-.4 2.3 0 .1-.1.3-.1.4-.6-2.9-.6-6-.1-8.8zm-1.5 7.5a15.47 15.47 0 0 0 .6 3.1v.1c-.1.2 0 .4.2.4.5 1.6 1.3 3.1 2.3 4.5.8 1.1 1.8 2.1 2.9 3 0 .1-.1.2-.1.3-.1.3.4.5.5.2 0 0 0-.1.1-.1 3 2.2 6.7 3.3 10.3 2.6 4.8-.8 9-5 9.6-9.9.7-6.4-4.9-11.9-9.3-15.7l-.1-.1a94.7 94.7 0 0 0 14.6 5.4l4.7 1.2c-.1.2-.2.4-.1.7 2.6 6-1.8 11.5-5.2 16.1-2.6 3.5-4.9 7.3-4.8 11.7-4-2.2-9.7-.9-14-.9-6 0-16.3.9-18.7-6.2 2.8-5.2 5.1-10.7 6.5-16.4zm31.4 29.8c-6.5-2.8-13.6-1.5-20.5-.9-7.5.7-16.4-.2-20.2-7.8 0 0 0-.1-.1-.1.7-1.2 1.5-2.4 2.2-3.6 1.6 5.1 7.7 6 12.4 6.3 3.6.2 7.2.3 10.8.2 3.4-.1 7.6-.9 10.5 1.5.5.5 1.2 0 1.1-.7-1.6-11 15.1-18.2 9.8-29.4l4.3.9C80 304 64.5 313 67.6 325.3zm41-95.2c-1-1.1-2.3-2.1-3.7-2.7 2.6 0 5.2.7 7.4 2.1-1.3-.1-2.5.1-3.7.6zm1.8 2.9c-.3-.8-.7-1.5-1.2-2.2 1.2-.4 2.4-.8 3.8-.8h.1c.5.4.9.7 1.3 1.2.3.3.6.7.9 1.1h-.1c-1.6.2-3.2.4-4.8.7zm5.2-.3c.7 1.1 1.2 2.3 1.5 3.6-2.1-.1-4.1-.2-6.2-.2 0-.8-.1-1.6-.3-2.4l4.7-.9c.2.1.3 0 .3-.1zm-21.2 6.1c-1.5-.4-2.8-1.2-4-2.1-2.1-2.4-4.3-4.7-6.6-6.9 2.7-.3 5.4-.7 8.1-1.3.1 0 .1.1.2.1 2.1.1 4-.3 6 .8 2.2 1.2 3.4 3.8 2.8 6.3-.8 2.9-3.8 3.8-6.5 3.1zm7.7-2.8c.9-3.5-1.4-7.1-4.6-8.5 3-.3 6 .1 8.5 1.9 2.8 2 4.1 5.5 3.3 8.9-1 3.9-4.9 5.5-8.7 4.8-2.6-.4-4.8-1.7-6.9-3.2.7.2 1.4.4 2.1.4 3 .2 5.6-1.4 6.3-4.3zm1.9 9c.5.7 1.3 1.2 2 1.8.5.4 1 .8 1.5 1.3-.5 0-1.1 0-1.6-.1-1.1-.1-2.2-.4-3.2-.7-.3-1-.8-1.9-1.4-2.7.5.1 1 .1 1.6.1 1.8-.1 3.4-.6 4.8-1.5 1.6 1.5 3.5 2.6 5.5 3.5-1.5.9-3.1 1.4-4.9 1.5-.6-.6-1.2-1.1-1.8-1.7s-1.2-1.3-2-1.8c-.3-.3-.7.1-.5.3zm4.3-2.4c.7-.6 1.2-1.3 1.7-2.1 2.3.5 4.5 1.2 6.7 2.1 0 .1-.1.2-.1.2-.7 1.4-1.6 2.5-2.8 3.3-2-1-3.7-2.3-5.5-3.5zm2-3c.2-.4.3-.8.4-1.2.1-.5.2-.9.2-1.3 2.1 0 4.2-.1 6.3-.2.3 1.7.2 3.4-.4 5.1-2-1.2-4.2-2-6.5-2.4zm-16.1 2c1.8 1.3 3.8 2.3 5.9 2.8.7.9 1.3 1.7 1.8 2.7-2.6-1.1-5-2.8-7.2-4.7-.1-.3-.3-.6-.5-.8zm10 18.7c-.3-.9-.7-1.8-1-2.7-1.7-4.3-3.9-8.3-6.3-12.2 2.9 2.3 6.4 4 10.2 4.1 2.7.1 5.4-.7 7.6-2.3.2.1.4.2.6.2.2.1.4-.3.2-.4-.1 0-.2-.1-.3-.2 1.3-1 2.3-2.4 3-4 1.7-4.3.6-9.4-2.6-12.7-3.5-3.6-8.7-4.8-13.5-4-.2 0-.3.1-.4.2-.4-.1-.8-.1-1.2-.2 6.2-2 12.3-4.7 17.8-7.6.8-.4 1.5-.8 2.3-1.2 6.4 2.3 6.7 8.5 6.9 14.6.2 4.9 1.3 9.4 3.7 13.7-5.4.5-6.8 7.1-9.9 10.7-4.2 5-11 4.7-16.9 4h-.2zm20.4-45c7.8 3.1 7.7 12.7 8.3 19.7.4 5.1 1.6 10.3 5.3 13.8-5.7 1.3-9.4 5.9-13.4 9.9-5.3 5.4-11.4 7.4-18.9 6.6-.4-1.4-.9-2.8-1.4-4.1 4.8 1.4 10.6 1.2 14.9-1.5 2.3-1.4 3.7-3.5 5-5.8 1.7-3.1 3.7-7.1 7.8-6.9.5 0 .9-.6.6-1-1.8-2.9-3-6-3.6-9.3-.6-3.6-.3-7.3-.8-10.9-.5-3.4-2.6-8.2-6.2-9.3l2.1-1.2c.1-.1.1 0 .3 0zm-20.2-68.7c0 .4 0 .7-.1 1.1-.1.7-.3 1.3-.6 2-2.7.3-5 1.6-7.2 3.2 2.2-2.7 4.8-5 7.9-6.3zm8.3 7.2c-.1-.2-.2-.3-.3-.5-.3-.4-.6-.9-1-1.2a22.53 22.53 0 0 0 2.1-2.4c.6-.8 1.3-1.7 1.7-2.6 1.5.9 2.7 2.1 3.5 3.8h-.1c-1.8 1.3-3.7 2.3-5.9 2.9zm6.4-2.1c0 .1.1.1.1.2.6 1.8.4 3.7-.2 5.4-.8-.1-1.7-.1-2.5-.2l-3.1-.3c0-.8-.1-1.6-.4-2.4 2.2-.5 4.3-1.4 6.1-2.7zm-5.9-2.8c-.6 1-1.4 1.9-2.1 2.8a7.68 7.68 0 0 0-2.5-1.4c.7-1.5 1.4-3.1 2-4.7 1.4.1 2.7.5 3.9 1-.4.8-.8 1.6-1.3 2.3zm-5.2 1.2c-1.2-.4-2.5-.5-3.7-.4.3-.6.5-1.1.6-1.7.1-.5.3-1 .3-1.6.4-.2.9-.3 1.3-.4 1-.3 2.1-.4 3.2-.4-.6 1.4-1.1 2.9-1.7 4.5zm-16.7 10.4c.3-.4.5-.8.7-1.1a.47.47 0 0 0 .6-.1c1.6-1.8 3.6-3.1 6-3.6 1.7-.3 3.7-.3 4.8 1.2 1 1.3.9 2.8 0 4.1-1.4 2.2-4.3 2.7-6.7 3.1-1.6.2-3.2.4-4.7.5-1.2-.1-2.4-.1-3.5 0 1.2-1.4 2.1-3.1 2.8-4.1zm14.1-2.1c0-2.7-2.3-4.1-4.8-4.2-2.2 0-4.3.6-6.1 1.8 3.5-2.9 8.7-6.4 13.1-5v.1c-.1.3.4.5.5.2 0 0 0-.1.1-.1a7.54 7.54 0 0 1 2.6 1.9c2.5 2.7 1.1 6.6-1.4 8.8-2.7 2.3-6.5 2.6-10 2.7 3.4-.8 6-2.6 6-6.2zm13.3-.6c-1.1 2.5-3.2 4.7-5.4 6-.2.1-.5.3-.7.4-.7 0-1.4 0-2.1-.2-.5-.1-1-.4-1.4-.6.6-.3 1.1-.7 1.6-1.2.3-.3.6-.6.9-1l1.9.3c.7.1 1.5.1 2.2.2.2 0 .2-.3 0-.3l-2.2-.6-1.4-.3c.6-.9 1-2 1.2-3 1.7.3 3.7.6 5.4.3zm-21.3 7.3c.2 0 .5-.1.7-.1v.3c-.2-.1-.4-.2-.7-.2zm5.7 1.1c-.1 0-.2-.1-.3-.1-1.1-.3-2.3-.5-3.5-.7 3.1.2 6.4 0 9.1-1.4.8.6 2 .9 3.1.9-2.6 1.2-5.6 1.6-8.4 1.3zm16.5 6.3c-4-2.1-8.3-3.8-12.6-5.2 2.9-.2 5.7-1.3 8.1-3 4-2.9 7.1-8.1 5.3-13.1-1.8-5.1-7.2-7.6-12.3-7-4.5.5-8.3 3-11.4 6.2 2.2-4.8 3.8-9.9 5-15 .2-1 .4-2 .7-3 5.6-1.1 11 1.7 14.7 5.8 2.6 2.8 4.9 7.2 9 7.1-2 4.2-.1 8.8.6 13.2.9 5.5-1 11.1-4.9 15.2-.6-.4-1.4-.8-2.2-1.2zm.2-36.6c3.6 3.5 8 5.5 13 5.3-3.1 4.8-.9 10.9-.5 16.3.4 6.8-2.2 13.2-6.4 18.5-1-.6-2.1-1.2-3.1-1.8 3.3-3 5.2-7.1 5.6-11.5.5-5.9-3.9-12.5-.3-17.9.3-.5-.2-1.1-.8-1-3.8 1-6-2.7-8-5.2-1.4-1.8-3.1-3.3-4.9-4.6-3.4-2.4-7.5-3.6-11.6-2.9.3-1.4.5-2.8.7-4.2.1.1.3.1.4 0 7.1-1.4 11.4 4.7 15.9 9zM42.6 93.3c-.2-.4-.3-.8-.5-1.3a9.63 9.63 0 0 1 2.5-1.6c.1.3.3.5.4.8.3.5.5.9.8 1.4-3.4.5-6 3-7.4 6.1.5-2 1.3-4 2.8-5.7l.4-.4c.2.3.4.6.6 1 0 .2.5 0 .4-.3zm3.7-.8v-.2c-.2-.5-.5-1-.7-1.5-.1-.2-.2-.5-.3-.7 1.6-.6 3.3-.8 5.1-.5.2 0 .4.1.6.1-.7.9-1.1 2.1-1.2 3.2l-1.2-.3c-.8-.2-1.6-.2-2.3-.1zm-5.4 22.9c.2-2.2-.6-4.8-1-6.8-.1-.3-.2-.6-.2-.9-.1-1.9 0-3.9.9-5.6 1.5-3 5.2-4.3 7.7-1.6 3.1 3.4 1.4 7-1.4 10-2 1.5-4.1 3.1-6 4.9zm9.1-7.1c.1-.2.2-.5.3-.7 1.2-3.1.8-6.8-2-8.8-2.3-1.7-5.3-1.3-7.3.7-1.3 1.3-2 2.8-2.3 4.4 0-.1-.1-.2-.1-.3.1-2.3.6-4.5 2-6.5 1.8-2.5 4.7-3.9 7.7-3.4 3.2.5 5.4 3 5.3 6.3 0 3-1.6 5.6-3.2 8-.1.2-.3.3-.4.3zm2.3-1.4c1.7-2.5 2.9-5.2 2.4-8.3-.4-2.6-2.1-4.5-4.4-5.5.1-1.2.7-2.1 1.4-3.2 1.4.5 2.6 1.3 3.5 2.3-.2.1-.2.3-.3.5a3.04 3.04 0 0 1-.5.7c-.4.4-.8.8-1.3 1.1-.3.2 0 .6.3.4.6-.3 1.1-.7 1.5-1.1.2-.3.6-.6.7-1 .7.9 1.1 2 1.4 3.2-.3.3-.5.6-.8.9-.4.3-.8.7-1.3.9-.2.1-.1.4.1.3.6-.1 1-.3 1.5-.7.2-.1.4-.3.6-.5v.3c.1 1.3-.1 2.5-.5 3.6l-.2.2c-.2.3-.7 1.2-1.1.9h-.1c-.1-.1-.1-.3 0-.4s.1-.3-.1-.2c-.2 0-.3.1-.3.3v.2c0 .1 0 .3.1.2-.1.1-.1.3 0 .4.3.2.7.2 1 .1-.7 1.4-1.6 2.6-2.7 3.8-.2.2-.6.4-.9.6zm15.3-7c-4.1 1.4-8 3-11.8 5 1.8-2.3 2.9-5.1 2.7-8.1-.3-4-2.9-7.1-6.7-8.3-6.7-2-13.6 3.2-15.1 9.7-2-5-4.4-9.8-7.2-14.3-.3-.4-.5-.8-.8-1.3 2.1-.9 3.9-1.5 6.3-1.4s4.6.8 7 1.3c2.5.4 5.2.2 6.9-1.6 1.6 3.6 5.3 5.4 8.9 6.9 2.4 1 5 2.1 6.8 4.1 2 2.2 3.2 5 3.6 7.9-.3 0-.4.1-.6.1zM40.9 76.7c2.8.3 6.7.5 8.5-1.9 6.9 9.2 22.8 10.1 23.4 23.6-1.3.3-2.5.7-3.8 1.1-.1-4.3-2.1-8.1-5.7-10.5-4.5-3.1-11.9-3.8-13.6-9.8-.2-.6-1-.7-1.3-.2-2.2 4.3-8.1 1.5-11.7 1-2.8-.4-6.5-.3-8.7 1.6-.7-1.1-1.4-2.2-2.2-3.3.1 0 .2-.1.4-.2 4-3.8 9.8-2 14.7-1.4z"/><path id="I" d="M6.8 356.9c.1.2.3.4.5.4.2.2.6.2.9.1.2-.1.5-.2.6-.4s.2-.4.2-.6c0-.4-.1-.9-.4-1.2-.2-.2-.4-.3-.7-.3a3.04 3.04 0 0 0-.7.5c-.2.5-.6 1.1-.4 1.5z"/><path id="J" d="M3.2 197.7c3.2.6 5.6 3.1 5.2 6.5-.3 3.3-3.2 5.6-6.5 5.4-.7 0-1.3-.2-1.9-.4v1.4c.6.2 1.2.3 1.9.4 4.1.2 7.7-2.8 8-7 .2-4.2-3.1-7.2-7.1-7.7-.9-.1-1.8-.1-2.8 0v1.4a8.61 8.61 0 0 1 3.2 0z"/><path id="K" d="M.1 33.7c-.1.3-.2.5 0 .8.1.2.3.3.5.5.1.1.3.1.4.1.2.2.4.3.7.2.8-.2 1.1-1.4.7-2-.3-.5-.7-.6-1.2-.5-.5 0-.9.4-1.1.9zm1.5.4s-.1 0 0 0c-.1-.1-.2-.3-.3-.3.1 0 .2-.1.3-.1v.4z"/><path id="L" d="M7 352.3c.1.2.1.3.2.4.5.8 1.8.1 2.2-.5.2-.4-.1-.9-.4-1.1-.3-.3-.7-.4-1.1-.5-.4 0-.9.1-1.1.4a.95.95 0 0 0 .2 1.3z"/><path id="M" d="M.5 39.4c-.1-.3-.5-.1-.5.2.4 1.8 3.6 1.4 3.5-.5 0-.3-.3-.6-.5-.8s-.5-.6-.8-.7c-.5-.1-1.4.2-1.8.6-.8.9 1.2 2.2 1.7 1v-.3c.1.1.2.2.3.2-.2 1-1.6 1-1.9.3z"/><path id="N" d="M123.3 308.2c.1.1.2.1.4.2-.1.2 0 .4.1.5.6.4 1.3-.1 1.5-.7.2 0 .3.1.5.1.1 0 .1-.1 0-.1s-.3-.1-.4-.1c.1-.2.1-.4.1-.7-.1-.5-.6-.7-1.1-.7s-1 .3-1.2.7c-.3.4-.1.7.1.8z"/><path id="O" d="M116.2 76.5c0-.4-.2-.7-.6-.9-.4-.1-.8-.1-1.2 0s-.9.4-1 .8c-.1.5.4 1 .9 1.1.1.1.3.2.5.2.3 0 .6-.1.9-.3.2-.3.5-.6.5-.9z"/><path id="P" d="M121.4 306.5c.3-.3.3-.7.1-1.1-.1-.2-.3-.3-.4-.3-.1-.1-.1-.2-.2-.2-.5-.4-1.1-.2-1.5.3-.1.2-.2.5-.1.8v.1c-.1.3-.1.6.2.8.2.2.5.3.8.3h.2c.2-.2.6-.4.9-.7z"/><path id="Q" d="M.5 76.6c-.2-.1-.3-.1-.5-.2v.9c.4.1.9.2 1.3.4L0 79.6v2.7C2 79 4.3 75.9 6.8 73c6.3 10.9 14 21 19.4 32.3 5.3 11.1 7.8 23.2 4.9 35.2-.2.3-.5.7-.7 1-3.7 5.7-6.7 11.9-8.5 18.5-.9-.4-1.8-.7-2.8-1l2.4-3.3c.2.2.6-.1.4-.4l-.1-.1c6.2-9.8 8.3-21.9 6.2-33.3-.1-.7-.3-1.3-.4-2 0-.1 0-.2-.1-.3-1.6-6.4-4.6-12.4-7.9-18.1-4.3-7.4-8.9-14.6-13.4-21.9a.57.57 0 0 0-1 0c-1.9 2.7-3.7 5.5-5.3 8.3v2.7c0-.1.1-.1.1-.2 3.1-1.2 6.1-1.8 9.5-2.3.4-.1.3-.6-.1-.6-3-.2-6.2.7-8.9 2.1 1.5-3 3.3-5.8 5.2-8.5l9.1 14.8c-3-1.1-6.2-1.5-9.4-1.1-1.5.2-2.9.5-4.3 1-.4.1-.7.3-1.1.4v1c4.8-1.9 9.7-2.2 14.9-.4.2.1.4 0 .4-.1.8 1.2 1.5 2.5 2.3 3.7.2.4.5.8.7 1.2-3.1-1.9-7.8-2.2-11.4-2.1-.1-.3-.3-.7-.4-1-.2-.6-1.3-.6-1.2.2 0 .3.1.6.1.9-1.8.1-3.6.5-5.3 1v.9a46.78 46.78 0 0 1 5.4-.9c.1 2.3-.1 4.7-.5 7-1.5-.4-3.1-.4-4.8-.2v1.1c1.6-.1 3.1 0 4.7-.2-.5 2.6-1.3 5.1-2.1 7.6-.9-.2-1.7-.3-2.6-.4v.9l2.4.3c-.8 2.5-1.6 4.9-2.2 7.4H.2v9.2c.2-2.1.4-4.2.8-6.2 1.5-8.4 5.9-16.5 5.9-25.1 4.1 7.8 10 14.7 13 23.1 4 11.3-.6 22.3-4.8 32.8-1-.2-2-.3-3.1-.4.5-.8 1-1.6 1.4-2.4.3-.2.5-.3.7-.6.2-.2 0-.4-.2-.3 2.7-5.1 4.6-10.8 4.7-16.6.1-5.2-1.2-14.1-7-16.2-6.8-2.5-8.3 6.9-8.5 11.5-.2 4.3-.1 8.6.5 12.8.2 1.8.5 3.5.8 5.2.4 2.1 1.2 4.3 1.4 6.4-.8 0-1.6.1-2.4.1-1.7-5-2.8-10.2-3.1-15.4v9.1c.1.3.1.5.2.8-.1 0-.1 0-.2-.1v.6c.1 0 .2 0 .3.1.4 1.7.9 3.3 1.4 5-.6.1-1.2.1-1.8.2v1.5l2.4-.3c8.4-.6 16.6.1 23.8 4.9C43 175 45.3 196.7 42.9 214.9c0 0-.1.1-.1.2-3.1 7.8-8 14.3-15.3 18.7-7.2 4.3-15.9 6.2-24.3 5.9-1 0-2-.1-3.1-.2v1.4c.3 0 .5.1.8.1 0 .1-.1.1-.1.2-.3.8-.5 1.5-.7 2.3v9.8c0-.5.1-1.1.1-1.6.1.3.4.5.7.3 2.3-1.6 4.3-2.9 7.3-2.6 2.4.2 4.3 1.4 5.8 3.2.1 1.5.2 3.1.2 4.7 0 .7 0 1.5-.1 2.2-3.3-4.3-10.1-4.8-13.9-.4 0-.3 0-.7-.1-1v8.4c1 4.4 3.1 9.2 7.9 8.7 5.7-.6 6.6-7.6 7-12.4.1.4.7.2.6-.2-.1-.5-.3-.9-.5-1.3.5-6.8.2-14.2-2.1-20.7 1.7-.3 3.3-.6 4.9-1.1.9 10.2 2 20.3-.4 30.4-.5 2.3-1.3 4.6-2.1 6.8-.2 0-.3.3-.2.4-1 2.4-2.1 4.7-3.5 7-2.1 3.5-4.3 7-5.6 10.8-1.1-4.6-2.8-8.9-4.7-13.3 0-.1 0-.1-.1-.2-.5-1.1-.9-2.3-1.4-3.4v2.9c0 .1.1.2.1.2h-.1v.5h.4l2.4 5.9c-.9.1-1.8.1-2.7 0v.8c1 .1 1.9 0 2.9-.2.9 2.4 1.7 4.9 2.2 7.5-1.7-.2-3.5-.7-5.2-1.5v1.4c1.7.8 3.5 1.2 5.4 1.4 0 .2.1.3.1.5.1.6 1 .5 1.1 0 0-.1.1-.3.1-.4 3.4.1 7-.5 10.1-1.2l-.6 1.5c-.4 1-.8 2-1.3 3-2.1.7-4.2 1.1-6.4 1.2-1.7.1-7.4.6-7.8-1.9-.1-.4-.5-.3-.7-.1v2.9l1.8 3.2c1.6 2.8 3 6.2 5.2 8.5.2.2.7 0 .6-.3-.7-2.2-2.1-4.3-3.4-6.3 2.4 1 5.4.4 7.6-.9l-4.8 8.7c-.2.4.3.7.6.3 8.1-10.7 13-24.6 15.6-37.6l.3-1.8s0-.1.1-.1c.1-.1.1-.2 0-.3.4-2.2.7-4.3.9-6.5.1-.1.1-.2 0-.2.3-2.5.5-5.1.6-7.6.1-.1.2-.2.2-.3.2-.2 0-.6-.2-.6.2-6.2-.1-12.4-1-18.5.2-.2.5-.4.7-.6s0-.7-.3-.5c-.2.1-.3.1-.5.2-.2-1.1-.3-2.2-.5-3.3 0-.2-.1-.3-.3-.4.4-.2.9-.4 1.3-.6.4 3.4 1.6 6.8 2.2 10.2.7 3.9 1.1 7.8 1.2 11.7.3 7.5-.2 15-1.7 22.4a91.24 91.24 0 0 1-6.8 21.1c-3.1 6.5-7.1 11.9-12.2 17-1.5-2.4-3.4-4.6-5.1-6.9-.7-.9-1.3-1.8-2-2.7v3.5c.1-.1.2-.2.2-.3l.1-.1c1.9 2.6 4 5.1 6.4 7 .1.1.2.1.3 0 .1.2.4.3.6.1 1-.7 1.9-1.4 2.8-2.2 1.1 1.2 2.4 2.7 1.5 4.5-.6 1.3-2.2 1.8-3.5 1.6-2.6-.5-3.7-3.1-3.8-5.5 0-.4-.5-.8-.9-.5-1 .8-2.6 1.1-3.7.4v1.3c1.1.4 2.4.3 3.5-.2.5 3.3 3 6.7 6.7 5.7 1.6-.4 2.9-1.8 3.2-3.4.2-1.1-.2-2-.7-2.9 1.8.5 3.9.2 5-1.5.9-1.3.9-3 .2-4.3 2 .5 4.2.2 5.4-1.9 1.1-1.9.2-3.6-1.1-4.9 1.4 0 2.9-.7 3.7-2 1-1.7.6-3.7-.6-5.1 1.8.1 3.6-.4 4.4-2.2 1-2.2-.3-4.1-1.9-5.5 1.6-.2 3-1 3.7-2.5 1.1-2.3-.1-4.8-2.2-5.9 2.2 0 4.3-1.2 4.7-3.6.3-2.3-1.3-3.6-3.1-4.5 1.9-.6 3.5-2 3.7-4.2.3-2.8-2-4.3-4.2-5.2 1.2-.1 2.4-.6 3.3-1.5-.1 1.4.5 2.9 1.7 3.8 1.3 1 3 1.1 4.3.4-.3 2.4.7 5 3.2 5.8 1.2.4 3.1.3 4.4-.5-.1 1.2.5 2.4 1.7 3.2 1.8 1.1 3.7.8 5.2-.3-.1 1.9.9 3.9 2.8 4.7 2.1.8 4.5-.2 5.6-2 .3 1.8 1.7 3.4 3.5 3.8 1.9.4 3.6-.3 4.8-1.7.4 1.8 1.6 3.4 3.6 3.8 2.2.5 4.7-.9 5.4-3 0 1.9 0 3.6 2.4 4.4 1.8.6 3.5-.3 4.3-1.8 2 3.9 7 6.2 10.8 2.9 1.6-1.5 2.4-3.9 1.7-6-.6-2-2.2-3.2-4-3.9 3.7-2.3 2.4-8-1.7-8.6 1.4-.9 2.4-2.6 2-4.4-.4-2-2.1-3.3-4-3.4 1.6-1.3 2.9-3.1 1.9-5.2-.8-1.8-2.5-2.5-4.3-2.4 1.4-1.2 2.4-2.9 1.7-4.8-.8-2.1-2.8-2.3-4.7-2.1 1.3-1.5 1.9-3.3.6-5.3-1.1-1.7-3.3-2.2-5.1-1.6 2.1-2.7-.5-6.9-4-6.6.7-1.5.6-3.3-.5-4.7-1.7-2.1-4.7-2.1-7.1-1.1 1-.5 2-1.3 2.5-2.4.1-.2.2-.4.2-.6.7 1 1.8 1.7 3.3 1.5 1.4-.1 2.4-1.1 2.9-2.2 1.2 1.7 3.2 2.8 5.4 2 1.1-.4 2-1.4 2.4-2.5 1 1 2.5 1.4 3.9 1.1 2.1-.6 3.1-2.6 3.1-4.5 3.1 2.6 8.2.3 8.1-3.8 1.4 1 3.3 1.3 5 .5 2.4-1.1 3.3-3.9 3-6.4.8.7 1.4 1.6 2.6 2 1.2.3 2.7.1 3.8-.6 1.7-1.1 2.3-3.1 1.9-4.9 2.2 1.5 4.9 2.1 7.4.6 1.7-1 2.7-3.3 2.2-5.1 2.9 1.8 7.3-.1 7.9-3.8.9-5.2-3.9-8.3-8.5-7.5.9-1.9.6-4.4-1.3-5.8-1.6-1.2-3.7-1-5.2.1 0-1.8-.9-3.6-2.7-4.3-1.4-.6-3.2-.2-4.5.7.3-1.9-.5-4-2.3-4.9-1.9-1-4.2-.4-5.6 1-.2-2.4-1.7-4.7-4.4-5.1-1.9-.3-3.5.6-4.3 2-.2-1.5-1.1-2.9-2.6-3.5-2.1-.8-4.3.1-5.6 1.8-.6-1.8-2.1-3.2-4.1-3.2-1.8 0-3.4 1.1-4.1 2.7-.3-1.4-1.2-2.6-2.8-3-2-.5-3.5.4-4.5 1.8-.2-.5-.5-1-.9-1.3 3.1.3 5.6-3.2 4.3-6.1 1.8.5 3.7 0 4.9-1.5 1.1-1.5 1-3.5.1-5 1.9.1 3.9-.8 4.7-2.7.9-2 .2-4.2-1.3-5.7 1.7 0 3.4-.4 4.3-2 1.1-2.1-.1-4-1.7-5.5 2.1 0 4.2-1 5-3.2s-.4-4.6-2.3-5.6c2.1-.1 4 .1 4.6-2.7.5-2.3-.8-4.3-2.4-5.9 2-.1 3.9-1.3 4.4-3.3.5-2.1-.6-4.1-2.4-5.1 3.2-1.7 4.2-6.2 1.3-9-3.1-3-7.5-1.9-9.7 1.2-.9-2.4-3.4-4.2-6.1-3.4-1.9.6-3 2.1-3.4 3.9-1-1.4-2.7-2.3-4.6-1.9-2 .4-3.3 2-3.6 3.8-1.5-1.6-3.8-2.4-6-1.6-2.3.9-3.4 3.4-3.2 5.7-1.7-1.2-3.9-1.6-5.9-.4-1.9 1.2-2.4 3.6-1.4 5.5-1.4-1.2-3.6-1.6-5.3-.4-1.5 1-2 2.8-1.7 4.4-1.5-.7-3.4-.6-4.8.4-.4.3-.7.6-.9.9v-.1c-.2-2.1-1.8-3.6-3.7-4 1.4-1.3 2.2-3.2 1.7-5.2-.6-2-2.2-3.2-4.1-3.6 1.2-1.1 1.7-2.8 1.1-4.5-.6-1.6-2.1-2.4-3.7-2.5.9-1.2 1.1-3.2.8-4.3-.7-2.6-3.1-3.8-5.4-3.7 1-1.4 1.3-3.4.3-5-.9-1.6-2.6-2.4-4.4-2.3 1-1.5 1.3-3.5.1-5.1-.9-1.3-2.5-1.8-3.9-1.6.5-1.2.5-2.8 0-3.9-.9-2.1-3.1-3.1-5.1-2.6 1.7-4.4-1.4-9.6-6.5-9.3-2.5.1-4.9 2-5.9 4.3v5.2c-.2-.2 0 0 .2.3zM4.1 132l-.1-.1.3-2.9c.1-.6.2-1.2.4-1.8.6 1.9 2.5 3.5 4.4 3.7 2.8.3 5.2-2 5.4-4.7 0-.4-.6-.5-.7-.1-.5 2.2-2.6 4.1-4.9 3.6s-3-2.5-3.2-4.5c0-.1 0-.1-.1-.2 1.2-2.2 3.1-3.8 5.9-2.4 2.9 1.5 4.3 5.3 5 8.2.1.5.2 1.1.3 1.7-3.4 4.3-9.6 4.4-12.7-.5zm.1 6.6c-.1-.1-.1-.2-.2-.2 0-1.5-.1-3.1 0-4.6 3.4 4.1 10 4.2 13.1-.3.3 2 .3 4.1.1 6.1-3.8 3.8-9.9 3.8-13-1zm.5 8.4c-.3-2.2-.5-4.4-.6-6.5 3.4 3.8 9.4 4.1 12.9.4a38.62 38.62 0 0 1-2 7.6c-3.3 2.3-7.6 1.5-10.3-1.5zm.4 2.2v-.2c2.6 2.2 6.6 2.3 9.4.5-.7 1.7-1.4 3.4-2.2 5.1-2.2.7-4.6.2-6.2-1.5-.4-1.2-.8-2.6-1-3.9zm3.9 8H6.7c0-.8-.2-1.5-.3-2.3 1.6 1 3.6 1.3 5.4.7-.3.6-.6 1.1-.8 1.7-.7 0-1.3-.1-2-.1zm-1.7-56.7c1.8 0 3.7.1 5.5.4s3.5 1 5.3 1.3c.2 0 .4-.1.4-.3 1.3 2.1 2.5 4.3 3.6 6.6-3.3-1.5-7.3-1.6-10.8-1-1.5-2.3-2.8-4.6-4-7zm4.3 7.4c3.6-.1 7 .6 10.5 1.4.1 0 .3 0 .3-.1 1.5 3.1 2.8 6.3 3.7 9.6-3-1.4-6.1-2.3-9.4-2.7-1.6-2.8-3.4-5.4-5.1-8.2zm5.4 8.7c3.3.8 6.4 1.9 9.4 3.4 0 .1.1.3.1.4.6 2.5.9 4.9 1.1 7.4-1.4-2-4.3-4.2-6.9-3.8-1-2.5-2.3-5-3.7-7.4zm4.2 9.4c-.1-.4-.2-.7-.3-1.1 1.1.3 2.1.4 3.1.9 1.2.6 2.2 1.4 3 2.4.2.2.4.1.5-.1.1 2.5.1 5-.2 7.5-1.3-1.1-3.2-2.2-5-2.1.1-2.5-.3-5-1.1-7.5zm.3 16.1c.7 0 1.4 0 2.1.2.3.1.6.1.9.2.2 0 .4.1.6.2.1 0 .1.1 0 .2 0 0-.1 0-.1.1.5.4.8-.5.6-.9-.3-.4-1.3-.5-1.7-.6-.7-.1-1.4-.2-2.2-.2.5-2.3.7-4.6.8-7 .7.1 1.3.1 2 .3 1.1.3 2 .9 2.9 1.6-.5 4.5-1.7 8.9-3.4 13.1v-.1c-1-1.1-2.3-1.8-3.8-2 .4-1.7.9-3.4 1.3-5.1zm-6.1 15.8c1.6-3.2 3.1-6.5 4.4-9.9h.1c1.4.2 2.6.7 3.6 1.7.1.1.2.1.3.1-.7 1.7-1.5 3.3-2.4 4.9-1-.8-2.5-1.3-3.7-.8-.3.1-.3.6.1.6 1.3-.1 2.4 0 3.4.7-.7 1.2-1.4 2.4-2.2 3.6-1.3-.4-2.4-.7-3.6-.9zm-4.2 114c-.7.9-1.6 1.6-2.8 1.9-3.3.9-5.3-1.5-6.4-4.7 1.1-2.3 3-4.4 5.9-3.6 2.6.7 4 3.6 3.4 6.1-.2.1-.2.2-.1.3zm2.7-11.2a48.7 48.7 0 0 1-.6 5.5c-.2 1.3-.5 2.7-1.1 4 .1-2.6-1.5-5.2-4.1-5.9-2.5-.7-5.6.7-6.7 3-.7-2.4-1-5-1.2-6.9.1 0 .1-.1.2-.1 3.7-4.6 10.4-4.2 13.5.4zm-.9-15.6c-3.5-2.8-9.6-2.7-12.1 1.4-.3.5.4 1 .8.6 3.2-3.1 8-4 11.5-.9.2 1.7.5 3.5.6 5.2-3.5-3.9-10.2-4.8-13.6-.2v.1c.3-3.3.9-6.6 1.7-9.9 0-.2 0-.3-.1-.4 3.5.3 7.1.1 10.6-.4.1 1.4.4 2.9.6 4.5zm-.6 60.1c-1.5 1.1-3.2 1.7-5.1 1.7-1.5 0-2.7-.6-4.1-1.1 0 0 0-.1-.1-.1l-2.4-4.3c1.2.8 3.4.9 4.5.9 3.2.2 6.3-.3 9.2-1.4-.6 1.5-1.3 2.9-2 4.3zM17 295c-3.5.5-6.8.9-10 .8.7-2.2 1.6-4.2 2.7-6.1 3.1.4 6.9.3 9.7-1.4-.7 2.2-1.5 4.4-2.4 6.7zm2.6-7.5h-.2c-1.6.4-3 1-4.6 1.3s-3.2.3-4.8.3c1.1-2 2.3-3.9 3.4-5.9 2.7.6 5.6 0 7.8-1.8l-1.6 6.1zm2.3-9.1c-.1.7-.3 1.4-.5 2.1-.1-.1-.2-.1-.4 0-2.2 1.6-4.6 2.4-7.3 2.1.9-1.7 1.7-3.4 2.4-5.2 1.8.7 4.2.8 5.9-.2 0 .4-.1.8-.1 1.2zm1.5-9.3c-.6.3-1.1.7-1.7 1-.8.3-1.7.4-2.6.4-.5 0-.5.7 0 .8 1.3.1 2.9-.2 4.2-.9a54.34 54.34 0 0 1-.9 5.6c-.8.5-1.6.9-2.6 1.1-1.2.2-2.2.2-3.3-.1 1-2.6 1.8-5.3 2.4-8 .4-2 .7-4 1-6 1.4.1 2.9-.1 4.2-.8-.3 2.3-.5 4.6-.7 6.9zm.6-8c-.6.4-1.1.7-1.9 1-.8.2-1.5.4-2.3.4.2-2.1.4-4.2.4-6.4 1.2.2 2.8 0 3.8-.8.1 1.9 0 3.8 0 5.8zm0-7c-.5.4-.9.8-1.5 1-.7.3-1.5.4-2.3.3 0-2.1-.1-4.2-.2-6.3 1.2.2 2.8-.1 3.7-1l.3 6zm-.4-6.8c-.5.4-.9.9-1.5 1.1-.7.3-1.4.4-2.2.3-.2-1.7-.4-3.4-.7-5.1 1.2-.2 2.6-.5 3.8-1 .3 1.5.4 3.1.6 4.7zm-1.3-9.2l.6 3.5c-.3.2-.7.4-1.1.6-.9.4-1.8.7-2.7.8-.2-1.3-.5-2.6-.8-3.9 1.4-.4 2.7-.9 4.1-1.4-.1.1-.1.3-.1.4zm-5.8 78.7c-1.4 1.4-3.6 1-5.2 0a33.09 33.09 0 0 0 4.1-5s.1 0 .1.1c1.8 1 2.5 3.5 1 4.9zm4-10.8c.3.3.7.6 1 .8 1 .8 1.2 1.8.6 2.9-.4 1.5-1.2 2.2-2.8 2.2-1.1 0-2.2-.5-3.1-1 1.2-1.8 2.3-3.7 3.2-5.6.3.2.7.5 1.1.7zm2-7.5c2.2.6 3.7 3.5 2 5.4-1 1.1-2.5 1.3-3.8.9-.3-.2-.5-.3-.8-.5.1-.2.2-.5.3-.7.8-1.7 1.5-3.4 2.3-5.1zm6.3-3.3c-.7 3-3.6 2.6-5.9 2.1.8-2.1 1.6-4.3 2.3-6.5 1.4.9 4 2.5 3.6 4.4zm-1.4-11.8c2 .3 3.8 2.3 3.1 4.4-.7 2-3.2 2.7-5 1.8h-.1c.6-2.1 1.1-4.2 1.6-6.4.2.1.3.2.4.2zm5.4-5.4c.5 3.3-2.9 4-5.4 3.8.4-2.2.8-4.4 1.1-6.7 1.4.4 4 1.1 4.3 2.9zm-3.6-11.9c1.6.6 3.7 1.4 4.1 3.3.7 2.9-2.3 4.6-4.7 4.6.3-2.7.5-5.3.6-7.9zm4.6-136.3c1.6-.8 3.4-.7 4.6.8a.55.55 0 0 0 .5.3c-2.2 2.3-4.2 4.7-6 7.2.6-2.8.9-5.5.9-8.3zm-8.2 32c.2 0 .4-.1.5-.4.5-1.4 1-2.9 1.6-4.2.6.4 1.4.6 2 .9.3.2.7.3 1 .4.1 0 .2.1.3.1v.2c.2.2.4.2.6 0-.9 1.7-1.8 3.4-2.6 5.2v.1c-1.1-.9-2.2-1.6-3.4-2.3zm35.3-39.9c1.8-.9 3.6-1.7 5.5-2.4 6.5.9 12.1 5.2 14.9 11.1l-2.1 7.4c0 .1-.1.3-.1.4-.3-4.1-2.5-7.7-5.5-10.4-.2-.2-.4-.4-.7-.6l.6-.9c.4-.6-.5-1.2-1-.8-.3.2-.5.5-.8.7-3.2-2.2-7.1-4-10.8-4.5h0zm17.3-5.1c1.2.6 2.3.8 3.3 1.8s1.6 2.2 1.9 3.6c0 .1.2.2.3.2 0 .1-.1.2-.1.3-.1 0-.2-.1-.2-.1-.1-.1-.3-.1-.4-.2-.2-.1-.4.2-.2.3a.76.76 0 0 0 .4.2c.1 0 .2.1.3.1l-1.9 6.6c-2.5-5.6-7.6-9.5-13.5-10.8 3.3-1.2 6.7-2.1 10.1-2.8-.2.3-.3.6 0 .8zm.4-.7c2.3-.4 4.7-.7 7.1-.9l-1.8 6.3c-.2-1.3-.8-2.5-1.7-3.5-.8-.8-2.2-1.9-3.6-1.9zm-9.1 20.1a22.46 22.46 0 0 1 7.3 9.4c-.7 2-1.6 3.9-2.5 5.7h-.1c-1.5-3.3-4-6.1-7-8.1-.5-.3-.9.4-.5.8 3.1 2.1 5.3 5 7.1 8.3-.9 1.6-1.8 3.2-2.9 4.8-.2.3-.5.7-.7 1l-2.2-2.9c-1.2-1.5-2.4-3-3.7-4.3-.1-.1-.2-.1-.3-.1 2.9-7.4 4.4-15.4 8.4-22.4.1.1.2.1.2.2 3.2 2.7 5.4 6.4 6 10.6 0 .1.1.2.3.2-.5 1.8-1.1 3.5-1.7 5.3-1.4-3.7-3.9-6.9-7.2-9.2-.6-.5-1 .3-.5.7zM48.4 175c0-1.4-.8-3-2-3.9 1.4-.8 2.8-1.7 4.1-2.6.4.4.9.8 1.3 1.4.5.7.8 1.6 1 2.4.1.3.5.2.5-.1-.1-1.4-.8-3.4-2.1-4.3 1.4-1.1 2.7-2.3 4-3.6 0 .1 0 .2.1.3.6.7 1.6 1.1 2.2 1.8.3.4.6.8.9 1.3a12.75 12.75 0 0 1 .7 1.2c-3.4 2.5-7 4.5-10.8 6.2 0 .1.1 0 .1-.1zm-.3.3l-4.6 1.8c-.4-.9-.9-1.6-1.4-2.4-.3-.4-.5-.9-.8-1.3 1.4-.5 2.8-1.1 4.2-1.7a4.44 4.44 0 0 1 1.1.8c.7.7 1.1 1.6 1.2 2.6.1.1.2.2.3.2zm11-7.7c-.2-.5-.5-1-.9-1.5-.6-.8-1.5-1.8-2.6-2h-.2c1.9-1.9 3.5-4 4.9-6.2.3.4.7.5 1.1.8.6.4 1.1.9 1.6 1.4 1 1.1 1.4 2.3 2.1 3.5 0 .1.1.1.1.1a47.67 47.67 0 0 1-6 5.1c.1-.4.1-.7-.1-1.2zm6.3-4c.1-1.4-.7-2.7-1.5-3.8-.7-.9-2-2.3-3.2-2.3a.76.76 0 0 0 .2-.4c1.1-1.9 2.1-3.8 2.9-5.8 1.1 1.6 2.5 3.1 3.8 4.6.6.7 1.4 2 2.3 2.5-1.4 1.9-2.9 3.6-4.5 5.2zm-4.5-41c3.4 1.6 6.8 2.6 9.9 4.6-2.1 1.5-4.4 2.7-6.8 3.8-2.9-2.4-6.3-4.1-9.9-5.1 2.2-1.4 4.4-2.7 6.7-3.8-.1.1-.2.4.1.5zm-7.7 3.9a28.34 28.34 0 0 1 10.1 4.7c-1.7.7-3.5 1.4-5.2 2.2-1.3.5-2.5 1.1-3.7 1.6-2.3-1.9-5-3.1-7.9-3.6 2.1-1.8 4.3-3.4 6.7-4.9-.1 0-.1 0 0 0zm.7 8.8c-2.5 1.2-4.9 2.6-7.2 4.4-1.7-1.5-4-2.5-6.3-2.5 1.7-1.8 3.4-3.5 5.2-5.1 3.1.4 5.9 1.4 8.3 3.2zM40 137.9c2.4.3 4.4.8 6.3 2-.1.1-.2.2-.4.3-1.9 1.5-3.6 3.2-5.3 5.1 0-.1-.1-.1-.1-.2-1.5-.9-3.2-1.7-4.9-2.1 1.3-1.8 2.7-3.5 4.2-5.1h.2zm.3 7.7h.1c-1.8 2-3.4 4.2-4.9 6.5-.8-1.2-2.6-2.3-4.1-2.6 1.1-2 2.4-3.9 3.7-5.8 1.8.6 3.5 1.1 5.2 1.9zm-7.2 5.5c.8.4 1.4 1 2.1 1.5a95.18 95.18 0 0 0-3.6 6v-.1c0-.1 0-.3-.1-.4-.5-.4-1.3-.7-1.9-1-.5-.3-1.1-.6-1.7-.8.9-2 1.8-4 2.9-5.9.9.2 1.6.4 2.3.7zm-.4 16.4c.2 0 .4-.2.4-.4l.6-2.1c.8 2.2 2.9 3.8 5.3 4-1.2.5-2.5.9-3.8 1.3-.8-.9-1.6-1.9-2.5-2.8zm24.4-18.2c0 1.4-1.3 2.5-2.6 2.3-1.2-.2-2.2-1.2-2.5-2.3-.6-1.9.4-3.1 1.3-4.6.1-.1.1-.3 0-.4 1.8 0 3.3.9 4 3.1.2.7.3 1.4.2 2 0-.1 0-.1-.1-.2s-.3-.1-.3.1zm-4.9 2.5c1.4 1.2 3.7 1.1 4.8 0-.6 1.7-1.6 3.4-2.5 4.9 0 0 0 .1-.1.1-2.3.3-4.6-.2-6.3-1.8-2-1.9-2.1-4.2-2.1-6.8 0-.1 0-.2-.1-.3.7-.7 1.4-1.3 2.2-1.8 1.1-.8 2.5-1.4 3.8-1.6-2.1 1.5-1.6 5.7.3 7.3zm1.6 5.9c-1.2 1.7-2.5 3.2-3.9 4.6-4.7-.4-8.3-4.1-7.8-9.1 0-.4-.2-.5-.5-.6.2-.3.5-.5.7-.8.8-.9 1.7-1.9 2.6-2.8-1.1 5 4.1 9.2 8.9 8.7zm-4.6 5.2c-1.1 1-2.2 1.9-3.4 2.6-.1-.1-.2-.2-.4-.2-3.9.6-7.6-2-8.2-6 0-.3-.3-.4-.5-.4 1.2-1.9 2.6-3.8 4.1-5.5-.2 5.1 3.5 9.3 8.4 9.5zm-4.6 3.4c-1.5.9-3 1.7-4.7 2.3 0-.2-.1-.4-.4-.4-2.7-.2-4.5-2.2-5-4.8 0-.1-.1-.2-.1-.2.5-1.2 1.1-2.3 1.7-3.3.6 3.9 4.5 7 8.5 6.4zm-8.9 4.7c5.7-.9 11.1-4.1 15.2-8.1h.3c.2 0 .2-.2.2-.4l.1-.1c1.3-1.3 2.8-3.1 4.2-5h.1c.2-.1.3-.3.2-.5 2.3-3.6 3.8-7.8 1.7-11.2-3.7-5.9-11.1 0-14.2 3.3-4.9 5.2-9.8 10.8-11.4 17.9-.4-.3-.7-.7-1.1-1-.3-.3-.7-.6-1.1-.9.1 0 .1-.1.2-.2 4.6-8.8 9.5-17.6 17.4-23.9 7-5.5 16.1-7.1 23.3-12-4.3 8.2-5.5 17.7-9.9 26-4.5 8.5-11.7 13.9-20.2 17.8-.2-.2-.6 0-.6.3-.7.3-1.5.7-2.3 1-.1 0-.2.1-.2.2-.5-1.3-1.2-2.3-1.9-3.2zm2.1 3.2h.1l2.5-.6a15.26 15.26 0 0 0 1.1 1.6c.5.7 1 1.4 1.5 2-1 .4-2.1.7-3.2 1-.5-1.4-1.2-2.7-2-4zm78.9 21.9c-.2 1.3-.8 2.4-1.6 3.4-1.5 1-3 1.9-4.5 2.8 1.9-3.8 2.3-8.3 1.4-12.5 1.5.8 3 1.7 4.5 2.6.2 1.3.5 2.4.2 3.7zm.9-3l3.6 2.4-4.8 3.2c1-1.6 1.6-3.7 1.2-5.6zm-7.8 9.8c-1.9 1.2-3.9 2.3-5.9 3.4.3-.8.4-1.8.6-2.6.5-2.1.8-4.2 1-6.4.3-3.8.1-7.7-1.4-11.2 2.3 1 4.6 2 6.8 3.2 1.2 4.7.7 9.2-1.1 13.6zm-5-6.7c-.1 3.1-.3 7.9-2 10.5.1-.1-.1-.3-.2-.2-.2.3-.2.5-.1.7-2.1 1.1-4.2 2.2-6.3 3.1 1.6-3.1 2.5-6.9 2-10.4 2-.9 3.9-1.8 5.9-2.6.5-.2.3-1-.2-1.2-1.8-.5-3.5-1.1-5.3-1.6.6-3.6.3-7.4-1-10.9 1.8.6 3.7 1.3 5.5 2 1.2 3.5 1.8 6.9 1.7 10.6zm-14.9 7.6c0 3.3-.1 6.2-1 9.4-1.1.4-2.2.7-3.3 1-1.5.4-3 .8-4.5 1.1 1.2-2.4 1.8-5.9 1.2-8.4v-.1c1.5-.6 3.1-1.2 4.6-1.9l10.6-4.7c0 3.7-.5 7-2.1 10.4-1.9.9-3.9 1.6-5.9 2.3 1-2.9 1.6-6.2 1.1-9.3-.2-.3-.7-.2-.7.2zm-31 6.8c-.1 1.5-.3 2.9-.8 4.2l-7.2-2.2c.6-1.2.9-2.6.8-3.9.8.2 1.6.5 2.4.6 4.2 1 8.5 1.3 12.8 1.1-.1.9 0 1.8-.2 2.7-.2 1.1-.7 2.1-1.2 3.1h-.1c-2.3-.2-4.5-.7-6.7-1.3.6-1.4 1-2.9.9-4.4-.2-.2-.6-.2-.7.1zm8.7-.2l3-.3 3.2-.6c-.2 2.4-.6 4.6-1.6 6.9-2.1.1-4.1.1-6.2-.1 1-1.7 1.8-3.9 1.6-5.9zm7-1.1c2.4-.6 4.7-1.4 7-2.2-.1 1.4 0 2.8-.2 4.3-.2 1.4-.6 2.7-.9 4.1-2.6.5-5.2.9-7.8 1 1.1-2.2 1.9-4.8 1.9-7.2zm22.1-25.5c1.2 3.5 1.6 7 1.4 10.6l-6.6-2c.9-3.6.7-7.5-1.2-10.7 2.2.5 4.4 1.1 6.5 1.8-.1 0-.2.1-.1.3zm-7.1-1.9c1.4 3.5 2.1 6.7 1.5 10.3-.9-.3-1.8-.6-2.7-.8-1.5-.5-3.1-.9-4.7-1.4.8-3.2.6-7.1-1.4-9.8 2.5.3 5 .7 7.5 1.3-.2.1-.3.2-.2.4zm-6.3 8c-3-.8-5.9-1.6-9-2.1 0-.1 0-.1-.1-.1.4-2.6-.1-5.7-1.5-7.9 2.9 0 5.8.1 8.7.4 1.5 3.3 2.5 6.1 1.9 9.7zm-11.3-10c.5 1.4 1.1 2.7 1.3 4.2.2 1.2.2 2.4.1 3.6h-.3c-2.5-.3-5-.4-7.4-.3.4-2.3.1-5.2-1.7-6.9 2.6-.4 5.3-.6 7.9-.7.1 0 .1 0 .1.1zm-8.5.8c1.3 2.1 2.3 4 1.8 6.6v.1c-2.3.1-4.5.4-6.8.8 0-2.2-.8-4.6-2.5-6.1 2.5-.7 4.9-1.2 7.4-1.6 0 .1 0 .1.1.2zm-8.1 1.8c1.5 1.9 2.4 3.5 2.6 5.8-2.2.4-4.4 1-6.6 1.6.5-1.9-.3-4.2-2.3-4.9-.4-.1-.6.4-.3.6 1.5 1.1 2.4 2.7 1.9 4.5-1.6.4-3.2.9-4.8 1.4.5-1.7.2-3.8-1.2-5 3.4-1.7 7-3.1 10.5-4.1.1 0 .1 0 .2.1zM43 187.1a.45.45 0 0 0 .5 0c.2-.1.3-.2.5-.3 1.3 1.4 1.9 3 1.3 4.8-.4.1-.9.3-1.3.4h-.1c-.1-1.6-.5-3.3-.9-4.9zm1.7 13.6v-.7c0-.1.1-.1.1-.2.1-.1 0-.3-.1-.3v-.8c.1.2.3.3.6.2 1.4-.4 2.7-.8 4.1-1.1-1 1.7-.7 3.9.4 5.5-2.4-.7-4.6-1.6-5.1-2.6zm34.1 2.4c-1.1.4-2.2.6-3.3.8-1 .2-2 .4-3 .5-2.7-2.8-3.1-7.4-.5-10.3 1.3 0 2.6 0 3.9.1.5 0 1.1.1 1.9.2-3.1 2.4-2.4 7.3 1 8.7zm.5-8.5c3.3.5 7.1 1.8 4.6 5.2-1 1.3-2.4 2.2-4 2.8-3.3-1.1-4.2-5.6-.9-7.6.2-.1.3-.2.3-.4zm-7.6 10a67.09 67.09 0 0 1-6.3.6c-1.4-1.3-2.3-3-2.5-4.9-.2-2.1.7-3.5 1.7-5.3.1-.1.1-.2 0-.3.5-.1 1-.1 1.5-.2l4.4-.3c-2.2 3.2-1.8 7.9 1.2 10.4zm-7.5.6c-2 0-4-.1-5.9-.2 0-.1-.1-.2-.2-.3-3.2-2.2-3.1-6.4-.1-8.7.1-.1.2-.2.2-.3l5.3-.9c-2.9 2.5-1.9 7.7.7 10.4zm-7.2-.4l-2.1-.3c-.5-.1-2.1-.4-4-.9 0 0 0-.1-.1-.1-1.5-1.8-1.3-3.9-.3-5.9v-.2c2-.5 3.9-1 5.9-1.4-2.5 2.4-2.2 6.6.6 8.8zm-12.3-2.1v-.5c2.6 1.9 9.3 3.1 10.3 3.3 3.4.6 6.9.8 10.4.6h.2c2.5-.1 4.9-.3 7.4-.7.1.1.2 0 .3-.1.7-.1 1.4-.2 2.2-.4 1.2-.2 3.2-.7 5.1-1.6h.5c.2 0 .3-.2.2-.3 3-1.4 5.5-3.5 4.3-6.5-.8-1.9-3.3-2.6-5.2-2.9-2.8-.5-5.6-.7-8.4-.7-.2-.1-.4-.1-.5 0H70c-8.6.3-16.9 2.3-25.1 4.7-.1 0-.2.1-.3.2-.1-1.6-.2-3.1-.4-4.7h.3c9.5-3 19-5.7 29-4.3v.1c0 .3.4.3.5.1.2 0 .4.1.6.1 2.9.5 5.7 1.1 8.5 1.9 0 .1.2.1.2.1l7.5 2.2c0 .1-.1.2-.1.3-.1.2.3.3.4.1 0-.1.1-.2.1-.3 2.3.7 4.5 1.4 6.8 2.2v.4c0 .3.4.4.4.1 0-.1.1-.2.1-.4 1.2.4 2.3.8 3.5 1.1l-13 5.8c-4.7 2.1-9.4 4.2-14.3 5.4v-.2c-.1-.4-.6-.2-.6.1v.3c-.1 0-.2.1-.3.1-5.2 1.2-10.7 1.3-16 .5-4.9-.7-10.1-2-13.1-6.1zm-.3 7.9c.2-2.2.3-4.4.4-6.6.5.9 1.1 1.6 1.9 2.2-.5 1.5-.6 3.3-.8 4.8-.6-.1-1.1-.3-1.5-.4zm2.9-3.9c1.1.8 2.4 1.3 3.7 1.8.1 1.4-.1 2.7-.5 4-1.4-.5-2.8-.9-4.2-1.3.3-1.5.8-3 1-4.5zm-3.1 7.1H44l.3-2.7c1.8.9 3.7 1.7 5.6 2.4 0 0 0 .1-.1.1-.1.2.2.4.3.2 0-.1.1-.1.1-.2 2.4.9 4.9 1.6 7.4 2.2v.1c-.1.3.2.5.4.2 0-.1.1-.1.1-.2 8.7 1.9 17.7 1.9 26.5-.4s16.8-6.4 24.5-11c0 .1.2.1.2 0 .1-.1.1-.2.1-.2 4.4-2.6 8.6-5.5 12.8-8.3.4-.2.3-.7 0-.9-3.4-2.4-7-4.6-10.7-6.6-.1-.2-.2-.2-.4-.2-21.1-11-46.6-13.9-68.3-2.2-.1 0-.1.1-.2.1-.2-.8-.4-1.6-.7-2.3 1.5-.9 3.1-1.8 4.7-2.5l3.5-1.5c11.5-4.6 24.4-5.6 36.7-3.4 7.7 1.4 15.2 3.9 22.3 7.2 3.6 1.7 7.1 3.6 10.4 5.6 3.2 2 7.2 4 8.9 7.6-6.8 3.1-13.5 6.5-19.9 10.3-6.3 3.7-12.6 7.7-19.5 10.2-12.2 4.5-24.5 2.9-36.6-.3-2.5-1.3-5.3-2.3-8.2-3.3zm-3.7 9.1c.7-1.2 1.3-2.4 1.8-3.6.1.1.2.1.3.1 1 .1 1.9.3 2.8.5-.1.4-.2.8-.4 1.2-.4.8-.9 1.5-1.4 2.1l-3.1-.3zm5.6-2.8c1.2.3 2.4.7 3.5 1.1-.3.8-.4 1.6-.8 2.3l-.9 1.2c-1.2-.6-2.5-1-3.9-1.3 1-.9 1.8-2 2.1-3.3zm28.6 54.5l-5.7-1.5c2.1-1.2 4.2-2.7 6-4.5l1.2.6c.6.4 1.1-.4.7-.9-.2-.3-.5-.6-.7-.9 2.5-2.7 4.5-5.8 5.6-9.1.1.2.1.3.2.5.7 1.7 1.4 3.5 2 5.3-.1 0-.2.1-.2.2-1.4 4.7-4.7 8.4-9.1 10.3zm9.8-9.3l.9 2.9c.3 1 .6 2.2.9 3.3-1.4 2.2-3.1 3.7-5.6 4.5-1.7-.4-3.4-.7-5.1-1.1 4.1-1.9 7.3-5.3 8.9-9.6zm-39.2-10.1c-.4.9-.6 1.8-1.4 2.6-.4.5-1 .8-1.6 1-1.8-1.7-3.5-3.4-5-5.3 1.5-.6 3-1.7 3.9-3.1 1.8 2 3.7 3.8 5.7 5.5 1.5 1.2 3.1 2.3 4.8 3.3l-.1.1c-.5.9-.8 1.8-1.6 2.5-.7.6-1.4 1.1-2.3 1.4a45.16 45.16 0 0 1-4.9-4c.5-.2 1-.5 1.5-.9.8-.7 1.7-1.9 1.5-3.1 0-.2-.4-.2-.5 0zm-9.6-9.3c.4-.4.8-1.1.9-1.7 1.2 1.9 2.6 3.8 4 5.5-.4.7-.9 1.3-1.5 1.9s-1.3 1.1-2.1 1.4c-.3-.4-.6-.8-.9-1.1-1.8-2.4-3.3-5-4.6-7.7-.5-1.1-.9-2.3-1.3-3.4.7-.2 1.4-.6 1.9-1.2.4-.5 1.1-1.3 1.1-2 .7 1.9 1.6 3.8 2.7 5.6v.1c-.2.8-.2 1.4-.8 2.1-.5.6-1.3 1-2.1 1-.4 0-.4.6 0 .6 1.1 0 2.1-.4 2.7-1.1zm16.6 13.6c1.9 1.1 3.8 2 5.8 2.8 0 0 0 .1-.1.1-.5.9-.6 1.8-1.3 2.7-.7.8-1.6 1.4-2.6 1.8-.1 0-.1.1-.2.1-1.5-.8-2.9-1.6-4.3-2.6-.5-.3-.9-.6-1.4-.9 1.9-.6 3.7-2.1 4.1-4zm4.9 6.1c.7-.8 1.4-2 1.3-3 .1 0 .2.1.3.1 2.4.9 4.8 1.6 7.2 2.4-.1 0-.2 0-.2.1-.5.8-.6 1.7-1.1 2.4-.6.9-1.4 1.4-2.2 2-.3.3-.6.6-.8.9-2.4-.9-4.8-2-7.1-3.2 1-.2 1.9-.9 2.6-1.7zm6.1 4.4c.6-.4 1.2-.8 1.7-1.4.7-.9 1.5-2.1 1.3-3.3 0-.1 0-.1-.1-.1 2.7.9 5.4 1.8 8 3.1-1.8 1.8-3.8 3.3-6 4.7-2.1-.6-4.2-1.3-6.2-2.1.5-.5 1.1-.8 1.3-.9zm12.8-3.8c-.1.2-.3.3-.4.5-1.5-2-2.8-4.2-4-6.4 3-1.9 5.4-5.6 7.1-8.8.9 1.9 1.8 3.8 2.6 5.7-1.5 3.2-2.9 6.3-5.3 9zm-.8-10.7c-1.2 1.5-2.6 2.8-3.9 4.2-.8-1.6-1.5-3.2-2.2-4.8.1 0 .2 0 .4-.1 0 0 .1-.1 0-.1v-.2c0-.1-.2-.1-.2 0 0-.4 1.9-2 2.1-2.3.6-.8 1.2-1.5 1.7-2.4.9-1.4 1.7-3.1 2.2-4.7l2.9 5.4c-.8 1.8-1.8 3.4-3 5zm-2.9-5.8c-1 1.6-2.4 2.9-3.5 4.5l-3.1-7.4c2.6-1.6 4.7-4.4 5-7.5 0-.4-.6-.5-.7-.1-.8 2.9-2.1 5.3-4.5 7.1-.9-2.1-1.8-4.1-2.9-6.1 2.1-1.8 3.9-4.5 4-7.3 2.3 2.5 4.3 5.2 6.2 8.1.7 1 1.3 2.1 1.9 3.1-.7 2-1.3 3.9-2.4 5.6zm-7.9-12.8c-.6 1-1.3 1.9-2 2.7l-.6-1.2c-.9-1.6-1.9-3.1-2.9-4.5 1.6-1.3 3-3.3 3.3-5.4 1.4 1.2 2.7 2.4 3.9 3.7-.5 1.6-.8 3.2-1.7 4.7zm-3.8-6.1c-.5 1-1.2 1.9-2.1 2.7-1.3-1.7-2.8-3.4-4.5-4.8 1.1-1 2.2-2.7 2.4-4.3 1.8 1 3.4 2.2 5 3.5-.2 1-.3 1.9-.8 2.9zm-5.4-5.2c-.3 1-.9 1.9-1.7 2.7-1.6-1.3-3.2-2.4-5-3.3.9-1 1.7-2.2 1.8-3.5 1.8.7 3.5 1.5 5.2 2.4-.1.5-.1 1.1-.3 1.7zm-17.7 1.3c0 .1.1.2.3.2l3.9 1.8c-1.4.3-2.7 1.4-3.4 2.5-.8 1.1-1.2 2.5-1.1 3.9-1.1-1.6-2.1-3.3-3.1-4.9 1.2-1 2.3-2.2 3.4-3.5zm13 7.7a44.04 44.04 0 0 1 3.2 2.9c.4.4.7.8 1.1 1.2-2.4-.4-5.1 1.2-6.6 3.1-1.2 1.7-1.7 3.7-1.4 5.7-.6-.6-1.2-1.2-1.8-1.9-.7-.7-1.4-1.5-2-2.3-.4-2.2-.1-4.4 1.4-6.2.8-.9 3.3-2.9 4.9-2.6v.1s0 .1.1.1a.55.55 0 0 0 .5.3c.2-.1.4-.2.6-.4zm4 13.5c-1.3 1.3-1.7 3.1-1.3 4.8-.6-.4-1.1-.8-1.7-1.3-1.3-1-2.5-2.1-3.7-3.2-.4-2.2 0-4.5 1.5-6.2 1.6-1.8 3.6-2.1 5.8-2.5.1 0 .2-.1.3-.2 1.5 1.8 2.8 3.7 3.8 5.8.2.5.6 1.2.9 1.9-1.6-1.2-4.5-.3-5.6.9zm6 0c1 2.6 1.9 5.8.6 7.3-.9 1.1-1.6.6-2.8.2-.9-.3-1.7-.7-2.5-1.1l-1.5-.9c-.6-1.7-.2-3.7 1.3-4.8.7-.5 1.6-.8 2.4-.8s1.5.3 2.2.3c.1 0 .2-.1.3-.2zm-16.5-12.5c-1.7 1.7-2.5 4.1-2.2 6.4-1.3-1.6-2.4-3.2-3.6-4.9v-.2c-.4-1.7-.1-3.3 1-4.7 1-1.3 2.3-1.7 3.7-2.3.1 0 .1-.1.1-.1 1.9 1 3.8 2.2 5.6 3.4-1.7.2-3.8 1.6-4.6 2.4zm-10.3-4.8c2.7 6.7 7.1 12.5 12.2 17.5 2.7 2.6 5.6 5.2 8.8 7.1 1.7 1 5.5 3.1 7.3 1.5 1.9-1.7.4-6-.1-7.9-1-3.4-2.7-6.6-4.9-9.4-4.8-6.2-11.6-10.3-18.6-13.4-.1 0-.1 0-.2-.1a14.29 14.29 0 0 0 1.4-2c.1 0 .2.1.3.1 2.5.1 4.9.6 7 1.5 0 .2.2.4.4.3h.1c6.2 2.8 10.8 8.6 14 14.7l-.3.3c-.2.1 0 .4.2.3.1-.1.2-.1.3-.2a11.94 11.94 0 0 1 .8 1.6c4 8.2 6.6 17 11.9 24.4-3.9-1.9-8.2-3-12.3-4.4-4.8-1.6-9.3-3.8-13.4-6.9-8-6.1-13.1-14.5-16.2-23.9.5-.4.9-.8 1.3-1.1zM28 235c1.3-.8 2.6-1.6 3.8-2.6.3 1.7.8 3.3 1.4 4.9-.1-.1-.2-.1-.3 0-.2.3-.3.6-.4.9-.2.4-.4.7-.6 1a6.57 6.57 0 0 1-1.7 1.2l-1.5-5c-.1-.3-.4-.4-.7-.4zm1.3 29.5c0-1.9 0-3.9-.1-5.8-.1-2.4-.3-4.9-.6-7.3 1.3 3.3 3.2 6.2 5.6 8.9 0 0-.1.1-.1.2-.5 2.4-2.4 4-4.8 4zm6 1.3c-.7-1.2-.7-2.5-.4-3.8.1-.2.2-.5.2-.7 1.6 1.7 3.4 3.2 5.2 4.6-.1 0-.1.1-.1.2-1.3 1.9-3.9 1.4-4.9-.3zm7.3 6.7c-2-1.2-2.3-3.8-1.4-5.8v-.1c2 1.5 4.2 2.8 6.3 4-.1.1-.1.3 0 .5.4.9-1.6 1.7-2.2 1.8-.9.2-2 0-2.7-.4zm8.2 3.4c-2.1-.5-3.4-2.7-2-4.6.8.4 1.5.8 2.3 1.1 1.2.6 2.4 1.1 3.6 1.6-.9 1.3-2.3 2.3-3.9 1.9zm6.2 3.7c-1.8-1-2.1-3.4-1.2-5.1 2.1.8 4.3 1.5 6.4 2.2 0 0 0 .1-.1.1-.5 2.1-2.8 4.1-5.1 2.8zm8.9 1.8c-1.8-.7-2.6-2.3-2.7-4.1 0-.1 0-.2.1-.3 2.5.7 5.1 1.4 7.6 1.9 0 0 0 .1-.1.1-.8 1.9-2.9 3.2-4.9 2.4zm9.2 2.3c-2.2-.2-3.6-2.4-3.3-4.4v-.2l7.3 1.5s-.1.1-.1.2c-.6 1.6-2 3-3.9 2.9zm22.9-2.3c.6 1.9-.3 4.1-1.9 5.3-3.7 2.5-7.9-.3-9.1-4-.1-.5-.9-.6-1.1 0-.5 2.5-3.9 3.4-5.2.9-.5-.9-.4-1.9-.5-2.8l13.9 2.7c.5.1 1-.3.8-.8-.4-1.6-.7-3.2-1.1-4.8 1.8.5 3.6 1.6 4.2 3.5zm-4.4-4.7c-.5-2.4-1.1-4.8-1.7-7.1 4.5-.8 6.1 5.6 1.7 7.1zm-1.7-8.2h-.3l-1.8-6.6c4.6-1.4 6.4 5 2.1 6.6zm.6-12.1c.3 2.1-1.5 3.5-3 4.5-.7-2.2-1.4-4.3-2.2-6.4 1.9-.5 4.9-.5 5.2 1.9zm-3-7.6c.7 2-.6 3.4-2.2 4.6-.2 0-.3.1-.5.1-.8-1.9-1.6-3.9-2.5-5.8 1.9-.5 4.5-1.2 5.2 1.1zm-3.6-7.1c1.2 2-.3 3.8-1.9 5-1-2-2.1-4-3.2-6 1.7-.7 3.9-.9 5.1 1zm-5.8-1.9c-.3-.5-.6-1-.9-1.4-1-1.4-2-2.8-3.1-4.1.1 0 .1 0 .2-.1 3.8-1.9 6.6 2.9 3.8 5.6zm-4.6-11.7c1.7 1.2 2.1 3.9.3 5.2-.1.1-.2.2-.2.3-1.7-2-3.5-3.9-5.5-5.6 1.7-.7 3.8-1 5.4.1zm3.2 12.3c8 12.6 11.4 27.2 14.6 41.6-13.6-3-27.8-4.5-40.6-10.3-5.4-2.4-10.5-5.6-14.7-9.7-4.4-4.2-7.2-9.1-9.8-14.6-.1-.1-.1-.2-.2-.2-.6-3.5-1.1-7.5-2.6-10.7 0 0 0-.1-.1-.1.8-.4 1.5-.8 2.3-1.2 0 .1-.1.2-.1.3.5 5.8 3.8 11.9 7.2 16.5 1.9 2.6 4 4.9 6.3 7.1-.3 0-.3.5 0 .5h.5c2 1.9 4.2 3.6 6.4 5.1 11.7 8.1 26.5 12.2 40.6 13.5.4 0 .5-.7.1-.7-2.3-.4-4.6-.9-6.9-1.4 1.9-.6 3.7-1.8 4.9-3.5.4 1.6.9 3.2 1.6 4.6.1.3.5.1.5-.1.2-3.2-1.4-7.1-2.3-10.1-1.1-3.5-2.4-7-3.9-10.4-.9-2.2-1.9-4.4-3-6.6.1-.2-.1-.5-.3-.5-1.8-3.7-3.9-7.3-6.2-10.7-6.3-9.2-15.5-17.9-26.8-20.1-.1-.2-.4-.2-.5-.1-1-.2-2-.3-3-.4.3-.7.5-1.4.7-2.2.2 0 .4-.2.4-.4v-.4c.1 0 .2.1.2.1 0 .1.1.3.3.3 2.3.9 4.6 1.8 7 2.5 4.3 1.8 8.5 4 12.5 6.6 6 4.2 11 9.6 14.9 15.7zm-7.5-15.8c-.6 1-1.6 1.6-2.6 2.2-3-2.5-6.3-4.7-9.8-6.6 4.1.9 8.3 1.4 12.5 1.4.1.4.3.7.4 1.1.1.7-.1 1.3-.5 1.9zm3.7-.4c-1-.2-1.8-1-2.2-1.9 0-.3-.1-.5-.2-.7a45.78 45.78 0 0 0 5.3-.3c.5 1.8-1 3.4-2.9 2.9zm8.3.2c-2.1.3-3.6-1.3-4.2-3.2 2.1-.3 4.3-.7 6.3-1.2.6 1.9.3 4.1-2.1 4.4zm7.6-1.9c-1.5.8-3.1.2-4-1 0-.6-.2-1.2-.6-1.8.9-.3 1.8-.5 2.7-.8 1.1-.4 2.3-.8 3.4-1.3.6 1.8.3 3.9-1.5 4.9zm2.4-5.3c2.4-1.1 4.7-2.3 7.1-3.5v.1c1.9 4.8-4.6 7.9-7.1 3.4zm13.6-2.5c-1.9 1.3-4.6.7-5.6-1.4 0-.1-.1-.1-.2-.2l7-4a.76.76 0 0 1 .4-.2c.6 2.1.3 4.5-1.6 5.8zm6.3-4.1c-1.6-.1-2.4-1.4-3.6-2v-.2c2.2-1.3 4.5-2.5 6.8-3.8 0 0 0 .1.1.1 1.6 2.6 0 6.1-3.3 5.9zm10.4-4.2c-2.4.7-4.7-.6-6.4-2.2 2.8-1.5 5.5-2.9 8.4-4.2 0 .1 0 .2.1.3 1.6 2.3.9 5.2-2.1 6.1zm10.9-9.9c.1 4.3-5.1 6.2-7.9 3 1.2-.6 2.4-1.1 3.6-1.7.3-.1.4-.5.3-.8-.8-2.1-2.3-3.8-4-5.3 3.4-1.1 7.8.5 8 4.8zm-9.6-11.1c2 1.2 1.9 3.9.4 5.5-1.8-1.3-3.8-2.4-5.6-3.5.1 0 .2-.1.2-.2.1-.1.1-.3.2-.4 1-1.7 3.1-2.5 4.8-1.4zm-7.9-4.2c2.3.6 3 3.5 1.9 5.4-.1.1-.1.2-.1.3-.4-.2-.9-.5-1.3-.7-1.6-.9-3.2-1.8-4.8-2.6.9-1.5 2.3-2.9 4.3-2.4zm-6.3-4.1c2.1 1.3 2.2 4.1.9 6-2.2-1.1-4.5-2.1-6.8-3 .1-.1.2-.2.2-.3.1-.1.1-.3.1-.4.9-2.2 3.5-3.6 5.6-2.3zm-8.4-3.6c2 1.1 2.4 3.4 1.9 5.4-.1.2-.1.4-.2.6v.3a85.51 85.51 0 0 0-4.6-1.7c-.8-.3-1.7-.5-2.5-.8.1-.1.1-.2.1-.4-.4-3 2.8-4.8 5.3-3.4zm-18.4-3.4c2.3-.2 4.1 2 3.7 4.3-.1.7 1 1 1.1.3v-.2c.3-2.6 3.4-4.3 5.7-2.7 1.6 1.2 2 3.4 1.2 5.1a91.45 91.45 0 0 0-14.6-2.7c-.1-1.8.8-3.9 2.9-4.1zm-7.2-.4c2.3.2 3.2 2.5 2.5 4.4-2.1-.1-4.3-.2-6.4-.1v-.1c.2-.5.3-.9.4-1.4.5-1.6 1.5-3 3.5-2.8zM69 169c1.9.1 3.2 1.5 3.1 3.1-.2.5-.3.9-.4 1.4 0 .2 0 .3.1.4-3.4.1-6.8.5-10.2 1.1l-2.6.6c1.6-.9 3.1-1.8 4.6-2.8 1.8-1.2 3.5-2.6 5.1-4 0 .1.1.2.3.2zm.9-1.4c1.7-1.7 3.3-3.5 4.7-5.4 3 3-.8 7.8-4.7 5.4zm9-12c.2.1.3.2.5.3 1.5 1 2.1 3.1 1.1 4.7-1.1 1.8-3.6 2-5.2.8 1.1-1.5 2-3.1 2.9-4.7.2-.4.4-.8.7-1.1-.1-.1-.1 0 0 0zm3.5-7.7c2.2.8 3.8 3.6 2.4 5.8-1 1.7-3.3 2.1-5 1.3-.2-.1-.3-.2-.5-.3-.1 0-.1 0-.2-.1 1.1-2.2 2.1-4.5 3.1-6.9.1.1.2.1.2.2zm5.8-2.7c-1.1 2.1-3.5 1.9-5.4 1.6h-.1c.8-2.1 1.6-4.3 2.3-6.5 1.4.9 4.1 2.9 3.2 4.9zm-.5-12.8c2.7-.1 4.6 3 3.1 5.4-1.2 1.7-3.6 2.2-5.4 1.4l1.2-3.7c.3-1 .7-2 1-3 0-.1 0 0 .1-.1zm5.9-3.6c-.5 2.6-3.1 2.1-5.1 2.5-.2 0-.3 0-.5-.1.9-2.7 1.7-5.5 2.4-8.3 1.6 1.6 3.7 3.5 3.2 5.9zm-1.3-13.4c1.9.3 3.6 2.1 3.1 4.2s-2.9 2.9-4.7 2.3h-.1c.6-2.1 1.2-4.3 1.6-6.6l.1.1zm-1.9 1.3c-.4 1.9-.8 3.9-1.3 5.8-1 3.8-2.2 7.6-3.4 11.4-2.4 7.3-4.7 14.7-8.4 21.5-3.6 6.8-8.5 12.3-14.9 16.6-3 2-6.1 3.7-9.3 5.3-.3.1-.5.3-.8.4-3.7 1.3-7.2 2.9-10.6 4.9-.4-1.3-.9-2.5-1.5-3.7 12.4-2.2 23.5-10.1 30.9-20.1 4.2-5.7 6.8-12.1 8.7-18.8l7.2-25.1c.1-.3-.2-.7-.5-.7-15.3.8-30 7.1-41.5 17.2-.2 0-.3.1-.3.3-3.8 3.4-7.3 7.2-10.3 11.3h-.3c-.4 0-.4.5-.2.7l-.9 1.2c-1.1 1.6-2.1 3.2-3 4.9h-.2c-.3 0-.3.3-.1.5-1.9 3.5-3.5 7.2-4.8 11v.3a11.94 11.94 0 0 0-1.6-.8c0-.1.1-.1.1-.2 4.7-14.4 12.9-27.1 25.2-36.2a68.12 68.12 0 0 1 21-10.6c3.9-1.2 7.8-2.1 11.8-2.6 2-.3 4.1-.4 6.1-.5 1.3-.1 2.8.1 4-.4-.6 1.9-.7 4.2-1.1 6.4zm4.3-10c2.6 2.6 1.2 6.8-2.3 7.6.2-1.4.3-2.8.2-4.1 0-.3-.3-.5-.5-.5-1.6-.9-3.9-.8-6-.6l.1-.1c1.3-3.5 5.6-5.1 8.5-2.3zm-14.8-1.8c2.6-.9 5 1.3 5.1 3.8 0 .2.1.3.1.4-.5.1-1 .1-1.4.2-2 .2-4.1.5-6.1.8-.7-1.9.2-4.4 2.3-5.2zm-8.1 2.1c1.9-.5 3.6.6 4.4 2.3 0 .4.1.8.2 1.1l-1.7.3c-1.8.4-3.6.9-5.4 1.4v-.3c-.6-2 .4-4.3 2.5-4.8zm-9.2 2c2.4-.9 5 .7 5.7 3.2 0 .1.1.2.2.3a55.73 55.73 0 0 0-7.7 3c0-.1 0-.1-.1-.2-1.3-2.2-.6-5.4 1.9-6.3zm-8.1 4.8c2-.6 3.9.5 5.1 2l.1.1-3.1 1.5c-1.1.6-2.2 1.2-3.3 1.9 0-.1-.1-.2-.1-.3-1.7-1.8-1-4.5 1.3-5.2zm-2.6 6.3c-1.9 1.2-3.8 2.6-5.6 4-2.9-3.7 2.7-7.5 5.6-4zm-6.5 4.7c-2.1 1.7-4.1 3.5-6 5.5 0-.1 0-.2-.1-.3-.9-1.8-.9-4.1.6-5.6 1.7-1.4 4.2-1.4 5.5.4zm-7.6 3.8c-.3-.2-.7-.3-1-.4.4-.3.7-.5 1-.9-.1.4-.1.9 0 1.3zm-.3-4.2c0 1.8-1.2 3.1-2.7 3.8-.3.1-.6.2-.8.3h-.2c-.1-2.5-.4-5-.8-7.4h.1c2.2-.7 4.4 1 4.4 3.3zm-4.7-4.5c-.5-2.6-1.3-5.2-2.1-7.7 5-1.1 7 6 2.1 7.7zm-.3-13.2c1 1.8-.4 3.9-2.2 4.4h-.1c-.5-1.4-1.1-2.8-1.6-4.1-.2-.4-.4-.9-.6-1.3.1 0 .2 0 .3-.1 1.4-.6 3.3-.3 4.2 1.1zm-2.8-6.6c.7 2.2-.5 3.5-2.2 4.6-1.1-2.4-2.4-4.7-3.7-7 2.4-1 5.1-.1 5.9 2.4zm-6.4-3.5l-3.6-6c4.1-2.3 7.4 3.5 3.6 6zm-2.7-11.9c1.1 1.8 0 3.8-1.6 4.8l-3.3-5.2c.2 0 .3 0 .5-.2 1.3-1.2 3.4-.9 4.4.6zm-4.3-2.1c-.4.2-.7.4-1 .7-.1 0-.2 0-.3.1l-3.8-5.9h.1c4.1-3 6.6 2.9 5 5.1zM5.9 67.5c4.9-.3 7.3 5.1 4.7 8.9l-3.1-5.1c-.2-.4-.9-.5-1.2-.2-1.6 1.8-3.1 3.8-4.5 5.7v-.1C1 74.8.3 73.2 1 71.1c.7-2 2.6-3.4 4.9-3.6z"/><path id="R" d="M30.2 182.1l-3.7 2.6c-.4.3 0 .9.4.6l3.8-2.5c1.1-.7 2.4-1.4 3.3-2.4.2-.2 0-.7-.3-.6-1.3.5-2.4 1.5-3.5 2.3z"/><path id="S" d="M166.1 192.7a1.36 1.36 0 0 0 1.1.7c.1.1.2.1.4.2s.4-.1.5-.3c.1-.3.2-.7.2-1.1 0-.3 0-.8-.2-1.1-.4-.4-1.1-.3-1.5 0-.6.4-.8 1.1-.5 1.6zm1.1-.8c0 .2.1.4.1.5-.1 0-.2 0-.2-.1v-.1c0-.1-.1-.1-.1-.1v-.1s.1-.1.2-.1z"/><path id="T" d="M.1 163.5c1.9-.4 3.8-.5 5.8-.5-.6 1.3-.6 3-.8 4.4l-.5 3.9c0 .3.4.3.5.1.4-1.4.6-2.9.9-4.4.3-1.3.7-2.6.6-3.9v-.1l4.3.5c.7.1 1.4.3 2.1.5-.9 2-1.9 4.3-2.4 6.5-.3-.9-.6-1.8-.7-2.8-.1-.6-1-1.1-1.4-.4-1.5 3.5-5 5.8-8.7 6.4v1.5c3.6-.5 6.9-2.4 9-5.4 2 7.2 9.8 12.1 17.1 10.5-1.4 4.2-2 8.9-.3 13.1 1.3 3.2 3.8 5.8 7 6.8-7 4.1-6.5 13.5-3.9 20.5-6.3-.8-12.6 3.3-14.4 9.4-3.5-2.9-8.2-3.8-12.5-2.7-.1-.3-.7-.3-.7.1v.1c-.5.1-.9.3-1.3.5v1.5c.4-.2.9-.4 1.3-.5 0 2.3.1 4.7.2 7-.5-.1-1-.1-1.5-.2v1.2c14.6 2 30.1-3.3 37.4-17 2.9-5.4 3.7-11.5 3.4-17.5-.2-6.4-1.3-13-3.7-19-4-9.8-12.4-17.4-22.5-20.4-4.8-1.4-9.8-1.7-14.6-.9v6.2c.4-1.8.5-3.4.3-5zm1.8 72.6l.2-7.3c1.4-.4 2.9-.5 4.4-.4v.1c.4 2.4.6 4.8.5 7.2 0 .4.5.3.5 0 .2-2.4.1-4.9-.3-7.2 1.3.2 2.6.5 3.8 1.1-.1.1-.1.1-.1.3.2 2 1 4.1 1.5 6.1-3.5.4-7 .5-10.5.1zm14.3-1.1c-1.1.3-2.2.5-3.3.7-.4-2-.7-4.1-1.4-5.9a11.23 11.23 0 0 1 2.9 2.1c.4.3 1.1.2 1.2-.3.2-1.1.6-2.1 1-3l.9 2.7c.3 1 .6 2.1 1.2 3-.8.2-1.6.5-2.5.7zm2.9-.9c-.1-1-.5-2-.8-3-.4-1.1-.7-2.3-1.1-3.4.6-.9 1.3-1.7 2-2.4.1 1.2 1 2.3 1.6 3.3.8 1.2 1.6 2.2 2.7 3.1.2.2.5-.1.3-.3-.8-1.1-1.5-2.2-2.2-3.3-.6-1-1.1-2.3-1.9-3.1 0 0-.1-.1-.2-.1 1.2-1 2.6-1.8 4.2-2.3.4 1.2 1.4 2.3 2.2 3.3s1.6 2 2.5 2.9c-2.8 2.2-5.9 4-9.3 5.3zm9.8-5.7l-2.4-3c-.7-1-1.2-2.1-2.1-3 1.7-.4 3.6-.5 5.4 0 .1 0 .3 0 .5-.1.9.8 1.7 1.6 2.3 2.6-1.2 1.2-2.4 2.4-3.7 3.5zm9.1-12.9c-2.9-1.3-5.9-2.6-8.9-3.8-.5-.2-.8.6-.2.9 2.9 1.2 5.9 2.5 8.9 3.6-1.1 3-2.7 5.8-4.8 8.2-.6-1-1.4-1.9-2.3-2.7v-.2c-.5-1.1-.9-2.3-1.2-3.5 1.7 1.3 3.7 2.3 5.9 2.6.4.1.6-.5.2-.7-2.3-.7-4.4-1.6-6.2-3.2-.1-.1-.1-.1-.2-.1-.7-2.9-.9-6-.2-8.8 3.3 1.2 6.8 1.9 10.2 2.7-.3 1.7-.7 3.4-1.2 5zm1.3-17.2c.2 1.6.3 3.2.3 4.8h-.1c-2.5.4-4.8.2-7.2-.7-.5-.2-.7.6-.2.8 2.4 1 5 1.1 7.5.5a62.28 62.28 0 0 1-.3 6.1c-3.3-1-6.7-2.2-10.1-2.7.8-2.8 2.7-5.2 6-6.5.6-.2.8-1.3 0-1.4-.9-.1-1.7-.4-2.5-.7 2.2 0 4.8-.5 6.5-2 0 .7 0 1.2.1 1.8zm-.3-2.4c-2.5 1-4.4 2.1-7.2 2.2-.1 0-.1 0-.2.1-1.2-.7-2.2-1.6-3-2.7h.2c3.1-1.4 6.4-2.6 9.2-4.3l.1-.1a34.08 34.08 0 0 1 .9 4.8zm-1-5.5h-.2c-3.2 1.2-6.2 3-9.3 4.5-.1 0-.1.1-.1.2-.6-.9-1.1-1.8-1.5-2.9 0-.1 0-.1-.1-.2 3.2-2.4 6.4-4.9 9.4-7.5.7 1.9 1.3 3.9 1.8 5.9zm-3.5-9.6c.5 1 1 2 1.4 3-.1 0-.2 0-.3.1-3.1 2.4-6.1 5-9 7.6-1.1-4-.2-8.2 1.3-12.1.2-.4-.2-.8-.6-.9.5-.6 1.1-1.1 1.5-1.7.5-.6 1.1-1.3 1.5-2 1.6 1.8 3 3.8 4.2 6zm-4.7-6.6c-.6.6-1 1.5-1.5 2.2-.6.8-1.3 1.6-2 2.4-4.1 1.1-8.4-.1-11.6-2.7 1.1-1.2 1.8-2.7 2.7-4 1.1-1.7 2.4-3.3 3.6-4.8 3.3 1.7 6.3 4.1 8.8 6.9zm-9.6-7.5c-1.1 1.4-2.1 2.8-3.1 4.3s-2.1 3-2.8 4.7c-1.3-1.2-2.4-2.6-3.2-4.2 1.2-2.2 1.9-4.8 3-7.1v-.1c2.1.6 4.1 1.4 6.1 2.4z"/><path id="U" d="M114.1 81.8c.1-.2.2-.3.2-.5 0-.4-.3-.5-.5-.8-.2-.2-.5-.4-.7-.6-.3-.2-.4-.3-.8-.2-.8.2-1.2 1.3-.9 2.1a1.38 1.38 0 0 0 .3.4c.3.2.6.2.9 0 .5.2 1.2 0 1.5-.4zm-1.8-.9c0-.1.1-.2.2-.2l.1.1-.3.3v-.2z"/><path id="V" d="M163.3 192c-.7-.3-1.6-.1-2 .4a1.05 1.05 0 0 0 .4 1.7c0 .1.1.1.1.2 1.5 1 3.1-1.5 1.5-2.3zm-1.1 1.2c-.1 0-.1 0 0 0-.1 0-.1 0 0 0-.1 0-.1 0 0 0-.1 0-.1 0 0 0 0-.2.2-.4.4-.4.3 0 .5.1.5.4 0 0 0-.1-.1-.1-.3-.3-.7-.2-.8.1z"/></defs></svg>