<svg width="163" height="277" viewBox="0 0 163 277" fill="none" xmlns="http://www.w3.org/2000/svg">
<g clip-path="url(#clip0)">
<path fill-rule="evenodd" clip-rule="evenodd" d="M81.7687 44.7414C82.312 44.3736 82.3393 43.5872 82.2379 42.9377C82.1085 42.1084 81.7916 41.2079 81.0422 40.8342C80.2347 40.4322 79.214 40.8301 78.6228 41.5123C78.0316 42.1945 77.55 43.4529 77.3048 44.3221L81.7687 44.7414ZM62.3994 44.5928C62.6672 44.1851 62.4589 43.6399 62.2048 43.223C61.8793 42.693 61.4054 42.1674 60.7854 42.1272C60.1181 42.084 59.5338 42.6492 59.3243 43.2855C59.1468 44.0393 59.1135 44.82 59.2261 45.5862L62.3994 44.5928ZM90.9309 50.2827C90.9187 49.6255 91.545 49.1512 92.1335 48.8606C92.885 48.4895 93.8019 48.2305 94.5383 48.6307C95.3311 49.0613 95.5935 50.1267 95.3767 51.0037C95.1598 51.8806 94.4094 52.9988 93.8412 53.7004L90.9309 50.2827ZM72.4348 44.2462C73.2084 43.7224 73.2467 42.603 73.1027 41.6787C72.9186 40.498 72.4687 39.2161 71.4007 38.6843C70.2514 38.1122 68.798 38.6783 67.9569 39.6494C67.1159 40.6204 66.4298 42.4122 66.0802 43.6494L72.4348 44.2462ZM96.8187 57.5974C97.0121 56.6311 98.0819 56.1383 99.0369 55.9033C100.257 55.6026 101.683 55.5195 102.632 56.3431C103.655 57.2296 103.696 58.8743 103.097 60.0886C102.497 61.303 101.038 62.6984 99.9801 63.5429L96.8187 57.5974ZM17.4568 276.631L18.8628 277C19.0278 276.886 19.1567 276.728 19.2342 276.543C19.3118 276.358 19.3347 276.155 19.3002 275.958C19.2622 275.807 19.1792 275.672 19.0621 275.57C18.9451 275.469 18.7997 275.405 18.6456 275.389L18.4868 276.547C18.4229 276.535 18.3629 276.507 18.3118 276.467C18.2607 276.426 18.22 276.374 18.1931 276.315C18.1714 276.275 18.1584 276.231 18.155 276.186C18.1516 276.141 18.1579 276.095 18.1735 276.053C18.219 276.028 18.2702 276.017 18.3218 276.02C18.3733 276.022 18.4232 276.039 18.4659 276.068C18.4659 276.068 18.3808 275.946 18.4787 275.454C23.2318 251.37 29.9845 227.348 36.5143 204.118C42.8811 181.475 49.4609 158.061 57.9105 135.712C60.6842 128.377 63.7067 121.031 66.893 113.879L65.8253 113.403C62.63 120.575 59.5986 127.941 56.8169 135.297C48.349 157.695 41.7603 181.133 35.3882 203.8C28.8515 227.054 22.0938 251.096 17.3315 275.228C17.205 275.696 17.2494 276.193 17.4568 276.631ZM6.10694 273.65L26.4714 201.543C31.453 183.903 36.6059 165.66 43.7004 148.434C45.5066 144.047 47.4788 139.626 49.3886 135.35C54.3704 124.188 59.5213 112.645 62.245 100.519L61.1031 100.262C58.4059 112.273 53.2785 123.762 48.3211 134.872C46.4096 139.156 44.4326 143.585 42.6198 147.988C35.4992 165.277 30.3391 183.551 25.3462 201.224L4.97312 273.352L6.10694 273.65ZM80.5055 92.1088C82.5624 88.4034 84.1609 84.4611 85.2657 80.3689C86.0892 77.2851 86.6393 74.0768 87.1715 70.9745C87.7573 67.5575 88.3711 64.0327 89.3449 60.6389C89.5065 60.6717 89.6708 60.6899 89.8358 60.6931C88.854 64.0878 88.2378 67.626 87.6499 71.0558C87.1159 74.1694 86.5637 77.3881 85.7348 80.493C84.6313 84.5832 83.0382 88.525 80.9901 92.2327C80.8288 92.1922 80.6676 92.1502 80.5055 92.1088ZM82.824 92.7309C86.844 86.002 89.2476 78.4305 89.8453 70.6133L90.3296 70.6502C89.724 78.4993 87.3138 86.102 83.2872 92.8646C83.1331 92.8175 82.9784 92.7755 82.824 92.7309ZM77.2373 91.4927C81.7404 81.9042 84.3734 70.881 84.8018 59.2775L85.2877 59.2947C84.8596 70.8673 82.2531 81.8688 77.7904 91.4611C77.6054 91.4526 77.4201 91.4631 77.2373 91.4927ZM75.7824 84.1349C75.5877 84.5422 75.3947 84.9502 75.2035 85.3587C74.2952 87.3089 73.4648 89.2969 72.685 91.3066C72.5235 91.247 72.3694 91.1931 72.2242 91.1541C73.0102 89.1274 73.8465 87.1213 74.7635 85.153C74.9548 84.7426 75.1483 84.3335 75.3439 83.9255C75.9984 82.5468 76.6777 81.1202 77.2135 79.6697C78.8142 75.3399 79.2218 70.6588 78.3937 66.1171L78.8712 66.0305C79.7154 70.6577 79.3003 75.4271 77.6696 79.8385C77.1251 81.3093 76.442 82.7463 75.7824 84.1349ZM74.6495 91.3233C74.6052 91.3108 74.5602 91.3018 74.5174 91.2893C74.3993 91.2598 74.2794 91.2376 74.1586 91.2229C74.7834 89.9305 75.4007 88.6299 75.9916 87.3286C78.2997 82.2392 81.0157 75.4695 81.5253 68.2281C81.559 67.7585 81.583 67.2874 81.6071 66.8166C81.6426 65.5835 81.7598 64.354 81.9579 63.1364L82.4339 63.2257C82.2404 64.4224 82.1258 65.6305 82.0909 66.8422C82.0671 67.316 82.0433 67.7901 82.0097 68.2635C81.492 75.5818 78.7567 82.4045 76.431 87.5299C75.8586 88.7975 75.2561 90.0648 74.6495 91.3233ZM68.2589 92.1526C68.532 90.5255 68.7924 88.8282 69.039 87.0349C69.3624 84.6825 69.6763 82.1544 69.7858 79.5973C69.8345 78.4393 69.8423 77.258 69.8497 76.1157C69.8596 74.6414 69.8691 73.1156 69.9687 71.6156C70.2871 66.83 71.5206 62.1323 72.7139 57.5888L73.1834 57.7121C71.9963 62.2335 70.7684 66.909 70.4525 71.6481C70.3543 73.134 70.3448 74.6518 70.335 76.1193C70.3275 77.2654 70.3207 78.4509 70.2704 79.6182C70.1606 82.1952 69.8441 84.7379 69.5195 87.1022C69.2892 88.7776 69.0455 90.3626 68.7912 91.8899C68.6106 91.9718 68.4324 92.0576 68.2589 92.1526ZM67.7752 59.1587L68.2381 59.3075C66.4482 64.8817 66.9448 70.9114 67.4247 76.7422C67.5851 78.6915 67.752 80.708 67.8293 82.6772C67.9494 86.0142 67.8122 89.3555 67.419 92.6713C67.2376 92.7976 67.062 92.9357 66.8862 93.0748C67.3159 89.6334 67.469 86.1631 67.3441 82.6972C67.2661 80.7369 67.1013 78.7266 66.9406 76.7821C66.4572 70.9031 65.9562 64.8242 67.7752 59.1575V59.1587ZM52.8766 62.8276C53.4172 69.0407 54.0292 76.0838 57.0064 82.0448C57.5764 83.1865 58.2417 84.3055 58.8849 85.3888C58.8965 85.4082 58.9075 85.4278 58.9191 85.4484C57.8068 82.7969 56.9132 80.0587 56.2471 77.2612C55.5376 74.2632 55.2433 71.7967 55.3189 69.4996C55.4166 67.7179 55.6312 65.9446 55.9612 64.1911L57.0885 57.3797L57.5672 57.4601L56.4399 64.2715C56.1136 66.0037 55.9016 67.7554 55.805 69.5154C55.7298 71.7681 56.0204 74.1935 56.7193 77.1496C57.6415 81.0423 59.0073 84.8162 60.7898 88.397C60.3874 88.1254 59.9878 87.8501 59.5909 87.5709C59.5611 87.5191 59.5352 87.4658 59.5058 87.414C59.1678 86.8185 58.8179 86.2277 58.4675 85.6378C57.8198 84.5485 57.1507 83.4214 56.5729 82.2639C53.554 76.219 52.937 69.128 52.3931 62.8708L52.8766 62.8276ZM60.9713 53.592L59.9803 57.936C59.5284 59.9201 59.0601 61.9715 58.9209 64.0267C58.6745 67.6299 59.4266 71.2663 60.1564 74.7828L60.3677 75.8027C61.3087 80.4019 62.07 85.0511 62.6826 89.7227C62.5029 89.5879 62.3213 89.4553 62.1376 89.3249C61.5369 84.8201 60.7988 80.3364 59.8914 75.8998L59.6831 74.8823C58.9474 71.3321 58.1872 67.662 58.438 63.994C58.5802 61.9003 59.0518 59.8298 59.5091 57.8273L60.5004 53.4836L60.9713 53.592ZM85.4305 93.6215C85.2716 93.5566 85.113 93.4899 84.953 93.4292C85.9449 92.0632 86.9032 90.6675 87.7701 89.2141C91.805 82.4506 93.7478 75.4692 93.3893 69.0247L93.8751 68.997C94.2384 75.5398 92.2724 82.6174 88.1875 89.4639C87.334 90.8941 86.4016 92.2753 85.4305 93.6215ZM27.1536 68.5378C28.9562 73.6355 30.8815 77.4572 33.2149 80.566C37.8192 86.7017 44.5852 90.7736 51.1299 94.7105C54.8803 96.9677 58.7073 99.2835 62.1846 102.001C62.1807 102.21 62.1712 102.415 62.1751 102.633C58.6406 99.8287 54.7248 97.4414 50.8794 95.1286C44.2957 91.1666 37.4874 87.071 32.8263 80.8596C30.4629 77.7094 28.515 73.8463 26.6954 68.701L27.1536 68.5378ZM35.6845 75.4165C35.7533 75.3467 35.8169 75.2721 35.8749 75.1932C39.2276 81.4819 44.6164 86.3366 49.5439 90.2953C50.9922 91.459 52.4922 92.618 53.9414 93.7376C56.7401 95.8998 59.5942 98.1117 62.2819 100.512C62.2563 100.715 62.2393 100.924 62.2224 101.134C59.4677 98.6489 56.5312 96.3539 53.6448 94.1236C52.1929 93.0021 50.6914 91.842 49.2398 90.6753C44.3055 86.711 38.9113 81.8506 35.5134 75.5481C35.5709 75.5028 35.6301 75.4665 35.6845 75.4165ZM28.2687 78.3225C30.2829 81.0243 32.8477 83.3621 35.3198 85.4847C42.1176 91.3177 49.3813 96.5836 57.0382 101.229L57.5815 101.557C58.3357 102.012 59.0988 102.474 59.8464 102.959C59.5516 102.964 59.2553 102.963 58.9607 102.97C58.419 102.631 57.873 102.301 57.3316 101.974L56.7865 101.644C49.1064 96.9853 41.8209 91.7039 35.0035 85.8531C32.5103 83.712 29.9226 81.3533 27.8792 78.6123C25.9085 75.9698 24.4337 72.9744 23.0078 70.0779L23.4243 69.8296L23.626 70.1163L23.5838 70.1461C24.9556 72.936 26.3878 75.8006 28.2687 78.3225ZM36.9736 92.8541C30.7696 88.86 23.7938 83.863 19.0907 77.0858L19.4891 76.8074C24.1437 83.5158 31.0725 88.4768 37.2351 92.4456C38.6834 93.3773 40.146 94.2918 41.6086 95.2078C45.6188 97.7184 49.7307 100.297 53.5439 103.243C53.3014 103.26 53.0596 103.276 52.8162 103.295C49.1419 100.5 45.1993 98.0286 41.3518 95.6196C39.8866 94.7028 38.4234 93.7874 36.9736 92.8541ZM41.4066 77.9914C45.5001 83.4556 50.1811 88.453 55.3653 92.8937C56.7478 94.0777 58.1938 95.2447 59.5927 96.373C60.6042 97.1883 61.6199 98.0179 62.6309 98.8606C62.5812 99.0304 62.5258 99.1989 62.4851 99.3716C61.4227 98.4822 60.3513 97.6103 59.2877 96.7512C57.8864 95.6196 56.4381 94.4517 55.0493 93.2624C49.9514 88.8959 45.3376 83.9931 41.2876 78.6388L41.2706 78.6501L41.0124 78.2728L41.4066 77.9914ZM25.6848 80.4394C31.7838 87.8541 40.1567 93.0596 48.2538 98.0977C50.4977 99.4928 52.8174 100.936 55.0505 102.402C55.4075 102.636 55.7455 102.861 56.0775 103.086C55.8032 103.1 55.5295 103.108 55.2546 103.123C55.0969 103.018 54.9482 102.917 54.7851 102.81C52.5562 101.346 50.2391 99.9055 47.998 98.5119C39.8666 93.4554 31.4592 88.2261 25.3099 80.7521C21.8467 76.5486 19.1889 71.7412 17.4702 66.5716L17.9301 66.4173C19.6306 71.5288 22.2591 76.2822 25.6836 80.4386L25.6848 80.4394ZM46.0299 81.0945C50.0684 86.4706 55.271 90.951 60.3013 95.2855C61.2171 96.0742 62.136 96.8728 63.0581 97.6811C62.9897 97.8387 62.9186 97.9959 62.8591 98.1546C61.9003 97.3119 60.9424 96.4781 59.9854 95.6533C54.9348 91.303 49.7126 86.8045 45.642 81.3867L46.0299 81.0945ZM15.9055 74.0461C17.2423 78.5902 20.597 82.2609 23.7031 85.2515C27.6705 89.0891 31.9931 92.5409 36.6127 95.5604C38.1574 96.5627 39.7664 97.532 41.3233 98.4691C43.8736 100.004 46.4703 101.594 48.9134 103.388C48.881 103.384 48.8504 103.375 48.8173 103.372C48.5216 103.344 48.228 103.304 47.9331 103.27C45.7101 101.692 43.3708 100.269 41.0731 98.8857C39.5129 97.9468 37.8995 96.9754 36.3491 95.9674C31.7033 92.9314 27.3562 89.4604 23.3666 85.6011C20.215 82.5665 16.8082 78.8359 15.4402 74.1822L15.9055 74.0461ZM64.6307 95.033C63.5776 94.1993 62.5792 93.2986 61.6416 92.3366L61.9924 92.0004C62.9113 92.9428 63.8895 93.8253 64.9211 94.6426C64.8155 94.7748 64.7245 94.9038 64.6307 95.033ZM63.579 96.6347C59.8265 93.3749 55.9627 89.9996 52.9313 85.9632L53.3196 85.6702C56.3004 89.6408 60.1151 92.9816 63.8263 96.2042C63.7367 96.348 63.6606 96.4915 63.579 96.6347ZM75.5495 78.0703C75.0815 79.7191 74.4832 81.3524 73.9057 82.9324L73.4937 84.0625C72.6654 86.3554 71.9041 88.6852 71.1638 91.0198C71.0282 91.018 70.8922 91.0169 70.7381 91.0216C70.5335 91.0293 70.3304 91.0607 70.133 91.1151C70.7744 87.1695 71.2507 83.1987 71.697 79.2835C71.8788 77.6874 72.0599 76.0937 72.253 74.5032C72.6151 71.5254 73.0417 68.3689 73.9191 65.3477C74.5442 63.3226 75.2704 61.3301 76.0948 59.3778L79.1997 51.671L79.6498 51.8538L76.545 59.5607C75.7714 61.4793 74.9726 63.4616 74.3856 65.4835C73.5175 68.4681 73.0947 71.6049 72.7353 74.5631C72.5416 76.1514 72.361 77.7439 72.1796 79.3385C71.7428 83.171 71.2891 87.0591 70.6732 90.9257C71.4218 88.5688 72.2001 86.214 73.0367 83.8981L73.4496 82.7666C74.0247 81.1958 74.6189 79.5711 75.0824 77.939C75.734 75.4725 76.2528 72.9729 76.6366 70.4507C77.3964 65.9939 78.1813 61.3849 80.4641 57.408L80.8866 57.6498C78.6469 61.5507 77.8692 66.1171 77.1165 70.5326C76.7296 73.0715 76.2066 75.5877 75.5495 78.0703ZM61.0787 60.7795L61.5417 60.9283C60.5852 63.9172 60.4879 67.369 61.2442 71.4822C61.6711 73.8091 62.3238 76.1312 62.9557 78.3761C63.2806 79.5327 63.6174 80.7286 63.9194 81.912C64.5946 84.5798 65.1237 87.2826 65.5042 90.0083C65.75 84.2689 65.3388 77.9452 64.2636 70.8429L64.2041 70.448C63.9432 68.7305 63.6722 66.9545 63.77 65.1848C63.8974 63.6835 64.1562 62.1962 64.5436 60.7402L66.2834 53.3499L66.7562 53.4621L65.0151 60.8563C64.6354 62.2837 64.3813 63.7416 64.2556 65.2134C64.1613 66.9319 64.4272 68.6831 64.6846 70.376L64.7441 70.7717C65.9716 78.88 66.3376 85.9829 65.8491 92.3628C65.6545 92.2083 65.4623 92.0531 65.2567 91.9123C64.8765 88.5826 64.2729 85.2823 63.4499 82.0338C63.1491 80.8557 62.8138 79.6628 62.4898 78.5092C61.855 76.2539 61.198 73.9207 60.7669 71.5725C59.9949 67.3768 60.0978 63.8475 61.0787 60.7795ZM14.6964 60.2959C15.6383 59.5254 16.7861 59.0497 17.9965 58.9285C20.2576 58.7534 22.2069 60.0335 24.1702 61.4739L40.9963 73.8019C44.2666 76.1982 47.6359 78.601 50.8949 80.9242C56.2635 84.7522 61.7716 88.6962 67.0998 92.7839C66.8407 92.9944 66.594 93.2124 66.3528 93.4351C61.0868 89.3999 55.6423 85.5017 50.3323 81.7166C47.0706 79.3913 43.6977 76.9873 40.4227 74.5863L23.5968 62.2582C22.2798 61.2928 20.9758 60.4046 19.6218 60.0493C19.117 59.9123 18.5928 59.8613 18.0711 59.8986C17.0521 60.009 16.0871 60.4136 15.2938 61.0632C12.5493 63.2087 11.9052 66.9453 12.2185 69.7262C12.5948 73.076 14.2067 76.2399 15.6892 78.9428C18.7581 84.541 23.1125 91.5517 29.6024 96.1214C34.6786 99.6968 41.1058 101.867 48.7064 102.577C53.3371 103.009 57.9685 102.854 62.1751 102.547C62.1795 102.86 62.1968 103.189 62.2161 103.521C57.9757 103.828 53.302 103.982 48.6159 103.544C45.925 103.304 43.2583 102.843 40.6426 102.167C36.4933 101.125 32.5645 99.3471 29.0428 96.9167C22.3925 92.233 17.9584 85.1009 14.8387 79.4109C13.3124 76.627 11.6496 73.3612 11.2536 69.8346C10.8178 65.9528 12.1375 62.2981 14.6976 60.2959H14.6964ZM63.41 43.7647C66.2195 43.0899 69.0926 43.2951 71.8719 43.494L81.0077 44.1455C82.3033 44.2369 83.7713 44.3403 85.0925 44.9102C86.6946 45.5987 87.9445 46.9158 88.9492 47.9738C94.0494 53.3487 99.715 59.7343 102.393 67.517C105.318 76.0198 103.785 84.9177 98.4889 90.1855C95.1113 93.5444 91.5346 94.0703 87.7487 94.6259C87.6297 94.6435 87.5077 94.6622 87.3869 94.6807C87.2039 94.4949 86.9923 94.3397 86.7601 94.221C86.6565 94.1685 86.5518 94.1233 86.4477 94.0721C86.3638 94.0066 86.2781 93.9416 86.1945 93.8758C86.6705 93.8005 87.1409 93.7311 87.608 93.6629C91.232 93.1302 94.6549 92.6278 97.8058 89.494C102.84 84.4874 104.281 75.9844 101.476 67.8327C98.8614 60.2345 93.2765 53.9428 88.2462 48.6423C87.3036 47.6495 86.1299 46.4134 84.7114 45.8024C84.4181 45.6778 84.116 45.5752 83.8076 45.4954C82.8654 45.2804 81.9054 45.1528 80.9398 45.1142L71.8038 44.4627C69.0988 44.2691 66.3016 44.0693 63.6385 44.7092C56.6693 46.386 52.4788 53.427 51.417 59.6616C50.276 66.3575 51.7541 73.2153 53.5055 80.2381C53.8664 81.6853 54.2273 83.0751 54.6209 84.4169C54.2872 84.0872 53.871 83.8535 53.416 83.7403C53.122 82.6811 52.843 81.5939 52.5636 80.4743C50.7854 73.3469 49.2871 66.3795 50.4602 59.4975C51.5756 52.9494 56.0145 45.5442 63.4112 43.7647H63.41ZM0.233436 19.1303C0.937947 17.5896 3.76997 17.9261 6.05666 18.4939C7.54928 18.7304 9.36084 19.5261 11.0629 20.3274C14.7546 22.0893 18.2416 24.252 21.4613 26.7764C27.3541 31.3565 32.7406 37.1391 37.9272 44.451C42.7171 51.208 46.8371 58.5217 50.8071 65.6407C50.7637 65.8712 50.7563 66.1071 50.7851 66.3399C50.8068 66.4837 50.8148 66.629 50.8333 66.7729C50.8398 66.8901 50.8528 67.0069 50.8723 67.1227C50.902 67.3827 50.9356 67.6421 50.9591 67.9024C50.808 67.6311 50.6548 67.3607 50.5036 67.0894C46.3786 59.689 42.1138 52.0358 37.1349 45.0153C32.0052 37.7805 26.6827 32.0652 20.866 27.5444C17.703 25.0638 14.2774 22.9383 10.6509 21.2061C9.35161 20.5625 8.00061 20.0292 6.61212 19.6121C5.60057 19.3462 4.69881 19.2777 4.26177 19.6741C3.80003 20.0942 3.85298 21.19 4.41052 22.7626C4.9398 24.2515 6.00906 25.5049 7.04381 26.7153L51.1921 78.3454L50.4539 78.9785L6.30687 27.3493C5.26557 26.1302 4.08593 24.7482 3.49716 23.089C2.79324 21.1052 2.80484 19.7744 3.53405 19.0279C2.21339 18.9052 1.32709 19.0755 1.11556 19.5365C0.877551 20.0528 0.980789 20.7011 1.12538 21.4336C3.72892 34.4826 6.6868 49.2441 14.4221 61.1794C14.1446 61.3638 13.9023 61.5965 13.7066 61.8664C5.79277 49.7468 2.80484 34.814 0.173339 21.6236C0.0349957 20.9283 -0.154224 19.976 0.233436 19.1303ZM73.181 44.3051C73.1557 44.3016 73.134 44.3007 73.109 44.2974C72.8514 44.2437 72.588 44.2237 72.3253 44.2378C72.0724 42.0313 71.9124 39.8009 71.7743 37.6319C71.6128 35.088 71.4453 32.4583 71.1005 29.8989C69.6983 19.7652 65.5253 10.2165 59.0423 2.30728C58.8922 2.08332 58.6864 1.90237 58.4452 1.78229C58.1542 1.69891 57.768 1.84513 57.2459 2.26053C53.5049 5.24338 50.9725 9.96079 49.2767 17.1063C46.119 30.4841 46.9803 44.4974 51.7526 57.3869C51.5603 57.855 51.4013 58.3361 51.2766 58.8266C46.0661 45.4678 45.0389 30.8387 48.3312 16.8818C50.0806 9.51264 52.7204 4.6243 56.6404 1.49881C57.1492 1.09353 57.89 0.587902 58.7486 0.858286C59.1672 1.03023 59.5284 1.31774 59.7899 1.6873C66.3879 9.73685 70.6354 19.4546 72.0635 29.7679C72.4122 32.3618 72.5806 35.0088 72.7439 37.5697C72.885 39.7977 73.0456 42.0912 73.311 44.3447C73.2655 44.3343 73.228 44.3123 73.181 44.3051ZM93.2685 107.762C101.117 112.546 110.02 115.326 119.194 115.859C121.943 116.057 124.706 115.928 127.424 115.476C136.528 113.815 143.882 107.413 150.636 100.999C152.698 99.0399 154.468 97.23 155.243 94.9151C155.448 94.3031 155.704 93.1692 155.117 92.4468C154.785 92.1075 154.385 91.842 153.943 91.6678C144.896 87.3029 134.301 82.5453 123.038 81.3221C116.163 80.5755 109.14 81.1952 102.457 82.3324L102.477 82.2955C102.646 81.9816 102.759 81.6401 102.809 81.2869C109.409 80.1932 116.335 79.6161 123.141 80.3552C134.559 81.5927 145.245 86.3917 154.364 90.7905C154.937 91.0223 155.452 91.3782 155.871 91.8328C156.523 92.6368 156.627 93.8401 156.164 95.2245C155.318 97.7511 153.462 99.6545 151.304 101.704C144.444 108.22 136.964 114.725 127.598 116.432C124.804 116.899 121.965 117.033 119.14 116.831C115.371 116.613 111.632 116.019 107.981 115.058C106.551 114.683 105.13 114.252 103.72 113.765C99.842 112.414 96.1207 110.65 92.6196 108.504C92.8628 108.281 93.0802 108.032 93.2679 107.761L93.2685 107.762ZM144.58 87.0617C151.671 81.0537 158.582 73.4532 161.81 63.835C162.088 63.0092 162.031 62.687 161.982 62.5739C161.918 62.5393 161.846 62.4988 161.768 62.4527C161.038 62.3681 158.958 63.5018 158.23 63.8999C157.873 64.094 157.561 64.2635 157.325 64.3763C154.609 65.6848 151.383 67.2258 148.054 68.7397C140.817 72.0307 134.77 74.4437 129.024 76.3331C128.141 76.6231 127.255 76.9042 126.369 77.1853C123.599 78.0638 120.734 78.972 118.04 80.1545C117.791 80.2637 117.547 80.3876 117.3 80.502C117.036 80.4237 116.76 80.3918 116.485 80.4079C115.943 80.4412 115.434 80.4927 114.942 80.5651C115.835 80.1083 116.735 79.6649 117.652 79.2629C120.392 78.0611 123.281 77.1439 126.076 76.258C126.959 75.9778 127.842 75.6979 128.72 75.4091C134.432 73.5316 140.449 71.1311 147.652 67.8556C150.973 66.3449 154.193 64.8072 156.904 63.5015C157.13 63.3928 157.427 63.2302 157.767 63.0459C158.522 62.618 159.3 62.232 160.097 61.8896C146.598 61.7828 133.114 62.8012 119.784 64.9344C114.104 65.8444 108.062 67.0516 102.28 69.0652C102.201 68.747 102.069 68.4448 101.888 68.1718C107.755 66.121 113.878 64.8963 119.631 63.9732C133.222 61.7986 146.972 60.7781 160.735 60.9227C161.089 60.9227 161.52 61.171 162.093 61.5138C162.116 61.5275 162.138 61.5415 162.16 61.554C162.312 61.5986 162.452 61.674 162.573 61.7755C163.317 62.4009 162.878 63.7144 162.733 64.1459C159.48 73.8368 152.604 81.4876 145.514 87.545C145.231 87.3335 144.915 87.1699 144.58 87.0606L144.58 87.0617ZM150.102 46.7085C149.582 46.6137 149.048 46.6329 148.536 46.7648C132.865 49.8929 117.827 55.6227 104.044 63.717C103.003 64.3275 101.964 64.9597 100.945 65.6228C100.899 65.3154 100.809 65.0163 100.677 64.7349C100.665 64.7101 100.653 64.6854 100.641 64.661C101.602 64.0416 102.577 63.4494 103.553 62.8767C117.429 54.7276 132.568 48.9591 148.346 45.8101C148.919 45.6946 150.664 45.3441 151.462 46.5221C152.019 47.3419 151.737 48.3716 151.429 49.1777C149.708 53.6463 147.336 57.8352 144.389 61.6079C144.254 61.5931 144.118 61.5904 143.983 61.5998C143.667 61.6268 143.352 61.6714 143.041 61.7332C146.196 57.852 148.721 53.4974 150.522 48.8296C150.76 48.2084 150.962 47.5143 150.66 47.0697C150.525 46.8839 150.326 46.7547 150.102 46.7073L150.102 46.7085ZM91.4206 27.2168C91.4828 27.1766 91.5423 27.1316 91.6051 27.0914C100.225 21.5745 110.361 18.689 120.149 18.9683C120.963 18.9904 121.813 19.052 122.525 19.5436C123.024 19.9329 123.431 20.429 123.715 20.9956C129.075 30.2923 130.986 41.1841 129.111 51.7526C128.904 51.7914 128.702 51.8565 128.511 51.9461L128.05 52.1623C130.06 41.6463 128.224 30.7574 122.876 21.4845C122.66 21.0436 122.353 20.6542 121.973 20.3432C121.485 20.0043 120.791 19.9578 120.122 19.9394C110.525 19.6672 100.584 22.5003 92.1263 27.9115C91.8416 28.0938 91.5676 28.2942 91.2864 28.4818C91.4498 28.0813 91.4963 27.6427 91.4206 27.2168ZM78.9753 31.8053C80.7211 29.7143 82.3372 27.5042 83.9141 25.3467C84.1128 25.074 84.4642 24.4945 84.87 23.823C86.3001 21.4604 87.5107 19.5427 88.4827 18.8245C88.3652 18.7933 88.246 18.7689 88.1257 18.7515C86.8586 18.5729 85.5638 19.2372 84.4508 19.873C82.7427 20.8496 81.0854 21.9126 79.4853 23.0577C79.4829 22.6575 79.4799 22.2731 79.4767 21.888C80.9363 20.8702 82.4307 19.9054 83.9691 19.0294C85.2213 18.3147 86.6893 17.5702 88.2589 17.7903C88.736 17.8566 89.1965 18.0111 89.6171 18.2459C89.6171 18.2459 90.2648 18.6711 90.6153 18.9537C91.874 19.9694 92.3626 22.388 92.4003 23.4008C92.456 24.8649 92.1715 26.3017 91.896 27.6909C91.7259 28.5476 91.5503 29.4338 91.462 30.3012C91.2918 31.9643 91.4281 33.6863 91.5596 35.3512C91.7484 37.0806 91.7814 38.8235 91.6583 40.5588C91.3023 43.5205 90.4083 46.3922 89.0203 49.0321C88.8338 48.7708 88.6095 48.5387 88.3547 48.3436C88.3369 48.3302 88.3179 48.3204 88.3 48.3073C89.5545 45.8537 90.3644 43.1969 90.692 40.4602C90.8595 38.8034 90.7235 37.0873 90.5918 35.4278C90.4567 33.7191 90.3166 31.9527 90.4957 30.2023C90.5894 29.2881 90.7691 28.3799 90.944 27.5006C91.2201 26.1049 91.4813 24.7866 91.4301 23.4374C91.3888 22.3502 90.8568 20.4 90.0059 19.7119C89.8933 19.6156 89.7615 19.5445 89.6192 19.5034C89.5016 19.473 89.3788 19.469 89.2595 19.4915C88.5511 19.6181 86.5521 22.9181 85.7012 24.3274C85.2651 25.0469 84.9218 25.6147 84.6971 25.9224C82.7633 28.5708 80.7566 31.2892 78.5228 33.7986C78.6998 33.1539 78.8563 32.4931 78.9753 31.8053ZM72.0939 0.853524C72.9769 0.303526 74.285 -0.362902 75.479 0.222234C75.8773 0.416386 76.1576 0.94137 76.4292 1.56224C76.8963 2.02558 77.3319 2.76377 77.7853 3.83757C80.1184 9.41447 80.9944 15.4941 80.3305 21.5036C80.1978 22.7397 80.0904 24.0541 79.9798 25.4087C79.5826 30.2747 79.1321 35.7898 77.2587 39.9209C76.4701 41.6174 75.3578 43.1431 73.9843 44.4123C73.9218 44.39 73.8629 44.3584 73.7986 44.3415L73.3291 44.2182C73.1733 44.1777 73.0138 44.1524 72.8531 44.1425C74.352 42.8791 75.5539 41.3002 76.373 39.5183C78.1768 35.5418 78.6204 30.1163 79.0116 25.3289C79.1226 23.9665 79.2303 22.6423 79.3648 21.4C80.0101 15.5554 79.159 9.64264 76.8916 4.21812C76.6346 3.51719 76.2594 2.86555 75.7824 2.2915C75.7427 2.26265 75.707 2.22848 75.6765 2.18996C75.5423 2.06127 75.3761 1.97089 75.1951 1.92821C74.6209 1.81089 73.79 2.31532 72.5 3.566C70.7345 5.27614 69.3651 7.72686 68.5395 10.6531C68.0758 12.3909 67.7494 14.1625 67.563 15.9515C67.536 15.8714 67.5196 15.7904 67.4901 15.7106C67.3063 15.2359 67.0726 14.782 66.7931 14.3566C66.978 13.0177 67.2492 11.6921 67.605 10.3881C68.4776 7.29656 69.9366 4.69577 71.8252 2.86651C73.0022 1.72632 73.8745 1.13076 74.6328 0.978295C74.111 0.923206 73.4532 1.15279 72.6065 1.68075C69.4103 3.68635 66.5618 6.19943 64.1726 9.12135C64.0331 8.81643 63.8926 8.51091 63.7212 8.20926C63.7126 8.19407 63.7019 8.18216 63.6933 8.16757C66.0935 5.30413 68.9283 2.83643 72.0939 0.853524ZM89.9336 93.5879C89.9084 93.5849 89.8828 93.5879 89.8575 93.5834C93.1581 90.4353 96.3091 87.0826 97.9671 82.8738C99.6448 78.571 99.6144 73.7888 97.882 69.5077L98.3321 69.3233C100.111 73.721 100.142 78.6334 98.4181 83.053C96.766 87.2458 93.69 90.5791 90.4424 93.6951C90.2762 93.6448 90.106 93.6093 89.9336 93.5879ZM96.5727 76.5513L97.057 76.5882C96.64 82.0535 94.454 87.2336 90.8304 91.3432C90.1505 92.1112 89.4192 92.8378 88.6728 93.5408C88.4208 93.5471 88.1688 93.5557 87.9162 93.5792C88.8088 92.7693 89.6604 91.9152 90.4677 91.0201C94.0207 86.9899 96.164 81.9106 96.5727 76.5513ZM99.7441 87.5972C99.8495 87.4331 99.9473 87.2616 100.046 87.0909C103.634 86.7994 107.205 85.9921 110.684 85.1994C115.533 84.095 120.55 82.953 125.586 83.2231L125.561 83.7093C120.593 83.4413 115.61 84.5774 110.792 85.6747C107.185 86.4936 103.479 87.3283 99.7441 87.5972ZM101.1 84.7087C106.676 83.8302 112.319 83.0551 117.915 82.4131L117.97 82.8973C112.297 83.5471 106.576 84.335 100.923 85.2292C100.986 85.0604 101.042 84.8835 101.1 84.7087ZM109.716 91.3173C111.445 91.0838 113.232 90.8409 115.005 90.703C121.636 90.1846 128.404 91.1032 134.149 92.0707L134.069 92.5507C128.353 91.5889 121.621 90.6747 115.043 91.1884C113.284 91.3256 111.502 91.5666 109.781 91.8C108.459 91.9787 107.092 92.1639 105.741 92.3012C101.614 92.6692 97.4685 92.7707 93.3292 92.6049C93.6909 92.4623 94.0432 92.3071 94.3853 92.1457C98.157 92.2701 101.933 92.1608 105.691 91.8182C107.034 91.6803 108.396 91.496 109.716 91.3173ZM127.62 93.5855L127.679 94.0682C120.597 94.9103 113.274 95.7804 106.011 95.8033C99.6754 95.8236 94.0599 95.192 88.9724 93.8904C89.3145 93.8085 89.6567 93.7263 90.0006 93.6379C94.809 94.7778 100.089 95.3352 106.008 95.3174C113.242 95.2944 120.55 94.4255 127.618 93.5855H127.62ZM87.6065 94.9365C89.0897 95.4126 90.5963 95.8124 92.1204 96.1345C97.4066 97.2419 102.781 97.4319 107.834 97.5314C115.43 97.6803 123.573 97.6359 131.64 96.2974L131.718 96.7777C123.613 98.1219 115.445 98.1683 107.825 98.0179C102.75 97.9176 97.3486 97.7267 92.0213 96.6115C91.2388 96.4471 90.4604 96.2634 89.6861 96.0603C89.3232 95.965 88.9652 95.8519 88.6049 95.7471C88.293 95.5005 87.979 95.2562 87.663 95.0142C87.644 94.9877 87.6241 94.9615 87.605 94.9365H87.6065ZM92.2495 99.2641C91.9206 98.8306 91.5656 98.4175 91.1865 98.0272C107.203 102.434 125.085 102.126 143.162 97.1145L143.292 97.5826C126.316 102.29 109.503 102.853 94.2363 99.2927C98.677 100.46 103.176 101.514 107.728 102.546C109.647 102.981 111.822 103.474 113.957 103.759C117.404 104.221 121.147 104.219 125.401 103.752C129.114 103.345 132.788 102.636 136.386 101.632L136.516 102.1C132.893 103.111 129.193 103.825 125.453 104.235C121.161 104.707 117.379 104.708 113.893 104.241C111.736 103.953 109.549 103.458 107.621 103.02C103.097 101.994 98.6225 100.954 94.2065 99.7951C93.5499 99.6245 92.8998 99.4422 92.248 99.2641H92.2495ZM110.378 111.443C107.687 110.737 105.065 109.837 102.58 108.939C100.403 108.153 98.0855 107.28 95.8821 106.229C95.2841 105.944 94.6939 105.636 94.1054 105.325C94.1214 105.153 94.1295 104.975 94.1325 104.794C94.7801 105.14 95.432 105.477 96.091 105.791C98.275 106.833 100.58 107.7 102.744 108.482C106.213 109.736 109.948 110.992 113.752 111.713C120.728 113.026 127.922 112.563 134.673 110.366L134.824 110.828C127.996 113.051 120.719 113.519 113.663 112.19C112.558 111.983 111.462 111.729 110.376 111.444L110.378 111.443ZM110.87 107.04C109.103 106.577 107.361 106.04 105.645 105.512C101.661 104.284 97.6217 103.034 93.596 101.69C93.5214 101.489 93.439 101.292 93.3506 101.099C97.5054 102.492 101.677 103.779 105.79 105.047C109.487 106.185 113.313 107.365 117.219 107.756C121.549 108.19 125.847 107.697 130.967 106.824L131.049 107.304C125.889 108.184 121.554 108.68 117.172 108.241C115.042 108.006 112.935 107.605 110.868 107.041L110.87 107.04ZM93.973 106.139C94.0277 106.169 94.0801 106.204 94.1348 106.235C101.533 110.382 110.185 113.308 120.589 115.185L120.504 115.663C117.558 115.133 114.747 114.517 112.073 113.815C105.244 112.023 99.2461 109.658 93.8983 106.66C93.8769 106.648 93.8564 106.634 93.8346 106.622C93.8861 106.467 93.9325 106.307 93.9715 106.14L93.973 106.139ZM114.103 87.8952C112.93 88.1894 111.716 88.4935 110.514 88.7615C106.143 89.7313 101.69 90.2786 97.215 90.3957C97.4133 90.2351 97.6072 90.0689 97.7966 89.8972C102.042 89.7481 106.265 89.2087 110.411 88.2859C111.607 88.0203 112.817 87.7163 113.988 87.4223C116.181 86.8715 118.451 86.303 120.728 85.9522C123.077 85.5911 125.456 85.4544 127.831 85.544L127.812 86.0299C125.468 85.9412 123.121 86.0763 120.802 86.4334C118.543 86.7833 116.285 87.3485 114.102 87.8961L114.103 87.8952ZM119.625 88.4786C116.319 88.738 112.989 89.3344 109.769 89.9106L108.938 90.0595C104.263 90.8933 99.6561 91.6282 95.0663 91.8039C95.3769 91.6385 95.6788 91.4639 95.972 91.2801C100.229 91.0475 104.511 90.3549 108.854 89.5827L109.686 89.4338C112.916 88.8556 116.258 88.2573 119.588 87.9953C122.501 87.771 125.427 87.7841 128.337 88.0346C130.826 88.2448 133.298 88.6184 135.738 89.1527L135.633 89.6292C133.215 89.0998 130.764 88.7293 128.297 88.52C125.412 88.271 122.511 88.2575 119.623 88.4795L119.625 88.4786ZM100.135 63.4389C103.796 57.9363 106.69 51.8934 109.494 46.0016C111.761 41.2401 114.106 36.316 116.837 31.7222L117.253 31.9711C114.532 36.5465 112.193 41.4599 109.932 46.2109C107.092 52.1778 104.16 58.3008 100.427 63.8743C100.329 63.73 100.231 63.5851 100.133 63.4398L100.135 63.4389ZM124.58 53.5863C124.539 53.5833 124.497 53.5863 124.455 53.5863C124.789 52.319 125.111 51.0552 125.421 49.8197L126.956 43.6855L127.427 43.8031L125.892 49.9373C125.6 51.1008 125.3 52.2868 124.988 53.4791C124.852 53.5169 124.71 53.5464 124.579 53.5872L124.58 53.5863ZM115.547 51.8788C115.187 53.0104 114.815 54.1795 114.394 55.3143C114.074 56.1749 113.722 57.023 113.338 57.8586C113.1 57.9777 112.864 58.0968 112.629 58.2159C113.11 57.2103 113.551 56.1862 113.938 55.1422C114.354 54.0193 114.725 52.8556 115.084 51.7297C115.389 50.7708 115.704 49.778 116.049 48.8114C117.858 43.7227 120.572 39.0037 124.06 34.8825L124.431 35.1976C120.98 39.2738 118.295 43.9415 116.506 48.9749C116.165 49.9373 115.851 50.9236 115.547 51.8788ZM99.0233 61.7889C102.681 56.6813 105.797 51.2064 108.322 45.4528C109.316 43.1629 110.226 40.7809 111.107 38.4779C113.028 33.4579 115.013 28.2659 117.987 23.683L118.394 23.949C115.448 28.4883 113.473 33.6551 111.561 38.6521C110.678 40.9602 109.766 43.3469 108.768 45.646C106.205 51.487 103.035 57.0423 99.3125 62.2204L99.0233 61.7889ZM121.033 54.485C123.67 49.4176 125.327 43.8977 125.919 38.215L126.403 38.2632C125.823 43.8385 124.227 49.2601 121.692 54.2584C121.472 54.3287 121.252 54.4088 121.033 54.485ZM113.312 51.0862C112.103 54.1313 110.721 57.1052 109.174 59.9933L108.399 60.3909C110.085 57.3254 111.575 54.1566 112.862 50.9033C113.516 49.2974 114.146 47.6781 114.777 46.0594C116.801 40.8572 118.895 35.4778 121.79 30.5972L122.206 30.8464C119.332 35.6919 117.245 41.0525 115.227 46.2356C114.598 47.8568 113.966 49.4785 113.312 51.0862ZM122.004 39.5937L122.487 39.6517C121.772 45.3459 120.036 50.8643 117.364 55.942C117.131 56.0457 116.897 56.1442 116.664 56.2505C119.462 51.0781 121.273 45.43 122.004 39.5937ZM104.168 62.7216C103.855 62.9142 103.547 63.1126 103.242 63.3171C105.932 58.871 108.1 54.0797 110.205 49.3894C112.794 43.6262 115.469 37.6668 119.108 32.4062L119.506 32.6834C115.894 37.9071 113.227 43.8463 110.648 49.5892C108.669 53.9943 106.639 58.4955 104.168 62.7216ZM98.3875 60.8393C98.2899 60.6931 98.1914 60.5472 98.0938 60.4013C100.227 57.1675 102.102 53.7703 103.701 50.2414C107.052 42.9261 109.451 35.1109 111.773 27.5542L112.238 27.6977C109.911 35.2699 107.507 43.0994 104.142 50.4436C102.506 54.0576 100.581 57.5347 98.3875 60.8393ZM95.7268 36.88C92.8639 40.3857 90.8083 44.4799 89.7063 48.8713C89.5832 48.7248 89.4579 48.578 89.3285 48.4282C90.4638 44.0894 92.5181 40.0457 95.3523 36.5715C96.5783 35.0793 97.962 33.6866 99.2991 32.3395C101.149 30.4748 103.063 28.5464 104.561 26.3526L104.962 26.6269C103.439 28.8582 101.509 30.8021 99.643 32.6819C98.3134 34.0204 96.9389 35.4066 95.7268 36.88ZM91.3558 37.7317C91.4887 37.556 91.606 37.3791 91.7425 37.2034C95.0598 32.9452 99.2268 29.1268 102.575 26.0596L102.902 26.417C99.568 29.4722 95.4171 33.2748 92.1248 37.5009C91.8449 37.8603 91.5973 38.2212 91.3337 38.5815C91.3543 38.2977 91.3561 38.0154 91.3558 37.7317ZM90.739 34.2015C93.2007 31.4022 95.915 28.836 98.8474 26.5355L99.15 26.9154C96.1707 29.2501 93.42 31.8631 90.9351 34.719C90.883 34.5436 90.803 34.3745 90.739 34.2015ZM99.9093 39.9939C96.811 43.9859 94.8813 48.8284 93.3527 53.5607C93.2337 53.3993 93.1188 53.2364 93.0001 53.0756C94.5249 48.4091 96.4548 43.6524 99.5267 39.6952C100.273 38.7331 101.1 37.8002 101.9 36.8961C103.765 34.7899 105.695 32.6117 106.676 29.9727L107.131 30.1434C106.12 32.866 104.158 35.0788 102.262 37.2192C101.468 38.1155 100.646 39.0443 99.9093 39.9939ZM99.9768 34.8703C96.4364 40.0037 93.9813 45.7565 91.88 51.5948C91.761 51.4414 91.6479 51.2863 91.5289 51.1335C93.6175 45.3661 96.0645 39.686 99.5763 34.5946C101.945 31.1591 104.785 28.0291 107.532 25.001L109.2 23.1616L109.559 23.4892L107.891 25.3289C105.155 28.3433 102.327 31.4622 99.9768 34.8703ZM97.5902 51.5757C96.9356 53.2588 96.2653 54.9582 95.534 56.6272C95.426 56.4709 95.3154 56.3161 95.2068 56.16C95.8887 54.5854 96.5194 52.9854 97.1373 51.3991C97.5161 50.4269 97.8939 49.4567 98.2831 48.497C101.336 40.966 105.236 33.8077 109.907 27.1605L110.304 27.4413C105.654 34.0582 101.772 41.1838 98.7332 48.6801C98.3443 49.6395 97.9683 50.6064 97.5902 51.5757ZM97.2313 59.1173C97.129 58.9654 97.0267 58.8123 96.9243 58.6608C97.3602 57.8094 97.7606 56.9393 98.1545 56.0784L107.056 36.6335L107.497 36.8357L98.5955 56.2806C98.1757 57.199 97.7315 58.1638 97.2313 59.1173ZM54.6236 23.6366C54.9303 25.6067 55.5893 27.5408 56.2269 29.4108L56.3935 29.8986C57.3812 32.8073 58.3134 35.7744 59.1628 38.7176C59.8095 40.9593 60.3626 43.0616 60.7925 45.0919C60.6402 45.1648 60.4929 45.2455 60.3439 45.3235C59.9128 43.265 59.3544 41.1323 58.6963 38.8525C57.8489 35.9167 56.9198 32.9565 55.9333 30.0546L55.7675 29.5675C55.1234 27.6775 54.4567 25.7231 54.1434 23.711C53.7322 21.0575 53.9352 18.351 54.1318 15.7353L54.6162 15.7723C54.421 18.3608 54.2205 21.0385 54.6236 23.6366ZM55.6717 49.0902C53.5921 39.7065 51.4515 30.0058 51.1013 20.2139L51.5863 20.1958C51.9311 29.8286 54.0205 39.3912 56.0725 48.6503C55.9374 48.7942 55.8044 48.9407 55.6717 49.0902ZM62.3286 44.4609C62.1718 44.5154 62.0186 44.5773 61.8642 44.6369C61.2718 41.2228 60.3766 37.8389 59.4909 34.5142C57.8933 28.5193 56.2409 22.3207 56.417 16.0611C56.4399 15.2491 56.4938 14.4233 56.5464 13.6271C56.6752 11.6516 56.8091 9.60703 56.4729 7.64645L56.9513 7.56397C57.2971 9.58351 57.1614 11.6555 57.0302 13.6586C56.9784 14.4525 56.9252 15.2723 56.902 16.0745C56.7282 22.2641 58.3708 28.4279 59.9598 34.3879C60.8413 37.6953 61.733 41.0602 62.3286 44.4609ZM58.1893 20.5844L58.6748 20.6174C58.3886 24.7771 59.8 28.8626 61.165 32.8144C62.4949 36.665 63.6977 40.2443 64.6376 43.8463C64.4775 43.876 64.3187 43.9058 64.1595 43.9404C63.2247 40.3634 62.0287 36.8035 60.7063 32.9729C59.3255 28.9758 57.8971 24.8426 58.1893 20.5844ZM53.654 29.5755L54.1381 29.5392C54.4597 33.8891 55.8732 38.1283 57.2396 42.2278C57.6981 43.603 58.1619 44.9972 58.5897 46.406C58.4919 46.4777 58.3836 46.537 58.2881 46.6114C58.2497 46.6412 58.2107 46.6755 58.172 46.7061C57.7329 45.247 57.2536 43.8049 56.7788 42.3821C55.4034 38.2537 53.9807 33.9853 53.654 29.5755ZM49.4293 37.8153C49.2188 40.3811 49.6346 42.9596 50.6408 45.3289C50.7488 45.6294 50.8577 45.9289 50.9621 46.2294C51.6128 48.1021 52.1281 50.0475 52.6264 51.9333L52.9316 53.086C52.8177 53.3162 52.713 53.5479 52.613 53.7811L52.1557 52.0539C51.661 50.1818 51.1483 48.2451 50.5027 46.3905C50.3998 46.0927 50.2915 45.7928 50.1838 45.4954C49.1586 43.0705 48.7332 40.4339 48.9438 37.8094C48.976 36.7778 48.9546 35.7452 48.8798 34.7158L49.3639 34.6717C49.4403 35.7177 49.4619 36.767 49.4293 37.8153ZM49.0312 26.135L49.5126 26.0706L49.8818 28.8477L54.4558 50.5987C54.3252 50.7774 54.1976 50.9578 54.0732 51.1412L49.4844 29.3179L49.4546 29.3233L49.3118 28.5008L49.3439 28.4946L49.0312 26.135ZM70.3486 43.8954C69.7152 36.7175 68.486 29.6048 66.6738 22.631L67.1429 22.5083C68.9736 29.5541 70.2111 36.741 70.8422 43.9937C70.6801 43.9535 70.5129 43.9296 70.3486 43.8954ZM63.4371 32.7174C64.1717 34.5207 64.93 36.3854 65.5638 38.2528C66.1496 40.0086 66.6359 41.7961 67.0201 43.6068C66.8552 43.6113 66.6907 43.614 66.5262 43.6241C66.149 41.8606 65.674 40.1195 65.1035 38.4088C64.4749 36.5557 63.7186 34.6976 62.9882 32.8999C61.4027 29.0053 59.7643 24.979 59.313 20.7288C59.169 19.0847 59.114 17.4339 59.1485 15.7839L59.1657 10.0421L59.6516 10.0439L59.6343 15.7856C59.5998 17.4176 59.6535 19.0502 59.7953 20.6764C60.2392 24.8593 61.8651 28.8546 63.4371 32.7174ZM66.9746 35.8396C67.7556 38.4086 68.3815 41.0224 68.8489 43.6667C68.6831 43.651 68.5169 43.6381 68.3503 43.628C67.8868 41.0437 67.2722 38.489 66.5095 35.9769C66.093 34.5621 65.6503 33.1548 65.2076 31.746C64.1857 28.4895 63.1283 25.1222 62.408 21.7228C61.8625 19.1444 61.5029 16.5301 61.3322 13.9001L61.8172 13.868C61.9858 16.4749 62.3422 19.0662 62.8835 21.6218C63.5975 24.9983 64.6519 28.3546 65.6712 31.6007C66.1139 33.0113 66.5569 34.423 66.9746 35.8396ZM80.4254 40.9638C80.2767 42.0587 80.1279 43.1727 79.9271 44.2813C79.7668 44.2515 79.6073 44.2232 79.4484 44.1964C79.6462 43.0962 79.7974 41.9881 79.9444 40.8983C80.1529 39.0812 80.4676 37.278 80.8866 35.4977C81.6875 32.3945 83.111 29.4867 85.0702 26.9515L85.4528 27.2493C83.5347 29.7316 82.1411 32.5785 81.3566 35.6168C80.9427 37.3795 80.6318 39.1649 80.4254 40.9638ZM84.6079 31.657C83.964 33.3904 83.6752 35.2571 83.3961 37.0637L82.212 44.7322C82.054 44.6982 81.8954 44.6643 81.736 44.6321L82.9159 36.9887C83.1992 35.1589 83.4916 33.2665 84.153 31.4867C84.7333 30.0497 85.432 28.6635 86.2418 27.3425L87.7561 24.716L88.1768 24.9599L86.6574 27.5941C85.8631 28.8893 85.1776 30.2483 84.6079 31.657ZM77.112 43.9818C78.2763 40.4029 79.2509 36.7649 80.0315 33.083L80.5075 33.1843C79.7342 36.8319 78.7719 40.4369 77.6243 43.9844C77.453 43.9758 77.2825 43.9791 77.112 43.9818ZM85.8357 32.1105C85.5306 36.506 84.9076 40.8735 83.9718 45.1788C83.8174 45.1318 83.6609 45.0895 83.5044 45.0457C84.4312 40.7727 85.0478 36.4381 85.3493 32.0759L85.8357 32.1105ZM85.34 45.6922C85.9282 42.6137 86.3172 39.5004 86.5045 36.3717L86.5393 35.7303C86.5713 34.2777 86.7439 32.8317 87.0546 31.4125C87.3258 30.4362 87.6615 29.4791 88.0593 28.5473C88.6514 27.0694 89.2122 25.6737 89.288 24.1565L89.7733 24.1818C89.6924 25.7791 89.089 27.2787 88.5098 28.7283C88.1202 29.6401 87.7913 30.5767 87.5253 31.5319C87.2228 32.9206 87.0551 34.3352 87.0243 35.7562L86.9883 36.3967C86.7981 39.5907 86.3992 42.7687 85.7941 45.9105C85.645 45.8339 85.4936 45.7598 85.34 45.6907V45.6922ZM87.2471 46.8723C87.6741 45.256 87.9862 43.6114 88.181 41.9509C88.5868 38.8276 88.832 35.6854 88.9159 32.5369L89.4008 32.55C89.3166 35.7153 89.0703 38.8743 88.6627 42.0143C88.4579 43.7817 88.1185 45.5309 87.6476 47.2466C87.5155 47.1168 87.3843 46.986 87.2471 46.8702V46.8723ZM68.272 14.7994C68.1798 15.2854 68.1033 15.777 68.0203 16.2666C67.9071 15.9952 67.7896 15.724 67.6681 15.453C67.7127 15.2053 67.749 14.9545 67.796 14.7086C68.125 12.977 68.5365 11.1394 69.3085 9.44177C70.1297 7.63514 71.3316 6.03577 72.4958 4.48881L72.8841 4.78123C71.7363 6.30764 70.5495 7.88587 69.7498 9.64396C69.0012 11.294 68.5975 13.0973 68.272 14.7994ZM68.84 18.4341C69.098 14.8617 69.9028 11.3503 71.2263 8.02255L71.6768 8.2036C70.2149 11.8732 69.3929 15.7667 69.2467 19.7145C69.1199 19.2873 68.9848 18.8605 68.8412 18.4341H68.84ZM71.9787 12.3034C70.9481 15.6892 70.9336 19.3271 70.9196 22.8463C70.9136 24.2336 70.9044 25.6424 70.8375 27.0503C70.7087 26.2467 70.5699 25.4461 70.4209 24.6484C70.4281 24.0446 70.4323 23.4422 70.4343 22.8445C70.4489 19.2899 70.4641 15.6162 71.5143 12.1617C71.6283 11.7871 71.7544 11.4154 71.88 11.0441C72.1867 10.2162 72.4229 9.36378 72.5863 8.49603L73.0658 8.57285C72.8983 9.46741 72.6556 10.3462 72.3402 11.1999C72.2164 11.567 72.0924 11.9333 71.9799 12.3034H71.9787ZM75.1621 5.83447C75.1865 7.81917 74.8961 9.81518 74.6156 11.7451C74.2913 13.9757 73.9563 16.2821 74.1158 18.5484C74.1898 19.5814 74.3669 20.6258 74.5394 21.6352C74.623 22.1295 74.7072 22.6242 74.7795 23.1206C75.6392 29.1451 74.8858 35.29 72.5964 40.9277C72.5725 40.6543 72.5111 40.3855 72.414 40.1288C74.4718 34.7351 75.1208 28.905 74.2993 23.1902C74.227 22.698 74.1437 22.2076 74.0613 21.7162C73.8876 20.6954 73.7082 19.6386 73.6332 18.5821C73.4696 16.2636 73.8087 13.9308 74.1366 11.6736C74.4136 9.76248 74.7019 7.78522 74.6772 5.83894L75.1621 5.83447ZM72.9373 21.422C72.948 21.8541 72.9647 22.2856 72.9822 22.7176C73.0147 23.5514 73.0474 24.4111 73.0361 25.2607C72.9734 27.1979 72.7946 29.1296 72.5006 31.0453L72.0237 34.6553C71.9912 34.5145 71.9713 34.3724 71.9344 34.2319C71.8689 33.8388 71.8059 33.4467 71.7452 33.0556L72.0201 30.9819C72.3107 29.0851 72.4877 27.1727 72.5503 25.2547C72.5622 24.4174 72.5288 23.563 72.4967 22.7364C72.4794 22.3028 72.4628 21.8684 72.4518 21.4342C72.3849 18.0852 72.6066 14.7367 73.1143 11.4259L73.5939 11.4964C73.0912 14.78 72.8713 18.1008 72.9373 21.422ZM72.6398 43.2909C72.6514 43.2016 72.655 43.1122 72.6603 43.0229C72.7755 42.7984 72.8954 42.5738 73.0063 42.3505C73.837 40.6856 74.6813 38.9856 75.3546 37.2237C75.0107 38.0708 74.6227 38.9275 74.2119 39.8143C73.7655 40.82 73.2522 41.7944 72.6752 42.7311C72.6826 42.4273 72.6713 42.1236 72.6541 41.8172C73.0706 41.0751 73.444 40.3194 73.7721 39.6107C74.8533 37.2743 75.7756 35.1553 76.1252 32.8871C76.5045 30.4233 76.1713 27.8719 75.8497 25.4039C75.5224 22.905 75.185 20.3211 75.573 17.7897C75.7568 16.736 76.002 15.694 76.3073 14.669C76.6833 13.3123 77.0713 11.9095 77.1418 10.4959L77.6273 10.5212C77.5538 11.9881 77.1578 13.4171 76.7749 14.7997C76.4746 15.8063 76.2337 16.8298 76.0535 17.8647C75.6756 20.3271 76.0086 22.8755 76.3305 25.3417C76.5944 27.078 76.7427 28.8299 76.7743 30.5859C76.8276 29.7691 76.86 28.9517 76.8877 28.1441C76.9293 26.9804 76.971 25.7776 76.9174 24.6005C76.9055 24.3164 76.8877 24.0318 76.8698 23.7483C76.7857 22.8403 76.7846 21.9264 76.8666 21.0182C76.9665 20.3311 77.113 19.6516 77.3051 18.9844C77.5848 17.9207 77.8496 16.9157 77.7484 15.8812L78.2313 15.8333C78.3408 16.9553 78.0528 18.0503 77.7743 19.1089C77.588 19.7545 77.446 20.4122 77.3491 21.0772C77.2712 21.9557 77.2729 22.8394 77.3542 23.7176C77.3724 24.0052 77.3902 24.2926 77.4036 24.5791C77.4554 25.7761 77.4128 26.9911 77.3721 28.17C77.3559 30.0532 77.1897 31.9321 76.8749 33.7888C76.2573 36.9178 74.8256 39.7896 73.4407 42.5679C73.2435 42.9639 73.0397 43.3642 72.8275 43.762L72.5895 43.7161C72.6101 43.575 72.6306 43.4332 72.6416 43.2909H72.6398ZM43.3553 60.482C46.0712 63.7707 48.5763 67.2283 50.8556 70.834C50.8853 71.2026 50.9151 71.571 50.955 71.9387C49.2691 69.1769 47.4379 66.5066 45.4691 63.9392C47.4068 67.1537 49.2865 70.3909 51.1489 73.6087C51.2046 74.0327 51.2608 74.4556 51.3218 74.8748L51.0189 74.3513C48.4008 69.8272 45.7529 65.2563 42.9614 60.7682C38.9801 55.901 34.6557 51.2988 30.4033 46.774C26.2191 42.3231 21.8945 37.7215 17.9673 32.9481L18.3422 32.6379C22.2568 37.4002 26.5773 41.9959 30.7562 46.4405C34.2005 50.1047 37.6897 53.8225 41.0103 57.6897C35.2314 48.7358 28.7411 40.2422 20.5527 33.2828C19.8413 32.6778 19.1169 32.0849 18.3927 31.4923C16.0906 29.6074 13.7102 27.6587 11.7719 25.3283L12.1453 25.0177C14.0526 27.3106 16.4155 29.2438 18.6989 31.1138C19.4266 31.7094 20.1534 32.3049 20.8672 32.9106C30.0329 40.6996 37.07 50.3822 43.3571 60.482H43.3553ZM50.7071 68.3359C48.8328 65.848 46.9793 63.3231 45.1704 60.8045C46.4396 62.9485 47.7454 65.0833 49.122 67.1308C49.3847 67.5209 49.6513 67.911 49.9169 68.3002C50.1826 68.6894 50.4548 69.0902 50.7229 69.4889C50.7348 69.5657 50.736 69.6405 50.755 69.7182C50.7708 69.9913 50.8077 70.2634 50.8285 70.5365C50.3965 69.8742 49.9571 69.2191 49.5168 68.5753C49.2492 68.185 48.9835 67.7941 48.7197 67.4024C46.3762 63.9184 44.2273 60.1925 42.1513 56.5879C35.2951 46.9994 28.1735 37.1578 19.4763 29.0097L19.808 28.6551C27.3107 35.6827 33.6323 43.9552 39.6224 52.2392C35.8684 45.889 31.768 39.6509 26.2278 34.7968L26.547 34.4308C33.4023 40.4379 38.0548 48.5092 42.5532 56.3152V56.317C42.7722 56.6237 42.9938 56.9319 43.2125 57.238C45.6417 60.6371 48.1402 64.1244 50.6952 67.5304C50.6991 67.799 50.7036 68.0673 50.7089 68.3359H50.7071ZM21.6074 40.0934C16.3587 34.8965 10.9317 29.5222 8.2294 22.6137L8.68162 22.4351C11.3464 29.25 16.7359 34.5868 21.9489 39.7479C22.5983 40.3905 23.2441 41.0326 23.8863 41.6743C34.45 52.263 43.765 64.0297 51.6488 76.7437C51.8091 77.5587 51.9882 78.3639 52.1962 79.1533C51.1594 77.5176 50.0342 75.934 48.8486 74.3924C50.198 76.9218 51.3859 79.5343 52.405 82.2142C52.207 82.0185 51.9694 81.8675 51.7083 81.7714C50.3875 78.4112 48.8072 75.1591 46.9817 72.0447C45.2561 69.9418 43.4573 67.8991 41.6767 65.884C38.6936 62.5084 35.6101 59.019 32.956 55.3194L33.3496 55.0356C35.9895 58.715 39.0654 62.1957 42.0403 65.5612C43.1292 66.7928 44.2228 68.0372 45.3055 69.2962C41.1584 62.8151 35.7913 56.434 29.2335 50.2125C28.5656 49.5797 27.8906 48.9517 27.2149 48.3228C23.7953 45.1398 20.2593 41.8479 17.6894 37.8627L18.0976 37.5989C20.6342 41.534 24.1469 44.803 27.5451 47.9663C28.2217 48.5958 28.8982 49.225 29.5667 49.8602C37.0709 56.9771 43.0218 64.3093 47.38 71.7633C48.3644 72.9636 49.316 74.1892 50.2347 75.4403C42.5891 63.3536 33.6388 52.145 23.5454 42.0164C22.9051 41.3758 22.2597 40.7348 21.6092 40.0934H21.6074ZM110.169 69.0375C107.729 69.5437 105.228 70.063 102.837 70.8837C102.797 70.7262 102.744 70.5725 102.678 70.4242C105.096 69.5952 107.614 69.0726 110.069 68.5631L125.774 65.3027C127.698 64.9031 129.877 64.4517 131.967 64.8942L131.866 65.3706C129.877 64.949 127.749 65.3903 125.874 65.7789L110.169 69.0375ZM115.606 69.237C111.35 70.3001 107.185 71.6951 103.147 73.4095C103.134 73.2385 103.118 73.0715 103.102 72.9032C107.119 71.2046 111.261 69.8207 115.492 68.7641C118.83 67.9634 122.27 67.4295 125.597 66.9119L138.836 64.8552L138.91 65.3364L125.671 67.3928C122.355 67.9071 118.925 68.4398 115.606 69.237ZM132.259 67.3759L132.415 67.8374C128.584 69.1429 124.563 70.1056 120.673 71.0353C114.788 72.4438 108.728 73.9044 103.243 76.5805C103.247 76.3974 103.245 76.2148 103.246 76.032C108.72 73.4005 114.727 71.9581 120.561 70.5627C124.44 69.6348 128.451 68.6754 132.261 67.3759H132.259ZM112.89 80.4085C121.055 75.9936 129.777 72.6984 138.82 70.6115L138.929 71.0862C130.207 73.0994 121.784 76.2427 113.874 80.4365C113.544 80.4219 113.216 80.4111 112.89 80.4085ZM105.631 81.5576C113.911 76.6722 121.597 73.2344 129.022 71.0924L129.157 71.56C122.3 73.5375 115.213 76.6413 107.639 80.9644C106.959 81.1275 106.288 81.3255 105.629 81.5576H105.631ZM108.203 80.8548C112.401 78.9514 116.654 77.1493 120.844 75.3962C122.372 74.7575 123.952 74.0967 125.534 73.4818C131.51 71.1591 137.693 69.4116 143.999 68.2633L144.086 68.7418C137.81 69.8852 131.657 71.6239 125.71 73.9344C124.133 74.5482 122.557 75.2075 120.982 75.8655C117.36 77.3806 113.671 78.9362 110.008 80.5663C109.397 80.6377 108.794 80.7339 108.201 80.8548H108.203ZM138.012 68.0423C129.98 69.6741 122.31 72.2958 114.505 75.0657C110.955 76.3259 106.784 77.8178 102.911 79.9416C102.948 79.7435 102.974 79.5416 103.005 79.3409C106.816 77.2937 110.873 75.8382 114.343 74.6062C122.165 71.8304 129.853 69.2036 137.916 67.5649C138.763 67.3925 139.614 67.232 140.466 67.0698C144.002 66.3997 147.66 65.7068 150.961 64.2004L151.162 64.642C147.807 66.1737 144.121 66.872 140.557 67.548C139.707 67.7088 138.857 67.8699 138.012 68.0423ZM71.0552 119.288C69.4686 118.648 68.034 117.469 66.5405 115.573C63.5462 111.749 61.7509 107.122 61.381 102.278C61.2407 100.959 61.3455 99.6255 61.6901 98.3449C62.333 96.2521 63.9018 94.6524 65.1957 93.4941C66.2802 92.5248 67.7511 91.3453 69.518 90.8289C71.4036 90.2786 73.4452 90.5365 75.0848 90.7429C81.1418 91.5106 87.3976 92.6436 91.5349 97.2434C92.6934 98.5313 95.1023 101.211 95.2309 103.81C95.3481 106.205 93.6112 108.755 92.2947 110.466C90.3957 112.936 87.7207 115.085 84.1182 117.036C80.7206 118.878 77.8504 119.786 75.0863 119.898C74.0463 119.951 73.0042 119.849 71.9939 119.597C71.6748 119.514 71.3613 119.411 71.0552 119.288ZM74.9637 91.7089C72.9909 91.4593 71.3572 91.3045 69.7896 91.7622C68.2104 92.224 66.8511 93.3187 65.8431 94.2198C64.6418 95.2944 63.1902 96.7676 62.619 98.632C62.3108 99.7964 62.2192 101.008 62.3488 102.205C62.7042 106.856 64.4277 111.298 67.3021 114.969C68.6867 116.726 69.994 117.812 71.4167 118.385C72.576 118.818 73.8134 119.002 75.0485 118.925C77.6586 118.82 80.393 117.948 83.6555 116.18C87.1364 114.295 89.7111 112.232 91.5268 109.872C92.7484 108.283 94.363 105.931 94.2616 103.858C94.1494 101.605 91.8969 99.0989 90.814 97.8944C88.461 95.2775 85.3314 93.8392 81.9338 92.9477C79.6397 92.3841 77.3114 91.9703 74.9637 91.7089Z" fill="white"/>
</g>
<defs>
<clipPath id="clip0">
<rect width="163" height="277" fill="white"/>
</clipPath>
</defs>
</svg>
