<svg xmlns="http://www.w3.org/2000/svg" width="332" height="436" fill="none"  ><g clip-path="url(#A)"><g opacity=".5" fill="#cb72d9"><path opacity=".5" d="M125.954 162.23l1.199.428s.09-.043.047-.134c-.309-.185-.756-.194-1.246-.294.047-.133 0 0 0 0zm-31.351 78.082l1.663-9.091c.057-.58-.88-.689-.937-.109l-1.306 9.143c-.052.357.485.324.58.057zm-1.363 9.723l1.337.252c-.047.133-.005.223-.052.356.573 2.607-1.628 5.2-4.353 5.055-1.565-.032-2.845-.864-3.849-2.047-.158-1.032-.544-1.846-1.338-2.354-.086-.181-.219-.228-.442-.233l-.266-.095c-.357-.052-.585.167-.413.529.334 1.17 1.171 1.768 1.234 3.067.106 1.389-.326 2.811-1.419 3.773-.727.566-1.45.909-2.258 1.072l.557 1.174c.899-.205 1.893-.677 2.758-1.419s1.478-2.251 1.733-3.812c1.228 1.189 2.87 1.849 4.663 1.662 1.436-.239 2.658-.93 3.485-1.986-.057.58-.156 1.07-.08 1.698.191 1.569 1.282 2.934 2.742 3.679.885.466 1.913.532 2.988.464-.741 1.238-1.13 2.751-.672 4.415 1.039 3.823 6.03 4.776 9.487 4.131.257.542-2.107.225-2.33.221-.671-.014-1.389.105-2.022.406-1.488.595-2.676 1.823-3.198 3.289-.432 1.422-.327 2.811.364 4.033-1.642-.66-3.43-.697-5.147.118-2.078.986-3.418 3.061-3.778 5.335a3.74 3.74 0 0 0-1.223-1.412l2.272 4.788c.271-.129.499-.348.371-.619-1.66-6.296 6.157-10.117 10.166-4.935.262.319.714.104.723-.343l.4.143c.133.047.313-.039.404-.082-2.799 3.432-6.788 5.989-11.506 7.01l.815 1.717c1.574-.415 3.02-1.101 4.513-1.92.09-.043.181-.086.228-.219 6.182-2.602 10.701-9.174 11.152-15.919.731-9.423-5.131-18.042-13.923-21.175-6.57-2.417-13.799-1.089-19.29 2.734l.6 1.265c4.179-3.09 9.443-4.592 14.571-3.816zm16.569 16.489c.746 5.07-.601 9.694-3.315 13.306.095-.266-.033-.537-.39-.589-4.182-1.115-4.781-6.808-.544-8.376.495-.124 5.232.063 3.838-1.711.584-.166.555-.927-.025-.984-3.035-.331-7.482.562-8.564-3.352-.458-1.664.064-3.13.939-4.32 1.44-.462 2.534-1.424 2.875-2.803.228-.219.59-.391.818-.61 2.271 2.686 3.814 5.938 4.368 9.439zm-4.759-10.028c-.18.086-.451.214-.589.39l-.181.086c-.18.086-.318.262-.456.438-.77.476-1.455 1.133-2.049 1.747-.361.172-.723.343-1.127.424-1.84.32-3.834-.615-4.558-2.375s.254-3.662-.023-5.413c.052-.356.014-.67-.067-1.075a19.37 19.37 0 0 1 9.051 5.778zM5.226 86.032c.407 4.124.367 8.238-.253 12.296l1.243 2.62c.706-3.877 1.012-7.896.781-11.882 10.418 15.422 31.745 20.244 39.069 38.243-1.975-1.83-4.407-3.222-6.981-4.214.181-.086.366-.396.237-.667-3.381-5.258-9.604-7.175-14.776-10.144-5.924-3.387-11.017-8.054-15.064-13.55-.524-.637-1.389.106-1.089.738 1.02 2.615 1.145 5.212.824 7.8l.943 1.988c.541-2.36.724-4.772.328-7.24 3.494 4.098 7.492 7.624 12.042 10.446 5.477 3.378 11.971 5.167 16.203 10.353-2.308-.897-4.805-1.262-7.307-1.403l-.4-.142-.181.086c-.223-.005-.537.033-.761.029-1.023-.29-1.955-.622-2.969-1.359-1.323-.921-2.641-2.067-3.917-3.122l-8.538-6.795c-.352-.276-.985.024-.994.471.015 1.432-.326 2.812-.801 4.144l.772 1.626c.565-1.375 1.044-2.931 1.21-4.448 3.079 2.523 6.206 4.913 9.333 7.304 1.057.827 2.113 1.653 3.307 2.304-1.527.282-3.053.564-4.451 1.117-1.802.633-3.566 1.581-5.021 2.714l.686 1.446c1.364-1.09 2.948-1.952 4.617-2.634 11.95-4.675 26.158 2.64 28.041 15.472l-.09.043c-.095.266-.1.49.119.718l.043.09c-.009.447.752.418.804.061.09-.042.181-.085.228-.218 3.107-5.349 10.59-3.809 15.092-7.384 2.819-2.223 4.367-5.725 4.441-9.302 4.303 3.935 9.618 6.505 15.321 7.561 3.254.559 6.522.447 9.794.112 4.395-.536 10.083-.911 12.037 4.139.171.361.576.28.761-.029.352.276.89.242 1.037-.381 1.727-5.69 4.434-11.181 9.473-14.79 5.539-3.957 12.255-4.266 18.279-1.369 10.763 5.186 15.395 17.045 13.062 28.225a4.81 4.81 0 0 1-.503.571c-.276.352-.104.714.114.942l-.094.266c-.229.219-.233.443-.195.757-.052.356.167.585.481.546.176.138.4.143.537-.033 6.209-3.943 13.152-.043 19.522 1.251 6.013 1.242 10.754-.897 15.341-4.292-.928 5.975.019 12.167 2.815 17.592 1.762 3.481 4.523 6.266 6.285 9.747.948 1.763 1.492 3.609 1.631 5.535s-.302 3.796-.429 5.627c-.727.567-.127 1.832.734 1.312 7.469-4.319 16.574-3.327 22.637 1.987.082.404.343.722.748.641 1.708 1.735 3.232 3.779 4.209 6.304 2.044 5.007 3.019 11.961.769 17.014-1.078 2.393-2.818 4.325-4.91 5.982a29.67 29.67 0 0 1-3.627 2.386c-.68.433-2.435.934-3.029 1.548l-.09.043c-.043-.091-.129-.271-.219-.228-.314.038-.452.214-.59.39-.366.395-.38 1.066.244 1.213.399.142.889.242 1.289.384.129.271.438.457.752.418 6.419 3.263 7.305 12.362 11.761 17.553 4.37 5.01 10.993 7.07 17.311 8.72-2.858 1.91-5.672 3.909-8.139 6.408-2.376 2.457-4.091 5.373-5.587 8.519-3.282 7.313-5.631 14.958-13.181 18.873-.98-.199-1.103 1.409-.123 1.608.49.1.98.199 1.38.342.085.18.171.361.352.275.133.048.314-.038.537-.033 9.059 3.228 17.643 14.318 13.555 23.896-4.697 10.863-17.66 14.801-28.18 10.827l-.085-.18c-.339-.947-1.694-.304-1.446.686 2.021 6.125-.928 12.505-.966 18.722 0 6.531 3.742 11.617 8.031 16.223-8.039-.612-16.124 1.011-23.27 4.845-8.05 4.263-14.847 10.699-24.451 10.054-.262-.319-.524-.637-.876-.913s-.761.029-.546.481c.085.181.128.271.304.409-.537.034-.689.88-.156 1.07.267.095.623.147.89.242 4.405 7.65 3.209 17.959-5.554 22.117-3.885 1.844-7.904 1.538-11.725.251l1.115 2.349c4.048 1.068 8.253 1.065 12.143-1.003 1.041-.604 2.039-1.3 2.904-2.042 2.456 2.376 2.34 5.863 2.005 9.121l-.965 7.764c-1.838-2.006-4.136-3.351-6.477-4.786-1.547-.926-3.093-1.852-4.454-3.088-1.714-1.511-2.662-3.275-3.738-5.31-.215-.452-.842-.376-.942.114l2.23 4.698c1.18 1.322 2.546 2.334 3.869 3.256 3.265 2.214 6.9 3.809 9.428 7.037.347.499 1.07.157 1.17-.333.482-3.882 1.283-8.026 1.318-11.917.012-2.773-.651-5.336-2.897-7.037 1.141-1.095 2.196-2.37 2.851-3.788 4.007 9.61 2.511 19.286.207 29.124-3.951-3.66-8.9-6.624-13.164-10.246l1.157 2.439c4.008 3.08 8.333 5.897 11.884 9.414.262.319.933.333 1.032-.157 2.352-9.972 5.193-21.946-.836-31.15.656-1.418 1.178-2.883 1.477-4.353 9.204 13.563 3.426 29.145 2.043 44.191-4.013-4.958-8.535-9.122-13.418-13.114l1.372 2.891c1.014.737 1.98 1.607 2.946 2.476 3.337 3.066 6.398 6.484 9.14 10.163.348.499 1.204.204 1.26-.376.722-8.976 3.179-17.559 3.449-26.321.214-6.079-.632-12.761-3.97-17.929 4.302 3.935 9.94 6.019 15.972 6.367 9.028.365 17.735-3.214 25.346-7.933 6.252-3.853 12.123-8.742 16.009-15.014.314-.038.585-.167.899-.205.271-.128.233-.442-.081-.404-.133-.048-.314.038-.447-.009l1.207-2.123c3.177-6.599 3.956-14.053 2.986-21.23-.732-5.741-2.587-11.281-5.254-16.435.005-.223-.038-.314-.034-.537-.042-.091-.219-.228-.309-.186-.776-1.402-1.686-2.852-2.552-4.212 18.35 6.013 37.842-6.558 56.742-3.351.847.151 1.008-1.143.299-1.47-16.534-7.318-27.925-25.489-46.055-29.172 3.406-.288 6.735-1.204 9.849-2.571l.181-.086c4.47-2.01 8.425-5.105 11.766-8.794l.361-.171c.181-.086.186-.309.143-.4 3.165-3.826 5.583-8.294 6.844-13.099 3.055-11.523.397-23.655-6.388-33.054-.043-.09.005-.223-.081-.404-.038-.314-.305-.409-.528-.413-2.09-2.772-4.499-5.281-7.316-7.486-3.522-2.757-7.5-5.075-11.673-6.637-2.307-.897-4.796-1.709-7.336-2.164 16.922-9.358 20.629-33.034 35.456-44.941.727-.567-.101-1.612-.824-1.269-9.248 3.835-19.405 1.793-29.075 2.175-9.089.44-18.048 3.253-25.798 8.148 5.851-12.628 8.094-28.193 2.097-41.065-5.741-12.329-18.58-20.958-32.415-18.156-8.489 1.705-16.591 6.324-23.846 11.095-.309-.185-.485-.323-.795-.508-.575-.28-.95.562-.465.885.133.048.176.138.309.185-.409.305-.86.519-1.269.824.513-1.018.716-2.222.958-3.111.631-2.403.815-4.814.642-7.278-.251-5.194-1.758-10.235-3.673-14.971-4.641-11.412-12.336-22.261-11.67-35.085.062-.804-.961-1.093-1.332-.475-10.729 14.943-21.696 30.553-25.426 48.816-.043-.091-.038-.314-.081-.405.047-.133.004-.223-.039-.314-3.656-11.436-13.894-20.414-25.649-23.026-12.602-2.764-25.703 1.35-33.915 11.335-3.854 4.707-6.39 10.559-6.737 16.591-2.504-8.774-10.29-15.152-17.476-20.264-8.376-5.988-17.702-11.413-22.699-20.775-.704-.551-1.874-.218-1.759.724zm159.327 43.712c.567.727 1.228 1.188 1.476 2.177.339.947.273 1.974.031 2.864-2.444 1.381-4.759 3.033-6.946 4.956.356-2.05-.407-4.123-1.806-5.673l7.245-4.324zm-11.096 6.705c.09-.043.223.005.404-.081.86-.519 1.678-1.129 2.539-1.648 1.313 1.369 2.038 3.129 2.082 5.321l.129.271c-1.778 1.619-3.513 3.328-5.072 5.174.512-3.12.438-6.074-.082-9.037zm45.474 48.707c.807-2.264.595-5.042.104-7.244-.825-3.372-2.825-6.186-4.735-9.043-4.78-6.808-6.988-14.726-5.163-23.009.195-.756-.553-1.398-1.19-.874-3.047 2.442-6.365 5.013-10.446 5.511-3.362.378-6.564-.538-9.675-1.496-4.758-1.395-9.963-2.799-14.523-.746 4.596-5.944 10.419-10.7 17.285-13.959 6.276-2.868 13.738-4.638 20.485-2.084 12.736 4.914 17.048 21.464 15.587 33.78-.856 6.826-3.405 13.349-7.235 19.04-.404.081-.494.124-.494.124zm30.137 20.122c-.067-1.074-.177-2.24-.335-3.272-.793-4.936-2.847-9.497-6.131-12.919 4.511-4.022 11.375-2.852 17.125-4.031-1.972 2.374-3.283 5.21-4.46 8.094-.712 1.998-1.424 3.996-2.36 5.99-.194.756-2.445 5.809-3.839 6.138zm-.009.448c1.294.16 2.358-1.562 2.957-2.4 1.335-1.851 2.228-3.935 3.121-6.019 1.885-4.658 3.332-9.772 7.291-13.091.637-.523-.062-1.298-.738-1.088-6.491 2.416-14.716.01-20.097 4.999-.923-.779-1.847-1.559-2.908-2.162 9.88-6.238 21.496-5.552 32.658-6.754-4.635 3.528-7.694 8.743-10.216 13.925-1.819 3.63-3.505 7.308-5.857 10.749-2.029 2.955-4.853 5.402-6.925 8.267.579-2.046.801-4.143.714-6.426zm-7.029 80.818l-1.865-.665c5.954-2.382 8.917-9.434 11.267-14.977 1.553-3.725 3.153-7.584 5.857-10.749 2.932-3.384 6.65-5.812 10.368-8.241.409-.305.247-1.113-.243-1.213-7.698-1.992-16.104-4.312-20.291-11.734-2.59-4.526-4.207-10.732-8.481-13.906 12.204-1.807 25.112 3.468 32.601 13.418 4.399 5.771 6.707 13.199 6.065 20.477-.65 7.725-4.812 14.349-10.902 19.011-6.955 5.403-15.672 7.326-24.376 8.579zm7.681 4.989c-1.666-1.645-3.517-2.98-5.597-4.096a49.81 49.81 0 0 0 7.947-1.447c-.09.042-.138.176-.185.309-.251 1.337.749 2.744 1.715 3.614.528.413 1.057.826 1.632 1.107-1.84.32-3.724.549-5.512.513zm6.152 9.698c.133.048.176.138.4.143 5.894.524 10.99 2.865 15.568 6.448 4.183 3.217 8.319 6.568 12.455 9.918-6.075-.438-11.991.156-17.836 1.601-6.339 1.57-12.502 3.277-19.11 2.649 1.45-.909 2.815-1.999 4.093-3.27 2.998 2.119 7.558.066 10.573-.812 4.185-1.211 9.473-3.831 13.765-1.551.751.418 1.398-.553.693-1.104-5.668-4.947-11.917-9.951-19.69-10.469-.243-1.213-.577-2.383-.911-3.553zm-3.969 16.827c1.74-1.932 3.127-4.14 4.072-6.581a14.36 14.36 0 0 0 .824-5.261c6.298.442 11.547 4.039 16.339 8.074-2.321-.227-4.747.26-7.043 1.018s-4.504 1.473-6.886 2.05c-2.202.492-4.955 1.688-7.306.7zm-11.049 6.572c-.138.176-.1.49.167.585l.399.142.086.181c-.593 2.717-2.341 5.096-4.957 6.116a35.99 35.99 0 0 0-9.59-7.846c4.435 1.88 9.263 2.024 13.895.822zm-55.287 50.036c-.043-.091-.176-.138-.267-.095-.042-.091-.128-.271-.261-.319 7.496.87 14.675-4.529 20.746-8.296 8.382-5.195 18.003-7.547 27.864-6.36.714.104 1.179-.781.698-1.328-2.803-2.876-5.65-5.842-7.408-9.546-1.543-3.252-1.831-6.657-1.401-10.182.492-4.329 1.744-8.687 1.251-12.991 12.639 7.506 19.842 22.684 14.582 37.023-5.117 13.941-21.499 20.94-35.574 20.203-7.596-.379-14.652-3.119-20.23-8.109zm2.176 9.483c.183-2.412-.17-4.79-1.109-7.001 1.404 1.326 3.037 2.433 4.673 3.317-.154 3.172.676 6.321 2.456 8.907-2.388-1.302-4.411-2.998-6.02-5.223zm7.434 6.102c-1.91-2.858-2.787-5.873-2.675-9.136a28.39 28.39 0 0 0 6.527 2.326l-.047.134c-.559 3.253.447 6.539 2.546 8.864-2.093-.446-4.315-1.162-6.351-2.188zm15.689 2.738c-2.645.258-5.327.203-7.958-.209-2.275-2.462-3.196-5.567-2.723-9.002 2.184.403 4.505.63 6.741.676l-.048.133c.112 3.267 2.688 6.362 5.424 8.163-.404.081-.942.115-1.436.239zm2.558-.44c-1.323-.922-2.508-2.02-3.465-3.336-1.043-1.498-1.5-3.162-2.272-4.789 2.773.013 5.598-.332 8.337-.857-.047.133-.094.266-.052.357.611 2.92 2.62 5.287 5.328 6.327-2.525.977-5.136 1.773-7.876 2.298zm9.003-2.722c-2.708-1.04-4.631-3.227-5.332-6.104-.086-.18-.129-.271-.262-.318 2.292-.535 4.632-1.202 6.753-2.098l.542-.257.043.09c.886 2.568 3.133 4.269 5.625 4.857-2.31 1.429-4.797 2.72-7.369 3.83zm12.086-6.954c-1.227.915-2.406 1.696-3.675 2.519-2.541-.454-4.606-2.241-5.674-4.724l-.042-.09c2.482-1.067 4.926-2.448 7.06-4.015 0 0 .043.091-.047.133.238 1.437 2.051 2.458 3.298 2.752 1.066.38 2.141.313 3.22.022-1.279 1.27-2.643 2.361-4.14 3.403zm5.324-4.408c-.134-.047-.134-.047-.224-.004-1.308.509-2.649.482-3.891-.036a4.92 4.92 0 0 1-1.546-.926c-.395-.366-.786-.956-1.271-1.279-.043-.09-.133-.047-.133-.047 2.453-1.828 4.644-3.975 6.483-6.398 1.713 1.512 4.116 2.143 6.399 2.055-1.706 2.47-3.674 4.622-5.817 6.635zm9.18-13.544c-.76 2.132-1.786 4.168-2.988 6.067-.894-.018-1.874-.217-2.721-.369-1.38-.341-2.484-1.035-3.725-1.553.646-.97 1.339-2.074 1.81-3.183.607-1.285 1.172-2.66 1.604-4.082 2.303 1.121 5.085.686 6.996-.885-.16 1.294-.502 2.673-.976 4.005zm1.318-5.385c-1.916 1.795-4.474 2.234-6.868 1.156.584-2.269.991-4.676 1.085-7.045l.133.047c1.384.118 2.73-.078 4.038-.588.542-.257 1.041-.604 1.54-.952.228-.219.366-.395.504-.571.216 2.554.07 5.28-.432 7.953zm.498-8.981c-.637.524-1.588 1.086-2.311 1.429-1.174.557-2.43.711-3.724.55-.133-.048-.224-.005-.314.038-.001-2.102-.184-4.119-.589-6.14 2.326.003 4.503-1.473 5.662-3.462.663 2.563 1.06 5.031 1.276 7.585zm-1.567-8.665c-1.249 2.032-3.151 3.156-5.491 3.824-.081-.405-.162-.809-.334-1.17-.581-2.159-1.477-4.28-2.511-6.225l.091-.043c1.793-.186 3.381-1.272 4.393-2.638.413-.528.693-1.104.883-1.637 1.291 2.487 2.22 5.145 2.969 7.889zm-3.479-9.196c-.759 2.131-2.627 3.792-4.92 4.327-.18.086-.271.128-.318.262a28.17 28.17 0 0 0-3.257-4.764c2.482-1.067 4.407-3.309 4.909-5.982a88.37 88.37 0 0 1 3.586 6.157zm50.834-11.838c-18.09-1.266-35.696 8.749-53.76 4.039-.086-.181-.304-.409-.39-.589l-.043-.091-.043-.09c1.441-.463 2.796-1.106 4.108-1.839.043.09.129.271.262.318 6.004 1.689 12.215-.151 18.059-1.597 7.105-1.822 14.235-2.659 21.508-1.794.714.104.913-.876.427-1.199-5.149-4.087-10.113-8.483-15.491-12.351-4.407-3.222-9.464-5.249-15.001-5.721-.448-.009-.676.21-.728.567-.719-1.983-1.8-3.795-2.929-5.473-.433-.68-.957-1.317-1.481-1.954 18.652 2.218 29.89 19.133 45.502 27.774zm-39.729-30.071c-.98-.199-1.908-.754-2.608-1.529-.875-.913-1.033-1.945-1.548-3.029-.085-.181-.219-.228-.352-.276 2.069-.539 4.095-1.168 6.035-1.978-.138.176-.186.309-.057.58.81 1.94 2.343 3.538 4.203 4.426-1.849.767-3.785 1.353-5.673 1.806zm6.71-2.188c-1.994-.935-3.484-2.442-4.336-4.472-.086-.181-.262-.319-.353-.276 1.669-.681 3.296-1.453 4.789-2.272.444 2.335 3.051 3.865 5.463 4.048-1.769 1.172-3.623 2.162-5.563 2.972zm9.062-5.628c-.775.699-1.502 1.266-2.32 1.875-1.298.063-2.588-.321-3.644-1.148-1.014-.737-1.443-1.64-1.957-2.724 1.45-.91 2.767-1.867 4.084-2.824 1.257 1.95 3.469 3.113 5.705 3.159-.637.524-1.274 1.048-1.868 1.662zm6.425-7.92c-.628.077-1.341-.027-1.874-.217-1.066-.38-1.856-1.112-2.328-2.106-.3-.632-1.294-.161-.994.472.51 1.308 1.7 2.182 2.989 2.566a4.19 4.19 0 0 0 1.651.213c-.926 1.547-2.029 2.955-3.265 4.317-2.283.087-4.452-.987-5.619-2.979 3.052-2.666 5.489-5.926 7.132-9.694a5.1 5.1 0 0 0 1.942 1.292c.975.423 2.046.579 3.125.288-.802 2.042-1.647 3.992-2.759 5.848zm3.001-6.737c-.043-.091-.043-.091 0 0-.266-.095-.537.033-.761.029-.537.034-1.208.02-1.741-.17a6.44 6.44 0 0 1-1.461-.746c-.352-.275-.614-.594-.923-.779.518-1.242.859-2.622 1.11-3.958.147-.624.204-1.204.351-1.827.661.461 1.508.612 2.179.626a3.39 3.39 0 0 0 2.8-1.329c-.145 2.726-.738 5.442-1.554 8.154zm1.663-9.091c-.133-.048-.357-.052-.404.081-.642.747-1.588 1.086-2.482 1.067-.804-.061-1.332-.474-1.904-.978.184-2.412.144-4.828-.166-7.116 1.46.746 3.482.34 4.713-.798.216 2.554.341 5.151.243 7.744zm-2.237-15.21a35.04 35.04 0 0 1 1.746 6.477c-1.502 1.267-3.063 1.011-4.795.394-.32-1.841-.911-3.553-1.545-5.355a4.39 4.39 0 0 0 2.826-.345c.494-.124 1.264-.6 1.768-1.171zm-4.915-8.958c-.08 1.699-1.096 3.288-2.766 3.969-.361.172-.151.847.21.676 1.665-.458 2.9-1.819 3.38-3.375 1.257 1.949 2.424 3.941 3.319 6.062l.215.452c-.504.571-.875 1.189-1.554 1.623-.861.519-1.893.677-2.873.477-1.834-4.331-4.615-8.325-8.037-11.571 1.364-1.09 2.347-3.217 1.846-4.972 2.332 1.882 4.479 4.073 6.26 6.659zm-9.91-9.686l3.084 2.3c-.224-.005-.362.171-.366.395-.019.894.101 1.612-.141 2.502-.285.799-.746 1.461-1.34 2.075a39.58 39.58 0 0 0-6.434-4.695l.09-.043c.904-.429 1.636-1.219 1.968-2.151.237-.667.393-1.737-.04-2.417 1.061.604 2.075 1.34 3.179 2.034zm-9.826-5.078c1.998.712 3.992 1.648 5.938 2.717-.181.085-.228.219-.276.352-.052.357.077.628.249.989.081.404.029.761-.023 1.118-.195.756-.656 1.418-1.336 1.851-.18.086-.185.309-.099.49-.576-.28-1.152-.56-1.77-.931a33.38 33.38 0 0 0-3.459-1.458c1.055-1.275 1.728-3.587.776-5.128zm-1.199-.427c-.047.133-.005.223-.052.357.295.856.729 1.536.62 2.473s-.484 1.779-1.168 2.436c-2.222-.717-4.491-1.3-6.722-1.57 1.012-1.366 1.548-3.502 1.047-5.256 2.231.269 4.277.848 6.275 1.56zm-9.466-.821c.675-.21 1.308-.51 1.94-.81.167.585.377 1.26.363 1.931-.023 1.118-.446 2.093-1.002 3.021l-.047.133c-3.258-.335-6.569-.314-9.803.336.68-.434 1.269-.824 1.812-1.081 1.312-.734 2.491-1.515 3.584-2.476.775-.7 1.459-1.357 2.011-2.061.133.047.266.095.49.099s.404-.081.627-.076l-.451.214c-.319.262-.019.894.476.77zm13.353-44.635c7.648.023 15.369.897 22.744-1.053-13.147 12.88-17.156 33.821-33.454 43.327-.09.043-.133-.047-.224-.005-.133-.047-.266-.095-.447-.009l-2.012-.041a12.27 12.27 0 0 0 1.867-3.764c2.8-1.329 4.958-4.013 6.84-6.345 2.205-2.818 4.015-6.001 5.601-9.189 3.453-6.952 6.744-14.712 13.98-18.589.723-.343.342-1.38-.376-1.26-12.024 1.721-25.719-.082-36.249 7.351-.181.086-.185.309-.233.442-.133-.047-.176-.137-.266-.095-2.346-1.211-4.749-1.842-7.294-2.073 8.929-5.676 18.92-8.647 29.523-8.697zm-29.806 5.068c-.332.933-.755 1.908-1.087 2.84-.228.219-.323.486-.237.667-2.55-.008-5.109.431-7.453 1.322 1.426-1.894 2.585-3.883 3.568-6.01.609.818 1.808 1.245 2.698 1.487.58.057 1.161.114 1.788.037l.723-.343zm.328-.709c-.181.086-.49-.099-.804-.061-.538.033-1.075.067-1.565-.032-.58-.057-1.113-.247-1.599-.57-.442-.233-.704-.551-1.104-.694.751-1.684 1.415-3.549 1.899-5.328 1.404 1.326 3.502 1.548 5.304.914-.755 1.908-1.419 3.773-2.131 5.771zm2.245-6.932c-1.764.948-3.943.322-5.21-1.18.394-1.737.745-3.564.872-5.395 1.585 1.24 3.906 1.467 5.713.61-.356 2.05-.754 4.01-1.375 5.965zm2.217-12.121c-.127 1.831-.297 3.572-.648 5.399-1.94.81-4.123.407-5.704-1.056l-.042-.091c.075-1.474.107-3.039.091-4.471.748.642 1.951.845 2.755.906a6.35 6.35 0 0 0 1.884-.229c.855-.296.95-.562 1.545-1.176.137-.176-.034-.538-.262-.319-.362.172-1.261.377-1.532.506-.494.124-1.122.2-1.702.144-1.028-.066-1.775-.708-2.755-.907-.144-1.703-.331-3.496-.698-5.203 2.084.893 5.033 1.043 6.939-.305.183 2.017.222 4.433.129 6.802zm-.358-8.685c-.951.562-1.679 1.128-2.848 1.462-1.303.286-2.778.211-4.02-.306-.282-1.527-.787-3.058-1.249-4.499l-.086-.181c2.516-.529 5.626-1.673 6.171-4.256a35.55 35.55 0 0 1 2.032 7.78zm-2.623-9.492c-.091.043-.271.128-.319.262-.82 2.935-2.946 4.054-5.599 4.76-.553-1.398-1.239-2.843-1.882-4.198 2.615-1.02 4.73-3.795 4.742-6.568a35.83 35.83 0 0 1 3.058 5.744zm-4.234-7.289c-.047.133-.138.176-.052.357.159 3.134-1.104 5.837-3.905 7.166-1.252-2.173-2.776-4.217-4.528-6.042 1.227-.914 2.192-2.147 2.623-3.57.29-1.022.588-2.492.255-3.662 2.113 1.653 4.041 3.617 5.607 5.751zm-9.757-8.431l2.784 1.668c-.091.042-.048.133-.005.223-.056.58.201 1.123.277 1.75.029.761-.032 1.565-.226 2.322-.342 1.379-1.169 2.436-2.172 3.355-1.404-1.326-3.079-2.524-4.806-3.365-.4-.142-.752-.418-1.152-.56 1.293-1.942 1.98-4.924 1.042-7.136 1.379.342 2.797.997 4.258 1.743zm-15.96-2.609c.905 1.673 1.087 3.69.556 5.602-.095.267.39.59.576.281.28-.576.598-.838.702-1.551.1-.49.157-1.071.123-1.608a7.19 7.19 0 0 0-.701-2.877c2.958-.297 5.907-.147 8.89.54.243 1.213.668 2.34.64 3.681-.07 1.251-.407 2.407-1.101 3.511-5.238-1.941-10.927-1.566-16.239.069.256-1.56.255-3.663-.479-4.975-.129-.271-.348-.499-.657-.684 2.568-.887 5.131-1.55 7.69-1.989zm-9.045 2.632c.038.314.524.637.709.328 0 0 .133.047.176.137.262.319.391.59.472.994l.243 1.213c.115.942.097 1.836.078 2.73-.361.172-.765.253-1.127.424-2.163.806-4.241 1.792-6.276 2.868.393-1.736.082-4.024-1.279-5.26 2.354-1.338 4.66-2.543 7.004-3.434zm-123.814 4.299c.266.095.576.28.709.327.799.285 1.603.347 2.455.275-.274 2.454-.191 4.961.253 7.296l.172.361c-.09.043-.047.133-.138.176a20.21 20.21 0 0 0-3.45-8.435zm61.015 4.251c.043.09.043.09 0 0-2.369-6.624-12.041-3.916-17.364-3.936-7.782-.07-15.276-3.266-20.664-8.789-.481-.547-1.384-.118-1.265.6.732 5.741-2.989 10.495-8.387 11.95-2.925.834-6.244 1.303-8.607 3.088-2.294-14.629 8.508-28.721 23.295-29.982 7.753-.691 15.574 1.796 21.509 6.838 1.276 1.055 2.503 2.243 3.593 3.608.043.09.043.09.176.138 1.529 1.82 2.876 3.727 3.953 5.762 1.852 3.437 2.492 7.118 3.76 10.723zm29.55-16.569c-3.854-1.824-8.045-2.492-11.997-1.723 1.315-3.06 3.425-5.611 5.359-8.299l5.104-6.739c-.152 7.377 7.962 13.046 7.226 20.59-1.714-1.511-3.656-2.803-5.692-3.829zm6.044 4.105c2.053-8.502-8.468-14.578-6.101-23.117.238-.666-.647-1.132-1.151-.56l-7.038 9.428c-2.024 2.732-4.001 5.33-5.273 8.48-.091.043-.048.133-.048.133-1.755.501-3.514 1.225-5.145 2.221l-.18.085c2.07-11.498 13.661-18.327 16.75-29.312 3.453 12.64 13.069 23.573 12.118 37.197-.953-1.541-2.352-3.09-3.932-4.554zm-6.669-45.539c.284 10.16 5.418 19.346 9.748 28.47 2.187 4.608 4.145 9.434 5.114 14.509.53 2.516.746 5.07.648 7.662-.113 1.161-.184 2.412-.43 3.525-.1.49-.412 2.631-.882 3.739-.62-2.473-1.778-4.912-3.121-7.042 2.629-14.752-9.29-26.806-12.001-40.683-.12-.718-1.062-.603-1.209.02-1.826 12.711-15.791 19.67-17.442 32.518-.005.224.038.314.081.404-1.816 1.305-3.37 2.928-4.705 4.779 3.364-17.868 13.789-33.22 24.199-47.901zm-26.565 45.482c.51 1.308.972 2.749 1.392 4.099-1.293 1.942-2.276 4.069-2.992 6.29-.207-3.001-1.394-6.201-2.899-9.14.922-1.323 2.948-1.952 4.499-1.249zm-4.577-8.011l.271-.129c1.476 2.177 2.814 4.531 3.882 7.013-1.689-.527-3.577-.074-4.68 1.335-1.124-1.902-2.385-3.627-3.652-5.129.323-.486.694-1.104 1.107-1.633.866-.742 1.859-1.214 3.072-1.457zm-6.074-6.969c2.156 1.744 4.036 3.84 5.645 6.065-1.66.234-3.875 1.397-4.802 2.943-.961-1.093-2.104-2.101-3.203-3.018.37-.619.608-1.285 1.021-1.813.689-.88 1.598-1.533 2.682-2.047.542-.257.113-1.161-.429-.904-1.175.558-2.173 1.253-3.043 2.219-.456.438-.917 1.1-1.197 1.675-1.894-1.425-3.883-2.584-6.01-3.568.109-.937.441-1.869 1.04-2.707.646-.971 1.64-1.442 2.196-2.37.138-.176.1-.49-.076-.628 2.255 1.254 4.33 2.594 6.177 4.153zm-6.401-4.157s-.09.042-.133-.048c-1.256.153-2.272 1.743-2.785 2.761a9.11 9.11 0 0 0-.726 2.669c-1.508-.613-2.974-1.135-4.486-1.524-.4-.142-.757-.194-1.246-.294-.472-.994-.629-2.026-.34-3.048.204-1.204 1.069-1.947 1.582-2.965.047-.133.095-.266-.081-.404 2.85.64 5.604 1.546 8.217 2.853zm-8.84-3c-1.174.557-1.749 2.379-1.862 3.54-.066 1.027.049 1.969.387 2.915-2.764-.459-5.58-.562-8.315-.26-.253-.765-.548-1.621-.62-2.473-.158-1.032.132-2.055.107-3.039.009-.447-.657-.685-.847-.152-.708 1.775-.173 4.067.641 5.784-2.511.306-4.851.973-7.062 1.912-.043-.09.047-.133-.086-.181-.609-.817-1.219-1.635-1.51-2.715-.338-.946-.23-1.883-.344-2.825-.043-.09-.129-.271-.262-.318 6.143-2.916 13.178-3.487 19.771-2.188zm-20.356 2.355c-.802 2.041.574 4.708 2.202 6.039-1.94.81-3.752 1.891-5.477 3.153-1.018-.513-1.951-.846-2.922-1.492-.838-.598-1.314-1.369-1.923-2.186 2.372-2.233 5.139-4.099 8.12-5.514zm-8.895 6.213c.905 1.674 3.246 3.109 5.03 3.369-2.001 1.614-3.784 3.456-5.304 5.617-.937-.109-1.779-.484-2.574-.993-.838-.598-1.224-1.411-1.971-2.053 1.43-2.118 3.036-4.098 4.819-5.94zm-5.332 6.958c.862 1.584 2.856 2.519 4.549 2.822-.185.31-.461.662-.603 1.062-.926 1.546-1.677 3.23-2.294 4.962-.989.248-2.059.092-2.897-.507-.662-.461-.962-1.093-1.352-1.682.583-2.27 1.39-4.534 2.597-6.657zm-3.033 8.303c.438.456.966.869 1.409 1.102.885.466 1.955.622 2.902.283-.527 1.689-.873 3.293-1.133 5.076l-.133-.047c-.718.119-1.341-.028-2.05-.355-.309-.186-.619-.371-.838-.599s-.305-.409-.661-.461c.08-1.698.159-3.396.505-4.999z"/><path opacity=".5" d="M29.012 136.62c11.134 4.568 22.272 8.912 32.47 15.473 4.987 3.279 9.789 6.866 13.997 11.068 1.052 1.05 2.147 2.191 3.108 3.284.086.181.305.409.391.59s.219.228.309.185c.7.775 1.266 1.502 1.966 2.277.176.138.305.409.481.547.171.361.433.68.605 1.041.043.09.176.138.219.228 1.043 1.498 2.038 3.129 3.404 4.141-.332.932 1.133 1.454 1.465.522 3.831-10.12 10.141-18.981 18.031-26.378 4.198-3.985 8.833-7.513 13.639-10.679 5.168-3.338 10.722-5.863 15.933-9.111 1.015 2.839 2.525 5.554 3.811 8.264l3.926 9.206c2.421 6.267 4.48 12.706 5.955 19.312 1.265 5.93 1.944 12.028 1.911 18.021-.013 2.773-.248 5.541-.575 8.353-.165 1.517-.464 2.987-.719 4.548-.104.713-.294 1.246-.308 1.917-.228.219-.59.39-.818.609-.546.481.063 1.299.695.998 2.706-1.062 5.288-2.619 8.127-3.635 2.748-.972 5.492-1.721 8.322-2.289 5.84-1.222 11.976-1.588 17.964-1.33 11.53.505 22.606 3.551 33.733 6.24-.09.043-.138.176-.228.219-1.444 2.788-2.226 6.037-3.404 8.921s-2.488 5.719-3.975 8.417c-2.888 5.576-6.261 10.83-9.987 15.808-3.816 5.021-7.984 9.766-12.59 14.055-4.335 4.16-9.103 7.641-13.785 11.302-.267-.095-.533-.19-.757-.194-.89-.242-1.455 1.133-.522 1.465 11.699 3.193 22.491 9.14 31.315 17.239 4.303 3.935 8.192 8.399 11.582 13.21 3.433 4.901 5.92 10.141 8.449 15.471-12.311 4.847-24.36 10.011-37.424 12.337a93.63 93.63 0 0 1-18.055 1.374c-5.68-.072-11.25-1.081-16.968-1.467-.043-.091-.085-.181-.219-.229-.609-.817-1.883.23-1.183 1.005 7.451 9.636 10.285 21.906 10.084 33.845-.239 11.625-3.327 22.61-6.24 33.733-4.644-2.556-9.383-4.845-14.17-7.001l1.072 2.258c4.206 2.1 8.37 4.109 12.671 5.942.176.137.357.052.537-.034.219.228.666.237.809-.162 2.753-7.727 5.025-16 6.185-24.52 4.645 4.658 11.908 3.868 17.505 1.433 8.169-3.544 15.255-11.003 24.859-10.358.581.057 1.089-.738.651-1.194-9.691-9.459 1.361-24.888-5.89-35.504 9.268-2.627 18.246-6.334 26.957-10.136.632-.3.427-1.199-.196-1.346-2.556-8.417-7.67-16.395-13.616-23.093 5.703-1.046 10.623-5.373 13.187-10.464 3.216-6.286 3.614-14.776 10.228-18.8.68-.434.474-1.333-.239-1.437-13.548-2.425-13.084-25.005-27.848-24.861 1.895-3.003 3.748-6.096 5.425-9.327 1.396-2.655 2.659-5.357 3.88-8.15 1.177-2.884 2.764-6.072 3.185-9.149.047-.134-.038-.314-.081-.405.361-.171.508-.794-.025-.984-8.973-3.047-18.364-5.343-27.825-6.387 1.941-5.239 1.747-11.013-.069-16.239-1.011-3.062-2.791-5.649-4.482-8.278-2.214-3.266-4.552-7.027-3.214-11.204.19-.533-.377-1.26-.966-.87-2.991 1.862-6.319 2.778-9.801 2.438-3.259-.335-6.228-1.693-9.159-2.738-4.662-1.661-10.585-2.946-14.73.682-.92-3.106-2.021-6.125-3.213-9.102-1.229-3.291-2.639-6.496-4.007-9.61-1.41-3.205-2.682-6.586-4.635-9.534-.39-.589-1.118-.023-1.041.605-5.811 1.983-11.34 5.493-16.418 8.788-3.309 2.124-6.489 4.518-9.494 7.051-1.235-5.169-7.354-7.8-12.078-8.658-6.731-1.122-14.046.025-20.185-3.814-.619-.371-1.165.11-1.089.738.394 4.794-9.157 5.895-12.357 7.082-3.157 1.277-5.882 3.234-7.111 6.474l-.047.133c-1.68-.974-3.407-1.814-5.177-2.745.005-.224.009-.448-.12-.719-.005.224-.052.357-.057.581-7.128-3.591-14.579-6.696-21.996-9.264-.666-.238-1.127.424-.96 1.009l-.09.043-1.741 6.36 1.115 2.349c.231-2.545 1-5.123 1.726-7.792zm138.22 184.895c.804.062 1.565.032 2.416-.04-.223-.004-.452.215-.589.391-.624-.147-1.38-.342-1.96-.398 0 0 .042.09.133.047zm-12.731 3.496a61.07 61.07 0 0 0-3.114-5.163c2.935.82 6.103 1.199 9.228 1.487a.47.47 0 0 0 .348.499c2.222.716 4.525 1.837 5.145 4.31.739 3.191-2.028 5.058-4.877 4.418-2.759-.683-4.902-3.098-6.73-5.551zm10.697 6.214c2.083-1.21 2.761-3.746 2.003-6.042-.381-1.037-.991-1.855-1.647-2.539 3.172.154 6.236 1.246 8.426 3.528 2.494 2.69 3.121 7.042 1.044 10.13-2.399 3.574-7.361 3.383-10.763 1.345-2.917-1.715-4.736-4.615-6.422-7.468 2.289 1.791 4.868 2.56 7.359 1.046zm12.204 4.724c.838.598 1.951.845 2.926 1.268 1.066.379 2.084.892 3.15 1.272.09-.043.133.048.224.005-.717 2.221-2.233 4.158-4.139 5.506-.908.652-2.035 1.076-3.115 1.367-.72-1.983-1.482-4.056-2.563-5.867.86-.519 1.545-1.176 2.234-2.057l.086.181c-.224-.005-.452.214-.281.576.991 1.854 2.79 3.546 4.1 5.138.219.229.627-.076.408-.304-1.042-1.498-2.081-3.219-3.261-4.54l-.172-.362c-.171-.361-.252-.765-.514-1.084l.047-.133c.742-1.237 1.083-2.617 1.201-4.001 2.046.579 4.324.715 6.345.309.415 1.574.336 3.272-.144 4.828l-.043-.09c-.885-.466-1.86-.888-2.835-1.311s-2.08-1.116-3.15-1.272c-.576-.281-.989.248-.504.571zm-12.421 3.681l.799.285c.799.284 1.646.436 2.493.588.325 1.617.83 3.148 1.112 4.674-1.29-.384-2.622-.859-3.769-1.643-.133-.047-.176-.137-.309-.185.113-1.161.098-2.592-.326-3.719zm-.293 3.348c-1.013-.736-1.846-1.558-2.679-2.381.066-1.027.046-2.235-.383-3.139.747.642 1.494 1.284 2.379 1.749.12.718.372 1.484.535 2.292.124.495.157 1.032.148 1.479zm4.522-2.367c1.341.028 2.554-.216 3.729-.773.676 1.893 1.8 3.794 2.838 5.516-1.797.41-3.809.369-5.636.018-.101-1.613-.335-3.272-.931-4.761zm8.37-8.953c-.068-1.075-.316-2.064-.697-3.101 1.565.033 3.13.065 4.69.321.614.594 1.048 1.273 1.524 2.044.214.451.471.993.595 1.488-2.012-.041-3.976-.216-6.112-.752zm-.992-3.957a7.65 7.65 0 0 0-1.172-1.768c-.523-.637-1.095-1.141-1.709-1.735 2.531.902 5.058 2.027 6.99 3.767-1.336-.251-2.721-.369-4.109-.264zm-19.052 4.171c.948 1.764 1.986 3.486 3.3 4.854-.181.086-.228.219-.143.4.163.809.506 1.531.625 2.249.043.091.038.314.081.405-1.785-2.363-3.114-5.164-3.863-7.908zm1.86 7.419a15.47 15.47 0 0 0 1.872 2.544l.042.09c-.004.224.172.361.353.276 1.137 1.231 2.503 2.243 4.007 3.079 1.194.651 2.526 1.125 3.906 1.467.043.09-.005.223.038.314.039.314.576.28.538-.034 0 0-.043-.09.047-.133 3.654.701 7.468.109 10.42-2.067 3.994-2.781 5.987-8.376 4.429-13.06-2.112-6.082-9.529-8.65-15.133-10.197l-.134-.047c5.19-.028 10.388-.502 15.506-1.381l4.76-.931c-.004.223-.009.447.21.675 4.921 4.306 3.304 11.161 2.205 16.775-.849 4.277-1.297 8.696.68 12.628-4.557-.273-9.15 3.346-13.034 5.189-5.421 2.573-14.34 7.802-19.553 2.416.301-5.898.02-11.853-1.159-17.603zm41.144 13.46c-7.072.257-12.929 4.476-18.906 7.976-6.475 3.848-14.902 6.851-21.593 1.614 0 0-.043-.09-.133-.048.118-1.384.326-2.811.444-4.195 3.632 3.921 9.529 2.119 13.903.375 3.338-1.363 6.634-2.816 9.843-4.45 3.029-1.548 6.48-4.071 10.129-3.146.666.237 1.084-.515.694-1.104-6.162-9.252 5.839-22.917-3.751-30.763l4.27-1.03c7.171 10.212-2.974 24.988 5.1 34.771zm-3.775-103.585c-1.375-.565-2.978-.911-4.5-.853 2.349-1.114 4.998-1.597 7.586-1.275-1.218.467-2.216 1.162-3.086 2.128zm2.87 1.849c-.614-.595-1.276-1.055-2.028-1.473.913-.876 1.826-1.752 3.09-2.352l.091-.043c.623.147 1.113.246 1.689.526.399.143.842.376 1.284.608l-.09.043c-1.36.867-2.72 1.734-4.036 2.691zm4.569-2.501a11.44 11.44 0 0 1 2.898 2.609c-1.94.81-3.789 1.577-5.687 2.478-.343-.723-.776-1.403-1.3-2.04l3.861-2.828c.223.005.271-.129.228-.219zm-16.538 14.6c-1.526.282-3.044.117-4.514-.182a107.18 107.18 0 0 0-8.921-3.404c2.311-1.429 4.579-2.948 6.761-4.647.09-.043.133.047.223.004 1.94-.81 3.486-1.986 5.764-1.849 2.502.141 4.701 1.975 5.231 4.491.52 2.963-1.804 5.062-4.544 5.587zm5.756-5.831c-.687-3.547-4.308-5.814-7.8-5.707 2.582-1.557 5.464-2.482 8.494-1.927 3.387.606 6.062 3.211 6.797 6.625.769 3.952-2.069 7.07-5.802 8.067-2.52.753-5.065.522-7.605.067.718-.119 1.436-.239 2.068-.539 2.796-1.105 4.459-3.666 3.848-6.586zm5.576 7.317c.751.418 1.688.526 2.578.768.623.147 1.247.294 1.913.532-.452.214-.994.471-1.489.595-1.036.382-2.159.582-3.191.74-.7-.775-1.537-1.374-2.422-1.839.494-.124.946-.339 1.488-.596 1.583-.862 2.815-2 3.694-3.413 2.088.669 4.276.848 6.469.804-.969 1.456-2.2 2.594-3.784 3.456-.799-.285-1.555-.479-2.355-.764s-1.641-.66-2.578-.769c-.4-.142-.59.391-.323.486zm2.855-4.012c.375-.842.527-1.689.636-2.626 2.292-.535 4.58-.845 6.953-.976.043.091-.004.224-.004.224-.033 1.565-.374 2.945-1.115 4.182-2.236-.046-4.329-.492-6.47-.804zm.521-3.568c.009-.447-.072-.851-.153-1.256-.124-.494-.205-.898-.377-1.26 1.897-.9 3.752-1.891 5.606-2.881 1 1.407 1.638 2.985 1.825 4.778-2.321-.226-4.652-.006-6.901.619zm-13.688 8.71c2.184.402 4.419.448 6.531 0 1.018.513 1.903.978 2.784 1.667-2.821.121-5.718-.386-8.52-1.159-.219-.228-.528-.413-.795-.508zm17.052 12.606c-.657-.684-1.404-1.326-2.061-2.01-3.38-3.156-7.082-5.827-10.922-8.321 3.606.835 7.497.87 10.972-.669 2.483-1.067 4.579-2.948 5.88-5.336.224.004.448.009.628-.077.224.005.233-.442.009-.447-.09.043-.223-.005-.356-.052.745-1.461 1.049-3.154.995-4.9-.308-4.614-3.488-8.749-7.794-10.359-4.705-1.752-9.918-.606-13.911 2.174-.181.086-.228.219-.276.353-.404.081-.765.252-1.17.333 4.744-4.465 9.097-9.519 12.823-14.497.551-.705 1.012-1.366 1.563-2.07 6.768-.666 9.698 4.806 12.494 10.231 2.281 4.341 5.204 7.935 9.216 10.791-4.664 2.767-3.099 9.33-4.356 13.911-1.651 6.318-7.923 8.962-13.553 10.86l-.181.085zm-.863-49.4c8.375-.544 12.401 8.172 15.944 14.239 2.548 4.436 5.862 8.619 10.705 10.195-4.592 3.618-5.963 9.36-7.861 14.689-2.473 7.151-7.127 11.573-14.246 14.066-.961-1.094-2.013-2.144-3.022-3.104 4.937-.793 10.091-3.461 12.818-7.744 1.477-2.25 1.842-4.748 2.03-7.383.207-3.53.299-8.001 4.089-9.578.451-.214.556-.928.113-1.161a26.48 26.48 0 0 1-7.24-6.858c-2.085-2.995-3.4-6.466-5.396-9.504-1.909-2.858-5.864-6.294-9.588-5.744l1.383-1.985c.047-.133.09-.042.271-.128zm-47.704-53.405c.172.361.3.632.381 1.036.21.676.287 1.303.316 2.065-2.311 1.428-3.831 3.589-5.133 5.977.83-3.382 2.193-6.575 4.436-9.078zm10.585 2.946c-.176-.138-.309-.185-.485-.323-.443-.233-.928-.556-1.418-.656.38-1.065.669-2.088.868-3.068s.446-2.093.421-3.078c1.741.17 3.34.74 4.792 1.933l-.091.042c-1.069 1.947-2.356 3.665-4.087 5.15zm4.882-4.641c.043.09.133.047.176.138 1.314 1.369 1.948 3.171 2.135 4.964-.766.253-1.579.638-2.345.891l-2.929 1.058c-.343-.723-.776-1.403-1.39-1.997 1.773-1.395 3.284-3.108 4.353-5.054zm-6.531 0c-.113 1.16-.45 2.317-.696 3.43-.89-.242-1.918-.308-2.859-.193-.011-1.656-.065-3.401-.208-5.104 1.307-.51 2.653-.706 3.952-.768-.019.894-.037 1.788-.189 2.635zm-4.183 3.313c-1.256.153-2.473.62-3.514 1.225.014-.67-.02-1.208-.187-1.793-.124-.494-.158-1.032-.415-1.574.276-.352.684-.657 1.003-.919.775-.699 1.726-1.261 2.719-1.733.059 1.522.25 3.092.394 4.794zm-10.628 16.556c.099-.49.108-.937.16-1.294a.47.47 0 0 0 .5-.348c.673-2.312 1.923-4.344 3.877-5.824 1.407-1 3.214-1.858 4.851-.974 1.46.746 2.013 2.144 1.757 3.704-.321 2.588-2.727 4.283-4.723 5.673-1.36.867-2.72 1.733-4.032 2.467a20.43 20.43 0 0 0-3.162 1.5c.484-1.779.568-3.701.772-4.904zm11.838-7.943c-1.158-2.439-3.836-2.717-6.138-1.736-1.987.943-3.627 2.386-4.739 4.242 1.919-4.121 5.116-9.512 9.691-10.134l.043.09c.039.314.576.28.538-.033 0 0-.043-.091.047-.134a7.55 7.55 0 0 1 3.164.602c3.416 1.368 3.823 5.491 2.508 8.551-1.453 3.235-4.758 5.135-7.877 6.726 2.729-2.18 4.306-4.921 2.763-8.174zm11.758-6.244c.078 2.73-.876 5.618-2.306 7.736-.138.176-.323.485-.461.661-.632.301-1.265.601-1.983.72-.495.124-1.075.067-1.522.058.413-.528.694-1.104.931-1.77.142-.399.285-.799.384-1.289l1.845-.544c.676-.209 1.398-.552 2.074-.762.18-.086.052-.357-.129-.271l-2.245.401-1.393.329c.156-1.07.046-2.235-.202-3.225 1.664-.457 3.6-1.044 5.007-2.044zm-16.113 15.727c.18-.085.409-.304.589-.39l.129.271c-.224-.005-.447-.009-.718.119zm5.621-1.45c-.09.043-.224-.004-.314.039-1.122.2-2.292.534-3.462.868 2.886-1.149 5.782-2.744 7.621-5.167.98.2 2.193-.044 3.186-.516-1.834 2.199-4.373 3.847-7.031 4.776zm17.607-1.382c-4.514-.183-9.127.125-13.612.704 2.534-1.424 4.592-3.618 6.031-6.183 2.371-4.335 2.942-10.362-.828-14.107-3.813-3.836-9.763-3.779-14.113-1.051-3.851 2.381-6.212 6.269-7.641 10.489-.071-5.28-.812-10.573-1.914-15.695-.248-.989-.496-1.978-.654-3.01 4.588-3.395 10.667-3.181 15.767-1.063 3.55 1.415 7.514 4.404 11.175 2.556-.006 4.652 3.683 7.993 6.201 11.668 3.172 4.583 3.856 10.456 2.091 15.833-.714-.104-1.608-.123-2.503-.141zm-15.511-33.151c4.753 1.618 9.586 1.538 14.017-.786-.742 5.666 3.86 10.233 6.537 14.94 3.277 5.972 3.672 12.869 2.15 19.458-1.161-.114-2.412-.184-3.573-.297 1.695-4.126 1.654-8.644.129-12.791-2.078-5.544-8.883-9.621-7.945-16.043.056-.58-.653-.908-1.152-.56-3.004 2.533-6.578.133-9.457-1.268-2.036-1.026-4.215-1.652-6.399-2.055-4.1-.71-8.319-.037-11.723 2.354-.329-1.394-.749-2.744-1.168-4.095.133.048.314-.038.361-.171 5.814-4.309 12.314-.642 18.223 1.314zm-88.009-5.388c-.352-.276-.614-.594-1.009-.96a9.63 9.63 0 0 1 1.573-2.517c.219.228.485.323.704.551.486.323.838.599 1.323.922-2.857 1.909-4.134 5.282-4.07 8.683-.406-2.021-.541-4.171.086-6.35l.19-.533c.309.186.619.371.971.647.086.18.452-.215.233-.443zm3-2.309l-.086-.181c-.395-.366-.88-.689-1.276-1.055-.176-.138-.395-.366-.571-.503 1.188-1.229 2.638-2.138 4.393-2.639.181-.086.404-.081.585-.167-.247 1.114-.093 2.369.288 3.406l-1.213.243a6.05 6.05 0 0 0-2.121.896zm4.94 23.004c-.763-2.074-2.6-4.08-3.819-5.715-.219-.228-.438-.456-.566-.727-.905-1.674-1.672-3.524-1.588-5.445.069-3.354 2.854-6.114 6.27-4.747 4.258 1.743 4.266 5.724 3.023 9.634-1.164 2.213-2.375 4.559-3.32 7zm5.177-10.316c.005-.224-.034-.538-.029-.761-.245-3.315-2.193-6.486-5.58-7.093-2.807-.55-5.346 1.098-6.295 3.762-.617 1.732-.606 3.387-.192 4.961-.043-.09-.176-.137-.219-.228-.896-2.12-1.387-4.322-.98-6.729.554-3.031 2.574-5.539 5.499-6.373 3.105-.921 6.165.395 7.489 3.419 1.286 2.71.956 5.745.539 8.599-.005.224-.142.4-.233.443zm1.478-2.251c.464-2.987.39-5.941-1.39-8.527-1.476-2.178-3.827-3.166-6.333-3.083-.424-1.127-.268-2.197-.107-3.491 1.479-.149 2.906.06 4.148.577-.138.176-.052.357-.057.581s-.057.58-.152.846c-.19.533-.38 1.066-.703 1.551-.185.31.257.542.443.233.413-.528.694-1.104.883-1.637.052-.356.285-.799.204-1.203 1.018.513 1.851 1.335 2.637 2.29-.142.4-.194.757-.337 1.157-.233.442-.423.975-.789 1.37-.138.176.081.404.219.228.499-.347.775-.7 1.055-1.275.138-.176.233-.443.328-.709l.129.271a8.51 8.51 0 0 1 1.092 3.466l-.095.267c-.052.357-.118 1.384-.608 1.285l-.09.042c-.133-.047-.219-.228-.171-.361s-.038-.314-.176-.138c-.181.086-.228.219-.142.4l.086.181c.043.09.129.271.176.137-.047.134.038.314.171.362.357.052.718-.12.946-.339-.032 1.565-.331 3.035-.81 4.591-.095.266-.371.619-.556.928zm10.822-12.884c-3.104 3.023-5.942 6.14-8.517 9.576.64-2.849.433-5.85-1.033-8.475-1.986-3.485-5.664-5.171-9.612-4.626-6.91 1.066-10.915 8.722-9.483 15.237-3.951-3.659-8.177-6.967-12.636-9.832-.443-.232-.795-.508-1.28-.831 1.511-1.714 2.88-3.027 5.091-3.966s4.499-1.249 6.881-1.827c2.43-.71 4.784-2.048 5.548-4.403 2.989 2.566 7.103 2.606 10.999 2.417 2.597-.125 5.417-.246 7.901.789 2.75 1.13 5.034 3.145 6.639 5.594-.271.128-.319.261-.499.347zm-34.068-9.512c2.658-.929 6.267-2.421 6.864-5.361 10.178 5.353 24.928-.65 31.258 11.289-1.045.828-1.958 1.704-2.961 2.623-1.934-3.842-5.37-6.418-9.651-7.043-5.395-.871-12.38 1.669-16.488-3.022-.438-.457-1.203-.204-1.26.376-.144 4.828-6.675 4.828-10.141 5.92-2.701.839-6.001 2.516-7.174 5.176-1.104-.694-2.208-1.388-3.402-2.039.09-.042.138-.176.276-.352 1.985-5.148 7.996-6.008 12.68-7.567zm89.324 267.761c.176.138.443.232.623.147.267.095.628-.077.856-.296.138-.176.366-.395.371-.618s.009-.448-.077-.628c-.171-.362-.476-.77-.876-.913-.266-.095-.49-.099-.761.029-.137.176-.323.486-.418.752.034.538-.07 1.251.282 1.527zM87.653 265.084c3.148-.83 6.388.4 7.485 3.643 1.144 3.11-.49 6.431-3.557 7.665-.632.301-1.26.377-1.888.454l.6 1.265c.628-.077 1.213-.244 1.888-.454 3.79-1.577 5.756-5.831 4.226-9.754-1.62-3.88-5.888-5.175-9.716-3.912a13.14 13.14 0 0 0-2.53 1.2l.6 1.265a8.62 8.62 0 0 1 2.891-1.372zM14.539 118.251c.038.314.034.538.343.723.176.138.4.142.666.237.133.048.314-.038.404-.081.266.095.49.1.718-.119.637-.524.394-1.737-.225-2.107-.485-.323-.89-.242-1.298.062-.452.215-.642.748-.608 1.285zm1.527-.282s-.09.043 0 0c-.133-.047-.309-.185-.4-.142.09-.043.138-.176.228-.219l.172.361zm141.303 285.156c.176.138.219.228.352.276.795.508 1.669-.682 1.773-1.395.009-.447-.476-.77-.833-.822-.4-.143-.804-.062-1.208.019-.361.172-.77.477-.822.833a.95.95 0 0 0 .738 1.089zM17.344 123.229c-.219-.228-.495.124-.366.395 1.133 1.455 3.853-.278 2.948-1.952-.129-.271-.528-.414-.795-.508s-.709-.328-1.023-.29c-.494.124-1.179.781-1.369 1.314-.337 1.156 2.027 1.473 1.965.175l-.129-.272c.133.048.267.095.357.053.248.989-1.017 1.589-1.588 1.085zM243.53 313.422c.133.047.224.004.447.009-.005.223.172.361.305.409.713.104 1.131-.648 1.055-1.276.18-.086.314-.038.494-.124.091-.043.048-.133-.042-.09s-.314.038-.405.081c.005-.224-.081-.404-.21-.675-.304-.409-.842-.375-1.293-.161s-.775.7-.784 1.147c-.1.49.209.675.433.68zM137.777 107.141c-.171-.361-.481-.546-.928-.556-.404.082-.766.253-1.084.515s-.642.747-.56 1.151c.124.495.79.732 1.284.608.133.048.357.052.538-.033.271-.129.499-.348.684-.657.052-.357.195-.757.066-1.028z"/><path opacity=".5" d="M241.085 312.7c.142-.399-.029-.761-.382-1.036-.176-.138-.399-.143-.49-.1-.133-.047-.176-.138-.266-.095-.623-.147-1.08.291-1.227.914-.004.224.034.538.253.766l.043.09c.038.314.167.585.524.637.266.095.58.057.851-.072l.181-.085c.095-.267.37-.619.513-1.019zM33.293 156.837c-.224-.005-.314.038-.537.033l.386.813c.404-.081.899-.205 1.346-.195l-.36 2.273 1.158 2.44c.392-3.839 1.141-7.626 2.156-11.318 10.365 7.147 21.652 12.97 31.375 20.864 9.547 7.755 16.993 17.615 19.518 29.699-.052.357-.152.847-.204 1.204-.899 6.736-.951 13.623.253 20.358-.985.024-1.926.139-2.958.297l.754-4.011c.266.095.499-.347.19-.532l-.133-.048c1.4-11.512-1.891-23.344-8.676-32.742-.39-.59-.828-1.046-1.219-1.636-.043-.09-.086-.18-.219-.228-4.189-5.096-9.472-9.23-14.897-12.965-7.057-4.842-14.3-9.374-21.495-14.04a.57.57 0 0 0-.904.429c-.559 3.254-.985 6.555-1.23 9.771l1.158 2.439c-.043-.09.047-.133.005-.224 2.286-2.413 4.739-4.241 7.596-6.151.319-.261.014-.67-.348-.499-2.796 1.106-5.301 3.291-7.14 5.713.069-3.353.495-6.654 1.054-9.908l14.567 9.469c-3.182.292-6.244 1.303-8.964 3.036-1.269.824-2.406 1.695-3.456 2.747-.319.262-.504.571-.822.833l.429.904c3.522-3.775 7.82-6.147 13.29-6.75.224.005.361-.171.319-.262 1.237.741 2.427 1.616 3.664 2.357.352.275.795.508 1.147.784-3.615-.388-7.99 1.356-11.199 2.99-.219-.228-.571-.503-.79-.732-.438-.456-1.432.016-.998.696.129.271.348.499.476.77-1.583.862-3.038 1.995-4.359 3.175l.386.814c1.455-1.134 2.862-2.133 4.493-3.129 1.076 2.035 1.925 4.289 2.549 6.539-1.527.281-2.972.967-4.422 1.877l.472.994c1.403-.777 2.801-1.329 4.16-2.196.663 2.563 1.012 5.165 1.361 7.766-.899.206-1.664.458-2.52.754l.386.813 2.297-.758c.349 2.601.655 5.113 1.185 7.628l-.181.086 3.944 8.312c-.72-1.983-1.439-3.966-1.936-5.945-2.246-8.231-1.744-17.436-5.431-25.205 7.048 5.289 15.337 8.993 21.649 15.295 8.458 8.494 9.019 20.404 9.726 31.691-.989.248-1.935.586-2.972.968.109-.938.217-1.875.236-2.769.185-.309.323-.485.375-.842.095-.266-.171-.361-.309-.185.253-5.765-.475-11.73-2.871-17.012-2.139-4.741-7.129-12.224-13.269-11.635-7.215.657-4.54 9.793-2.749 14.034 1.663 3.971 3.597 7.812 5.94 11.35.952 1.54 1.952 2.947 2.952 4.354 1.262 1.726 2.928 3.371 4.009 5.182-.723.343-1.403.776-2.125 1.119-3.679-3.788-6.903-8.014-9.403-12.583l3.902 8.221c.219.228.305.409.524.637-.09.043-.09.043-.224-.005l.257.542c.09-.043.181-.085.314-.038 1.09 1.364 2.228 2.596 3.409 3.917-.499.348-1.041.605-1.54.952l.643 1.356 2.04-1.3c7.332-4.144 15.04-7.027 23.602-5.778 19.799 3.002 31.18 21.62 36.815 39.091 0 0-.047.134-.005.224.544 8.376-1.096 16.349-5.805 23.454-4.661 6.971-11.706 12.418-19.423 15.748-.904.429-1.85.767-2.887 1.149l.601 1.265c.271-.129.494-.125.765-.253.043.09-.047.133-.004.223.071.852.191 1.57.353 2.378l4.202 8.854c-.215-.452-.381-1.037-.596-1.488.219.228.576.28.761-.029 1.392-2.432 2.642-4.464 5.481-5.479 2.254-.848 4.485-.579 6.611.404.734 1.312 1.51 2.715 2.196 4.161.3.632.643 1.355.853 2.03-4.825-2.47-11.183-.006-12.729 5.598-.129-.271-.3-.632-.519-.861l3.601 7.589c2.79 3.547 6.745 6.983 10.867 4.473 4.893-2.986 2.705-9.696 1.008-14.204.262.319.718-.119.456-.438-.304-.408-.657-.684-1.009-.96-2.464-6.357-5.907-12.914-10.772-17.8 1.407-1 2.724-1.957 3.955-3.095 5.187 8.829 10.511 17.482 12.673 27.636.534 2.292.797 4.713 1.018 7.044-.181.085-.143.399-.009.447.125 2.597.117 5.146-.161 7.824-.397 4.063-.884 8.168-.429 12.158-2.966-3.684-6.345-6.84-9.948-10-.043-.091-.043-.091-.176-.138-.924-.78-1.8-1.692-2.723-2.472l1.243 2.62c.043.091.176.138.176.138l-.09.043.214.452.362-.172 4.698 4.302c-.771.476-1.584.862-2.44 1.157l.343.723c.947-.338 1.717-.815 2.535-1.424 1.842 1.782 3.636 3.698 5.203 5.832a17.01 17.01 0 0 1-5.341.875l.6 1.264c1.879-.006 3.676-.416 5.479-1.05.085.181.219.228.304.409.348.499 1.118.023.994-.472-.043-.09-.038-.314-.081-.404 3.115-1.367 6.11-3.453 8.61-5.414l.101 1.612c.068 1.075.135 2.15.112 3.268a23.4 23.4 0 0 1-5.267 3.828c-1.493.819-6.429 3.714-7.862 1.627-.262-.318-.58-.056-.675.21l1.243 2.62 2.998 2.119c2.646 1.844 5.369 4.315 8.342 5.45.267.095.633-.3.414-.528-1.576-1.688-3.741-2.985-5.773-4.234 2.597-.126 5.05-1.954 6.48-4.072l-.606 9.918c-.009.447.571.504.671.014 2.73-13.139 1.197-27.798-2.027-40.657l-.501-1.755s-.043-.09.047-.133c.048-.133.005-.224-.128-.271-.582-2.159-1.211-4.185-1.974-6.258.047-.134.005-.224-.086-.181-.801-2.387-1.735-4.822-2.716-7.123.047-.134.095-.267.052-.357.095-.267-.257-.542-.438-.457-2.477-5.687-5.407-11.159-8.835-16.284.095-.267.28-.576.375-.842s-.3-.633-.485-.323c-.138.176-.228.218-.366.395-.653-.908-1.215-1.859-1.867-2.767-.086-.181-.219-.229-.442-.233.275-.352.641-.747.917-1.1 1.819 2.901 4.361 5.458 6.361 8.272a77.43 77.43 0 0 1 6.1 10.056c3.486 6.647 6.25 13.637 8.068 20.965 1.865 7.196 2.831 14.596 2.903 21.978-.014 7.202-1.312 13.795-3.733 20.589-2.384-1.525-5.044-2.698-7.566-4.047-1.018-.513-1.946-1.069-2.965-1.582l1.501 3.162c.047-.133.095-.266.052-.356l.048-.134c2.831 1.535 5.8 2.893 8.783 3.58.133.048.223.005.271-.128.176.138.49.099.585-.167a30.21 30.21 0 0 0 1.586-3.188c1.508.612 3.326 1.41 3.284 3.422.016 1.432-1.215 2.57-2.476 2.946-2.563.663-4.671-1.214-5.791-3.339-.171-.362-.794-.509-1.027-.066-.561 1.151-1.877 2.108-3.171 1.947l.557 1.175c1.165-.11 2.297-.758 3.076-1.681 1.867 2.767 5.583 4.766 8.497 2.277 1.274-1.048 1.848-2.87 1.433-4.444-.291-1.08-1.038-1.721-1.875-2.32 1.84-.32 3.609-1.491 3.874-3.499.255-1.56-.474-3.096-1.663-3.97 2.021-.406 3.88-1.62 4.064-4.032.179-2.188-1.363-3.338-3.095-3.955 1.265-.6 2.32-1.876 2.485-3.393.175-1.965-1.044-3.6-2.728-4.35 1.669-.682 3.08-1.905 3.031-3.874-.039-2.417-2.028-3.576-4.074-4.155 1.36-.866 2.281-2.189 2.271-3.845.007-2.549-2.149-4.293-4.517-4.387 1.987-.943 3.37-2.927 2.702-5.267-.715-2.207-2.718-2.695-4.73-2.736 1.46-1.357 2.305-3.308 1.542-5.381-.929-2.658-3.65-3.027-6.024-2.897 1.042-.605 1.911-1.571 2.339-2.77.51 1.307 1.695 2.405 3.165 2.704 1.603.346 3.182-.293 4.056-1.482.758 2.297 2.776 4.217 5.378 3.868 1.255-.153 2.929-1.058 3.76-2.339.424 1.127 1.481 1.954 2.908 2.163 2.098.222 3.686-.864 4.569-2.501.725 1.76 2.486 3.138 4.545 3.046 2.24-.178 3.98-2.11 4.202-4.208 1.042 1.498 2.993 2.343 4.791 1.932 1.888-.453 3.124-1.814 3.608-3.593 1.133 1.454 2.903 2.385 4.881 1.889 2.202-.491 3.86-2.828 3.592-5.025.815 1.716 1.544 3.252 4.055 2.946 1.883-.23 3.033-1.772 3.113-3.47 3.479 2.666 8.982 2.6 11-2.01.803-2.041.497-4.553-1.036-6.15-1.4-1.549-3.36-1.947-5.286-1.808 2.357-3.664-1.262-8.257-5.223-7.041.879-1.413 1.054-3.378-.08-4.832-1.218-1.636-3.312-2.081-5.071-1.357.888-1.861 1.291-4.044-.513-5.512-1.494-1.284-3.33-1.187-4.914-.325.751-1.684.925-3.649-.522-5.065-1.623-1.555-3.515-.878-5.146.117.531-1.912.302-3.796-1.73-5.045-1.723-1.064-3.925-.573-5.294.741.74-3.34-3.41-6.019-6.443-4.248-.011-1.655-.873-3.238-2.467-4.031-2.436-1.169-5.147.118-6.886 2.05.689-.881 1.249-2.032 1.23-3.24.004-.224.009-.447-.077-.628 1.061.603 2.355.764 3.624-.06 1.222-.69 1.697-2.022 1.677-3.231 1.813 1.022 4.092 1.158 5.736-.508.822-.833 1.207-2.122 1.097-3.287 1.332.474 2.858.193 3.995-.679 1.639-1.442 1.685-3.678.871-5.394 3.915 1.02 7.537-3.245 5.688-6.906 1.694.303 3.539-.24 4.732-1.692 1.697-2.023 1.309-4.938-.034-7.068 1.023.289 1.951.845 3.207.692 1.212-.244 2.482-1.067 3.175-2.171 1.065-1.723.749-3.787-.384-5.242 2.631.412 5.327-.203 6.943-2.63 1.107-1.633 1.024-4.139-.199-5.551 3.391.383 6.552-3.22 5.508-6.82-1.417-5.084-7.082-5.826-10.895-3.132-.002-2.102-1.344-4.232-3.661-4.682-1.96-.398-3.772.683-4.655 2.32-.772-1.626-2.357-2.867-4.283-2.727-1.522.058-2.977 1.191-3.765 2.561-.544-1.845-2.167-3.399-4.179-3.44-2.145-.089-3.966 1.439-4.631 3.304-1.209-2.083-3.55-3.517-6.161-2.721-1.845.544-2.905 2.043-3.027 3.65-.824-1.269-2.238-2.148-3.85-2.047-2.24.178-3.842 1.934-4.287 4.027-1.314-1.369-3.27-1.99-5.076-1.133-1.627.772-2.6 2.452-2.547 4.197-.871-1.136-2.199-1.834-3.816-1.51-2.021.406-2.99 1.862-3.293 3.556-.395-.366-.881-.689-1.371-.789 2.929-1.058 3.687-5.292 1.27-7.354 1.84-.32 3.342-1.587 3.783-3.456.351-1.827-.597-3.591-2.053-4.56 1.759-.724 3.18-2.395 3.088-4.455-.044-2.192-1.62-3.88-3.618-4.592 1.536-.729 2.9-1.819 3.027-3.65.094-2.369-1.805-3.571-3.893-4.24 1.897-.901 3.365-2.704 3.145-5.035s-2.334-3.984-4.479-4.073c1.854-.991 3.657-1.625 2.998-4.411-.534-2.293-2.566-3.542-4.698-4.302 1.764-.947 2.966-2.846 2.561-4.867-.449-2.112-2.3-3.447-4.355-3.579 2.162-2.908 1.136-7.402-2.684-8.688-4.087-1.381-7.591 1.499-8.249 5.243-1.842-1.783-4.873-2.337-6.969-.457-1.459 1.357-1.81 3.184-1.399 4.981-1.504-.836-3.426-.92-4.971.256-1.635 1.219-2.124 3.222-1.623 4.977-2.041-.803-4.462-.539-6.106 1.127-1.692 1.799-1.614 4.529-.448 6.521-2.05-.355-4.209.227-5.501 2.168-1.202 1.899-.625 4.282 1.093 5.569-1.779-.484-3.938.098-4.96 1.911-.926 1.547-.606 3.387.351 4.704-1.655.011-3.329.916-4.165 2.42-.233.442-.375.842-.427 1.198l-.043-.09c-1.081-1.811-3.17-2.48-5.058-2.027.707-1.775.616-3.834-.694-5.427-1.4-1.55-3.359-1.948-5.248-1.494.612-1.509.335-3.259-.936-4.537-1.228-1.189-2.926-1.268-4.415-.673.299-1.47-.378-3.362-1.121-4.227-1.747-2.049-4.43-2.104-6.465-1.028.303-1.693-.283-3.629-1.873-4.646-1.499-1.059-3.378-1.053-4.961-.191.26-1.784-.326-3.719-2.096-4.65-1.37-.789-3.03-.555-4.209.226-.063-1.298-.749-2.744-1.672-3.523-1.714-1.512-4.13-1.472-5.722-.163-.351-4.704-5.381-8.072-9.86-5.615-2.216 1.163-3.569 3.908-3.487 6.415l2.229 4.697c-.266-.094 0 0 .309.186zm27.005 48.506l-.133-.047-.972-2.749c-.167-.585-.334-1.17-.41-1.797 1.357 1.459 3.759 2.09 5.561 1.456 2.658-.93 3.84-4.037 2.863-6.562-.171-.361-.756-.194-.675.21.492 2.202-.591 4.819-2.883 5.353s-3.782-.972-4.82-2.693c-.043-.09-.043-.09-.176-.138.141-2.502 1.172-4.762 4.301-4.698 3.263.112 6.157 2.945 8.033 5.265.305.409.652.908 1 1.407-1.228 5.342-6.787 8.091-11.688 4.993zm2.92 5.92c-.133-.048-.176-.138-.266-.095-.643-1.355-1.419-2.758-1.972-4.156 4.829 2.247 10.835-.493 11.706-5.887 1.129 1.678 2.029 3.575 2.706 5.468-1.804 5.062-7.315 7.677-12.173 4.67zm4.053 7.374a74.69 74.69 0 0 1-3.329-5.615c4.701 1.976 10.25-.326 11.826-5.169.753 2.52 1.236 5.169 1.451 7.724-1.995 3.492-6.223 4.613-9.948 3.06zm1.305 1.816l-.086-.18c3.292.873 6.949-.752 8.707-3.579.096 1.836.193 3.672.199 5.551-1.687 1.576-4.07 2.153-6.244 1.303-.876-.913-1.837-2.006-2.576-3.095zm6.953 5.556l-2.078.986c-.343-.723-.824-1.27-1.257-1.949 1.874.217 3.81-.369 5.179-1.683-.014.671-.07 1.251.006 1.879-.632.3-1.217.467-1.85.767zm-25.845-50.496c1.626-.771 3.386-1.496 5.14-1.996s3.591-.598 5.346-1.098c.181-.086.319-.262.233-.443 2.075 1.34 4.102 2.813 6.082 4.419-3.624.06-7.281 1.685-10.186 3.727-2.341-1.435-4.502-2.955-6.615-4.609zm7.057 4.842c3.21-1.634 6.581-2.459 10.086-3.237.09-.043.271-.129.228-.219 2.684 2.158 5.231 4.491 7.459 7.087a30.71 30.71 0 0 0-9.65 1.591c-2.646-1.844-5.387-3.421-8.123-5.222zm8.609 5.545c3.324-.692 6.597-1.028 9.95-.959.043.091.219.228.262.319 1.614 2.001 2.914 4.041 4.166 6.213-2.122-1.206-5.686-1.95-7.863-.474-1.975-1.83-4.222-3.531-6.515-5.099zm7.825 6.691c-.262-.318-.481-.546-.743-.865 1.122-.201 2.069-.539 3.186-.516 1.341.028 2.588.322 3.739.882.266.095.404-.081.409-.305 1.162 2.216 2.234 4.475 3.035 6.862-1.646-.437-3.834-.616-5.418.246-.981-2.301-2.415-4.388-4.209-6.304zm7.174 14.417c.632-.3 1.265-.6 1.983-.72.314-.038.585-.167.899-.205.181-.086.404-.081.628-.077.09-.042.133.048.086.181 0 0-.09.043-.047.133.623.147.508-.794.156-1.07-.443-.233-1.389.106-1.793.187-.675.21-1.351.419-2.073.762-.534-2.292-1.34-4.456-2.278-6.667.675-.209 1.217-.467 1.935-.586 1.122-.201 2.193-.045 3.306.202 1.478 4.28 2.28 8.769 2.545 13.293l-.043-.091a6.16 6.16 0 0 0-4.29-.177c-.368-1.708-.645-3.458-1.012-5.165zm1.263 16.889c.074-3.577.014-7.201-.269-10.83l.09-.043c1.35-.42 2.649-.482 3.981-.008.133.048.224.005.314-.038.096 1.836.06 3.624-.067 5.456-1.246-.294-2.816-.103-3.686.863-.228.219-.014.671.348.5 1.131-.648 2.168-1.029 3.372-.826-.118 1.385-.236 2.769-.444 4.196-1.346.196-2.468.396-3.638.73zm45.081 104.792c-.246 1.113-.759 2.131-1.715 2.917-2.595 2.228-5.431.917-7.797-1.502.008-2.55.824-5.262 3.787-5.782 2.649-.483 5.157 1.537 5.687 4.053-.138.176-.095.266.038.314zm-2.362-11.276c.724 1.759 1.315 3.471 1.816 5.226.377 1.26.706 2.654.721 4.085-1.024-2.392-3.585-4.054-6.234-3.572-2.558.439-4.759 3.033-4.766 5.583-1.662-1.868-3.047-4.089-4.043-5.719.091-.043.048-.134.138-.177 1.371-5.742 7.595-8.253 12.368-5.426zm-7.502-13.708c-4.362-1.029-9.83 1.677-10.331 6.453-.056.58.79.732.98.199 1.562-4.173 5.513-7.044 10.004-5.744.909 1.45 1.952 2.948 2.771 4.441-4.834-2.023-11.273.036-12.372 5.65l.043.09c-1.144-3.11-2.017-6.348-2.709-9.672-.086-.181-.129-.272-.262-.319 3.291-1.23 6.457-2.954 9.405-4.906.691 1.222 1.605 2.448 2.471 3.808zm25.226 54.553c-.884 1.637-2.163 2.908-3.879 3.723-1.355.643-2.697.615-4.176.764 0 0-.043-.09-.133-.048l-4.012-2.855c1.427.208 3.458-.645 4.452-1.117 2.976-1.191 5.563-2.972 7.711-5.209.101 1.613.069 3.178.037 4.742zm-.218-11.187c-2.947 1.953-5.757 3.729-8.691 5.01-.311-2.287-.355-4.48-.176-6.668 2.972-.968 6.362-2.687 8.163-5.424.311 2.288.531 4.619.704 7.082zm-.866-7.89l-.181.086c-1.274 1.047-2.282 2.189-3.599 3.146s-2.762 1.643-4.207 2.329c.136-2.278.405-4.509.542-6.788 2.696-.615 5.059-2.401 6.275-4.97l1.17 6.197zm-1.824-9.207c.21.675.329 1.393.449 2.111-.134-.047-.224-.004-.362.172-1.301 2.388-3.127 4.14-5.694 5.027.084-1.922.078-3.801-.062-5.727 1.927-.139 4.138-1.078 5.245-2.71.171.361.252.765.424 1.127zm-2.632-9.045c-.414.528-.694 1.104-1.107 1.632-.594.614-1.365 1.09-2.178 1.476-.451.214-.151.847.343.723 1.218-.467 2.534-1.424 3.409-2.614.634 1.802 1.134 3.557 1.588 5.445-.509.795-1.06 1.499-1.878 2.108-.998.696-1.901 1.124-3.024 1.325-.211-2.778-.646-5.56-1.261-8.256-.497-1.979-1.083-3.914-1.669-5.85 1.307-.51 2.577-1.333 3.451-2.523.715 2.206 1.52 4.37 2.326 6.534zm-2.888-7.485c-.371.619-.694 1.104-1.288 1.718-.637.524-1.183 1.004-1.906 1.347-.72-1.983-1.44-3.965-2.383-5.953 1.17-.334 2.53-1.2 3.09-2.352.905 1.674 1.63 3.433 2.487 5.24zm-3.001-6.324c-.28.576-.47 1.109-.927 1.546-.503.572-1.183 1.005-1.949 1.258-.9-1.898-1.891-3.752-2.882-5.606 1.17-.334 2.487-1.291 2.914-2.49l2.844 5.292zm-3.277-5.972c-.28.576-.427 1.199-.884 1.637-.503.571-1.093.962-1.858 1.214-.91-1.45-1.82-2.9-2.819-4.307.998-.695 2.134-1.567 3.004-2.533.914 1.227 1.69 2.629 2.557 3.989zm-5.119-7.754l2.043 2.905c-.185.309-.461.661-.737 1.013-.641.748-1.326 1.404-2.096 1.881-.738-1.089-1.566-2.135-2.395-3.181 1.093-.961 2.054-1.97 3.104-3.022-.047.133.038.314.081.404zm28.502 73.586c-.665 1.865-2.824 2.447-4.698 2.23a33.13 33.13 0 0 0 1.561-6.275s.09-.043.133.047c2.055.132 3.759 2.091 3.004 3.998zm-1.017-11.472c.4.143.89.242 1.247.294 1.246.294 1.856 1.112 1.785 2.363.282 1.527-.141 2.502-1.586 3.188-.994.472-2.202.492-3.23.426.313-2.141.492-4.329.49-6.431.357.052.847.151 1.294.16zm-1.408-7.633c2.244-.401 4.843 1.576 4.122 4.021-.432 1.423-1.702 2.247-3.047 2.443-.357-.052-.581-.057-.938-.109.005-.224-.033-.538-.029-.761-.006-1.879-.102-3.715-.108-5.594zm4.276-5.682c.654 3.01-2.137 3.892-4.429 4.427-.178-2.241-.399-4.571-.709-6.859 1.65.213 4.685.544 5.138 2.432zm-6.323-10.06c1.935-.587 4.419.448 4.687 2.646.225 2.107-1.734 3.811-3.746 3.77l-.09.042c-.358-2.154-.807-4.266-1.299-6.468.224.005.357.053.448.01zm2.563-7.194c1.866 2.767-.905 4.857-3.249 5.748-.582-2.159-1.164-4.318-1.879-6.524 1.436-.239 4.085-.722 5.128.776zm-8.355-9.207c1.703-.144 3.943-.322 5.119 1.223 1.876 2.32-.105 5.142-2.274 6.171-.886-2.568-1.82-5.003-2.845-7.394zm-54.281-125.11c1.103-1.409 2.772-2.09 4.499-1.249a.55.55 0 0 0 .58.056c-1.001 3.021-1.779 6.047-2.334 9.077-.658-2.786-1.545-5.354-2.745-7.884zm6.311 32.425c.181-.085.319-.261.28-.575-.148-1.479-.34-3.049-.355-4.481.714.104 1.522-.058 2.193-.044.357.052.761-.029 1.075-.067.09-.043.224.004.314-.039l.086.181c.266.095.447.009.542-.257-.084 1.921-.168 3.843-.119 5.812l.043.091c-1.38-.342-2.674-.503-4.058-.621zm14.784-51.181a53.78 53.78 0 0 1 3.94-4.526c6.258-1.974 13.161-.49 18.22 3.64l1.275 7.585c.043.091.039.314.082.405-2.029-3.576-5.56-5.885-9.428-7.038-.267-.095-.533-.19-.89-.242l.156-1.07c.105-.714-.966-.87-1.246-.294-.185.309-.237.666-.423.975-3.834-.615-8.129-.569-11.686.565.09-.043.09-.043 0 0zm13.443-12.024c1.341.027 2.421-.264 3.753.211s2.389 1.301 3.26 2.438c.043.09.266.095.357.052.042.09-.005.223.038.314-.09.042-.224-.005-.224-.005-.133-.047-.314.038-.447-.009-.223-.005-.275.352-.052.357.133.047.357.052.447.009s.224.004.314-.039l1.113 6.778c-4.659-3.988-10.939-5.324-16.826-3.969 2.466-2.499 5.152-4.77 7.924-6.86-.052.357-.014.67.343.723zm.061-.804c1.906-1.348 3.946-2.648 6.029-3.857l1.074 6.463c-.738-1.089-1.794-1.916-3.036-2.433-1.066-.38-2.802-.774-4.067-.173zm.397 22.06c4.053.844 7.55 2.615 10.625 5.363.225 2.107.226 4.209.185 6.221l-.09.043c-2.77-2.338-6.229-3.796-9.797-4.317-.581-.056-.642.747-.109.937 3.701.568 6.932 2.245 9.973 4.455-.127 1.831-.254 3.662-.562 5.58-.052.356-.152.846-.204 1.203l-3.231-1.677c-1.727-.84-3.454-1.681-5.186-2.298-.133-.048-.223-.005-.314.038-.552-7.929-2.627-15.799-2.015-23.838.134.047.224.005.267.095 4.048 1.067 7.622 3.467 9.965 7.004.043.09.176.138.357.052.32 1.84.507 3.634.736 5.517-2.851-2.742-6.481-4.562-10.449-5.225-.756-.194-.775.7-.151.847zm-2.428 44.099c-.6-1.264-2.009-2.367-3.479-2.665a57.15 57.15 0 0 0 2.59-4.107c.532.19 1.156.337 1.774.707.752.418 1.409 1.103 1.933 1.74.219.228.537-.034.409-.305-.691-1.222-2.181-2.729-3.741-2.984.793-1.594 1.453-3.236 2.07-4.968.043.091.086.181.219.229.842.375 1.917.307 2.759.682.443.233.885.466 1.371.789.309.185.794.508 1.147.784-2 3.716-4.395 7.067-7.099 10.232.043.09.09-.043.047-.134zm-.142.4l-3.384 3.599c-.747-.642-1.499-1.06-2.294-1.568-.443-.233-.838-.599-1.28-.832 1.05-1.052 2.058-2.194 3.065-3.336a4.41 4.41 0 0 1 1.337.251c.933.332 1.68.974 2.199 1.834.133.048.266.095.357.052zm6.636-11.672c-.395-.366-.88-.689-1.456-.97-.885-.465-2.127-.983-3.206-.692l-.181.086c.902-2.531 1.447-5.114 1.769-7.702.442.233.846.151 1.336.251.714.104 1.38.341 2.046.579 1.375.565 2.251 1.477 3.398 2.261.043.091.133.048.133.048-.902 2.531-1.98 4.924-3.234 7.18-.081-.404-.21-.675-.605-1.041zm3.977-6.315c-.51-1.308-1.79-2.139-2.984-2.79-1.019-.513-2.793-1.22-3.878-.706.048-.133.053-.357.01-.447.179-2.188.268-4.333.133-6.483 1.68.974 3.588 1.728 5.405 2.526.842.375 2.122 1.207 3.15 1.273-.45 2.316-1.077 4.495-1.836 6.627zm-21.644-35.111c3.758-.013 7.258-.567 10.916-.089-1.254 2.255-2.817 4.326-4.514 6.348-3.649-.925-7.449-1.003-11.13-.363 1.387-2.208 2.817-4.325 4.423-6.305-.047.133-.009.447.305.409zm-5.284 6.824a28.35 28.35 0 0 1 11.14-.084c-1.236 1.361-2.562 2.766-3.755 4.217-.96 1.009-1.787 2.066-2.657 3.032-2.892-.73-5.846-.657-8.68.135 1.126-2.527 2.427-4.916 3.952-7.3-.09.043-.09.043 0 0zm4.405 7.65c-1.744 2.156-3.312 4.45-4.618 7.062-2.179-.626-4.686-.543-6.763.443.764-2.355 1.571-4.62 2.511-6.837 2.972-.968 5.93-1.265 8.87-.668zm-11.443 8.309c2.297-.758 4.318-1.164 6.549-.894-.047.133-.095.266-.232.442-1.074 2.17-1.881 4.434-2.602 6.88-.043-.091-.133-.048-.176-.138-1.741-.17-3.62-.164-5.327.204a51.75 51.75 0 0 1 1.608-6.409l.181-.085zm3.572 6.827l.09-.042c-.769 2.578-1.271 5.252-1.64 7.973-1.237-.741-3.335-.963-4.819-.591.136-2.279.496-4.553.856-6.827 1.883-.229 3.634-.506 5.512-.513zm-4.147 8.056c.894.019 1.694.303 2.54.455-.317 2.364-.544 4.686-.68 6.964l-.043-.09c-.043-.091-.129-.271-.262-.319-.623-.147-1.475-.075-2.145-.089a8.88 8.88 0 0 0-1.879.007c-.044-2.193-.089-4.386.09-6.574.899-.205 1.617-.325 2.378-.354zm6.67 14.988c.181-.086.275-.352.19-.533l-.359-2.154c1.666 1.644 4.25 2.189 6.504 1.341-.87.966-1.873 1.885-2.876 2.804-1.109-.47-2.26-1.031-3.459-1.458zm14.24-26.904c.601 1.265-.102 2.816-1.362 3.193-1.17.334-2.502-.141-3.245-1.006-1.357-1.459-.968-2.972-.798-4.713.048-.133-.038-.314-.171-.362 1.626-.771 3.367-.601 4.943 1.086.48.547.871 1.136 1.038 1.721-.043-.09-.043-.09-.176-.138s-.314.039-.229.219zm-3.354 4.36c1.779.484 3.814-.593 4.336-2.058.187 1.793.012 3.757-.158 5.498 0 0 .043.091-.047.134-1.95 1.257-4.242 1.791-6.464 1.075-2.621-.859-3.697-2.894-4.812-5.243-.043-.091-.086-.181-.219-.229.332-.932.707-1.774 1.216-2.569.65-1.194 1.658-2.337 2.747-3.075-1.254 2.256.998 5.836 3.401 6.467zm3.975 4.644c-.356 2.05-.887 3.963-1.552 5.828-4.417 1.654-9.256-.146-10.948-4.877-.171-.362-.395-.366-.709-.328.052-.357.238-.666.29-1.023.336-1.156.721-2.445 1.148-3.644 1.15 4.989 7.648 6.554 11.771 4.044zm-1.927 6.67c-.565 1.375-1.173 2.66-1.957 3.807-.133-.048-.266-.095-.447-.01-3.266 2.215-7.723 1.452-9.98-1.904-.129-.271-.443-.233-.624-.147.27-2.231.72-4.548 1.346-6.727 2.006 4.693 7.15 6.901 11.662 4.981zm-2.698 5.044c-.969 1.456-1.981 2.822-3.26 4.093-.086-.181-.262-.319-.533-.19-2.525.977-5.008-.058-6.575-2.193-.043-.09-.176-.138-.176-.138-.063-1.298.008-2.549.121-3.71 2.214 3.266 7.067 4.395 10.423 2.138zm-6.025 8.062c4.763-3.257 8.27-8.463 10.259-13.835l.271-.128c.181-.086.095-.267.009-.448l.048-.133c.617-1.732 1.2-4.001 1.65-6.318l.091-.043c.138-.176.142-.399-.034-.537.535-4.238.089-8.676-3.266-10.847-5.872-3.744-10.028 4.759-11.414 9.069-2.197 6.799-4.223 13.959-2.624 21.059-.49-.099-.933-.332-1.423-.432-.4-.142-.89-.242-1.38-.341.09-.043.047-.133.095-.267.383-9.922 1.037-19.973 5.473-29.052 3.966-7.97 11.501-13.317 15.905-20.83-.369 9.251 2.62 18.348 2.203 27.733-.421 9.609-4.61 17.574-10.617 24.742-.267-.095-.542.257-.414.528-.503.571-1.055 1.276-1.649 1.89-.09.043-.138.176-.095.266-1.009-.96-2.07-1.563-3.088-2.076zm3.269 1.99l.09-.042 2.002-1.614c.485.323 1.104.693 1.679.973.752.419 1.504.837 2.213 1.164-.732.79-1.597 1.533-2.462 2.276-1.052-1.051-2.242-1.925-3.522-2.757zm80.67-14.042c.376 1.26.306 2.511.012 3.758-.926 1.546-1.896 3.002-2.865 4.459.087-4.248-1.481-8.485-4.094-11.894 1.698.08 3.439.25 5.18.42.738 1.089 1.48 1.954 1.767 3.257zm-.473-3.096l4.281.625c-.974 1.679-1.991 3.269-2.965 4.949.218-1.875-.14-4.029-1.316-5.574zm-2.845 12.198c-1.202 1.898-2.538 3.75-3.873 5.601-.072-.852-.41-1.798-.573-2.606-.448-2.112-1.078-4.138-1.84-6.211-1.358-3.562-3.211-6.999-6.067-9.518 2.507-.083 5.013-.166 7.515-.025 3.1 3.732 4.577 8.012 4.838 12.759zm-7.39-3.91c1.239 2.844 3.116 7.266 2.695 10.344.047-.133-.219-.228-.267-.095-.052.357.034.537.21.675-1.425 1.894-2.851 3.788-4.362 5.502.116-3.487-.7-7.306-2.652-10.253 1.421-1.671 2.751-3.299 4.215-4.879.366-.395-.158-1.032-.695-.998-1.841.32-3.634.507-5.474.827-1.002-3.51-2.902-6.814-5.577-9.419 1.883-.23 3.9-.412 5.826-.551 2.585 2.647 4.585 5.462 6.081 8.847zm-10.203 13.255c1.415 2.981 2.568 5.644 3.127 8.921-.822.833-1.688 1.575-2.553 2.318-1.183 1.004-2.367 2.009-3.593 2.923.055-2.683-.904-6.102-2.518-8.103l-.043-.091c1.098-1.185 2.286-2.413 3.342-3.688l7.561-8.791c1.586 3.343 2.549 6.538 2.561 10.296-1.33 1.628-2.837 3.117-4.344 4.607-.34-3.048-1.212-6.287-2.993-8.873-.309-.185-.718.119-.547.481zm-25.091 19.434c.553 1.398.973 2.748 1.078 4.137l-7.448 1.1c.028-1.342-.301-2.735-.949-3.867.809-.162 1.66-.234 2.426-.487 4.223-.897 8.236-2.47 12.035-4.494.296.856.772 1.626.977 2.525.291 1.08.268 2.198.245 3.315l-.09.043c-2.164.806-4.366 1.297-6.611 1.698-.058-1.522-.34-3.048-1.073-4.361-.267-.095-.628.077-.59.391zm7.774-3.911l2.582-1.557 2.634-1.914c.848 2.254 1.43 4.413 1.513 6.919-1.855.991-3.662 1.849-5.645 2.568.175-1.964-.045-4.295-1.084-6.016zm5.853-3.995c1.911-1.571 3.646-3.28 5.381-4.989.509 1.308 1.2 2.53 1.662 3.971.42 1.35.616 2.696.945 4.09-2.134 1.566-4.312 3.042-6.618 4.247.051-2.459-.341-5.151-1.37-7.319zm9.033-32.512c2.584 2.647 4.446 5.638 5.809 8.976l-6.82 1.023c-.73-3.639-2.583-7.076-5.672-9.153 2.202-.491 4.447-.892 6.644-1.16-.09.043-.137.176.039.314zm-7.229 1.327c2.765 2.562 4.77 5.153 5.771 8.662-.942.115-1.883.23-2.782.435-1.57.192-3.187.516-4.847.75-.649-3.234-2.502-6.671-5.466-8.253 2.387-.801 4.817-1.511 7.333-2.041-.138.176-.185.309-.009.447zm-2.262 9.929c-3.053.563-6.016 1.084-9.031 1.961-.043-.09-.043-.09-.133-.047-.754-2.521-2.534-5.107-4.743-6.494 2.62-1.244 5.283-2.397 8.032-3.369 2.77 2.338 4.874 4.439 5.875 7.949zm-14.496-4.19c1.052 1.05 2.151 1.968 2.975 3.237.695.998 1.21 2.083 1.634 3.21l-.271.128a46.33 46.33 0 0 0-6.814 2.902c-.625-2.25-2.139-4.741-4.494-5.505 2.177-1.476 4.531-2.814 6.837-4.019.09-.043.09-.043.133.047zm-7.336 4.367c2.075 1.34 3.793 2.628 4.456 5.191l.043.09c-2.035 1.077-3.894 2.291-5.801 3.639-.943-1.988-2.695-3.813-4.874-4.44 1.959-1.704 3.913-3.185 6-4.618.043.091.043.091.176.138zm-6.546 5.099c2.17 1.073 3.669 2.133 4.835 4.125-1.816 1.305-3.546 2.79-5.276 4.275-.363-1.931-2.072-3.665-4.179-3.44-.404.081-.371.618-.014.67 1.827.351 3.326 1.411 3.646 3.251-1.274 1.048-2.505 2.185-3.736 3.323-.277-1.75-1.449-3.519-3.228-4.003 2.343-2.993 4.995-5.802 7.728-8.206.091-.042.091-.042.224.005zm-9.231 9.472a.45.45 0 0 0 .452-.214c.138-.176.185-.31.323-.486 1.775.708 3.003 1.896 3.233 3.78-.319.261-.685.656-1.003.918l-.091.043c-.776-1.403-1.866-2.767-2.914-4.041zm7.367 11.558l-.3-.632c-.043-.091.047-.134.005-.224.047-.133-.129-.271-.219-.228l-.343-.723c.176.138.399.143.627-.076 1.094-.962 2.097-1.881 3.233-2.752-.175 1.964 1.04 3.823 2.719 4.797-2.468.397-4.841.527-5.722-.162zm31.836-12.452c-.822.833-1.73 1.485-2.638 2.138-.818.609-1.636 1.219-2.496 1.738-3.64-1.372-5.974-5.357-4.868-9.091 1.175-.558 2.349-1.115 3.566-1.582.452-.214 1.037-.381 1.803-.634-1.772 3.497.961 7.624 4.633 7.431zm-3.193-7.893c3.196-.963 7.187-1.418 6.386 2.725-.346 1.604-1.225 3.017-2.414 4.245-3.453.421-6.195-3.259-4.071-6.48.138-.176.185-.31.099-.49zm-2.578 12.292a66.68 66.68 0 0 1-5.435 3.243c-1.822-.574-3.364-1.724-4.359-3.354-1.081-1.812-.868-3.463-.736-5.517.047-.134.004-.224-.129-.272.409-.304.86-.519 1.269-.823l3.847-2.158c-.616 3.834 1.761 7.909 5.543 8.881zm-6.519 3.758c-1.807.857-3.656 1.625-5.416 2.349-.043-.09-.176-.138-.309-.185-3.834-.616-5.545-4.453-3.82-7.817.047-.134.095-.267.052-.357l4.402-3.086c-1.548 3.502 1.585 7.771 5.091 9.096zm-6.676 2.726l-2.026.629c-.494.124-2.068.539-3.999.902 0 0-.043-.091-.133-.048-2.127-.983-2.847-2.966-2.801-5.201l-.086-.181c1.593-1.309 3.095-2.576 4.73-3.794-1.229 3.24.842 6.905 4.315 7.693zm-12.012 3.376l-.215-.452c3.164.602 9.731-1.187 10.72-1.435 3.329-.915 6.577-2.235 9.653-3.916l.181-.086c2.216-1.162 4.298-2.372 6.385-3.805.133.047.181-.086.228-.219.59-.391 1.179-.781 1.816-1.305.999-.695 2.591-2.004 3.922-3.632l.452-.214c.18-.086.185-.31.052-.357 2.11-2.551 3.468-5.52 1.098-7.716-1.538-1.373-4.096-.934-5.942-.39-2.743.748-5.359 1.768-7.888 2.969-.224-.005-.405.081-.452.214l-1.355.643c-7.641 3.958-14.282 9.324-20.661 15.008-.091.042-.138.176-.186.309-.776-1.403-1.509-2.715-2.376-4.075l.271-.128c7.296-6.784 14.721-13.296 24.356-16.319l.043.091c.128.271.49.099.494-.124.181-.086.405-.081.585-.167 2.835-.792 5.621-1.45 8.494-1.928.043.09.224.005.224.005l7.719-1.228c.042.09-.005.223.038.314-.005.223.399.142.404-.082-.043-.09.005-.223-.038-.313 2.378-.354 4.665-.665 7.086-.928l.172.361c.128.271.533.19.404-.081-.043-.09.005-.224-.081-.404 1.255-.153 2.421-.264 3.633-.507l-9.257 10.813c-3.346 3.913-6.692 7.825-10.604 11.01l-.086-.181c-.262-.318-.628.077-.499.348l.128.271c-.09.043-.137.176-.228.219-4.183 3.313-9.109 5.762-14.24 7.311-4.727 1.469-9.982 2.524-14.45.106zm3.116 7.266c-.763-2.074-1.616-4.104-2.469-6.135.838.599 1.68.974 2.66 1.173.191 1.57.873 3.239 1.335 4.68-.585.167-1.122.2-1.526.282zm.947-4.767c1.337.251 2.726.145 4.115.04.69 1.222 1.067 2.482 1.263 3.828-1.479.148-2.915.387-4.352.626-.372-1.484-.563-3.053-1.026-4.494zm.244 7.743l-.181.086-.886-2.568c2.012.041 4.071-.05 6.088-.233 0 0 .043.091-.048.134-.004.223.353.275.357.052-.043-.091.048-.134.005-.224 2.554-.216 5.112-.655 7.628-1.185l.043.09c.038.314.395.366.447.01-.043-.091.048-.134.005-.224 8.674-2.014 16.805-5.872 23.769-11.723s12.434-12.985 17.418-20.442c.043.091.224.005.181-.086.047-.133.004-.223.004-.223 2.861-4.235 5.412-8.656 8.006-12.986.275-.353-.029-.761-.386-.813-4.101-.711-8.296-1.155-12.496-1.376-.177-.137-.267-.095-.448-.009-23.778-.891-48.059 7.422-62.647 27.295-.09.043-.047.134-.138.177-.523-.637-1.047-1.274-1.618-1.778.969-1.456 2.029-2.955 3.174-4.274l2.519-2.856c8.417-9.086 19.643-15.52 31.698-18.806 7.557-2.036 15.404-2.993 23.233-3.056 3.982-.008 7.958.208 11.797.6 3.748.435 8.22.527 11.299 3.05-4.814 5.717-9.41 11.661-13.562 17.838-4.106 6.043-8.082 12.358-13.244 17.575-9.093 9.296-20.891 13.124-33.194 15.421-2.816-.103-5.774.194-8.823.534zm.559 9.808c.118-1.384.145-2.726.082-4.024.134.047.224.004.314-.039.947-.338 1.845-.543 2.744-.748.081.404.163.808.153 1.255-.018.895-.17 1.741-.364 2.498l-2.929 1.058zm3.858-4.931c1.213-.243 2.469-.396 3.634-.507.072.852.325 1.617.263 2.421l-.298 1.47c-1.342-.027-2.687.169-4.081.498.518-1.242.769-2.579.482-3.882zm49.205 36.975l-5.793 1.089c1.383-1.985 2.637-4.24 3.491-6.638l1.342.028c.713.104.822-.833.246-1.114-.309-.185-.709-.327-1.018-.513 1.101-3.511 1.579-7.169 1.158-10.622.176.138.219.228.395.366 1.361 1.236 2.765 2.562 4.079 3.931-.09.043-.138.176-.095.266.75 4.847-.645 9.604-3.805 13.207zm4.866-12.603l2.057 2.234c.699.775 1.485 1.73 2.227 2.595-.321 2.588-1.214 4.672-3.129 6.467-1.708.367-3.372.825-5.08 1.192 2.89-3.474 4.323-7.918 3.925-12.488zm-39.745 7.682c.025.984.23 1.883-.15 2.949-.147.623-.56 1.151-1.016 1.589-2.355-.764-4.62-1.571-6.79-2.644 1.098-1.186 1.982-2.822 2.194-4.473 2.484 1.035 4.972 1.847 7.508 2.525 1.87.441 3.787.749 5.751.923l-.047.134c-.066 1.027.049 1.969-.374 2.944-.375.842-.793 1.594-1.477 2.251-2.051-.355-4.054-.844-6.142-1.513.366-.395.689-.88.969-1.456.423-.975.721-2.445.026-3.444-.086-.18-.447-.009-.452.215zm-12.66-4.286c.19-.533.251-1.337.084-1.922 1.899 1.202 3.979 2.318 5.972 3.254-.061.804-.255 1.56-.54 2.359s-.703 1.552-1.297 2.166c-.443-.233-.885-.466-1.285-.608-2.655-1.397-5.125-3.103-7.457-4.985-.923-.779-1.799-1.692-2.632-2.514.546-.481 1.007-1.142 1.202-1.899.147-.623.436-1.646.136-2.278a32.06 32.06 0 0 0 4.84 3.902l.043.09c.163.808.42 1.35.178 2.24-.195.757-.746 1.461-1.469 1.804-.361.171-.104.713.258.542.993-.472 1.725-1.262 1.967-2.151zm20.828 5.169c2.188.179 4.291.178 6.44.043 0 0 .043.09-.047.133-.066 1.028.23 1.884-.017 2.997-.289 1.023-.845 1.951-1.577 2.741-.09.043-.048.133-.138.176-1.698-.08-3.306-.202-4.999-.505-.581-.057-1.071-.157-1.651-.213 1.459-1.357 2.442-3.484 1.989-5.372zm7.042 3.41c.29-1.023.407-2.407-.112-3.267.091-.043.224.004.314-.039 2.554-.216 5.023-.612 7.534-.918-.09.042-.181.085-.138.176-.109.937.187 1.793.035 2.64-.156 1.07-.664 1.865-1.13 2.75-.142.399-.285.799-.337 1.156-2.554.216-5.194.251-7.786.153.818-.61 1.331-1.628 1.62-2.651zm7.397 1.36c.371-.619.742-1.237.936-1.994.247-1.113.455-2.54-.24-3.538-.043-.091-.043-.091-.134-.048 2.826-.344 5.651-.689 8.557-.629-.854 2.398-2.018 4.61-3.405 6.818a64.13 64.13 0 0 1-6.502.761c.237-.666.651-1.194.788-1.37zm9.935-8.921c-.004.224-.142.4-.147.623-2.212-1.163-4.33-2.594-6.357-4.067 1.895-3.002 2.477-7.374 2.641-10.994l4.793 4.035c.017 3.534.081 6.935-.93 10.403zm-5.31-9.324c-.441 1.87-1.149 3.645-1.723 5.467-1.408-1.103-2.727-2.248-4.045-3.393a.76.76 0 0 0 .318-.262s.048-.133-.043-.09l-.085-.181c-.043-.091-.224-.005-.181.086-.172-.362.859-2.622.911-2.979.199-.98.441-1.869.507-2.897.213-1.65.207-3.529-.028-5.189 1.676 1.197 3.351 2.395 4.936 3.635.048 1.969-.169 3.843-.567 5.803zm-5.107-3.996c-.217 1.874-.925 3.649-1.232 5.566l-5.974-5.356c1.663-2.561 2.36-5.991 1.302-8.92-.172-.361-.757-.194-.675.21.52 2.963.375 5.689-1.022 8.344-1.713-1.512-3.384-2.933-5.235-4.268 1.125-2.526 1.594-5.737.484-8.31 3.15 1.273 6.114 2.854 9.074 4.66 1.061.603 2.075 1.34 3.046 1.986.225 2.107.497 4.08.232 6.088zm-12.625-8.177c-.113 1.161-.359 2.274-.649 3.297l-1.056-.827c-1.5-1.06-3.046-1.986-4.55-2.822.888-1.861 1.296-4.268.666-6.294 1.78.484 3.469 1.011 5.11 1.671.234 1.66.649 3.234.479 4.975zm-6.048-3.882c-.023 1.118-.269 2.231-.74 3.34-1.903-.979-3.987-1.871-6.123-2.407.565-1.375.83-3.383.325-4.914 2.055.132 4.015.53 6.017 1.018.248.99.544 1.846.521 2.963zm-7.108-2.382c.158 1.032.002 2.102-.378 3.168-2.003-.489-3.92-.796-5.932-.838.384-1.289.592-2.716.125-3.934a49.09 49.09 0 0 1 5.727-.061c.124.495.381 1.037.458 1.665zm-15.433 8.763c.043.09.176.138.357.052l4.295-.046c-1.137.871-1.839 2.422-2 3.716-.251 1.337-.012 2.773.678 3.995-1.68-.974-3.312-2.081-4.901-3.097.655-1.418 1.134-2.974 1.571-4.62zm15.046 1.383a43.84 43.84 0 0 1 4.134 1.248c.533.189.975.422 1.508.612-2.34.668-4.093 3.271-4.633 5.63-.356 2.051.05 4.072 1.179 5.75-.8-.285-1.599-.569-2.441-.945-.933-.332-1.908-.755-2.793-1.22-1.305-1.816-1.977-3.932-1.393-6.202.336-1.156 1.738-4.034 3.312-4.449l.042.09s.043.09.134.048a.55.55 0 0 0 .58.056c.138-.176.276-.352.371-.618zm9.401 10.481c-.617 1.732-.206 3.529.884 4.894-.714-.104-1.337-.251-2.093-.446-1.604-.346-3.159-.825-4.715-1.304-1.305-1.817-1.929-4.066-1.303-6.245.674-2.312 2.352-3.44 4.168-4.745.09-.043.138-.176.185-.309 2.127.983 4.116 2.142 5.92 3.61.395.366 1.056.827 1.628 1.331-1.96-.398-4.194 1.658-4.674 3.214zm5.421-2.572c2.018 1.92 4.203 4.425 3.672 6.337-.342 1.38-1.189 1.228-2.444 1.381-.942.115-1.836.097-2.73.079l-1.741-.17c-1.271-1.279-1.767-3.257-.884-4.894.418-.752 1.103-1.409 1.825-1.752s1.484-.372 2.117-.672c.09-.043.137-.176.185-.309zm-20.266-4.219c-.807 2.265-.501 4.776.756 6.725-1.86-.888-3.54-1.862-5.353-2.883l-.085-.181c-1.091-1.364-1.506-2.938-1.112-4.675.346-1.603 1.349-2.522 2.356-3.664.091-.043.048-.133.048-.133 2.145.089 4.376.358 6.517.67-1.45.91-2.747 3.075-3.127 4.141zm-11.363.079c5.312 4.896 11.773 8.249 18.525 10.58 3.554 1.191 7.288 2.297 10.994 2.641 1.964.175 6.298.443 7.238-1.774.988-2.351-2.211-5.592-3.477-7.095-2.362-2.643-5.269-4.805-8.457-6.391-6.995-3.543-14.896-4.332-22.549-4.131-.091.042-.091.042-.224-.005a14.2 14.2 0 0 0 .407-2.407c.091-.043.224.004.314-.038 2.302-.982 4.684-1.559 6.967-1.646.086.18.353.275.49.099l.091-.043c6.802-.128 13.444 3.139 18.95 7.278l-.142.4c-.138.176.171.361.309.185.048-.133.138-.176.185-.309.486.323 1.014.736 1.409 1.102 7.13 5.694 13.251 12.529 21.212 16.942-4.338-.044-8.694.805-12.998 1.298-5.023.613-10.032.555-15.065-.488-9.842-2.081-18.051-7.483-24.882-14.646.28-.576.47-1.109.703-1.552zm-3.439 6.281c.831-1.28 1.663-2.56 2.318-3.978 1 1.408 2.138 2.639 3.366 3.827-.134-.048-.224-.005-.271.129-.053.356-.014.67.024.984-.009.447-.061.804-.113 1.161-.238.666-.608 1.285-1.022 1.813l-3.498-3.874c-.219-.228-.533-.19-.804-.062zm13.822 26.094c-.815-1.716-1.672-3.523-2.577-5.197a89.81 89.81 0 0 0-3.672-6.338c2.589 2.424 5.549 4.23 8.875 5.64 0 0-.048.133-.005.224.578 2.382-.453 4.642-2.621 5.671zm5.978-1.398c-1.147-.784-1.704-1.958-1.991-3.261.005-.224-.033-.538-.119-.718 2.174.849 4.443 1.433 6.67 1.926-.091.043-.048.133-.005.224-.36 2.273-2.923 2.936-4.555 1.829zm9.467 2.923c-2.321-.226-3.707-2.446-3.751-4.639l-.043-.091c2.45.498 4.995.729 7.407.913-.048.133.038.314.214.452.747.641-.717 2.222-1.216 2.569-.727.567-1.807.858-2.611.796zm8.866-.444c-2.111.449-4.229-.981-3.779-3.298.894.019 1.698.08 2.55.008 1.341.027 2.639-.035 3.938-.098-.256 1.56-1.092 3.064-2.709 3.388zm7.188.685c-2.055-.132-3.355-2.171-3.271-4.093 2.24-.178 4.528-.488 6.725-.756 0 0 .043.09-.047.133.448 2.111-.772 4.904-3.407 4.716zm8.812-2.19c-1.926.14-3.335-.963-4.197-2.546-.043-.09-.086-.181-.038-.314 2.558-.439 5.207-.922 7.68-1.542 0 0 .043.09-.047.133.092 2.06-1.248 4.135-3.398 4.269zm9.298-1.866c-2.074.762-4.282-.625-4.868-2.56l-.086-.181 7.238-1.775s-.047.133-.004.224c.144 1.703-.521 3.568-2.28 4.292zm19.702-11.896c1.357 1.459 1.487 3.833.556 5.603-2.271 3.845-7.266 3.116-9.936.287-.305-.408-1.071-.156-.994.472.62 2.473-2.066 4.744-4.312 3.043-.838-.599-1.176-1.545-1.652-2.316l13.715-3.52c.495-.124.775-.7.38-1.066-1.048-1.274-2.005-2.59-3.052-3.864 1.841-.32 3.938-.098 5.295 1.361zm-5.99-2.36c-1.481-1.954-3.052-3.865-4.58-5.685 3.722-2.652 7.912 2.444 4.58 5.685zm-5.052-6.679l-.271.129-4.455-5.191c3.555-3.237 7.925 1.773 4.726 5.062zm-4.645-11.189c1.171 1.769.145 3.805-.781 5.352-1.576-1.688-3.109-3.285-4.732-4.839 1.502-1.266 4.213-2.552 5.513-.513zm-5.969-5.58c1.49 1.507.916 3.329-.015 5.099-.181.086-.228.219-.409.305-1.537-1.373-3.118-2.837-4.745-4.168 1.502-1.266 3.551-3.013 5.169-1.236zm-6.296-4.871c1.941 1.293 1.358 3.562.427 5.332-1.761-1.378-3.612-2.713-5.464-4.048 1.236-1.362 3.138-2.486 5.037-1.284zm-6.055.771c-.485-.323-.971-.647-1.413-.879-1.504-.836-3.007-1.672-4.559-2.375.091-.043.091-.043.138-.176 2.619-3.346 7.206-.21 5.834 3.43zm-9.172-8.598c2.05.355 3.569 2.623 2.501 4.569-.048.133-.095.266-.052.357-2.394-1.078-4.835-2.023-7.37-2.701 1.235-1.362 3.004-2.533 4.921-2.225zm8.165 9.74c12.629 7.953 21.96 19.686 31.025 31.323-13.573 3.121-27.044 7.853-41.095 8.101-5.907.147-11.887-.557-17.439-2.46-5.776-1.908-10.406-5.135-15.113-8.989-.134-.047-.176-.138-.267-.095-2.042-2.904-4.209-6.304-6.936-8.552 0 0-.043-.09-.133-.047.551-.704 1.012-1.366 1.563-2.07.043.09-.005.223.038.314 2.939 5.025 8.535 9.121 13.579 11.819 2.831 1.535 5.715 2.712 8.736 3.714-.271.128-.057.58.214.451l.452-.214c2.621.859 5.338 1.451 7.968 1.863 14.043 2.302 29.172-.339 42.468-5.21.361-.172.151-.847-.21-.675-2.25.624-4.542 1.159-6.834 1.693 1.459-1.357 2.571-3.212 2.926-5.263 1.047 1.274 2.185 2.505 3.418 3.47.219.228.494-.124.409-.305-1.192-2.976-4.309-5.814-6.409-8.138-2.494-2.691-5.169-5.295-7.982-7.724-1.756-1.601-3.603-3.16-5.54-4.676.005-.224-.304-.409-.485-.323-3.213-2.571-6.653-4.923-10.189-7.009-9.636-5.61-21.677-9.526-32.829-6.668a.35.35 0 0 0-.495.124c-.989.248-1.935.586-2.882.924-.029-.761-.148-1.479-.311-2.287a.43.43 0 0 0 .19-.533l-.171-.361c.09-.043.223.004.223.004.043.09.219.228.4.143 2.464-.173 4.927-.346 7.396-.743a78.77 78.77 0 0 1 14.122.603c7.222 1.222 14.054 3.957 20.193 7.796zm-13.55-11.059c-.113 1.161-.76 2.132-1.406 3.103-3.782-.973-7.707-1.545-11.683-1.761 4.09-.945 8.099-2.294 11.893-4.095.262.319.571.504.833.822.39.59.467 1.218.363 1.931zm3.171-1.947c-.989.248-2.055-.132-2.802-.774-.129-.271-.305-.409-.481-.546 1.626-.772 3.21-1.634 4.66-2.544 1.223 1.412.554 3.501-1.377 3.864zm7.584-3.378c-1.768 1.171-3.809.369-5.166-1.09 1.768-1.172 3.584-2.476 5.177-3.786 1.357 1.46 2.029 3.576-.011 4.876zm6.052-4.975c-1.012 1.366-2.715 1.51-4.043.811-.257-.542-.695-.998-1.314-1.369.685-.656 1.412-1.223 2.097-1.88.822-.833 1.735-1.709 2.514-2.632 1.314 1.369 1.943 3.395.746 5.07zm-.104-5.817c1.696-2.023 3.26-4.093 4.913-6.206l.043.09c3.775 3.522-.769 9.109-4.956 6.116zm11.214-8.09c-1.159 1.989-3.855 2.605-5.659 1.136-.043-.09-.133-.047-.266-.095l4.609-6.614c.047-.134.185-.31.275-.353 1.443 1.64 2.201 3.937 1.041 5.926zm3.934-6.405c-1.488.596-2.768-.236-4.11-.263l-.085-.181c1.43-2.118 2.993-4.188 4.514-6.348 0 0 .043.09.133.047 2.56 1.663 2.615 5.511-.452 6.745zm7.595-8.253c-1.868 1.661-4.503 1.473-6.725.756 1.886-2.555 3.725-4.978 5.788-7.396.043.091.086.181.219.229 2.432 1.392 3.043 4.312.718 6.411zm5.603-13.617c1.934 3.842-1.949 7.788-5.851 6.097.827-1.057 1.697-2.023 2.524-3.079.228-.219.147-.623-.072-.852-1.623-1.554-3.707-2.447-5.886-3.073 2.6-2.451 7.261-2.892 9.285.907zm-13.432-5.912c2.321.226 3.389 2.708 2.719 4.797-2.183-.403-4.462-.539-6.559-.761.09-.043.138-.176.095-.267.047-.133-.039-.314.009-.447.174-1.964 1.729-3.587 3.736-3.322zm-8.938-.408c2.335-.444 4.211 1.876 4.032 4.064-.048.133-.005.224.038.314-.447-.009-1.027-.066-1.474-.075-1.832-.127-3.663-.254-5.452-.291.17-1.741.835-3.606 2.856-4.012zm-7.449-1.003c2.454.274 3.745 2.761 3.385 5.035-2.459-.051-4.965.032-7.429.205.047-.133.095-.266.052-.357.047-.133-.038-.314-.081-.404-.13-2.373 1.618-4.753 4.073-4.479zm-9.132.349c2.278.137 3.626 2.043 4.031 4.064-.004.224.081.404.077.628l.128.271c-1.612.101-3.315.245-4.884.436-.852.072-1.75.277-2.602.349.048-.133.005-.223-.081-.404-1.647-2.539.472-5.537 3.331-5.344zm-18.081 4.817c1.992-1.166 4.561.049 5.186 2.299.21.675 1.332.474 1.122-.201l-.085-.181c-.844-2.477 1.228-5.342 3.992-4.883 1.96.399 3.264 2.215 3.27 4.093-4.894.884-9.706 2.172-14.347 3.821-.862-1.584-.95-3.867.862-4.948zm-6.676 2.726c2.163-.806 3.962.887 4.145 2.903-1.94.81-3.971 1.663-5.825 2.654l-.043-.091a7.4 7.4 0 0 0-.239-1.436c-.234-1.66.069-3.353 1.962-4.03zm-7.167 2.626c1.76-.724 3.534-.017 4.13 1.471.034.538.115.942.239 1.437.086.18.129.271.262.318-3.029 1.548-5.929 3.367-8.744 5.367l-2.091 1.657c1.059-1.499 2.029-2.955 2.955-4.502 1.112-1.856 2.047-3.849 2.893-5.8.043.09.176.138.356.052zm.213-1.651c.807-2.264 1.481-4.577 1.931-6.893 3.997 1.424 2.622 7.389-1.931 6.893zm2.986-14.7c.224.005.357.053.581.057 1.783.26 3.226 1.9 3.008 3.775-.222 2.097-2.394 3.35-4.354 2.952.35-1.827.477-3.658.604-5.49.01-.447.019-.894.161-1.294-.133-.047-.09.043 0 0zm-.139-8.457c2.331-.22 4.976 1.624 4.655 4.211-.175 1.965-2.081 3.312-3.96 3.319-.223-.005-.357-.053-.58-.057-.091.043-.091.043-.224-.005.051-2.459-.032-4.965-.157-7.562.133.047.223.004.266.094zm4.082-4.925c-.093 2.368-2.347 3.217-4.192 3.76l-.091.043c-.177-2.24-.398-4.571-.709-6.858 1.651.213 4.948.862 4.992 3.055zm-5.939-11.35c2.396-1.248 5.442.738 5.116 3.549-.356 2.051-2.31 3.531-4.279 3.58l-.502-3.857c-.158-1.032-.225-2.107-.383-3.139-.043-.09 0 0 .048-.133zm3.786-5.782c.663 2.563-1.9 3.226-3.535 4.445-.181.086-.271.129-.495.124-.344-2.825-.822-5.697-1.39-8.527 2.131.759 4.843 1.576 5.42 3.958zm-6.919-11.548c1.845-.544 4.153.353 4.601 2.465s-1.376 3.863-3.26 4.093l-.09.043c-.358-2.155-.76-4.4-1.384-6.649l.133.048zm-1.159 1.989c.453 1.888.949 3.866 1.312 5.797.726 3.862 1.271 7.809 1.816 11.757.962 7.624 2.056 15.295 1.629 23.025-.337 7.687-2.406 14.756-6.344 21.385-1.853 3.093-3.925 5.958-6.13 8.775-.228.219-.323.486-.551.705-2.785 2.76-5.261 5.707-7.475 8.971-.919-1.003-1.885-1.873-2.942-2.699 10.259-7.304 16.901-19.2 19.298-31.407 1.351-6.951.956-13.847-.2-20.715l-4.257-25.763a.59.59 0 0 0-.751-.418c-13.48 7.283-24.059 19.277-30.118 33.332a.26.26 0 0 0-.142.399c-1.975 4.701-3.508 9.635-4.461 14.625l-.271.129c-.361.171-.147.623.119.718l-.299 1.47c-.308 1.917-.525 3.791-.609 5.713l-.181.086c-.271.128-.142.399.124.494-.216 3.977-.075 8.005.38 11.996l.129.271c-.58-.057-1.251-.071-1.788-.037-.043-.09.047-.133.005-.223-1.928-15.025.035-30.014 7.246-43.509a68.12 68.12 0 0 1 14.427-18.58c3.009-2.756 6.146-5.241 9.546-7.408 1.678-1.128 3.532-2.119 5.296-3.067 1.132-.647 2.573-1.11 3.443-2.076.272 1.974 1.168 4.095 1.75 6.254zm-.403-10.878c3.464 1.234 4 5.629 1.181 7.852-.42-1.351-.93-2.658-1.577-3.79-.129-.271-.486-.323-.667-.237-1.831-.127-3.866.949-5.677 2.03l.047-.133c-.326-3.719 2.873-7.009 6.693-5.722zm-14.142 4.719c1.963-1.928 5.074-.969 6.236 1.246.086.181.219.229.262.319-.409.305-.86.519-1.179.781-1.721 1.038-3.49 2.209-5.168 3.338-1.447-1.417-1.706-4.061-.151-5.684zm-6.418 5.37c1.502-1.266 3.51-1.002 4.961.191.172.362.434.68.653.908l-1.407 1c-1.455 1.133-2.867 2.357-4.279 3.58l-.128-.271c-1.4-1.549-1.483-4.056.2-5.408zm-7.454 5.751c1.783-1.842 4.817-1.511 6.522.447.043.091.176.138.309.186a55.66 55.66 0 0 0-5.67 6.011c-.043-.09-.043-.09-.176-.138-2.118-1.43-2.858-4.621-.985-6.506zm-5.26 7.809c1.55-1.399 3.738-1.22 5.465-.379l.134.047-2.158 2.684c-.737 1.014-1.473 2.028-2.167 3.132-.043-.091-.176-.138-.219-.228-2.308-.898-2.833-3.637-1.055-5.256zm.352 6.807c-1.202 1.898-2.318 3.978-3.344 6.014-4.206-2.099-.776-7.933 3.344-6.014zm-3.857 7.033c-1.168 2.436-2.204 4.919-3.062 7.541-.043-.09-.086-.181-.219-.228-1.585-1.241-2.571-3.318-1.859-5.317.936-1.993 3.194-3.065 5.14-1.996zm-5.237 6.691c-.357-.052-.761.029-1.075.067.233-.442.418-.751.518-1.241a2.85 2.85 0 0 0 .557 1.174zm-2.072-3.666c.772 1.626.245 3.315-.81 4.591-.228.219-.456.438-.594.614l-.181.086c-1.162-2.216-2.505-4.346-3.895-6.343l.09-.043c1.687-1.575 4.404-.983 5.39 1.095zm-6.175-2.05c-1.566-2.135-3.404-4.141-5.198-6.056 4.046-3.138 8.896 2.419 5.198 6.056zm-5.93-11.797c1.675 1.198 1.311 3.695-.101 4.919l-.09.042c-1.052-1.05-2.194-2.058-3.203-3.018-.352-.275-.747-.641-1.099-.917.09-.043.181-.086.228-.219 1.008-1.142 2.853-1.686 4.266-.807zm-5.359-4.762c1.576 1.688 1.049 3.376-.015 5.099-2.023-1.696-4.183-3.217-6.344-4.738 1.739-1.932 4.565-2.276 6.359-.361zm-7.282-.418l-5.825-3.877c2.718-3.836 8.186-.011 5.825 3.877zm-7.541-9.593c1.766 1.154 1.629 3.433.613 5.022l-5.211-3.283c.181-.085.271-.128.366-.395.66-1.641 2.686-2.271 4.232-1.344zm-4.785-.054c-.276.352-.461.662-.603 1.061-.09.043-.181.086-.228.219l-5.963-3.701.09-.043c2.418-4.468 7.206-.209 6.704 2.464zM34.27 146.3c4.298-2.372 8.782 1.478 8.062 6.026l-4.987-3.279c-.352-.275-1.027-.065-1.17.334-.674 2.312-1.171 4.762-1.622 7.079l-.043-.09c-1.537-1.374-2.856-2.519-3.124-4.717-.225-2.106.891-4.186 2.883-5.353zm71.087 93.115l-2.228 3.935c-.233.443.386.813.618.371l2.362-3.888c.693-1.104 1.568-2.294 1.952-3.583.095-.267-.3-.633-.528-.414-.96 1.009-1.525 2.385-2.176 3.579zm127.32-48.689a1.36 1.36 0 0 0 1.294.16c.134.048.224.005.447.01s.319-.262.324-.486c-.039-.314-.12-.718-.291-1.079-.129-.271-.343-.723-.653-.908-.533-.19-1.122.2-1.355.643-.37.618-.251 1.337.234 1.66zm.651-1.195c.086.181.262.319.305.409-.09.043-.181.086-.224-.004l-.042-.091c-.043-.09-.134-.047-.134-.047l-.043-.091s.048-.133.138-.176z"/><path opacity=".5" d="M70.189 235.516c1.545-1.176 3.219-2.081 5.025-2.938.015 1.431.744 2.967 1.164 4.318l1.22 3.738c.129.271.49.099.495-.124-.239-1.437-.701-2.878-1.073-4.361-.286-1.303-.482-2.649-1.13-3.781l-.043-.09 4.099-1.392c.675-.21 1.393-.329 2.112-.449.044 2.193.127 4.699.618 6.901-.657-.684-1.314-1.369-1.833-2.229-.348-.499-1.375-.565-1.436.239.145 3.805-2.031 7.383-5.116 9.512l.643 1.355c3.038-1.995 5.205-5.127 5.816-8.737 4.894 5.647 14.041 6.73 19.95 2.154.536 4.395 2.009 8.898 5.346 11.964 2.546 2.333 5.92 3.611 9.239 3.142-4.566 6.705-.084 14.983 5.266 20.192-6.035 1.979-9.968 8.384-8.979 14.666-4.406-1.119-9.037.083-12.451 2.92-.219-.228-.761.029-.59.391l.043.09c-.409.305-.684.657-.96 1.009l.643 1.355c.276-.352.641-.747.96-1.009.986 2.078 2.105 4.204 3.182 6.239-.495.124-.947.338-1.441.462l.514 1.084c14.048-4.453 25.779-15.886 26.5-31.393.305-6.122-1.588-11.976-4.431-17.268-2.925-5.696-6.748-11.187-11.489-15.579-7.815-7.138-18.663-10.403-29.073-8.783-4.937.793-9.583 2.666-13.576 5.447l2.658 5.601c-.41-1.798-1.006-3.286-1.873-4.646zm32.753 64.817c-.939-2.211-1.92-4.512-2.949-6.68 1.093-.962 2.405-1.695 3.803-2.248l.043.09c1.39 1.997 2.6 4.079 3.539 6.29.171.362.58.057.451-.214-.848-2.254-2.01-4.47-3.357-6.376 1.26-.377 2.563-.663 3.904-.635-.047.133-.047.133.038.313 1.039 1.722 2.662 3.276 3.971 4.868-2.991 1.862-6.11 3.453-9.443 4.592zm12.447-7.124c-.865.742-1.773 1.395-2.681 2.047-1.219-1.636-2.39-3.404-3.794-4.73a11.21 11.21 0 0 1 3.52.654c.49.099 1.079-.291.955-.786-.291-1.079-.358-2.154-.382-3.139l1.97 2.054c.7.774 1.443 1.64 2.371 2.195-.637.524-1.231 1.138-1.959 1.705zm2.234-2.057c-.519-.86-1.309-1.592-2.009-2.367-.833-.822-1.618-1.778-2.451-2.6.156-1.07.445-2.093.778-3.026.605 1.041 1.889 1.649 2.86 2.295 1.237.742 2.389 1.302 3.768 1.644.267.094.409-.305.143-.4-1.195-.651-2.299-1.345-3.403-2.038-.97-.646-1.979-1.607-3.045-1.986 0 0-.133-.048-.224-.005a12.22 12.22 0 0 1 2.809-3.878c.875.912 2.25 1.477 3.402 2.038s2.303 1.121 3.502 1.548c-1.587 3.188-3.615 6.143-6.13 8.775zm6.41-9.351l-3.454-1.681c-1.062-.604-1.985-1.383-3.184-1.81 1.365-1.09 3.038-1.995 4.879-2.315.09-.043.271-.129.409-.305 1.156.337 2.221.716 3.192 1.363-.569 1.598-1.139 3.197-1.842 4.748zm2.691-15.556c-3.178.069-6.445.181-9.67.383-.538.034-.466.885.205.899 3.134-.159 6.402-.271 9.584-.564.292 3.182.047 6.398-.821 9.466-.971-.646-2.079-1.116-3.235-1.453l-.086-.18c-.923-.78-1.799-1.692-2.585-2.648 2.093.446 4.329.492 6.445-.181.404-.081.328-.708-.119-.718-2.378.354-4.661.441-6.973-.232-.134-.048-.134-.048-.224-.005-1.876-2.32-3.386-5.035-3.954-7.865 3.496-.33 6.958-1.198 10.373-1.933.458 1.664.825 3.371 1.06 5.031zm-6.2-16.096c.866 1.36 1.643 2.762 2.329 4.208l-.091.043c-2.087 1.433-4.25 2.238-6.805 2.454-.537.034-.375.842.163.809 2.597-.126 4.989-1.15 6.99-2.764.857 1.807 1.667 3.747 2.344 5.639-3.41.512-6.996.885-10.282 1.891-.478-2.872.21-5.855 2.634-8.444.456-.438.165-1.518-.601-1.265-.855.295-1.707.367-2.558.439 1.987-.943 4.122-2.509 5.015-4.593.3.632.514 1.084.862 1.583zm-1.3-2.04c-1.83 1.976-3.075 3.784-5.562 5.075-.09.043-.09.043-.138.176a9.71 9.71 0 0 1-3.867-1.153l.18-.086c2.201-2.594 4.667-5.093 6.468-7.829l.048-.133c1.004 1.183 1.961 2.5 2.871 3.95zm-3.262-4.54l-.181.086c-2.376 2.456-4.315 5.368-6.472 8.053-.09.043-.048.133-.005.223-.928-.556-1.765-1.154-2.598-1.977-.043-.09-.043-.09-.176-.137 1.862-3.541 3.681-7.171 5.276-10.806 1.447 1.416 2.847 2.966 4.156 4.558zm-7.278-7.172c.881.689 1.761 1.378 2.551 2.11-.09.043-.18.086-.228.219-1.772 3.497-3.367 7.132-4.872 10.725-2.709-3.143-3.697-7.323-4.014-11.489.01-.447-.523-.637-.928-.556.195-.757.523-1.465.627-2.179.194-.756.436-1.646.497-2.45a32.16 32.16 0 0 1 6.367 3.62zm-7.076-3.948c-.284.8-.26 1.784-.411 2.631-.199.98-.489 2.003-.778 3.026-3.233 2.751-7.632 3.511-11.638 2.534.479-1.556.469-3.211.724-4.772.265-2.007.753-4.01 1.194-5.879 3.71.121 7.45 1.003 10.908 2.46zm-11.888-2.66a66.8 66.8 0 0 0-.957 5.214c-.26 1.784-.611 3.611-.514 5.447-1.689-.527-3.283-1.32-4.692-2.423.141-2.502-.341-5.151-.334-7.7l-.043-.09c2.154-.359 4.304-.493 6.54-.448zm48.432-116.959c.005-.224.052-.357-.034-.538-.171-.361-.485-.323-.794-.508-.267-.095-.623-.147-.89-.242-.357-.052-.49-.099-.808.162-.637.524-.527 1.689.087 2.283.176.138.309.186.442.233.357.052.628-.076.813-.386.538-.033 1.085-.514 1.184-1.004zm-2.012-.042c-.043-.09.005-.223.095-.266l.133.048-.142.399-.086-.181zm93.708 78.506c-.761.029-1.489.595-1.636 1.219a1.05 1.05 0 0 0 1.091 1.364c.043.09.133.047.176.138 1.784.26 2.157-2.685.369-2.721zm-.479 1.555c-.091.043-.091.043 0 0-.091.043-.091.043 0 0-.091.043-.091.043 0 0-.091.043-.091.043 0 0a.43.43 0 0 1 .189-.532c.271-.129.495-.124.624.147 0 0-.043-.091-.134-.048-.399-.142-.718.12-.679.433z"/></g></g><defs><clipPath id="A"><path fill="#fff" transform="matrix(-.903425 .428746 -.428746 -.903425 350.005 347.459)" d="M0 0h204.9v384.6H0z"/></clipPath></defs></svg>