<svg xmlns="http://www.w3.org/2000/svg" width="163" height="277" fill="none"  ><g clip-path="url(#A)"><path fill-rule="evenodd" d="M81.769 44.741c.543-.368.571-1.154.469-1.804-.129-.829-.446-1.73-1.196-2.103-.807-.402-1.828-.004-2.419.678s-1.073 1.941-1.318 2.81l4.464.419zm-19.369-.149c.268-.408.059-.953-.195-1.37-.325-.53-.799-1.056-1.419-1.096-.667-.043-1.252.522-1.461 1.158a6.14 6.14 0 0 0-.098 2.301l3.173-.993zm28.531 5.69c-.012-.657.614-1.131 1.203-1.422.752-.371 1.668-.63 2.405-.23.793.431 1.055 1.496.838 2.373s-.967 1.995-1.535 2.697l-2.91-3.418zm-18.496-6.036c.774-.524.812-1.643.668-2.568-.184-1.181-.634-2.463-1.702-2.994-1.149-.572-2.603-.006-3.444.965s-1.527 2.763-1.877 4l6.355.597zm24.384 13.351c.193-.966 1.263-1.459 2.218-1.694 1.22-.301 2.646-.384 3.595.44 1.023.886 1.064 2.531.465 3.746s-2.059 2.61-3.117 3.454l-3.161-5.946zM17.457 276.631l1.406.369c.165-.114.294-.272.371-.457s.101-.388.066-.585a.76.76 0 0 0-.655-.569l-.159 1.158c-.064-.012-.124-.04-.175-.08s-.092-.093-.119-.152a.32.32 0 0 1-.038-.129c-.003-.045.003-.091.018-.133.046-.025.097-.036.148-.033s.101.019.144.048c0 0-.085-.122.013-.614 4.753-24.084 11.506-48.106 18.036-71.336 6.367-22.643 12.947-46.057 21.396-68.406 2.774-7.335 5.796-14.681 8.983-21.833l-1.068-.476c-3.195 7.172-6.227 14.538-9.008 21.894-8.468 22.398-15.057 45.836-21.429 68.503-6.537 23.254-13.294 47.296-18.057 71.428-.127.468-.082.965.125 1.403zm-11.35-2.981l20.364-72.107c4.982-17.64 10.135-35.883 17.229-53.109 1.806-4.387 3.778-8.808 5.688-13.084 4.982-11.162 10.133-22.705 12.856-34.831l-1.142-.257c-2.697 12.011-7.825 23.5-12.782 34.61l-5.701 13.116c-7.121 17.289-12.281 35.563-17.274 53.236L4.973 273.352l1.134.298zM80.506 92.109c2.057-3.705 3.655-7.648 4.76-11.74.824-3.084 1.374-6.292 1.906-9.394.586-3.417 1.2-6.942 2.173-10.336.162.033.326.051.491.054-.982 3.395-1.598 6.933-2.186 10.363-.534 3.114-1.086 6.332-1.915 9.437-1.104 4.09-2.697 8.032-4.745 11.74l-.485-.124zm2.319.622c4.02-6.729 6.424-14.3 7.021-22.118l.484.037c-.606 7.849-3.016 15.452-7.042 22.214-.154-.047-.309-.089-.463-.134zm-5.587-1.238c4.503-9.588 7.136-20.612 7.564-32.215l.486.017c-.428 11.573-3.035 22.574-7.497 32.166a2.69 2.69 0 0 0-.553.032zm-1.455-7.358l-.579 1.224c-.908 1.95-1.739 3.938-2.519 5.948-.162-.06-.316-.114-.461-.153.786-2.027 1.622-4.033 2.539-6.001l.58-1.228c.654-1.379 1.334-2.805 1.87-4.256a25.76 25.76 0 0 0 1.18-13.553l.478-.087a26.24 26.24 0 0 1-1.202 13.808c-.544 1.471-1.228 2.908-1.887 4.296zm-1.133 7.188c-.044-.013-.089-.022-.132-.034-.118-.029-.238-.052-.359-.066l1.833-3.894c2.308-5.089 5.024-11.859 5.534-19.1l.082-1.412a27.92 27.92 0 0 1 .351-3.68l.476.089c-.194 1.197-.308 2.405-.343 3.617l-.081 1.421c-.518 7.318-3.253 14.141-5.579 19.266l-1.781 3.793zm-6.391.829l.78-5.118c.323-2.352.637-4.88.747-7.438.049-1.158.056-2.339.064-3.482.01-1.474.019-3 .119-4.5.318-4.786 1.552-9.483 2.745-14.027l.47.123c-1.187 4.521-2.415 9.197-2.731 13.936-.098 1.486-.108 3.004-.118 4.471l-.065 3.499c-.11 2.577-.426 5.12-.751 7.484l-.728 4.788a7.89 7.89 0 0 0-.532.263zm-.484-32.994l.463.149c-1.79 5.574-1.293 11.604-.813 17.435l.405 5.935c.12 3.337-.017 6.678-.41 9.994-.181.126-.357.264-.533.403.43-3.441.583-6.912.458-10.378-.078-1.96-.243-3.971-.403-5.915-.483-5.879-.984-11.958.835-17.625v.001zm-14.899 3.669c.541 6.213 1.153 13.256 4.13 19.217.57 1.142 1.235 2.261 1.879 3.344.012.019.023.039.034.06a52.75 52.75 0 0 1-2.672-8.187c-.71-2.998-1.004-5.465-.928-7.762.098-1.782.312-3.555.642-5.308l1.127-6.811.479.08-1.127 6.811a40.24 40.24 0 0 0-.635 5.244c-.075 2.253.215 4.678.914 7.634a52.29 52.29 0 0 0 4.071 11.247l-1.199-.826c-.03-.052-.056-.105-.085-.157l-1.038-1.776c-.648-1.089-1.317-2.216-1.895-3.374-3.019-6.045-3.636-13.136-4.18-19.393l.484-.043zm8.095-9.236l-.991 4.344c-.452 1.984-.92 4.035-1.059 6.091-.246 3.603.506 7.24 1.235 10.756l.211 1.02c.941 4.599 1.702 9.248 2.315 13.92l-.545-.398c-.601-4.505-1.339-8.989-2.246-13.425l-.208-1.017c-.736-3.55-1.496-7.22-1.245-10.888.142-2.094.614-4.164 1.071-6.167l.991-4.344.471.108zm24.459 40.03l-.477-.192c.992-1.366 1.95-2.762 2.817-4.215 4.035-6.764 5.978-13.745 5.619-20.189l.486-.028c.363 6.543-1.603 13.62-5.688 20.467-.853 1.43-1.786 2.811-2.757 4.158zM27.154 68.538c1.803 5.098 3.728 8.919 6.061 12.028 4.604 6.136 11.37 10.208 17.915 14.144 3.75 2.257 7.577 4.573 11.055 7.291-.004.209-.013.414-.01.632-3.535-2.804-7.45-5.192-11.296-7.504-6.584-3.962-13.392-8.058-18.053-14.269-2.363-3.15-4.311-7.013-6.131-12.159l.458-.163zm8.531 6.879c.069-.07.132-.144.19-.223 3.353 6.289 8.742 11.143 13.669 15.102l4.398 3.442c2.799 2.162 5.653 4.374 8.34 6.774-.026.203-.043.412-.059.622-2.755-2.485-5.691-4.78-8.578-7.01l-4.405-3.448c-4.934-3.964-10.329-8.825-13.726-15.127.058-.045.117-.082.171-.132zm-7.416 2.906c2.014 2.702 4.579 5.04 7.051 7.162 6.798 5.833 14.062 11.099 21.718 15.744l.543.328 2.265 1.402-.886.011-1.629-.996-.545-.33c-7.68-4.659-14.966-9.94-21.783-15.791-2.493-2.141-5.081-4.5-7.124-7.241-1.971-2.642-3.445-5.638-4.871-8.534l.416-.248.202.287-.042.03c1.372 2.79 2.804 5.654 4.685 8.176zm8.705 14.532c-6.204-3.994-13.18-8.991-17.883-15.768l.398-.278c4.655 6.708 11.583 11.669 17.746 15.638l4.374 2.762c4.01 2.511 8.122 5.089 11.935 8.035l-.728.052c-3.674-2.795-7.617-5.266-11.464-7.675l-4.378-2.766zm4.433-14.863c4.094 5.464 8.775 10.462 13.959 14.902 1.383 1.184 2.829 2.351 4.227 3.479l3.038 2.488c-.05.17-.105.338-.146.511l-3.197-2.62-4.238-3.489c-5.098-4.367-9.712-9.269-13.762-14.624l-.017.011-.258-.377.394-.281zm-15.722 2.448c6.099 7.415 14.472 12.62 22.569 17.658l6.797 4.304 1.027.684-.823.037-.47-.313c-2.229-1.464-4.546-2.904-6.787-4.298-8.131-5.056-16.539-10.286-22.688-17.76a44.26 44.26 0 0 1-7.84-14.18l.46-.154c1.701 5.112 4.329 9.865 7.753 14.021h.001zm20.345.655c4.038 5.376 9.241 9.856 14.271 14.191l2.757 2.396c-.068.158-.14.315-.199.474l-2.874-2.501c-5.051-4.35-10.273-8.849-14.343-14.267l.388-.292zm-30.124-7.048c1.337 4.544 4.692 8.215 7.798 11.205a87.15 87.15 0 0 0 12.91 10.309c1.545 1.002 3.154 1.972 4.711 2.909 2.55 1.535 5.147 3.125 7.59 4.919-.032-.004-.063-.013-.096-.016-.296-.028-.589-.068-.884-.102-2.223-1.578-4.562-3.001-6.86-4.384l-4.724-2.918c-4.646-3.036-8.993-6.507-12.983-10.366-3.152-3.035-6.558-6.765-7.926-11.419l.465-.136zm48.725 20.987c-1.053-.834-2.052-1.734-2.989-2.696l.351-.336a30.83 30.83 0 0 0 2.929 2.642c-.106.132-.197.261-.29.39zm-1.052 1.602c-3.752-3.26-7.616-6.635-10.648-10.671l.388-.293c2.981 3.971 6.795 7.311 10.507 10.534-.09.144-.166.287-.247.43zM75.55 78.07c-.468 1.649-1.066 3.282-1.644 4.862l-.412 1.13c-.828 2.293-1.59 4.623-2.33 6.957a9.4 9.4 0 0 0-.426.002c-.205.008-.408.039-.605.093.641-3.946 1.118-7.916 1.564-11.832l.556-4.78c.362-2.978.789-6.134 1.666-9.156.625-2.025 1.351-4.018 2.176-5.97l3.105-7.707.45.183-3.105 7.707c-.774 1.919-1.572 3.901-2.159 5.923-.868 2.985-1.291 6.121-1.65 9.08l-.556 4.775c-.437 3.833-.89 7.721-1.506 11.587a189.95 189.95 0 0 1 2.364-7.028l.413-1.132c.575-1.571 1.169-3.195 1.633-4.828a71.33 71.33 0 0 0 1.554-7.488c.76-4.457 1.545-9.066 3.828-13.043l.422.242c-2.24 3.901-3.017 8.467-3.77 12.883-.387 2.539-.91 5.055-1.567 7.538zM61.079 60.78l.463.149c-.956 2.989-1.054 6.441-.297 10.554.427 2.327 1.08 4.649 1.712 6.894l.964 3.536c.675 2.668 1.204 5.371 1.585 8.096.246-5.739-.165-12.063-1.241-19.165l-.059-.395c-.261-1.717-.532-3.493-.434-5.263.127-1.501.386-2.989.774-4.445l1.74-7.39.473.112-1.741 7.394c-.38 1.427-.634 2.885-.76 4.357-.094 1.719.172 3.47.429 5.163l.059.396c1.227 8.108 1.593 15.211 1.105 21.591-.195-.154-.387-.31-.592-.45-.38-3.33-.984-6.63-1.807-9.879-.301-1.178-.636-2.371-.96-3.525-.635-2.255-1.292-4.589-1.723-6.937-.772-4.196-.669-7.725.312-10.793zm-46.382-.484c.942-.771 2.09-1.246 3.3-1.367 2.261-.175 4.21 1.105 6.174 2.545l16.826 12.328 9.899 7.122L67.1 92.784c-.259.21-.506.428-.747.651-5.266-4.035-10.711-7.933-16.021-11.719l-9.91-7.13-16.826-12.328c-1.317-.965-2.621-1.854-3.975-2.209-.505-.137-1.029-.188-1.551-.151a5.28 5.28 0 0 0-2.777 1.165c-2.744 2.145-3.389 5.882-3.075 8.663.376 3.35 1.988 6.514 3.471 9.217 3.069 5.598 7.423 12.609 13.913 17.179 5.076 3.575 11.503 5.746 19.104 6.456 4.631.432 9.262.277 13.469-.03.004.313.022.642.041.974-4.24.307-8.914.461-13.6.023a49.41 49.41 0 0 1-7.973-1.377c-4.149-1.042-8.078-2.82-11.6-5.25-6.65-4.684-11.084-11.816-14.204-17.506-1.526-2.784-3.189-6.05-3.585-9.576-.436-3.882.884-7.536 3.444-9.539h-.001zM63.41 43.765c2.81-.675 5.683-.47 8.462-.271l9.136.651c1.296.091 2.764.195 4.085.765 1.602.688 2.852 2.006 3.857 3.064 5.1 5.375 10.766 11.761 13.444 19.543 2.925 8.503 1.392 17.401-3.904 22.669-3.378 3.359-6.954 3.885-10.74 4.44l-.362.055c-.183-.186-.395-.341-.627-.46-.104-.053-.208-.098-.312-.149l-.253-.196 1.413-.213c3.624-.533 7.047-1.035 10.198-4.169 5.034-5.007 6.475-13.51 3.67-21.661-2.615-7.598-8.199-13.89-13.23-19.19-.943-.993-2.116-2.229-3.535-2.84-.293-.125-.595-.227-.904-.307a15.71 15.71 0 0 0-2.868-.381l-9.136-.651c-2.705-.194-5.502-.393-8.165.247-6.969 1.677-11.16 8.718-12.221 14.952-1.141 6.696.337 13.554 2.088 20.577.361 1.447.722 2.837 1.115 4.179a2.61 2.61 0 0 0-1.205-.677 129.25 129.25 0 0 1-.852-3.266c-1.778-7.127-3.276-14.095-2.103-20.977 1.115-6.548 5.554-13.953 12.951-15.733h-.001zM.233 19.13c.705-1.541 3.537-1.204 5.823-.636 1.493.236 3.304 1.032 5.006 1.834a55.82 55.82 0 0 1 10.398 6.449c5.893 4.58 11.279 10.363 16.466 17.675 4.79 6.757 8.91 14.071 12.88 21.19a2.27 2.27 0 0 0-.022.699c.022.144.03.289.048.433a3.16 3.16 0 0 0 .039.35l.087.78-.456-.813c-4.125-7.4-8.39-15.054-13.369-22.074-5.13-7.235-10.452-12.95-16.269-17.471a54.89 54.89 0 0 0-10.215-6.338 25.86 25.86 0 0 0-4.039-1.594c-1.012-.266-1.913-.334-2.35.062-.462.42-.409 1.516.149 3.089.529 1.489 1.599 2.742 2.633 3.953l44.148 51.63-.738.633L6.307 27.349c-1.041-1.219-2.221-2.601-2.81-4.26-.704-1.984-.692-3.315.037-4.061-1.321-.123-2.207.048-2.418.509-.238.516-.135 1.165.01 1.897 2.604 13.049 5.561 27.811 13.297 39.746-.277.184-.52.417-.716.687C5.793 49.747 2.805 34.814.173 21.624c-.138-.695-.328-1.648.06-2.493zm72.948 25.175c-.025-.004-.047-.004-.072-.008a3.04 3.04 0 0 0-.784-.06c-.253-2.206-.413-4.437-.551-6.606-.162-2.544-.329-5.174-.674-7.733A55.53 55.53 0 0 0 59.042 2.307a1.55 1.55 0 0 0-.597-.525c-.291-.083-.677.063-1.199.478-3.741 2.983-6.273 7.7-7.969 14.846a69.82 69.82 0 0 0 2.476 40.281c-.192.468-.351.949-.476 1.44a70.74 70.74 0 0 1-2.945-41.945C50.081 9.513 52.72 4.624 56.64 1.499c.509-.405 1.25-.911 2.108-.641.419.172.78.459 1.041.829 6.598 8.05 10.846 17.767 12.274 28.081.349 2.594.517 5.241.68 7.802.141 2.228.302 4.522.567 6.775-.046-.01-.083-.032-.13-.04zm20.088 63.457c7.849 4.784 16.751 7.564 25.926 8.097 2.749.198 5.512.069 8.23-.383 9.104-1.661 16.458-8.063 23.212-14.477 2.062-1.959 3.832-3.769 4.607-6.084.205-.612.461-1.746-.126-2.468-.332-.339-.732-.605-1.174-.779-9.047-4.365-19.642-9.123-30.905-10.346-6.875-.747-13.898-.127-20.581 1.01l.02-.037c.169-.314.282-.655.332-1.009 6.6-1.094 13.526-1.671 20.332-.932 11.418 1.237 22.104 6.037 31.223 10.435.573.232 1.088.588 1.507 1.042.652.804.756 2.007.293 3.392-.846 2.527-2.702 4.43-4.86 6.479-6.86 6.516-14.34 13.021-23.706 14.728a35.81 35.81 0 0 1-8.458.399 56.71 56.71 0 0 1-11.159-1.773 58.52 58.52 0 0 1-4.261-1.293c-3.878-1.351-7.599-3.115-11.1-5.261a4.43 4.43 0 0 0 .648-.743l.001.001zm51.312-20.7c7.091-6.008 14.002-13.609 17.23-23.227.278-.826.221-1.148.172-1.261a6.47 6.47 0 0 1-.214-.121c-.73-.085-2.81 1.049-3.538 1.447l-.905.476-9.271 4.363c-7.237 3.291-13.284 5.704-19.03 7.593l-2.655.852c-2.77.879-5.635 1.787-8.329 2.969-.249.109-.493.233-.74.347a2.38 2.38 0 0 0-.815-.094c-.542.033-1.051.085-1.543.157a50.41 50.41 0 0 1 2.71-1.302c2.74-1.202 5.629-2.119 8.424-3.005l2.644-.849c5.712-1.877 11.729-4.278 18.932-7.553l9.252-4.354c.226-.109.523-.271.863-.456.755-.428 1.533-.814 2.33-1.156a242.95 242.95 0 0 0-40.313 3.045c-5.68.91-11.722 2.117-17.504 4.131-.079-.318-.211-.62-.392-.893 5.867-2.051 11.99-3.276 17.743-4.199a243.94 243.94 0 0 1 41.104-3.05c.354 0 .785.248 1.358.591l.067.04a1.14 1.14 0 0 1 .413.221c.744.625.305 1.939.16 2.37-3.253 9.691-10.129 17.342-17.219 23.399a3.24 3.24 0 0 0-.934-.484v.001zm5.522-40.353a3.65 3.65 0 0 0-1.566.056 143.22 143.22 0 0 0-44.492 16.952c-1.041.611-2.08 1.243-3.099 1.906a3.21 3.21 0 0 0-.268-.888l-.036-.074a81.59 81.59 0 0 1 2.912-1.784 144.17 144.17 0 0 1 44.793-17.067c.573-.115 2.318-.466 3.116.712.557.82.275 1.849-.033 2.656-1.721 4.469-4.093 8.657-7.04 12.43-.135-.015-.271-.017-.406-.008a8.59 8.59 0 0 0-.942.133 47.65 47.65 0 0 0 7.481-12.904c.238-.621.44-1.315.138-1.76a.93.93 0 0 0-.558-.362v.001zM91.421 27.217c.062-.04.122-.085.184-.125 8.62-5.517 18.756-8.402 28.544-8.123.814.022 1.664.084 2.376.575a4.27 4.27 0 0 1 1.19 1.452c5.36 9.297 7.271 20.189 5.396 30.757-.207.039-.409.104-.6.194l-.461.216c2.01-10.516.174-21.405-5.174-30.678-.216-.441-.523-.83-.903-1.141-.488-.339-1.182-.385-1.851-.404-9.597-.272-19.538 2.561-27.996 7.972-.285.182-.559.383-.84.57a2.29 2.29 0 0 0 .134-1.265zm-12.445 4.589c1.746-2.091 3.362-4.301 4.939-6.459.199-.273.55-.852.956-1.524 1.43-2.363 2.641-4.28 3.613-4.998-.117-.031-.237-.056-.357-.073-1.267-.179-2.562.486-3.675 1.122-1.708.977-3.365 2.04-4.966 3.185l-.009-1.17c1.46-1.018 2.954-1.983 4.492-2.859 1.252-.715 2.72-1.459 4.29-1.239.477.066.938.221 1.358.456 0 0 .648.425.998.708 1.259 1.016 1.747 3.434 1.785 4.447.056 1.464-.229 2.901-.504 4.29-.17.857-.346 1.743-.434 2.61-.17 1.663-.034 3.385.098 5.05.189 1.729.222 3.472.099 5.208-.356 2.962-1.25 5.833-2.638 8.473a3.23 3.23 0 0 0-.666-.688c-.018-.013-.037-.023-.055-.036a23.33 23.33 0 0 0 2.392-7.847c.168-1.657.032-3.373-.1-5.032-.135-1.709-.275-3.475-.096-5.225.094-.914.273-1.822.448-2.702.276-1.396.537-2.714.486-4.063-.041-1.087-.573-3.037-1.424-3.726a1.04 1.04 0 0 0-.387-.209c-.118-.03-.24-.034-.36-.012-.708.127-2.707 3.427-3.558 4.836-.436.72-.779 1.287-1.004 1.595-1.934 2.648-3.94 5.367-6.174 7.876a21.08 21.08 0 0 0 .453-1.993zM72.094.854c.883-.55 2.191-1.216 3.385-.631.398.194.679.719.95 1.34.467.463.903 1.202 1.356 2.275 2.333 5.577 3.209 11.657 2.545 17.666-.133 1.236-.24 2.55-.351 3.905-.397 4.866-.848 10.381-2.721 14.512-.789 1.697-1.901 3.222-3.274 4.491-.062-.022-.121-.054-.186-.071l-.469-.123c-.156-.041-.315-.066-.476-.076a13.33 13.33 0 0 0 3.52-4.624c1.804-3.977 2.247-9.402 2.639-14.189l.353-3.929c.645-5.845-.206-11.757-2.473-17.182-.257-.701-.632-1.353-1.109-1.927a.54.54 0 0 1-.106-.102 1.04 1.04 0 0 0-.481-.262c-.574-.117-1.405.387-2.695 1.638-1.766 1.71-3.135 4.161-3.96 7.087-.464 1.738-.79 3.509-.977 5.298-.027-.08-.043-.161-.073-.241a7.2 7.2 0 0 0-.697-1.354 31.39 31.39 0 0 1 .812-3.969c.873-3.092 2.332-5.692 4.22-7.522 1.177-1.14 2.049-1.736 2.808-1.888-.522-.055-1.18.174-2.026.702a34.76 34.76 0 0 0-8.434 7.441c-.139-.305-.28-.61-.451-.912-.009-.015-.019-.027-.028-.042 2.4-2.863 5.235-5.331 8.401-7.314zm17.84 92.734c-.025-.003-.051 0-.076-.005 3.301-3.148 6.452-6.501 8.11-10.71 1.678-4.303 1.647-9.085-.085-13.366l.45-.184c1.779 4.398 1.81 9.31.086 13.73-1.652 4.193-4.728 7.526-7.976 10.642-.166-.05-.336-.086-.509-.107zm6.639-17.037l.484.037a25.21 25.21 0 0 1-6.227 14.755c-.68.768-1.411 1.495-2.158 2.198a11.16 11.16 0 0 0-.757.038 36.13 36.13 0 0 0 2.551-2.559 24.72 24.72 0 0 0 6.105-14.469zm3.171 11.046c.105-.164.203-.336.302-.506 3.588-.291 7.159-1.099 10.638-1.892 4.849-1.104 9.866-2.246 14.902-1.976l-.025.486c-4.968-.268-9.951.868-14.769 1.965-3.607.819-7.313 1.654-11.048 1.922zm1.356-2.889c5.576-.878 11.219-1.654 16.815-2.296l.055.484c-5.673.65-11.394 1.438-17.047 2.332.063-.169.119-.346.177-.521zm8.616 6.609c1.729-.234 3.516-.476 5.289-.614 6.631-.518 13.399.4 19.144 1.368l-.08.48c-5.716-.962-12.448-1.876-19.026-1.362-1.759.137-3.541.378-5.262.612l-4.04.501a96.33 96.33 0 0 1-12.412.304c.362-.143.714-.298 1.056-.459a91.36 91.36 0 0 0 11.306-.328c1.343-.138 2.705-.322 4.025-.501zm17.904 2.268l.059.483c-7.082.842-14.405 1.712-21.668 1.735-6.336.02-11.951-.611-17.039-1.913l1.028-.252c4.808 1.14 10.088 1.697 16.007 1.68 7.234-.023 14.542-.892 21.61-1.732h.002zm-40.014 1.351c1.483.476 2.99.876 4.514 1.198 5.286 1.107 10.661 1.297 15.714 1.397 7.596.149 15.739.105 23.806-1.234l.078.48c-8.105 1.344-16.273 1.391-23.893 1.24-5.075-.1-10.476-.291-15.804-1.406a48.53 48.53 0 0 1-2.335-.551c-.363-.095-.721-.208-1.081-.313l-.942-.733c-.019-.026-.039-.053-.058-.078h.001zm4.643 4.328a13.4 13.4 0 0 0-1.063-1.237c16.017 4.407 33.899 4.099 51.976-.913l.13.468c-16.976 4.707-33.789 5.27-49.056 1.71 4.441 1.167 8.94 2.221 13.492 3.253 1.919.435 4.094.928 6.229 1.213 3.447.462 7.19.46 11.444-.007a68.74 68.74 0 0 0 10.985-2.12l.13.468c-3.623 1.011-7.323 1.725-11.063 2.135-4.292.472-8.074.473-11.56.006-2.157-.288-4.344-.783-6.272-1.221l-13.414-3.225-1.959-.531zm18.129 12.179c-2.691-.706-5.313-1.606-7.798-2.504-2.177-.786-4.495-1.659-6.698-2.71-.598-.285-1.188-.593-1.777-.904a7.01 7.01 0 0 0 .027-.531c.648.346 1.3.683 1.959.997 2.184 1.042 4.489 1.909 6.653 2.691 3.469 1.254 7.204 2.51 11.008 3.231a42.31 42.31 0 0 0 20.921-1.347l.151.462c-6.828 2.223-14.105 2.691-21.161 1.362-1.105-.207-2.201-.461-3.287-.746l.002-.001zm.492-4.403c-1.767-.463-3.509-1-5.225-1.528l-12.049-3.822c-.075-.201-.157-.398-.245-.591 4.155 1.393 8.326 2.68 12.439 3.948 3.697 1.138 7.523 2.318 11.429 2.709 4.33.434 8.628-.059 13.748-.932l.082.48c-5.16.88-9.495 1.376-13.877.937a41.04 41.04 0 0 1-6.304-1.2l.002-.001zm-16.897-.901c.055.03.107.065.162.096 7.398 4.147 16.05 7.073 26.454 8.95l-.085.478c-2.946-.53-5.757-1.146-8.431-1.848-6.829-1.792-12.827-4.157-18.175-7.155-.021-.012-.042-.026-.064-.038a5.47 5.47 0 0 0 .137-.482l.001-.001zm20.13-18.244l-3.589.866c-4.371.97-8.824 1.517-13.299 1.634.198-.161.392-.327.582-.499a69.25 69.25 0 0 0 12.614-1.611c1.196-.266 2.406-.57 3.577-.864 2.193-.551 4.463-1.119 6.74-1.47a37.46 37.46 0 0 1 7.103-.408l-.019.486a36.89 36.89 0 0 0-7.01.404c-2.259.35-4.517.915-6.7 1.463l.001-.001zm5.522.583c-3.306.259-6.636.856-9.856 1.432l-.831.149c-4.675.834-9.282 1.569-13.872 1.744.311-.165.612-.34.906-.524 4.257-.233 8.539-.925 12.882-1.697l.832-.149c3.23-.578 6.572-1.177 9.902-1.439a53.83 53.83 0 0 1 8.749.039c2.489.21 4.961.584 7.401 1.118l-.105.477c-2.418-.529-4.869-.9-7.336-1.109-2.885-.249-5.786-.263-8.674-.04l.002-.001zm-19.49-25.04c3.661-5.503 6.555-11.545 9.359-17.437 2.267-4.762 4.612-9.686 7.343-14.279l.416.249c-2.721 4.575-5.06 9.489-7.321 14.24-2.84 5.967-5.772 12.09-9.505 17.663l-.294-.434.002-.001zm24.445-9.853c-.041-.003-.083 0-.125 0l.966-3.767 1.535-6.134.471.118-1.535 6.134-.904 3.542c-.136.038-.278.067-.409.108l.001-.001zm-9.033-1.708c-.36 1.132-.732 2.301-1.153 3.436-.32.861-.672 1.709-1.056 2.544l-.709.357c.481-1.006.922-2.03 1.309-3.074.416-1.123.787-2.287 1.146-3.413l.965-2.918c1.809-5.089 4.523-9.808 8.011-13.929l.371.315c-3.451 4.076-6.136 8.744-7.925 13.777-.341.962-.655 1.949-.959 2.904zm-16.524 9.91c3.658-5.108 6.774-10.582 9.299-16.336.994-2.29 1.904-4.672 2.785-6.975 1.921-5.02 3.906-10.212 6.88-14.795l.407.266c-2.946 4.539-4.921 9.706-6.833 14.703-.883 2.308-1.795 4.695-2.793 6.994-2.563 5.841-5.733 11.396-9.455 16.574l-.289-.431zm22.01-7.304c2.637-5.067 4.294-10.587 4.886-16.27l.484.048a45.85 45.85 0 0 1-4.711 15.995c-.22.07-.44.15-.659.227zm-7.721-3.399c-1.209 3.045-2.591 6.019-4.138 8.907l-.775.398a83.18 83.18 0 0 0 4.463-9.488l1.915-4.844c2.024-5.202 4.118-10.582 7.013-15.462l.416.249c-2.874 4.845-4.961 10.206-6.979 15.389l-1.915 4.851zm8.692-11.492l.483.058a47.76 47.76 0 0 1-5.123 16.29l-.7.309c2.798-5.172 4.609-10.821 5.34-16.657zm-17.836 23.128c-.313.193-.621.391-.926.596 2.69-4.446 4.858-9.237 6.963-13.928 2.589-5.763 5.264-11.723 8.903-16.983l.398.277c-3.612 5.224-6.279 11.163-8.858 16.906-1.979 4.405-4.009 8.906-6.48 13.132zm-5.781-1.882l-.294-.438c2.133-3.234 4.008-6.631 5.607-10.16 3.351-7.315 5.75-15.13 8.072-22.687l.465.143c-2.327 7.572-4.731 15.402-8.096 22.746a73.93 73.93 0 0 1-5.754 10.396zM95.727 36.88c-2.863 3.506-4.918 7.6-6.02 11.991l-.378-.443c1.135-4.339 3.19-8.382 6.024-11.857 1.226-1.492 2.61-2.885 3.947-4.232 1.85-1.865 3.764-3.793 5.262-5.987l.401.274c-1.523 2.231-3.453 4.175-5.319 6.055-1.33 1.339-2.704 2.725-3.916 4.198zm-4.371.852c.133-.176.25-.353.387-.528 3.317-4.258 7.484-8.077 10.832-11.144l.327.357c-3.334 3.055-7.485 6.858-10.777 11.084-.28.359-.527.72-.791 1.081.021-.284.022-.566.022-.85zm-.617-3.53c2.462-2.799 5.176-5.366 8.108-7.666l.303.38c-2.979 2.335-5.73 4.948-8.215 7.804-.052-.175-.132-.345-.196-.517zm9.17 5.792c-3.098 3.992-5.028 8.835-6.557 13.567L93 53.076c1.525-4.666 3.455-9.423 6.527-13.38.746-.962 1.573-1.895 2.373-2.799 1.865-2.106 3.795-4.284 4.776-6.923l.455.171c-1.011 2.723-2.973 4.935-4.869 7.076-.794.896-1.616 1.825-2.353 2.775zm.067-5.124c-3.54 5.133-5.995 10.886-8.097 16.725l-.351-.461c2.089-5.767 4.536-11.447 8.047-16.539 2.369-3.436 5.209-6.565 7.956-9.594l1.668-1.839.359.328-1.668 1.84c-2.736 3.014-5.564 6.133-7.914 9.541zM97.59 51.576c-.655 1.683-1.325 3.383-2.056 5.052l-.327-.467c.682-1.575 1.313-3.175 1.93-4.761l1.146-2.902a107.08 107.08 0 0 1 11.624-21.336l.397.281c-4.65 6.617-8.532 13.743-11.571 21.239l-1.143 2.896zm-.359 7.542l-.307-.456a64.94 64.94 0 0 0 1.23-2.582l8.901-19.445.441.202-8.901 19.445a57.69 57.69 0 0 1-1.364 2.837zM54.624 23.637c.307 1.97.966 3.904 1.603 5.774l.167.488a200.2 200.2 0 0 1 2.769 8.819c.647 2.242 1.2 4.344 1.63 6.374-.152.073-.3.154-.449.232-.431-2.059-.989-4.191-1.648-6.471-.847-2.936-1.776-5.896-2.763-8.798l-.166-.487c-.644-1.89-1.311-3.844-1.624-5.857-.411-2.653-.208-5.36-.012-7.976l.484.037c-.195 2.589-.396 5.266.007 7.864zm1.048 25.454c-2.08-9.384-4.22-19.084-4.57-28.876l.485-.018c.345 9.633 2.434 19.195 4.486 28.455a21.29 21.29 0 0 0-.401.44zm6.657-4.629c-.157.054-.31.116-.464.176-.592-3.414-1.488-6.798-2.373-10.123-1.598-5.995-3.25-12.194-3.074-18.453a64.94 64.94 0 0 1 .129-2.434c.129-1.976.263-4.02-.073-5.981l.478-.082c.346 2.02.21 4.092.079 6.095l-.128 2.416c-.174 6.19 1.469 12.353 3.058 18.313.881 3.307 1.773 6.672 2.369 10.073zm-4.139-23.877l.485.033c-.286 4.16 1.125 8.245 2.49 12.197 1.33 3.851 2.533 7.43 3.473 11.032l-.478.094c-.935-3.577-2.131-7.137-3.453-10.967-1.381-3.997-2.809-8.13-2.517-12.389zm-4.535 8.991l.484-.036c.322 4.35 1.735 8.589 3.102 12.689l1.35 4.178c-.098.072-.206.131-.302.205-.038.03-.077.064-.116.095a152.5 152.5 0 0 0-1.393-4.324c-1.375-4.128-2.798-8.397-3.125-12.807zm-4.225 8.24c-.21 2.566.205 5.144 1.212 7.514l.321.901c.651 1.873 1.166 3.818 1.664 5.704l.305 1.153c-.114.23-.219.462-.319.695l-.457-1.727c-.495-1.872-1.007-3.809-1.653-5.663l-.319-.895c-1.025-2.425-1.451-5.061-1.24-7.686a29.84 29.84 0 0 0-.064-3.094l.484-.044a30.25 30.25 0 0 1 .065 3.144zm-.398-11.68l.481-.064.369 2.777 4.574 21.751c-.131.179-.258.359-.383.542l-4.589-21.823-.03.005-.143-.822.032-.006-.313-2.36zm21.317 17.76c-.633-7.178-1.863-14.291-3.675-21.264l.469-.123a130.38 130.38 0 0 1 3.699 21.485c-.162-.04-.329-.064-.494-.098zm-6.912-11.178c.735 1.803 1.493 3.668 2.127 5.535.586 1.756 1.072 3.543 1.456 5.354l-.494.017a48.65 48.65 0 0 0-1.423-5.215c-.629-1.853-1.385-3.711-2.115-5.509-1.585-3.895-3.224-7.921-3.675-12.171a45.72 45.72 0 0 1-.165-4.945l.017-5.742.486.002-.017 5.742c-.035 1.632.019 3.265.161 4.891.444 4.183 2.07 8.178 3.642 12.041zm3.537 3.122a67.01 67.01 0 0 1 1.874 7.827 14.77 14.77 0 0 0-.499-.039c-.464-2.584-1.078-5.139-1.841-7.651l-1.302-4.231c-1.022-3.256-2.079-6.624-2.8-10.023-.546-2.578-.905-5.193-1.076-7.823l.485-.032c.169 2.607.525 5.198 1.066 7.754.714 3.377 1.768 6.733 2.788 9.979l1.303 4.239zm13.451 5.124l-.498 3.318-.479-.085c.198-1.1.349-2.208.496-3.298a46.92 46.92 0 0 1 .942-5.401c.801-3.103 2.224-6.011 4.184-8.546l.383.298a23.15 23.15 0 0 0-4.096 8.367c-.414 1.763-.725 3.548-.931 5.347zm4.183-9.307c-.644 1.733-.933 3.6-1.212 5.407l-1.184 7.669-.476-.1 1.18-7.643c.283-1.83.576-3.722 1.237-5.502.58-1.437 1.279-2.823 2.089-4.144l1.514-2.626.421.244-1.519 2.634c-.794 1.295-1.48 2.654-2.049 4.063zm-7.496 12.325a106.89 106.89 0 0 0 2.919-10.899l.476.101c-.773 3.648-1.736 7.253-2.883 10.8-.171-.009-.342-.005-.512-.003zm8.724-11.871a91.29 91.29 0 0 1-1.864 13.068c-.154-.047-.311-.089-.467-.133a90.69 90.69 0 0 0 1.845-12.97l.486.035zm-.496 13.582c.588-3.078.977-6.192 1.164-9.321l.035-.641a22.51 22.51 0 0 1 .515-4.318c.271-.976.607-1.933 1.005-2.865.592-1.478 1.153-2.874 1.229-4.391l.485.025c-.081 1.597-.684 3.097-1.264 4.547a22.49 22.49 0 0 0-.984 2.804c-.302 1.389-.47 2.803-.501 4.224l-.036.641c-.19 3.194-.589 6.372-1.194 9.514a9.74 9.74 0 0 0-.454-.22v.002zm1.907 1.18a35.43 35.43 0 0 0 .934-4.921 92.11 92.11 0 0 0 .735-9.414l.485.013c-.084 3.165-.331 6.324-.738 9.464-.205 1.767-.544 3.517-1.015 5.232-.132-.13-.263-.261-.4-.376v.002zM68.272 14.799c-.092.486-.169.978-.252 1.467l-.352-.814.128-.744c.329-1.732.74-3.569 1.512-5.267.821-1.807 2.023-3.406 3.187-4.953l.388.292c-1.148 1.526-2.335 3.105-3.134 4.863-.749 1.65-1.152 3.453-1.478 5.155zm.568 3.635c.258-3.572 1.063-7.084 2.386-10.412l.451.181a34.56 34.56 0 0 0-2.43 11.511 36.99 36.99 0 0 0-.406-1.28h-.001zm3.139-6.131c-1.031 3.386-1.045 7.024-1.059 10.543-.006 1.387-.015 2.796-.082 4.204l-.417-2.402.013-1.804c.015-3.555.03-7.228 1.08-10.683.114-.375.24-.746.366-1.118.307-.828.543-1.68.706-2.548l.48.077c-.167.895-.41 1.773-.726 2.627l-.36 1.104h-.001zm3.183-6.469c.024 1.985-.266 3.981-.546 5.911-.324 2.231-.659 4.537-.5 6.803.074 1.033.251 2.077.424 3.087l.24 1.485a34.41 34.41 0 0 1-2.183 17.807c-.024-.273-.085-.542-.182-.799 2.058-5.394 2.707-11.224 1.885-16.939l-.238-1.474c-.174-1.021-.353-2.078-.428-3.134-.164-2.318.175-4.651.503-6.908.277-1.911.565-3.888.541-5.835l.485-.004zm-2.225 15.588l.045 1.296c.032.834.065 1.694.054 2.543a48.47 48.47 0 0 1-.535 5.785l-.477 3.61c-.032-.141-.052-.283-.089-.423l-.189-1.176.275-2.074a48.2 48.2 0 0 0 .53-5.727c.012-.837-.021-1.692-.054-2.518l-.045-1.302a58.34 58.34 0 0 1 .662-10.008l.48.07c-.503 3.284-.723 6.604-.657 9.926zm-.297 21.869c.012-.089.015-.179.021-.268l.346-.672c.831-1.665 1.675-3.365 2.348-5.127a59.13 59.13 0 0 1-1.143 2.591c-.446 1.006-.96 1.98-1.537 2.917a11.36 11.36 0 0 0-.021-.914c.416-.742.79-1.498 1.118-2.206 1.081-2.336 2.004-4.455 2.353-6.724.379-2.464.046-5.015-.276-7.483-.327-2.499-.665-5.083-.277-7.614.184-1.054.429-2.096.734-3.121.376-1.357.764-2.76.835-4.173l.486.025c-.074 1.467-.47 2.896-.852 4.278-.3 1.007-.541 2.03-.721 3.065-.378 2.462-.045 5.011.277 7.477.264 1.736.412 3.488.444 5.244.053-.817.086-1.634.113-2.442.042-1.164.083-2.367.03-3.544l-.048-.852a14.99 14.99 0 0 1-.003-2.73c.1-.687.246-1.367.438-2.034.28-1.064.544-2.069.443-3.103l.483-.048c.109 1.122-.178 2.217-.457 3.276-.186.646-.328 1.303-.425 1.968-.078.878-.076 1.762.005 2.64l.049.861c.052 1.197.009 2.412-.031 3.591-.016 1.883-.182 3.762-.497 5.619-.618 3.129-2.049 6.001-3.434 8.779l-.613 1.194-.238-.046c.021-.141.041-.283.052-.425h-.002zM43.355 60.482a101.06 101.06 0 0 1 7.5 10.352l.099 1.105a91.43 91.43 0 0 0-5.486-7.999l5.68 9.67.173 1.266-.303-.523-8.058-13.583c-3.981-4.867-8.306-9.469-12.558-13.994-4.184-4.451-8.509-9.053-12.436-13.826l.375-.31c3.915 4.762 8.235 9.358 12.414 13.803 3.444 3.664 6.934 7.382 10.254 11.249-5.779-8.954-12.269-17.448-20.458-24.407l-2.16-1.791c-2.302-1.885-4.683-3.834-6.621-6.164l.373-.311c1.907 2.293 4.27 4.226 6.554 6.096l2.168 1.797c9.166 7.789 16.203 17.472 22.49 27.571h-.002zm7.352 7.854l-5.537-7.531c1.269 2.144 2.575 4.279 3.952 6.326l1.601 2.358c.012.077.013.152.032.229.016.273.053.545.073.818l-1.312-1.961-.797-1.173c-2.344-3.484-4.492-7.21-6.568-10.815-6.856-9.588-13.978-19.43-22.675-27.578l.332-.355c7.503 7.028 13.824 15.3 19.814 23.584-3.754-6.35-7.854-12.588-13.395-17.442l.319-.366c6.855 6.007 11.508 14.078 16.006 21.884v.002l.659.921 7.483 10.292.014.805h-.002zm-29.1-28.242c-5.249-5.197-10.676-10.571-13.378-17.48l.452-.179c2.665 6.815 8.054 12.152 13.267 17.313l1.937 1.926C34.45 52.263 43.765 64.03 51.649 76.744a39.01 39.01 0 0 0 .547 2.41c-1.037-1.636-2.162-3.219-3.348-4.761a67.87 67.87 0 0 1 3.556 7.822 1.95 1.95 0 0 0-.697-.443 69.55 69.55 0 0 0-4.727-9.727c-1.726-2.103-3.524-4.146-5.305-6.161-2.983-3.376-6.067-6.865-8.721-10.565l.394-.284c2.64 3.679 5.716 7.16 8.691 10.526l3.265 3.735c-4.147-6.481-9.514-12.862-16.072-19.084l-2.019-1.89c-3.42-3.183-6.956-6.475-9.526-10.46l.408-.264c2.537 3.935 6.049 7.204 9.448 10.367l2.022 1.894c7.504 7.117 13.455 14.449 17.813 21.903a86.99 86.99 0 0 1 2.855 3.677c-7.646-12.087-16.596-23.295-26.689-33.424l-1.938-1.923zm88.562 28.944c-2.44.506-4.941 1.026-7.332 1.846-.04-.157-.093-.311-.159-.46 2.418-.829 4.936-1.352 7.391-1.861l15.705-3.26c1.924-.4 4.103-.851 6.193-.409l-.101.476c-1.989-.422-4.117.02-5.992.408l-15.705 3.259zm5.437.2c-4.256 1.063-8.421 2.458-12.459 4.172l-.045-.506a84.18 84.18 0 0 1 12.39-4.139c3.338-.801 6.778-1.335 10.105-1.852l13.239-2.057.074.481-13.239 2.056c-3.316.514-6.746 1.047-10.065 1.844zm16.653-1.861l.156.462c-3.831 1.305-7.852 2.268-11.742 3.198-5.885 1.408-11.945 2.869-17.43 5.545.004-.183.002-.366.003-.549 5.474-2.632 11.481-4.074 17.315-5.469 3.879-.928 7.89-1.887 11.7-3.187h-.002zM112.89 80.409c8.165-4.415 16.887-7.71 25.93-9.797l.109.475a102.89 102.89 0 0 0-25.055 9.35 27.19 27.19 0 0 0-.984-.028zm-7.259 1.149c8.28-4.885 15.966-8.323 23.391-10.465l.135.468c-6.857 1.977-13.944 5.081-21.518 9.404a20.31 20.31 0 0 0-2.01.593h.002zm2.572-.703c4.198-1.903 8.451-3.706 12.641-5.459l4.69-1.914c5.976-2.323 12.159-4.07 18.465-5.219l.087.478c-6.276 1.143-12.429 2.882-18.376 5.193-1.577.614-3.153 1.273-4.728 1.931l-10.974 4.701a21.59 21.59 0 0 0-1.807.288h.002zm29.809-12.812c-8.032 1.632-15.702 4.254-23.507 7.023-3.55 1.26-7.721 2.752-11.594 4.876.037-.198.063-.4.094-.601 3.811-2.047 7.868-3.503 11.338-4.735 7.822-2.776 15.51-5.403 23.573-7.041l2.55-.495c3.536-.67 7.194-1.363 10.495-2.869l.201.442c-3.355 1.532-7.041 2.23-10.605 2.906l-2.545.494zm-66.957 51.246c-1.587-.64-3.021-1.819-4.515-3.715-2.994-3.824-4.79-8.451-5.159-13.295-.14-1.319-.035-2.653.309-3.933.643-2.093 2.212-3.692 3.506-4.851 1.084-.969 2.555-2.149 4.322-2.665 1.886-.55 3.927-.292 5.567-.086 6.057.768 12.313 1.901 16.45 6.5 1.159 1.288 3.567 3.968 3.696 6.567.117 2.395-1.62 4.945-2.936 6.656-1.899 2.47-4.574 4.619-8.177 6.57-3.398 1.842-6.268 2.75-9.032 2.862a10.56 10.56 0 0 1-3.092-.301 7.75 7.75 0 0 1-.939-.309zm3.909-27.579c-1.973-.25-3.606-.404-5.174.053-1.579.462-2.938 1.556-3.946 2.458-1.201 1.075-2.653 2.548-3.224 4.412a9.83 9.83 0 0 0-.27 3.573c.355 4.651 2.079 9.093 4.953 12.764 1.385 1.757 2.692 2.843 4.115 3.416a8.81 8.81 0 0 0 3.632.54c2.61-.105 5.344-.977 8.607-2.745 3.481-1.885 6.056-3.948 7.871-6.308 1.222-1.589 2.836-3.941 2.735-6.014-.112-2.253-2.365-4.759-3.448-5.964-2.353-2.617-5.483-4.055-8.88-4.947a54.49 54.49 0 0 0-6.97-1.239z" fill="#fff"/></g><defs><clipPath id="A"><path fill="#fff" d="M0 0h163v277H0z"/></clipPath></defs></svg>