<svg xmlns="http://www.w3.org/2000/svg" width="382" height="435" fill="none"  ><g clip-path="url(#A)"><g opacity=".5" fill="#c45ed3"><path opacity=".5" d="M246.502 265.566l-1.245-.265s-.084.054-.029.138c.331.143.775.093 1.274.127-.029.139 0 0 0 0zm20.79-81.531l-.45 9.23c.02.583.963.567.943-.015l.09-9.236c.005-.36-.524-.256-.583.021zm.07-9.819l-1.358-.072c.03-.139-.025-.223.005-.361-.911-2.508.928-5.369 3.649-5.584 1.556-.174 2.934.481 4.086 1.522.292 1.003.782 1.758 1.637 2.157.108.168.247.197.469.172l.277.059c.36.005.557-.242.34-.578-.485-1.115-1.394-1.599-1.628-2.877-.287-1.363-.047-2.83.91-3.927.647-.658 1.318-1.093 2.098-1.361l-.707-1.09c-.864.321-1.787.92-2.547 1.77s-1.168 2.426-1.216 4.006c-1.374-1.016-3.088-1.454-4.841-1.032-1.392.426-2.513 1.271-3.193 2.428-.02-.583.014-1.082-.145-1.694-.396-1.531-1.657-2.74-3.203-3.286-.939-.345-1.966-.275-3.023-.067.572-1.324.758-2.875.085-4.464-1.534-3.654-6.606-3.94-9.949-2.846-.326-.503 2.059-.5 2.281-.525.667-.075 1.363-.288 1.95-.669 1.397-.786 2.413-2.16 2.738-3.682.241-1.467-.047-2.829-.893-3.95 1.715.438 3.492.239 5.086-.795 1.93-1.251 2.985-3.484 3.042-5.786a3.75 3.75 0 0 0 1.399 1.239l-2.883-4.447c-.252.163-.449.41-.286.662 2.475 6.023-4.771 10.839-9.427 6.231-.302-.281-.721-.009-.671.435l-.415-.088c-.139-.03-.306.079-.39.133 2.322-3.77 5.939-6.83 10.481-8.464l-1.033-1.594c-1.506.618-2.848 1.489-4.22 2.498-.084.054-.168.108-.198.247-5.785 3.393-9.398 10.503-8.957 17.249.517 9.437 7.463 17.209 16.591 19.156 6.832 1.53 13.823-.738 18.763-5.252l-.762-1.175c-3.735 3.614-8.756 5.796-13.942 5.702zm-18.597-14.161c-1.407-4.928-.68-9.689 1.533-13.627-.059.276.105.528.465.533 4.292.554 5.636 6.118 1.642 8.231-.474.188-5.194.627-3.578 2.201-.558.242-.429.993.154.973 3.052-.072 7.342-1.543 8.931 2.194.673 1.59.349 3.111-.361 4.406-1.368.648-2.325 1.745-2.482 3.158-.197.247-.533.464-.73.712-2.605-2.364-4.563-5.384-5.574-8.781zm6.039 9.313c.168-.108.419-.272.533-.464l.168-.109c.167-.109.281-.302.394-.494.701-.574 1.293-1.315 1.801-2.002.336-.218.671-.435 1.061-.569 1.783-.56 3.882.105 4.832 1.754s.23 3.664.736 5.362c-.005.361.075.667.208 1.057-3.571-.545-6.99-2.142-9.733-4.535zm121.412 155.826c-.947-4.034-1.449-8.118-1.369-12.222l-1.578-2.433c-.189 3.936.037 7.961.792 11.882-12.36-13.916-34.136-15.886-43.767-32.762 2.199 1.553 4.793 2.613 7.475 3.257-.168.109-.311.44-.148.692 4.045 4.767 10.466 5.847 15.984 8.109 6.319 2.577 11.983 6.533 16.718 11.447.603.563 1.363-.288.982-.875-1.355-2.458-1.822-5.016-1.844-7.624l-1.197-1.845c-.225 2.41-.089 4.825.629 7.219-4.003-3.601-8.431-6.57-13.313-8.768-5.874-2.627-12.547-3.545-17.426-8.128 2.406.585 4.93.618 7.428.428l.415.088.168-.109c.222-.025.529-.104.751-.129 1.052.152 2.02.359 3.122.955 1.433.74 2.891 1.702 4.294 2.579l9.359 5.612c.385.227.973-.154.923-.598-.204-1.418-.047-2.83.248-4.213l-.979-1.511c-.379 1.438-.649 3.043-.613 4.569-3.385-2.096-6.8-4.053-10.214-6.011-1.157-.68-2.313-1.361-3.582-1.848 1.476-.481 2.952-.961 4.265-1.693 1.703-.866 3.327-2.038 4.619-3.353l-.87-1.343c-1.209 1.261-2.665 2.324-4.229 3.219-11.23 6.209-26.278.83-29.836-11.642l.084-.054c.059-.277.034-.499-.213-.697l-.054-.083c-.05-.445-.801-.316-.805.045-.084.054-.168.109-.197.247-2.376 5.711-9.996 5.17-13.988 9.307-2.502 2.576-3.575 6.251-3.176 9.806-4.784-3.334-10.391-5.18-16.184-5.476-3.3-.126-6.524.416-9.724 1.179-4.285 1.11-9.875 2.232-12.477-2.517-.218-.336-.608-.202-.751.129-.385-.227-.913-.122-.977.515-.962 5.868-2.923 11.667-7.443 15.909-4.968 4.652-11.585 5.843-17.938 3.765-11.353-3.723-17.507-14.869-16.668-26.258.114-.193.227-.386.424-.633.227-.385.01-.721-.237-.918l.059-.277c.197-.247.172-.469.093-.775.004-.361-.243-.558-.549-.479-.193-.113-.415-.088-.528.104-5.636 4.727-13.032 1.776-19.517 1.332-6.124-.439-10.542 2.306-14.642 6.276.133-6.045-1.621-12.059-5.107-17.068-2.206-3.218-5.31-5.616-7.515-8.834-1.172-1.623-1.954-3.381-2.346-5.272s-.201-3.802-.316-5.635c.646-.657-.116-1.832-.9-1.204-6.836 5.266-15.992 5.482-22.702 1.014-.134-.39-.436-.671-.826-.538-1.922-1.494-3.702-3.32-5.003-5.694-2.686-4.694-4.569-11.459-3.003-16.764.753-2.515 2.223-4.659 4.078-6.577 1.011-1.014 2.077-1.943 3.282-2.843.616-.519 2.29-1.247 2.798-1.934l.084-.054c.054.084.163.252.247.197.306-.079.42-.272.533-.464.311-.44.236-1.107-.401-1.171-.415-.088-.914-.122-1.329-.211-.163-.251-.494-.394-.8-.315-6.793-2.389-8.871-11.291-13.971-15.85-4.993-4.391-11.829-5.56-18.309-6.364 2.581-2.269 5.107-4.622 7.223-7.424 2.032-2.748 3.348-5.866 4.417-9.18 2.289-7.682 3.61-15.57 10.579-20.446.998.068.908-1.542-.09-1.61-.499-.034-.998-.068-1.413-.157-.108-.168-.217-.336-.385-.227-.138-.029-.306.079-.528.104-9.405-2.006-19.376-11.869-16.585-21.902 3.224-11.387 15.556-16.998 26.507-14.445l.109.167c.46.894 1.719.078 1.343-.87-2.811-5.805-.728-12.519-1.509-18.687-.861-6.474-5.24-11.023-10.099-15.024 8.05-.452 15.85-3.126 22.429-7.868 7.418-5.286 13.308-12.561 22.913-13.188.302.281.603.562.989.789s.75-.129.478-.549c-.109-.168-.163-.252-.356-.365.529-.104.567-.964.014-1.082-.276-.059-.637-.064-.914-.123-5.374-7.003-5.547-17.379 2.592-22.656 3.608-2.339 7.633-2.565 11.589-1.794l-1.414-2.182c-4.154-.525-8.322.032-11.905 2.594-.952.737-1.85 1.557-2.61 2.408-2.748-2.032-3.092-5.504-3.189-8.778l-.066-7.823c2.086 1.746 4.541 2.776 7.051 3.89 1.655.715 3.31 1.429 4.822 2.475 1.898 1.272 3.07 2.896 4.405 4.772.272.419.884.261.918-.238l-2.829-4.363c-1.344-1.154-2.831-1.978-4.264-2.717-3.528-1.765-7.342-2.867-10.273-5.734-.41-.449-1.081-.014-1.116.485.034 3.911-.214 8.124.263 11.986.354 2.751 1.349 5.204 3.799 6.595-.986 1.236-1.864 2.639-2.327 4.131-5.238-8.998-5.03-18.787-4.042-28.843 4.399 3.107 9.695 5.394 14.399 8.422l-1.469-2.265c-4.377-2.525-9.037-4.748-13.02-7.766-.302-.281-.968-.207-1.002.292-1.018 10.194-2.256 22.438 4.932 30.768-.463 1.492-.787 3.013-.89 4.51-10.91-12.233-7.236-28.44-7.848-43.537 4.632 4.386 9.663 7.918 15.029 11.231l-1.741-2.685c-1.102-.596-2.174-1.331-3.246-2.066-3.712-2.599-7.196-5.584-10.4-8.87-.41-.449-1.219-.043-1.199.539.467 8.993-.838 17.824.049 26.545.588 6.054 2.308 12.567 6.298 17.25-4.784-3.334-10.647-4.657-16.672-4.207-8.997.828-17.157 5.523-24.08 11.203-5.69 4.643-10.866 10.263-13.892 16.992-.306.079-.558.243-.864.322-.251.163-.172.469.134.39.138.029.306-.079.444-.05l-.916 2.263c-2.28 6.961-2.071 14.452-.163 21.439 1.482 5.594 4.05 10.841 7.373 15.599.025.222.079.306.104.528.055.084.247.198.331.143.955 1.288 2.047 2.606 3.085 3.84-18.982-3.543-36.649 11.486-55.806 10.798-.859-.039-.848 1.265-.102 1.496 17.354 5.076 31.039 21.588 49.497 22.85-3.338.734-6.517 2.08-9.424 3.846l-.168.109c-4.166 2.582-7.679 6.171-10.505 10.267l-.336.218c-.167.109-.143.331-.088.415-2.633 4.21-4.442 8.958-5.059 13.887-1.51 11.825 2.723 23.501 10.687 31.923.054.084.025.223.134.391.079.306.355.365.578.34 2.437 2.472 5.155 4.642 8.238 6.457 3.855 2.268 8.103 4.042 12.445 5.041 2.406.585 4.98 1.062 7.558 1.178-15.541 11.506-16.097 35.464-29.226 49.221-.647.657.312 1.585.984 1.15 8.662-5.021 19-4.334 28.535-5.988 8.952-1.633 17.462-5.602 24.499-11.475-4.136 13.289-4.309 29.013 3.332 40.983 7.315 11.465 21.18 18.327 34.524 13.727 8.191-2.808 15.614-8.455 22.177-14.14.331.143.523.256.854.399.608.202.869-.682.345-.939-.138-.029-.192-.113-.331-.143.365-.356.785-.628 1.15-.983-.374 1.077-.418 2.296-.54 3.21-.309 2.465-.173 4.88.323 7.299.933 5.116 3.09 9.914 5.613 14.357 6.104 10.701 15.161 20.441 16.19 33.241.045.805 1.098.958 1.383.296 8.668-16.227 17.482-33.145 18.774-51.74.054.084.079.306.133.39-.029.138.025.222.08.306 5.131 10.855 16.462 18.406 28.459 19.447 12.857 1.079 25.302-4.725 32.127-15.705 3.2-5.174 4.943-11.309 4.493-17.334 3.637 8.367 12.196 13.664 19.993 17.785 9.091 4.832 19.052 8.981 25.238 17.603.771.453 1.886-.032 1.648-.95zm-163.697-22.339c-.657-.647-1.374-1.016-1.75-1.964-.46-.894-.53-1.921-.408-2.835a41.19 41.19 0 0 0 6.233-5.828c-.082 2.079.947 4.034 2.538 5.386l-6.613 5.241zm10.117-8.109c-.084.054-.222.025-.39.134-.785.628-1.515 1.34-2.3 1.967-1.482-1.183-2.432-2.832-2.765-5l-.163-.252c1.549-1.838 3.043-3.761 4.345-5.797-.096 3.161.366 6.08 1.273 8.948zm-51.495-42.291c-.502 2.351.074 5.076.851 7.194 1.262 3.234 3.616 5.761 5.885 8.341 5.636 6.119 8.867 13.677 8.149 22.128-.093.775.732 1.313 1.295.71 2.699-2.823 5.649-5.808 9.629-6.839 3.283-.818 6.578-.332 9.788.208 4.9.756 10.245 1.462 14.494-1.174-3.772 6.498-8.918 11.98-15.295 16.114-5.844 3.67-13.007 6.408-20.031 4.765-13.273-3.193-19.728-19.03-19.903-31.431-.05-6.88 1.618-13.682 4.664-19.828.39-.134.474-.188.474-.188zm-32.526-15.976c.208 1.056.471 2.197.764 3.199 1.436 4.789 4.072 9.039 7.779 11.999-3.942 4.581-10.9 4.326-16.445 6.252 1.642-2.614 2.568-5.597 3.356-8.611.442-2.074.885-4.149 1.549-6.249.094-.775 1.659-6.081 2.997-6.59zm-.05-.445c-1.304.011-2.132 1.859-2.615 2.768-1.079 2.011-1.69 4.195-2.3 6.378-1.255 4.866-2.016 10.126-5.504 13.937-.562.603.234 1.279.875.982 6.116-3.25 14.587-1.949 19.264-7.604 1.018.651 2.036 1.302 3.167 1.761-8.971 7.485-20.576 8.335-31.483 10.997 4.129-4.107 6.475-9.68 8.292-15.149 1.325-3.839 2.512-7.707 4.39-11.427 1.622-3.197 4.099-5.995 5.775-9.108-.304 2.105-.248 4.213.139 6.465zm-3.68-81.04l1.936.413c-5.587 3.146-7.595 10.527-9.195 16.331-1.048 3.898-2.126 7.933-4.39 11.427-2.461 3.741-5.826 6.638-9.192 9.535-.365.356-.097 1.136.401 1.17 7.893.961 16.532 2.153 21.66 8.959 3.164 4.145 5.585 10.084 10.239 12.668-11.859 3.399-25.35-.13-34.085-9.006-5.121-5.142-8.387-12.201-8.71-19.5-.372-7.743 2.881-14.858 8.303-20.281 6.183-6.273 14.57-9.328 23.033-11.716zm-8.271-3.933c1.868 1.411 3.879 2.49 6.088 3.323a49.71 49.71 0 0 0-7.687 2.481c.083-.054.113-.192.142-.331.073-1.358-1.103-2.621-2.176-3.356-.578-.34-1.156-.681-1.764-.882 1.783-.56 3.619-1.036 5.397-1.235zm-7.376-8.804c-.139-.029-.193-.113-.415-.088-5.912.257-11.272-1.393-16.282-4.341-4.571-2.638-9.112-5.414-13.653-8.191 6.079-.366 11.866-1.734 17.469-3.937 6.077-2.391 11.962-4.896 18.594-5.144-1.317 1.093-2.526 2.353-3.626 3.782-3.251-1.706-7.501.93-10.374 2.197-3.989 1.752-8.885 5.046-13.44 3.351-.8-.315-1.313.732-.542 1.186 6.271 4.157 13.124 8.295 20.897 7.784.402 1.17.887 2.285 1.372 3.401zm1.717-17.203c-1.47 2.145-2.554 4.516-3.169 7.06-.383 1.798-.406 3.601-.123 5.324-6.302.391-11.979-2.483-17.261-5.851 2.331-.081 4.671-.883 6.848-1.937s4.27-2.054 6.556-2.94c2.117-.777 4.689-2.325 7.149-1.656zm10.087-7.97c.114-.193.035-.499-.242-.558l-.415-.089-.109-.167c.23-2.771 1.65-5.36 4.108-6.716a36.01 36.01 0 0 0 10.54 6.514c-4.644-1.279-9.448-.786-13.882 1.016zM179.255 60.2c.055.084.193.113.277.059.054.084.163.252.301.281-7.546.125-13.95 6.423-19.472 10.957-7.625 6.254-16.852 9.853-26.783 9.976-.721-.009-1.066.929-.518 1.408 3.158 2.481 6.371 5.046 8.601 8.487 1.959 3.021 2.693 6.358 2.731 9.91.083 4.355-.585 8.84.471 13.042-13.517-5.775-22.657-19.872-19.332-34.78 3.236-14.493 18.552-23.589 32.602-24.714 7.58-.624 14.935 1.162 21.122 5.374zm-3.406-9.114c.136 2.415.8 4.725 2.021 6.794-1.566-1.13-3.33-2.012-5.069-2.672-.265-3.165-1.502-6.177-3.608-8.506 2.539.976 4.768 2.391 6.656 4.384zm-8.173-5.069c2.269 2.581 3.536 5.454 3.855 8.703a28.4 28.4 0 0 0-6.777-1.446l.029-.138c.126-3.299-1.304-6.424-3.692-8.452 2.134.166 4.431.584 6.585 1.332zm-15.913-.647c2.587-.605 5.254-.904 7.916-.842 2.58 2.141 3.901 5.098 3.885 8.565a42.54 42.54 0 0 0-6.771.219l.029-.138c-.541-3.224-3.502-5.953-6.451-7.377.39-.134.918-.238 1.392-.426zm-2.479.773c1.433.739 2.753 1.672 3.875 2.851 1.231 1.347 1.904 2.937 2.883 4.447-2.75.353-5.505 1.067-8.152 1.948.03-.138.059-.277.005-.361-.99-2.814-3.294-4.896-6.114-5.57 2.374-1.301 4.857-2.434 7.503-3.316zm-8.565 3.885c2.821.674 5.016 2.588 6.09 5.348.109.168.163.252.301.281-2.202.832-4.433 1.802-6.417 2.969l-.504.326-.054-.084c-1.217-2.429-3.668-3.819-6.217-4.074a57.11 57.11 0 0 1 6.801-4.767zm-11.064 8.485c1.095-1.068 2.161-1.997 3.311-2.981 2.578.116 4.861 1.615 6.246 3.935l.054.084a36.46 36.46 0 0 0-6.47 4.91s-.054-.084.03-.138c-.426-1.392-2.358-2.166-3.632-2.293-1.107-.236-2.163-.028-3.195.403 1.1-1.428 2.309-2.689 3.656-3.92zm-4.697 5.072c.138.029.138.029.222-.025a5.1 5.1 0 0 1 3.862-.478c.553.118 1.215.404 1.655.715s.904.844 1.428 1.1c.055.084.138.029.138.029a32.53 32.53 0 0 0-5.583 7.196c-1.898-1.272-4.363-1.581-6.614-1.194 1.365-2.673 3.032-5.065 4.892-7.343zm-7.316 14.635c.473-2.213 1.221-4.367 2.163-6.407.889-.1 1.886-.031 2.746.007 1.412.157 2.598.699 3.897 1.048-.513 1.047-1.055 2.233-1.375 3.394-.433 1.354-.812 2.791-1.053 4.258-2.43-.808-5.131-.01-6.818 1.799-.011-1.304.145-2.716.44-4.1zm-.597 5.512c1.663-2.031 4.141-2.804 6.655-2.051-.279 2.326-.366 4.766-.146 7.127l-.138-.029a8.9 8.9 0 0 0-3.926 1.115c-.503.326-.952.737-1.401 1.147-.197.247-.311.44-.424.633-.551-2.503-.766-5.224-.62-7.941zm.69 8.968c.562-.603 1.431-1.285 2.102-1.721 1.091-.707 2.315-1.024 3.619-1.035.139.029.222-.025.306-.079.279 2.084.725 4.059 1.394 6.009-2.306.303-4.27 2.053-5.157 4.178a44.94 44.94 0 0 1-2.264-7.352zm2.694 8.383c.971-2.178 2.708-3.543 4.94-4.513.133.39.267.78.485 1.116.861 2.064 2.028 4.047 3.309 5.839l-.084.054c-1.753.422-3.184 1.707-4.007 3.194-.34.579-.542 1.186-.66 1.739-1.607-2.295-2.879-4.807-3.983-7.429zm4.66 8.659c.473-2.213 2.105-4.106 4.307-4.938.168-.109.252-.163.282-.302 1.117 1.54 2.403 2.971 3.856 4.293-2.32 1.385-3.933 3.861-4.078 6.578-1.558-1.851-3.031-3.756-4.367-5.631zm-48.831 18.431c18.099-1.128 34.233-13.376 52.76-11.086.108.167.355.365.464.533l.055.083.054.084c-1.367.649-2.626 1.465-3.83 2.365-.055-.084-.163-.252-.302-.282-6.174-.883-12.088 1.76-17.691 3.963-6.803 2.742-13.76 4.512-21.084 4.612-.721-.009-.789.989-.266 1.245 5.643 3.373 11.143 7.077 16.984 10.202 4.793 2.613 10.074 3.957 15.624 3.695.445-.05.642-.297.647-.658.974 1.871 2.285 3.524 3.625 5.039.519.617 1.122 1.18 1.725 1.742-18.782.259-32.15-15.028-48.765-21.537zm43.345 24.574c.998.069 1.991.497 2.786 1.173.989.79 1.281 1.792 1.934 2.799.109.168.247.197.385.227-1.979.806-3.905 1.697-5.721 2.756.113-.193.143-.331-.02-.583-1.059-1.817-2.789-3.198-4.75-3.833 1.733-1.004 3.574-1.841 5.386-2.539zm-6.363 3.053c2.099.665 3.775 1.963 4.888 3.863.108.168.301.281.385.227a46.69 46.69 0 0 0-4.447 2.883c-.748-2.256-3.534-3.429-5.949-3.293 1.599-1.395 3.306-2.621 5.123-3.68zm-8.242 6.774c.676-.796 1.323-1.453 2.053-2.165a5.46 5.46 0 0 1 3.764.658c1.102.597 1.646 1.436 2.299 2.443-1.318 1.092-2.497 2.215-3.677 3.337-1.503-1.767-3.849-2.629-6.071-2.38.562-.603 1.124-1.206 1.632-1.893zm-5.325 8.697c.612-.159 1.333-.149 1.886-.031 1.107.236 1.986.857 2.585 1.78.381.587 1.304-.011.923-.598-.678-1.229-1.972-1.939-3.301-2.151-.553-.118-1.136-.097-1.664.007.714-1.655 1.621-3.197 2.667-4.709 2.252-.387 4.544.391 5.963 2.212-2.674 3.045-4.661 6.597-5.793 10.549a5.11 5.11 0 0 0-2.095-1.025c-1.023-.291-2.104-.304-3.136.126.526-2.129 1.107-4.174 1.965-6.16zm-2.087 7.074c.054.084.054.084 0 0 .277.059.528-.104.751-.129.528-.104 1.195-.179 1.748-.061s1.023.291 1.546.547c.386.227.687.508 1.018.651-.349 1.299-.506 2.712-.579 4.07-.063.637-.043 1.22-.107 1.857-.716-.37-1.575-.409-2.242-.334a3.39 3.39 0 0 0-2.601 1.687c-.215-2.721.015-5.492.466-8.288zm-.451 9.231c.138.029.36.004.39-.134.538-.825 1.431-1.285 2.32-1.385.805-.045 1.383.295 2.016.719.136 2.415.493 4.805 1.103 7.032-1.546-.547-3.496.122-4.567 1.412-.55-2.504-1.017-5.061-1.261-7.644zm4.221 14.782c-1.083-2.038-1.945-4.102-2.584-6.19 1.322-1.454 2.903-1.406 4.701-1.022.56 1.782 1.371 3.401 2.237 5.104-.998-.068-1.916.17-2.755.714-.474.188-1.175.762-1.599 1.394zm6.052 8.232c-.144-1.694.654-3.403 2.219-4.298.336-.218.039-.86-.297-.642-1.59.673-2.635 2.185-2.905 3.791-1.503-1.767-2.922-3.588-4.09-5.572l-.272-.42c.424-.633.71-1.295 1.327-1.814.785-.628 1.787-.92 2.785-.852 2.389 4.053 5.671 7.645 9.491 10.412-1.208 1.261-1.903 3.498-1.175 5.172-2.56-1.558-4.976-3.448-7.083-5.777zm11.1 8.297l-3.36-1.874c.223-.025.336-.217.311-.44-.1-.888-.313-1.585-.19-2.498.177-.83.547-1.547 1.055-2.234 2.145 1.47 4.541 2.777 6.997 3.807l-.084.054c-.839.544-1.461 1.424-1.667 2.392-.148.691-.162 1.773.357 2.39-1.131-.458-2.233-1.055-3.419-1.597zm10.41 3.739c-2.075-.443-4.175-1.108-6.245-1.911.168-.109.198-.247.227-.385.005-.361-.158-.612-.376-.948-.134-.39-.129-.751-.125-1.111a3.09 3.09 0 0 1 1.08-2.011c.168-.109.143-.331.034-.499.608.202 1.216.404 1.878.69a33.33 33.33 0 0 0 3.621.989c-.878 1.403-1.242 3.784-.094 5.186zm1.244.265c.03-.138-.025-.222.005-.36-.406-.81-.925-1.427-.941-2.37s.246-1.828.838-2.569c2.296.418 4.623.697 6.87.67-.823 1.488-1.073 3.676-.346 5.349-2.247.027-4.351-.277-6.426-.72zm9.492-.433c-.642.297-1.229.677-1.816 1.058-.243-.558-.54-1.199-.615-1.866-.124-1.111.166-2.134.595-3.127l.03-.138c3.274-.097 6.553-.554 9.673-1.624-.617.519-1.15.984-1.653 1.31-1.204.9-2.27 1.83-3.227 2.927-.676.796-1.268 1.537-1.722 2.308-.138-.03-.277-.059-.499-.034s-.39.134-.612.158l.42-.272c.281-.301-.1-.888-.574-.7zm-7.356 46.005c-7.584.985-15.353 1.135-22.407 4.041 11.335-14.501 12.55-35.787 27.454-47.358.084-.054.139.03.222-.024.139.029.277.059.445-.05l2-.224a12.25 12.25 0 0 0-1.355 3.977c-2.601 1.686-4.386 4.631-5.944 7.191-1.815 3.083-3.189 6.477-4.342 9.847-2.507 7.346-4.746 15.472-11.409 20.268-.671.436-.157 1.413.539 1.2 11.692-3.29 25.505-3.308 34.965-12.063.167-.109.142-.331.172-.469.138.029.193.113.277.059 2.485.891 4.949 1.2 7.502 1.094-8.103 6.803-17.615 11.064-28.119 12.511zm28.878-8.951c.207-.968.497-1.99.704-2.959.197-.247.256-.523.147-.691 2.529-.328 5.007-1.101 7.214-2.293-1.164 2.065-2.051 4.189-2.745 6.427-.712-.73-1.957-.996-2.871-1.118-.582.02-1.165.04-1.777.199l-.672.435zm-.231.746c.168-.109.499.034.805-.045.528-.104 1.057-.208 1.555-.174a3.43 3.43 0 0 1 1.66.354c.469.172.771.453 1.186.542a37.71 37.71 0 0 0-1.18 5.532c-1.567-1.129-3.676-1.073-5.379-.207.497-1.991.91-3.927 1.353-6.002zm-1.312 7.167c1.624-1.172 3.866-.838 5.319.484-.161 1.774-.268 3.631-.153 5.463-1.734-1.021-4.065-.94-5.743.148.082-2.079.218-4.074.577-6.095zm-.601 12.308c-.115-1.832-.176-3.58-.069-5.437 1.816-1.059 4.034-.947 5.793.296l.054.084c.12 1.471.295 3.027.498 4.444-.825-.538-2.045-.581-2.85-.536-.666.075-1.279.233-1.836.476-.81.406-.869.682-1.377 1.369-.114.193.104.529.301.281.336-.217 1.2-.539 1.452-.702.474-.188 1.086-.347 1.669-.367 1.027-.07 1.852.467 2.85.536.367 1.668.788 3.421 1.377 5.065-2.183-.61-5.126-.37-6.839 1.217-.446-1.975-.804-4.365-1.023-6.726zm1.499 8.562c.869-.682 1.515-1.339 2.631-1.824 1.254-.456 2.725-.576 4.025-.226.48 1.476 1.183 2.927 1.831 4.294l.109.168c-2.424.857-5.356 2.401-5.557 5.033a35.54 35.54 0 0 1-3.039-7.445zm3.851 9.064c.084-.054.252-.163.281-.301.427-3.018 2.386-4.408 4.924-5.457.732 1.313 1.602 2.655 2.418 3.914-2.458 1.355-4.188 4.384-3.835 7.135-1.449-1.683-2.73-3.474-3.788-5.291zm5.157 6.667c.03-.138.114-.192.005-.36-.571-3.086.325-5.932 2.926-7.618a31.39 31.39 0 0 0 5.285 5.393c-1.096 1.068-1.89 2.417-2.13 3.884-.152 1.052-.255 2.548.23 3.664a29.72 29.72 0 0 1-6.316-4.963zm10.783 7.073l-2.979-1.287c.083-.054.029-.138-.025-.222-.021-.583-.347-1.086-.506-1.698-.129-.751-.174-1.556-.081-2.331.157-1.413.837-2.569 1.711-3.612 1.566 1.129 3.384 2.096 5.207 2.702.415.088.801.315 1.216.403-1.026 2.095-1.314 5.143-.092 7.211-1.413-.157-2.905-.62-4.451-1.166zm16.164.483c-1.117-1.539-1.563-3.514-1.289-5.48.059-.277-.464-.533-.607-.202-.202.607-.483.909-.493 1.63-.034.499-.014 1.082.091 1.61.154.973.53 1.921 1.074 2.76-2.893.684-5.837.924-8.884.635-.401-1.17-.97-2.231-1.12-3.565-.095-1.249.087-2.439.629-3.625 5.449 1.234 11.038.113 16.088-2.208-.048 1.581.231 3.664 1.131 4.869.163.251.41.449.741.592-2.429 1.217-4.882 2.212-7.361 2.984zm8.62-3.8c-.08-.307-.603-.563-.746-.232 0 0-.138-.029-.193-.113-.301-.282-.465-.533-.598-.923l-.401-1.17c-.238-.919-.338-1.808-.438-2.696.336-.218.726-.352 1.062-.569 2.038-1.084 3.968-2.335 5.844-3.67-.162 1.773.448 4 1.96 5.045-2.157 1.637-4.284 3.135-6.49 4.328zm122.168-20.574c-.277-.059-.608-.202-.746-.232-.83-.177-1.635-.131-2.469.052-.052-2.469-.464-4.943-1.212-7.199l-.218-.336c.084-.054.03-.138.114-.193a20.21 20.21 0 0 0 4.531 7.908zm-61.043 3.824c-.055-.083-.055-.083 0 0 3.221 6.255 12.452 2.295 17.731 1.614 7.723-.956 15.573 1.225 21.642 5.99.548.479 1.388-.065 1.174-.762-1.481-5.594 1.581-10.797 6.74-12.95 2.789-1.212 6.018-2.114 8.125-4.195 4.201 14.199-4.65 29.591-19.142 32.79-7.594 1.706-15.675.271-22.222-3.945-1.404-.878-2.778-1.894-4.038-3.103-.055-.084-.055-.084-.193-.113-1.755-1.604-3.341-3.316-4.677-5.191-2.289-3.164-3.409-6.729-5.14-10.135zm-27.109 20.318c4.06 1.3 8.303 1.41 12.119.127-.901 3.206-2.656 6.013-4.219 8.933l-4.171 7.353c-.822-7.333-9.612-11.883-9.876-19.459a27.01 27.01 0 0 0 6.147 3.046zm-6.532-3.273c-.916 8.698 10.314 13.335 9.092 22.112-.147.692.792 1.036 1.216.404l5.734-10.273c1.647-2.975 3.264-5.811 4.11-9.101.084-.054.03-.138.03-.138 1.673-.728 3.322-1.677 4.807-2.879l.168-.109c-.537 11.671-11.128 19.968-12.742 31.264-5.088-12.075-16.061-21.646-16.913-35.276 1.147 1.402 2.738 2.753 4.498 3.996zm12.609 44.264c-1.619-10.034-7.918-18.464-13.413-26.938-2.775-4.28-5.352-8.806-6.981-13.708a31.33 31.33 0 0 1-1.652-7.511c-.04-1.165-.135-2.415-.038-3.55.034-.499.062-2.662.382-3.823.941 2.369 2.409 4.635 4.021 6.569-.663 14.97 12.741 25.348 17.257 38.748.213.696 1.132.458 1.195-.179.136-12.841 13.063-21.579 13.006-34.533-.025-.223-.079-.306-.133-.39 1.628-1.533 2.955-3.347 4.034-5.358-.98 18.156-9.292 34.748-17.678 50.673zm20.342-48.586c-.677-1.229-1.326-2.596-1.92-3.88 1.026-2.095 1.72-4.333 2.138-6.63.6 2.948 2.198 5.964 4.077 8.679-.739 1.433-2.665 2.323-4.295 1.831zm5.593 7.339l-.252.163c-1.75-1.964-3.387-4.121-4.772-6.441 1.744.3 3.556-.398 4.463-1.94 1.365 1.737 2.843 3.282 4.296 4.604-.256.524-.542 1.186-.883 1.764-.759.85-1.682 1.449-2.852 1.85zm6.939 6.107c-2.367-1.445-4.507-3.275-6.395-5.268 1.614-.451 3.657-1.895 4.372-3.55 1.097.957 2.362 1.805 3.573 2.569-.286.662-.433 1.354-.774 1.932-.567.964-1.381 1.73-2.388 2.383-.503.326.041 1.165.544.839 1.091-.707 1.989-1.528 2.724-2.6.395-.495.765-1.211.966-1.819 2.066 1.164 4.19 2.051 6.428 2.745.016.943-.191 1.912-.674 2.821-.512 1.047-1.435 1.646-1.864 2.639-.114.192-.034.499.158.612-2.401-.946-4.634-2.001-6.67-3.303zm6.893 3.278s.084-.054.138.03c1.224-.318 2.023-2.027 2.397-3.104a9.08 9.08 0 0 0 .368-2.741c1.576.408 3.097.733 4.648.919.415.088.776.093 1.275.127.598.923.89 1.925.738 2.977-.043 1.22-.803 2.07-1.177 3.147-.03.139-.059.277.133.39-2.909-.259-5.759-.794-8.52-1.745zm9.158 1.809c1.09-.707 1.419-2.589 1.379-3.755-.07-1.027-.308-1.945-.768-2.839 2.8.092 5.605-.178 8.276-.837.352.726.757 1.535.941 2.37.292 1.002.14 2.054.294 3.027.05.444.741.592.859.039.468-1.853-.364-4.055-1.398-5.649 2.449-.634 4.681-1.604 6.749-2.826.054.084-.03.138.109.168.712.73 1.423 1.46 1.854 2.492.46.893.476 1.837.714 2.755.054.084.163.252.301.281-5.705 3.7-12.603 5.193-19.31 4.774zm19.868-5.016c.527-2.129-1.189-4.592-2.978-5.697 1.816-1.058 3.469-2.368 5.014-3.847 1.077.375 2.045.581 3.092 1.094.91.483 1.483 1.184 2.195 1.914-2.057 2.526-4.554 4.74-7.323 6.536zm7.999-7.332c-1.118-1.539-3.628-2.653-5.43-2.676 1.771-1.864 3.295-3.925 4.518-6.267.943-.015 1.827.246 2.682.645.909.483 1.399 1.238 2.224 1.776a43.71 43.71 0 0 1-3.994 6.522zm4.368-7.599c-1.063-1.456-3.162-2.121-4.881-2.198.143-.331.37-.717.458-1.132.715-1.655 1.237-3.423 1.62-5.221.948-.377 2.03-.363 2.939.12.716.37 1.097.957 1.562 1.49-.28 2.327-.781 4.678-1.698 6.941zm1.914-8.63c-.495-.395-1.073-.735-1.542-.907-.939-.345-2.02-.359-2.914.101.3-1.743.432-3.378.455-5.181l.138.03c.696-.213 1.333-.15 2.079.082.331.143.662.286.909.483s.356.365.717.37c.145 1.693.289 3.387.158 5.022z"/><path opacity=".5" d="M345.973 278.181c-11.638-3.061-23.251-5.9-34.225-11.06-5.376-2.593-10.608-5.517-15.333-9.127-1.181-.903-2.417-1.89-3.514-2.847-.109-.168-.356-.365-.465-.533s-.247-.197-.331-.143c-.796-.675-1.453-1.322-2.249-1.998-.192-.113-.356-.365-.548-.478-.218-.336-.52-.617-.737-.953-.055-.084-.193-.113-.247-.197-1.231-1.347-2.433-2.833-3.92-3.656.207-.968-1.315-1.293-1.521-.325-2.465 10.537-7.553 20.152-14.4 28.525-3.635 4.502-7.765 8.61-12.113 12.382-4.683 3.99-9.856 7.225-14.593 11.131-1.38-2.681-3.235-5.173-4.867-7.69l-5.104-8.609c-3.226-5.893-6.116-12.005-8.448-18.359-2.035-5.712-3.512-11.666-4.268-17.612-.353-2.75-.484-5.526-.531-8.356-.036-1.526.066-3.022.114-4.603.009-.721.127-1.274.052-1.941.198-.247.533-.464.731-.711.478-.549-.234-1.279-.821-.898-2.542 1.409-4.896 3.293-7.576 4.674a60.45 60.45 0 0 1-7.949 3.365c-5.628 1.981-11.662 3.152-17.632 3.686-11.496 1.018-22.876-.542-34.261-1.741.084-.055.113-.193.197-.247 1.064-2.955 1.412-6.279 2.199-9.292s1.713-5.997 2.832-8.868c2.128-5.908 4.78-11.56 7.817-16.986 3.121-5.48 6.627-10.733 10.628-15.591 3.749-4.695 8.017-8.774 12.177-13.02.276.059.553.118.775.093.914.123 1.293-1.315.325-1.521-12.018-1.624-23.499-6.097-33.314-12.963-4.783-3.334-9.227-7.246-13.221-11.569-4.049-4.406-7.204-9.273-10.414-14.223 11.565-6.426 22.829-13.134 35.473-17.16 5.737-1.813 11.717-3.068 17.717-3.741 5.639-.676 11.294-.41 17.012-.781.055.084.109.168.248.198.711.73 1.836-.476 1.041-1.152-8.656-8.571-13.082-20.36-14.456-32.221-1.295-11.555.32-22.851 1.741-34.261 4.941 1.922 9.94 3.566 14.969 5.073l-1.36-2.098c-4.446-1.527-8.838-2.97-13.343-4.22-.193-.113-.361-.005-.528.104-.248-.197-.692-.148-.781.267-1.711 8.022-2.873 16.522-2.9 25.121-5.219-4.005-12.314-2.265-17.541.886-7.631 4.59-13.673 12.917-23.278 13.543-.583.02-.982.875-.488 1.27 10.853 8.099 1.929 24.849 10.516 34.417-8.841 3.826-17.252 8.684-25.387 13.6-.587.381-.265 1.245.372 1.309 3.642 8.007 9.763 15.241 16.539 21.097-5.514 1.788-9.821 6.726-11.693 12.111-2.359 6.654-1.636 15.123-7.661 19.983-.617.52-.295 1.384.426 1.393 13.75.619 16.264 23.063 30.881 20.975-1.484 3.227-2.913 6.537-4.149 9.96-1.035 2.816-1.931 5.662-2.773 8.591-.787 3.014-1.94 6.383-1.952 9.489-.029.139.08.306.134.39-.336.218-.399.855.154.973 9.296 1.839 18.908 2.877 28.424 2.665-1.234 5.449-.281 11.147 2.208 16.088 1.405 2.903 3.511 5.232 5.533 7.616 2.626 2.946 5.439 6.366 4.663 10.683-.119.553.539 1.199 1.072.734 2.719-2.239 5.898-3.585 9.395-3.707 3.274-.097 6.396.858 9.439 1.507 4.841 1.033 10.881 1.526 14.512-2.616 1.321 2.957 2.811 5.805 4.384 8.599 1.652 3.1 3.472 6.091 5.238 8.999 1.82 2.991 3.527 6.175 5.851 8.839.464.533 1.111-.124.952-.737 5.499-2.731 10.518-6.938 15.117-10.874 3.001-2.541 5.838-5.334 8.482-8.24 1.906 4.961 8.318 6.763 13.114 6.991 6.82.226 13.92-1.875 20.511 1.122.662.285 1.141-.263.982-.875-1.022-4.701 8.3-7.051 11.316-8.649 2.962-1.681 5.404-3.98 6.196-7.354l.03-.138c1.793.744 3.616 1.349 5.494 2.039.025.222.049.445.213.696-.025-.222.004-.36-.021-.582 7.539 2.62 15.334 4.717 23.025 6.285.692.147 1.061-.569.819-1.127l.084-.054.888-6.535-1.415-2.181c.106 2.553-.316 5.21-.684 7.951zM184.598 113.108c-.805.045-1.555.174-2.39.358.223-.025.42-.272.533-.465.638.064 1.413.157 1.996.137 0 0-.055-.084-.139-.03zm12.16-5.142a61.04 61.04 0 0 0 3.767 4.708c-3.018-.427-6.208-.385-9.344-.259a.47.47 0 0 0-.41-.449c-2.297-.417-4.728-1.225-5.668-3.595-1.154-3.065 1.343-5.28 4.252-5.021 2.825.313 5.267 2.425 7.403 4.616zm-11.423-4.751c-1.905 1.474-2.243 4.077-1.189 6.254.514.977 1.226 1.707 1.967 2.299-3.165.265-6.346-.414-8.817-2.387-2.827-2.338-4.022-6.569-2.37-9.905 1.908-3.859 6.851-4.323 10.492-2.751 3.117 1.316 5.303 3.951 7.35 6.556-2.506-1.474-5.163-1.896-7.433-.067zm-12.72-3.075c-.909-.483-2.045-.581-3.068-.871-1.106-.236-2.183-.61-3.289-.846-.084.054-.139-.029-.223.025.418-2.297 1.665-4.417 3.378-6.004.814-.766 1.875-1.335 2.907-1.766.975 1.871 2.004 3.826 3.314 5.479-.785.628-1.377 1.369-1.944 2.333l-.109-.168c.223-.025.42-.272.202-.608-1.226-1.708-3.232-3.148-4.74-4.554-.247-.197-.612.159-.365.356 1.231 1.347 2.487 2.916 3.831 4.071l.218.336c.217.336.351.726.653 1.007l-.03.138c-.572 1.324-.728 2.737-.663 4.124-2.104-.304-4.381-.139-6.331.53-.618-1.506-.763-3.2-.493-4.805l.054.084c.939.345 1.962.635 2.984.926s2.208.832 3.29.846c.608.202.948-.376.424-.633zm11.828-5.285l-.83-.177c-.829-.177-1.689-.216-2.548-.254-.535-1.56-1.238-3.011-1.718-4.488 1.329.211 2.712.506 3.952 1.132.138.029.193.114.331.143.041 1.165.244 2.583.813 3.644zm-.151-3.358c1.102.597 2.036 1.302 2.97 2.007.07 1.027.249 2.222.793 3.061-.825-.537-1.651-1.075-2.589-1.42-.213-.696-.564-1.422-.832-2.202-.188-.474-.292-1.002-.342-1.447zm-4.17 2.942c-1.334.149-2.504.55-3.595 1.258-.92-1.787-2.285-3.524-3.54-5.093 1.728-.644 3.727-.868 5.585-.761.312 1.585.763 3.2 1.55 4.596zm-7.118 9.978c.209 1.057.585 2.004 1.099 2.982-1.555.174-3.111.348-4.691.3-.687-.508-1.206-1.124-1.78-1.825-.272-.42-.598-.923-.786-1.397 2-.224 3.97-.31 6.158-.06zm1.505 3.791c.381.588.846 1.121 1.394 1.599.603.563 1.236.987 1.923 1.495-2.628-.561-5.281-1.344-7.426-2.813 1.359.073 2.746.007 4.109-.281zm18.336-6.644c-1.172-1.624-2.428-3.193-3.91-4.377.167-.109.197-.247.088-.415-.267-.78-.702-1.451-.915-2.147-.055-.084-.08-.306-.134-.39 2.081 2.107 3.767 4.708 4.871 7.33zm-2.821-7.109a15.54 15.54 0 0 0-2.19-2.275l-.055-.084c-.025-.222-.217-.336-.385-.227-1.29-1.07-2.777-1.894-4.378-2.525-1.27-.488-2.653-.783-4.066-.94-.054-.084-.024-.222-.079-.306-.079-.306-.607-.202-.528.104 0 0 .054.084-.03.138-3.714-.214-7.417.876-10.057 3.422-3.592 3.283-4.831 9.092-2.669 13.53 2.895 5.751 10.586 7.319 16.345 8.114l.138.029a94.76 94.76 0 0 0-15.188 3.412l-4.596 1.55c-.025-.222-.05-.444-.297-.642-5.446-3.619-4.746-10.628-4.396-16.337.277-4.352.14-8.791-2.338-12.429 4.553-.33 8.629-4.522 12.237-6.861 5.034-3.264 13.187-9.623 19.063-4.971.48 5.886 1.542 11.753 3.469 17.297zm-42.559-7.922c6.977-1.187 12.227-6.14 17.69-10.397 5.913-4.667 13.87-8.754 21.193-4.445 0 0 .054.084.138.029.066 1.388.047 2.83.113 4.218-4.117-3.409-9.725-.845-13.832 1.46-3.129 1.791-6.205 3.665-9.171 5.708-2.798 1.934-5.887 4.89-9.626 4.454-.692-.147-1.007.653-.542 1.186 7.327 8.359-2.769 23.486 7.771 30l-4.097 1.584c-8.454-9.178-.345-25.162-9.637-33.796zm17.389 102.184c1.438.379 3.073.511 4.574.253-2.182 1.414-4.744 2.241-7.352 2.264a7.81 7.81 0 0 0 2.778-2.517zm-3.088-1.454c.687.508 1.404.878 2.204 1.193-.789.989-1.578 1.977-2.753 2.739l-.084.054c-.637-.063-1.136-.097-1.744-.299-.415-.089-.884-.261-1.353-.434l.084-.054c1.233-1.038 2.467-2.077 3.646-3.199zm-4.2 3.081c-1.185-.542-2.258-1.277-3.217-2.205 1.817-1.058 3.549-2.062 5.311-3.205.436.671.955 1.288 1.558 1.851l-3.454 3.312c-.222.025-.252.163-.198.247zm14.47-16.652c1.476-.48 3.002-.516 4.499-.414 3.068.871 6.165 1.604 9.292 2.199-2.103 1.721-4.151 3.525-6.09 5.498-.084.054-.138-.03-.222.024-1.816 1.059-3.193 2.428-5.47 2.593-2.498.19-4.92-1.338-5.776-3.763-.907-2.868 1.121-5.255 3.767-6.137zm-4.937 6.539c1.149 3.426 5.037 5.195 8.484 4.629-2.354 1.884-5.089 3.18-8.166 3.03-3.438-.155-6.433-2.384-7.611-5.672-1.283-3.817 1.119-7.281 4.689-8.761 2.399-1.079 4.952-1.185 7.53-1.069-.696.213-1.392.426-1.98.807-2.626 1.464-3.937 4.221-2.946 7.036zm-6.491-6.518c-.8-.316-1.743-.3-2.657-.423-.637-.063-1.275-.127-1.966-.274.419-.272.923-.599 1.397-.787.977-.514 2.063-.861 3.066-1.153.795.675 1.705 1.159 2.643 1.503-.474.188-.893.46-1.397.787-1.456 1.063-2.526 2.353-3.211 3.87-2.159-.388-4.351-.278-6.519.055a10.42 10.42 0 0 1 3.295-3.924c.83.177 1.606.27 2.435.447s1.715.438 2.658.422c.415.089.533-.464.256-.523zm-2.302 4.353c-.261.884-.3 1.743-.284 2.687-2.202.831-4.429 1.441-6.764 1.883-.055-.084-.025-.223-.025-.223-.175-1.555-.018-2.968.554-4.292 2.222-.249 4.356-.083 6.519-.055zm-.046 3.605c.05.444.183.834.317 1.224.188.474.322.864.539 1.2-1.762 1.143-3.469 2.369-5.177 3.595-1.177-1.263-2.017-2.744-2.439-4.497 2.331-.081 4.612-.606 6.76-1.522zm12.421-10.437c-2.218-.112-4.44.137-6.474.86-1.077-.374-2.016-.719-2.979-1.286 2.78-.491 5.718-.371 8.598.027a2.18 2.18 0 0 0 .855.399zm-18.564-10.25c.741.592 1.566 1.129 2.308 1.721 3.765 2.683 7.787 4.843 11.923 6.809-3.685-.352-7.546.126-10.789 2.109-2.32 1.385-4.15 3.525-5.126 6.065-.222.025-.444.05-.612.158-.222.025-.172.47.05.445.084-.055.222-.025.36.004-.546 1.547-.624 3.265-.341 4.989.913 4.533 4.611 8.213 9.091 9.241 4.895 1.117 9.911-.705 13.503-3.988.168-.108.198-.247.227-.385.39-.134.726-.351 1.116-.485-4.114 5.051-7.764 10.635-10.801 16.061-.453.77-.823 1.487-1.277 2.258-6.621 1.552-10.246-3.487-13.732-8.497-2.834-4.003-6.205-7.18-10.558-9.482 4.259-3.358 1.843-9.657 2.486-14.364.804-6.48 6.673-9.928 12.004-12.55l.168-.109zm7.364 48.856c-8.231 1.642-13.37-6.467-17.682-12.014-3.11-4.062-6.946-7.772-11.954-8.696 4.075-4.192 4.677-10.064 5.857-15.597 1.51-7.414 5.54-12.411 12.268-15.82 1.097.957 2.279 1.86 3.405 2.679-4.789 1.436-9.547 4.76-11.686 9.364-1.168 2.426-1.2 4.95-1.04 7.587.26 3.526.758 7.97-2.791 10.033-.419.272-.428.993.041 1.166a26.48 26.48 0 0 1 8.08 5.844c2.462 2.695 4.223 5.962 6.601 8.711 2.269 2.581 6.643 5.466 10.262 4.43l-1.109 2.15c-.03.138-.084.054-.252.163zm54.324 46.655c-.218-.336-.381-.588-.515-.978-.297-.642-.455-1.254-.584-2.004 2.102-1.721 3.325-4.063 4.3-6.602-.377 3.462-1.307 6.806-3.201 9.584zm-10.881-1.526c.192.113.331.143.523.256.47.172.993.429 1.492.463a22.48 22.48 0 0 0-.456 3.156c-.068.998-.166 2.134-.012 3.106-1.748.061-3.408-.293-5.004-1.284l.084-.054c.803-2.07 1.853-3.943 3.373-5.643zm-4.228 5.243c-.054-.083-.138-.029-.193-.113-1.482-1.184-2.348-2.887-2.77-4.64.726-.351 1.481-.841 2.207-1.192l2.764-1.435c.435.672.954 1.288 1.641 1.796-1.574 1.617-2.846 3.514-3.649 5.584zm6.474-.86c-.041-1.165.141-2.356.238-3.492.914.123 1.941.053 2.86-.185.228 1.639.512 3.363.879 5.032-1.23.677-2.538 1.049-3.817 1.282-.099-.889-.199-1.778-.16-2.637zm3.71-3.836c1.225-.317 2.37-.94 3.322-1.677.075.667.179 1.195.422 1.753.188.474.292 1.002.618 1.506-.227.385-.592.741-.873 1.042-.676.796-1.544 1.478-2.467 2.077-.258-1.501-.655-3.032-1.022-4.701zm8.355-17.811c-.035.499.015.943.011 1.303a.47.47 0 0 0-.449.411c-.364 2.381-1.335 4.559-3.076 6.285-1.264 1.176-2.942 2.264-4.681 1.604-1.546-.547-2.278-1.86-2.23-3.44-.022-2.608 2.139-4.605 3.935-6.246 1.234-1.038 2.468-2.077 3.672-2.977a20.37 20.37 0 0 0 2.936-1.904c-.245 1.828-.075 3.744-.118 4.964zm-10.689 9.433c1.469 2.265 4.161 2.188 6.313.912 1.846-1.197 3.281-2.842 4.139-4.829-1.359 4.338-3.818 10.103-8.272 11.322l-.054-.083c-.08-.307-.608-.202-.529.104 0 0 .055.084-.029.138-.973.154-2.055.14-3.215-.18-3.567-.905-4.514-4.939-3.613-8.145 1.014-3.399 4.039-5.718 6.922-7.706-2.418 2.521-3.62 5.446-1.662 8.467zm-10.833 7.739c-.437-2.697.128-5.685 1.267-7.973.113-.192.256-.523.37-.716.587-.381 1.174-.762 1.87-.975.474-.188 1.057-.208 1.501-.258-.34.578-.542 1.186-.689 1.877-.089.415-.177.83-.211 1.329l-1.758.782c-.642.297-1.313.732-1.955 1.029-.167.109-.004.361.164.252l2.172-.694 1.338-.51c-.014 1.082.249 2.223.625 3.171-1.589.673-3.431 1.509-4.694 2.686zm13.901-17.713c-.168.108-.365.355-.533.464l-.163-.251c.222-.025.444-.05.696-.213zm-5.381 2.178c.084-.055.222-.025.306-.08 1.086-.346 2.202-.831 3.317-1.317-2.71 1.519-5.37 3.482-6.874 6.126-.997-.068-2.167.333-3.09.931 1.528-2.421 3.828-4.389 6.341-5.66zm-17.272 3.69c4.498-.414 9.031-1.327 13.401-2.492-2.325 1.746-4.076 4.192-5.165 6.924-1.778 4.609-1.55 10.659 2.68 13.875 4.285 3.3 10.176 2.46 14.129-.818 3.504-2.867 5.332-7.032 6.192-11.404.766 5.224 2.198 10.374 3.965 15.306.377.948.753 1.896 1.045 2.898-4.1 3.97-10.155 4.558-15.49 3.131-3.704-.935-8.028-3.376-11.414-1.061-.607-4.612-4.703-7.439-7.684-10.75-3.748-4.125-5.2-9.857-4.158-15.419.721.009 1.61-.091 2.499-.19zm19.743 30.819c-4.925-.979-9.704-.263-13.791 2.625-.01-5.714-5.175-9.636-8.448-13.949-4.035-5.488-5.335-12.273-4.695-19.005 1.166-.04 2.415-.135 3.581-.176-1.137 4.313-.501 8.787 1.557 12.696 2.791 5.223 10.073 8.367 9.99 14.856.02.583.766.814 1.215.404 2.645-2.906 6.504-.999 9.542.011 2.154.749 4.396 1.082 6.614 1.194 4.158.164 8.251-1.06 11.311-3.877.51 1.338 1.103 2.621 1.697 3.905-.138-.03-.306.079-.335.217-5.196 5.037-12.123 2.258-18.238 1.099zm87.952-6.255c.385.227.687.508 1.127.819-.291 1.022-.69 1.877-1.228 2.702-.247-.197-.523-.256-.771-.453-.523-.257-.909-.484-1.432-.74 2.58-2.269 3.402-5.781 2.89-9.144.669 1.95 1.085 4.064.752 6.306l-.118.553c-.331-.143-.662-.286-1.048-.512-.109-.168-.419.272-.172.469zm-2.67 2.684l.109.168c.44.311.964.567 1.404.878.192.113.439.31.632.424-1.016 1.374-2.334 2.466-4.007 3.194-.168.109-.39.134-.558.242.098-1.136-.219-2.36-.734-3.337l1.17-.402c.78-.267 1.452-.702 1.984-1.167zm-7.927-22.152c1.029 1.954 3.115 3.701 4.539 5.161.247.198.494.395.657.647 1.118 1.54 2.122 3.272 2.291 5.188.374 3.333-2.023 6.437-5.59 5.532-4.451-1.167-4.983-5.112-4.265-9.153.862-2.346 1.753-4.831 2.368-7.375zm-3.773 10.908c.025.222.104.528.129.75.68 3.254 3.029 6.141 6.466 6.296 2.855.175 5.154-1.793 5.744-4.559.384-1.798.155-3.437-.464-4.943.055.084.193.114.248.197 1.167 1.985 1.944 4.103 1.858 6.542-.151 3.077-1.822 5.83-4.612 7.042-2.957 1.322-6.163.421-7.874-2.403-1.632-2.517-1.704-5.569-1.667-8.453-.025-.222.088-.415.172-.469zm-1.168 2.426c-.066 3.022.396 5.941 2.502 8.27 1.75 1.964 4.21 2.633 6.684 2.221.569 1.061.555 2.143.566 3.446-1.447.343-2.889.324-4.188-.025.113-.193.005-.361-.02-.583a3.03 3.03 0 0 1 .038-.859c.118-.554.236-1.107.493-1.631.143-.331-.327-.503-.47-.172-.34.578-.542 1.186-.66 1.739-.004.36-.177.83-.043 1.22-1.077-.375-2.011-1.08-2.916-1.924.089-.414.093-.775.182-1.19.172-.469.29-1.023.601-1.462.114-.193-.134-.39-.247-.198-.449.411-.676.796-.878 1.404-.113.192-.172.469-.231.746l-.163-.252c-.792-1.036-1.277-2.152-1.539-3.293l.059-.276c.004-.361-.066-1.388.433-1.354l.084-.054c.138.029.247.197.218.335s.079.306.192.114c.168-.109.198-.247.089-.415l-.109-.168c-.054-.084-.163-.252-.193-.113.03-.139-.079-.307-.217-.336-.361-.005-.697.213-.894.46-.174-1.555-.072-3.052.198-4.657.059-.277.286-.662.429-.993zm-9.029 14.197c2.678-3.405 5.08-6.87 7.18-10.615-.259 2.909.342 5.857 2.142 8.265 2.427 3.193 6.295 4.38 10.137 3.32 6.71-1.967 9.67-10.084 7.393-16.354 4.398 3.107 9.023 5.829 13.82 8.081.47.173.855.4 1.379.656-1.273 1.898-2.456 3.38-4.525 4.602s-4.295 1.831-6.58 2.717c-2.316 1.025-4.472 2.662-4.919 5.097-3.301-2.15-7.385-1.648-11.222-.948-2.558.467-5.338.958-7.936.259-2.875-.758-5.405-2.454-7.319-4.67.252-.163.282-.301.45-.41zm35.024 4.941c-2.513 1.271-5.894 3.225-6.098 6.218-10.795-3.966-24.626 3.929-32.474-7.072.928-.959 1.717-1.947 2.59-2.99 2.424 3.554 6.169 5.654 10.495 5.709 5.463.153 12.053-3.285 16.743.824.494.395 1.22.044 1.2-.539-.494-4.805 5.98-5.665 9.273-7.204 2.567-1.188 5.617-3.285 6.429-6.076 1.186.542 2.372 1.085 3.642 1.572-.084.055-.114.193-.227.386-1.289 5.364-7.135 7.009-11.573 9.172zM181.289 26.942c-.193-.113-.469-.172-.637-.064-.277-.059-.613.159-.81.406-.113.193-.311.44-.286.662s.05.444.159.612c.218.336.573.701.988.789.277.059.499.034.751-.129.113-.193.256-.524.315-.8-.104-.528-.095-1.249-.48-1.476zm89.63 131.621c-3.012 1.237-6.386.445-7.9-2.625-1.543-2.933-.361-6.44 2.516-8.068.588-.38 1.2-.539 1.812-.698l-.761-1.174c-.613.158-1.17.401-1.812.698-3.549 2.062-4.938 6.538-2.905 10.225 2.117 3.633 6.519 4.355 10.147 2.599.809-.406 1.565-.896 2.349-1.524l-.761-1.174a8.64 8.64 0 0 1-2.685 1.741zm91.821 135.92c-.079-.306-.104-.528-.435-.671-.193-.113-.415-.089-.692-.148-.138-.029-.306.08-.39.134-.276-.059-.498-.034-.696.213-.562.603-.161 1.773.501 2.059.524.256.914.123 1.279-.233.419-.272.537-.825.433-1.354zm-1.476.481s.084-.055 0 0c.138.029.331.143.415.088-.084.055-.114.193-.197.247l-.218-.335zM183.624 30.91c-.193-.113-.248-.197-.386-.227-.855-.399-1.565.895-1.574 1.616.05.444.574.701.934.705.415.088.805-.045 1.195-.179.336-.218.701-.574.706-.934a.95.95 0 0 0-.875-.982zm175.68 259.008c.247.197.473-.188.31-.44-1.315-1.292-3.782.784-2.664 2.324.163.252.578.34.854.399s.746.232 1.052.152c.474-.188 1.066-.929 1.184-1.482.182-1.191-2.203-1.193-1.97.085l.163.252c-.138-.029-.277-.059-.361-.004-.376-.948.799-1.71 1.432-1.286zM110.032 131.183c-.139-.029-.223.025-.445.05-.025-.222-.217-.336-.356-.365-.721-.009-1.036.791-.878 1.403-.167.109-.306.08-.473.188-.084.055-.03.139.054.084s.306-.079.39-.133c.025.222.134.39.297.641.356.366.884.261 1.304-.011s.676-.795.626-1.24c.034-.499-.297-.642-.519-.617zm132.008 190.55c.218.335.549.478.993.428.39-.133.726-.351 1.007-.652s.538-.826.404-1.216c-.188-.474-.88-.621-1.354-.433a.76.76 0 0 0-.528.104c-.252.163-.449.41-.592.742-.005.36-.093.775.07 1.027z"/><path opacity=".5" d="M112.551 131.576c-.089.415.129.751.514.977.193.114.415.089.499.035.138.029.193.113.277.059.637.063 1.031-.431 1.095-1.068-.025-.222-.104-.529-.351-.726l-.055-.084c-.079-.306-.242-.558-.603-.562-.276-.059-.582.02-.834.183l-.168.109c-.059.277-.286.662-.374 1.077zm226.515 127.129c.222-.025.306-.079.528-.104l-.489-.756c-.391.134-.864.322-1.309.372l.057-2.301-1.469-2.266c.118 3.857-.126 7.709-.646 11.503-11.216-5.719-23.171-10.004-33.85-16.548-10.486-6.43-19.166-15.223-23.261-26.869.005-.361.039-.86.043-1.22.004-6.796-.852-13.63-2.932-20.147.973-.154 1.891-.392 2.893-.684l-.218 4.074c-.277-.059-.449.41-.118.553l.138.03c.129 11.596 4.95 22.891 12.914 31.314.465.533.959.927 1.424 1.46.054.084.109.168.247.198 4.824 4.499 10.605 7.902 16.475 10.889 7.634 3.87 15.411 7.409 23.158 11.086a.57.57 0 0 0 .839-.544c.125-3.3.113-6.628-.068-9.848l-1.469-2.266c.054.084-.03.139.025.223-1.949 2.693-4.139 4.829-6.72 7.098-.281.301.075.666.41.449 2.626-1.464 4.822-3.96 6.325-6.604.374 3.333.387 6.662.262 9.961l-15.688-7.468c3.116-.709 6.019-2.114 8.486-4.19 1.15-.984 2.161-1.998 3.064-3.179.281-.301.424-.632.705-.934l-.544-.839c-2.993 4.206-6.942 7.123-12.284 8.442-.222.025-.336.217-.281.301-1.324-.571-2.619-1.281-3.943-1.853-.385-.227-.855-.399-1.24-.626 3.634-.092 7.741-2.398 10.708-4.44.247.197.632.424.879.621.494.395 1.417-.203.898-.82-.163-.252-.41-.449-.573-.701 1.456-1.063 2.748-2.378 3.903-3.722l-.49-.756c-1.293 1.315-2.556 2.492-4.041 3.693-1.335-1.875-2.473-3.998-3.389-6.145 1.476-.481 2.819-1.351 4.137-2.444l-.599-.923c-1.288.955-2.601 1.687-3.835 2.725-.995-2.453-1.683-4.986-2.372-7.519.864-.322 1.589-.673 2.399-1.079l-.49-.755-2.177 1.054c-.689-2.533-1.323-4.982-2.18-7.406l.168-.109-.326-.504-4.679-7.216c.975 1.871 1.949 3.742 2.702 5.638 3.311 7.864 4.026 17.054 8.705 24.27-7.684-4.314-16.388-6.894-23.475-12.31-9.504-7.305-11.629-19.037-13.817-30.133.948-.376 1.841-.836 2.819-1.35.015.943.031 1.886.131 2.775-.143.331-.257.524-.261.884-.059.277.217.336.331.143.509 5.748 2.016 11.565 5.087 16.486 2.745 4.417 8.678 11.178 14.687 9.784 7.065-1.601 3.21-10.305.876-14.273-2.172-3.717-4.595-7.271-7.384-10.468-1.147-1.402-2.323-2.665-3.5-3.928-1.478-1.545-3.346-2.955-4.656-4.609.671-.435 1.288-.954 1.959-1.389 4.147 3.27 7.899 7.035 10.979 11.235l-4.95-7.636c-.247-.197-.356-.365-.603-.562.083-.054.083-.054.222-.025l-.327-.503c-.084.054-.167.109-.306.079-1.26-1.209-2.55-2.279-3.895-3.434.449-.41.953-.736 1.402-1.147l-.816-1.258-1.851 1.557c-6.721 5.073-13.983 8.947-22.635 8.836-20.022-.366-33.757-17.323-41.645-33.899 0 0 .03-.139-.024-.223-1.643-8.231-1.068-16.351 2.664-24.014 3.702-7.525 9.968-13.852 17.18-18.17.839-.544 1.732-1.004 2.709-1.519l-.761-1.175c-.252.164-.474.189-.726.352-.054-.084.03-.139-.025-.223-.183-.834-.396-1.53-.664-2.31l-5.331-8.223c.272.42.514.977.786 1.397-.247-.197-.607-.202-.75.129-1.06 2.594-2.03 4.773-4.711 6.153-2.122 1.138-4.369 1.165-6.607.47-.9-1.204-1.855-2.492-2.725-3.835-.381-.587-.816-1.258-1.113-1.9 5.108 1.813 11.086-1.467 11.881-7.226.163.252.38.587.628.784l-4.57-7.048c-3.233-3.148-7.606-6.033-11.362-3.002-4.456 3.604-1.403 9.968.873 14.213-.302-.281-.697.213-.395.494.356.365.741.592 1.127.819 3.28 5.978 7.557 12.023 13.023 16.226-1.263 1.177-2.442 2.299-3.513 3.589-6.304-8.069-12.722-15.945-16.203-25.725-.831-2.202-1.411-4.567-1.937-6.849.168-.109.088-.415-.05-.444-.466-2.558-.795-5.086-.871-7.778-.142-4.079-.201-8.213-1.177-12.109 3.425 3.261 7.191 5.944 11.179 8.603.055.084.055.084.193.113 1.018.651 2.006 1.44 3.024 2.091l-1.577-2.433c-.055-.084-.193-.113-.193-.113l.084-.054-.272-.42-.336.218-5.223-3.645c.7-.574 1.455-1.063 2.265-1.469l-.435-.671c-.894.46-1.594 1.034-2.325 1.746-2.06-1.524-4.092-3.187-5.926-5.096a17.04 17.04 0 0 1 5.179-1.57l-.761-1.175c-1.862.254-3.59.897-5.293 1.763-.109-.168-.247-.197-.356-.365-.41-.449-1.111.124-.923.599.055.084.08.306.134.39-2.907 1.766-5.602 4.228-7.822 6.501l-.312-1.585c-.209-1.057-.417-2.113-.542-3.224 1.382-1.73 2.926-3.208 4.718-4.489 1.372-1.009 5.882-4.529 7.578-2.649.301.281.583-.02.642-.297l-1.578-2.433-3.251-1.706c-2.866-1.479-5.89-3.57-8.988-4.303-.276-.059-.587.381-.34.578 1.784 1.465 4.102 2.466 6.28 3.436-2.557.467-4.748 2.602-5.887 4.89l-.705-9.911c-.05-.445-.633-.424-.667.075-.975 13.385 2.475 27.713 7.366 40.036l.727 1.673s.055.084-.029.138c-.03.139.025.223.163.252.861 2.064 1.752 3.989 2.781 5.944-.029.138.025.222.109.168 1.108 2.26 2.355 4.551 3.631 6.703-.029.138-.059.277-.005.36-.059.277.327.504.495.395 3.205 5.311 6.83 10.35 10.903 14.979-.059.276-.202.607-.261.884s.381.587.524.256c.113-.192.197-.247.311-.439.766.814 1.448 1.682 2.215 2.496.108.168.247.198.469.173-.227.385-.538.825-.764 1.211-2.186-2.636-5.042-4.836-7.395-7.362a77.34 77.34 0 0 1-7.372-9.164c-4.332-6.13-7.993-12.695-10.76-19.72-2.797-6.887-4.73-14.096-5.774-21.404-.935-7.141-.516-13.848.989-20.901 2.564 1.198 5.355 2.01 8.033 3.015 1.077.374 2.07.803 3.147 1.178l-1.904-2.937c-.03.138-.059.277-.005.361l-.03.138c-3.008-1.148-6.13-2.103-9.178-2.392-.138-.029-.222.025-.251.163-.193-.114-.499-.034-.558.242-.459 1.131-.833 2.208-1.153 3.369-1.576-.408-3.482-.96-3.707-2.96-.203-1.417.867-2.707 2.067-3.247 2.453-.995 4.791.588 6.18 2.548.218.336.855.399 1.027-.07.404-1.215 1.584-2.337 2.887-2.349l-.707-1.091c-1.14.263-2.177 1.054-2.828 2.072-2.215-2.497-6.162-3.99-8.722-1.138-1.125 1.206-1.454 3.088-.836 4.594.431 1.032 1.256 1.569 2.165 2.052-1.782.56-3.381 1.954-3.379 3.979-.048 1.58.877 3.007 2.171 3.717-1.95.669-3.632 2.117-3.497 4.532.111 2.193 1.791 3.129 3.589 3.513-1.175.762-2.053 2.165-2.017 3.691.086 1.971 1.51 3.431 3.278 3.953-1.564.895-2.803 2.294-2.495 4.24.358 2.39 2.483 3.277 4.587 3.581-1.234 1.038-1.974 2.471-1.745 4.111.328 2.529 2.695 3.974 5.056 3.754-1.846 1.197-2.955 3.346-1.985 5.578.999 2.093 3.049 2.313 5.049 2.089-1.268 1.537-1.849 3.582-.82 5.537 1.272 2.513 4.018 2.52 6.353 2.078-.952.737-1.687 1.809-1.952 3.054-.678-1.229-1.998-2.161-3.494-2.263-1.635-.132-3.116.709-3.826 2.003-1.054-2.177-3.307-3.814-5.84-3.125-1.225.317-2.764 1.434-3.42 2.813-.569-1.062-1.725-1.742-3.167-1.76-2.109.056-3.54 1.341-4.2 3.08-.95-1.648-2.877-2.782-4.907-2.42-2.197.471-3.667 2.616-3.61 4.725-1.231-1.348-3.276-1.928-5.004-1.285-1.812.698-2.858 2.21-3.103 4.038-1.315-1.293-3.192-1.982-5.088-1.23-2.118.777-3.454 3.312-2.899 5.455-1.034-1.594-1.958-3.021-4.407-2.386-1.837.476-2.774 2.156-2.629 3.849-3.8-2.184-9.247-1.394-10.64 3.443-.526 2.129.108 4.578 1.838 5.959 1.592 1.352 3.587 1.488 5.478 1.096-1.853 3.943 2.338 8.018 6.105 6.291-.685 1.517-.599 3.487.716 4.78 1.423 1.461 3.557 1.627 5.206.677-.636 1.961-.747 4.179 1.234 5.397 1.651 1.075 3.458.737 4.914-.326-.522 1.769-.436 3.739 1.185 4.953 1.814 1.326 3.601.406 5.086-.795-.275 1.965.201 3.802 2.38 4.773 1.848.828 3.966.051 5.15-1.432-.294 3.408 4.173 5.518 6.946 3.362.229 1.639 1.292 3.095 2.977 3.671 2.569.838 5.086-.794 6.556-2.939-.567.963-.971 2.179-.792 3.374.025.222.049.444.158.612-1.131-.458-2.435-.447-3.585.537-1.12.845-1.415 2.228-1.236 3.423-1.932-.773-4.208-.608-5.619 1.26-.706.934-.917 2.263-.654 3.403-1.383-.295-2.859.186-3.871 1.199-1.435 1.646-1.186 3.868-.153 5.462-4.015-.495-7.043 4.209-4.729 7.595-1.719-.077-3.476.705-4.467 2.301-1.415 2.228-.647 5.067.964 7.002-1.052-.152-2.045-.581-3.269-.264-1.17.401-2.32 1.385-2.862 2.571-.828 1.848-.244 3.852 1.071 5.145-2.662-.062-5.254.904-6.535 3.522-.883 1.764-.47 4.238.928 5.477-3.412.067-6.07 4.055-4.561 7.486 2.074 4.853 7.788 4.842 11.212 1.669.279 2.083 1.891 4.018 4.246 4.159 1.996.136 3.649-1.174 4.309-2.913.979 1.51 2.714 2.531 4.605 2.139 1.501-.258 2.794-1.573 3.395-3.035.782 1.757 2.596 3.084 4.596 2.86 2.138-.195 3.741-1.949 4.154-3.886 1.474 1.905 3.984 3.019 6.467 1.886 1.757-.782 2.61-2.408 2.52-4.018.984 1.15 2.5 1.835 4.085 1.523 2.198-.472 3.554-2.424 3.72-4.557 1.483 1.184 3.503 1.542 5.181.454 1.51-.979 2.254-2.772 1.971-4.496 1.014 1.012 2.422 1.529 3.982.994 1.95-.668 2.719-2.239 2.796-3.958.44.311.964.567 1.463.601-2.765 1.435-2.958 5.732-.29 7.458-1.782.559-3.104 2.012-3.295 3.924-.107 1.857 1.065 3.481 2.636 4.25-1.649.949-2.837 2.793-2.475 4.822.333 2.168 2.117 3.633 4.192 4.076-1.426.924-2.635 2.185-2.52 4.017.22 2.36 2.26 3.302 4.419 3.69-1.762 1.142-2.98 3.124-2.455 5.405s2.838 3.642 4.977 3.448c-1.708 1.226-3.411 2.092-2.391 4.768.832 2.202 3.01 3.172 5.223 3.645-1.623 1.171-2.565 3.212-1.896 5.162.723 2.034 2.734 3.114 4.788 2.974-1.76 3.167-.151 7.487 3.805 8.259 4.234.83 7.327-2.486 7.487-6.284 2.06 1.524 5.137 1.674 6.968-.466 1.267-1.537 1.374-3.394.731-5.122 1.6.631 3.516.461 4.893-.908 1.461-1.424 1.681-3.474.953-5.147 2.129.526 4.495-.054 5.905-1.922 1.441-2.006 1.003-4.703-.416-6.524 2.08.082 4.143-.779 5.168-2.874.942-2.04.056-4.326-1.817-5.376 1.828.245 3.891-.616 4.665-2.548.714-1.655.155-3.437-.968-4.617 1.64-.228 3.18-1.346 3.81-2.947.173-.469.261-.884.266-1.244l.054.083c1.31 1.654 3.469 2.042 5.281 1.344-.468 1.852-.105 3.882 1.402 5.288 1.592 1.352 3.587 1.488 5.399.79-.408 1.576.097 3.274 1.525 4.374 1.374 1.016 3.068.871 4.465.085-.102 1.496.818 3.283 1.668 4.043 2.002 1.801 4.668 1.502 6.544.167-.078 1.719.759 3.56 2.468 4.359 1.626.852 3.487.599 4.943-.464-.023 1.802.814 3.644 2.691 4.333 1.462.601 3.077.151 4.143-.779.233 1.279 1.104 2.621 2.121 3.272 1.898 1.273 4.288.915 5.694-.592.968 4.616 6.398 7.293 10.514 4.267 2.043-1.444 3.023-4.344 2.611-6.818l-2.829-4.363c.276.059 0 0-.331-.143zm-33.16-44.526l.138.029 1.326 2.597c.243.558.485 1.116.644 1.728-1.537-1.268-4.002-1.577-5.705-.711-2.512 1.272-3.275 4.507-1.974 6.881.218.336.776.094.642-.296-.777-2.118-.049-4.855 2.153-5.687s3.877.466 5.133 2.035c.054.084.054.084.193.114.19 2.498-.534 4.874-3.645 5.223-3.25.319-6.492-2.108-8.657-4.16-.355-.365-.766-.814-1.176-1.263.513-5.458 5.661-8.915 10.928-6.49zm-3.674-5.483c.138.029.192.113.276.059.816 1.258 1.771 2.546 2.503 3.859-5.084-1.59-10.676 1.916-10.829 7.379-1.34-1.515-2.482-3.277-3.402-5.064 1.121-5.256 6.239-8.574 11.452-6.233zm-4.99-6.777a74.85 74.85 0 0 1 4.04 5.128c-4.92-1.339-10.118 1.674-11.042 6.682-1.079-2.399-1.906-4.961-2.456-7.465 1.517-3.725 5.561-5.393 9.458-4.345zm-1.532-1.628l.109.168c-3.379-.432-6.79 1.661-8.16 4.694-.337-1.807-.675-3.614-.928-5.476 1.465-1.784 3.751-2.67 6.018-2.114.988.789 2.086 1.746 2.961 2.728zm-7.625-4.591l1.93-1.251c.435.671.984 1.15 1.503 1.767-1.887.031-3.728.867-4.912 2.35-.074-.667-.095-1.249-.253-1.862.587-.38 1.145-.623 1.732-1.004zm32.273 46.651c-1.51.979-3.159 1.929-4.833 2.656s-3.48 1.065-5.154 1.793c-.168.108-.281.301-.172.469-2.234-1.055-4.437-2.248-6.612-3.579 3.585-.537 6.996-2.629 9.606-5.037 2.51 1.114 4.852 2.337 7.165 3.698zm-7.634-3.87c-2.966 2.042-6.2 3.304-9.572 4.537-.084.055-.251.164-.197.247-2.945-1.785-5.777-3.762-8.327-6.042 3.279-.457 6.369-1.388 9.356-2.848 2.866 1.479 5.79 2.681 8.74 4.106zm-9.264-4.362c-3.204 1.124-6.404 1.887-9.737 2.261-.054-.084-.247-.198-.301-.282-1.864-1.771-3.421-3.621-4.949-5.61 2.263.916 5.893 1.184 7.857-.566 2.199 1.554 4.65 2.944 7.13 4.197zm-8.638-5.603c.302.281.549.479.85.76-1.086.347-1.979.807-3.09.931-1.334.15-2.608.023-3.823-.381-.277-.059-.39.133-.365.356-1.444-2.044-2.804-4.141-3.913-6.402 1.689.216 3.882.105 5.338-.958 1.276 2.152 2.972 4.032 5.003 5.694zm-9.01-13.346c-.588.381-1.175.762-1.871.975-.306.079-.558.243-.864.322-.168.109-.39.134-.612.159-.084.054-.139-.03-.109-.168 0 0 .084-.055.029-.139-.637-.063-.399.855-.014 1.082.47.172 1.363-.288 1.753-.421.642-.297 1.284-.594 1.955-1.029.832 2.201 1.915 4.24 3.137 6.308-.642.297-1.145.624-1.841.837-1.087.346-2.168.332-3.304.235-2.029-4.048-3.416-8.393-4.274-12.842l.054.084c1.438.379 2.909.259 4.277-.389.589 1.644 1.094 3.342 1.684 4.986zm-3.478-16.575c.399 3.555.935 7.14 1.694 10.7l-.084.055c-1.283.593-2.562.827-3.945.532-.138-.03-.222.025-.306.079-.338-1.807-.537-3.585-.652-5.417 1.274.127 2.805-.269 3.54-1.342.197-.247-.075-.666-.411-.449-1.036.791-2.014 1.306-3.233 1.262-.066-1.387-.131-2.775-.113-4.217 1.308-.372 2.395-.718 3.51-1.203zm-58.495-97.939c.098-1.136.472-2.213 1.316-3.118 2.279-2.55 5.263-1.625 7.927.462.328 2.529-.123 5.324-2.992 6.231-2.562.827-5.315-.845-6.171-3.269.113-.193.059-.276-.08-.306zm3.828 10.866a48.63 48.63 0 0 1-2.489-4.941c-.539-1.199-1.049-2.537-1.253-3.955 1.331 2.236 4.088 3.548 6.65 2.72 2.479-.772 4.318-3.633 3.99-6.162 1.893 1.633 3.559 3.652 4.76 5.137-.084.054-.029.138-.113.193-.602 5.872-6.441 9.182-11.545 7.008zm9.242 12.6c4.46.446 9.524-2.957 9.391-7.757-.02-.583-.88-.622-.998-.068-.998 4.342-4.536 7.708-9.159 7.011-1.093-1.318-2.324-2.665-3.333-4.037 5.059 1.369 11.17-1.521 11.52-7.231l-.054-.083c1.544 2.932 2.835 6.027 3.959 9.231.109.168.164.252.302.281-3.1 1.653-6.012 3.779-8.677 6.103-.845-1.121-1.913-2.216-2.951-3.45zm-32.193-50.754c.661-1.739 1.761-3.167 3.355-4.201 1.258-.816 2.592-.965 4.038-1.308 0 0 .055.084.139.03l4.353 2.302c-1.442-.018-3.343 1.095-4.266 1.693-2.794 1.573-5.123 3.679-6.957 6.18-.313-1.585-.487-3.141-.662-4.696zm1.69 11.061c2.664-2.324 5.216-4.454 7.955-6.111a30.46 30.46 0 0 1 1.053 6.587c-2.818 1.351-5.953 3.502-7.377 6.452-.61-2.227-1.135-4.508-1.631-6.927zm1.898 7.707l.168-.109c1.125-1.206 1.973-2.471 3.153-3.593s2.521-1.993 3.864-2.863c.165 2.277.192 4.524.357 6.8-2.592.965-4.699 3.047-5.566 5.754l-1.976-5.989zm3.021 8.887c-.297-.642-.51-1.338-.723-2.034.139.03.222-.025.336-.218.975-2.539 2.554-4.516 4.983-5.733.169 1.916.423 3.778.815 5.669-1.891.392-3.96 1.614-4.842 3.377-.218-.335-.351-.725-.569-1.061zm3.801 8.62c.34-.579.542-1.186.882-1.764.508-.687 1.209-1.261 1.964-1.75.42-.273.039-.86-.435-.672-1.145.624-2.324 1.746-3.034 3.04-.866-1.703-1.594-3.376-2.292-5.188.399-.855.853-1.626 1.583-2.338.898-.82 1.738-1.364 2.824-1.711.575 2.726 1.373 5.426 2.338 8.018.753 1.896 1.589 3.737 2.425 5.579-1.229.677-2.379 1.661-3.089 2.956-.999-2.093-2.083-4.132-3.166-6.17zm3.849 7.038c.286-.662.542-1.185 1.05-1.872.562-.603 1.041-1.152 1.712-1.587.975 1.871 1.949 3.742 3.146 5.588-1.115.485-2.349 1.523-2.753 2.738-1.117-1.54-2.067-3.188-3.155-4.867zm3.808 5.874c.202-.608.32-1.161.715-1.655.424-.633 1.04-1.152 1.766-1.503 1.143 1.762 2.369 3.47 3.595 5.177-1.115.485-2.295 1.607-2.56 2.852l-3.516-4.871zm4.035 5.488c.202-.608.265-1.245.66-1.739.424-.633.957-1.097 1.683-1.449 1.093 1.318 2.185 2.636 3.362 3.899-.898.82-1.91 1.834-2.645 2.906-1.067-1.095-2.022-2.383-3.06-3.617zm6.096 7.012l-2.408-2.61c.143-.331.37-.717.597-1.102.537-.825 1.129-1.567 1.83-2.14.875.982 1.834 1.909 2.793 2.837-.957 1.097-1.776 2.224-2.679 3.405.03-.138-.079-.306-.133-.39zm-37.949-69.19c.414-1.936 2.477-2.798 4.364-2.829a33.01 33.01 0 0 0-.72 6.426s-.084.054-.139-.03c-2.054.14-4.002-1.577-3.505-3.567zm2.52 11.238c-.415-.089-.914-.123-1.275-.127-1.274-.127-1.986-.858-2.081-2.107-.48-1.476-.19-2.499 1.153-3.369.923-.598 2.118-.777 3.145-.847a44.8 44.8 0 0 0 .361 6.44c-.36-.005-.859-.039-1.303.011zm2.402 7.381c-2.173.693-5.009-.924-4.616-3.443.24-1.467 1.39-2.451 2.699-2.822.36.005.582-.02.943-.016.025.222.104.528.129.751.254 1.862.591 3.669.845 5.531zm-3.491 6.196c-1.045-2.898 1.606-4.14 3.808-4.972.471 2.197.997 4.478 1.606 6.705-1.664.007-4.716.078-5.414-1.733zm7.594 9.139c-1.841.836-4.44.137-4.995-2.005-.5-2.059 1.216-4.006 3.216-4.23l.084-.054c.639 2.088 1.362 4.122 2.14 6.24-.223.025-.361-.005-.445.05zm-1.593 7.469c-2.215-2.497.257-4.934 2.464-6.127.861 2.064 1.722 4.128 2.722 6.221-1.393.426-3.955 1.253-5.186-.094zm9.494 8.026c-1.668.367-3.866.838-5.235-.538-2.165-2.053-.573-5.111 1.441-6.417 1.217 2.429 2.464 4.719 3.794 6.955zm70.292 116.868c-.908 1.541-2.472 2.437-4.295 1.831a.55.55 0 0 0-.583.02c.595-3.127.967-6.228 1.117-9.305 1.02 2.675 2.237 5.104 3.761 7.454zm-10.529-31.312c-.168.109-.281.302-.202.608.342 1.447.739 2.977.943 4.395-.721-.01-1.502.258-2.168.332-.361-.004-.751.13-1.057.209-.084.054-.222.025-.306.079l-.109-.168a.37.37 0 0 0-.503.327c-.17-1.916-.34-3.832-.648-5.778l-.054-.084c1.413.157 2.716.146 4.104.08zm-7.912 52.683a53.86 53.86 0 0 1-3.309 5.006c-5.944 2.781-12.982 2.22-18.541-1.207L239.628 250c-.054-.084-.079-.306-.134-.39 2.482 3.277 6.287 5.101 10.273 5.734.277.059.553.118.914.123l-.014 1.081c-.009.721 1.072.735 1.274.128.143-.331.148-.692.291-1.023 3.882.105 8.133-.506 11.51-2.1-.084.055-.084.055 0 0zM252 267.245c-1.333.15-2.365.58-3.748.285s-2.539-.975-3.553-1.987c-.054-.084-.276-.059-.36-.004-.054-.084-.025-.223-.079-.307.084-.054.222-.024.222-.024.138.029.306-.08.444-.05.223-.025.227-.386.005-.361-.138-.029-.361-.004-.445.05s-.222.025-.306.079l-1.996-6.571c5.144 3.339 11.545 3.836 17.203 1.717-2.116 2.803-4.479 5.407-6.951 7.844.004-.36-.075-.666-.436-.671zm.046.805a81.26 81.26 0 0 1-5.468 4.618l-1.917-6.265c.875.982 2.031 1.662 3.33 2.011 1.107.236 2.88.398 4.055-.364zm-3.3-21.816a22.46 22.46 0 0 1-11.239-3.916c-.501-2.059-.779-4.142-1.003-6.142l.084-.055c3.054 1.953 6.675 2.942 10.28 2.989.583-.021.537-.826-.016-.944-3.743-.075-7.167-1.312-10.473-3.101-.115-1.833-.23-3.665-.178-5.606.005-.36.039-.859.044-1.219l3.423 1.236c1.823.606 3.646 1.211 5.444 1.595.138.03.222-.025.306-.079 1.593 7.787 4.686 15.315 5.138 23.365-.138-.03-.222.025-.276-.059-4.154-.525-8.013-2.433-10.801-5.63-.055-.084-.193-.114-.361-.005-.56-1.782-.981-3.535-1.457-5.372 3.188 2.343 7.026 3.668 11.046 3.803.776.093.676-.796.039-.86zm-3.404-44.035c.762 1.175 2.304 2.082 3.8 2.185-.739 1.433-1.424 2.949-2.026 4.412-.553-.118-1.19-.182-1.852-.468-.8-.315-1.542-.907-2.145-1.469-.247-.198-.528.104-.365.356.846 1.12 2.521 2.417 4.101 2.465-.576 1.685-1.014 3.399-1.397 5.197-.055-.084-.109-.168-.247-.197-.885-.261-1.941-.053-2.826-.314-.469-.172-.938-.345-1.462-.601a12.68 12.68 0 0 1-1.24-.626c1.493-3.947 3.425-7.584 5.689-11.078-.055-.084-.084.055-.03.138zm.089-.414l2.88-4.013c.825.537 1.626.853 2.481 1.252.469.172.909.483 1.378.655-.903 1.182-1.751 2.447-2.599 3.712-.445.05-.943.015-1.358-.073-.969-.207-1.794-.744-2.422-1.529-.138-.029-.276-.059-.36-.004zm-5.041 12.445c.44.31.964.567 1.571.769.939.344 2.238.694 3.27.263l.168-.109c-.561 2.628-.761 5.261-.739 7.868-.469-.172-.859-.038-1.358-.072-.721-.01-1.413-.157-2.104-.305-1.438-.379-2.426-1.168-3.666-1.794-.055-.084-.139-.029-.139-.029.561-2.628 1.314-5.143 2.26-7.544.134.39.297.642.737.953zm-3.11 6.783c.678 1.229 2.056 1.885 3.326 2.373 1.077.374 2.929.842 3.936.189-.029.138-.004.36.05.444.111 2.193.305 4.331.722 6.444-1.793-.744-3.784-1.241-5.691-1.792-.884-.261-2.263-.917-3.29-.846.141-2.356.475-4.599.947-6.812zm26.081 31.954c-3.723.507-7.12 1.518-10.809 1.526.946-2.401 2.223-4.659 3.638-6.888 3.739.436 7.517.013 11.081-1.106-1.084 2.371-2.223 4.659-3.554 6.833.029-.138-.05-.444-.356-.365zm4.339-7.461a28.37 28.37 0 0 1-11.032 1.551c1.046-1.513 2.176-3.079 3.167-4.675.819-1.127 1.499-2.283 2.234-3.356 2.963.343 5.882-.119 8.587-1.277a54.88 54.88 0 0 1-2.956 7.757c.084-.055.084-.055 0 0zm-5.375-7.003c1.445-2.367 2.697-4.848 3.648-7.609 2.242.333 4.716-.079 6.646-1.33-.447 2.435-.949 4.786-1.589 7.108-2.818 1.351-5.712 2.035-8.705 1.831zm10.249-9.744c-2.177 1.054-4.127 1.723-6.374 1.749a1.38 1.38 0 0 1 .172-.469c.778-2.292 1.28-4.644 1.673-7.163.054.084.138.03.192.114 1.748-.061 3.61-.315 5.254-.904a51.64 51.64 0 0 1-.749 6.564l-.168.109zm-4.441-6.298l-.084.055c.422-2.658.568-5.374.575-8.12 1.324.572 3.433.516 4.855-.049.165 2.277.108 4.578.051 6.88-1.837.476-3.535.981-5.397 1.234zm3.049-8.531c-.889.099-1.719-.078-2.578-.117.003-2.385-.078-4.716-.243-6.992l.054.083c.054.084.163.252.302.282.637.063 1.471-.12 2.138-.195a8.81 8.81 0 0 0 1.861-.254c.333 2.168.666 4.336.777 6.529-.864.321-1.56.534-2.311.664zm-8.586-13.979a.43.43 0 0 0-.118.553l.639 2.089c-1.868-1.411-4.501-1.611-6.623-.473.734-1.072 1.608-2.115 2.481-3.158 1.161.32 2.376.724 3.621.989zm-10.572 28.546c-.762-1.175-.269-2.805.93-3.345 1.116-.485 2.499-.19 3.349.57 1.537 1.268 1.351 2.819 1.412 4.567-.03.138.079.306.217.336-1.51.979-3.258 1.04-5.042-.425-.549-.479-1.014-1.012-1.256-1.57.054.084.054.084.193.114s.306-.08.197-.247zm2.751-4.764c-1.827-.245-3.703 1.09-4.027 2.611-.422-1.752-.508-3.723-.568-5.471 0 0-.055-.084.029-.138 1.767-1.503 3.969-2.335 6.265-1.917 2.712.506 4.047 2.381 5.462 4.563.054.084.109.168.247.197-.207.968-.467 1.853-.867 2.707-.487 1.27-1.336 2.535-2.318 3.41.946-2.401-1.758-5.653-4.223-5.962zm-4.552-4.08c.082-2.079.357-4.045.77-5.981 4.161-2.222 9.195-1.076 11.495 3.392.218.335.44.31.746.231-.005.361-.147.692-.152 1.052-.182 1.191-.393 2.519-.658 3.764-1.798-4.794-8.446-5.489-12.201-2.458zm1.031-6.866c.379-1.437.812-2.791 1.438-4.031.138.03.277.059.444-.05 2.946-2.625 7.465-2.456 10.145.574.163.251.469.172.637.063a43.59 43.59 0 0 1-.448 6.846c-2.607-4.388-7.996-5.9-12.216-3.402zm2.01-5.355c.769-1.571 1.592-3.058 2.692-4.487.109.168.302.281.553.118 2.375-1.301 4.973-.602 6.807 1.308.054.084.193.113.193.113.233 1.279.328 2.528.369 3.694-2.626-2.946-7.584-3.425-10.614-.746zm4.91-8.785c-4.293 3.856-7.083 9.478-8.347 15.065l-.251.163c-.168.109-.059.277.049.445l-.029.138c-.384 1.798-.663 4.125-.804 6.48l-.084.055c-.113.193-.089.415.104.528.029 4.272 1.055 8.612 4.667 10.323 6.314 2.937 9.314-6.039 10.119-10.494 1.283-7.029 2.348-14.394-.172-21.222.498.034.968.207 1.467.241.415.088.913.123 1.412.157-.084.054-.029.138-.059.276.928 9.887 1.604 19.936-1.597 29.52-2.882 8.423-9.647 14.716-13.022 22.745-.853-9.22-5.015-17.844-5.838-27.202-.849-9.58 2.255-18.028 7.265-25.925.277.059.504-.326.341-.578.424-.632.877-1.403 1.385-2.09.084-.055.114-.193.059-.277 1.127.819 2.259 1.277 3.335 1.652zm-3.502-1.543l-.084.054-1.772 1.864c-.523-.256-1.185-.542-1.793-.744-.8-.315-1.601-.631-2.347-.862.622-.88 1.382-1.73 2.141-2.58 1.181.902 2.476 1.612 3.855 2.268zm-78.117 24.548c-.539-1.199-.634-2.449-.507-3.723.714-1.655 1.483-3.226 2.252-4.798.473 4.223 2.586 8.216 5.626 11.25-1.694.145-3.442.206-5.19.267-.875-.982-1.726-1.742-2.181-2.996zm.877 3.007l-4.326-.055 2.286-5.297c.032 1.887.671 3.975 2.04 5.352zm1.213-12.466c.942-2.041 2.021-4.052 3.101-6.063.183.835.644 1.728.911 2.508.723 2.034 1.614 3.959 2.643 5.914 1.815 3.352 4.105 6.515 7.267 8.636-2.473.412-4.947.825-7.446 1.014-3.564-3.29-5.592-7.338-6.476-12.009zm7.84 2.901c-1.602-2.655-4.046-6.791-4.034-9.898-.029.138.247.197.277.059.005-.36-.104-.528-.297-.642 1.164-2.065 2.327-4.131 3.6-6.028.344 3.471 1.656 7.15 3.979 9.814-1.188 1.843-2.293 3.632-3.536 5.392-.31.439.293 1.002.821.898 1.782-.56 3.535-.981 5.318-1.541 1.455 3.347 3.774 6.372 6.768 8.602-1.836.475-3.811.922-5.702 1.314-2.911-2.284-5.265-4.811-7.194-7.97zm8.368-14.483c-1.795-2.768-3.289-5.256-4.275-8.431.706-.934 1.465-1.784 2.225-2.634 1.041-1.152 2.082-2.304 3.177-3.371.299 2.666 1.7 5.929 3.563 7.701l.055.084c-.932 1.319-1.949 2.693-2.826 4.096l-6.337 9.711c-2.013-3.105-3.389-6.146-3.896-9.869 1.104-1.789 2.402-3.464 3.699-5.14.739 2.978 2.03 6.073 4.136 8.402.331.143.697-.213.479-.549zm22.312-22.57c-.732-1.313-1.326-2.597-1.614-3.959l7.238-2.071c.15 1.333.659 2.671 1.451 3.707-.78.268-1.615.451-2.341.802-4.068 1.446-7.839 3.534-11.338 6.041-.406-.81-.979-1.51-1.301-2.374-.431-1.032-.555-2.143-.68-3.254l.084-.055c2.039-1.083 4.157-1.86 6.329-2.554.258 1.501.739 2.977 1.639 4.182.276.059.612-.159.533-.465zm-7.191 4.901l-2.354 1.884-2.359 2.244c-1.138-2.123-1.999-4.186-2.411-6.66 1.707-1.226 3.385-2.314 5.256-3.289.086 1.97.612 4.251 1.868 5.821zm-5.275 4.731c-1.688 1.809-3.182 3.732-4.677 5.654-.678-1.229-1.523-2.349-2.172-3.717-.593-1.283-.965-2.592-1.475-3.93 1.91-1.834 3.874-3.584 6.001-5.082.274 2.444 1.017 5.061 2.323 7.075zm-4.671 33.419c-2.911-2.284-5.151-5.003-6.942-8.132l6.626-1.913c1.204 3.511 3.493 6.674 6.828 8.325-2.118.778-4.29 1.471-6.433 2.026.084-.054.114-.192-.079-.306zm6.991-2.268c-3.079-2.175-5.407-4.479-6.862-7.827.918-.237 1.837-.475 2.7-.797 1.531-.397 3.091-.931 4.706-1.382 1.069 3.12 3.359 6.283 6.506 7.461-2.261 1.108-4.576 2.133-7 2.989.113-.192.143-.331-.05-.444zm.934-10.14c2.952-.961 5.821-1.867 8.694-3.134.054.084.054.084.138.029 1.079 2.399 3.185 4.728 5.557 5.813-2.434 1.577-4.921 3.071-7.518 4.397-3.054-1.953-5.416-3.758-6.871-7.105zm14.921 2.243c-1.181-.903-2.391-1.667-3.375-2.817-.821-.898-1.474-1.905-2.043-2.966l.252-.163c2.261-1.109 4.413-2.385 6.372-3.774.916 2.147 2.745 4.417 5.181 4.864-1.964 1.751-4.121 3.387-6.248 4.886-.084.054-.084.054-.139-.03zm6.697-5.295c-2.233-1.055-4.106-2.105-5.101-4.559l-.054-.084c1.875-1.335 3.558-2.784 5.27-4.371 1.197 1.846 3.174 3.425 5.417 3.759-1.717 1.947-3.459 3.672-5.339 5.368-.054-.084-.054-.084-.193-.113zm5.818-5.917c-2.293-.779-3.918-1.631-5.337-3.452 1.628-1.533 3.147-3.233 4.667-4.934.614 1.867 2.537 3.361 4.596 2.861.39-.134.285-.662-.075-.667-1.857-.107-3.483-.96-4.042-2.742 1.124-1.206 2.195-2.496 3.265-3.786.506 1.698 1.9 3.297 3.727 3.542-1.928 3.276-4.187 6.41-6.579 9.153-.084.054-.084.054-.222.025zm7.901-10.606a.45.45 0 0 0-.419.272c-.113.193-.143.331-.256.524-1.853-.468-3.227-1.484-3.703-3.321.282-.301.592-.741.874-1.042l.084-.055c.954 1.288 2.214 2.497 3.42 3.622zm-8.825-10.486l.381.587c.054.084-.029.138.025.222-.03.138.163.252.247.197l.435.672c-.192-.114-.415-.089-.612.158-.957 1.098-1.83 2.14-2.842 3.154-.085-1.971-1.534-3.653-3.327-4.398 2.394-.718 4.73-1.16 5.693-.592zm-29.918 16.537c.706-.934 1.52-1.7 2.334-2.466.73-.712 1.461-1.424 2.245-2.052 3.789.88 6.627 4.523 6.023 8.37-1.09.708-2.181 1.415-3.326 2.038-.42.272-.978.515-1.703.866 1.295-3.7-1.958-7.431-5.573-6.756zm4.205 7.404c-3.041 1.376-6.937 2.352-6.689-1.86.132-1.635.817-3.152 1.833-4.526 3.368-.872 6.571 2.414 4.89 5.887-.113.193-.143.331-.034.499zm.937-12.525a67.2 67.2 0 0 1 4.959-3.931c1.882.329 3.562 1.266 4.764 2.751 1.31 1.654 1.317 3.318 1.457 5.372-.03.139.025.223.163.252-.365.356-.785.628-1.15.984l-3.529 2.645c.106-3.882-2.787-7.608-6.664-8.073zm5.966-4.584c1.678-1.088 3.411-2.092 5.06-3.042.054.084.192.114.331.143 3.882.105 6.083 3.684 4.817 7.246-.03.138-.059.276-.005.36l-3.957 3.639c1.073-3.676-2.595-7.495-6.246-8.346zm6.259-3.581l1.925-.891c.474-.188 1.98-.807 3.846-1.421 0 0 .055.084.139.03 2.238.694 3.212 2.565 3.461 4.787l.109.168c-1.406 1.507-2.728 2.961-4.189 4.384.792-3.374-1.745-6.734-5.291-7.057zm11.463-4.93l.272.42c-3.215-.18-9.49 2.458-10.437 2.834-3.18 1.347-6.225 3.083-9.053 5.155l-.168.109c-2.043 1.444-3.948 2.917-5.828 4.613-.139-.03-.168.109-.198.247-.533.465-1.065.929-1.628 1.532-.898.821-2.304 2.329-3.409 4.118l-.419.272c-.168.108-.143.331-.005.36-1.755 2.807-2.711 5.929-.072 7.793 1.705 1.159 4.184.387 5.941-.395 2.622-1.104 5.08-2.46 7.429-3.983.222-.025.39-.134.42-.272l1.258-.816c7.053-4.93 12.929-11.124 18.504-17.599.084-.054.113-.192.143-.331.954 1.289 1.854 2.493 2.892 3.726l-.251.164c-6.339 7.685-12.842 15.119-21.994 19.384l-.054-.083c-.164-.252-.499-.035-.474.188-.168.108-.39.133-.558.242-2.705 1.158-5.381 2.178-8.166 3.03-.054-.084-.222.025-.222.025l-7.49 2.234c-.054-.084-.025-.222-.079-.306-.025-.222-.415-.088-.39.134.054.084.025.222.079.306a178.97 178.97 0 0 1-6.902 1.853l-.218-.335c-.163-.252-.553-.118-.39.133.054.084.025.223.134.391-1.225.317-2.365.58-3.536.981l7.753-11.939c2.801-4.319 5.602-8.638 9.061-12.311l.109.168c.301.281.612-.159.449-.41l-.164-.252c.084-.054.114-.193.198-.247 3.71-3.836 8.271-6.912 13.153-9.124 4.492-2.079 9.563-3.817 14.31-2.009zm-4.046-6.791c1.029 1.954 2.142 3.855 3.255 5.755a6.73 6.73 0 0 0-2.791-.812c-.397-1.531-1.292-3.096-1.94-4.463.558-.243 1.086-.347 1.476-.48zm-.311 4.85c-1.359-.073-2.721.214-4.084.502-.846-1.12-1.385-2.32-1.757-3.628 1.447-.342 2.839-.768 4.231-1.194.565 1.422.961 2.952 1.61 4.32zm-1.262-7.644l.168-.109 1.217 2.429c-2 .224-4.029.586-6.004 1.032 0 0-.055-.084.029-.138-.025-.222-.385-.227-.36-.005.054.084-.03.139.024.223-2.503.55-4.981 1.323-7.406 2.18l-.054-.084c-.079-.306-.44-.311-.444.049.054.084-.03.139.025.223-8.334 3.138-15.886 8.035-22.018 14.752s-10.615 14.51-14.573 22.558c-.054-.083-.222.025-.168.109a.31.31 0 0 0 .025.222c-2.277 4.576-4.224 9.294-6.225 13.928-.226.386.13.751.49.755 4.159.164 8.376.052 12.569-.283.192.114.276.059.444-.05 23.689-2.249 46.663-13.688 58.505-35.311.084-.054.03-.138.114-.192.603.562 1.206 1.124 1.838 1.549-.769 1.571-1.622 3.196-2.583 4.654l-2.121 3.163c-7.147 10.116-17.427 17.973-28.944 22.819-7.222 3.014-14.876 4.996-22.628 6.09-3.946.532-7.916.842-11.773.959-3.773.063-8.217.561-11.602-1.535 4.019-6.3 7.791-12.798 11.094-19.468 3.273-6.532 6.383-13.316 10.812-19.168 7.789-10.412 18.98-15.761 30.873-19.659 2.805-.269 5.699-.954 8.676-1.692zm-1.846-9.649a30.18 30.18 0 0 0 .448 4c-.138-.029-.222.025-.306.08-.893.46-1.757.781-2.621 1.103-.134-.39-.268-.78-.318-1.224-.099-.889-.06-1.748.033-2.524l2.764-1.435zm-3.176 5.396c-1.17.401-2.394.719-3.535.981-.183-.834-.535-1.56-.58-2.365l.103-1.496c1.333-.15 2.641-.521 3.979-1.031-.349 1.299-.422 2.657.033 3.911zm-53.646-30.17l5.598-1.842c-1.109 2.149-2.055 4.55-2.586 7.04l-1.333.149c-.721-.009-.706.934-.098 1.136.331.143.746.232 1.077.375-.629 3.625-.62 7.314.252 10.682-.193-.114-.247-.198-.44-.311-1.512-1.046-3.079-2.175-4.561-3.359.084-.055.113-.193.059-.277-1.383-4.705-.627-9.605 2.032-13.593zm-3.164 13.135l-2.333-1.944c-.795-.676-1.7-1.519-2.55-2.279-.022-2.608.588-4.791 2.251-6.822 1.644-.59 3.233-1.263 4.877-1.852-2.406 3.825-3.242 8.419-2.245 12.897zm38.386-12.851c-.154-.973-.475-1.837-.239-2.943.063-.638.403-1.216.798-1.71 2.435.447 4.787.949 7.079 1.727-.932 1.319-1.593 3.058-1.586 4.723-2.599-.699-5.172-1.176-7.775-1.514a40.66 40.66 0 0 0-5.823-.158l.03-.138c-.07-1.027-.308-1.946-.018-2.968.261-.884.576-1.685 1.168-2.426 2.08.082 4.129.302 6.288.69-.311.44-.567.964-.769 1.572-.29 1.022-.393 2.519.428 3.417.109.168.444-.05.419-.272zm13.115 2.58c-.118.554-.073 1.359.17 1.916-2.041-.941-4.249-1.774-6.349-2.438-.045-.805.048-1.581.225-2.411s.492-1.63 1-2.317c.47.173.939.345 1.354.434 2.816 1.034 5.489 2.4 8.049 3.958 1.018.651 2.006 1.44 2.94 2.146-.478.548-.848 1.265-.941 2.04-.064.637-.216 1.689.165 2.277a31.96 31.96 0 0 0-5.312-3.23l-.054-.084c-.268-.78-.594-1.284-.472-2.197.093-.776.547-1.547 1.218-1.982.336-.218.01-.721-.326-.503-.923.598-1.545 1.478-1.667 2.391zm-21.327-2.38c-2.193.111-4.277.389-6.39.806 0 0-.055-.084.029-.138-.07-1.028-.476-1.837-.378-2.973.152-1.052.581-2.045 1.202-2.925.084-.054.03-.138.114-.193 1.694-.144 3.304-.235 5.022-.157.583-.021 1.082.013 1.665-.007-1.268 1.537-1.962 3.775-1.264 5.587zm-7.43-2.453c-.153 1.052-.087 2.44.541 3.225-.084.054-.222.025-.306.079-2.504.551-4.898 1.269-7.347 1.903.084-.054.168-.108.113-.192-.015-.944-.421-1.753-.382-2.613.013-1.081.413-1.936.757-2.875.089-.414.177-.829.182-1.19 2.503-.55 5.116-.933 7.698-1.178-.73.712-1.104 1.789-1.256 2.841zm-7.512-.373c-.286.662-.572 1.324-.665 2.1-.098 1.136-.116 2.578.704 3.476.055.084.055.084.139.029-2.756.714-5.511 1.428-8.399 1.751.531-2.489 1.393-4.836 2.477-7.207 2.088-.639 4.231-1.195 6.345-1.611-.148.691-.488 1.269-.601 1.462zm-8.673 10.152c-.025-.222.088-.415.063-.637 2.347.862 4.635 2.001 6.838 3.194-1.483 3.226-1.484 7.636-1.169 11.246-1.789-1.104-3.578-2.209-5.283-3.368-.482-3.501-.994-6.864-.449-10.435zm6.492 8.543c.191-1.912.658-3.764.988-5.646 1.541.907 2.999 1.869 4.457 2.831a.75.75 0 0 0-.281.301s-.03.139.054.084l.109.168c.054.084.222-.025.168-.109.217.336-.507 2.712-.511 3.072-.068.998-.191 1.912-.121 2.939.007 1.664.26 3.526.711 5.141l-5.371-2.954c-.308-1.945-.339-3.832-.203-5.827zm5.589 3.289c-.032-1.887.436-3.739.488-5.68l6.627 4.522c-1.311 2.757-1.55 6.249-.115 9.014.218.335.776.093.642-.297-.907-2.869-1.121-5.59-.087-8.406 1.898 1.273 3.741 2.461 5.752 3.541-.783 2.653-.824 5.897.615 8.301-3.29-.846-6.437-2.024-9.609-3.423-1.131-.459-2.233-1.055-3.28-1.568-.501-2.059-1.031-3.979-1.033-6.004zm13.592 6.442c-.041-1.165.057-2.301.209-3.354l1.156.681c1.626.853 3.281 1.567 4.882 2.198-.635 1.961-.722 4.401.169 6.326-1.828-.245-3.571-.545-5.286-.983-.45-1.614-1.069-3.12-1.13-4.868zm6.507 3.051c-.125-1.111-.027-2.247.293-3.408 2.016.719 4.199 1.33 6.387 1.579-.379 1.438-.377 3.463.326 4.914-2.055.14-4.05.004-6.1-.216-.376-.948-.782-1.758-.906-2.869zm7.36 1.425c-.292-1.002-.279-2.083-.043-3.19 2.05.22 3.991.273 5.991.049-.211 1.329-.229 2.771.394 3.916-1.891.392-3.753.645-5.669.815-.188-.474-.515-.977-.673-1.59zm14.144-10.72c-.054-.084-.193-.113-.36-.004l-4.252.611c1.012-1.013 1.504-2.643 1.493-3.947a5.95 5.95 0 0 0-1.199-3.871c1.793.744 3.557 1.626 5.267 2.425-.463 1.492-.733 3.097-.949 4.786zm-15.097.612a43.84 43.84 0 0 1-4.262-.693c-.554-.118-1.023-.29-1.576-.408 2.231-.97 3.626-3.781 3.851-6.192.082-2.079-.586-4.029-1.926-5.544.83.177 1.66.354 2.544.615.968.207 1.991.497 2.929.842 1.533 1.628 2.478 3.637 2.199 5.964-.182 1.19-1.192 4.228-2.697 4.847l-.055-.084s-.054-.084-.138-.029a.55.55 0 0 0-.583.02c-.113.193-.227.385-.286.662zm-10.7-9.151c.383-1.798-.26-3.526-1.521-4.735.721.009 1.358.073 2.134.166 1.635.132 3.24.402 4.845.672 1.533 1.628 2.448 3.776 2.115 6.018-.364 2.381-1.879 3.721-3.507 5.253-.084.055-.113.193-.143.331-2.238-.694-4.362-1.581-6.344-2.799-.44-.311-1.156-.681-1.789-1.105 1.996.137 3.939-2.196 4.21-3.801zm-5.035 3.264c-2.253-1.638-4.749-3.833-4.475-5.799.157-1.413 1.016-1.374 2.241-1.691.918-.238 1.807-.338 2.696-.437l1.748-.061c1.429 1.1 2.181 2.996 1.521 4.735-.315.8-.907 1.541-1.579 1.977s-1.422.564-2.009.945c-.084.054-.113.192-.143.331zm20.645 1.512c.502-2.352-.133-4.801-1.636-6.567 1.962.635 3.755 1.379 5.687 2.153l.109.168c1.26 1.208 1.879 2.714 1.717 4.487-.131 1.635-1.005 2.678-1.853 3.943-.084.054-.029.138-.029.138-2.139.195-4.386.222-6.549.194 1.318-1.093 2.318-3.41 2.554-4.516zm11.254-1.576c-5.911-4.153-12.758-6.626-19.757-8.047-3.68-.713-7.528-1.316-11.247-1.17-1.97.086-6.301.391-6.941 2.713-.669 2.46 2.929 5.252 4.382 6.574 2.689 2.309 5.856 4.069 9.225 5.222 7.401 2.591 15.337 2.331 22.897 1.124.084-.054.084-.054.222-.025-.093.776-.132 1.635-.087 2.44-.084.055-.222.025-.306.08-2.152 1.276-4.438 2.162-6.689 2.549-.109-.168-.386-.227-.499-.034l-.084.054c-6.725 1.024-13.741-1.34-19.744-4.718l.088-.414c.114-.193-.217-.336-.331-.143-.029.138-.113.192-.143.331a12.04 12.04 0 0 1-1.541-.908c-7.818-4.704-14.787-10.673-23.259-13.999 4.306-.527 8.512-1.944 12.714-3 4.898-1.268 9.87-1.871 14.997-1.5 10.031.766 18.88 5.04 26.595 11.24-.202.608-.32 1.161-.492 1.631zm2.582-6.68c-.656 1.379-1.312 2.757-1.774 4.249-1.177-1.263-2.467-2.334-3.841-3.35.138.03.222-.025.252-.163.004-.36-.075-.667-.154-.973-.05-.444-.045-.805-.041-1.165.148-.692.434-1.354.774-1.932l3.979 3.379c.247.198.553.118.805-.045zm-17.14-24.045c1.034 1.594 2.122 3.272 3.239 4.812a90 90 0 0 0 4.475 5.799c-2.886-2.062-6.058-3.461-9.541-4.421 0 0 .03-.139-.024-.222-.887-2.286-.163-4.662 1.851-5.968zm-5.742 2.173c1.241.626 1.948 1.717 2.403 2.971.025.222.104.529.213.696-2.267-.556-4.593-.835-6.865-1.03.084-.055.029-.139-.025-.223.057-2.301 2.51-3.296 4.274-2.414zm-9.77-1.65c2.331-.081 3.997 1.937 4.33 4.105l.055.084c-2.495-.171-5.048-.065-7.463.071.03-.138-.079-.306-.272-.42-.825-.537.418-2.296.867-2.707.646-.657 1.678-1.088 2.483-1.133zm-8.73 1.608c2.034-.723 4.322.416 4.181 2.772-.889.099-1.694.145-2.528.328-1.334.15-2.613.383-3.892.616.048-1.58.679-3.181 2.239-3.716zm-7.215.269c2.054-.141 3.612 1.71 3.781 3.626-2.197.471-4.424 1.081-6.566 1.636 0 0-.055-.084.029-.138-.723-2.035.119-4.964 2.756-5.124zm-8.447 3.331c1.891-.392 3.433.516 4.496 1.971.054.084.109.168.079.307-2.478.772-5.041 1.599-7.41 2.54 0 0-.055-.084.029-.138-.362-2.03.693-4.263 2.806-4.68zm-8.971 3.075c1.955-1.029 4.327.056 5.163 1.897l.109.168-6.941 2.713s.029-.139-.025-.223c-.367-1.669.046-3.605 1.694-4.555zm-17.963 14.388c-1.537-1.267-1.979-3.603-1.289-5.48 1.744-4.111 6.792-4.046 9.812-1.595.355.365 1.081.014.922-.598-.94-2.37 1.423-4.975 3.874-3.584.909.483 1.369 1.376 1.943 2.077l-13.132 5.297c-.474.188-.676.795-.236 1.106 1.206 1.125 2.328 2.304 3.534 3.429-1.782.56-3.891.616-5.428-.652zm6.249 1.55c1.725 1.742 3.534 3.429 5.289 5.033-3.341 3.119-8.165-1.38-5.289-5.033zm5.887 5.956l.252-.163 5.101 4.558c-3.098 3.677-8.09-.713-5.353-4.395zm6.08 10.479c-1.395-1.599-.646-3.753.069-5.408 1.784 1.465 3.514 2.846 5.327 4.173-1.322 1.453-3.839 3.086-5.396 1.235zm6.651 4.745c-1.675-1.298-1.346-3.179-.656-5.057.168-.109.197-.247.365-.356 1.705 1.159 3.464 2.402 5.253 3.507-1.322 1.453-3.123 3.455-4.962 1.906zm6.884 3.999c-2.095-1.026-1.816-3.352-1.126-5.229 1.927 1.134 3.938 2.213 5.949 3.293-1.046 1.512-2.783 2.877-4.823 1.936zm5.9-1.561c.524.256 1.047.512 1.517.685 1.6.63 3.201 1.261 4.831 1.753-.084.055-.084.055-.113.193-2.155 3.662-7.116 1.157-6.235-2.631zm10.225 7.314c-2.08-.082-3.884-2.13-3.081-4.2.03-.138.059-.276.005-.36 2.514.753 5.058 1.368 7.661 1.706-1.046 1.512-2.644 2.907-4.585 2.854zm-9.377-8.58c-13.567-6.22-24.363-16.62-34.882-26.962 13.044-4.882 25.774-11.348 39.67-13.445 5.836-.924 11.857-1.014 17.611.142 5.977 1.13 10.992 3.718 16.166 6.919.138.029.193.113.276.059 2.408 2.61 5.004 5.694 8.003 7.563 0 0 .055.084.138.03-.453.771-.823 1.487-1.277 2.258-.054-.084-.024-.222-.079-.306-3.575-4.595-9.662-7.918-15.018-9.928-3.008-1.148-6.022-1.935-9.148-2.53.251-.163-.021-.583-.272-.419l-.42.272c-2.712-.507-5.482-.736-8.144-.798-14.224-.431-28.873 4.18-41.411 10.76-.336.218-.039.86.297.642 2.147-.916 4.349-1.747 6.551-2.579-1.268 1.537-2.125 3.523-2.207 5.602-1.206-1.125-2.496-2.195-3.845-2.989-.247-.197-.474.188-.365.356 1.573 2.794 5.037 5.196 7.424 7.223 2.827 2.339 5.822 4.568 8.93 6.605 1.952 1.356 3.988 2.658 6.108 3.906.025.222.356.365.524.256a87.66 87.66 0 0 0 11.023 5.605c10.291 4.292 22.744 6.587 33.422 2.285a.35.35 0 0 0 .474-.188c.948-.376 1.841-.836 2.735-1.296.129.75.342 1.447.609 2.227-.167.108-.226.385-.118.553l.218.335c-.084.055-.222.025-.222.025-.055-.084-.247-.197-.415-.088-2.42.496-4.839.992-7.234 1.71-4.587.829-9.308 1.268-14.079 1.263-7.319-.26-14.452-2.071-21.043-5.068zm14.889 9.178c-.041-1.166.472-2.213.984-3.261 3.878.466 7.844.516 11.814.206-3.93 1.476-7.726 3.341-11.25 5.626-.302-.281-.633-.424-.934-.705-.465-.533-.623-1.145-.614-1.866zm-2.887 2.348c.948-.376 2.054-.14 2.879.397.164.252.356.366.549.479-1.51.979-2.966 2.042-4.284 3.135-1.399-1.238-1.01-3.397.856-4.011zm-7.073 4.348c1.599-1.395 3.728-.868 5.265.4-1.599 1.394-3.227 2.926-4.634 4.434-1.537-1.268-2.482-3.277-.631-4.834zm-5.344 5.729c.824-1.488 2.493-1.855 3.901-1.338.326.504.82.899 1.482 1.184-.592.742-1.238 1.399-1.83 2.14-.705.935-1.494 1.923-2.145 2.941-1.483-1.184-2.374-3.109-1.408-4.927zm.87 5.752c-1.415 2.229-2.692 4.487-4.053 6.8l-.055-.084c-4.205-2.994-.438-9.132 4.108-6.716zm-10.051 9.497c.887-2.125 3.479-3.09 5.46-1.872.055.084.139.029.277.059l-3.698 7.164c-.029.139-.142.331-.226.386-1.646-1.436-2.7-3.613-1.813-5.737zm-3.056 6.867c1.397-.786 2.776-.131 4.109-.28l.109.168c-1.139 2.287-2.416 4.545-3.639 6.887 0 0-.054-.083-.138-.029-2.757-1.311-3.319-5.118-.441-6.746zm-6.441 9.182c1.633-1.893 4.27-2.053 6.567-1.636-1.534 2.782-3.038 5.426-4.764 8.094-.054-.084-.108-.168-.247-.197-2.593-1.059-3.584-3.874-1.556-6.261zm-3.76 14.237c-2.423-3.554.906-7.977 4.996-6.815-.68 1.156-1.415 2.228-2.095 3.385-.198.247-.064.637.183.834 1.814 1.327 3.997 1.937 6.24 2.271-2.255 2.773-6.817 3.824-9.324.325zm14.094 4.091c-2.331.081-3.716-2.239-3.328-4.397 2.217.111 4.494-.054 6.603-.11-.084.054-.114.192-.059.276-.03.139.079.306.049.445.086 1.97-1.241 3.784-3.265 3.786zm8.913-.774c-2.256.748-4.421-1.305-4.532-3.497.03-.139-.025-.222-.079-.306.444-.05 1.027-.07 1.471-.12 1.833-.116 3.665-.231 5.442-.43.061 1.748-.352 3.685-2.302 4.353zm7.517.013c-2.47.052-4.077-2.243-4.02-4.545 2.445-.274 4.919-.686 7.338-1.182-.029.138-.059.277-.004.36-.03.139.079.307.133.39.442 2.336-.978 4.925-3.447 4.977zm9.006-1.549c-2.276.165-3.863-1.547-4.532-3.498-.024-.222-.133-.39-.158-.612l-.163-.252c1.585-.312 3.254-.679 4.784-1.076.835-.183 1.699-.505 2.533-.688-.029.138.025.222.134.39 1.967 2.299.262 5.55-2.598 5.736zm17.289-7.158c-1.821 1.42-4.528.553-5.444-1.595-.297-.641-1.383-.295-1.086.347l.109.168c1.162 2.345-.514 5.458-3.314 5.366-1.995-.136-3.528-1.764-3.782-3.626a91.54 91.54 0 0 0 13.72-5.677c1.063 1.456 1.45 3.707-.203 5.017zm6.259-3.581c-2.039 1.084-4.045-.357-4.492-2.332 1.817-1.058 3.717-2.171 5.425-3.398l.054.084c.105.529.238.919.426 1.393.451 1.614.374 3.333-1.413 4.253zm6.758-3.547c-1.649.95-3.501.482-4.288-.915-.104-.528-.238-.918-.426-1.392-.109-.168-.163-.252-.302-.281 2.799-1.934 5.434-4.119 7.961-6.472l1.855-1.918c-.853 1.625-1.622 3.197-2.337 4.852-.857 1.986-1.522 4.085-2.103 6.13-.054-.083-.193-.113-.36-.004zm.006 1.664c-.502 2.351-.865 4.732-1.006 7.088-4.149-.885-3.572-6.98 1.006-7.088zm-1.023 14.965c-.222.025-.361-.004-.583.02-1.803-.023-3.448-1.458-3.48-3.345-.056-2.108 1.933-3.636 3.928-3.5-.107 1.857.008 3.689.124 5.521.049.445.099.889.011 1.304.138.03.084-.054 0 0zm1.252 8.365c-2.281.526-5.147-.953-5.169-3.561-.086-1.97 1.626-3.557 3.488-3.811.222-.025.361.005.583-.02.084-.054.084-.054.222-.025.274 2.444.686 4.918 1.153 7.476-.139-.029-.223.025-.277-.059zm-3.398 5.421c-.219-2.361 1.903-3.498 3.661-4.28l.084-.055c.471 2.198.997 4.479 1.606 6.706-1.664.006-5.018-.203-5.351-2.371zm7.383 10.468c-2.211 1.553-5.491-.015-5.538-2.844.082-2.08 1.823-3.805 3.769-4.113l1.006 3.757c.292 1.003.501 2.059.793 3.062.054.084 0 0-.03.138zm-2.992 6.23c-.995-2.453 1.459-3.448 2.92-4.872.167-.109.251-.163.474-.188a112.79 112.79 0 0 0 2.501 8.27c-2.213-.472-5.008-.924-5.895-3.21zm8.381 10.537c-1.757.782-4.163.196-4.886-1.838s.856-4.011 2.692-4.487l.084-.054c.639 2.088 1.333 4.261 2.248 6.408l-.138-.029zm.887-2.125c-.698-1.812-1.45-3.707-2.064-5.574-1.229-3.732-2.289-7.573-3.349-11.415-1.958-7.431-4.054-14.891-4.649-22.609-.679-7.665.441-14.945 3.471-22.035 1.43-3.31 3.106-6.423 4.92-9.506.198-.248.257-.524.454-.771 2.397-3.104 4.464-6.351 6.228-9.878 1.043.873 2.116 1.608 3.272 2.288-9.208 8.592-14.224 21.259-14.992 33.676-.424 7.067.877 13.852 2.927 20.507l7.614 24.978c.08.306.549.478.801.315 12.402-8.995 21.309-22.278 25.464-37.009.167-.109.197-.247.088-.415 1.339-4.92 2.208-10.012 2.495-15.085l.252-.163c.335-.218.063-.637-.213-.696l.102-1.497c.053-1.941.021-3.827-.148-5.743l.167-.109c.252-.163.089-.415-.188-.474-.31-3.97-.98-7.945-1.957-11.841l-.163-.252a11.92 11.92 0 0 0 1.778-.199c.054.084-.03.138.025.222 3.89 14.64 3.919 29.757-1.451 44.084-2.729 7.371-6.728 14.254-11.854 20.319-2.619 3.128-5.402 6.005-8.486 8.601-1.515 1.34-3.223 2.566-4.846 3.738-1.037.791-2.404 1.439-3.139 2.512-.53-1.921-1.698-3.905-2.559-5.969zm1.832 10.73c-3.596-.767-4.706-5.053-2.204-7.628.593 1.284 1.271 2.513 2.062 3.549a.54.54 0 0 0 .692.148c1.832-.116 3.708-1.451 5.361-2.761l-.03.138c.814 3.644-1.924 7.326-5.881 6.554zm13.398-6.541c-1.692 2.17-4.903 1.629-6.347-.414-.108-.168-.247-.197-.301-.281.365-.356.784-.628 1.066-.93 1.569-1.256 3.168-2.65 4.683-3.989 1.621 1.213 2.226 3.8.899 5.614zm5.654-6.169c-1.322 1.453-3.347 1.455-4.943.464-.218-.335-.519-.617-.767-.814l1.264-1.177c1.292-1.314 2.531-2.713 3.769-4.112l.163.252c1.592 1.351 2.004 3.825.514 5.387zm6.631-6.683c-1.524 2.061-4.576 2.133-6.523.416-.055-.084-.193-.113-.331-.143 1.746-2.086 3.384-4.339 4.828-6.706.055.084.055.084.193.113 2.288 1.139 3.441 4.205 1.833 6.32zm4.185-8.434c-1.351 1.591-3.544 1.702-5.367 1.096l-.138-.029 1.785-2.945c.596-1.102 1.193-2.204 1.735-3.39.054.084.193.114.247.198 2.406.585 3.287 3.231 1.738 5.07zm-1.245-6.701c.941-2.04 1.774-4.249 2.522-6.402 4.446 1.526 1.815 7.761-2.522 6.402zm2.897-7.479c.837-2.569 1.536-5.168 2.042-7.879.054.083.109.167.247.197 1.734 1.021 2.986 2.95 2.543 5.025-.665 2.1-2.762 3.46-4.832 2.657zm4.309-7.323c.361.004.751-.13 1.057-.209-.173.469-.315.8-.35 1.299-.133-.39-.405-.809-.707-1.09zm2.537 3.36c-.979-1.51-.68-3.254.198-4.657.197-.247.395-.494.508-.687l.168-.109c1.444 2.044 3.056 3.978 4.697 5.774l-.084.055c-1.465 1.784-4.236 1.554-5.487-.376zm6.392 1.219c1.834 1.91 3.919 3.656 5.951 5.319-3.597 3.643-9.138-1.227-5.951-5.319zm7.432 10.913c-1.818-.967-1.786-3.49-.547-4.889l.084-.054c1.181.902 2.446 1.751 3.573 2.569.385.227.825.538 1.21.765-.084.054-.168.109-.197.247-.848 1.265-2.606 2.047-4.123 1.362zm5.94 4.014c-1.784-1.465-1.484-3.208-.656-5.056 2.228 1.415 4.571 2.638 6.913 3.86-1.47 2.145-4.225 2.859-6.257 1.196zm7.275-.545l6.284 3.076c-2.189 4.161-8.113 1.089-6.284-3.076zm8.739 8.516c-1.902-.912-2.067-3.188-1.269-4.898l5.598 2.568c-.168.109-.252.163-.311.44-.438 1.714-2.363 2.605-4.018 1.89zm4.75-.577c.227-.385.37-.716.459-1.131.084-.055.167-.109.197-.247l6.398 2.883-.084.054c-1.808 4.748-7.115 1.157-6.97-1.559zm16.941 7.012c-3.948 2.918-8.899-.308-8.785-4.911 1.764.883 3.612 1.711 5.376 2.593.385.227 1.027-.07 1.115-.485.364-2.381.534-4.875.675-7.231l.055.084c1.705 1.159 3.162 2.121 3.717 4.264.501 2.059-.331 4.267-2.153 5.686zm-82.734-82.937l1.69-4.195c.172-.469-.49-.755-.662-.286l-1.829 4.165c-.542 1.186-1.252 2.481-1.463 3.81-.059.276.381.587.578.34.819-1.127 1.198-2.565 1.686-3.834zM136.955 251.38c-.386-.227-.969-.207-1.304.011-.138-.029-.222.025-.445.05s-.281.301-.256.524c.079.306.213.696.431 1.031.163.252.435.672.766.814.553.119 1.086-.346 1.259-.816.285-.662.072-1.358-.451-1.614zm-.488 1.27c-.109-.168-.302-.282-.356-.366.084-.054.168-.108.222-.024l.055.083c.054.084.138.03.138.03l.054.084s-.029.138-.113.193z"/><path opacity=".5" d="M292.125 185.572c-1.376 1.37-2.916 2.487-4.594 3.575-.204-1.417-1.129-2.843-1.723-4.127l-1.702-3.544c-.163-.252-.499-.034-.474.188.426 1.392 1.074 2.759 1.639 4.181.455 1.254.827 2.563 1.618 3.599l.054.084-3.88 1.92c-.641.297-1.337.51-2.034.723-.332-2.168-.745-4.642-1.522-6.76.741.592 1.483 1.184 2.111 1.969.41.449 1.437.379 1.392-.426-.646-3.753 1.04-7.587 3.818-10.103l-.816-1.259c-2.749 2.378-4.484 5.767-4.614 9.427-5.595-4.953-14.805-4.821-20.06.493-1.11-4.286-3.164-8.556-6.875-11.155-2.832-1.978-6.344-2.799-9.573-1.898 3.643-7.248-1.891-14.863-7.88-19.322 5.721-2.756 8.777-9.624 6.968-15.721 4.515.529 8.948-1.273 11.958-4.535.247.197.75-.129.533-.465l-.055-.084c.365-.356.592-.741.819-1.127l-.816-1.258c-.227.385-.538.825-.819 1.126-1.251-1.929-2.641-3.889-3.976-5.764.474-.188.894-.46 1.368-.648l-.653-1.007c-13.339 6.264-23.461 19.144-22.133 34.61.505 6.109 3.152 11.663 6.668 16.534 3.649 5.261 8.163 10.2 13.441 13.929 8.687 6.047 19.87 7.854 29.977 4.877 4.789-1.437 9.148-3.906 12.74-7.188l-3.373-5.202c.644 1.728 1.43 3.125 2.468 4.358zm-41.006-59.937l3.803 6.234c-.957 1.097-2.161 1.997-3.474 2.73l-.054-.084c-1.642-1.797-3.115-3.702-4.337-5.77-.218-.335-.583.021-.419.272 1.137 2.123 2.581 4.166 4.168 5.878-1.199.54-2.453.995-3.787 1.145.03-.139.03-.139-.079-.306-1.256-1.57-3.07-2.897-4.577-4.303 2.719-2.239 5.601-4.227 8.756-5.796zm-11.401 8.703c.76-.85 1.574-1.617 2.389-2.383 1.423 1.461 2.817 3.059 4.384 4.189a11.26 11.26 0 0 1-3.576-.184c-.499-.035-1.031.43-.843.904.43 1.032.639 2.089.793 3.061l-2.224-1.775c-.796-.676-1.646-1.436-2.639-1.865.562-.603 1.07-1.29 1.716-1.947zm-1.943 2.333c.628.784 1.507 1.406 2.303 2.082.934.705 1.839 1.549 2.773 2.254-.014 1.082-.166 2.134-.373 3.102-.736-.953-2.09-1.386-3.137-1.899-1.325-.571-2.54-.975-3.952-1.132-.277-.059-.366.356-.089.415 1.27.488 2.456 1.03 3.641 1.572 1.048.513 2.175 1.331 3.281 1.568 0 0 .138.029.222-.025-.463 1.492-1.202 2.924-2.273 4.214-.988-.789-2.426-1.168-3.641-1.572s-2.43-.807-3.675-1.073c1.152-3.369 2.774-6.566 4.92-9.506zm-5.122 10.114l3.646 1.211c1.131.459 2.149 1.109 3.394 1.375-1.209 1.26-2.749 2.378-4.531 2.938-.084.054-.252.163-.365.356-1.191-.182-2.297-.418-3.345-.931.354-1.659.709-3.319 1.201-4.949zm-.618 15.774c3.141-.487 6.365-1.028 9.535-1.653.529-.104.345-.939-.321-.864-3.087.571-6.311 1.112-9.427 1.821-.709-3.115-.89-6.335-.433-9.491 1.047.512 2.208.832 3.399 1.014l.108.168c1.018.651 2.007 1.44 2.911 2.283-2.133-.165-4.355.083-6.365 1.029-.39.133-.231.746.213.696 2.311-.664 4.563-1.051 6.943-.688.139.029.139.029.223-.025 2.165 2.052 4.019 4.545 4.955 7.275-3.422.788-6.739 2.105-10.027 3.284-.674-1.59-1.263-3.234-1.714-4.849zm8.267 15.14a38.62 38.62 0 0 1-2.863-3.865l.084-.054c1.88-1.696 3.918-2.779 6.422-3.33.528-.104.261-.884-.268-.78-2.557.467-4.793 1.797-6.565 3.661a62.2 62.2 0 0 1-3.066-5.282c3.312-.956 6.818-1.799 9.943-3.229.852 2.785.563 5.832-1.498 8.718-.395.494.036 1.526.761 1.175.81-.406 1.644-.589 2.479-.773-1.846 1.197-3.756 3.031-4.366 5.214-.381-.587-.653-1.006-1.063-1.455zm1.557 1.85c1.554-2.199 2.55-4.156 4.845-5.763.084-.054.084-.054.113-.193a9.72 9.72 0 0 1 3.986.634l-.168.109c-1.839 2.861-3.955 5.663-5.38 8.613l-.029.138c-1.152-1.041-2.274-2.22-3.367-3.538zm3.831 4.071l.168-.109c2.032-2.748 3.57-5.89 5.355-8.835.084-.055.03-.138-.024-.222.993.428 1.902.912 2.836 1.617.054.084.054.084.193.113-1.38 3.755-2.705 7.594-3.808 11.407-1.621-1.213-3.212-2.565-4.72-3.971zm8.16 6.151c-.964-.567-1.927-1.134-2.807-1.756.084-.054.168-.108.197-.247 1.296-3.7 2.399-7.514 3.417-11.273 3.099 2.758 4.629 6.772 5.492 10.86.05.444.603.562.993.429-.093.775-.324 1.521-.333 2.242-.094.776-.216 1.689-.171 2.494-2.322-.639-4.584-1.556-6.788-2.749zm7.534 2.981c.177-.83.023-1.803.062-2.662.068-.998.22-2.05.372-3.102 2.842-3.153 7.103-4.486 11.202-4.045-.27 1.605-.041 3.245-.089 4.825.002 2.025-.219 4.075-.409 5.986-3.694.369-7.517-.013-11.138-1.002zm12.135 1.07c.162-1.773.239-3.492.262-5.294s.13-3.66-.207-5.467c1.743.299 3.428.876 4.969 1.783.19 2.499 1.018 5.061 1.346 7.589l.054.084c-2.088.639-4.202 1.056-6.424 1.305zm-32.6 122.321c.025.222-.005.361.104.528.217.336.524.257.855.4.276.059.637.063.913.122.361.005.499.034.78-.267.563-.603.3-1.744-.387-2.252a1.38 1.38 0 0 0-.469-.172c-.361-.005-.612.158-.755.489-.529.105-1.007.653-1.041 1.152zm2-.224c.054.084.025.222-.059.277l-.139-.03.089-.415.109.168zm-103.234-65.475c.75-.129 1.397-.787 1.46-1.424a1.05 1.05 0 0 0-1.26-1.208c-.055-.084-.138-.03-.193-.114-1.803-.023-1.785 2.945-.007 2.746zm.27-1.605c.084-.055.084-.055 0 0 .084-.055.084-.055 0 0 .084-.055.084-.055 0 0 .084-.055.084-.055 0 0a.43.43 0 0 1-.118.553c-.252.163-.474.188-.637-.064 0 0 .054.084.138.03.415.088.696-.213.617-.519z"/></g></g><defs><clipPath id="A"><path fill="#fff" transform="matrix(.839068 -.544027 .544027 .839068 0 111.471)" d="M0 0h204.9v384.6H0z"/></clipPath></defs></svg>