<svg width="76" height="15" viewBox="0 0 76 15" fill="none" xmlns="http://www.w3.org/2000/svg">
<path d="M3.49447 14.8953C3.45044 14.8414 3.39624 14.7942 3.37592 14.7942C3.35559 14.7942 3.24381 14.71 3.13202 14.6055C3.02024 14.501 2.87119 14.3797 2.79667 14.3325C2.72554 14.2854 2.61375 14.1944 2.54939 14.1304C2.48503 14.0663 2.36647 13.9652 2.28856 13.9046C2.21065 13.8439 2.04806 13.7159 1.92611 13.6181C1.80755 13.5204 1.67883 13.4126 1.64157 13.3823C1.60431 13.3519 1.48914 13.2576 1.38752 13.1767C1.2859 13.0925 1.18089 12.9981 1.15718 12.9678C1.13346 12.9341 1.0962 12.9071 1.07249 12.9071C1.04878 12.9071 0.913284 12.8027 0.767626 12.6712C0.621968 12.5398 0.493247 12.4354 0.479698 12.4354C0.466148 12.4354 0.357752 12.3444 0.24258 12.2365L0.0291748 12.0377L0.218869 11.8558C0.323878 11.758 0.466148 11.6367 0.533896 11.5895C0.601644 11.5424 0.689716 11.475 0.726977 11.4379C0.764238 11.4008 0.953932 11.2425 1.1504 11.0874C1.34687 10.9324 1.5535 10.7538 1.61109 10.6932C1.66867 10.6325 1.72964 10.582 1.74319 10.582C1.77368 10.582 2.10903 10.309 2.12597 10.272C2.13274 10.2585 2.20727 10.1978 2.29534 10.1372C2.38341 10.0765 2.53923 9.95183 2.64424 9.85411C2.74925 9.75639 2.88136 9.65529 2.93894 9.62496C2.99653 9.59464 3.05411 9.5542 3.06766 9.53061C3.1117 9.45985 3.47076 9.17005 3.5148 9.17005C3.53512 9.17005 3.55206 9.15657 3.55206 9.13635C3.55206 9.11613 3.57577 9.10265 3.60287 9.10265C3.64691 9.10265 3.65368 9.20711 3.65368 9.83726V10.5719L4.28712 10.5955C5.71321 10.646 8.58572 10.6629 8.60943 10.6224C8.62298 10.6022 8.66024 10.582 8.69073 10.582C8.72122 10.582 8.78558 10.5247 8.833 10.4573C8.94817 10.2888 8.94479 10.0731 8.82284 9.86422C8.70428 9.66203 8.58572 9.59464 7.19012 8.93079C6.92929 8.80611 6.64813 8.67469 6.56345 8.64099C6.47876 8.60729 6.27552 8.50283 6.10615 8.41185C5.94017 8.32086 5.76741 8.23325 5.72338 8.2164C5.62175 8.17596 5.21866 7.93334 4.89008 7.71093C4.65296 7.55256 4.09066 7.03698 4.00936 6.90219C3.99242 6.87186 3.93484 6.78762 3.88402 6.71011C3.72482 6.47423 3.58932 6.1878 3.55545 6.02942C3.53851 5.94517 3.50125 5.75647 3.47076 5.6082C3.38269 5.17013 3.41656 4.14235 3.52157 4.02777C3.53851 4.01092 3.55206 3.95027 3.55206 3.89298C3.55206 3.74134 3.91451 3.06739 3.99581 3.06739C4.01275 3.06739 4.02629 3.04043 4.02629 3.00336C4.02629 2.93597 4.48698 2.48442 4.73765 2.30919C4.82233 2.24853 5.04929 2.12385 5.24576 2.03287C6.11293 1.61839 6.26536 1.60154 8.8872 1.61502C10.022 1.62176 11.133 1.63523 11.3532 1.64871L11.7529 1.6723L11.7597 3.08424L11.7665 4.49617L9.5308 4.47932C8.30118 4.46921 7.2477 4.46921 7.18673 4.47932C7.12914 4.48943 7.03091 4.53661 6.96655 4.58716C6.85815 4.67477 6.85476 4.68825 6.85476 4.92076C6.85476 5.1398 6.86154 5.17013 6.95639 5.26448C7.01058 5.32177 7.12237 5.40264 7.20028 5.44308C7.27819 5.48352 7.50176 5.60146 7.69145 5.70592C7.88114 5.81038 8.08439 5.90474 8.13859 5.91822C8.19278 5.93169 8.28086 5.97213 8.33167 6.00583C8.38248 6.0429 8.43668 6.06986 8.45361 6.06986C8.48071 6.06986 8.76187 6.20465 9.3174 6.48097C9.42241 6.53488 9.53419 6.57532 9.56129 6.57532C9.59178 6.57532 9.61549 6.5888 9.61549 6.60902C9.61549 6.62587 9.63581 6.64272 9.66291 6.64272C9.69001 6.64272 9.71711 6.65283 9.7205 6.66967C9.73743 6.70674 10.005 6.8449 10.0592 6.8449C10.0863 6.8449 10.1846 6.89882 10.2828 6.96284C10.381 7.02687 10.4725 7.08079 10.486 7.08079C10.4996 7.08079 10.5673 7.12459 10.6317 7.17514C10.6961 7.22906 10.8045 7.29645 10.8722 7.33015C10.94 7.36048 11.0416 7.42787 11.0992 7.47842C11.316 7.6705 11.3735 7.71767 11.4413 7.75137C11.4786 7.77159 11.5836 7.88279 11.6716 7.99736C11.7597 8.11194 11.8512 8.22314 11.8715 8.23999C11.9223 8.28716 12.0917 8.55338 12.0917 8.58707C12.0917 8.60392 12.1323 8.71176 12.1797 8.83307C12.3864 9.33517 12.4575 10.154 12.3457 10.7774C12.2915 11.0874 12.1255 11.6098 12.0138 11.8153C11.9054 12.0175 11.5361 12.4758 11.3905 12.5904C11.3193 12.6443 11.2076 12.742 11.1432 12.7993C11.0788 12.8599 11.0077 12.9071 10.984 12.9071C10.9433 12.9071 10.6995 13.0352 10.669 13.0756C10.6588 13.0857 10.5606 13.1329 10.4488 13.1767C10.337 13.2205 10.232 13.2677 10.2117 13.2778C10.1304 13.3317 9.60194 13.4362 9.17851 13.48C8.63992 13.5339 7.58644 13.5642 7.58644 13.5238C7.58644 13.5002 7.03768 13.4867 5.78435 13.48C4.79184 13.4766 3.91112 13.4699 3.82983 13.4699L3.67739 13.4665L3.66723 14.2314C3.65707 15.0537 3.65029 15.0874 3.49447 14.8953ZM16.9052 13.7664C16.4953 13.7091 16.0786 13.608 15.6247 13.4598C15.2115 13.3216 15.0624 13.2508 14.683 13.0015C14.6051 12.9509 14.5306 12.9105 14.517 12.9105C14.4053 12.9105 13.5178 11.9872 13.5178 11.8692C13.5178 11.8524 13.4737 11.7614 13.4229 11.6738C13.3247 11.512 13.2197 11.2559 13.1214 10.9392C13.074 10.7909 13.0672 10.2652 13.0571 6.19791L13.0469 1.62513H16.5698V10.0698L16.6443 10.218C16.7697 10.464 16.8476 10.5382 17.1287 10.673L17.3963 10.8044H17.8706C18.355 10.8044 18.6429 10.7471 18.7614 10.6292C18.7852 10.6056 18.8258 10.5854 18.8529 10.5854C18.9105 10.5854 19.1374 10.336 19.1781 10.2282C19.1984 10.1776 19.212 8.50957 19.212 5.88452V1.62176H22.7653V10.5314L22.6807 10.8347C22.6332 10.9998 22.5756 11.202 22.5553 11.2762C22.5045 11.4514 22.2708 11.876 22.1759 11.9737C22.1353 12.0141 22.0777 12.0916 22.0506 12.1489C21.9828 12.277 21.4138 12.8027 21.2512 12.8869C21.1834 12.9206 21.0954 12.9779 21.0581 13.0082C20.9599 13.0925 20.4145 13.3789 20.3467 13.3789C20.3163 13.3789 20.2417 13.3991 20.1841 13.4261C19.8691 13.5676 19.4355 13.6754 18.8394 13.7664C18.4295 13.8304 17.3455 13.8271 16.9052 13.7664ZM38.2796 13.7496C37.8595 13.7058 37.5005 13.6283 37.0262 13.4732C36.3996 13.2711 36.0033 13.0419 35.5832 12.6375C35.4443 12.5028 35.3326 12.3882 35.3326 12.3814C35.3326 12.3747 35.2648 12.2803 35.1835 12.1725C35.0107 11.9467 34.8583 11.6772 34.8583 11.5963C34.8583 11.566 34.8448 11.5255 34.8278 11.5087C34.7872 11.4649 34.6652 11.0807 34.5975 10.7842C34.5467 10.5584 34.5399 10.1001 34.5297 6.07659L34.5196 1.62176H38.0763V5.84408C38.0763 9.65866 38.0831 10.0833 38.1305 10.2315C38.2118 10.4775 38.3101 10.5618 38.6082 10.6494C39.1129 10.7976 39.7124 10.6763 39.9225 10.3832L40.0241 10.2383L40.0342 5.92832L40.0444 1.61839H43.5673V5.84071C43.5673 10.5045 43.5571 10.2585 43.7807 10.4708C43.9535 10.6325 44.177 10.6999 44.5496 10.6999C44.7766 10.6999 44.929 10.6797 45.0747 10.6325C45.2949 10.5618 45.366 10.5011 45.4642 10.2955C45.5286 10.1641 45.5286 10.0327 45.5286 5.89126V1.62176H49.0854V6.01594C49.0854 9.83052 49.0786 10.4472 49.0345 10.6831C48.9702 11.0268 48.8448 11.4008 48.7127 11.6435C48.6585 11.7479 48.6111 11.8524 48.6111 11.8793C48.6111 11.9063 48.5908 11.9467 48.5705 11.9737C48.5501 12.0007 48.4824 12.0782 48.4282 12.1523C48.2351 12.4118 47.9641 12.7049 47.788 12.8364C47.473 13.0756 47.0292 13.3418 46.8666 13.3856C46.809 13.3991 46.6498 13.453 46.5109 13.5002C45.847 13.7293 44.9155 13.8338 44.194 13.7529C43.8112 13.7125 43.1439 13.5575 42.9474 13.4699C42.8864 13.4395 42.7645 13.3924 42.6764 13.3654C42.5138 13.3115 42.1073 13.0824 41.9888 12.9779C41.8702 12.8734 41.7788 12.8667 41.6331 12.9476C41.5586 12.988 41.4976 13.0352 41.4976 13.0487C41.4976 13.079 40.959 13.3823 40.9048 13.3823C40.8642 13.3823 40.688 13.4463 40.5322 13.5171C40.0918 13.7159 39.0146 13.8271 38.2796 13.7496ZM50.149 13.5406C50.1388 13.5171 50.1388 11.4817 50.1422 9.01504C50.1524 4.91402 50.1592 4.51639 50.2134 4.30072C50.2676 4.07832 50.403 3.68069 50.4674 3.55264C50.4843 3.51894 50.5352 3.41784 50.5792 3.32349C50.6232 3.23251 50.6842 3.13141 50.7113 3.10109C50.8163 2.99325 50.9823 2.76748 50.9823 2.73715C50.9823 2.7203 51.0466 2.65291 51.1246 2.58888C51.2025 2.52485 51.3447 2.40017 51.4362 2.31593C51.5277 2.23168 51.6191 2.16092 51.6394 2.16092C51.6598 2.16092 51.7648 2.10026 51.8732 2.02613C52.2932 1.74307 53.0384 1.47686 53.8074 1.33533C54.224 1.26119 55.3012 1.23086 55.7551 1.28478C56.3479 1.35217 56.9305 1.48696 57.2354 1.62513C57.3133 1.66219 57.4048 1.68915 57.4353 1.68915C57.503 1.68915 57.9298 1.90145 58.0721 2.00928C58.1297 2.04972 58.2313 2.11374 58.2991 2.14744C58.4515 2.22495 58.9935 2.7203 59.0544 2.83487C59.0782 2.88205 59.1493 2.9764 59.2136 3.04717C59.4169 3.27294 59.6472 3.802 59.7692 4.33442C59.8302 4.59052 59.8335 4.83989 59.8335 9.0858V13.5676H56.3107L56.3005 11.8423L56.2903 10.117H53.6922L53.682 11.8423L53.6719 13.5676L51.9172 13.5777C50.5047 13.5811 50.1625 13.5743 50.149 13.5406ZM56.3005 6.19791C56.3005 5.11284 56.2971 5.03534 56.2294 4.85337C56.1447 4.62085 56.0464 4.5265 55.7721 4.40519C55.3114 4.20637 54.6373 4.20974 54.2003 4.4153C53.9327 4.53998 53.8819 4.59053 53.7769 4.81293L53.6922 4.99827V7.35037H56.3005V6.19791ZM63.7832 11.8524V10.1271L63.4784 10.0293C63.3124 9.97542 63.0414 9.86759 62.8822 9.78671C62.7196 9.70584 62.5739 9.63844 62.5536 9.63844C62.5062 9.63844 62.1641 9.39919 61.866 9.15994C61.6289 8.96786 61.385 8.69154 61.1919 8.39163C61.1377 8.30738 61.0767 8.22314 61.0564 8.19955C61.0124 8.15237 60.826 7.59973 60.7549 7.30656C60.7109 7.12459 60.7041 6.66967 60.7041 4.35464V1.61839H64.1931V3.98397C64.1931 6.4102 64.2067 6.67978 64.3286 6.82468C64.4506 6.96958 64.7995 7.17514 65.0061 7.22569C65.2534 7.28297 65.7953 7.29308 66.0189 7.24254C66.378 7.16166 66.6761 6.93926 66.8048 6.6562C66.8624 6.53488 66.8658 6.41357 66.8691 5.42623C66.8691 4.82304 66.8861 4.18615 66.903 4.01092C66.9403 3.64699 67.0724 3.13141 67.1876 2.88205C67.2655 2.71356 67.6957 2.15755 67.7431 2.15755C67.7566 2.15755 67.8515 2.09352 67.9531 2.01939C68.1733 1.85427 68.4544 1.71948 68.6611 1.68241C68.7458 1.66893 68.9219 1.63187 69.0506 1.60491C69.2437 1.56447 69.5655 1.55436 70.7511 1.55099H72.2144V0.796162C72.2144 0.0615515 72.2314 -0.0530208 72.3161 0.101989C72.3364 0.139056 72.4075 0.203082 72.4787 0.243519C72.5498 0.283956 72.6988 0.408638 72.814 0.513101C72.9292 0.617564 73.0681 0.728766 73.1257 0.759094C73.1832 0.789422 73.2408 0.833229 73.2578 0.856818C73.3052 0.930953 73.6541 1.21738 73.6981 1.21738C73.7218 1.21738 73.7422 1.23086 73.7422 1.24771C73.7422 1.26456 73.9454 1.43979 74.1893 1.6386C74.4366 1.83742 74.6669 2.03624 74.7008 2.08004C74.7347 2.12385 74.7821 2.16092 74.8058 2.16092C74.8295 2.16092 74.9447 2.24853 75.0666 2.35637C75.1886 2.4642 75.3207 2.5754 75.3681 2.60573C75.5239 2.70345 75.8085 2.97977 75.8085 3.03369C75.8085 3.09435 75.5205 3.37067 75.3173 3.50546C75.2428 3.55601 75.1513 3.62677 75.1141 3.66721C75.0768 3.70764 74.8634 3.88624 74.6398 4.07158C74.4163 4.25355 74.2198 4.41867 74.1995 4.43889C74.1791 4.4591 74.1249 4.50291 74.0775 4.52987C74.0267 4.5602 73.898 4.66803 73.7862 4.77249C73.6744 4.87696 73.5694 4.95783 73.5525 4.95783C73.5355 4.95783 73.4305 5.04207 73.3187 5.14654C73.2069 5.251 73.0681 5.36894 73.0105 5.40601C72.9529 5.44308 72.7903 5.5745 72.6548 5.68907C72.5193 5.80364 72.3669 5.93169 72.3195 5.96876L72.2348 6.03953L72.2246 5.27796L72.2144 4.51639L71.354 4.5265C70.7037 4.53324 70.4801 4.54672 70.4496 4.58042C70.4157 4.61411 70.4022 4.92413 70.3853 5.91148C70.3615 7.45146 70.3582 7.46157 69.9788 8.24336C69.9076 8.39163 69.806 8.56012 69.7518 8.6174C69.701 8.67469 69.5689 8.82296 69.4605 8.94427C69.3521 9.06895 69.2437 9.17005 69.2234 9.17005C69.1997 9.17005 69.1285 9.22059 69.0642 9.28125C68.9185 9.41941 68.678 9.58453 68.5222 9.65192C68.4578 9.67888 68.2749 9.76313 68.1157 9.83726C67.9565 9.9114 67.7194 10.0091 67.5839 10.0529L67.34 10.1338L67.3298 11.8524L67.3197 13.571L65.5515 13.5777H63.7866L63.7832 11.8524ZM23.8798 7.58625V1.62176H26.8912C30.1837 1.62176 30.5496 1.6386 31.0949 1.81046C31.4472 1.92167 31.9181 2.15081 32.1857 2.33952C32.3787 2.47768 32.6362 2.72704 32.853 2.98988C32.9783 3.13815 33.2154 3.63014 33.3171 3.95364C33.4017 4.21648 33.4085 4.27714 33.4085 4.87696C33.4085 5.30492 33.3984 5.53743 33.3746 5.56776C33.3543 5.59472 33.3171 5.67559 33.2933 5.74636C33.2459 5.89126 33.0494 6.27204 32.9512 6.4102C32.9173 6.46075 32.8869 6.5113 32.8869 6.52477C32.8869 6.54836 32.3483 7.08079 32.3212 7.08079C32.2941 7.08079 32.1078 7.22906 32.1078 7.24928C32.1078 7.25938 32.1687 7.29645 32.2466 7.33015C32.3212 7.36385 32.4194 7.4245 32.4634 7.46157C32.5075 7.49864 32.6023 7.57951 32.6735 7.63343C32.9614 7.85583 33.3679 8.34108 33.4322 8.54327C33.4559 8.6174 33.4864 8.69154 33.5 8.71176C33.5576 8.78589 33.7032 9.33517 33.7269 9.57105C33.7574 9.88107 33.7269 10.5348 33.6693 10.7842C33.6016 11.0807 33.395 11.6637 33.3069 11.8221C33.2019 12.004 32.9953 12.2905 32.9038 12.3814C32.5989 12.6847 32.4025 12.8465 32.2466 12.9307C32.145 12.9846 31.9994 13.0621 31.9248 13.1026C31.6471 13.2508 31.3287 13.3789 31.2372 13.3789C31.1864 13.3789 31.0915 13.3957 31.0272 13.416C30.6275 13.5373 30.3192 13.5474 27.0741 13.5474H23.8832L23.8798 7.58625ZM29.4283 10.8819C29.6011 10.8381 29.8247 10.7067 29.8551 10.6325C29.8653 10.6056 29.8958 10.5854 29.9195 10.5854C29.9432 10.5854 30.0008 10.5078 30.0482 10.4101C30.1227 10.2517 30.1295 10.1945 30.1295 9.74628V9.25429L30.0042 9.06221C29.9364 8.95775 29.8145 8.82633 29.7366 8.77578L29.5943 8.68143L28.507 8.66458C27.9108 8.65447 27.4094 8.6511 27.3959 8.65784C27.3823 8.66458 27.3688 9.17679 27.3688 9.79345V10.919H28.3207C28.9338 10.9223 29.3267 10.9088 29.4283 10.8819ZM29.4283 6.27878C29.5909 6.19117 29.8213 5.88452 29.8585 5.69918C29.9703 5.16676 29.8687 4.65792 29.6045 4.43889C29.3606 4.23333 29.3674 4.23333 28.3274 4.22322L27.3722 4.21311V6.3765L28.3274 6.36639C29.2454 6.35629 29.2894 6.35292 29.4283 6.27878Z" fill="black"/>
<path d="M38.0427 13.7024C37.6498 13.6451 37.3619 13.5743 36.9351 13.4294C36.5116 13.2879 36.4507 13.2576 36.1594 13.0588C36.0408 12.9779 35.929 12.9105 35.9189 12.9105C35.9053 12.9105 35.7766 12.7959 35.6275 12.6544C35.1906 12.2332 34.9501 11.8558 34.7638 11.293C34.547 10.6393 34.5537 10.8111 34.5537 5.99909V1.62176H36.2982C37.6701 1.62176 38.0427 1.63187 38.0427 1.66219C38.0427 1.68578 38.0461 3.59981 38.0495 5.91485C38.0563 9.96868 38.0597 10.1338 38.124 10.2787C38.1952 10.4438 38.3036 10.582 38.3645 10.582C38.3849 10.582 38.4526 10.6056 38.5102 10.6359C38.666 10.7134 39.0048 10.7505 39.2588 10.7201C39.6788 10.6662 39.9532 10.4775 40.0413 10.1742C40.0616 10.1035 40.0752 8.4725 40.0752 5.84071V1.62176H41.7994C43.3406 1.62176 43.5269 1.6285 43.5439 1.67567C43.554 1.706 43.5642 3.62677 43.5642 5.94517C43.5642 9.97205 43.5676 10.1675 43.6285 10.2989C43.6624 10.3731 43.7302 10.4674 43.7742 10.5112C44.0147 10.7303 44.6719 10.801 45.0716 10.6527C45.3222 10.5584 45.3426 10.5449 45.4543 10.3528L45.5458 10.1978L45.5627 5.91822L45.5797 1.63861L47.3343 1.6285L49.089 1.61839L49.0755 6.0766C49.0653 10.1473 49.0585 10.555 49.0043 10.7707C48.923 11.1043 48.7943 11.4615 48.6961 11.6334C48.6486 11.7142 48.6114 11.8052 48.6114 11.8355C48.6114 11.9164 48.2591 12.3612 47.9881 12.6241C47.8526 12.7521 47.6392 12.9273 47.5105 13.0082C47.3818 13.0891 47.2226 13.1902 47.1548 13.2306C47.0904 13.2711 46.9753 13.325 46.9008 13.3486C46.8262 13.3722 46.7212 13.4092 46.6636 13.4328C46.4943 13.5036 46.1047 13.608 45.7829 13.6721C45.3426 13.7597 44.1434 13.7597 43.7335 13.6721C43.4592 13.6148 43.0696 13.4968 42.8867 13.4193C42.8393 13.3991 42.7648 13.3755 42.7173 13.3654C42.6428 13.3486 42.0128 12.9947 41.9721 12.9442C41.9619 12.9341 41.9213 12.9038 41.8773 12.8802C41.7926 12.833 41.7011 12.8701 41.3895 13.0857C41.3048 13.1464 41.1828 13.2239 41.1185 13.2576C40.8814 13.3924 40.1599 13.6249 39.7364 13.6957C39.3841 13.763 38.456 13.763 38.0427 13.7024ZM50.1696 9.12287C50.1696 4.17941 50.156 4.45574 50.4101 3.76156C50.5524 3.37404 50.6337 3.22577 50.8504 2.9663C50.9216 2.87868 50.9792 2.79444 50.9792 2.77759C50.9792 2.76074 51.074 2.66302 51.1892 2.56192C51.3044 2.46083 51.4534 2.32941 51.5178 2.27212C51.5821 2.21147 51.6499 2.16092 51.6736 2.16092C51.6973 2.16092 51.7752 2.11711 51.8497 2.0632C52.0259 1.93515 52.5103 1.68915 52.5848 1.68915C52.6153 1.68915 52.7 1.66556 52.7677 1.63524C53.1505 1.47012 53.811 1.33533 54.4749 1.28478C55.2879 1.22075 56.1856 1.31511 56.9071 1.53751C57.0663 1.58806 57.2662 1.64535 57.3508 1.6723C57.5507 1.72959 57.8962 1.90482 58.0961 2.04298C58.1807 2.10363 58.2824 2.16092 58.3196 2.1744C58.3569 2.18451 58.4687 2.27212 58.5703 2.36648C58.6719 2.46083 58.7871 2.56192 58.8311 2.58888C58.8752 2.61921 58.9734 2.73041 59.0479 2.84161C59.1224 2.95282 59.2139 3.07076 59.2478 3.10446C59.4104 3.26621 59.6881 3.97723 59.7694 4.43889C59.8135 4.69836 59.8202 5.3184 59.8202 9.14309V13.5474H56.3346V10.1102H53.6586V13.5474H50.1696V9.12287ZM56.3346 6.2215V5.09599L56.2465 4.86011C56.1415 4.58042 56.0907 4.53324 55.7588 4.3816C55.5318 4.28051 55.4675 4.26703 55.1321 4.25355C54.6985 4.2367 54.4478 4.27714 54.1769 4.40182C53.9194 4.51976 53.8754 4.56357 53.767 4.78597L53.6755 4.97131L53.6654 6.15747L53.6552 7.34363H56.3312L56.3346 6.2215ZM63.7869 11.8322V10.1136L63.6243 10.0664C63.3872 9.99564 62.9468 9.81704 62.7876 9.72606C62.7131 9.68225 62.6114 9.63844 62.564 9.62834C62.5166 9.61823 62.4489 9.58116 62.4116 9.54746C62.3743 9.51376 62.2558 9.42615 62.144 9.35201C61.7036 9.05547 61.226 8.50957 61.0194 8.0715C60.911 7.83899 60.7687 7.36048 60.7314 7.10438C60.7145 6.98643 60.701 5.70592 60.701 4.25355V1.61502L62.4353 1.62513L64.1696 1.63524L64.1866 4.11202C64.2001 5.84745 64.2171 6.61913 64.2442 6.69663C64.2848 6.80784 64.4914 7.01339 64.6744 7.12796C64.82 7.21895 65.2468 7.31667 65.4907 7.31667C65.9921 7.31667 66.4595 7.15492 66.6526 6.91904C66.8897 6.62587 66.8796 6.7 66.9033 5.17687C66.9168 4.41867 66.9371 3.75145 66.9473 3.69417C67.076 3.14152 67.2352 2.78096 67.4927 2.46083C67.8111 2.06994 68.3395 1.75318 68.8171 1.66893C69.3964 1.56447 69.5725 1.55773 70.8834 1.55436H72.2452V0.806272C72.2452 0.0918806 72.2486 0.0581828 72.3061 0.128948C72.34 0.169385 72.4247 0.240151 72.4992 0.287327C72.5737 0.334504 72.7262 0.459186 72.8346 0.560279C72.943 0.661372 73.048 0.748986 73.0649 0.748986C73.0819 0.748986 73.2106 0.853449 73.3528 0.98487C73.4951 1.11629 73.6238 1.22075 73.6408 1.22075C73.6577 1.22075 73.7153 1.26456 73.7695 1.32185C73.8237 1.37576 74.0337 1.55436 74.2336 1.71274C74.4334 1.87449 74.6265 2.03287 74.6638 2.06657C74.701 2.10026 74.823 2.20136 74.9348 2.28897C75.0465 2.37659 75.1651 2.48105 75.199 2.52486C75.2328 2.56529 75.2803 2.60236 75.304 2.60236C75.3277 2.60236 75.453 2.70008 75.5817 2.8214L75.8155 3.04043L75.6292 3.21566C75.5276 3.31338 75.3819 3.43806 75.304 3.49535C75.1143 3.63688 74.4707 4.1693 74.2505 4.36475C74.1523 4.45237 74.0574 4.5265 74.0439 4.5265C74.0303 4.5265 73.9287 4.61074 73.8169 4.71521C73.7051 4.81967 73.5595 4.93761 73.4951 4.97805C73.4308 5.02186 73.2851 5.1398 73.1733 5.24426C73.0615 5.34872 72.9599 5.43297 72.943 5.43297C72.926 5.43297 72.7973 5.53743 72.655 5.66885C72.5128 5.7969 72.3773 5.90474 72.3536 5.90474C72.3299 5.90474 72.3129 5.92159 72.3129 5.93844C72.3129 5.95865 72.2994 5.97213 72.279 5.97213C72.2587 5.97213 72.2418 5.68907 72.2384 5.24089L72.2282 4.50965L71.4559 4.49954C70.6124 4.48943 70.4363 4.51302 70.4058 4.63433C70.3957 4.67477 70.3855 5.14317 70.3855 5.66885C70.3855 6.67305 70.355 7.12122 70.2602 7.48853C70.1958 7.74463 69.9756 8.24336 69.8232 8.48261C69.6979 8.67469 69.2643 9.12287 68.9933 9.33517C68.7799 9.50365 67.9872 9.89455 67.5807 10.0361L67.303 10.1338V13.5575H63.7801L63.7869 11.8322Z" fill="black"/>
</svg>
