<svg width="51" height="15" viewBox="0 0 51 15" fill="none" xmlns="http://www.w3.org/2000/svg">
<path d="M5.36118 0.0671995C5.1893 0.112177 4.9976 0.232118 4.91166 0.352058L4.75961 0.546961V4.45251C4.75961 8.11819 4.76623 8.38805 4.89183 8.98775C5.03065 9.61744 5.28185 10.2396 5.59916 10.7119C5.94952 11.2291 6.78906 11.8063 7.58233 12.0687C8.5607 12.3911 8.80529 12.4061 13.0294 12.436L17.1082 12.466L18.1725 13.6954C19.2698 14.9623 19.4153 15.0747 19.8185 14.9698C20.0763 14.9023 20.3407 14.6175 20.4663 14.2576C20.625 13.8004 20.5258 13.613 19.521 12.451L18.6418 11.4315V7.65342C18.6418 3.45551 18.6286 3.32058 18.1791 2.37605C17.9675 1.91878 17.3329 1.10918 17.0883 0.981744C17.0156 0.944262 16.8702 0.854307 16.7578 0.779345C16.5 0.599434 15.8918 0.36705 15.2704 0.194636C14.8275 0.0746956 14.3185 0.0522072 10.22 0.0147259C6.89483 -0.0152591 5.57933 -0.000266847 5.36118 0.0671995ZM14.5763 1.78385C15.8323 2.01623 16.4207 2.53347 16.7446 3.6879C16.8504 4.06271 16.8636 4.41503 16.8437 7.39855L16.8239 10.6969L13.2476 10.7194C9.74399 10.7344 8.79868 10.6969 8.19711 10.502C7.71454 10.3521 7.23197 9.95477 6.98738 9.51999C6.59074 8.80785 6.58413 8.76287 6.5643 5.14967C6.55108 3.33557 6.55769 1.81383 6.57091 1.76136C6.59735 1.68639 7.35757 1.6639 10.2596 1.6639C13.3269 1.6639 14.0144 1.68639 14.5763 1.78385ZM0.449519 0.0971847C0.350361 0.142162 0.211538 0.284591 0.132212 0.419524C0 0.666901 0 0.764352 0 6.27411V11.8813L0.23137 12.1287C0.581731 12.5035 0.978365 12.541 1.375 12.2486C1.71875 11.9938 1.71875 12.0462 1.71875 6.16166V0.711879L1.56671 0.457005C1.32212 0.0447105 0.91226 -0.0902219 0.449519 0.0971847ZM25.4705 0.0896886C25.14 0.119674 24.8359 0.172147 24.8029 0.194636C24.7632 0.217125 24.5781 0.277095 24.3864 0.314577C23.7782 0.449509 22.9585 0.95176 22.4958 1.48399C22.2644 1.73887 22.0529 2.03122 22.0132 2.12867C21.9802 2.21863 21.9207 2.35356 21.8942 2.41353C21.7224 2.75086 21.6695 2.90828 21.61 3.26061C21.5703 3.478 21.5108 3.78535 21.4778 3.95027C21.4513 4.11518 21.4249 5.12718 21.4249 6.19914C21.4249 7.27111 21.4513 8.28311 21.4778 8.44802C21.5108 8.61294 21.5703 8.91279 21.6034 9.12269C21.7752 10.0447 22.5619 11.2216 23.2692 11.6114C23.7386 11.8663 24.0427 12.0087 24.1286 12.0087C24.1683 12.0087 24.3401 12.0537 24.512 12.1137C25.14 12.3236 25.9796 12.3836 28.366 12.3836C30.7392 12.3836 32.0613 12.2861 32.3918 12.0837C32.4579 12.0387 32.5703 12.0087 32.6298 12.0087C32.7752 12.0087 33.5288 11.5965 33.8924 11.3191C34.4081 10.9218 34.9501 10.0597 35.1022 9.39255C35.1352 9.24263 35.1947 8.98776 35.2278 8.82284C35.3137 8.44053 35.3203 3.97275 35.2344 3.59044C35.1947 3.44052 35.1418 3.20064 35.1154 3.06571C34.8972 2.13617 34.2163 1.21413 33.4165 0.771849C32.7885 0.427021 32.7686 0.419524 32.1274 0.232117C31.6052 0.0896881 31.3672 0.074696 28.8221 0.0522072C27.3149 0.0372147 25.8077 0.0522072 25.4705 0.0896886ZM31.4201 1.78385C32.5439 2.05371 33.0595 2.51848 33.4231 3.57545C33.5354 3.92028 33.5487 4.15266 33.5487 6.19914C33.5487 8.24563 33.5354 8.47801 33.4231 8.82284C33.0925 9.77486 32.6364 10.2471 31.7308 10.5545C31.3341 10.6894 31.0829 10.6969 28.3594 10.6969C25.5036 10.6969 25.4044 10.6894 24.9748 10.532C24.3666 10.3071 24.2079 10.2021 23.8906 9.81984C23.5733 9.44503 23.4609 9.21264 23.3089 8.62044C23.1568 8.00574 23.1568 4.39254 23.3089 3.77785C23.5998 2.63842 24.122 2.09869 25.2193 1.80633C25.8936 1.62642 30.7061 1.60393 31.4201 1.78385ZM41.4814 0.0821924C40.0138 0.217125 38.9032 0.726872 38.5 1.44651C38.1893 2.00873 38.1166 2.37605 38.1166 3.42553C38.1232 5.57695 38.6653 6.52148 40.0931 6.85132C40.2782 6.8963 42.0829 6.94877 44.1917 6.97876C47.887 7.03123 47.9663 7.03873 48.2572 7.19615C48.4225 7.2861 48.601 7.40604 48.6604 7.45102C48.9778 7.74338 49.0968 8.33558 49.0174 9.27261C48.9778 9.80485 48.9513 9.87231 48.7266 10.1272C48.5613 10.3146 48.3564 10.442 48.0589 10.547C47.6556 10.6894 47.4243 10.6969 44.1587 10.6969C40.7145 10.6969 40.6881 10.6969 40.3906 10.532C39.9874 10.3071 39.8948 10.2171 39.7362 9.85732C39.4453 9.22764 38.9892 9.01774 38.4603 9.26512C38.11 9.43003 38.0439 9.57246 38.0505 10.0897C38.0637 11.0342 38.6322 11.7164 39.6965 12.0837C40.5757 12.3761 41.1574 12.421 44.39 12.421C47.6226 12.421 48.0258 12.3911 48.8522 12.0837C49.3546 11.8963 49.5661 11.7614 49.9032 11.439C50.518 10.8393 50.7692 10.0822 50.7692 8.82284C50.7692 7.20364 50.3461 6.2891 49.3546 5.75687C48.6142 5.35956 48.2043 5.32208 44.4099 5.2846C40.4369 5.24712 40.4766 5.24712 40.0799 4.66241C39.8618 4.35506 39.8618 4.34007 39.8618 3.53797C39.8618 2.84831 39.8816 2.6834 40.0006 2.45851C40.1857 2.09119 40.4633 1.92627 41.0979 1.77635C41.5607 1.6714 42.0433 1.65641 44.5355 1.6789C47.0739 1.70139 47.4706 1.72387 47.7746 1.83632C48.1514 1.97875 48.4621 2.28609 48.6274 2.6759C48.7794 3.03572 49.0901 3.23812 49.4934 3.23812C50.2999 3.23812 50.5312 2.35356 49.9892 1.35656C49.7181 0.861803 49.1562 0.494487 48.2572 0.224622C47.8011 0.0896888 47.5168 0.074696 44.9189 0.0522072C43.3588 0.0372147 41.8119 0.0522074 41.4814 0.0821924Z" fill="black"/>
</svg>
