<svg width="120" height="15" viewBox="0 0 120 15" fill="none" xmlns="http://www.w3.org/2000/svg">
<path fill-rule="evenodd" clip-rule="evenodd" d="M44.1161 1.49017C42.8615 0.809029 41.3453 0.440416 38.3887 0.440416H33.2464V14.5269H38.2036C41.4267 14.5269 43.183 14.1064 44.542 13.27C46.379 12.1429 47.4179 9.96958 47.4179 7.48436C47.4179 4.89315 46.1667 2.61515 44.1161 1.49017ZM40.733 10.3101C40.3064 10.5481 39.7998 10.6788 38.7345 10.6788H38.3351V4.29133H38.6545C39.7748 4.29133 40.3321 4.42127 40.838 4.73449C41.6654 5.25902 42.0641 6.38468 42.0641 7.51035C42.0655 8.73928 41.6118 9.81502 40.733 10.3101ZM91.1937 6.01539V3.81809H98.198V0.441099H86.1057V14.5242H98.3845V11.2279H91.1937V9.02924H96.6804V6.01539H91.1937ZM0 0.441099V14.5269H5.19513V0.441099H0ZM53.7576 0.441099V14.5269H58.9493V0.441099H53.7576ZM17.3939 9.13593L26.1579 15.0002V0.444517H21.0686V5.75825L12.3059 0V14.5283H17.3939V9.13593ZM65.6676 0.444517V4.42332H69.9282V14.5283H75.0169V4.42332H79.4939V0.444517H65.6676ZM111.582 10.9927L113.875 14.5283H120L114.7 7.46179L119.973 0.444517H113.849L111.582 3.87554L109.32 0.444517H103.194L108.466 7.48641L103.167 14.5283H109.292L111.582 10.9927Z" fill="black"/>
</svg>
