<svg width="94" height="21" viewBox="0 0 94 21" fill="none" xmlns="http://www.w3.org/2000/svg">
<path d="M7.59793 11.25C7.59793 12.7 6.33161 14.275 4.1886 14.275C3.53109 14.275 2.97099 14.2 2.14301 14.2C1.41244 14.2 0.779277 14.225 0.194821 14.225C0.121764 13.95 0.0974121 13.675 0.0974121 13.4C0.487049 13.35 0.852334 13.275 1.24197 13.15C1.29068 12.9 1.31503 12.6 1.31503 12.325V8.10004C1.31503 7.32504 1.29068 6.75004 1.24197 6.22504C0.852334 6.10004 0.487049 6.00004 0.0974121 5.97504C0.0974121 5.70004 0.121764 5.42504 0.194821 5.15004C0.754925 5.15004 1.38809 5.17504 2.0943 5.17504H3.65285C4.57824 5.17504 5.94197 5.17504 6.7456 5.15004L6.86736 5.27504C6.89171 6.17504 6.84301 6.87504 6.72125 7.60004C6.35596 7.67504 6.03938 7.67504 5.7228 7.60004C5.69845 7.17504 5.62539 6.70004 5.52798 6.30004H2.94664V8.97504C3.48239 8.87504 4.04249 8.85004 4.57824 8.85004C6.45337 8.85004 7.59793 9.95004 7.59793 11.25ZM3.82332 13.1C4.79741 13.1 5.28446 12.95 5.38187 12.85C5.6741 12.6 5.89327 12.175 5.89327 11.525C5.89327 10.575 5.13834 9.97504 3.89638 9.97504C3.55544 9.97504 3.26322 10 2.94664 10.025V13.1H3.82332ZM11.7135 10.025C11.6891 9.12504 11.4943 8.50004 10.7637 8.50004C10.4715 8.50004 10.1549 8.52504 9.83834 8.57504C9.74094 8.90004 9.74094 9.27504 9.74094 9.65004C9.4 9.82504 9.05907 9.87504 8.71814 9.80004C8.47461 9.37504 8.3285 8.82504 8.3285 8.22504C9.05907 7.77504 10.0575 7.47504 11.056 7.47504C11.8839 7.47504 13.3207 7.77504 13.3207 9.70004V12.175C13.3207 12.475 13.3451 12.875 13.3694 13.175C13.6617 13.125 13.9539 13.075 14.2218 13C14.3679 13.125 14.4653 13.325 14.4653 13.55C14.0026 14.025 13.2964 14.425 12.6632 14.425C12.3466 14.425 12.0544 14.05 11.8596 13.475C11.2021 14.025 10.4228 14.425 9.78964 14.425C8.69378 14.425 8.03627 13.825 8.03627 12.725C8.06062 11.2 10.1306 10.375 11.7135 10.025ZM11.7135 12.675V11.125C10.8855 11.225 10.1306 11.425 9.98446 11.55C9.81399 11.7 9.71658 12.05 9.71658 12.3C9.71658 12.75 10.0088 13.15 10.6176 13.15C10.9342 13.15 11.3725 12.95 11.7135 12.675ZM21.357 12.2C21.357 12.575 21.3813 12.9 21.4057 13.225C21.771 13.275 22.1606 13.35 22.3798 13.475C22.3798 13.725 22.3554 14.1 22.3067 14.25C21.9415 14.225 21.0648 14.225 20.5777 14.225C19.9202 14.225 19.3358 14.25 18.8244 14.25C18.7513 14 18.7269 13.7 18.7269 13.475C19.0679 13.425 19.4088 13.35 19.7497 13.225C19.7984 13.025 19.7984 12.725 19.7984 12.475V11.425C19.1166 11.375 18.4591 11.375 17.8259 11.375H17.071V12.175C17.071 12.55 17.0953 12.875 17.1197 13.2C17.4606 13.25 17.8259 13.325 18.0451 13.45C18.0451 13.7 18.0207 14.075 17.972 14.225C17.6067 14.2 16.7544 14.2 16.2674 14.2C15.5855 14.2 14.9767 14.225 14.4653 14.225C14.3922 13.975 14.3679 13.675 14.3679 13.45C14.7088 13.4 15.0741 13.325 15.415 13.2C15.4637 13 15.4881 12.7 15.4881 12.45V9.52504C15.4881 9.30004 15.4637 9.02504 15.4394 8.77504C15.0741 8.65004 14.7332 8.57504 14.3922 8.52504C14.3922 8.27504 14.4166 7.97504 14.4896 7.75004C15.001 7.75004 15.5611 7.77504 16.243 7.77504C16.8275 7.77504 17.558 7.75004 17.9964 7.75004C18.0694 7.97504 18.0694 8.25004 18.0694 8.52504C17.8016 8.65004 17.485 8.72504 17.1197 8.77504C17.0953 9.07504 17.071 9.45004 17.071 9.80004V10.4H19.7984V9.52504C19.7984 9.30004 19.7741 9.02504 19.7497 8.77504C19.4088 8.65004 19.0679 8.57504 18.7269 8.52504C18.7269 8.27504 18.7513 7.97504 18.8244 7.75004C19.3358 7.75004 19.8715 7.77504 20.529 7.77504C21.1378 7.77504 21.8684 7.75004 22.3311 7.75004C22.3798 7.97504 22.4041 8.25004 22.4041 8.52504C22.1363 8.65004 21.7953 8.72504 21.4057 8.77504C21.3813 9.07504 21.357 9.45004 21.357 9.80004V12.2ZM25.5212 10.475H25.7161C26.2275 10.475 26.6415 10.425 26.7632 10.275C27.372 9.37504 27.4938 7.62504 28.5896 7.62504C29.0767 7.62504 29.5881 7.82504 29.9777 8.10004C30.0264 8.42504 29.9047 8.82504 29.6855 9.10004C29.2959 9.05004 28.9793 9.02504 28.614 9.05004L27.7617 10.775C28.1756 11.575 28.687 12.4 29.0523 12.825C29.3933 13.2 29.6368 13.3 30.0508 13.3C30.1725 13.3 30.2943 13.275 30.4161 13.25C30.5135 13.45 30.5865 13.7 30.5378 13.95C30.27 14.1 29.4176 14.35 28.6627 14.35C27.9321 14.35 27.1529 13.075 26.544 11.425H25.5212V12.15C25.5212 12.525 25.5456 12.85 25.57 13.175C25.9109 13.225 26.3005 13.3 26.544 13.425C26.544 13.675 26.5197 14.05 26.471 14.2C26.1057 14.175 25.229 14.175 24.742 14.175C24.0601 14.175 23.4513 14.2 22.9399 14.2C22.8668 13.95 22.8425 13.65 22.8425 13.425C23.1834 13.375 23.5487 13.3 23.8896 13.175C23.9383 12.975 23.9627 12.675 23.9627 12.425V9.52504C23.9627 9.30004 23.9383 9.02504 23.914 8.77504C23.5487 8.65004 23.2078 8.57504 22.8668 8.52504C22.8668 8.27504 22.8912 7.97504 22.9643 7.75004C23.4757 7.75004 24.0358 7.77504 24.7176 7.77504C25.3264 7.77504 26.057 7.75004 26.5197 7.75004C26.5927 7.97504 26.5927 8.25004 26.5927 8.52504C26.3005 8.65004 25.9839 8.72504 25.5943 8.77504C25.57 9.07504 25.5456 9.45004 25.5456 9.80004V10.475H25.5212ZM93.7808 3.75004C93.4886 4.57504 91.8813 8.87504 91.6865 9.32504C91.5161 9.72504 91.2725 10.15 90.7124 9.97504C90.201 9.82504 90.201 9.07504 90.2497 8.70004C90.3228 8.22504 90.542 7.40004 90.7611 6.77504C91.029 5.95004 91.2969 5.15004 91.5404 4.32504C91.8326 3.42504 91.7839 2.47504 92.9042 2.07504C93.7078 1.80004 94.2435 2.50004 93.7808 3.75004ZM89.6409 11.925C89.0321 12.125 88.472 12.85 88.472 13.6C88.472 14.05 88.7399 14.325 89.0078 14.425C89.3731 14.575 89.714 14.5 90.0549 14.25C90.3959 13.975 90.7124 13.375 90.7611 12.9C90.7611 12.25 90.3959 11.675 89.6409 11.925ZM87.1326 11.875C87.4492 12.35 87.0596 13.075 86.4508 13.575C85.5254 14.325 84.3808 14.65 83.6259 14.7C81.4585 14.8 81.4829 13.025 81.4829 13.025C81.4829 13.025 80.2896 14.5 78.9259 14.525C78.1953 14.525 77.6352 13.775 77.6352 13.775C77.6352 13.775 76.8073 15.225 75.3948 15.025C74.4207 14.875 73.8363 13.725 73.8363 12.8C73.8363 12.575 73.8606 12.4 73.9093 12.225C73.6171 12.35 73.3005 12.425 72.9839 12.475C72.3021 12.575 71.4497 12.6 71.0114 12.6C70.9383 12.6 70.8896 12.6 70.8409 12.6C70.8409 12.725 70.914 13.1 71.2793 13.275C71.5228 13.4 71.8394 13.45 72.1316 13.475C72.4482 13.525 72.7404 13.575 72.9109 13.7C73.1544 13.875 73.3005 14.175 73.3492 14.475C73.3736 14.75 73.3005 15 73.1301 15.175C72.9109 15.4 72.3995 15.55 71.8394 15.55C71.4497 15.55 70.7192 15.475 70.086 15.025C69.7207 14.775 69.2093 14.2 69.0145 13.125C69.0145 13.325 68.9902 13.475 68.9902 13.6C68.9658 14.2 68.9415 15.925 68.7466 17.75C68.5518 19.575 67.9917 21.25 66.4575 20.85C65.3373 20.55 64.6798 19.325 64.8016 17.425C64.8746 16.35 65.313 15.05 65.7269 14.175C65.8974 13.775 66.2383 13.225 66.2383 13.225C66.2383 13.225 65.386 13.875 64.1684 13.725C63.8275 13.675 63.5596 13.575 63.3404 13.425C63.5839 13.875 63.657 14.45 63.17 14.925C62.6586 15.425 61.9767 15.15 61.7819 15.025C61.3679 14.75 61.0756 14.375 60.8078 13.95C60.5399 13.525 60.2233 12.525 60.2233 12.525C60.2233 12.525 59.6876 13.1 59.2492 13.5C58.6404 14.05 57.715 14.75 57.1062 14.75C56.4974 14.75 56.1565 14.375 55.9373 13.95C55.7181 13.55 55.6694 13 55.6694 13C55.6694 13 55.158 14.4 54.2813 15.25C53.6969 15.8 52.942 16.025 52.187 15.875C51.1155 15.65 50.6772 14.8 50.458 13.95C50.2389 13.15 50.2632 12.525 50.2632 12.525C50.2632 12.525 49.5083 12.9 48.2907 14.475C47.9497 14.925 47.6575 15.3 47.1705 15.225C46.7078 15.15 46.2938 14.85 46.1477 14.325C46.0259 13.9 45.9772 12.525 46.1964 10.8C46.3668 9.52504 46.7321 7.55004 46.7321 7.55004C46.7321 7.55004 46.0259 9.57504 45.1736 11.75C44.2969 14.075 43.4202 15.975 42.3487 16.9C41.5938 17.55 40.5953 17.925 39.4508 17.975C38.1601 18.05 36.2606 17.475 35.1648 15.875C33.9472 14.125 33.9472 11.75 34.5316 10.375C35.1404 8.97504 36.5529 8.12504 38.4523 8.10004C39.67 8.10004 40.9119 8.40004 41.3016 9.42504C41.6912 10.45 41.1067 11.75 40.3762 12.3C39.6456 12.85 38.2332 13.05 37.4782 12.2C36.9912 11.625 37.2834 11.075 37.6487 10.95C37.7461 10.9 38.3793 10.775 38.5497 10.725C38.8663 10.6 38.915 10.35 38.915 10.35C38.915 10.35 37.8679 9.95004 36.9425 10.4C35.944 10.85 35.6518 12.175 35.9928 13.425C36.4067 14.9 37.4295 16.025 39.0855 16C40.4736 15.975 41.1798 15.375 41.7399 14.4C42.6896 12.675 43.5907 10.125 44.029 8.90004C45.0762 6.00004 46.099 2.87504 46.099 2.87504C46.099 2.87504 45.1736 2.95004 43.0549 3.22504C41.5694 3.42504 39.4021 3.85004 38.6472 4.00004C37.7218 4.17504 36.6746 4.22504 36.5529 3.32504C36.4311 2.57504 37.2347 2.17504 38.9637 1.65004C39.9622 1.35004 43.542 0.700041 46.8782 0.475041C49.9223 0.275041 52.3332 -0.224959 52.7472 1.00004C52.9907 1.77504 52.601 2.42504 51.3834 2.52504C50.7016 2.57504 49.6544 2.62504 49.1187 2.70004C48.3394 2.80004 48.1446 3.72504 48.1446 3.72504C48.1446 3.72504 48.7777 3.65004 49.3378 3.77504C50.799 4.10004 49.6544 6.27504 49.07 7.90004C48.729 8.90004 48.4124 9.92504 48.2663 10.975C48.242 11.15 48.1933 11.525 48.1933 11.525C48.1933 11.525 49.3865 10.7 49.9953 10.2C50.5067 9.80004 50.7746 9.32504 50.9451 9.02504C51.2617 8.50004 51.8948 7.75004 53.0881 7.65004C54.3057 7.55004 55.2798 8.25004 55.7181 9.07504C55.986 9.55004 56.0347 9.95004 56.0347 9.95004C56.0347 9.95004 56.3757 8.72504 56.5461 8.42504C56.7166 8.12504 56.9845 8.02504 57.2523 8.10004C57.642 8.22504 57.8855 8.65004 57.9829 8.97504C58.1047 9.37504 58.0803 9.80004 57.9586 10.2C57.8611 10.6 57.4959 11.95 57.4959 11.95C57.4959 11.95 58.2751 11.7 59.4684 10.2C59.7119 9.90004 60.4668 8.85004 60.5886 8.65004C60.8565 8.25004 61.3679 8.35004 61.7819 8.70004C62.0984 8.95004 62.2933 9.25004 62.2933 9.62504C62.2933 10.05 62.2202 10.475 62.2202 10.925C62.1959 11.725 62.4637 12.25 62.7073 12.625C62.5611 12.225 62.5368 11.775 62.5611 11.325C62.7316 9.67504 63.4135 8.67504 64.3145 7.95004C64.899 7.47504 65.6782 7.07504 66.6523 7.10004C67.6021 7.12504 68.5031 7.57504 68.9658 8.35004C69.4529 9.15004 69.2337 10.125 69.2337 10.275C69.2093 10.425 69.185 10.575 69.185 10.725C69.7207 9.20004 71.1575 8.15004 72.8135 8.15004C74.2746 8.15004 75.2487 8.85004 75.3948 10C75.4679 10.575 75.2974 11.05 75.0052 11.425C75.2487 11.475 75.4435 11.65 75.5653 11.9C76.1254 12.9 76.515 12.125 76.6855 11.8C76.8316 11.525 77.2943 9.70004 77.5135 8.52504C77.7083 7.50004 78.5119 7.40004 78.999 7.55004C79.486 7.70004 79.7295 8.12504 79.5104 9.15004C79.413 9.62504 79.0964 10.95 78.9503 11.625C78.8772 11.925 78.999 12.1 79.3643 12.05C80.2896 11.925 81.0933 10.975 81.556 9.02504C81.7995 8.02504 82.3596 7.65004 82.9927 7.80004C83.4311 7.92504 83.8451 8.32504 83.6503 9.22504C83.5285 9.77504 82.9928 11.175 83.1389 11.725C83.358 12.65 84.2347 12.525 85.0383 12.25C85.7689 11.975 86.7674 11.325 87.1326 11.875ZM53.3803 9.70004C52.8689 9.70004 52.5036 10.4 52.3332 11.275C52.1627 12.15 51.9922 13.65 52.6497 13.675C53.0394 13.7 53.77 12.7 54.0622 11.625C54.257 10.925 54.2326 9.72504 53.3803 9.70004ZM67.1881 14.725C67.1881 14.725 66.5793 15.95 66.3845 16.975C66.1896 18.025 66.2627 18.625 66.5306 18.675C66.9933 18.8 67.0176 17.35 67.0663 17.075C67.0907 16.55 67.1881 14.725 67.1881 14.725ZM67.115 9.20004C66.8715 8.90004 66.0435 9.07504 65.4591 9.62504C64.8746 10.15 64.4363 11.05 64.5824 11.375C64.7772 11.825 65.7513 11.6 66.4819 10.875C67.0176 10.325 67.4316 9.57504 67.115 9.20004ZM73.7145 10.25C73.7145 10 73.2275 9.90004 72.7891 9.90004C72.0342 9.90004 71.1819 10.475 70.9627 10.875H71.0114C71.6446 10.875 72.229 10.825 72.7161 10.775C73.3492 10.675 73.7145 10.425 73.7145 10.25ZM75.5896 5.97504C76.101 5.67504 76.4907 4.75004 76.3202 4.12504C76.2228 3.70004 75.8575 3.37504 75.3705 3.37504C75.0539 3.37504 74.8347 3.55004 74.6643 3.82504C74.4451 4.15004 74.1772 4.95004 74.4938 5.62504C74.786 6.27504 75.2974 6.15004 75.5896 5.97504ZM72.3751 5.77504C72.643 5.50004 72.8378 4.97504 72.8378 4.50004C72.8378 4.02504 72.5699 3.37504 71.9124 3.35004C71.3523 3.32504 71.0358 3.90004 70.8896 4.47504C70.7435 5.05004 70.914 5.57504 71.0358 5.80004C71.2062 6.05004 71.6446 6.52504 72.3751 5.77504ZM58.9326 6.32504C59.858 5.85004 61.1487 6.05004 61.587 6.00004C62.1472 5.95004 62.4637 5.67504 62.5611 5.15004C62.6098 4.85004 62.5368 4.65004 62.2689 4.45004C62.0741 4.32504 61.2705 3.90004 59.8824 3.90004C58.7378 3.90004 57.9342 4.17504 57.5446 4.37504C57.2523 4.52504 56.8871 4.85004 56.9601 5.50004C57.1306 6.45004 58.1777 6.72504 58.9326 6.32504Z" fill="black"/>
</svg>
