<svg width="91" height="10" viewBox="0 0 91 10" fill="none" xmlns="http://www.w3.org/2000/svg">
<path d="M8.50164 9.01233H6.45726V3.19041L1.96959 9.01233H0V0.139726H2.06932V5.96165L6.58192 0.139726H8.50164V9.01233ZM9.99753 0.163014H12.0918V3.65617H16.2803V0.163014H18.3745V9.01233H16.2803V5.44932H12.0918V9.01233H9.99753V0.163014ZM21.9397 9.01233H19.8704V0.139726H26.3027V1.90959H21.9397V9.01233ZM36.3501 4.58767C36.3501 1.8863 34.2559 0.0465754 31.3638 0H31.314C28.4219 0.0232877 26.3277 1.8863 26.3277 4.56439C26.3277 7.26576 28.4219 9.10548 31.314 9.12877H31.3638C34.2559 9.12877 36.3501 7.26576 36.3501 4.58767ZM31.3389 7.35891C29.6685 7.35891 28.4967 6.28767 28.4967 4.58767C28.4967 2.86438 29.6685 1.81644 31.3389 1.81644C33.0093 1.81644 34.1811 2.88767 34.1811 4.58767C34.1811 6.28767 33.0093 7.35891 31.3389 7.35891ZM58.1652 1.95616H55.0986V0.163014H63.3011V1.95616H60.2595V9.01233H58.1652V1.95616ZM64.5726 0.163014H68.8359C71.1047 0.163014 72.4759 1.42055 72.4759 3.23699C72.4759 5.2863 70.7805 6.35754 68.6364 6.35754H66.6669V9.01233H64.5726V0.163014ZM68.6863 4.61096C69.7334 4.61096 70.3318 4.02877 70.3318 3.23699C70.3318 2.37534 69.6836 1.8863 68.6364 1.8863H66.6419V4.58767H68.6863V4.61096ZM91.1496 9.01233L87.7838 4.47123L91 0.139726H88.6066L86.5871 2.86438L84.5677 0.139726H82.0995L85.3406 4.51781L81.9748 9.01233H84.3682L86.5373 6.10137L88.6814 9.01233H91.1496ZM79.6312 9.01233H81.7504L77.6866 0.0931507H75.7669L71.703 9.01233H73.8222L74.7197 6.96302H78.7337L79.6312 9.01233ZM75.4677 5.23973L76.7392 2.46849L78.0107 5.23973H75.4677ZM42.2589 7.35891C40.5885 7.35891 39.4167 6.28767 39.4167 4.58767C39.4167 2.86438 40.5885 1.81644 42.2589 1.81644C43.1315 1.81644 43.8545 2.04932 44.4778 2.53836L45.7743 1.3274C44.9016 0.535617 43.7299 0.0232877 42.2838 0.0232877H42.234C39.3419 0.0465754 37.2477 1.90959 37.2477 4.58767C37.2477 7.28904 39.3419 9.12877 42.234 9.15206H42.2838C43.7049 9.12877 44.8767 8.61644 45.7743 7.84795L44.4778 6.63699C43.8545 7.12603 43.1315 7.35891 42.2589 7.35891ZM50.96 7.35891C49.2896 7.35891 48.1178 6.28767 48.1178 4.58767C48.1178 2.86438 49.2896 1.81644 50.96 1.81644C51.8326 1.81644 52.5556 2.04932 53.1789 2.53836L54.4753 1.3274C53.6027 0.535617 52.431 0.0232877 50.9849 0.0232877H50.9351C48.043 0.0465754 45.9488 1.90959 45.9488 4.58767C45.9488 7.28904 48.043 9.12877 50.9351 9.15206H50.9849C52.406 9.12877 53.5778 8.61644 54.4753 7.84795L53.1789 6.63699C52.5556 7.12603 51.8326 7.35891 50.96 7.35891Z" fill="black"/>
</svg>
