<svg width="18" height="16" viewBox="0 0 18 16" fill="none" xmlns="http://www.w3.org/2000/svg">
<path d="M11.4401 9.35781C11.3718 9.55043 11.2958 9.74277 11.2141 9.92961C11.1872 9.98816 11.1384 10.0338 11.0782 10.0567C11.018 10.0796 10.9512 10.078 10.8922 10.0522C10.8332 10.0264 10.7866 9.97852 10.7625 9.91874C10.7384 9.85896 10.7386 9.7921 10.7632 9.73249C10.8402 9.5562 10.9119 9.37471 10.9763 9.19307C10.9872 9.16256 11.0039 9.13449 11.0255 9.11045C11.0472 9.08641 11.0734 9.06687 11.1026 9.05296C11.1318 9.03905 11.1634 9.03103 11.1957 9.02937C11.228 9.0277 11.2603 9.03242 11.2908 9.04326C11.3213 9.05409 11.3493 9.07083 11.3733 9.09252C11.3973 9.1142 11.4168 9.14041 11.4307 9.16965C11.4446 9.19888 11.4526 9.23057 11.4543 9.26291C11.4559 9.29524 11.4512 9.32758 11.4404 9.35809L11.4401 9.35781ZM18 4.19105C18.001 6.43987 17.1286 8.60095 15.5672 10.2174C16.3836 10.5632 17.1253 11.0643 17.7511 11.693L17.9279 11.8702C17.9507 11.893 17.9689 11.9202 17.9812 11.9501C17.9936 11.9799 18 12.012 18 12.0443C18 12.0767 17.9936 12.1087 17.9812 12.1386C17.9689 12.1685 17.9507 12.1956 17.9279 12.2185L17.7511 12.3956C16.8538 13.2999 15.7236 13.9372 14.4862 14.2369C13.2488 14.5365 11.9526 14.4866 10.7418 14.0929C10.3693 14.7283 9.91766 15.3137 9.39769 15.835C9.34546 15.8873 9.28344 15.9288 9.2152 15.9571C9.14695 15.9854 9.0738 16 8.99993 16C8.92606 16 8.85291 15.9854 8.78467 15.9571C8.71642 15.9288 8.65441 15.8873 8.60217 15.835C8.08232 15.3136 7.63068 14.7282 7.25808 14.0929C6.04728 14.4866 4.75114 14.5365 3.51375 14.2368C2.27636 13.9372 1.1462 13.2999 0.248909 12.3956L0.0721438 12.2185C0.0492768 12.1956 0.0311356 12.1685 0.0187581 12.1386C0.00638049 12.1087 9.47252e-06 12.0767 9.47252e-06 12.0443C9.47252e-06 12.012 0.00638049 11.9799 0.0187581 11.9501C0.0311356 11.9202 0.0492768 11.893 0.0721438 11.8702L0.248909 11.693C0.87297 11.0657 1.61243 10.5652 2.42649 10.2192C2.076 9.85465 1.75779 9.46029 1.47544 9.04058C1.45589 9.01382 1.44194 8.98339 1.43442 8.9511C1.4269 8.91882 1.42596 8.88534 1.43166 8.85269C1.43736 8.82003 1.44959 8.78886 1.46761 8.76104C1.48562 8.73323 1.50906 8.70934 1.53652 8.69081C1.56397 8.67228 1.59488 8.65948 1.62739 8.65319C1.6599 8.6469 1.69334 8.64725 1.72571 8.6542C1.75809 8.66116 1.78873 8.67458 1.8158 8.69368C1.84287 8.71277 1.86581 8.73713 1.88325 8.76531C2.60659 9.84275 3.57525 10.7327 4.70942 11.3618C5.84359 11.991 7.11081 12.3413 8.4067 12.3839C6.89325 10.7769 6.05276 8.64994 6.05827 6.44108C6.05827 6.37701 6.06164 6.31365 6.06305 6.24987C4.5587 4.87844 2.59699 4.11907 0.562503 4.12065H0.492191V4.19105C0.491466 5.01802 0.615587 5.84035 0.860347 6.63018C0.870354 6.66119 0.874119 6.69388 0.871423 6.72635C0.868726 6.75883 0.859622 6.79045 0.844638 6.81938C0.829654 6.84831 0.809087 6.87398 0.784128 6.89489C0.759169 6.91581 0.730314 6.93156 0.699234 6.94124C0.668154 6.95091 0.635465 6.95432 0.603061 6.95126C0.570657 6.9482 0.539182 6.93873 0.510457 6.92341C0.481732 6.90808 0.456328 6.88721 0.435716 6.86198C0.415105 6.83676 0.399695 6.8077 0.390378 6.77647C0.130863 5.93929 -0.000749453 5.06763 3.20998e-06 4.19105V3.87424C4.04676e-05 3.8089 0.0259801 3.74625 0.0721235 3.70005C0.118267 3.65385 0.18084 3.62787 0.246097 3.62784H0.562503C1.36238 3.62781 2.15844 3.73839 2.9281 3.95647C2.98647 3.15798 3.15489 2.37141 3.42858 1.61914L3.53672 1.32134C3.55907 1.25992 3.60487 1.2099 3.66405 1.18228C3.72322 1.15466 3.79093 1.15171 3.85228 1.17406L4.14956 1.28248C5.13088 1.63848 6.03955 2.1698 6.83142 2.8506C7.26333 1.89853 7.86324 1.03229 8.60231 0.293481L8.82591 0.0694639C8.87293 0.0248602 8.93523 0 9 0C9.06477 0 9.12708 0.0248602 9.1741 0.0694639L9.39783 0.293481C10.1367 1.03242 10.7366 1.89852 11.1689 2.85032C11.9607 2.16969 12.8693 1.63844 13.8504 1.28234L14.1477 1.17406C14.1781 1.16297 14.2104 1.15799 14.2427 1.15939C14.275 1.16079 14.3067 1.16855 14.336 1.18223C14.3653 1.19591 14.3916 1.21523 14.4135 1.2391C14.4353 1.26297 14.4522 1.29092 14.4633 1.32134L14.5714 1.61914C14.8451 2.37144 15.0135 3.15799 15.072 3.95647C15.8417 3.7384 16.6377 3.62781 17.4375 3.62784H17.7539C17.8192 3.62787 17.8817 3.65385 17.9279 3.70005C17.974 3.74625 18 3.8089 18 3.87424V4.19105ZM11.3694 3.33046C11.6518 4.06732 11.8317 4.83959 11.9038 5.62555C12.7005 4.96327 13.6095 4.4495 14.5875 4.10868C14.5412 3.31552 14.3799 2.53333 14.1086 1.7867L14.0846 1.72052L14.0185 1.74446C13.0425 2.09917 12.1434 2.63751 11.3694 3.33046ZM6.09736 5.6271C6.16992 4.84089 6.34971 4.06835 6.63174 3.33102C5.8574 2.63786 4.95772 2.0995 3.98124 1.74502L3.91514 1.72094L3.8911 1.78712C3.62 2.53377 3.45894 3.31597 3.41297 4.1091C4.39127 4.4502 5.30048 4.96436 6.09736 5.6271ZM7.24683 13.5757H7.24795C7.27271 13.5621 7.29965 13.553 7.32755 13.5487C7.79043 13.3785 8.23226 13.1556 8.64436 12.8845C6.48365 12.8759 4.40396 12.0601 2.8125 10.5967C1.98108 10.9177 1.22627 11.4099 0.596956 12.0415L0.594144 12.0443L0.596956 12.0471C1.44844 12.9042 2.52472 13.5025 3.70143 13.773C4.87815 14.0434 6.10729 13.9751 7.24683 13.5757ZM10.2721 13.9215C9.82557 13.7389 9.39924 13.5103 9 13.2393C8.60073 13.5103 8.17441 13.7389 7.72791 13.9215C8.07051 14.4909 8.48096 15.0164 8.95022 15.4865C8.95588 15.4944 8.96335 15.5009 8.97199 15.5053C8.98064 15.5098 8.99021 15.5121 8.99993 15.5121C9.00965 15.5121 9.01923 15.5098 9.02787 15.5053C9.03652 15.5009 9.04398 15.4944 9.04964 15.4865C9.51898 15.0164 9.92948 14.4909 10.2721 13.9215ZM17.403 12.0415C16.7726 11.4086 16.0161 10.9157 15.1829 10.5948C13.594 12.0598 11.5151 12.8766 9.35508 12.8845C9.76729 13.1553 10.2092 13.3778 10.672 13.5477C10.7001 13.5519 10.7272 13.561 10.752 13.5747L10.7533 13.5756C11.8928 13.975 13.122 14.0434 14.2987 13.7729C15.4754 13.5024 16.5517 12.904 17.403 12.0469L17.4059 12.0441L17.403 12.0415ZM17.5078 4.12065H17.4375C15.4031 4.11901 13.4415 4.87828 11.9372 6.24959C11.947 6.68242 11.925 7.11538 11.8713 7.54497C11.8631 7.60978 11.8295 7.66867 11.7779 7.70867C11.7263 7.74868 11.6609 7.76652 11.5962 7.75829C11.5315 7.75006 11.4727 7.71641 11.4327 7.66476C11.3928 7.61311 11.3749 7.54769 11.3832 7.48288C11.4381 7.0461 11.4584 6.60566 11.4439 6.16567C11.4425 6.15163 11.4423 6.1375 11.4432 6.12343C11.4097 5.18318 11.2135 4.25589 10.8633 3.38284C10.8533 3.36511 10.8457 3.34618 10.8405 3.32652C10.427 2.32177 9.81833 1.40927 9.04978 0.641969L9 0.592406L8.95036 0.64225C8.17976 1.41159 7.57033 2.32725 7.15781 3.33553C7.15525 3.34333 7.1523 3.35099 7.14895 3.35848C6.54595 4.85274 6.3952 6.49158 6.71549 8.07098C7.03577 9.65038 7.81293 11.1006 8.95022 12.241L9 12.2907L9.04964 12.241C9.37775 11.9125 9.67772 11.557 9.94641 11.1783C9.96489 11.1514 9.98853 11.1284 10.0159 11.1107C10.0434 11.0931 10.074 11.081 10.1061 11.0753C10.1382 11.0696 10.1711 11.0704 10.203 11.0775C10.2348 11.0846 10.2649 11.098 10.2915 11.1169C10.3181 11.1358 10.3407 11.1598 10.3579 11.1875C10.3752 11.2152 10.3868 11.246 10.392 11.2783C10.3973 11.3105 10.3961 11.3434 10.3885 11.3752C10.3809 11.4069 10.3671 11.4369 10.3479 11.4632C10.1174 11.7876 9.86509 12.0959 9.59274 12.3859C11.7151 12.3121 13.726 11.4167 15.2023 9.88829C16.6786 8.35982 17.5051 6.31749 17.5078 4.19119V4.12065Z" fill="url(#paint0_linear)"/>
<defs>
<linearGradient id="paint0_linear" x1="15.5908" y1="14.5585" x2="2.39252" y2="1.37676" gradientUnits="userSpaceOnUse">
<stop stop-color="#A260E5"/>
<stop offset="1" stop-color="#D85134"/>
</linearGradient>
</defs>
</svg>
