<svg width="450" height="500" viewBox="0 0 450 500" fill="none" xmlns="http://www.w3.org/2000/svg">
<path style="transform: translate(30px, 50px);"  fill-rule="evenodd" clip-rule="evenodd" d="M237.898 1.19092C279.13 4.10409 324.122 8.4965 353.267 36.7225C381.745 64.3021 383.606 106.815 386.727 145.326C389.423 178.583 383.268 210.747 369.858 241.418C356.419 272.157 334.374 296.444 310.192 320.381C276.797 353.439 250.385 401.123 202.57 407.016C153.165 413.105 101.813 386.148 68.8507 350.124C37.6451 316.021 44.2042 266.204 33.4375 222.176C22.687 178.215 -12.0431 134.264 5.90548 92.7263C23.8629 51.1678 77.2002 37.4417 120.673 20.2891C158.178 5.49097 197.299 -1.67747 237.898 1.19092Z" fill="url(#paint0_linear)"/>

<path style="transform: translate(0px, 150px)"  fill-rule="evenodd" clip-rule="evenodd" d="M51.0028 63.7656C71.1819 37.1981 94.0432 8.76202 126.464 1.93002C158.142 -4.7455 188.461 13.4064 216.558 28.8783C240.822 42.2391 260.43 61.0891 275.807 84.1661C291.219 107.295 298.363 133.299 304.323 160.59C312.556 198.279 334.012 237.922 317.045 272.964C299.513 309.172 258.193 331.608 218.681 337.462C181.274 343.004 149.595 315.821 114.303 303.003C79.0645 290.204 33.2735 293.635 12.3547 262.526C-8.57446 231.4 5.38958 189.045 12.6318 151.8C18.8798 119.667 31.1339 89.9247 51.0028 63.7656Z" stroke="#FBA2B8"/>
<path style="transform: translate(60px, 10px);"  fill-rule="evenodd" clip-rule="evenodd" d="M7.55857 175.225C1.02383 137.772 -5.02346 96.6349 13.7164 64.3633C32.0271 32.8308 69.5657 21.7507 103.253 10.4316C132.344 0.656966 162.42 -0.975027 192.771 4.20017C223.19 9.38688 249.754 23.6857 276.48 39.9688C313.39 62.4564 361.81 75.4698 377.664 116.848C394.046 159.603 381.358 211.417 356.503 248.824C332.973 284.237 287.049 289.419 250.131 308.785C213.268 328.122 181.729 368.863 140.672 362.043C99.5939 355.22 75.5233 310.648 50.5796 275.64C29.0598 245.438 13.9929 212.103 7.55857 175.225Z" stroke="#FBA2B8"/>

<defs>
<linearGradient id="paint0_linear" x1="206.59" y1="-1.68702" x2="171.028" y2="406.828" gradientUnits="userSpaceOnUse">
<stop stop-color="#FBA2B8" stop-opacity="0.5"/>
<stop offset="1" stop-color="#C45ED3" stop-opacity="0.53"/>
</linearGradient>
</defs>
</svg>
