<svg width="259" height="311" viewBox="0 0 259 311" fill="none" xmlns="http://www.w3.org/2000/svg">
<path fill-rule="evenodd" clip-rule="evenodd" d="M169.219 77.7146C169.852 77.6789 170.265 77.0397 170.504 76.4503C170.81 75.6977 170.995 74.7931 170.56 74.111C170.091 73.3767 169.048 73.2003 168.219 73.4733C167.39 73.7462 166.365 74.5517 165.73 75.1515L169.219 77.7146ZM153.249 67.9798C153.674 67.7743 153.772 67.2184 153.769 66.7463C153.763 66.1448 153.632 65.4734 153.138 65.1323C152.607 64.7654 151.842 64.9445 151.352 65.3688C150.83 65.9063 150.414 66.5377 150.127 67.2297L153.249 67.9798ZM174.052 86.8606C174.369 86.309 175.124 86.2261 175.756 86.2768C176.563 86.3418 177.451 86.5818 177.862 87.2794C178.305 88.0302 177.992 89.0448 177.376 89.665C176.761 90.2853 175.583 90.8411 174.764 91.1414L174.052 86.8606ZM161.734 72.6719C162.635 72.621 163.224 71.7109 163.564 70.8722C163.998 69.8008 164.263 68.5136 163.643 67.5421C162.976 66.497 161.49 66.2457 160.311 66.6344C159.131 67.023 157.672 68.1698 156.767 69.0233L161.734 72.6719ZM175.292 95.8536C175.933 95.1475 177.064 95.2693 177.972 95.5482C179.132 95.9039 180.354 96.5425 180.731 97.6974C181.137 98.9407 180.354 100.326 179.253 101.037C178.152 101.747 176.25 102.181 174.954 102.357L175.292 95.8536ZM0.640158 238.277L1.62117 239.281C1.81428 239.268 1.99991 239.201 2.156 239.086C2.31209 238.971 2.43207 238.814 2.50169 238.633C2.54505 238.489 2.54344 238.336 2.49707 238.193C2.45072 238.051 2.36181 237.926 2.24235 237.836L1.53452 238.718C1.48783 238.676 1.45187 238.624 1.42965 238.565C1.40744 238.506 1.39959 238.442 1.40677 238.38C1.40855 238.336 1.41964 238.293 1.43931 238.254C1.45898 238.215 1.48676 238.18 1.52082 238.153C1.57068 238.155 1.61894 238.171 1.66037 238.199C1.70181 238.226 1.73484 238.265 1.7559 238.31C1.7559 238.31 1.74614 238.167 2.07128 237.807C17.982 220.174 35.521 203.586 52.4814 187.545C69.0145 171.91 86.1074 155.741 104.22 141.383C110.164 136.671 116.321 132.074 122.516 127.718L121.869 126.793C115.656 131.161 109.482 135.771 103.52 140.496C85.3687 154.885 68.2565 171.07 51.7071 186.722C34.7297 202.779 17.1771 219.382 1.23235 237.049C0.895335 237.375 0.685309 237.81 0.640158 238.277ZM-7.27889 230.17L45.4453 180.425C58.3436 168.255 71.6828 155.67 86.1246 144.893C89.8027 142.147 93.6342 139.457 97.3422 136.855C107.019 130.062 117.026 123.037 125.312 114.323L124.494 113.543C116.286 122.175 106.327 129.167 96.6961 135.928C92.9822 138.535 89.1423 141.231 85.4517 143.986C70.9565 154.803 57.5955 167.41 44.6717 179.602L-8.06971 229.361L-7.27889 230.17ZM144.619 116.404C148.165 114.349 151.449 111.87 154.399 109.022C156.615 106.871 158.666 104.481 160.649 102.17C162.834 99.6243 165.095 97.0032 167.589 94.6695C167.707 94.777 167.834 94.8735 167.969 94.9581C165.467 97.2886 163.198 99.9196 161.005 102.475C159.013 104.793 156.957 107.192 154.726 109.358C151.778 112.205 148.499 114.686 144.958 116.747C144.845 116.634 144.732 116.519 144.619 116.404ZM146.23 118.071C152.905 114.481 158.661 109.389 163.044 103.197L163.426 103.468C159.022 109.682 153.245 114.797 146.547 118.412C146.443 118.296 146.335 118.185 146.23 118.071ZM142.218 114.271C150.716 108.547 158.378 100.704 164.503 91.2851L164.897 91.5405C158.788 100.934 151.157 108.771 142.692 114.519C142.543 114.42 142.384 114.337 142.218 114.271ZM144.672 107.442C144.308 107.683 143.945 107.926 143.584 108.17C141.861 109.338 140.185 110.576 138.54 111.858C138.436 111.728 138.335 111.607 138.234 111.502C139.893 110.21 141.583 108.96 143.321 107.781C143.684 107.536 144.048 107.292 144.413 107.05C145.64 106.231 146.912 105.384 148.077 104.446C151.556 101.646 154.222 97.963 155.794 93.7824L156.231 93.9467C154.63 98.2063 151.914 101.959 148.37 104.811C147.189 105.763 145.908 106.617 144.672 107.442ZM140.159 112.846C140.128 112.814 140.097 112.785 140.066 112.753C139.983 112.669 139.895 112.592 139.802 112.519C140.962 111.757 142.12 110.983 143.257 110.196C147.699 107.118 153.315 102.846 157.338 97.0885C157.6 96.7154 157.854 96.3364 158.108 95.9575C158.751 94.9516 159.459 93.9892 160.229 93.0769L160.578 93.3872C159.823 94.2845 159.127 95.2304 158.496 96.2188C158.241 96.6003 157.985 96.982 157.722 97.3583C153.654 103.176 147.996 107.481 143.521 110.582C142.416 111.35 141.287 112.103 140.159 112.846ZM134.453 110.363C135.488 109.148 136.548 107.869 137.644 106.503C139.082 104.711 140.599 102.768 141.961 100.7C142.577 99.7629 143.171 98.7862 143.745 97.8417C144.486 96.6229 145.253 95.3611 146.082 94.1656C148.725 90.3514 152.083 87.0642 155.33 83.8851L155.658 84.2204C152.426 87.3843 149.084 90.6558 146.466 94.4326C145.646 95.6173 144.883 96.8723 144.145 98.0855C143.569 99.0332 142.974 100.014 142.352 100.958C140.98 103.042 139.453 104.996 138.009 106.797C136.985 108.073 135.995 109.268 135.025 110.41C134.834 110.388 134.644 110.371 134.453 110.363ZM150.459 82.7375L150.768 83.0908C146.514 86.8293 143.927 92.0805 141.425 97.1584C140.589 98.8559 139.724 100.613 138.809 102.285C137.249 105.115 135.474 107.82 133.499 110.377C133.286 110.392 133.072 110.42 132.857 110.448C134.925 107.805 136.777 105 138.397 102.061C139.307 100.395 140.17 98.6451 141.004 96.9513C143.527 91.8317 146.135 86.5374 150.46 82.7365L150.459 82.7375ZM136.295 78.3888C133.653 83.8142 130.658 89.9635 130.159 96.3889C130.064 97.6194 130.058 98.8784 130.053 100.097C130.053 100.119 130.052 100.14 130.051 100.163C130.449 97.4105 131.07 94.6942 131.909 92.0417C132.813 89.2013 133.795 87.0078 135 85.1387C135.967 83.7083 137.026 82.3429 138.172 81.0512L142.492 75.9569L142.849 76.2612L138.529 81.3545C137.397 82.6302 136.35 83.979 135.395 85.3919C134.213 87.2245 133.247 89.3818 132.356 92.1823C131.184 95.8709 130.439 99.6811 130.135 103.538C129.937 103.113 129.743 102.686 129.553 102.257C129.554 102.199 129.559 102.142 129.56 102.085C129.577 101.423 129.581 100.759 129.583 100.095C129.589 98.8697 129.595 97.6022 129.692 96.3547C130.197 89.8392 133.212 83.6473 135.873 78.1837L136.295 78.3888ZM147.592 74.7399L144.611 77.8536C143.25 79.2764 141.842 80.7466 140.705 82.3834C138.709 85.2519 137.524 88.6435 136.38 91.9244L136.048 92.8758C134.54 97.1602 132.859 101.397 131.043 105.579C130.962 105.378 130.877 105.177 130.789 104.978C132.532 100.941 134.15 96.8528 135.605 92.72L135.938 91.7721C137.094 88.4603 138.289 85.0368 140.321 82.1166C141.48 80.4494 142.9 78.9648 144.275 77.5296L147.256 74.4159L147.592 74.7399ZM147.946 120.104C147.846 119.971 147.748 119.837 147.647 119.708C149.148 119.066 150.636 118.383 152.077 117.607C158.782 113.995 163.863 109.165 166.77 103.638L167.186 103.856C164.234 109.467 159.086 114.366 152.298 118.022C150.879 118.784 149.42 119.468 147.946 120.104ZM112.148 70.3651C111.107 75.4908 110.801 79.6183 111.188 83.3566C111.95 90.7342 115.53 97.4716 118.993 103.987C120.977 107.721 122.996 111.543 124.524 115.524C124.417 115.695 124.308 115.861 124.203 116.043C122.669 111.962 120.613 108.037 118.578 104.21C115.095 97.654 111.492 90.8756 110.72 83.4075C110.329 79.6199 110.636 75.4467 111.688 70.2731L112.148 70.3651ZM115.794 80.308C115.886 80.2842 115.976 80.2538 116.063 80.2171C115.713 87.1007 117.762 93.8043 119.875 99.5352C120.496 101.22 121.162 102.926 121.806 104.575C123.049 107.758 124.313 111.01 125.346 114.336C125.224 114.492 125.106 114.657 124.987 114.823C123.941 111.394 122.65 108.031 121.369 104.748C120.724 103.097 120.057 101.389 119.435 99.6998C117.318 93.9627 115.268 87.2505 115.588 80.3324C115.657 80.3231 115.724 80.3229 115.794 80.3083L115.794 80.308ZM108.206 79.0401C108.531 82.2821 109.493 85.4953 110.485 88.4838C113.215 96.6986 116.613 104.674 120.645 112.33L120.933 112.871C121.331 113.623 121.732 114.385 122.111 115.159C121.865 115.017 121.62 114.869 121.372 114.728C121.092 114.178 120.804 113.633 120.518 113.093L120.231 112.549C116.186 104.871 112.777 96.8725 110.039 88.6334C109.04 85.6196 108.069 82.3774 107.739 79.0881C107.421 75.9169 107.689 72.6988 107.948 69.587L108.416 69.5876L108.441 69.9257L108.391 69.9294C108.139 72.9243 107.902 76.014 108.206 79.0406L108.206 79.0401ZM108.191 95.4206C105.038 89.0268 101.745 81.4175 101.22 73.4585L101.688 73.4251C102.208 81.303 105.48 88.8589 108.611 95.2112C109.347 96.7033 110.104 98.1881 110.86 99.6741C112.933 103.748 115.057 107.929 116.75 112.266C116.541 112.16 116.333 112.053 116.122 111.948C114.468 107.806 112.431 103.798 110.442 99.8893C109.684 98.4012 108.928 96.9146 108.191 95.4206ZM119.254 85.2838C119.927 91.8505 121.319 98.3213 123.405 104.58C123.962 106.249 124.579 107.935 125.176 109.565C125.609 110.744 126.038 111.937 126.456 113.138C126.331 113.254 126.201 113.367 126.081 113.49C125.644 112.224 125.19 110.969 124.736 109.728C124.138 108.093 123.519 106.405 122.96 104.729C120.908 98.5749 119.525 92.2161 118.832 85.7621L118.813 85.7632L118.786 85.3219L119.254 85.2838ZM105.014 79.5142C106.379 88.6951 110.726 97.1707 114.927 105.37C116.092 107.642 117.296 109.99 118.416 112.315C118.596 112.687 118.763 113.042 118.926 113.393C118.693 113.268 118.462 113.139 118.227 113.015C118.148 112.85 118.075 112.693 117.993 112.523C116.875 110.202 115.672 107.856 114.509 105.587C110.288 97.3552 105.925 88.8428 104.548 79.5876C103.769 74.3793 103.959 69.0692 105.106 63.9246L105.564 64.0248C104.43 69.1123 104.243 74.3633 105.013 79.5136L105.014 79.5142ZM121.54 90.1537C122.212 96.62 124.293 102.92 126.304 109.014C126.671 110.124 127.035 111.242 127.397 112.371C127.262 112.468 127.124 112.563 126.996 112.665C126.621 111.49 126.243 110.323 125.86 109.163C123.84 103.046 121.751 96.7205 121.073 90.2037L121.54 90.1537ZM100.093 69.3549C98.9406 73.79 99.894 78.5015 100.98 82.525C102.357 87.6788 104.221 92.6885 106.546 97.4869C107.327 99.0854 108.177 100.688 109.001 102.239C110.35 104.778 111.711 107.386 112.842 110.088C112.817 110.068 112.796 110.046 112.77 110.027C112.539 109.857 112.316 109.678 112.089 109.503C111.032 107.091 109.802 104.749 108.587 102.46C107.761 100.907 106.908 99.2999 106.125 97.6941C103.786 92.869 101.912 87.831 100.526 82.6482C99.4244 78.5654 98.4576 73.7784 99.6389 69.237L100.093 69.3549ZM130.016 110.954C129.558 109.739 129.179 108.496 128.88 107.233L129.338 107.127C129.63 108.366 130.002 109.584 130.45 110.774C130.297 110.831 130.157 110.893 130.016 110.954ZM128.348 111.762C126.861 107.194 125.339 102.475 124.835 97.6204L125.301 97.5691C125.796 102.344 127.294 107.01 128.766 111.526C128.621 111.602 128.487 111.683 128.348 111.762ZM147.494 102.292C146.287 103.429 144.979 104.488 143.715 105.513L142.812 106.246C140.986 107.738 139.196 109.294 137.422 110.865C137.311 110.796 137.199 110.727 137.069 110.655C136.896 110.56 136.712 110.485 136.521 110.432C139.015 107.476 141.384 104.416 143.7 101.388C144.644 100.153 145.587 98.9202 146.538 97.6959C148.318 95.4039 150.241 92.9957 152.47 90.9233C153.995 89.5526 155.587 88.2591 157.241 87.0478L163.645 82.1916L163.927 82.5667L157.523 87.4229C155.928 88.6315 154.281 89.8805 152.789 91.2675C150.586 93.314 148.676 95.7079 146.907 97.9849C145.957 99.2072 145.016 100.439 144.072 101.673C141.805 104.637 139.496 107.639 137.063 110.543C138.855 108.958 140.671 107.39 142.515 105.883L143.42 105.149C144.677 104.13 145.977 103.076 147.173 101.952C148.939 100.228 150.612 98.4105 152.184 96.5075C155.029 93.1852 157.971 89.749 161.84 87.5809L162.069 87.9912C158.275 90.1177 155.36 93.5221 152.541 96.8136C150.958 98.7289 149.273 100.558 147.494 102.292ZM144.106 80.7599L144.416 81.1132C142.137 83.1193 140.34 85.9362 138.921 89.7256C138.118 91.8688 137.504 94.1202 136.911 96.297C136.605 97.4182 136.289 98.578 135.951 99.7101C135.184 102.26 134.278 104.765 133.238 107.217C136.295 102.575 139.099 97.1219 141.74 90.6932L141.887 90.336C142.525 88.7808 143.184 87.1722 144.145 85.7518C144.997 84.5688 145.951 83.4628 146.996 82.4464L152.112 77.1756L152.447 77.5034L147.328 82.7768C146.304 83.7732 145.369 84.8573 144.533 86.0166C143.6 87.3962 142.95 88.9816 142.321 90.5146L142.174 90.8726C139.158 98.2118 135.93 104.289 132.352 109.342C132.268 109.117 132.186 108.893 132.086 108.674C133.427 105.722 134.568 102.683 135.501 99.5782C135.838 98.4511 136.154 97.2946 136.459 96.1763C137.054 93.9893 137.671 91.7267 138.481 89.5637C139.928 85.698 141.768 82.8197 144.106 80.7599ZM105.929 57.3425C107.092 57.1703 108.279 57.3451 109.342 57.8451C111.302 58.8218 112.28 60.8516 113.19 63.0214L120.996 81.6034C122.514 85.2151 124.11 88.8816 125.654 92.4272C128.197 98.2685 130.798 104.275 133.179 110.312C132.86 110.358 132.547 110.417 132.236 110.482C129.881 104.52 127.309 98.5816 124.794 92.8057C123.249 89.2572 121.65 85.588 120.131 81.97L112.325 63.3879C111.714 61.9331 111.076 60.5487 110.131 59.5819C109.781 59.2177 109.372 58.9153 108.921 58.6874C108.022 58.2732 107.022 58.1302 106.042 58.2758C102.701 58.6947 100.31 61.4765 99.1864 63.9403C97.8325 66.9074 97.5946 70.3335 97.4785 73.3127C97.2366 79.4823 97.357 87.4619 100.46 94.4753C102.888 99.9622 107.133 104.953 113.075 109.314C116.696 111.971 120.609 114.14 124.246 115.973C124.094 116.235 123.945 116.517 123.796 116.802C120.131 114.953 116.183 112.761 112.519 110.072C110.41 108.538 108.43 106.832 106.6 104.973C103.681 102.049 101.311 98.6238 99.6026 94.8589C96.4221 87.6703 96.2958 79.5501 96.5412 73.2792C96.6613 70.2111 96.908 66.6753 98.3336 63.5516C99.9029 60.1133 102.813 57.7347 105.93 57.3431L105.929 57.3425ZM154.499 67.7945C157.162 68.6285 159.439 70.2245 161.643 71.7688L168.886 76.8429C169.914 77.5618 171.078 78.376 171.889 79.5047C172.874 80.8711 173.254 82.5845 173.56 83.9613C175.112 90.9535 176.629 99.0651 174.978 106.854C173.172 115.363 167.478 121.988 160.472 123.732C156.004 124.844 152.78 123.506 149.367 122.088C149.26 122.044 149.15 121.999 149.041 121.954C148.981 121.709 148.883 121.475 148.75 121.262C148.69 121.167 148.626 121.077 148.565 120.983C148.528 120.887 148.49 120.791 148.453 120.694C148.885 120.868 149.309 121.044 149.73 121.219C152.996 122.575 156.081 123.857 160.25 122.819C166.909 121.162 172.331 114.819 174.061 106.661C175.674 99.0567 174.176 91.063 172.645 84.1673C172.358 82.8756 172.001 81.2672 171.13 80.0561C170.949 79.8071 170.75 79.572 170.534 79.3527C169.86 78.7068 169.129 78.1245 168.348 77.6133L161.105 72.539C158.96 71.0361 156.743 69.4822 154.219 68.6919C147.612 66.6252 140.64 70.3902 136.66 75.0382C132.386 80.0298 130.2 86.4555 128.158 93.1538C127.738 94.5341 127.346 95.8668 127.004 97.1757C126.892 96.7365 126.663 96.3359 126.343 96.0162C126.626 94.9912 126.935 93.9503 127.261 92.8824C129.332 86.084 131.556 79.5574 135.95 74.4272C140.129 69.545 147.488 65.6011 154.499 67.7945ZM114.419 15.997C115.769 15.0678 117.947 16.7524 119.559 18.3584C120.677 19.2954 121.782 20.8547 122.794 22.3644C124.975 25.6588 126.788 29.1842 128.2 32.8772C130.803 39.603 132.389 47.0756 133.049 55.7185C133.657 63.7038 133.433 71.8188 133.181 79.6977C133.03 79.8675 132.907 80.0597 132.815 80.2672C132.762 80.3974 132.696 80.522 132.64 80.6505C132.587 80.7511 132.539 80.8545 132.498 80.9603C132.393 81.1908 132.292 81.4228 132.182 81.6505C132.192 81.3503 132.2 81.0499 132.209 80.7497C132.473 72.5602 132.746 64.0915 132.112 55.7935C131.461 47.2431 129.895 39.8581 127.325 33.2192C125.938 29.5907 124.158 26.1267 122.015 22.8894C121.259 21.7104 120.405 20.5974 119.463 19.5622C118.757 18.8395 118.044 18.3352 117.485 18.4473C116.894 18.5669 116.393 19.5027 116.073 21.0847C115.771 22.5832 116.033 24.1541 116.288 25.6723L127.182 90.4342L126.256 90.5935L115.363 25.8328C115.106 24.3042 114.816 22.5717 115.154 20.9024C115.557 18.9064 116.229 17.8076 117.204 17.5498C116.171 16.7926 115.352 16.4942 114.948 16.7719C114.494 17.0824 114.257 17.6717 114.012 18.3514C109.681 30.4732 104.789 44.1939 105.262 57.9401C104.941 57.9557 104.625 58.0288 104.329 58.1557C103.801 44.169 108.751 30.2919 113.131 18.0376C113.36 17.3909 113.677 16.5066 114.419 15.997ZM162.323 73.0911C162.303 73.0756 162.286 73.064 162.267 73.0489C162.08 72.8765 161.872 72.7292 161.647 72.6106C162.535 70.6536 163.512 68.7229 164.476 66.8541C165.607 64.6624 166.776 62.3965 167.763 60.1011C171.641 50.994 172.932 40.9976 171.495 31.2156C171.483 30.9552 171.402 30.7029 171.262 30.4836C171.063 30.2701 170.67 30.1997 170.031 30.2854C165.449 30.905 161.006 33.5639 156.048 38.6534C146.78 48.1903 140.525 60.2493 138.069 73.3161C137.677 73.6093 137.306 73.9297 136.958 74.2749C139.286 60.6013 145.71 47.9493 155.378 37.9987C160.491 32.75 165.108 30.0027 169.91 29.3536C170.532 29.2697 171.398 29.2176 171.974 29.8681C172.235 30.2186 172.392 30.6364 172.425 31.0729C173.887 41.0284 172.573 51.2021 168.627 60.4711C167.626 62.7972 166.45 65.0778 165.311 67.2844C164.32 69.2037 163.313 71.1871 162.412 73.1893C162.378 73.1572 162.358 73.1203 162.323 73.0911ZM147.407 135.73C151.529 143.596 157.52 150.321 164.854 155.316C167.033 156.844 169.385 158.108 171.862 159.081C180.227 162.22 189.503 160.556 198.287 158.584C200.969 157.981 203.335 157.357 205.128 155.82C205.602 155.414 206.378 154.599 206.251 153.709C206.145 153.262 205.945 152.843 205.666 152.479C200.343 144.367 193.932 135.16 185.212 128.556C179.888 124.525 173.763 121.555 167.662 119.182L167.697 119.161C167.993 118.985 168.257 118.757 168.474 118.489C174.485 120.857 180.508 123.814 185.778 127.805C194.62 134.498 201.085 143.784 206.451 151.96C206.81 152.437 207.06 152.988 207.181 153.573C207.321 154.564 206.809 155.614 205.737 156.534C203.78 158.211 201.296 158.87 198.49 159.501C189.567 161.505 180.137 163.192 171.53 159.961C168.984 158.963 166.566 157.665 164.326 156.095C161.312 154.045 158.511 151.697 155.965 149.086C154.967 148.065 154.005 147.003 153.078 145.899C150.538 142.853 148.333 139.543 146.5 136.024C146.812 135.96 147.116 135.861 147.407 135.729L147.407 135.73ZM200.201 144.01C209.062 142.542 218.566 139.663 226.022 133.281C226.663 132.734 226.776 132.438 226.792 132.32C226.756 132.259 226.717 132.19 226.675 132.113C226.112 131.68 223.826 131.59 223.024 131.558C222.632 131.542 222.29 131.528 222.038 131.505C219.138 131.243 215.7 130.922 212.189 130.526C204.559 129.667 198.35 128.669 192.651 127.386C191.775 127.188 190.902 126.982 190.028 126.776C187.297 126.13 184.472 125.462 181.653 125.107C181.392 125.074 181.128 125.056 180.867 125.028C180.687 124.832 180.475 124.669 180.239 124.546C179.773 124.305 179.326 124.095 178.883 123.911C179.849 123.975 180.816 124.053 181.775 124.174C184.642 124.537 187.491 125.209 190.247 125.861C191.117 126.066 191.988 126.272 192.859 126.468C198.524 127.744 204.701 128.737 212.296 129.593C215.798 129.987 219.229 130.308 222.125 130.57C222.366 130.592 222.693 130.604 223.066 130.62C223.904 130.639 224.74 130.705 225.571 130.816C214.443 124.029 202.768 118.183 190.666 113.339C185.508 111.276 179.904 109.28 174.113 108.082C174.206 107.779 174.247 107.463 174.232 107.146C180.112 108.355 185.792 110.377 191.017 112.466C203.356 117.405 215.252 123.381 226.58 130.33C226.873 130.506 227.107 130.926 227.411 131.495C227.423 131.518 227.434 131.54 227.447 131.562C227.55 131.674 227.629 131.806 227.679 131.95C227.984 132.839 226.967 133.711 226.633 133.997C219.119 140.427 209.619 143.365 200.734 144.875C200.605 144.559 200.425 144.266 200.201 144.009L200.201 144.01ZM224.841 113.256C224.458 112.919 224.006 112.67 223.516 112.526C208.98 107.346 193.675 104.639 178.234 104.519C177.068 104.508 175.893 104.518 174.719 104.562C174.834 104.285 174.908 103.992 174.939 103.693C174.941 103.666 174.943 103.64 174.945 103.613C176.049 103.576 177.152 103.568 178.245 103.577C193.79 103.699 209.199 106.423 223.833 111.639C224.365 111.827 225.985 112.402 226.06 113.776C226.114 114.733 225.368 115.448 224.712 115.964C221.065 118.819 217.017 121.119 212.7 122.788C212.596 122.709 212.485 122.639 212.368 122.58C212.092 122.445 211.81 122.326 211.521 122.223C216.065 120.567 220.321 118.205 224.134 115.225C224.64 114.827 225.152 114.351 225.123 113.833C225.104 113.611 225.004 113.406 224.841 113.255L224.841 113.256ZM185.928 67.9581C185.999 67.9556 186.071 67.9478 186.143 67.9456C196.026 67.6437 205.856 70.2783 213.825 75.3674C214.488 75.7894 215.162 76.2625 215.507 77.0237C215.727 77.5948 215.817 78.2083 215.771 78.8194C215.588 89.196 211.755 99.1849 204.946 107.027C204.755 106.956 204.555 106.91 204.352 106.889L203.864 106.84C210.758 99.1089 214.651 89.1594 214.832 78.809C214.873 78.3361 214.812 77.8602 214.653 77.4138C214.416 76.89 213.865 76.5073 213.32 76.1601C205.506 71.172 195.863 68.5904 186.167 68.885C185.84 68.8949 185.514 68.9253 185.188 68.9415C185.522 68.6902 185.779 68.3492 185.928 67.9581ZM173.338 65.5911C175.824 64.7218 178.261 63.6893 180.64 62.681C180.94 62.5532 181.52 62.2466 182.19 61.8906C184.549 60.6393 186.505 59.6482 187.668 59.5344C187.586 59.4502 187.499 59.3708 187.408 59.2967C186.447 58.5196 185.045 58.4286 183.807 58.404C181.906 58.367 180.005 58.4269 178.11 58.5834C178.307 58.25 178.496 57.9295 178.684 57.6083C180.4 57.4877 182.117 57.4285 183.827 57.4647C185.22 57.4929 186.806 57.6034 187.996 58.565C188.359 58.8567 188.663 59.2135 188.895 59.6171C188.895 59.6171 189.22 60.2914 189.37 60.6999C189.907 62.1676 189.109 64.4175 188.637 65.2769C187.955 66.5198 187.005 67.5712 186.085 68.5868C185.518 69.2135 184.932 69.8619 184.427 70.5381C183.459 71.834 182.716 73.331 181.997 74.7782C181.293 76.3073 180.454 77.7703 179.489 79.1496C177.721 81.4313 175.553 83.3712 173.091 84.8736C173.066 84.5642 172.996 84.2603 172.882 83.972C172.873 83.952 172.863 83.9344 172.854 83.9146C175.114 82.5006 177.105 80.6972 178.738 78.5883C179.7 77.2962 180.441 75.8043 181.157 74.3614C181.895 72.8762 182.657 71.3405 183.676 69.9765C184.208 69.2642 184.809 68.5995 185.391 67.9564C186.313 66.935 187.185 65.9704 187.814 64.8251C188.32 63.9022 188.849 62.0195 188.487 61.0261C188.441 60.8903 188.367 60.7659 188.27 60.6612C188.188 60.5776 188.088 60.5133 187.978 60.4728C187.328 60.2263 184.033 61.9742 182.626 62.7211C181.907 63.1018 181.34 63.4028 181.001 63.5466C178.082 64.7853 175.069 66.0459 171.971 67.0203C172.439 66.5738 172.897 66.1025 173.338 65.5906L173.338 65.5911ZM183.029 36.4855C184.034 36.4671 185.449 36.5631 186.147 37.6412C186.38 38.0001 186.351 38.5749 186.268 39.225C186.424 39.8414 186.418 40.6703 186.259 41.7865C185.419 47.5733 183.121 53.0542 179.583 57.7129C178.858 58.673 178.116 59.7107 177.351 60.7801C174.602 64.622 171.486 68.9762 167.88 71.4755C166.384 72.4923 164.704 73.2068 162.935 73.5787C162.894 73.5291 162.861 73.4737 162.816 73.4277L162.489 73.0924C162.38 72.9816 162.261 72.8816 162.132 72.7937C164.002 72.4888 165.783 71.7747 167.347 70.7021C170.819 68.2966 173.884 64.0133 176.589 60.2338C177.358 59.1581 178.106 58.1124 178.835 57.1479C182.276 52.617 184.511 47.2869 185.33 41.6592C185.466 40.9499 185.479 40.2229 185.37 39.5097C185.351 39.466 185.339 39.42 185.332 39.3728C185.285 39.1994 185.192 39.0419 185.064 38.9167C184.647 38.5344 183.707 38.5408 182.017 38.9387C179.704 39.4821 177.351 40.8368 175.212 42.856C173.964 44.0683 172.813 45.3768 171.769 46.7693C171.786 46.6893 171.813 46.614 171.828 46.5331C171.912 46.0478 171.944 45.5552 171.924 45.0634C172.743 44.0438 173.627 43.0781 174.57 42.1723C176.83 40.0392 179.332 38.6045 181.806 38.0233C183.348 37.6609 184.366 37.5995 185.07 37.8492C184.666 37.5446 184.007 37.4087 183.043 37.4268C179.398 37.5055 175.789 38.178 172.357 39.4177C172.393 39.0953 172.429 38.772 172.437 38.4367C172.437 38.4198 172.434 38.4046 172.434 38.3881C175.846 37.2024 179.421 36.5602 183.029 36.485L183.029 36.4855ZM151.692 122.31C151.673 122.295 151.65 122.285 151.632 122.269C155.931 121.294 160.208 120.074 163.674 117.404C167.203 114.665 169.556 110.68 170.25 106.267L170.715 106.338C170.001 110.871 167.584 114.963 163.959 117.776C160.505 120.437 156.3 121.677 152.061 122.652C151.948 122.527 151.825 122.413 151.693 122.31L151.692 122.31ZM165.663 111.464L166.046 111.735C162.983 116.064 158.596 119.279 153.551 120.892C152.606 121.192 151.639 121.432 150.671 121.646C150.46 121.526 150.247 121.408 150.026 121.302C151.168 121.073 152.298 120.786 153.412 120.444C158.359 118.862 162.66 115.709 165.663 111.463L165.663 111.464ZM162.797 122.206C162.966 122.122 163.133 122.028 163.299 121.935C166.416 123.474 169.775 124.576 173.051 125.644C177.617 127.134 182.34 128.675 186.378 131.399L186.115 131.79C182.133 129.102 177.44 127.572 172.905 126.093C169.509 124.982 166.025 123.836 162.798 122.205L162.797 122.206ZM165.357 120.481C170.412 122.519 175.472 124.676 180.426 126.92L180.231 127.349C175.208 125.073 170.078 122.888 164.951 120.825C165.087 120.716 165.222 120.598 165.357 120.481ZM169.207 130.242C170.756 130.906 172.357 131.592 173.893 132.357C179.644 135.217 184.793 139.338 189.07 142.992L188.765 143.35C184.509 139.715 179.388 135.616 173.683 132.778C172.158 132.019 170.563 131.335 169.021 130.675C167.837 130.167 166.613 129.643 165.425 129.086C161.824 127.344 158.34 125.371 154.994 123.179C155.364 123.24 155.733 123.286 156.097 123.322C159.159 125.297 162.341 127.08 165.624 128.66C166.805 129.212 168.025 129.736 169.207 130.242ZM182.909 141.009L182.718 141.439C176.433 138.624 169.935 135.712 163.907 132.127C158.65 129 154.313 125.689 150.746 122.084C151.07 122.186 151.394 122.288 151.723 122.385C155.139 125.717 159.235 128.8 164.147 131.722C170.15 135.293 176.635 138.198 182.908 141.008L182.909 141.009ZM149.094 122.275C150.086 123.406 151.135 124.486 152.237 125.509C156.065 129.051 160.423 131.876 164.559 134.466C170.776 138.359 177.543 142.363 184.89 145.255L184.717 145.692C177.334 142.786 170.545 138.771 164.309 134.865C160.155 132.264 155.776 129.425 151.918 125.856C151.352 125.331 150.798 124.792 150.258 124.24C150.005 123.98 149.765 123.709 149.518 123.443C149.382 123.084 149.244 122.725 149.102 122.367C149.1 122.336 149.096 122.304 149.093 122.274L149.094 122.275ZM150.788 128.171C150.731 127.648 150.643 127.129 150.523 126.617C161.598 138.223 176.562 146.84 194.028 151.651L193.902 152.103C177.5 147.587 163.294 139.712 152.42 129.181C155.517 132.353 158.72 135.46 161.976 138.576C163.35 139.889 164.907 141.377 166.533 142.673C169.159 144.767 172.26 146.623 176.016 148.346C179.294 149.851 182.689 151.086 186.169 152.038L186.044 152.491C182.54 151.532 179.12 150.289 175.819 148.773C172.029 147.035 168.896 145.159 166.24 143.042C164.597 141.732 163.032 140.236 161.653 138.916C158.416 135.82 155.227 132.736 152.145 129.583C151.686 129.115 151.238 128.641 150.787 128.17L150.788 128.171ZM159.748 147.276C157.87 145.354 156.146 143.306 154.534 141.328C153.122 139.595 151.636 137.721 150.333 135.755C149.98 135.221 149.644 134.673 149.312 134.122C149.41 133.988 149.506 133.844 149.598 133.695C149.962 134.304 150.335 134.907 150.724 135.495C152.015 137.444 153.493 139.306 154.897 141.03C157.147 143.792 159.616 146.688 162.409 149.174C167.534 153.726 173.723 156.911 180.407 158.437L180.302 158.895C173.541 157.352 167.281 154.13 162.097 149.526C161.285 148.805 160.503 148.051 159.746 147.276L159.748 147.276ZM162.344 143.865C161.112 142.604 159.936 141.294 158.777 140.004C156.087 137.008 153.363 133.966 150.697 130.853C150.735 130.649 150.765 130.445 150.788 130.241C153.536 133.458 156.352 136.597 159.128 139.69C161.624 142.469 164.206 145.347 167.248 147.61C170.618 150.119 174.424 151.842 179.098 153.658L178.928 154.097C174.216 152.267 170.379 150.528 166.967 147.989C165.321 146.737 163.774 145.358 162.343 143.865L162.344 143.865ZM148.797 134.733C148.827 134.785 148.853 134.84 148.883 134.892C152.949 142.006 158.66 148.728 166.345 155.449L166.036 155.803C163.86 153.901 161.838 151.995 159.972 150.086C155.207 145.209 151.415 140.27 148.476 135.128C148.464 135.107 148.454 135.085 148.442 135.065C148.562 134.961 148.68 134.852 148.795 134.733L148.797 134.733ZM174.543 129.579C173.424 129.241 172.268 128.891 171.139 128.517C167.037 127.153 163.076 125.397 159.311 123.274C159.556 123.239 159.799 123.198 160.041 123.149C163.631 125.132 167.397 126.779 171.29 128.071C172.413 128.444 173.567 128.792 174.682 129.129C176.773 129.76 178.935 130.414 180.996 131.253C183.122 132.119 185.16 133.186 187.083 134.439L186.825 134.833C184.928 133.596 182.916 132.544 180.818 131.689C178.773 130.859 176.622 130.207 174.541 129.579L174.543 129.579ZM178.827 132.803C175.959 131.378 172.904 130.22 169.951 129.101L169.189 128.812C164.901 127.184 160.72 125.508 156.831 123.376C157.17 123.393 157.507 123.398 157.842 123.391C161.484 125.311 165.374 126.86 169.356 128.375L170.119 128.664C173.082 129.787 176.147 130.948 179.036 132.384C181.56 133.643 183.977 135.105 186.263 136.758C188.22 138.167 190.082 139.704 191.837 141.358L191.514 141.702C189.774 140.062 187.928 138.538 185.989 137.141C183.723 135.502 181.326 134.051 178.824 132.803L178.827 132.803ZM175.134 102.348C180.902 99.597 186.305 96.0177 191.557 92.5186C195.802 89.6913 200.193 86.7676 204.74 84.3099L204.961 84.7232C200.431 87.1703 196.051 90.088 191.816 92.9095C186.496 96.4528 181.023 100.08 175.16 102.854C175.15 102.686 175.141 102.517 175.132 102.348L175.134 102.348ZM200.281 106.3C200.249 106.277 200.212 106.259 200.178 106.238C201.085 105.352 201.979 104.462 202.85 103.591L207.172 99.261L207.504 99.5925L203.182 103.922C202.362 104.743 201.524 105.579 200.672 106.413C200.541 106.377 200.41 106.332 200.28 106.3L200.281 106.3ZM193.648 100.4C192.788 101.161 191.898 101.947 190.985 102.68C190.292 103.236 189.579 103.765 188.845 104.268C188.589 104.248 188.334 104.23 188.08 104.212C188.978 103.616 189.853 102.985 190.693 102.311C191.596 101.585 192.482 100.803 193.339 100.047C194.068 99.4023 194.823 98.7347 195.589 98.1034C199.618 94.7773 204.213 92.2073 209.151 90.5176L209.302 90.9629C204.417 92.634 199.872 95.176 195.887 98.466C195.125 99.0955 194.375 99.7583 193.648 100.4ZM175.034 100.427C180.603 98.0022 185.907 95.0043 190.859 91.4816C192.821 90.0738 194.76 88.5486 196.635 87.0742C200.722 83.8606 204.948 80.536 209.69 78.2079L209.895 78.6304C205.198 80.9366 200.991 84.246 196.924 87.4439C195.045 88.9217 193.102 90.4498 191.132 91.863C186.105 95.4393 180.717 98.4778 175.059 100.928L175.034 100.427ZM196.896 105.286C201.6 102.388 205.718 98.629 209.034 94.2058L209.41 94.4858C206.158 98.826 202.14 102.534 197.555 105.425C197.338 105.374 197.116 105.331 196.896 105.285L196.896 105.286ZM192.191 98.6334C189.675 100.561 187.052 102.344 184.335 103.973L183.495 103.919C186.415 102.211 189.226 100.32 191.909 98.2583C193.25 97.2501 194.576 96.2183 195.904 95.1878C200.168 91.8746 204.577 88.4486 209.402 85.8339L209.623 86.2474C204.833 88.8432 200.438 92.257 196.19 95.5578C194.862 96.5909 193.533 97.6228 192.191 98.6327L192.191 98.6334ZM205.106 93.4077L205.477 93.6955C202.053 98.0667 197.871 101.786 193.133 104.675C192.888 104.645 192.645 104.611 192.4 104.583C197.289 101.679 201.598 97.8885 205.106 93.4069L205.106 93.4077ZM178.831 103.754C178.476 103.758 178.122 103.77 177.768 103.788C182.207 101.433 186.386 98.5319 190.462 95.6835C195.471 92.1842 200.651 88.5654 206.281 86.0048L206.473 86.4323C200.883 88.9755 195.721 92.582 190.729 96.069C186.899 98.7434 182.98 101.472 178.832 103.753L178.831 103.754ZM174.979 99.323C174.971 99.1532 174.962 98.9832 174.954 98.8137C178.329 97.188 181.571 95.2985 184.65 93.1629C191.063 88.7538 196.937 83.4578 202.618 78.3376L202.931 78.6872C197.239 83.8177 191.354 89.1237 184.915 93.5497C181.763 95.7376 178.44 97.668 174.98 99.3222L174.979 99.323ZM184.69 78.1157C180.575 79.6049 176.836 81.9832 173.74 85.0814C173.711 84.8986 173.68 84.7146 173.647 84.5261C176.745 81.4881 180.458 79.1511 184.533 77.6738C186.29 77.0437 188.129 76.5743 189.906 76.1196C192.366 75.4897 194.91 74.8392 197.242 73.7614L197.437 74.188C195.066 75.2841 192.503 75.941 190.021 76.5745C188.254 77.0257 186.427 77.4935 184.69 78.115L184.69 78.1157ZM180.645 76.6536C180.843 76.5738 181.028 76.4851 181.229 76.4071C186.094 74.5187 191.444 73.417 195.742 72.5327L195.836 72.9917C191.555 73.8731 186.226 74.9696 181.397 76.8437C180.987 77.0031 180.602 77.1798 180.205 77.3481C180.363 77.1227 180.505 76.8886 180.646 76.6529L180.645 76.6536ZM181.89 73.4174C185.321 72.3155 188.845 71.5324 192.418 71.078L192.48 71.5435C188.851 72.003 185.274 72.8069 181.795 73.9443C181.839 73.7729 181.857 73.592 181.89 73.4167L181.89 73.4174ZM186.607 82.7738C182.055 84.5499 178.049 87.6117 174.43 90.7811C174.411 90.5881 174.397 90.3959 174.379 90.2036C177.962 87.0868 181.926 84.0963 186.438 82.336C187.535 81.9077 188.684 81.5439 189.796 81.1902C192.388 80.3678 195.07 79.5175 197.195 77.8137L197.487 78.1812C195.295 79.9391 192.57 80.8026 189.935 81.6383C188.831 81.9903 187.689 82.3527 186.607 82.7738ZM189.21 78.5546C183.725 81.0586 178.831 84.6154 174.187 88.4186C174.165 88.2322 174.148 88.0473 174.126 87.8615C178.724 84.1108 183.575 80.6104 189.016 78.127C192.686 76.4511 196.595 75.2624 200.375 74.1116L202.672 73.4128L202.807 73.863L200.51 74.5619C196.744 75.7085 192.851 76.8934 189.209 78.5561L189.21 78.5546ZM178.926 91.2363C177.547 92.3084 176.147 93.3864 174.711 94.4089C174.7 94.2255 174.685 94.0421 174.673 93.8587C176.021 92.89 177.339 91.875 178.639 90.865C179.436 90.2459 180.232 89.6282 181.031 89.0246C187.305 84.2885 194.095 80.2822 201.27 77.083L201.459 77.5131C194.317 80.6978 187.558 84.6858 181.313 89.4C180.513 90.0054 179.721 90.6209 178.926 91.2377L178.926 91.2363ZM174.879 97.3179C174.87 97.1411 174.861 96.9633 174.852 96.7867C175.636 96.2963 176.401 95.7728 177.155 95.2537L194.197 83.5307L194.462 83.9174L177.42 95.6403C176.614 96.1963 175.766 96.7769 174.878 97.3202L174.879 97.3179ZM157.23 46.7271C156.504 48.5146 156.088 50.4469 155.686 52.3155L155.582 52.803C154.953 55.7075 154.25 58.6328 153.49 61.4971C152.911 63.6787 152.324 65.6982 151.67 67.5967C151.508 67.5816 151.346 67.5755 151.183 67.5663C151.85 65.6437 152.448 63.5966 153.036 61.3776C153.794 58.5203 154.497 55.6022 155.123 52.704L155.228 52.2174C155.634 50.329 156.053 48.376 156.795 46.5505C157.773 44.144 159.287 41.9982 160.751 39.9246L161.134 40.1956C159.685 42.2476 158.187 44.3704 157.23 46.7271ZM145.441 68.3744C148.384 59.5538 151.435 50.4397 156.014 42.1384L156.425 42.3639C151.92 50.5306 148.896 59.5047 145.991 68.2082C145.808 68.2602 145.625 68.3155 145.44 68.3743L145.441 68.3744ZM153.256 67.8353C153.099 67.8027 152.942 67.7781 152.784 67.7509C153.991 64.6232 154.932 61.3702 155.852 58.1711C157.51 52.4024 159.223 46.4374 162.482 41.3293C162.905 40.6667 163.36 40.008 163.8 39.373C164.889 37.7974 166.016 36.1668 166.713 34.3727L167.15 34.5416C166.432 36.3894 165.29 38.0419 164.185 39.6393C163.747 40.2727 163.295 40.9266 162.877 41.5809C159.655 46.6324 157.951 52.5636 156.303 58.299C155.389 61.4815 154.454 64.717 153.256 67.8351L153.256 67.8353ZM161.7 45.9629L162.086 46.2313C159.781 49.5419 158.918 53.6334 158.084 57.5909C157.27 61.4467 156.487 65.0145 155.474 68.4708C155.327 68.4161 155.181 68.3619 155.032 68.3116C156.036 64.8788 156.816 61.3306 157.625 57.4947C158.469 53.4918 159.341 49.3524 161.7 45.9629ZM153.473 51.1753L153.892 51.3853C151.996 55.1557 151.058 59.3757 150.152 63.4565C149.848 64.8255 149.539 66.2128 149.192 67.5943C149.075 67.6053 148.956 67.6009 148.84 67.6152C148.793 67.6208 148.744 67.6299 148.697 67.6362C149.059 66.2072 149.379 64.7723 149.693 63.3557C150.607 59.2465 151.551 54.9977 153.473 51.1753ZM145.876 55.9182C144.426 57.9434 143.488 60.29 143.144 62.7559C143.083 63.0587 143.025 63.3614 142.962 63.6628C142.57 65.54 142.029 67.4105 141.504 69.2229L141.184 70.3312C140.975 70.4658 140.773 70.606 140.574 70.7501L141.054 69.0896C141.575 67.2902 142.114 65.4282 142.501 63.5685C142.564 63.2701 142.623 62.9675 142.682 62.6673C143.039 60.1459 143.998 57.7463 145.477 55.6724C146.017 54.832 146.513 53.9643 146.962 53.0728L147.385 53.2764C146.928 54.1826 146.425 55.0644 145.877 55.9184L145.876 55.9182ZM151.355 46.0256L151.786 46.2111L150.71 48.6994L143.683 69.0231C143.486 69.1066 143.291 69.193 143.096 69.2835L150.148 48.8926L150.12 48.8823L150.411 48.1287L150.441 48.1395L151.355 46.0256ZM160.18 71.3455C163.225 65.0733 165.744 58.5596 167.71 51.8719L168.16 52.0028C166.173 58.7595 163.624 65.3389 160.54 71.672C160.426 71.5582 160.299 71.4554 160.18 71.3455ZM160.014 58.6378C159.726 60.4991 159.427 62.4232 159.023 64.2876C158.635 66.0357 158.149 67.7607 157.567 69.4543C157.428 69.3762 157.29 69.2968 157.149 69.2236C157.714 67.5726 158.186 65.8917 158.564 64.1887C158.965 62.3388 159.263 60.4212 159.552 58.5666C160.175 54.5471 160.82 50.3923 162.56 46.6405C163.258 45.2043 164.033 43.8069 164.882 42.4545L167.752 37.6972L168.153 37.9397L165.284 42.697C164.444 44.0345 163.676 45.4163 162.985 46.8363C161.273 50.5284 160.633 54.6514 160.014 58.6378ZM161.391 62.9846C160.761 65.5046 159.98 67.9847 159.052 70.4115C158.922 70.316 158.791 70.2228 158.658 70.1319C159.559 67.757 160.321 65.3314 160.938 62.8678C161.297 61.4869 161.63 60.0991 161.964 58.7101C162.736 55.4999 163.535 52.1803 164.629 49.0013C165.459 46.5904 166.461 44.242 167.628 41.9744L168.045 42.1883C166.889 44.4359 165.895 46.7636 165.073 49.1535C163.985 52.3104 163.19 55.6195 162.42 58.8196C162.085 60.21 161.75 61.6016 161.391 62.9846ZM169.985 73.9125C169.317 74.7475 168.64 75.5983 167.922 76.4189C167.804 76.3145 167.686 76.2119 167.568 76.1109C168.28 75.2946 168.955 74.4511 169.619 73.6194C170.695 72.2147 171.852 70.8741 173.085 69.6043C175.291 67.426 177.916 65.7188 180.8 64.5867L180.969 65.0237C178.145 66.1323 175.575 67.8038 173.415 69.9365C172.196 71.1942 171.05 72.5217 169.985 73.9125ZM178.077 68.263C176.682 69.3823 175.514 70.7884 174.385 72.1495L169.591 77.9269C169.477 77.8203 169.362 77.7135 169.246 77.6076L174.024 71.8489C175.169 70.4706 176.352 69.045 177.785 67.8959C178.98 66.9912 180.248 66.1873 181.576 65.4926L184.136 64.0641L184.363 64.4752L181.795 65.9077C180.493 66.5886 179.249 67.3764 178.077 68.263ZM165.739 74.7713C168.483 72.3785 171.099 69.8425 173.577 67.1738L173.921 67.4941C171.466 70.138 168.877 72.6526 166.162 75.0278C166.025 74.9376 165.882 74.8557 165.74 74.7733L165.739 74.7713ZM178.868 69.2467C176.43 72.7437 173.742 76.0598 170.826 79.1689C170.721 79.0532 170.613 78.9405 170.505 78.8265C173.397 75.74 176.063 72.4485 178.481 68.9778L178.868 69.2467ZM171.704 80.274C173.722 78.0106 175.592 75.6195 177.303 73.1155L177.651 72.6024C178.4 71.4126 179.262 70.298 180.225 69.2742C180.935 68.5984 181.689 67.9705 182.482 67.3945C183.707 66.4616 184.866 65.5814 185.683 64.3598L186.073 64.6216C185.211 65.9072 183.967 66.8533 182.765 67.7683C181.989 68.3318 181.251 68.946 180.556 69.6069C179.615 70.6094 178.772 71.7004 178.04 72.8646L177.692 73.3783C175.946 75.935 174.035 78.375 171.972 80.6824C171.886 80.5449 171.798 80.4083 171.705 80.2747L171.704 80.274ZM172.697 82.1998C173.854 81.0701 174.93 79.8599 175.917 78.5783C177.806 76.1872 179.572 73.7009 181.207 71.1291L181.602 71.3806C179.959 73.9662 178.184 76.4659 176.285 78.87C175.236 80.2354 174.085 81.5189 172.842 82.7092C172.798 82.5379 172.754 82.3643 172.698 82.2001L172.697 82.1998ZM172.929 46.1645C172.611 46.5221 172.303 46.8922 171.991 47.2574C172.032 46.9758 172.069 46.6925 172.103 46.4073C172.264 46.2238 172.418 46.0337 172.579 45.8529C173.713 44.5789 174.968 43.2578 176.451 42.2318C178.03 41.1397 179.821 40.4087 181.554 39.7023L181.729 40.137C180.019 40.8344 178.252 41.5554 176.715 42.6179C175.276 43.6167 174.045 44.9132 172.929 46.1645ZM171.592 49.4632C173.582 46.6261 175.995 44.1108 178.746 42.0055L179.029 42.3793C175.993 44.6997 173.376 47.5236 171.292 50.7278C171.399 50.3103 171.499 49.8889 171.593 49.4638L171.592 49.4632ZM177.24 45.9321C174.703 48.231 172.882 51.2434 171.12 54.1574C170.425 55.306 169.717 56.4708 168.962 57.6062C169.254 56.8752 169.538 56.1417 169.811 55.4058C170.117 54.9081 170.42 54.4102 170.719 53.9152C172.499 50.972 174.338 47.9302 176.926 45.584C177.206 45.3296 177.496 45.0837 177.784 44.8378C178.45 44.3028 179.07 43.7125 179.637 43.0733L179.996 43.3751C179.412 44.0344 178.774 44.6434 178.088 45.1955C177.803 45.4388 177.518 45.6813 177.241 45.9327L177.24 45.9321ZM183.094 42.1423C182.127 43.8018 180.894 45.3145 179.702 46.7771C178.324 48.4677 176.9 50.2158 175.905 52.1761C175.452 53.0703 175.08 54.0249 174.721 54.9485C174.544 55.4002 174.368 55.8526 174.181 56.3005C171.897 61.7276 168.218 66.4542 163.518 69.9976C163.634 69.7588 163.717 69.5052 163.764 69.244C168.151 65.7882 171.587 61.2711 173.749 56.12C173.933 55.6756 174.108 55.2272 174.284 54.7784C174.648 53.8449 175.025 52.8787 175.488 51.9646C176.506 49.9589 177.947 48.1909 179.341 46.4801C180.52 45.0313 181.742 43.5331 182.69 41.9054L183.094 42.1423ZM173.5 53.9765C173.294 54.3404 173.093 54.7068 172.893 55.0742C172.505 55.7823 172.105 56.5121 171.673 57.2117C170.657 58.7885 169.549 60.3032 168.353 61.7474L166.163 64.5071C166.206 64.3741 166.26 64.2463 166.299 64.1114C166.44 63.7526 166.583 63.3959 166.727 63.0412L167.986 61.4563C169.17 60.0261 170.268 58.5266 171.273 56.9657C171.699 56.2766 172.097 55.5509 172.481 54.8488C172.682 54.4804 172.885 54.1115 173.091 53.7457C174.701 50.9328 176.55 48.2634 178.617 45.7672L178.979 46.0638C176.93 48.5398 175.097 51.1872 173.5 53.9766L173.5 53.9765ZM162.38 71.9814C162.434 71.913 162.481 71.8406 162.53 71.7692C162.737 71.6399 162.948 71.5131 163.151 71.3827C164.667 70.413 166.212 69.421 167.646 68.2926C166.939 68.8251 166.192 69.3437 165.411 69.8759C164.541 70.4889 163.631 71.0427 162.686 71.5336C162.844 71.2852 162.985 71.0274 163.123 70.7646C163.837 70.3553 164.522 69.9133 165.147 69.4878C167.204 68.0851 169.022 66.7839 170.439 65.0747C171.978 63.2179 172.971 60.9349 173.932 58.7268C174.904 56.4901 175.909 54.1781 177.489 52.2694C178.165 51.4861 178.886 50.7428 179.649 50.0435C180.635 49.104 181.654 48.1321 182.415 46.9938L182.805 47.2558C182.015 48.4368 180.976 49.4265 179.971 50.3841C179.222 51.0705 178.514 51.8005 177.85 52.5701C176.312 54.4265 175.321 56.7069 174.361 58.9137C173.716 60.4858 172.968 62.0135 172.121 63.4868C172.571 62.8352 173.005 62.1728 173.429 61.5163C174.042 60.571 174.675 59.5934 175.216 58.5898C175.347 58.3481 175.474 58.1029 175.6 57.8587C175.982 57.0633 176.436 56.3043 176.955 55.5911C177.379 55.0703 177.839 54.579 178.33 54.1206C179.09 53.3765 179.809 52.6737 180.24 51.7648L180.664 51.9646C180.196 52.9503 179.413 53.7162 178.656 54.4567C178.181 54.9002 177.736 55.3756 177.325 55.8795C176.824 56.57 176.386 57.3044 176.017 58.0736C175.889 58.3214 175.761 58.5688 175.629 58.8132C175.077 59.8325 174.437 60.8198 173.817 61.7781C172.868 63.3332 171.796 64.8102 170.612 66.1952C168.544 68.4859 165.93 70.1592 163.402 71.778C163.041 72.0088 162.674 72.2399 162.3 72.4648L162.126 72.3087C162.213 72.2017 162.3 72.0943 162.38 71.9816L162.38 71.9814ZM129.575 71.7191C130.19 75.7965 130.545 79.9094 130.64 84.0332C130.481 84.3539 130.323 84.6745 130.173 84.9995C130.15 81.8705 129.961 78.7454 129.607 75.6374C129.614 79.2671 129.561 82.8868 129.503 86.4818C129.339 86.8614 129.175 87.2403 129.017 87.6186L129.026 87.0338C129.107 81.9794 129.187 76.8715 129.107 71.761C128.229 65.7456 126.936 59.7796 125.664 53.9139C124.411 48.1432 123.117 42.1777 122.238 36.2669L122.703 36.1955C123.577 42.0908 124.871 48.0494 126.122 53.8123C127.153 58.5614 128.193 63.3793 129.022 68.2377C128.687 57.9381 127.535 47.6676 124.213 37.8278C123.925 36.9726 123.62 36.121 123.315 35.2698C122.345 32.5628 121.342 29.7642 120.896 26.8682L121.36 26.7957C121.799 29.6453 122.795 32.4224 123.757 35.1077C124.063 35.9631 124.369 36.8181 124.659 37.675C128.376 48.6874 129.39 60.2162 129.575 71.7191ZM131.76 81.8862C131.444 78.8911 131.164 75.8756 130.919 72.8874C130.904 75.2968 130.924 77.7167 131.046 80.0993C131.069 80.5535 131.096 81.0095 131.123 81.4646C131.15 81.9196 131.176 82.3871 131.199 82.851C131.171 82.9207 131.135 82.9835 131.112 83.0573C130.989 83.2918 130.884 83.536 130.766 83.773C130.737 83.0089 130.699 82.2471 130.655 81.4942C130.627 81.0375 130.601 80.5811 130.577 80.125C130.369 76.0703 130.441 71.9114 130.514 67.8893C129.604 56.5271 128.598 44.8256 125.446 33.7467L125.897 33.6169C128.617 43.173 129.74 53.1764 130.582 63.0248C130.63 55.8911 130.336 48.6786 128.161 41.9003L128.607 41.755C131.298 50.1428 131.138 59.1509 130.983 67.8623L130.982 67.8638C131.011 68.2272 131.041 68.593 131.07 68.9556C131.392 72.9822 131.728 77.1168 132.15 81.2117C132.018 81.4357 131.889 81.6606 131.76 81.8862ZM121.7 44.0041C119.937 37.086 118.114 29.9322 119.312 22.8558L119.775 22.9319C118.594 29.9109 120.404 37.0149 122.156 43.8856C122.374 44.7413 122.59 45.5948 122.803 46.4459C126.287 60.4767 128.152 74.8658 128.359 89.3309C128.087 90.087 127.835 90.8442 127.615 91.6028C127.569 89.7306 127.425 87.8578 127.209 85.99C127.069 88.759 126.754 91.5168 126.266 94.2469C126.199 93.9862 126.077 93.743 125.909 93.5336C126.486 90.0892 126.794 86.6057 126.83 83.1147C126.447 80.513 125.973 77.9249 125.5 75.3687C124.707 71.087 123.887 66.6619 123.529 62.2726L123.996 62.2323C124.353 66.5962 125.17 71.0119 125.961 75.2814C126.25 76.844 126.537 78.4196 126.808 80.0019C126.596 72.5647 125.324 64.6049 122.986 56.1868C122.747 55.3301 122.5 54.4739 122.253 53.6166C121.004 49.2778 119.712 44.7907 119.565 40.2077L120.034 40.1912C120.178 44.7162 121.462 49.1727 122.704 53.4846C122.951 54.3428 123.199 55.2008 123.437 56.0597C126.113 65.6907 127.397 74.7296 127.3 83.0795C127.519 84.5642 127.697 86.0537 127.836 87.548C127.513 73.7216 125.672 59.9767 122.348 46.5611C122.136 45.7116 121.92 44.8593 121.7 44.0041ZM180.663 111.975C178.39 111.184 176.06 110.374 173.672 109.869C173.717 109.719 173.75 109.565 173.769 109.409C176.184 109.92 178.529 110.736 180.816 111.532L195.444 116.618C197.237 117.241 199.266 117.947 200.777 119.352L200.456 119.697C199.018 118.36 197.037 117.67 195.29 117.062L180.663 111.975ZM185.067 114.838C181.014 113.609 176.87 112.7 172.673 112.119C172.747 111.971 172.816 111.824 172.887 111.677C177.059 112.26 181.178 113.167 185.208 114.39C188.37 115.381 191.485 116.645 194.498 117.866L206.487 122.729L206.309 123.165L194.321 118.302C191.317 117.083 188.211 115.823 185.066 114.838L185.067 114.838ZM199.786 121.557L199.686 122.018C195.864 121.2 192.054 120.004 188.37 118.846C182.795 117.094 177.049 115.3 171.175 114.799C171.27 114.649 171.359 114.496 171.45 114.345C177.293 114.877 182.986 116.661 188.512 118.397C192.185 119.552 195.985 120.746 199.786 121.557ZM177.261 122.762C186.219 123.15 195.082 124.742 203.61 127.498L203.465 127.946C195.239 125.289 186.699 123.718 178.062 123.274C177.796 123.098 177.529 122.926 177.261 122.762ZM170.676 120.114C179.964 120.168 188.04 121.128 195.255 123.035L195.134 123.49C188.472 121.729 181.058 120.788 172.635 120.618C171.991 120.416 171.337 120.248 170.675 120.113L170.676 120.114ZM173.156 120.807C177.58 121.31 182 121.925 186.341 122.549C187.925 122.777 189.562 123.013 191.178 123.288C197.283 124.325 203.273 125.942 209.068 128.119L208.902 128.559C203.135 126.394 197.174 124.784 191.099 123.75C189.488 123.477 187.854 123.242 186.222 123.007C182.469 122.467 178.64 121.928 174.795 121.463C174.253 121.219 173.706 121 173.155 120.806L173.156 120.807ZM204.219 124.964C196.754 122.333 189.098 120.703 181.255 119.129C177.688 118.413 173.492 117.582 169.227 117.423C169.357 117.277 169.479 117.123 169.604 116.971C173.779 117.163 177.863 117.968 181.35 118.667C189.209 120.245 196.883 121.88 204.376 124.52C205.163 124.797 205.948 125.087 206.735 125.375C209.997 126.573 213.371 127.813 216.854 128.201L216.801 128.667C213.261 128.274 209.861 127.024 206.572 125.817C205.788 125.529 205.004 125.241 204.219 124.964ZM123.276 134.274C122.28 132.956 121.678 131.265 121.384 128.95C120.805 124.29 121.619 119.559 123.721 115.355C124.261 114.19 125.011 113.136 125.933 112.244C127.506 110.826 129.601 110.276 131.249 109.957C132.629 109.691 134.434 109.441 136.154 109.89C137.99 110.369 139.552 111.596 140.808 112.581C145.443 116.223 150.061 120.268 151.201 126.139C151.52 127.783 152.183 131.203 150.997 133.424C149.903 135.47 147.196 136.725 145.255 137.491C142.454 138.599 139.17 139.055 135.215 138.888C131.486 138.73 128.656 138.06 126.311 136.781C125.424 136.309 124.611 135.707 123.9 134.997C123.677 134.769 123.468 134.528 123.276 134.274ZM140.227 113.322C138.717 112.136 137.441 111.197 135.915 110.799C134.377 110.399 132.707 110.633 131.424 110.881C129.895 111.176 127.96 111.679 126.56 112.943C125.725 113.757 125.047 114.716 124.559 115.775C122.541 119.812 121.76 124.353 122.315 128.827C122.588 130.973 123.131 132.522 124.025 133.704C124.769 134.639 125.703 135.406 126.764 135.955C128.978 137.163 131.677 137.796 135.258 137.947C139.079 138.11 142.237 137.675 144.915 136.617C146.717 135.904 149.223 134.754 150.17 132.982C151.198 131.057 150.578 127.859 150.28 126.322C149.632 122.982 147.755 120.235 145.385 117.809C143.765 116.203 142.042 114.704 140.227 113.322Z" fill="url(#paint0_linear)" fill-opacity="0.6"/>
<defs>
<linearGradient id="paint0_linear" x1="191.246" y1="40.4398" x2="53.5023" y2="270.362" gradientUnits="userSpaceOnUse">
<stop stop-color="#CB72D9" stop-opacity="0.21"/>
<stop offset="1" stop-color="#FBA2B8"/>
</linearGradient>
</defs>
</svg>
