<svg width="36" height="36" viewBox="0 0 36 36" fill="none" xmlns="http://www.w3.org/2000/svg">
<g clip-path="url(#clip0)">
<path d="M0.0791395 33.2996C0.243561 33.5872 0.609897 33.6871 0.897539 33.5228C3.08521 32.3539 5.3687 31.3739 7.72314 30.5936C10.0871 29.7476 10.7999 29.492 10.7999 28.7996V25.841L11.3105 18.4862C11.3765 17.1683 11.7166 15.8787 12.3089 14.6996C12.3173 14.6816 12.3257 14.663 12.3329 14.6438L15.1409 7.23921C15.3996 6.75386 15.9551 6.50646 16.4889 6.63888C17.0227 6.7713 17.3981 7.24964 17.3999 7.79961V7.85961C17.3763 8.00912 17.3384 8.156 17.2865 8.29821C17.2103 8.53821 17.1065 8.83821 16.9865 9.19101C16.3691 10.9874 15.2465 14.2676 15.0389 17.111C14.277 17.5302 13.8026 18.33 13.7999 19.1996V26.3996C13.7999 26.731 14.0686 26.9996 14.3999 26.9996C14.7313 26.9996 14.9999 26.731 14.9999 26.3996V19.1996C14.9999 18.5369 15.5372 17.9996 16.1999 17.9996C16.8627 17.9996 17.3999 18.5369 17.3999 19.1996V29.3996C17.3999 30.8426 16.4825 32.3996 14.9999 32.3996C14.4815 32.3996 12.9563 33.2396 10.4669 34.9004C10.1912 35.0843 10.1168 35.4569 10.3007 35.7326C10.4846 36.0083 10.8572 36.0827 11.1329 35.8988C12.3614 35.0349 13.6542 34.2663 14.9999 33.5996C16.2756 33.5738 17.4314 32.8417 17.9999 31.6994C18.5529 32.8327 19.6897 33.5649 20.9501 33.5996H20.9549C22.3218 34.2548 23.6305 35.0249 24.8669 35.9018C25.1426 36.0857 25.5152 36.0113 25.6991 35.7356C25.8831 35.4599 25.8086 35.0873 25.5329 34.9034C23.0435 33.2396 21.5183 32.3996 20.9999 32.3996C19.5173 32.3996 18.5999 30.8426 18.5999 29.3996V19.1996C18.5999 18.5369 19.1372 17.9996 19.7999 17.9996C20.4627 17.9996 20.9999 18.5369 20.9999 19.1996V26.3996C20.9999 26.731 21.2686 26.9996 21.5999 26.9996C21.9313 26.9996 22.1999 26.731 22.1999 26.3996V19.1996C22.1968 18.3317 21.7238 17.5335 20.9639 17.114C20.7581 14.2682 19.6337 10.988 19.0163 9.19401C18.8963 8.84061 18.7913 8.53881 18.7127 8.29401C18.6612 8.15321 18.6234 8.00772 18.5999 7.85961V7.79961C18.6018 7.24964 18.9772 6.7713 19.511 6.63888C20.0448 6.50646 20.6003 6.75386 20.8589 7.23921L23.6669 14.6396C23.6741 14.6588 23.6825 14.6774 23.6909 14.6954C24.2852 15.8784 24.6259 17.1724 24.6911 18.4946L25.1999 25.7996V28.7996C25.1999 29.492 25.9127 29.7476 28.2767 30.5936C30.6303 31.3733 32.913 32.3524 35.0999 33.5204C35.3876 33.6847 35.7539 33.5848 35.9183 33.2972C36.0826 33.0096 35.9827 32.6432 35.6951 32.4788C33.4474 31.2747 31.1004 30.266 28.6799 29.4638C27.9044 29.2081 27.1432 28.9105 26.3999 28.5722V26.375C30.6962 22.8308 32.3056 16.9714 30.4226 11.7299C28.5396 6.48837 23.5694 2.99268 17.9999 2.99268C12.4305 2.99268 7.46023 6.48837 5.57724 11.7299C3.69425 16.9714 5.3037 22.8308 9.59994 26.375V28.5734C8.8566 28.9116 8.09548 29.2092 7.31994 29.465C4.89787 30.2665 2.54921 31.2748 0.299939 32.4788C0.161606 32.5582 0.0605643 32.6894 0.0191345 32.8434C-0.0222953 32.9974 -0.000703749 33.1616 0.0791395 33.2996ZM19.7327 16.8062C19.0654 16.8257 18.4369 17.1241 17.9999 17.6288C17.563 17.1241 16.9344 16.8257 16.2671 16.8062C16.5982 14.4579 17.1791 12.1516 17.9999 9.92661C18.8208 12.1516 19.4017 14.4579 19.7327 16.8062ZM5.99994 16.1996C5.99752 10.7414 9.67896 5.96916 14.959 4.58599C20.2391 3.20283 25.7874 5.55723 28.4613 10.3156C31.1353 15.074 30.2611 21.0375 26.3339 24.8282L25.8893 18.4244C25.8149 16.9509 25.4366 15.5087 24.7781 14.1884L21.9683 6.77961C21.9615 6.76074 21.9535 6.74231 21.9443 6.72441C21.5865 6.01202 20.8984 5.52379 20.1078 5.42145C19.3172 5.31911 18.5273 5.61601 17.9999 6.21381C17.4724 5.6161 16.6824 5.31939 15.8918 5.42198C15.1012 5.52456 14.4131 6.01305 14.0555 6.72561C14.0464 6.74351 14.0384 6.76194 14.0315 6.78081L11.2199 14.1884C10.5628 15.5053 10.1847 16.9438 10.1093 18.4136L9.66534 24.8294C7.31573 22.5745 5.99129 19.4562 5.99994 16.1996Z" fill="url(#paint0_linear)"/>
<path d="M18.5999 1.2V0.6C18.5999 0.268629 18.3313 0 17.9999 0C17.6685 0 17.3999 0.268629 17.3999 0.6V1.2C17.3999 1.53137 17.6685 1.8 17.9999 1.8C18.3313 1.8 18.5999 1.53137 18.5999 1.2Z" fill="url(#paint1_linear)"/>
<path d="M10.4999 3.80951C10.7142 3.80929 10.912 3.69485 11.0191 3.50925C11.1261 3.32364 11.126 3.09506 11.0189 2.90951L10.7189 2.38991C10.5521 2.10538 10.1869 2.00883 9.90129 2.17375C9.61566 2.33866 9.51669 2.7032 9.67971 2.98991L9.97971 3.50951C10.087 3.69533 10.2853 3.80972 10.4999 3.80951Z" fill="url(#paint2_linear)"/>
<path d="M4.18972 8.91947L4.70991 9.21947C4.89566 9.32836 5.1255 9.32937 5.3122 9.22214C5.4989 9.1149 5.61383 8.91584 5.61336 8.70054C5.61288 8.48523 5.49708 8.28668 5.30991 8.18027L4.78971 7.88027C4.503 7.71725 4.13846 7.81622 3.97355 8.10185C3.80864 8.38748 3.90519 8.75266 4.18972 8.91947Z" fill="url(#paint3_linear)"/>
<path d="M2.99993 16.8001C3.3313 16.8001 3.59993 16.5315 3.59993 16.2001C3.59993 15.8687 3.3313 15.6001 2.99993 15.6001H2.39993C2.06856 15.6001 1.79993 15.8687 1.79993 16.2001C1.79993 16.5315 2.06856 16.8001 2.39993 16.8001H2.99993Z" fill="url(#paint4_linear)"/>
<path d="M3.97013 24.3001C4.13582 24.5871 4.50276 24.6854 4.78973 24.5197L5.30993 24.2197C5.4971 24.1133 5.6129 23.9148 5.61338 23.6995C5.61385 23.4842 5.49892 23.2851 5.31222 23.1779C5.12552 23.0706 4.89567 23.0716 4.70993 23.1805L4.18973 23.4805C3.90277 23.6462 3.80445 24.0132 3.97013 24.3001Z" fill="url(#paint5_linear)"/>
<path d="M31.8101 23.4805L31.2899 23.1805C31.1042 23.0716 30.8743 23.0706 30.6876 23.1779C30.5009 23.2851 30.386 23.4842 30.3865 23.6995C30.3869 23.9148 30.5028 24.1133 30.6899 24.2197L31.2101 24.5197C31.4968 24.6827 31.8614 24.5838 32.0263 24.2981C32.1912 24.0125 32.0947 23.6473 31.8101 23.4805Z" fill="url(#paint6_linear)"/>
<path d="M33.5999 16.8001C33.9313 16.8001 34.1999 16.5315 34.1999 16.2001C34.1999 15.8687 33.9313 15.6001 33.5999 15.6001H32.9999C32.6685 15.6001 32.3999 15.8687 32.3999 16.2001C32.3999 16.5315 32.6685 16.8001 32.9999 16.8001H33.5999Z" fill="url(#paint7_linear)"/>
<path d="M32.0297 8.10037C31.864 7.81341 31.4971 7.7151 31.2101 7.88078L30.6899 8.18077C30.5028 8.28719 30.3869 8.48574 30.3865 8.70105C30.386 8.91635 30.5009 9.11541 30.6876 9.22265C30.8743 9.32988 31.1042 9.32886 31.2899 9.21997L31.8101 8.91997C32.0971 8.75428 32.1954 8.38734 32.0297 8.10037Z" fill="url(#paint8_linear)"/>
<path d="M25.4999 3.80951C25.7145 3.80972 25.9128 3.69533 26.0201 3.50951L26.3201 2.98991C26.4831 2.7032 26.3842 2.33866 26.0985 2.17375C25.8129 2.00883 25.4477 2.10538 25.2809 2.38991L24.9809 2.90951C24.8738 3.09506 24.8737 3.32364 24.9807 3.50925C25.0878 3.69485 25.2857 3.80929 25.4999 3.80951Z" fill="url(#paint9_linear)"/>
</g>
<defs>
<linearGradient id="paint0_linear" x1="17.998" y1="2.99268" x2="17.998" y2="36.0028" gradientUnits="userSpaceOnUse">
<stop stop-color="#C45ED3"/>
<stop offset="1" stop-color="#FBA2B8"/>
</linearGradient>
<linearGradient id="paint1_linear" x1="17.9999" y1="0" x2="17.9999" y2="1.8" gradientUnits="userSpaceOnUse">
<stop stop-color="#C45ED3"/>
<stop offset="1" stop-color="#FBA2B8"/>
</linearGradient>
<linearGradient id="paint2_linear" x1="10.3502" y1="2.09326" x2="10.3502" y2="3.80951" gradientUnits="userSpaceOnUse">
<stop stop-color="#C45ED3"/>
<stop offset="1" stop-color="#FBA2B8"/>
</linearGradient>
<linearGradient id="paint3_linear" x1="4.75321" y1="7.80176" x2="4.75321" y2="9.30186" gradientUnits="userSpaceOnUse">
<stop stop-color="#C45ED3"/>
<stop offset="1" stop-color="#FBA2B8"/>
</linearGradient>
<linearGradient id="paint4_linear" x1="2.69993" y1="15.6001" x2="2.69993" y2="16.8001" gradientUnits="userSpaceOnUse">
<stop stop-color="#C45ED3"/>
<stop offset="1" stop-color="#FBA2B8"/>
</linearGradient>
<linearGradient id="paint5_linear" x1="4.75151" y1="23.0981" x2="4.75151" y2="24.6002" gradientUnits="userSpaceOnUse">
<stop stop-color="#C45ED3"/>
<stop offset="1" stop-color="#FBA2B8"/>
</linearGradient>
<linearGradient id="paint6_linear" x1="31.2466" y1="23.0981" x2="31.2466" y2="24.5982" gradientUnits="userSpaceOnUse">
<stop stop-color="#C45ED3"/>
<stop offset="1" stop-color="#FBA2B8"/>
</linearGradient>
<linearGradient id="paint7_linear" x1="33.2999" y1="15.6001" x2="33.2999" y2="16.8001" gradientUnits="userSpaceOnUse">
<stop stop-color="#C45ED3"/>
<stop offset="1" stop-color="#FBA2B8"/>
</linearGradient>
<linearGradient id="paint8_linear" x1="31.2483" y1="7.80029" x2="31.2483" y2="9.30236" gradientUnits="userSpaceOnUse">
<stop stop-color="#C45ED3"/>
<stop offset="1" stop-color="#FBA2B8"/>
</linearGradient>
<linearGradient id="paint9_linear" x1="25.6496" y1="2.09326" x2="25.6496" y2="3.80951" gradientUnits="userSpaceOnUse">
<stop stop-color="#C45ED3"/>
<stop offset="1" stop-color="#FBA2B8"/>
</linearGradient>
<clipPath id="clip0">
<rect width="36" height="36" fill="white"/>
</clipPath>
</defs>
</svg>
