<svg width="257" height="501" viewBox="0 0 257 501" fill="none" xmlns="http://www.w3.org/2000/svg">
<path fill-rule="evenodd" clip-rule="evenodd" d="M145.102 116.138C144.093 115.947 143.563 114.832 143.304 113.834C142.973 112.56 142.867 111.067 143.711 110.063C144.62 108.982 146.334 108.92 147.608 109.534C148.882 110.149 150.358 111.66 151.252 112.759L145.102 116.138ZM172.827 103.879C172.188 103.458 172.148 102.544 172.253 101.786C172.39 100.821 172.743 99.7699 173.608 99.3264C174.54 98.8493 175.731 99.2993 176.429 100.085C177.154 101.059 177.688 102.162 178.003 103.335L172.827 103.879ZM135.397 129.811C135.005 128.857 133.81 128.564 132.784 128.512C131.473 128.445 129.995 128.643 129.187 129.677C128.317 130.789 128.604 132.486 129.462 133.613C130.32 134.74 132.094 135.883 133.347 136.539L135.397 129.811ZM158.199 109.621C156.761 109.348 156.009 107.761 155.639 106.341C155.168 104.527 155.015 102.403 156.218 100.973C157.512 99.435 159.952 99.3459 161.765 100.22C163.578 101.095 165.68 103.247 166.953 104.81L158.199 109.621ZM131.5 143.999C130.62 142.729 128.776 142.685 127.258 142.941C125.319 143.267 123.219 144.034 122.369 145.81C121.453 147.721 122.418 150.114 124.036 151.489C125.654 152.863 128.619 153.964 130.665 154.522L131.5 143.999ZM381.976 409.87L380.186 411.276C379.879 411.215 379.595 411.067 379.368 410.85C379.142 410.632 378.982 410.354 378.909 410.048C378.869 409.808 378.905 409.562 379.009 409.343C379.114 409.124 379.283 408.942 379.494 408.823L380.445 410.391C380.529 410.333 380.598 410.256 380.646 410.166C380.694 410.076 380.72 409.976 380.722 409.874C380.728 409.803 380.719 409.732 380.696 409.665C380.673 409.597 380.636 409.536 380.587 409.484C380.506 409.478 380.425 409.493 380.353 409.529C380.28 409.565 380.219 409.62 380.175 409.688C380.175 409.688 380.222 409.459 379.775 408.813C357.944 377.106 333.275 346.734 309.42 317.364C286.165 288.736 262.124 259.131 236.061 232.221C227.506 223.39 218.588 214.698 209.555 206.387L210.791 205.037C219.85 213.371 228.794 222.088 237.373 230.945C263.492 257.913 287.561 287.546 310.838 316.205C334.717 345.606 359.405 376.005 381.284 407.773C381.757 408.368 382.002 409.111 381.976 409.87ZM396.419 398.522L322.235 307.412C304.087 285.123 285.318 262.074 264.395 241.695C259.066 236.504 253.479 231.369 248.072 226.403C233.961 213.436 219.37 200.027 207.901 184.269L209.381 183.189C220.74 198.799 235.264 212.144 249.307 225.05C254.722 230.026 260.321 235.172 265.668 240.38C286.669 260.834 305.468 283.924 323.652 306.254L397.861 397.389L396.419 398.522ZM176.435 183.522C171.172 179.469 166.419 174.789 162.283 169.587C159.178 165.661 156.389 161.385 153.691 157.252C150.72 152.698 147.642 148.007 144.129 143.729C143.917 143.877 143.692 144.005 143.458 144.112C146.983 148.387 150.073 153.096 153.055 157.666C155.764 161.814 158.561 166.104 161.686 170.057C165.82 175.257 170.564 179.939 175.817 184.002C176.023 183.843 176.228 183.682 176.435 183.522ZM173.493 185.859C163.526 178.675 155.356 169.273 149.626 158.395L148.953 158.749C154.715 169.669 162.914 179.111 172.911 186.34C173.103 186.176 173.299 186.019 173.493 185.859ZM180.745 180.603C168.302 169.604 157.651 155.377 149.805 138.944L149.118 139.271C156.945 155.66 167.546 169.871 179.931 180.901C180.191 180.774 180.464 180.674 180.745 180.603ZM178.249 169.109C178.783 169.574 179.314 170.041 179.843 170.51C182.363 172.752 184.794 175.097 187.167 177.504C187.362 177.318 187.549 177.144 187.734 176.998C185.342 174.57 182.89 172.203 180.347 169.941C179.816 169.469 179.284 169.001 178.748 168.535C176.949 166.958 175.085 165.327 173.411 163.573C168.414 158.337 164.911 151.854 163.27 144.802L162.533 144.974C164.204 152.158 167.772 158.764 172.864 164.098C174.56 165.877 176.437 167.521 178.249 169.109ZM184.356 178.75C184.412 178.704 184.469 178.664 184.524 178.619C184.676 178.503 184.834 178.396 184.998 178.3C183.296 176.829 181.599 175.341 179.939 173.835C173.453 167.946 165.333 159.893 160.088 149.788C159.748 149.133 159.419 148.47 159.091 147.807C158.272 146.055 157.337 144.358 156.294 142.729L155.666 143.154C156.69 144.756 157.607 146.423 158.413 148.145C158.742 148.812 159.072 149.48 159.415 150.14C164.719 160.35 172.899 168.468 179.433 174.398C181.045 175.867 182.7 177.316 184.356 178.75ZM194.051 175.969C192.644 173.797 191.213 171.516 189.741 169.089C187.811 165.905 185.784 162.461 184.034 158.849C183.242 157.213 182.494 155.518 181.772 153.879C180.839 151.763 179.875 149.573 178.797 147.476C175.357 140.787 170.658 134.793 166.113 128.996L165.515 129.466C170.038 135.235 174.715 141.2 178.122 147.824C179.189 149.901 180.149 152.08 181.077 154.185C181.802 155.83 182.551 157.532 183.35 159.181C185.114 162.821 187.153 166.284 189.093 169.485C190.468 171.753 191.805 173.882 193.123 175.922C193.433 175.928 193.742 175.94 194.051 175.969ZM174.184 128.184L173.612 128.687C179.656 135.596 182.701 144.582 185.645 153.272C186.63 156.177 187.647 159.183 188.763 162.065C190.67 166.942 192.949 171.666 195.58 176.193C195.919 176.262 196.258 176.352 196.597 176.443C193.835 171.757 191.452 166.858 189.472 161.792C188.362 158.923 187.346 155.927 186.365 153.029C183.396 144.267 180.327 135.207 174.183 128.183L174.184 128.184ZM197.866 124.198C200.962 133.476 204.472 143.992 203.911 154.423C203.804 156.42 203.546 158.444 203.297 160.404C203.293 160.439 203.289 160.474 203.285 160.511C203.23 156.003 202.807 151.506 202.021 147.066C201.171 142.31 200.057 138.578 198.517 135.319C197.266 132.815 195.853 130.397 194.286 128.078L188.422 118.977L187.785 119.39L193.648 128.49C195.196 130.78 196.593 133.169 197.828 135.642C199.34 138.837 200.434 142.508 201.272 147.197C202.374 153.373 202.764 159.654 202.436 165.916C202.845 165.274 203.247 164.63 203.643 163.981C203.653 163.888 203.657 163.795 203.667 163.703C203.781 162.635 203.916 161.567 204.052 160.5C204.303 158.53 204.561 156.492 204.67 154.467C205.238 143.89 201.705 133.301 198.587 123.957L197.866 124.198ZM180.485 115.94L184.616 121.576C186.501 124.15 188.452 126.811 189.933 129.682C192.532 134.715 193.718 140.416 194.862 145.931L195.194 147.53C196.709 154.734 198.513 161.898 200.544 169.003C200.718 168.697 200.896 168.393 201.079 168.091C199.134 161.234 197.4 154.322 195.938 147.373L195.603 145.779C194.448 140.213 193.252 134.458 190.606 129.335C189.097 126.41 187.13 123.724 185.225 121.126L181.095 115.491L180.485 115.94ZM170.305 188.762C170.493 188.57 170.679 188.375 170.869 188.189C168.593 186.84 166.347 185.427 164.196 183.875C154.186 176.65 147.045 167.811 143.544 158.313L142.829 158.576C146.385 168.218 153.619 177.181 163.752 184.494C165.872 186.021 168.071 187.428 170.305 188.762ZM238.368 116.421C238.956 124.878 238.573 131.575 237.159 137.5C234.37 149.194 227.19 159.262 220.245 168.998C216.265 174.579 212.212 180.292 208.912 186.365C209.047 186.663 209.189 186.952 209.319 187.268C212.648 181.035 216.784 175.164 220.865 169.444C227.851 159.648 235.076 149.518 237.9 137.681C239.331 131.678 239.721 124.907 239.128 116.37L238.368 116.421ZM230.403 131.626C230.26 131.568 230.122 131.5 229.99 131.423C229.094 142.558 224.38 152.896 219.771 161.658C218.416 164.233 216.984 166.834 215.6 169.347C212.928 174.199 210.207 179.157 207.843 184.282C208.007 184.559 208.161 184.85 208.316 185.141C210.724 179.852 213.511 174.723 216.266 169.718C217.653 167.201 219.086 164.598 220.444 162.016C225.06 153.245 229.777 142.893 230.729 131.709C230.62 131.679 230.513 131.664 230.403 131.626L230.403 131.626ZM242.864 131.196C241.655 136.337 239.429 141.296 237.201 145.888C231.074 158.511 223.923 170.606 215.822 182.054L215.246 182.864C214.446 183.987 213.64 185.127 212.867 186.29C213.294 186.114 213.718 185.928 214.146 185.755C214.712 184.929 215.291 184.115 215.864 183.308L216.442 182.494C224.569 171.014 231.741 158.883 237.886 146.223C240.131 141.592 242.379 136.588 243.605 131.372C244.789 126.344 245.04 121.116 245.283 116.06L244.53 115.962L244.419 116.5L244.498 116.517C244.268 121.382 243.994 126.398 242.865 131.197L242.864 131.196ZM239.418 157.521C245.839 147.915 252.743 136.385 255.274 123.707L254.528 123.554C252.024 136.103 245.165 147.552 238.788 157.096C237.288 159.338 235.758 161.563 234.228 163.791C230.034 169.898 225.735 176.167 222.094 182.777C222.453 182.651 222.811 182.524 223.172 182.399C226.708 176.094 230.83 170.085 234.854 164.225C236.387 161.995 237.917 159.766 239.418 157.521ZM223.789 138.888C221.316 149.298 217.707 159.401 213.029 169.016C211.782 171.58 210.433 174.158 209.127 176.652C208.182 178.454 207.24 180.28 206.313 182.122C206.49 182.335 206.675 182.543 206.841 182.766C207.813 180.826 208.808 178.905 209.8 177.007C211.108 174.507 212.459 171.925 213.713 169.35C218.314 159.896 221.885 149.971 224.365 139.746L224.396 139.752L224.532 139.049L223.789 138.888ZM247.894 132.634C243.755 147.098 234.975 159.797 226.486 172.083C224.133 175.486 221.7 179.005 219.407 182.503C219.04 183.063 218.695 183.597 218.359 184.128C218.761 183.976 219.159 183.817 219.563 183.668C219.725 183.42 219.875 183.182 220.043 182.927C222.331 179.434 224.761 175.919 227.112 172.52C235.638 160.186 244.453 147.432 248.628 132.851C250.982 124.646 251.803 116.073 251.049 107.563L250.293 107.627C251.037 116.043 250.224 124.52 247.896 132.633L247.894 132.634ZM219.083 146.229C216.634 156.478 211.954 166.161 207.431 175.528C206.607 177.233 205.785 178.953 204.965 180.69C205.161 180.874 205.361 181.056 205.546 181.248C206.397 179.439 207.253 177.643 208.114 175.861C212.656 166.459 217.353 156.737 219.822 146.409L219.083 146.229ZM257.954 117.352C258.866 124.723 256.336 132.092 253.739 138.327C250.433 146.317 246.376 153.972 241.624 161.191C240.031 163.594 238.324 165.989 236.672 168.306C233.965 172.101 231.227 176.004 228.837 180.106C228.881 180.079 228.919 180.047 228.964 180.022C229.372 179.798 229.769 179.559 230.171 179.326C232.381 175.673 234.852 172.17 237.29 168.75C238.946 166.429 240.658 164.027 242.256 161.613C247.037 154.355 251.117 146.656 254.442 138.621C257.077 132.294 259.645 124.806 258.709 117.258L257.954 117.352ZM201.056 177.858C202.049 176.003 202.922 174.086 203.669 172.119L202.956 171.853C202.224 173.78 201.369 175.659 200.396 177.477C200.63 177.601 200.841 177.73 201.056 177.858ZM203.565 179.509C206.923 172.484 210.368 165.224 212.206 157.53L211.468 157.348C209.661 164.917 206.265 172.097 202.944 179.042C203.159 179.195 203.359 179.354 203.565 179.509ZM174.804 160.236C176.504 162.318 178.381 164.297 180.195 166.211L181.491 167.582C184.109 170.366 186.655 173.246 189.173 176.145C189.366 176.058 189.561 175.972 189.785 175.883C190.084 175.767 190.395 175.686 190.713 175.641C187.333 170.362 184.174 164.943 181.093 159.586C179.837 157.402 178.584 155.221 177.316 153.053C174.94 148.992 172.36 144.715 169.217 140.912C167.057 138.387 164.773 135.971 162.372 133.674L153.11 124.513L152.578 125.056L161.84 134.217C164.146 136.497 166.529 138.853 168.632 141.398C171.739 145.153 174.301 149.405 176.66 153.439C177.928 155.604 179.18 157.784 180.434 159.966C183.45 165.21 186.525 170.523 189.819 175.705C187.275 172.778 184.69 169.873 182.045 167.061L180.747 165.689C178.942 163.786 177.076 161.817 175.393 159.757C172.92 156.612 170.617 153.338 168.495 149.946C164.626 144.005 160.626 137.86 154.87 133.556L154.414 134.167C160.061 138.388 164.024 144.476 167.856 150.363C169.994 153.776 172.313 157.072 174.804 160.236ZM184.811 126.353L184.239 126.855C187.475 130.561 189.766 135.469 191.243 141.859C192.08 145.473 192.59 149.221 193.081 152.844C193.336 154.711 193.597 156.642 193.901 158.532C194.594 162.792 195.518 167.011 196.67 171.17C192.741 163.063 189.39 153.706 186.509 142.816L186.348 142.211C185.652 139.577 184.935 136.852 183.692 134.366C182.573 132.285 181.275 130.305 179.811 128.451L172.707 118.897L172.098 119.352L179.206 128.911C180.641 130.729 181.914 132.669 183.012 134.709C184.218 137.124 184.928 139.809 185.613 142.406L185.774 143.013C189.064 155.445 192.965 165.895 197.643 174.773C197.826 174.429 198.005 174.087 198.213 173.756C196.684 168.728 195.494 163.603 194.651 158.416C194.349 156.533 194.087 154.608 193.834 152.746C193.34 149.106 192.829 145.339 191.985 141.692C190.479 135.173 188.132 130.158 184.811 126.353ZM251.122 96.812C249.289 96.2888 247.345 96.3181 245.531 96.8963C242.174 98.0505 240.173 101.105 238.251 104.399L221.769 132.605C218.565 138.087 215.223 143.641 211.991 149.011C206.666 157.859 201.214 166.96 196.109 176.157C196.612 176.299 197.102 176.459 197.587 176.629C202.636 167.547 208.028 158.55 213.293 149.802C216.527 144.427 219.874 138.869 223.081 133.377L239.563 105.171C240.853 102.963 242.172 100.873 243.895 99.5202C244.534 99.0091 245.256 98.6097 246.028 98.339C247.56 97.8639 249.199 97.8461 250.743 98.2877C256.022 99.6687 259.275 104.646 260.558 108.843C262.105 113.898 261.762 119.454 261.317 124.265C260.398 134.231 258.514 147.028 252.041 157.641C246.977 165.943 239.099 173.064 228.626 178.813C222.244 182.314 215.497 184.972 209.264 187.146C209.453 187.599 209.633 188.084 209.812 188.573C216.093 186.378 222.901 183.693 229.358 180.149C233.073 178.13 236.616 175.808 239.951 173.208C245.261 169.129 249.795 164.127 253.338 158.439C259.972 147.561 261.896 134.539 262.83 124.41C263.287 119.454 263.64 113.72 262.011 108.399C260.218 102.541 256.045 98.1023 251.12 96.8128L251.122 96.812ZM170.858 103.316C166.403 104.092 162.404 106.174 158.537 108.189L145.822 114.808C144.018 115.745 141.975 116.807 140.432 118.449C138.56 120.436 137.586 123.109 136.803 125.256C132.827 136.163 128.67 148.877 129.674 161.743C130.772 175.799 138.519 187.651 149.408 191.938C156.352 194.672 161.816 193.205 167.6 191.65C167.782 191.601 167.969 191.552 168.154 191.504C168.301 191.122 168.508 190.767 168.767 190.452C168.883 190.312 169.006 190.182 169.123 190.044C169.203 189.897 169.285 189.75 169.364 189.604C168.634 189.791 167.915 189.984 167.202 190.176C161.665 191.663 156.436 193.069 149.958 190.519C139.608 186.444 132.24 175.102 131.188 161.627C130.208 149.066 134.308 136.538 138.229 125.781C138.964 123.766 139.879 121.257 141.536 119.496C141.879 119.134 142.249 118.798 142.642 118.492C143.861 117.597 145.161 116.816 146.523 116.16L159.238 109.541C163.002 107.58 166.895 105.553 171.118 104.818C182.173 102.896 192.578 110.424 197.989 118.736C203.8 127.663 205.951 138.452 207.812 149.648C208.196 151.955 208.543 154.18 208.814 156.355C209.088 155.673 209.54 155.078 210.123 154.632C209.885 152.925 209.609 151.187 209.312 149.402C207.424 138.039 205.234 127.08 199.26 117.905C193.58 109.174 182.59 101.277 170.858 103.316ZM246.239 28.5735C244.267 26.7943 240.41 29.0398 237.48 31.2791C235.483 32.5476 233.378 34.8193 231.433 37.031C227.229 41.8625 223.568 47.1435 220.518 52.7789C214.909 63.0351 210.777 74.707 207.885 88.4556C205.216 101.159 203.857 114.247 202.593 126.961C202.799 127.266 202.956 127.601 203.06 127.954C203.118 128.174 203.197 128.388 203.26 128.607C203.324 128.779 203.378 128.956 203.422 129.134C203.542 129.527 203.655 129.921 203.783 130.31C203.831 129.826 203.883 129.342 203.931 128.857C205.243 115.641 206.599 101.975 209.375 88.7748C212.233 75.1728 216.315 63.6375 221.851 53.5139C224.848 47.9769 228.443 42.7877 232.572 38.0395C234.037 36.3051 235.645 34.6975 237.379 33.2338C238.666 32.222 239.918 31.5626 240.793 31.8612C241.718 32.1788 242.325 33.7888 242.504 36.3987C242.672 38.8706 241.917 41.3394 241.186 43.7249L209.957 145.485L211.411 145.937L242.639 44.179C243.375 41.777 244.208 39.0544 244.019 36.3004C243.794 33.0076 242.948 31.0996 241.435 30.4787C243.256 29.4809 244.635 29.1748 245.226 29.7067C245.889 30.3018 246.145 31.2989 246.394 32.4431C250.786 52.8397 255.74 75.9247 252.066 97.9133C252.579 98.0066 253.072 98.1909 253.52 98.4576C257.333 76.0939 252.318 52.7453 247.877 32.1256C247.645 31.0377 247.323 29.5495 246.239 28.5735ZM157.164 110.17C157.198 110.149 157.228 110.134 157.262 110.114C157.599 109.876 157.965 109.684 158.351 109.541C157.339 106.208 156.179 102.898 155.025 99.6909C153.672 95.9293 152.274 92.0406 151.174 88.1427C146.872 72.6867 146.915 56.3494 151.297 40.9349C151.372 40.5192 151.555 40.1308 151.827 39.808C152.192 39.5073 152.839 39.4774 153.847 39.7505C161.079 41.7169 167.656 46.9311 174.544 56.1601C187.416 73.4491 194.912 94.1523 196.091 115.67C196.658 116.225 197.187 116.818 197.672 117.446C196.828 94.9806 189.186 73.2884 175.759 55.2501C168.655 45.7324 161.817 40.3391 154.24 38.2788C153.256 38.012 151.877 37.745 150.813 38.6681C150.319 39.176 149.979 39.8143 149.834 40.5087C145.375 56.1966 145.33 72.8235 149.707 88.5542C150.822 92.5041 152.23 96.4183 153.591 100.205C154.777 103.5 155.976 106.9 156.999 110.309C157.061 110.264 157.101 110.209 157.164 110.17ZM167.86 213.987C159.57 225.753 148.516 235.291 135.673 241.763C131.848 243.757 127.801 245.29 123.614 246.329C109.507 249.6 94.9537 244.961 81.2571 239.93C77.0748 238.393 73.4041 236.889 70.8489 234.039C70.1731 233.286 69.099 231.813 69.4914 230.409C69.7575 229.714 70.1669 229.083 70.6928 228.557C80.9657 216.649 93.217 203.213 108.63 194.448C118.038 189.099 128.51 185.623 138.817 183.103L138.766 183.063C138.327 182.716 137.952 182.295 137.659 181.818C127.499 184.349 117.193 187.825 107.878 193.121C92.2521 202.003 79.8967 215.555 69.5411 227.557C68.8624 228.247 68.345 229.079 68.026 229.994C67.5913 231.556 68.1917 233.353 69.7192 235.057C72.5086 238.167 76.3601 239.753 80.7366 241.361C94.6503 246.472 109.446 251.181 123.961 247.813C128.264 246.748 132.425 245.175 136.356 243.127C141.634 240.471 146.633 237.291 151.278 233.636C153.098 232.207 154.869 230.703 156.592 229.125C161.319 224.77 165.564 219.917 169.255 214.651C168.767 214.482 168.299 214.258 167.861 213.984L167.86 213.987ZM81.2683 216.106C67.3409 211.869 52.6787 205.229 42.0488 193.394C41.1355 192.378 41.0159 191.879 41.0163 191.686C41.0858 191.596 41.1644 191.493 41.2485 191.378C42.2439 190.802 45.9366 191.141 47.2315 191.26C47.8652 191.318 48.4182 191.368 48.8282 191.383C53.5442 191.577 59.1367 191.789 64.8618 191.897C77.3054 192.134 87.4939 191.845 96.9242 190.991C98.3727 190.859 99.8203 190.713 101.268 190.567C105.794 190.108 110.474 189.634 115.079 189.66C115.505 189.663 115.933 189.689 116.359 189.7C116.69 189.423 117.066 189.206 117.471 189.058C118.27 188.769 119.034 188.526 119.785 188.325C118.218 188.222 116.648 188.144 115.082 188.135C110.398 188.11 105.676 188.587 101.11 189.05C99.6681 189.196 98.2255 189.342 96.7842 189.472C87.4104 190.323 77.2737 190.61 64.888 190.375C59.1765 190.267 53.5947 190.056 48.8863 189.863C48.4947 189.847 47.9661 189.798 47.3633 189.744C46.0125 189.597 44.655 189.526 43.2967 189.529C62.6166 180.98 82.6169 174.06 103.09 168.84C111.815 166.618 121.244 164.598 130.803 163.9C130.718 163.393 130.72 162.876 130.81 162.37C121.105 163.068 111.549 165.112 102.71 167.362C81.8367 172.684 61.4535 179.767 41.7785 188.534C41.27 188.754 40.8056 189.379 40.1955 190.229C40.172 190.263 40.1486 190.297 40.1244 190.329C39.9347 190.487 39.7798 190.683 39.6694 190.904C38.9909 192.267 40.4401 193.884 40.9167 194.415C51.6278 206.339 66.2714 213.074 80.2287 217.382C80.5032 216.902 80.8544 216.47 81.2685 216.104L81.2683 216.106ZM48.1899 161.465C48.8776 161.005 49.6569 160.701 50.4742 160.572C74.9302 155.328 100.098 154.222 124.937 157.3C126.812 157.531 128.698 157.795 130.575 158.115C130.449 157.644 130.393 157.158 130.406 156.671C130.409 156.628 130.41 156.585 130.413 156.542C128.647 156.248 126.877 156.002 125.118 155.785C100.112 152.686 74.7741 153.8 50.1531 159.079C49.2577 159.27 46.5334 159.85 46.1207 162.042C45.8321 163.568 46.8789 164.875 47.8239 165.843C53.0793 171.205 59.0966 175.758 65.6801 179.355C65.8645 179.25 66.058 179.161 66.2583 179.091C66.7294 178.933 67.2089 178.801 67.6946 178.697C60.7444 175.073 54.4048 170.376 48.9093 164.778C48.1804 164.032 47.4581 163.159 47.6143 162.332C47.692 161.98 47.8972 161.671 48.19 161.463L48.1899 161.465ZM120.319 96.9196C120.205 96.9004 120.092 96.8727 119.976 96.8539C104.159 94.2746 87.8041 96.4252 73.9203 102.915C72.7654 103.452 71.5827 104.07 70.867 105.22C70.392 106.091 70.1172 107.058 70.0628 108.05C68.1577 124.763 72.2008 141.626 81.4799 155.67C81.8022 155.597 82.1326 155.565 82.4631 155.575L83.2593 155.6C73.819 141.716 69.6708 124.902 71.5724 108.232C71.6068 107.463 71.8062 106.711 72.157 106.028C72.6479 105.236 73.6149 104.738 74.5639 104.295C88.177 97.9355 104.22 95.8303 119.739 98.3583C120.261 98.4435 120.78 98.5615 121.3 98.6566C120.816 98.1819 120.476 97.5796 120.319 96.9196ZM141.052 95.7836C137.242 93.86 133.544 91.6843 129.935 89.56C129.479 89.2911 128.613 88.6756 127.612 87.9616C124.086 85.4508 121.152 83.4438 119.309 83.0146C119.458 82.8966 119.614 82.7874 119.776 82.6876C121.484 81.6424 123.758 81.7933 125.753 82.0161C128.814 82.3595 131.857 82.8586 134.869 83.5115C134.623 82.9341 134.387 82.379 134.152 81.8228C131.421 81.2657 128.674 80.8066 125.919 80.5025C123.675 80.2527 121.103 80.0942 118.986 81.3871C118.342 81.7791 117.777 82.2879 117.319 82.8874C117.319 82.8874 116.654 83.9022 116.327 84.5268C115.152 86.7714 115.957 90.5559 116.534 92.0369C117.367 94.1787 118.671 96.0696 119.934 97.8966C120.712 99.0237 121.517 100.19 122.184 101.383C123.465 103.671 124.343 106.234 125.191 108.712C125.998 111.318 127.036 113.847 128.295 116.268C130.652 120.309 133.725 123.886 137.364 126.822C137.469 126.33 137.646 125.856 137.891 125.417C137.908 125.387 137.929 125.361 137.947 125.331C134.616 122.58 131.797 119.26 129.621 115.525C128.348 113.245 127.474 110.69 126.629 108.22C125.758 105.677 124.858 103.048 123.51 100.64C122.806 99.3828 121.982 98.1874 121.183 97.0307C119.917 95.1937 118.72 93.459 117.953 91.4854C117.334 89.895 116.883 86.7576 117.676 85.2381C117.778 85.0295 117.923 84.8452 118.102 84.6975C118.252 84.5807 118.426 84.4985 118.611 84.4567C119.707 84.1983 124.632 87.7053 126.735 89.2036C127.81 89.9677 128.657 90.5715 129.171 90.8745C133.599 93.4834 138.175 96.1477 142.947 98.37C142.288 97.5532 141.651 96.6987 141.052 95.7828L141.052 95.7836ZM131.646 46.9594C130.035 46.717 127.741 46.5714 126.391 48.156C125.94 48.6831 125.865 49.613 125.862 50.6754C125.48 51.6328 125.314 52.966 125.332 54.7933C125.457 64.2704 127.988 73.5648 132.686 81.8005C133.647 83.497 134.62 85.3218 135.623 87.2025C139.226 93.9585 143.31 101.616 148.575 106.396C150.765 108.347 153.313 109.851 156.077 110.823C156.153 110.752 156.218 110.67 156.299 110.606L156.897 110.137C157.095 109.982 157.308 109.846 157.532 109.732C154.592 108.846 151.882 107.321 149.596 105.266C144.527 100.665 140.509 93.1325 136.963 86.4859C135.955 84.5943 134.975 82.7555 134.008 81.0512C129.439 73.0413 126.976 64.0025 126.852 54.7856C126.784 53.617 126.917 52.4459 127.244 51.3231C127.283 51.2568 127.313 51.1855 127.333 51.1111C127.446 50.8424 127.628 50.609 127.861 50.435C128.613 49.9091 130.121 50.1183 132.753 51.116C136.354 52.4793 139.848 55.1546 142.857 58.8526C144.606 61.0652 146.179 63.4118 147.561 65.8706C147.55 65.7385 147.523 65.6117 147.516 65.4786C147.484 64.681 147.537 63.8825 147.673 63.0964C146.573 61.2845 145.358 59.5454 144.034 57.89C140.854 53.9834 137.138 51.1478 133.286 49.6897C130.885 48.7807 129.261 48.4661 128.077 48.7183C128.792 48.3145 129.88 48.2358 131.425 48.469C137.265 49.3678 142.922 51.2131 148.174 53.9325C148.185 53.4068 148.196 52.8797 148.254 52.3392C148.256 52.312 148.264 52.2882 148.268 52.2616C143.037 49.6334 137.428 47.8439 131.646 46.9585L131.646 46.9594ZM163.817 191.514C163.851 191.494 163.89 191.482 163.923 191.46C157.221 188.982 150.607 186.117 145.602 181.09C140.512 175.941 137.575 169.04 137.395 161.801L136.634 161.816C136.819 169.252 139.836 176.34 145.066 181.629C150.052 186.636 156.547 189.52 163.153 191.985C163.36 191.809 163.582 191.651 163.816 191.513L163.817 191.514ZM143.665 171.124L142.992 171.479C146.997 179.085 153.365 185.18 161.13 188.841C162.585 189.524 164.088 190.114 165.598 190.662C165.964 190.514 166.331 190.37 166.709 190.247C164.922 189.636 163.167 188.937 161.45 188.151C153.835 184.56 147.591 178.582 143.665 171.123L143.665 171.124ZM145.994 188.993C145.74 188.823 145.493 188.637 145.245 188.452C139.911 190.264 134.279 191.323 128.788 192.346C121.135 193.772 113.219 195.248 106.154 198.769L106.493 199.454C113.462 195.978 121.327 194.514 128.929 193.097C134.62 192.032 140.461 190.928 145.994 188.992L145.994 188.993ZM142.247 185.679C133.691 187.883 125.104 190.277 116.667 192.833L116.889 193.564C125.443 190.971 134.15 188.547 142.825 186.318C142.63 186.115 142.439 185.895 142.247 185.679ZM133.992 200.548C131.362 201.288 128.644 202.05 126.013 202.954C116.166 206.332 107.019 211.862 99.3706 216.828L99.7851 217.468C107.395 212.529 116.492 207.028 126.261 203.676C128.873 202.779 131.581 202.018 134.199 201.284C136.209 200.719 138.287 200.135 140.314 199.492C146.469 197.456 152.486 195.024 158.328 192.211C157.719 192.231 157.117 192.226 156.525 192.207C151.185 194.731 145.695 196.922 140.084 198.766C138.07 199.403 135.998 199.985 133.992 200.548ZM109.692 214.947L109.907 215.679C120.604 212.486 131.663 209.184 142.108 204.7C151.219 200.79 158.89 196.389 165.386 191.352C164.843 191.446 164.301 191.541 163.752 191.628C157.556 196.258 150.321 200.344 141.809 204C131.406 208.465 120.369 211.759 109.694 214.946L109.692 214.947ZM167.999 192.008C166.166 193.615 164.251 195.128 162.263 196.539C155.362 201.42 147.761 205.036 140.566 208.322C129.75 213.259 118.028 218.26 105.608 221.35L105.795 222.09C118.274 218.984 130.033 213.971 140.883 209.016C148.109 205.715 155.747 202.082 162.703 197.164C163.724 196.441 164.728 195.692 165.713 194.918C166.175 194.555 166.618 194.17 167.071 193.795C167.365 193.246 167.664 192.699 167.967 192.155C167.977 192.105 167.99 192.055 168.001 192.007L167.999 192.008ZM164.028 201.123C164.23 200.295 164.483 199.479 164.784 198.682C144.528 214.985 118.655 225.663 89.5699 229.691L89.6753 230.446C116.989 226.664 141.486 217.018 161.193 202.4C155.543 206.842 149.738 211.156 143.844 215.472C141.359 217.292 138.542 219.353 135.654 221.091C130.991 223.9 125.614 226.225 119.214 228.198C113.628 229.922 107.91 231.186 102.117 231.979L102.221 232.734C108.055 231.935 113.814 230.662 119.44 228.926C125.898 226.936 131.331 224.585 136.047 221.745C138.964 219.989 141.797 217.917 144.293 216.088C150.15 211.798 155.929 207.519 161.548 203.104C162.385 202.45 163.205 201.784 164.03 201.122L164.028 201.123ZM145.583 229.925C149.007 227.235 152.212 224.309 155.222 221.472C157.858 218.986 160.642 216.289 163.152 213.407C163.833 212.624 164.489 211.814 165.14 211C165.009 210.762 164.887 210.511 164.77 210.252C164.055 211.153 163.329 212.043 162.579 212.906C160.092 215.764 157.322 218.444 154.701 220.916C150.5 224.878 145.919 229.009 140.905 232.411C131.704 238.64 121.084 242.447 110.02 243.483L110.091 244.242C121.283 243.195 132.025 239.344 141.331 233.043C142.788 232.057 144.204 231.01 145.586 229.925L145.583 229.925ZM142.133 223.894C144.381 222.128 146.548 220.272 148.683 218.446C153.641 214.2 158.662 209.89 163.606 205.452C163.588 205.116 163.584 204.782 163.591 204.449C158.492 209.037 153.302 213.484 148.185 217.866C143.585 221.804 138.826 225.88 133.46 228.874C127.513 232.19 121.031 234.154 113.135 236.081L113.315 236.822C121.275 234.88 127.81 232.898 133.83 229.541C136.741 227.878 139.518 225.991 142.135 223.894L142.133 223.894ZM165.837 212.089C165.777 212.166 165.724 212.25 165.665 212.328C157.624 222.897 147.022 232.488 133.249 241.661L133.67 242.296C137.571 239.7 141.223 237.065 144.626 234.393C153.317 227.567 160.457 220.433 166.269 212.793C166.292 212.762 166.313 212.729 166.337 212.698C166.166 212.507 166 212.306 165.84 212.09L165.837 212.089ZM125.558 198.352C127.426 198.046 129.359 197.728 131.252 197.366C138.134 196.044 144.87 194.062 151.37 191.448C150.984 191.341 150.602 191.222 150.224 191.092C144.034 193.518 137.634 195.368 131.104 196.618C129.221 196.979 127.293 197.295 125.429 197.6C121.935 198.171 118.322 198.764 114.833 199.675C111.233 200.617 107.732 201.899 104.376 203.506L104.707 204.193C108.018 202.607 111.474 201.342 115.026 200.414C118.489 199.513 122.084 198.922 125.56 198.352L125.558 198.352ZM117.99 202.626C122.901 200.943 128.055 199.73 133.038 198.557L134.324 198.255C141.558 196.547 148.632 194.74 155.334 192.138C154.784 192.094 154.242 192.03 153.706 191.948C147.447 194.261 140.867 195.926 134.148 197.516L132.861 197.819C127.861 198.996 122.689 200.213 117.743 201.907C113.42 203.396 109.226 205.234 105.202 207.405C101.759 209.255 98.4414 211.33 95.2705 213.616L95.7174 214.237C98.8612 211.971 102.15 209.914 105.562 208.078C109.551 205.925 113.709 204.102 117.995 202.625L117.99 202.626ZM130.378 154.469C121.691 148.826 113.768 141.93 106.069 135.194C99.8465 129.751 93.4105 124.123 86.6253 119.21L86.1822 119.827C92.9423 124.719 99.363 130.336 105.571 135.767C113.369 142.588 121.395 149.577 130.229 155.277C130.281 155.008 130.331 154.739 130.38 154.469L130.378 154.469ZM89.13 155.491C89.1871 155.461 89.2501 155.439 89.3095 155.414C88.0399 153.797 86.7921 152.178 85.5757 150.593L79.5481 142.72L78.9446 143.182L84.9726 151.055C86.1159 152.549 87.2862 154.069 88.4779 155.591C88.6967 155.56 88.9163 155.516 89.1327 155.492L89.13 155.491ZM101.039 147.416C102.261 148.821 103.524 150.272 104.836 151.644C105.831 152.683 106.865 153.685 107.938 154.648C108.354 154.672 108.767 154.697 109.179 154.722C107.862 153.574 106.59 152.374 105.384 151.112C104.086 149.755 102.828 148.311 101.612 146.913C100.576 145.723 99.5041 144.491 98.407 143.314C92.6375 137.115 85.7985 132.012 78.2205 128.25L77.8848 128.934C85.3807 132.654 92.1455 137.702 97.8521 143.833C98.942 145.006 100.007 146.231 101.039 147.416ZM130.946 151.403C122.51 146.327 114.622 140.385 107.41 133.675C104.557 130.997 101.764 128.136 99.0638 125.369C93.1769 119.339 87.0905 113.101 79.9635 108.355L79.5451 108.991C86.604 113.692 92.6624 119.901 98.5208 125.902C101.227 128.675 104.025 131.542 106.891 134.23C114.212 141.043 122.226 147.067 130.799 152.203L130.946 151.403ZM94.7849 154.579C87.8401 148.925 82.0193 142.012 77.628 134.202L76.9637 134.572C81.2701 142.236 86.9419 149.045 93.6973 154.662C94.0564 154.627 94.4215 154.604 94.7844 154.577L94.7849 154.579ZM103.755 144.886C107.39 148.516 111.227 151.937 115.248 155.131L116.609 155.221C112.278 151.858 108.163 148.224 104.288 144.342C102.347 142.438 100.434 140.499 98.5189 138.562C92.3689 132.334 86.0094 125.895 78.8109 120.671L78.368 121.289C85.5151 126.475 91.8532 132.892 97.9815 139.096C99.8958 141.038 101.813 142.977 103.755 144.884L103.755 144.886ZM84.1093 133.752L83.452 134.136C88.0281 141.885 93.9594 148.748 100.961 154.394C101.361 154.398 101.759 154.394 102.159 154.403C94.9172 148.699 88.7959 141.695 84.1088 133.75L84.1093 133.752ZM124.138 155.944C124.708 156.027 125.274 156.121 125.84 156.225C119.206 151.5 113.106 145.953 107.159 140.512C99.8504 133.827 92.294 126.914 83.7893 121.607L83.3908 122.253C91.8341 127.524 99.365 134.413 106.648 141.075C112.235 146.184 117.955 151.398 124.138 155.943L124.138 155.944ZM131.267 149.641C131.316 149.37 131.367 149.098 131.416 148.828C126.337 145.5 121.528 141.777 117.032 137.693C107.661 129.249 99.3438 119.494 91.3 110.062L90.7225 110.558C98.7832 120.008 107.114 129.781 116.524 138.258C121.126 142.442 126.056 146.248 131.266 149.639L131.267 149.641ZM120.157 113.505C126.453 116.769 131.957 121.383 136.276 127.018C136.362 126.73 136.45 126.441 136.543 126.145C132.208 120.607 126.738 116.065 120.503 112.828C117.812 111.443 114.957 110.299 112.197 109.192C108.379 107.658 104.427 106.074 100.909 103.848L100.504 104.492C104.082 106.756 108.063 108.354 111.917 109.898C114.66 110.998 117.498 112.137 120.156 113.503L120.157 113.505ZM126.965 112.012C126.665 111.842 126.386 111.66 126.081 111.492C118.663 107.427 110.299 104.523 103.579 102.191L103.331 102.909C110.024 105.232 118.355 108.123 125.717 112.158C126.343 112.501 126.923 112.867 127.527 113.221C127.32 112.826 127.141 112.419 126.965 112.011L126.965 112.012ZM125.651 106.548C120.371 104.05 114.874 102.045 109.229 100.558L109.031 101.293C114.765 102.8 120.343 104.85 125.692 107.415C125.657 107.13 125.666 106.835 125.651 106.547L125.651 106.548ZM116.089 120.584C123.027 124.402 128.816 130.171 133.96 136.031C134.031 135.725 134.094 135.419 134.164 135.114C129.067 129.346 123.33 123.7 116.453 119.916C114.782 118.995 113.012 118.167 111.3 117.363C107.308 115.492 103.179 113.558 100.126 110.369L99.5789 110.898C102.728 114.187 106.924 116.152 110.981 118.054C112.681 118.853 114.44 119.677 116.089 120.584ZM112.799 113.252C121.083 118.438 128.194 125.19 134.85 132.286C134.926 131.991 134.991 131.698 135.067 131.404C128.473 124.402 121.419 117.749 113.203 112.606C107.659 109.135 101.63 106.397 95.7991 103.746L92.2567 102.137L91.9447 102.832L95.4877 104.442C101.297 107.082 107.302 109.811 112.801 113.254L112.799 113.252ZM126.638 135.809C128.627 137.825 130.648 139.854 132.739 141.801C132.796 141.509 132.859 141.217 132.917 140.925C130.957 139.083 129.054 137.172 127.178 135.274C126.028 134.11 124.881 132.949 123.724 131.81C114.647 122.87 104.585 114.993 93.7327 108.332L93.3377 108.983C104.14 115.614 114.156 123.454 123.192 132.353C124.349 133.495 125.492 134.652 126.639 135.812L126.638 135.809ZM131.853 146.44C131.905 146.158 131.957 145.874 132.009 145.592C130.853 144.638 129.735 143.635 128.633 142.641L103.732 120.191L103.224 120.757L128.126 143.206C129.303 144.27 130.542 145.383 131.854 146.444L131.853 146.44ZM170.934 68.8836C171.721 71.9097 171.98 75.103 172.23 78.1908L172.295 78.9964C172.689 83.7968 173.199 88.6465 173.814 93.4104C174.282 97.0388 174.798 100.408 175.446 103.598C175.71 103.608 175.972 103.632 176.234 103.652C175.571 100.421 175.043 97.0049 174.568 93.3144C173.955 88.5624 173.445 83.7243 173.053 78.9345L172.988 78.1304C172.735 75.0098 172.475 71.7825 171.671 68.692C170.608 64.6174 168.629 60.8485 166.717 57.2064L166.044 57.5607C167.937 61.165 169.895 64.8936 170.934 68.8836ZM185.291 106.167C182.43 91.3695 179.459 76.0773 173.86 61.7674L173.152 62.0428C178.66 76.1205 181.618 91.1821 184.442 105.784C184.725 105.906 185.008 106.034 185.292 106.167L185.291 106.167ZM172.846 103.645C173.105 103.626 173.364 103.62 173.623 103.609C172.346 98.3276 171.523 92.9008 170.723 87.5652C169.281 77.944 167.792 67.9956 163.637 59.0967C163.098 57.9423 162.506 56.7874 161.935 55.674C160.518 52.9113 159.052 50.0521 158.313 47.0214L157.574 47.2002C158.337 50.3217 159.823 53.2192 161.26 56.0203C161.828 57.1308 162.416 58.2773 162.95 59.4174C167.056 68.2174 168.538 78.1096 169.971 87.6751C170.766 92.9831 171.583 98.3802 172.847 103.645L172.846 103.645ZM163.912 66.7082L163.235 67.0578C166.238 72.8662 166.757 79.6237 167.26 86.1599C167.75 92.5284 168.253 98.4277 169.147 104.196C169.396 104.139 169.643 104.083 169.893 104.034C169.006 98.3051 168.505 92.4381 168.017 86.1026C167.509 79.4915 166.985 72.6549 163.912 66.7082ZM176.028 76.8275L175.31 77.0763C177.559 83.5368 178.171 90.5167 178.763 97.2664C178.962 99.5306 179.164 101.826 179.428 104.119C179.614 104.161 179.806 104.179 179.99 104.227C180.063 104.246 180.141 104.271 180.215 104.291C179.937 101.918 179.726 99.5445 179.521 97.2016C178.924 90.4048 178.307 83.3771 176.028 76.8275ZM187.231 86.0588C189.132 89.6204 190.142 93.5899 190.173 97.6254C190.206 98.1248 190.236 98.6237 190.273 99.1212C190.505 102.221 190.978 105.341 191.438 108.365L191.718 110.214C192.024 110.474 192.319 110.742 192.608 111.016L192.188 108.246C191.732 105.244 191.261 102.138 191.033 99.0674C190.996 98.5746 190.964 98.0757 190.933 97.5808C190.894 93.4535 189.862 89.3944 187.924 85.7482C187.235 84.2835 186.622 82.7842 186.088 81.2562L185.365 81.4938C185.908 83.0467 186.53 84.5705 187.23 86.059L187.231 86.0588ZM180.523 69.0012L179.792 69.208L180.992 73.4343L187.978 107.582C188.277 107.758 188.573 107.938 188.866 108.125L181.856 73.864L181.902 73.8532L181.594 72.5807L181.544 72.5917L180.523 69.0012ZM160.976 107.818C157.413 97.0943 154.745 86.0936 153.002 74.9301L152.252 75.0453C154.013 86.3238 156.715 97.4365 160.328 108.267C160.536 108.108 160.762 107.97 160.976 107.818ZM163.936 87.4332C164.005 90.4854 164.078 93.6406 164.332 96.7221C164.584 99.6134 165 102.488 165.577 105.333C165.816 105.237 166.054 105.139 166.297 105.051C165.739 102.278 165.336 99.4772 165.09 96.6605C164.837 93.6028 164.765 90.4583 164.694 87.4169C164.544 80.8257 164.388 74.0125 162.387 67.6151C161.57 65.1593 160.62 62.7495 159.542 60.3962L155.939 52.1436L155.242 52.4483L158.845 60.7009C159.912 63.0281 160.852 65.4111 161.662 67.8396C163.632 74.1353 163.787 80.8964 163.936 87.4332ZM160.801 94.1265C161.281 98.3095 162.011 102.46 162.987 106.557C163.216 106.431 163.446 106.309 163.679 106.191C162.734 102.184 162.025 98.1245 161.555 94.0349C161.271 91.7398 161.03 89.4391 160.788 87.1363C160.226 81.8141 159.646 76.3105 158.562 70.9702C157.739 66.9202 156.626 62.9342 155.232 59.043L154.516 59.2983C155.898 63.1551 157.001 67.1061 157.816 71.1207C158.895 76.4242 159.472 81.9101 160.031 87.2157C160.275 89.5208 160.519 91.8281 160.801 94.1265ZM144.677 109.866C145.573 111.349 146.481 112.86 147.46 114.331C147.672 114.188 147.884 114.048 148.095 113.911C147.124 112.448 146.218 110.95 145.327 109.473C143.895 106.987 142.32 104.588 140.609 102.286C137.524 98.3182 133.668 95.0187 129.274 92.5885L128.91 93.255C133.212 95.6347 136.988 98.8652 140.008 102.75C141.701 105.029 143.26 107.405 144.677 109.866ZM132.871 99.073C134.875 101.167 136.454 103.674 137.98 106.101L144.46 116.4C144.666 116.253 144.872 116.106 145.081 115.96L138.623 105.694C137.076 103.237 135.477 100.695 133.418 98.545C131.689 96.8379 129.822 95.2775 127.835 93.8798L124.024 91.0417L123.572 91.6543L127.395 94.5004C129.343 95.8705 131.175 97.3999 132.871 99.073ZM151.318 112.146C147.415 107.719 143.749 103.09 140.333 98.2763L139.712 98.718C143.096 103.487 146.725 108.076 150.584 112.468C150.823 112.352 151.07 112.251 151.317 112.149L151.318 112.146ZM131.391 100.486C134.569 106.622 138.185 112.52 142.212 118.135C142.405 117.971 142.603 117.813 142.8 117.652C138.807 112.08 135.221 106.226 132.07 100.136L131.391 100.486ZM140.567 119.724C137.804 115.66 135.305 111.421 133.086 107.035L132.635 106.136C131.684 104.066 130.535 102.092 129.204 100.243C128.206 99.0064 127.128 97.8376 125.976 96.744C124.205 94.9853 122.529 93.3254 121.475 91.1891L120.794 91.5273C121.905 93.7758 123.704 95.5597 125.442 97.2847C126.57 98.3546 127.626 99.498 128.603 100.707C129.903 102.518 131.025 104.449 131.955 106.475L132.406 107.375C134.669 111.853 137.223 116.179 140.05 120.324C140.216 120.121 140.387 119.92 140.565 119.725L140.567 119.724ZM138.564 122.609C136.943 120.548 135.47 118.375 134.155 116.107C131.626 111.864 129.316 107.494 127.233 103.015L126.545 103.336C128.638 107.839 130.961 112.232 133.503 116.498C134.899 118.914 136.476 121.22 138.222 123.396C138.329 123.13 138.436 122.861 138.561 122.609L138.564 122.609ZM145.826 64.6531C146.261 65.2951 146.678 65.9551 147.102 66.608C147.096 66.1469 147.095 65.6836 147.101 65.2181C146.882 64.8893 146.674 64.5511 146.453 64.2263C144.901 61.9389 143.165 59.5502 140.999 57.5871C138.693 55.4977 135.971 53.9435 133.335 52.4411L132.961 53.1025C135.561 54.5854 138.249 56.1187 140.493 58.1516C142.594 60.0616 144.298 62.4059 145.826 64.6531ZM147.276 70.2372C144.679 65.2564 141.335 60.7033 137.36 56.7373L136.826 57.278C141.212 61.65 144.819 66.7422 147.489 72.3329C147.405 71.6391 147.334 70.9408 147.274 70.2379L147.276 70.2372ZM138.947 63.3661C142.537 67.5978 144.825 72.8244 147.038 77.8803C147.912 79.8733 148.803 81.895 149.776 83.8796C149.461 82.6429 149.161 81.4043 148.878 80.1639C148.491 79.2992 148.11 78.4348 147.734 77.576C145.498 72.4694 143.187 67.1918 139.526 62.8733C139.129 62.405 138.716 61.9486 138.304 61.4923C137.348 60.4915 136.477 59.4117 135.702 58.2644L135.061 58.6732C135.859 59.8565 136.755 60.9702 137.74 62.0027C138.147 62.4541 138.553 62.9041 138.945 63.3668L138.947 63.3661ZM130.344 56.0359C131.546 58.9074 133.207 61.5994 134.812 64.2024C136.668 67.211 138.587 70.3218 139.77 73.6827C140.307 75.2154 140.704 76.8285 141.085 78.3886C141.273 79.152 141.46 79.9161 141.666 80.6755C144.186 89.8804 149.097 98.2555 155.899 104.945C155.762 104.537 155.683 104.112 155.663 103.682C149.346 97.1994 144.781 89.2125 142.399 80.4772C142.196 79.7238 142.01 78.9662 141.822 78.2078C141.436 76.6307 141.035 74.9982 140.484 73.431C139.274 69.9926 137.333 66.8462 135.456 63.8016C133.867 61.2234 132.221 58.5571 131.043 55.7407L130.344 56.0359ZM143.253 77.0854C143.507 77.7139 143.752 78.3452 143.996 78.978C144.469 80.1981 144.958 81.4557 145.503 82.6713C146.801 85.4203 148.261 88.0891 149.878 90.6634L152.812 95.5621C152.771 95.3392 152.711 95.1224 152.676 94.8972C152.525 94.2908 152.372 93.6873 152.215 93.0867L150.528 90.2733C148.929 87.7242 147.483 85.0819 146.198 82.3606C145.659 81.1629 145.174 79.9127 144.705 78.703C144.46 78.0683 144.213 77.4327 143.958 76.801C141.967 71.9397 139.562 67.2585 136.769 62.8094L136.125 63.2092C138.893 67.6221 141.278 72.2647 143.253 77.0856L143.253 77.0854ZM157.307 108.374C157.234 108.253 157.174 108.127 157.11 108.001C156.805 107.75 156.493 107.501 156.194 107.249C153.964 105.369 151.692 103.448 149.627 101.331C150.649 102.336 151.74 103.328 152.882 104.349C154.151 105.518 155.496 106.601 156.909 107.59C156.709 107.157 156.536 106.713 156.37 106.261C155.309 105.452 154.302 104.597 153.389 103.781C150.38 101.091 147.735 98.615 145.82 95.5681C143.74 92.2581 142.628 88.379 141.552 84.6272C140.465 80.8272 139.339 76.8988 137.204 73.497C136.284 72.0949 135.282 70.7477 134.205 69.4624C132.819 67.7437 131.388 65.9661 130.406 63.9756L129.724 64.314C130.744 66.3793 132.203 68.1897 133.615 69.9413C134.673 71.2032 135.657 72.5263 136.561 73.9038C138.638 77.2125 139.748 81.0871 140.823 84.8366C141.526 87.4995 142.405 90.1131 143.453 92.6599C142.868 91.5175 142.312 90.3613 141.769 89.2162C140.984 87.5674 140.174 85.8623 139.518 84.135C139.358 83.7187 139.206 83.2979 139.055 82.8788C138.61 81.5198 138.042 80.204 137.358 78.9478C136.787 78.0211 136.153 77.1342 135.461 76.2935C134.397 74.9366 133.39 73.6549 132.891 72.1032L132.167 72.3345C132.709 74.0174 133.805 75.4141 134.865 76.7644C135.535 77.5778 136.149 78.4359 136.702 79.3328C137.361 80.5486 137.91 81.8215 138.34 83.1359C138.494 83.5612 138.647 83.9858 138.806 84.4064C139.478 86.1614 140.296 87.8835 141.089 89.5548C142.286 92.2549 143.696 94.8556 145.305 97.3319C148.142 101.451 151.988 104.694 155.708 107.831C156.238 108.278 156.78 108.727 157.333 109.168L157.646 108.954C157.529 108.764 157.411 108.572 157.306 108.374L157.307 108.374ZM210.077 114.904C208.226 121.326 206.783 127.859 205.757 134.466C205.944 135.015 206.131 135.564 206.303 136.118C207.003 131.095 207.968 126.113 209.196 121.193C208.416 127.025 207.734 132.853 207.065 138.642C207.249 139.287 207.432 139.93 207.606 140.571L207.714 139.63C208.655 131.49 209.609 123.265 210.821 115.07C213.506 105.59 216.848 96.2771 220.136 87.1207C223.371 78.113 226.714 68.8011 229.38 59.4891L228.648 59.2759C225.994 68.564 222.652 77.8649 219.421 86.8603C216.757 94.2733 214.066 101.795 211.705 109.427C214.424 92.9467 218.452 76.6869 225.875 61.5788C226.519 60.2656 227.19 58.9618 227.861 57.6587C229.993 53.5143 232.197 49.2295 233.528 44.6704L232.798 44.4556C231.488 48.9416 229.299 53.1932 227.185 57.3046C226.511 58.6142 225.838 59.9233 225.191 61.2389C216.884 78.1474 212.812 96.4585 210.077 114.904ZM204.413 130.779C205.554 126.033 206.643 121.246 207.671 116.497C207.184 120.371 206.639 124.256 205.938 128.059C205.804 128.783 205.665 129.511 205.525 130.236C205.386 130.962 205.245 131.707 205.109 132.448C205.14 132.566 205.184 132.674 205.206 132.798C205.353 133.201 205.47 133.615 205.61 134.021C205.818 132.799 206.041 131.583 206.272 130.383C206.413 129.655 206.551 128.927 206.686 128.199C207.88 121.728 208.645 115.029 209.38 108.55C213.25 90.4851 217.345 71.8947 224.758 54.7595L224.061 54.4554C217.665 69.2351 213.742 85.072 210.302 100.719C211.736 89.2457 213.737 77.718 218.668 67.2867L217.982 66.9585C211.88 79.8669 210.228 94.3762 208.633 108.408L208.634 108.41C208.51 108.988 208.384 109.57 208.26 110.146C206.89 116.549 205.475 123.121 203.928 129.612C204.092 130 204.253 130.389 204.413 130.779ZM228.604 72.0362C232.904 61.2929 237.349 50.1834 236.923 38.5583L236.162 38.5824C236.582 50.0475 232.168 61.0797 227.898 71.7493C227.365 73.0781 226.838 74.4038 226.316 75.7265C217.743 97.5347 211.698 120.262 208.299 143.462C208.577 144.735 208.822 146.005 209.014 147.271C209.484 144.272 210.113 141.293 210.855 138.337C210.494 142.817 210.416 147.315 210.622 151.806C210.785 151.401 211.032 151.036 211.347 150.735C211.15 145.078 211.393 139.415 212.074 133.797C213.241 129.698 214.552 125.639 215.853 121.632C218.034 114.92 220.289 107.982 221.795 101.005L221.053 100.841C219.555 107.778 217.306 114.701 215.131 121.394C214.335 123.844 213.54 126.315 212.769 128.8C214.685 116.894 218.417 104.373 223.958 91.3406C224.522 90.0146 225.101 88.6909 225.679 87.3657C228.607 80.6582 231.633 73.7216 232.841 66.3881L232.09 66.2622C230.899 73.503 227.892 80.3922 224.983 87.058C224.403 88.3847 223.824 89.711 223.26 91.0409C216.918 105.95 212.94 120.203 211.326 133.641C210.66 135.981 210.058 138.336 209.518 140.708C212.967 118.559 218.837 96.8615 227.022 76.0079C227.542 74.6877 228.07 73.3639 228.604 72.0362ZM119.454 168.767C123.273 167.978 127.189 167.17 131.134 166.864C131.092 166.613 131.073 166.359 131.076 166.104C127.086 166.415 123.145 167.228 119.301 168.022L94.7165 173.096C91.7047 173.717 88.2936 174.423 85.5677 176.359L86.0099 176.982C88.6043 175.138 91.9348 174.45 94.8709 173.843L119.454 168.767ZM111.77 172.435C118.543 171.319 125.395 170.736 132.262 170.692C132.175 170.438 132.094 170.187 132.012 169.936C125.184 169.989 118.373 170.574 111.638 171.684C106.346 172.607 101.073 173.978 95.9723 175.302L75.6767 180.576L75.8702 181.314L96.1656 176.04C101.25 174.718 106.508 173.351 111.771 172.435L111.77 172.435ZM86.693 180.113L86.7563 180.875C93.0719 180.371 99.4473 179.256 105.612 178.175C114.942 176.542 124.555 174.875 134.102 175.315C133.981 175.054 133.87 174.791 133.755 174.528C124.254 174.145 114.728 175.805 105.479 177.425C99.3321 178.501 92.9737 179.614 86.693 180.113ZM122.634 186.823C108.157 185.547 93.5776 186.228 79.2897 188.849L79.4282 189.6C93.2096 187.073 107.265 186.359 121.239 187.475C121.704 187.249 122.169 187.029 122.634 186.823ZM133.776 183.962C118.84 182.08 105.659 181.913 93.6604 183.448L93.7587 184.204C104.838 182.787 116.951 182.846 130.523 184.357C131.6 184.169 132.687 184.037 133.778 183.961L133.776 183.962ZM129.644 184.55C122.429 184.422 115.197 184.473 108.088 184.556C105.495 184.587 102.813 184.619 100.158 184.718C90.1294 185.091 80.1608 186.421 70.3878 188.69L70.5608 189.433C80.2869 187.176 90.2074 185.851 100.188 185.478C102.835 185.381 105.51 185.349 108.183 185.317C114.328 185.245 120.595 185.19 126.872 185.258C127.794 184.98 128.719 184.744 129.646 184.549L129.644 184.55ZM78.8482 184.649C91.4016 182.002 104.05 181.006 116.985 180.138C122.87 179.744 129.789 179.297 136.675 179.945C136.498 179.683 136.335 179.409 136.166 179.139C129.417 178.563 122.683 178.991 116.932 179.376C103.968 180.246 91.2895 181.247 78.6896 183.902C77.3656 184.181 76.0428 184.479 74.7179 184.776C69.2218 186.01 63.5374 187.288 57.858 187.172L57.8443 187.933C63.6165 188.051 69.3456 186.764 74.8856 185.52C76.2061 185.223 77.5273 184.926 78.8482 184.649ZM206.945 216.76C208.825 214.853 210.15 212.263 211.114 208.606C213.031 201.24 212.726 193.466 210.238 186.263C209.618 184.278 208.636 182.425 207.343 180.796C205.115 178.184 201.866 176.857 199.286 175.995C197.124 175.274 194.277 174.491 191.418 174.847C188.366 175.228 185.595 176.869 183.369 178.185C175.149 183.057 166.87 188.578 163.795 197.771C162.934 200.345 161.144 205.7 162.58 209.52C163.904 213.039 167.987 215.629 170.944 217.273C175.211 219.646 180.391 221.075 186.782 221.644C192.809 222.181 197.497 221.704 201.536 220.145C203.063 219.574 204.496 218.781 205.79 217.789C206.196 217.471 206.582 217.127 206.945 216.76ZM184.145 179.5C186.823 177.914 189.072 176.675 191.609 176.359C194.165 176.042 196.799 176.772 198.808 177.442C201.203 178.241 204.206 179.459 206.188 181.787C207.356 183.271 208.243 184.957 208.803 186.761C211.191 193.676 211.484 201.139 209.644 208.211C208.75 211.601 207.549 213.976 205.863 215.685C204.468 217.029 202.806 218.064 200.984 218.721C197.17 220.194 192.7 220.639 186.912 220.124C180.738 219.575 175.755 218.207 171.676 215.94C168.932 214.413 165.148 212.033 164.001 208.986C162.759 205.674 164.431 200.666 165.236 198.259C166.985 193.03 170.583 189.014 174.907 185.618C177.85 183.38 180.936 181.336 184.145 179.5Z" fill="url(#paint0_linear)" fill-opacity="0.6"/>
<defs>
<linearGradient id="paint0_linear" x1="117.604" y1="51.5726" x2="290.231" y2="450.229" gradientUnits="userSpaceOnUse">
<stop stop-color="#CB72D9" stop-opacity="0.28"/>
<stop offset="1" stop-color="#FBA2B8"/>
</linearGradient>
</defs>
</svg>
