<svg width="36" height="36" viewBox="0 0 36 36" fill="none" xmlns="http://www.w3.org/2000/svg">
<g clip-path="url(#clip0)">
<path d="M25.068 20.7827C27.9438 18.5676 29.5932 15.2183 29.5932 11.5934C29.5932 8.90373 28.6513 6.28262 26.9408 4.21283C26.7552 3.98832 26.4229 3.95675 26.1983 4.14231C25.9738 4.32786 25.9422 4.66023 26.1277 4.88474C27.6823 6.76588 28.5385 9.14842 28.5385 11.5934C28.5385 14.8885 27.0389 17.9333 24.4243 19.9471C23.7077 20.499 23.2967 21.3278 23.2967 22.2208V23.2968H12.7031V22.221C12.7031 21.328 12.2915 20.4988 11.574 19.946C8.92431 17.9046 7.4256 14.8174 7.46202 11.476C7.49317 8.60469 8.64538 5.93837 10.7064 3.96821C12.7703 1.99518 15.4898 0.962144 18.3667 1.061C20.6841 1.14018 22.8588 1.95657 24.6556 3.42203C24.8814 3.60625 25.2135 3.57236 25.3976 3.34665C25.5816 3.12095 25.5479 2.78872 25.3222 2.60471C23.3453 0.992378 20.9526 0.0940661 18.4027 0.00694893C15.2433 -0.100207 12.2485 1.03492 9.97752 3.20589C7.70959 5.37397 6.44171 8.30692 6.40733 11.4647C6.38722 13.3187 6.79194 15.0943 7.61024 16.7422C8.38972 18.3119 9.53778 19.7087 10.9303 20.7815C11.3867 21.1331 11.6484 21.6578 11.6484 22.2211V23.3815C10.9729 23.6037 10.4836 24.2402 10.4836 24.9891C10.4836 25.7381 10.9729 26.3746 11.6484 26.5967V30.893C11.6484 32.2874 12.6815 33.4447 14.0224 33.6407C14.2587 34.9794 15.4296 35.9999 16.8352 35.9999H19.1648C20.5704 35.9999 21.7413 34.9794 21.9776 33.6407C23.3185 33.4446 24.3516 32.2873 24.3516 30.893V26.5967C25.0271 26.3745 25.5164 25.738 25.5164 24.9891C25.5164 24.2402 25.0271 23.6037 24.3516 23.3815V22.2209C24.3515 21.6576 24.6127 21.1334 25.068 20.7827ZM19.1648 34.9452H16.8351C16.0247 34.9452 15.3374 34.4076 15.1114 33.6703H20.8884C20.6624 34.4076 19.9751 34.9452 19.1648 34.9452ZM21.5742 32.6156H21.4945H14.5054H14.4258C13.6307 32.6156 12.96 32.074 12.7625 31.3406H23.2375C23.0398 32.0741 22.3692 32.6156 21.5742 32.6156ZM23.2968 30.2859H12.7031V29.0109H23.2968V30.2859ZM24.4616 24.989C24.4616 25.3405 24.1757 25.6265 23.8242 25.6265H16.0265C15.7352 25.6265 15.4992 25.8626 15.4992 26.1538C15.4992 26.4451 15.7352 26.6812 16.0265 26.6812H23.2968V27.9562H12.7031V26.6813H13.9231C14.2144 26.6813 14.4504 26.4452 14.4504 26.1539C14.4504 25.8627 14.2144 25.6266 13.9231 25.6266H12.1758C11.8243 25.6266 11.5383 25.3406 11.5383 24.9891C11.5383 24.6376 11.8243 24.3516 12.1758 24.3516H23.8242C24.1757 24.3515 24.4616 24.6376 24.4616 24.989Z" fill="url(#paint0_linear)"/>
<path d="M4.54922 11.5933C4.54922 11.302 4.31318 11.0659 4.02187 11.0659H1.69214C1.40083 11.0659 1.16479 11.302 1.16479 11.5933C1.16479 11.8845 1.40083 12.1206 1.69214 12.1206H4.02187C4.31311 12.1206 4.54922 11.8845 4.54922 11.5933Z" fill="url(#paint1_linear)"/>
<path d="M5.63085 18.1259L3.61323 19.2908C3.36102 19.4364 3.27461 19.759 3.42022 20.0112C3.51796 20.1803 3.69515 20.2749 3.8774 20.2749C3.96683 20.2749 4.05761 20.2521 4.14058 20.2042L6.15812 19.0393C6.41033 18.8937 6.49675 18.5712 6.35113 18.319C6.20544 18.0667 5.88292 17.9803 5.63085 18.1259Z" fill="url(#paint2_linear)"/>
<path d="M32.3864 19.2904L30.3688 18.1255C30.1164 17.9797 29.794 18.0662 29.6485 18.3185C29.5029 18.5707 29.5893 18.8932 29.8415 19.0389L31.859 20.2037C31.9422 20.2517 32.0328 20.2745 32.1222 20.2745C32.3045 20.2745 32.4817 20.1799 32.5794 20.0107C32.725 19.7585 32.6386 19.436 32.3864 19.2904Z" fill="url(#paint3_linear)"/>
<path d="M34.3076 11.0659H31.9779C31.6867 11.0659 31.4506 11.302 31.4506 11.5933C31.4506 11.8845 31.6867 12.1206 31.9779 12.1206H34.3076C34.5989 12.1206 34.835 11.8845 34.835 11.5933C34.835 11.302 34.5989 11.0659 34.3076 11.0659Z" fill="url(#paint4_linear)"/>
<path d="M30.1057 5.13174C30.1951 5.13174 30.2859 5.10896 30.3688 5.061L32.3864 3.89621C32.6386 3.75059 32.725 3.42807 32.5794 3.17585C32.4338 2.92364 32.1112 2.83723 31.859 2.98285L29.8415 4.14764C29.5893 4.29326 29.5029 4.61578 29.6485 4.868C29.7461 5.0371 29.9234 5.13174 30.1057 5.13174Z" fill="url(#paint5_linear)"/>
<path d="M3.61323 3.89624L5.63078 5.06104C5.71389 5.10899 5.80452 5.13177 5.89396 5.13177C6.07621 5.13177 6.25347 5.03713 6.35113 4.86796C6.49675 4.61575 6.41033 4.29322 6.15812 4.14761L4.14058 2.98288C3.88815 2.83719 3.56577 2.92367 3.42022 3.17589C3.27461 3.4281 3.36102 3.75062 3.61323 3.89624Z" fill="url(#paint6_linear)"/>
<path d="M17.9999 9.90137C17.0668 9.90137 16.3077 10.6605 16.3077 11.5936C16.3077 12.5266 17.0668 13.2857 17.9999 13.2857C18.933 13.2857 19.692 12.5266 19.692 11.5936C19.692 10.6605 18.9329 9.90137 17.9999 9.90137ZM17.9999 12.231C17.6484 12.231 17.3624 11.9451 17.3624 11.5936C17.3624 11.2421 17.6484 10.9561 17.9999 10.9561C18.3514 10.9561 18.6373 11.242 18.6373 11.5936C18.6373 11.9451 18.3514 12.231 17.9999 12.231Z" fill="url(#paint7_linear)"/>
<path d="M17.9999 7.57178C15.7822 7.57178 13.978 9.376 13.978 11.5937C13.978 13.8113 15.7822 15.6155 17.9999 15.6155C20.2175 15.6155 22.0218 13.8113 22.0218 11.5937C22.0218 9.376 20.2175 7.57178 17.9999 7.57178ZM17.9999 14.5608C16.3637 14.5608 15.0327 13.2298 15.0327 11.5937C15.0327 9.95755 16.3638 8.62647 17.9999 8.62647C19.636 8.62647 20.9671 9.95755 20.9671 11.5937C20.9671 13.2298 19.636 14.5608 17.9999 14.5608Z" fill="url(#paint8_linear)"/>
<path d="M25.8717 13.6265C26.3408 13.5326 26.6812 13.1174 26.6812 12.6391V10.5476C26.6812 10.0693 26.3408 9.65402 25.8717 9.56023L24.8921 9.36434C24.7734 8.99716 24.6253 8.6397 24.4495 8.29622L25.0038 7.46484C25.2691 7.06681 25.2162 6.53243 24.878 6.19423L23.3991 4.71534C23.0606 4.37707 22.5263 4.32427 22.1285 4.58956L21.2972 5.14376C20.9537 4.96791 20.5962 4.81983 20.2291 4.70121L20.0332 3.72162C19.9394 3.25256 19.5242 2.91211 19.0458 2.91211H16.9544C16.476 2.91211 16.0607 3.25256 15.9669 3.72162L15.771 4.70121C15.4039 4.8199 15.0464 4.96791 14.703 5.14376L13.8717 4.58956C13.4737 4.32427 12.9393 4.37707 12.601 4.71534L11.122 6.19416C10.7837 6.53236 10.7308 7.06673 10.9962 7.46477L11.5504 8.29615C11.3746 8.63963 11.2265 8.9971 11.1078 9.36427L10.1282 9.56016C9.65918 9.65395 9.31873 10.0692 9.31873 10.5476V12.639C9.31873 13.1173 9.65918 13.5326 10.1282 13.6264L11.1078 13.8223C11.2265 14.1895 11.3746 14.5469 11.5504 14.8904L10.9962 15.7218C10.7308 16.1198 10.7838 16.6542 11.122 16.9924L12.6008 18.4713C12.9391 18.8095 13.4734 18.8625 13.8714 18.5971L14.7028 18.0428C15.0463 18.2186 15.4036 18.3667 15.7708 18.4854L15.9667 19.465C16.0605 19.9341 16.4758 20.2745 16.9542 20.2745H19.0456C19.524 20.2745 19.9392 19.9341 20.033 19.465L20.2289 18.4854C20.5962 18.3667 20.9535 18.2186 21.297 18.0428L22.1283 18.5971C22.5263 18.8624 23.0606 18.8095 23.399 18.4712L24.8777 16.9924C25.216 16.6542 25.269 16.1198 25.0036 15.7218L24.4493 14.8904C24.6251 14.5469 24.7732 14.1895 24.8919 13.8223L25.8717 13.6265ZM24.3742 12.8504C24.1784 12.8895 24.0215 13.0359 23.9689 13.2285C23.8326 13.7275 23.6333 14.2082 23.3767 14.6573C23.2777 14.8307 23.285 15.0452 23.3959 15.2114L24.1045 16.2743L22.681 17.6979L21.6181 16.9893C21.4519 16.8784 21.2373 16.8712 21.064 16.9701C20.6149 17.2266 20.1341 17.4259 19.6352 17.5622C19.4426 17.6149 19.2962 17.7717 19.2571 17.9675L19.0067 19.2198H16.9934L16.743 17.9675C16.7038 17.7717 16.5574 17.6148 16.3648 17.5622C15.8658 17.4259 15.3851 17.2267 14.936 16.9701C14.7626 16.8711 14.548 16.8784 14.3819 16.9893L13.319 17.6979L11.8955 16.2743L12.6041 15.2114C12.7149 15.0452 12.7223 14.8307 12.6233 14.6573C12.3668 14.2082 12.1675 13.7275 12.0311 13.2285C11.9785 13.0359 11.8216 12.8896 11.6258 12.8504L10.3735 12.5999V10.5867L11.6258 10.3363C11.8216 10.2971 11.9785 10.1507 12.0311 9.95813C12.1674 9.45912 12.3667 8.97839 12.6233 8.52923C12.7223 8.35584 12.7149 8.14132 12.6041 7.97517L11.8954 6.91233L13.3189 5.48878L14.3819 6.19739C14.5482 6.30827 14.7625 6.31552 14.9359 6.21659C15.3851 5.96002 15.8658 5.76082 16.3647 5.62456C16.5573 5.57189 16.7037 5.41509 16.7429 5.21927L16.9933 3.96687H19.0066L19.257 5.21927C19.2961 5.41509 19.4425 5.57196 19.6351 5.62456C20.1341 5.76089 20.6149 5.96009 21.0639 6.21659C21.2373 6.31552 21.4518 6.30827 21.618 6.19739L22.6809 5.48878L24.1045 6.91233L23.3959 7.97524C23.2852 8.14139 23.2777 8.35584 23.3767 8.52931C23.6332 8.97846 23.8325 9.45919 23.9689 9.9582C24.0215 10.1508 24.1784 10.2971 24.3742 10.3363L25.6265 10.5868V12.5999L24.3742 12.8504Z" fill="url(#paint9_linear)"/>
</g>
<defs>
<linearGradient id="paint0_linear" x1="17.9999" y1="0" x2="17.9999" y2="35.9999" gradientUnits="userSpaceOnUse">
<stop stop-color="#FBA2B8"/>
<stop offset="1" stop-color="#C45ED3"/>
</linearGradient>
<linearGradient id="paint1_linear" x1="2.85701" y1="11.0659" x2="2.85701" y2="12.1206" gradientUnits="userSpaceOnUse">
<stop stop-color="#FBA2B8"/>
<stop offset="1" stop-color="#C45ED3"/>
</linearGradient>
<linearGradient id="paint2_linear" x1="4.88568" y1="18.0552" x2="4.88568" y2="20.2749" gradientUnits="userSpaceOnUse">
<stop stop-color="#FBA2B8"/>
<stop offset="1" stop-color="#C45ED3"/>
</linearGradient>
<linearGradient id="paint3_linear" x1="31.1139" y1="18.0547" x2="31.1139" y2="20.2745" gradientUnits="userSpaceOnUse">
<stop stop-color="#FBA2B8"/>
<stop offset="1" stop-color="#C45ED3"/>
</linearGradient>
<linearGradient id="paint4_linear" x1="33.1428" y1="11.0659" x2="33.1428" y2="12.1206" gradientUnits="userSpaceOnUse">
<stop stop-color="#FBA2B8"/>
<stop offset="1" stop-color="#C45ED3"/>
</linearGradient>
<linearGradient id="paint5_linear" x1="31.1139" y1="2.91211" x2="31.1139" y2="5.13174" gradientUnits="userSpaceOnUse">
<stop stop-color="#FBA2B8"/>
<stop offset="1" stop-color="#C45ED3"/>
</linearGradient>
<linearGradient id="paint6_linear" x1="4.88568" y1="2.91211" x2="4.88568" y2="5.13177" gradientUnits="userSpaceOnUse">
<stop stop-color="#FBA2B8"/>
<stop offset="1" stop-color="#C45ED3"/>
</linearGradient>
<linearGradient id="paint7_linear" x1="17.9999" y1="9.90137" x2="17.9999" y2="13.2857" gradientUnits="userSpaceOnUse">
<stop stop-color="#FBA2B8"/>
<stop offset="1" stop-color="#C45ED3"/>
</linearGradient>
<linearGradient id="paint8_linear" x1="17.9999" y1="7.57178" x2="17.9999" y2="15.6155" gradientUnits="userSpaceOnUse">
<stop stop-color="#FBA2B8"/>
<stop offset="1" stop-color="#C45ED3"/>
</linearGradient>
<linearGradient id="paint9_linear" x1="18" y1="2.91211" x2="18" y2="20.2745" gradientUnits="userSpaceOnUse">
<stop stop-color="#FBA2B8"/>
<stop offset="1" stop-color="#C45ED3"/>
</linearGradient>
<clipPath id="clip0">
<rect width="36" height="36" fill="white"/>
</clipPath>
</defs>
</svg>
