<svg width="36" height="36" viewBox="0 0 36 36" fill="none" xmlns="http://www.w3.org/2000/svg">
<g clip-path="url(#clip0)">
<path d="M35.432 34.8753H30.85C33.0027 32.8442 32.3378 29.3336 29.7082 28.1647C29.6549 28.1409 30.0687 28.2649 23.4106 26.3179C23.4122 25.5856 23.418 24.9495 23.4282 24.3936H27.4807C29.7779 24.3936 31.0044 21.7314 29.6019 19.9811L28.5328 18.6441C28.3389 18.4016 27.985 18.3622 27.7425 18.5562C27.4999 18.7502 27.4605 19.1041 27.6545 19.3466L28.724 20.684C29.5453 21.709 28.826 23.269 27.4807 23.269C18.2075 23.269 18.852 23.3194 18.6824 23.1513C18.5109 22.9783 18.5623 23.2935 18.5623 17.7006C19.4077 18.1342 19.6852 19.9868 19.6869 20.9228C19.6869 21.2333 19.9387 21.4851 20.2492 21.4851H25.2033C25.671 21.4851 25.9352 20.9443 25.6456 20.5754L22.9409 17.1307C22.7492 16.8865 22.3958 16.8437 22.1514 17.0355C21.907 17.2272 21.8645 17.5807 22.0562 17.825L22.8925 18.8902C22.7631 19.3755 22.6587 19.8312 22.5747 20.3604H20.7873C20.6392 18.4458 19.8932 16.3758 18 16.4813C16.1061 16.3761 15.361 18.4423 15.2127 20.3604H13.4253C13.3412 19.8312 13.2369 19.3756 13.1075 18.8902L13.9438 17.825C14.1355 17.5807 14.0929 17.2272 13.8486 17.0355C13.6042 16.8437 13.2507 16.8863 13.0591 17.1307L10.3544 20.5754C10.0656 20.9433 10.3278 21.4851 10.7967 21.4851H15.7507C16.0609 21.4851 16.3125 21.2334 16.3131 20.9232C16.3148 19.9803 16.5941 18.1333 17.4377 17.7006C17.4377 23.2863 17.4878 22.9796 17.3207 23.1481C17.1466 23.3209 17.8335 23.269 8.51926 23.269C7.17488 23.269 6.45406 21.7097 7.27638 20.6836L11.8365 14.9812C12.9844 14.1615 14.3354 13.7286 15.7472 13.7286C20.3208 13.7286 21.9922 13.441 24.1398 14.9509L24.7809 15.7532C24.9747 15.996 25.3287 16.0355 25.5711 15.8415C25.8138 15.6477 25.8534 15.2938 25.6595 15.0512C24.9263 14.1335 24.947 14.1456 24.8585 14.082C23.6149 13.1867 22.14 12.6781 20.6135 12.6119C21.0792 12.1028 21.203 11.6888 21.6731 10.6225C22.1668 9.49803 22.4403 8.26957 22.4403 6.99654C22.4403 5.68007 21.7586 4.40985 20.5015 3.61817C20.5015 2.45944 20.6298 1.59564 19.7687 0.731276C18.2045 -0.82664 15.4983 0.263915 15.4983 2.50175V3.61817C14.3283 4.35503 13.5594 5.58068 13.5594 6.99654C13.5594 8.24293 13.8176 9.46289 14.3271 10.6233C14.8348 11.775 14.943 12.1275 15.3872 12.6127C13.7808 12.685 12.2946 13.2441 11.11 14.1186C11.0184 14.1864 11.3121 13.8359 6.39825 19.9807C4.96629 21.7679 6.26511 24.3936 8.51912 24.3936H12.5716C12.5818 24.9495 12.5876 25.5856 12.5892 26.3179C5.92104 28.2678 6.34518 28.1409 6.29197 28.1645C3.65544 29.3345 3.00385 32.8515 5.1527 34.8753H0.567938C0.257395 34.8753 0.00561523 35.1271 0.00561523 35.4376C0.00561523 35.7482 0.257395 36 0.567938 36H35.432C35.7425 36 35.9943 35.7482 35.9943 35.4376C35.9943 35.1271 35.7425 34.8753 35.432 34.8753ZM23.7789 20.0192L24.0468 20.3604H23.7145C23.7347 20.2438 23.7562 20.1305 23.7789 20.0192ZM12.221 20.0192C12.2437 20.1305 12.2651 20.2439 12.2853 20.3604H11.9531L12.221 20.0192ZM16.623 2.50175C16.623 1.28067 18.1085 0.664992 18.9735 1.52654C19.446 2.00086 19.3769 2.48629 19.3769 3.10913C18.4829 2.84196 17.5184 2.84153 16.6229 3.10913V2.50175H16.623ZM15.6356 4.91939C17.3145 3.39324 20.1948 3.91824 21.0798 5.89671C19.5515 5.58258 18.5877 6.20303 17.7871 6.71931C16.8604 7.3172 16.1758 7.75814 14.6844 7.0158C14.6844 6.17941 15.0446 5.45662 15.6356 4.91939ZM14.7917 8.28447C16.2939 8.8288 17.2247 8.42041 18.3967 7.66444C19.2247 7.1303 19.9487 6.66449 21.3141 7.12334C21.2841 8.95539 20.6637 10.1241 20.1442 11.3027C19.3835 13.0324 16.6157 13.0307 15.8555 11.3022C15.3351 10.1217 14.9862 9.44461 14.7917 8.28447ZM13.4802 33.1794C12.7933 33.5229 11.9818 33.8068 11.6956 34.8641H10.806V32.5109L13.4802 33.1794ZM12.9163 34.8641C13.1134 34.5716 13.1249 34.6145 15.3428 33.5055C15.355 33.4994 15.3821 33.4843 15.4009 33.4718C16.4562 32.7683 16.6043 32.5954 17.1461 32.5954C17.7049 32.5954 18.1987 32.9515 18.3749 33.4815L18.4358 33.6648C18.5286 33.9437 18.8207 34.104 19.1058 34.0329L25.1938 32.5109V34.8642H12.9163V34.8641ZM4.9892 31.9006C4.9892 30.7322 5.67411 29.6845 6.71547 29.2073L13.2326 27.3015H19.3411C19.6516 27.3015 19.9034 27.0498 19.9034 26.7392C19.9034 26.4287 19.6516 26.1769 19.3411 26.1769H13.7135C13.7116 25.5051 13.7059 24.9154 13.6964 24.3936H17.0306C17.386 24.3936 17.724 24.2725 17.9996 24.0478C18.2735 24.2717 18.6126 24.3936 18.9692 24.3936H22.3033C22.2894 25.1658 22.2856 25.9696 22.2856 26.742C22.2861 26.8513 22.3186 26.9607 22.3823 27.0547C22.5457 27.296 22.1292 27.115 29.2842 29.2073C31.1534 30.0656 31.6041 32.5349 30.1428 33.9963C29.5831 34.5559 28.8389 34.8642 28.0472 34.8642H26.3184V32.2298L26.862 32.0939C27.1632 32.0186 27.3465 31.7133 27.271 31.412C27.1958 31.1108 26.891 30.9276 26.5892 31.0028L19.3167 32.8209C18.6481 31.4603 16.9472 31.0891 15.7561 31.8835L14.9863 32.3967L9.41047 31.0028C9.10935 30.9277 8.80386 31.1106 8.72858 31.412C8.65323 31.7133 8.83641 32.0186 9.13767 32.0939L9.68123 32.2298V34.8642H7.95258C6.31854 34.8641 4.9892 33.5347 4.9892 31.9006Z" fill="url(#paint0_linear)"/>
<path d="M26.2734 17.619C26.4681 17.8616 26.822 17.8996 27.064 17.7055C27.3061 17.511 27.3448 17.1571 27.1504 16.9149L27.0617 16.8046C26.8673 16.5623 26.5135 16.5237 26.2712 16.7181C26.029 16.9125 25.9904 17.2664 26.1848 17.5087L26.2734 17.619Z" fill="url(#paint1_linear)"/>
</g>
<defs>
<linearGradient id="paint0_linear" x1="18" y1="0" x2="18" y2="36" gradientUnits="userSpaceOnUse">
<stop stop-color="#FBA2B8"/>
<stop offset="1" stop-color="#C45ED3"/>
</linearGradient>
<linearGradient id="paint1_linear" x1="26.6676" y1="16.5942" x2="26.6676" y2="17.8293" gradientUnits="userSpaceOnUse">
<stop stop-color="#FBA2B8"/>
<stop offset="1" stop-color="#C45ED3"/>
</linearGradient>
<clipPath id="clip0">
<rect width="36" height="36" fill="white"/>
</clipPath>
</defs>
</svg>
