<svg width="34" height="36" viewBox="0 0 34 36" fill="none" xmlns="http://www.w3.org/2000/svg">
<g clip-path="url(#clip0)">
<path d="M3.32031 20.1865C2.95378 20.1865 2.65625 20.5016 2.65625 20.8897C2.65625 21.2777 2.95378 21.5928 3.32031 21.5928C3.68684 21.5928 3.98438 21.2777 3.98438 20.8897C3.98438 20.5016 3.68684 20.1865 3.32031 20.1865Z" fill="url(#paint0_linear)"/>
<path d="M30.5215 22.6247L24.2612 24.9035C24.2889 24.7404 24.3045 24.5739 24.3045 24.405C24.3045 22.8543 23.113 21.5925 21.6482 21.5925H17.3479C17.2337 21.5925 17.1212 21.5615 17.0218 21.5021L13.5134 19.4128C12.8198 18.9989 12.0315 18.78 11.2338 18.78H6.52624C6.25232 17.9618 5.51406 17.374 4.64845 17.374H0.664064C0.297272 17.374 0 17.6888 0 18.0771V30.7331C0 31.1215 0.297272 31.4363 0.664064 31.4363H4.64845C5.49435 31.4363 6.21963 30.8735 6.50756 30.083C7.25931 30.1819 8.12907 30.4173 8.67563 30.7645L12.1485 32.9708C13.4642 33.8069 14.9705 34.2488 16.5051 34.2488C17.7212 34.2488 18.8994 33.9785 20.0073 33.4457L32.4016 27.6671C33.7744 27.0774 34.4522 25.3336 33.6675 23.7966C33.0903 22.6656 31.7386 22.1624 30.5215 22.6247ZM5.31251 29.3302C5.31095 29.7164 5.01342 30.03 4.64845 30.03H1.32813V18.7803H4.64845C5.01446 18.7803 5.31251 19.0956 5.31251 19.4834V29.3302ZM31.8971 26.3666C31.8901 26.3694 31.8831 26.3727 31.8761 26.3757C31.8761 26.3757 19.4633 32.1627 19.461 32.1638C18.5258 32.6143 17.5313 32.8425 16.5051 32.8425C15.2112 32.8425 13.9412 32.4701 12.832 31.765L9.35889 29.5587C8.61545 29.0866 7.55087 28.7987 6.64064 28.6834V20.1865H11.2338C11.8035 20.1865 12.3664 20.3425 12.8621 20.6383L16.3705 22.7277C16.6677 22.9051 17.006 22.999 17.3479 22.999H21.6482C22.3805 22.999 22.9763 23.6297 22.9763 24.4053C22.9763 25.1779 22.3802 25.8115 21.6482 25.8115H14.8976C14.5308 25.8115 14.2335 26.1263 14.2335 26.5147C14.2335 26.9028 14.5308 27.2175 14.8976 27.2175H21.6482C22.0837 27.2175 22.5125 27.103 22.8931 26.8882C22.8931 26.8882 30.9643 23.9505 30.9674 23.9494C31.5625 23.7219 32.2354 23.9483 32.4992 24.4652C32.8948 25.24 32.5677 26.0824 31.8971 26.3666Z" fill="url(#paint1_linear)"/>
<path d="M19.3407 18.8125C19.4657 18.927 19.6206 18.9841 19.7757 18.9841C19.9308 18.9841 20.0859 18.927 20.2107 18.8125C25.6288 13.8406 28.9802 11.3245 28.9802 7.41441C28.9802 4.3212 26.9121 1.75781 24.0065 1.75781C22.0984 1.75781 20.6372 2.92237 19.6961 4.67002C18.757 2.92621 17.2974 1.75781 15.3864 1.75781C13.162 1.75781 11.3024 3.28409 10.6487 5.64588C10.5455 6.01859 10.7473 6.40916 11.0993 6.51847C11.4513 6.62779 11.8202 6.4141 11.9231 6.04139C12.4069 4.29346 13.7662 3.16407 15.3864 3.16407C17.2808 3.16407 18.6097 4.94523 19.0561 6.60362C19.1358 6.90821 19.3978 7.11915 19.6961 7.11915C19.9946 7.11915 20.2564 6.90821 20.336 6.60362C20.3451 6.56928 21.2675 3.16407 24.0065 3.16407C26.0848 3.16407 27.6521 4.9911 27.6521 7.41441C27.6521 10.5422 24.7645 12.7972 19.7752 17.3521C16.7353 14.5879 14.3205 12.6423 12.948 10.7389C12.7255 10.4302 12.3089 10.3708 12.0173 10.6065C11.7257 10.8421 11.67 11.2833 11.8923 11.5922C13.4393 13.7376 16.051 15.7931 19.3407 18.8125Z" fill="url(#paint2_linear)"/>
<path d="M11.2227 7.95215C10.8561 7.95215 10.5586 8.26718 10.5586 8.65527C10.5586 9.04336 10.8561 9.35839 11.2227 9.35839C11.5892 9.35839 11.8867 9.04336 11.8867 8.65527C11.8867 8.26718 11.5892 7.95215 11.2227 7.95215Z" fill="url(#paint3_linear)"/>
</g>
<defs>
<linearGradient id="paint0_linear" x1="3.32031" y1="20.1865" x2="3.32031" y2="21.5928" gradientUnits="userSpaceOnUse">
<stop stop-color="#C45ED3"/>
<stop offset="1" stop-color="#FBA2B8"/>
</linearGradient>
<linearGradient id="paint1_linear" x1="17" y1="17.374" x2="17" y2="34.2488" gradientUnits="userSpaceOnUse">
<stop stop-color="#C45ED3"/>
<stop offset="1" stop-color="#FBA2B8"/>
</linearGradient>
<linearGradient id="paint2_linear" x1="19.801" y1="1.75781" x2="19.801" y2="18.9841" gradientUnits="userSpaceOnUse">
<stop stop-color="#C45ED3"/>
<stop offset="1" stop-color="#FBA2B8"/>
</linearGradient>
<linearGradient id="paint3_linear" x1="11.2227" y1="7.95215" x2="11.2227" y2="9.35839" gradientUnits="userSpaceOnUse">
<stop stop-color="#C45ED3"/>
<stop offset="1" stop-color="#FBA2B8"/>
</linearGradient>
<clipPath id="clip0">
<rect width="34" height="36" fill="white"/>
</clipPath>
</defs>
</svg>
