<svg width="36" height="36" viewBox="0 0 36 36" fill="none" xmlns="http://www.w3.org/2000/svg">
<g clip-path="url(#clip0)">
<path d="M16.1999 4.3843C16.0557 4.13103 15.7334 4.04265 15.4802 4.187C15.474 4.19045 15.3272 4.27433 15.0939 4.4274C14.8502 4.58722 14.7821 4.91438 14.942 5.15809C15.1019 5.40193 15.429 5.46985 15.6727 5.30996C15.8738 5.17813 15.9994 5.10592 16.0029 5.10395C16.2558 4.95952 16.3442 4.63742 16.1999 4.3843Z" fill="url(#paint0_linear)"/>
<path d="M20.5785 29.1777C20.4009 29.3862 20.2135 29.5968 20.0215 29.8038C19.8232 30.0175 19.8357 30.3514 20.0494 30.5496C20.2625 30.7474 20.5966 30.7359 20.7952 30.5217C20.9974 30.3038 21.1948 30.0819 21.3819 29.8622C21.5709 29.6403 21.5443 29.3072 21.3224 29.1182C21.1006 28.9292 20.7675 28.9558 20.5785 29.1777Z" fill="url(#paint1_linear)"/>
<path d="M23.2741 25.9537C23.0112 25.8279 22.6962 25.939 22.5703 26.2019C22.4562 26.4405 22.3275 26.6846 22.1879 26.9275C22.0426 27.1802 22.1296 27.5028 22.3823 27.648C22.6346 27.7931 22.9573 27.7067 23.1029 27.4536C23.2558 27.1878 23.3968 26.92 23.5225 26.6575C23.6482 26.3946 23.5371 26.0794 23.2741 25.9537Z" fill="url(#paint2_linear)"/>
<path d="M24.3583 23.7328C24.3717 23.5629 24.3786 23.3919 24.3786 23.2247C24.3786 23.0814 24.3736 22.9371 24.3637 22.7955C24.3433 22.5048 24.0904 22.2854 23.8003 22.306C23.5096 22.3264 23.2904 22.5786 23.3108 22.8694C23.319 22.9864 23.3232 23.1058 23.3231 23.2246C23.3231 23.3642 23.3174 23.5072 23.3061 23.6494C23.2831 23.9399 23.4999 24.1942 23.7905 24.2173C24.0803 24.2403 24.3352 24.0239 24.3583 23.7328Z" fill="url(#paint3_linear)"/>
<path d="M22.7925 19.128C22.6026 18.9067 22.2695 18.8813 22.0483 19.0711C21.8271 19.2608 21.8016 19.594 21.9913 19.8152C22.1678 20.0211 22.329 20.2336 22.4702 20.4471C22.631 20.6903 22.9584 20.757 23.2015 20.5962C23.4446 20.4354 23.5113 20.108 23.3505 19.8649C23.1852 19.6149 22.9974 19.367 22.7925 19.128Z" fill="url(#paint4_linear)"/>
<path d="M20.4999 17.1831C20.258 17.027 20.0016 16.8724 19.7378 16.7232C19.4841 16.5798 19.1621 16.6691 19.0186 16.9229C18.8752 17.1767 18.9646 17.4986 19.2183 17.6421C19.4643 17.7811 19.7031 17.9252 19.9278 18.0701C20.1712 18.2271 20.4984 18.1591 20.6573 17.9126C20.8154 17.6677 20.7449 17.3411 20.4999 17.1831Z" fill="url(#paint5_linear)"/>
<path d="M16.4071 15.0506C16.1523 14.9088 15.8311 15.0005 15.6893 15.2553C15.5476 15.51 15.6393 15.8314 15.894 15.973C16.1422 16.1111 16.4036 16.2499 16.6711 16.3853C16.9294 16.5163 17.2479 16.4148 17.3804 16.1532C17.5122 15.8933 17.4083 15.5757 17.1482 15.4439C16.8929 15.3144 16.6435 15.1821 16.4071 15.0506Z" fill="url(#paint6_linear)"/>
<path d="M13.4401 14.3103C13.6613 14.499 13.9946 14.4733 14.1841 14.251C14.3731 14.0291 14.3465 13.6961 14.1247 13.507C13.9112 13.325 13.7124 13.1392 13.5339 12.955C13.3311 12.7457 12.997 12.7403 12.7876 12.9431C12.5783 13.1459 12.573 13.48 12.7758 13.6893C12.9776 13.8977 13.2012 14.1067 13.4401 14.3103Z" fill="url(#paint7_linear)"/>
<path d="M11.676 9.49478C11.3855 9.48796 11.142 9.71654 11.1341 10.0078C11.133 10.0455 11.1325 10.0832 11.1326 10.1206C11.1326 10.4093 11.163 10.7001 11.2231 10.9849C11.2835 11.2711 11.5644 11.4524 11.8484 11.3924C12.1336 11.3322 12.3161 11.0523 12.2559 10.7671C12.2109 10.5538 12.1881 10.3363 12.1881 10.1201C12.1881 10.0922 12.1885 10.0645 12.1892 10.0368C12.1971 9.74544 11.9673 9.50279 11.676 9.49478Z" fill="url(#paint8_linear)"/>
<path d="M12.3493 7.80916C12.5853 7.98009 12.9153 7.92728 13.0862 7.69117C13.2364 7.48382 13.4068 7.27422 13.5926 7.06842C13.7878 6.85199 13.7708 6.51836 13.5544 6.32303C13.3379 6.12764 13.0042 6.14486 12.8091 6.36114C12.598 6.595 12.4036 6.83421 12.2313 7.07214C12.0604 7.30825 12.1132 7.63816 12.3493 7.80916Z" fill="url(#paint9_linear)"/>
<path d="M17.9836 31.7343C17.7887 31.8955 17.6726 31.9838 17.6717 31.9846C17.4395 32.1608 17.3941 32.4918 17.5703 32.724C17.747 32.9569 18.0781 33.0011 18.3097 32.8254C18.3151 32.8213 18.4424 32.7246 18.6562 32.5477C18.8808 32.3619 18.9123 32.0292 18.7266 31.8047C18.5409 31.5801 18.2082 31.5486 17.9836 31.7343Z" fill="url(#paint10_linear)"/>
<path d="M20.0782 36H30.351C31.2326 36 32.0345 35.4767 32.4437 34.6343C37.2232 24.7935 36.1255 15.9309 25.5848 12.6733C22.1916 11.6246 18.1106 9.91104 17.9385 7.70316C17.801 5.93852 20.1437 3.86255 24.9017 1.53302C25.6517 1.16578 25.3951 0 24.5671 0C23.4486 0 21.9109 0 20.7412 0C20.0792 0 19.4368 0.149977 18.8318 0.445641C17.3588 1.16564 15.4147 2.19305 13.5353 3.41965C7.95152 6.55235 5.09255 9.5869 5.03791 12.439C5.00051 14.3914 6.28399 16.1788 8.85265 17.7516C11.1796 19.1763 12.3598 20.7744 12.3602 22.5013C12.3615 27.107 4.10768 32.1665 1.39537 33.8291C0.41782 34.4284 0.829218 36 1.95197 36H17.6172C17.9085 36 18.1446 35.7639 18.1446 35.4727C18.1446 35.1814 17.9085 34.9453 17.6172 34.9453H5.96302C14.944 29.0412 20.4525 21.6105 11.2862 15.9978C5.57194 12.499 7.94899 8.51365 13.4974 4.71298C15.5122 3.3352 17.6888 2.17828 19.295 1.39317C19.7545 1.16859 20.2411 1.05469 20.7412 1.05469H22.1409C19.3469 2.56219 15.2493 5.24588 15.4185 8.41577C15.4834 9.63162 16.1722 10.7825 17.4656 11.8365C18.8325 12.9504 20.9299 13.995 23.6991 14.9414C28.5108 16.5857 31.1401 19.3107 31.5142 23.0408C31.5433 23.3305 31.8015 23.542 32.0916 23.5129C32.3814 23.4838 32.5928 23.2253 32.5637 22.9355C32.1447 18.7583 29.277 15.7329 24.0402 13.9433C19.1955 12.2877 16.5782 10.3568 16.4716 8.35945C16.432 7.61857 16.7247 6.92191 17.1359 6.30513C15.5607 10.1384 21.3032 12.4538 25.2733 13.6808C29.2812 14.9195 31.9538 17.0232 33.217 19.9337C35.3495 24.8475 33.0534 30.9644 31.495 34.1734C31.2637 34.6494 30.8254 34.9452 30.351 34.9452H28.6434C30.4673 32.1758 32.1169 28.7937 32.521 25.5136C32.5567 25.2245 32.3512 24.9614 32.0622 24.9257C31.7735 24.8907 31.5099 25.0955 31.4744 25.3846C31.2707 27.037 30.464 30.456 27.3706 34.9452H20.0782C19.7869 34.9452 19.5508 35.1814 19.5508 35.4726C19.5508 35.7638 19.7869 36 20.0782 36ZM3.99743 34.9453H1.95204C1.94599 34.9453 1.94318 34.9447 1.94318 34.9447H1.94297C1.93158 34.9384 1.9024 34.8959 1.90078 34.8326C1.89895 34.7576 1.93474 34.7356 1.94655 34.7283C6.87026 31.7101 13.4161 27.1588 13.4148 22.5011C13.4142 20.3823 12.0646 18.4816 9.40327 16.8521C6.01575 14.7781 4.97358 12.3723 7.4869 9.31823C5.99248 12.4075 7.59476 14.897 10.4991 16.7496C10.7091 16.8836 10.774 16.9187 10.9926 17.058C19.5773 22.5298 12.6454 29.6281 3.99743 34.9453Z" fill="url(#paint11_linear)"/>
</g>
<defs>
<linearGradient id="paint0_linear" x1="15.5623" y1="4.11768" x2="15.5623" y2="5.39652" gradientUnits="userSpaceOnUse">
<stop stop-color="#FBA2B8"/>
<stop offset="1" stop-color="#C45ED3"/>
</linearGradient>
<linearGradient id="paint1_linear" x1="20.6943" y1="28.9922" x2="20.6943" y2="30.6905" gradientUnits="userSpaceOnUse">
<stop stop-color="#FBA2B8"/>
<stop offset="1" stop-color="#C45ED3"/>
</linearGradient>
<linearGradient id="paint2_linear" x1="22.8459" y1="25.9019" x2="22.8459" y2="27.7184" gradientUnits="userSpaceOnUse">
<stop stop-color="#FBA2B8"/>
<stop offset="1" stop-color="#C45ED3"/>
</linearGradient>
<linearGradient id="paint3_linear" x1="23.8415" y1="22.3047" x2="23.8415" y2="24.2189" gradientUnits="userSpaceOnUse">
<stop stop-color="#FBA2B8"/>
<stop offset="1" stop-color="#C45ED3"/>
</linearGradient>
<linearGradient id="paint4_linear" x1="22.6512" y1="18.9438" x2="22.6512" y2="20.6838" gradientUnits="userSpaceOnUse">
<stop stop-color="#FBA2B8"/>
<stop offset="1" stop-color="#C45ED3"/>
</linearGradient>
<linearGradient id="paint5_linear" x1="19.8459" y1="16.6548" x2="19.8459" y2="18.1544" gradientUnits="userSpaceOnUse">
<stop stop-color="#FBA2B8"/>
<stop offset="1" stop-color="#C45ED3"/>
</linearGradient>
<linearGradient id="paint6_linear" x1="16.5301" y1="14.9839" x2="16.5301" y2="16.4424" gradientUnits="userSpaceOnUse">
<stop stop-color="#FBA2B8"/>
<stop offset="1" stop-color="#C45ED3"/>
</linearGradient>
<linearGradient id="paint7_linear" x1="13.4686" y1="12.7944" x2="13.4686" y2="14.4364" gradientUnits="userSpaceOnUse">
<stop stop-color="#FBA2B8"/>
<stop offset="1" stop-color="#C45ED3"/>
</linearGradient>
<linearGradient id="paint8_linear" x1="11.7" y1="9.49463" x2="11.7" y2="11.4039" gradientUnits="userSpaceOnUse">
<stop stop-color="#FBA2B8"/>
<stop offset="1" stop-color="#C45ED3"/>
</linearGradient>
<linearGradient id="paint9_linear" x1="12.9298" y1="6.18701" x2="12.9298" y2="7.90948" gradientUnits="userSpaceOnUse">
<stop stop-color="#FBA2B8"/>
<stop offset="1" stop-color="#C45ED3"/>
</linearGradient>
<linearGradient id="paint10_linear" x1="18.1553" y1="31.6133" x2="18.1553" y2="32.9328" gradientUnits="userSpaceOnUse">
<stop stop-color="#FBA2B8"/>
<stop offset="1" stop-color="#C45ED3"/>
</linearGradient>
<linearGradient id="paint11_linear" x1="18.0001" y1="0" x2="18.0001" y2="36" gradientUnits="userSpaceOnUse">
<stop stop-color="#FBA2B8"/>
<stop offset="1" stop-color="#C45ED3"/>
</linearGradient>
<clipPath id="clip0">
<rect width="36" height="36" fill="white"/>
</clipPath>
</defs>
</svg>
