<svg width="116" height="108" viewBox="0 0 116 108" fill="none" xmlns="http://www.w3.org/2000/svg">
<g opacity="0.7" clip-path="url(#clip0)">
<path fill-rule="evenodd" clip-rule="evenodd" d="M45.9135 59.9923C48.7892 60.1844 51.7928 60.4012 54.8406 60.6475L54.7865 61.3666C51.7436 61.1203 48.74 60.8987 45.8692 60.7115L45.9135 59.9923ZM28.9538 56.6427L28.7227 57.3225C24.2884 55.785 20.1353 53.5303 16.4282 50.6479L16.8706 50.0815C20.5146 52.9138 24.5962 55.1301 28.9538 56.6427ZM42.9541 60.2238C38.7636 59.7444 34.6189 58.924 30.5612 57.7708L30.753 57.0762C34.7731 58.2208 38.8801 59.033 43.0327 59.5047L42.9541 60.2238ZM56.9397 61.7607L57.1756 63.1843C47.4668 64.7212 39.5965 64.8492 32.4096 63.5882C26.1271 62.4848 17.1901 59.6672 10.2833 52.5296L11.3206 51.5296C16.497 56.8841 24.0723 60.6622 32.6504 62.1695C39.6752 63.401 47.3931 63.273 56.9397 61.7607ZM13.7982 60.6425L14.1374 60.0071C18.1064 62.1345 22.3795 63.6349 26.8055 64.4552L26.6728 65.1645C22.1751 64.3284 17.8326 62.8032 13.7982 60.6425ZM42.1037 57.3422L42.2904 56.6476L47.5356 58.0762L47.3489 58.7756L42.1037 57.3422ZM64.2201 18.3785L64.7804 17.9253C67.1399 20.8211 68.8394 24.1985 69.7601 27.8214C70.4926 30.7424 70.6991 33.762 70.8957 36.688L70.178 36.7274C69.9814 33.8408 69.7749 30.8508 69.0572 27.9938C68.166 24.4727 66.5149 21.1905 64.2201 18.3785ZM56.6594 60.2682C47.3095 58.751 39.1542 53.5689 31.2692 48.5593C27.189 45.9683 22.9761 43.2936 18.6501 41.1558L19.2843 39.8652C23.684 42.0375 27.9312 44.7369 32.0359 47.3426C39.803 52.2735 47.8306 57.3767 56.8855 58.8446L56.6594 60.2682ZM39.1493 57.0122C31.0845 54.9309 23.5165 51.2548 16.8903 46.1999L17.3229 45.6284C23.873 50.6243 31.3542 54.257 39.3262 56.3127L39.1493 57.0122ZM17.1606 64.7556L16.9197 65.4354C13.873 64.3634 11.0058 62.8355 8.41543 60.9036L8.84796 60.3273C11.38 62.2153 14.1826 63.7083 17.1606 64.7556ZM18.1782 65.4601C22.2157 67.3372 26.5462 68.502 30.9791 68.9032L30.9152 69.6224C26.4013 69.2097 21.9916 68.0234 17.8784 66.1152L18.1782 65.4601ZM7.26016 71.9671L7.59932 71.3317C9.88975 72.5714 12.2446 73.6879 14.6536 74.6764L14.3832 75.3413C11.9508 74.344 9.57312 73.2176 7.26016 71.9671ZM28.2115 77.2723C24.5296 77.3462 20.356 77.425 16.6199 76.0015L16.8756 75.3266C20.4789 76.7009 24.5787 76.6221 28.1968 76.5532L28.2115 77.2723ZM11.8467 71.0165L12.2006 70.3909C15.0037 71.9881 18.0546 73.1021 21.226 73.6863L21.0982 74.3956C17.8471 73.797 14.7197 72.6546 11.8467 71.0165ZM53.0365 70.6864L53.3757 71.3268C46.5637 74.8417 39.0983 76.903 31.451 77.3807L31.4019 76.6615C38.9487 76.1932 46.316 74.1585 53.0365 70.6864ZM54.8062 66.1152C48.4592 68.1281 41.8733 69.286 35.2215 69.5584L35.192 68.8343C41.7789 68.5678 48.3008 67.4214 54.585 65.4255L54.8062 66.1152ZM28.005 65.7753C33.843 67.2196 39.9504 67.1636 45.7611 65.6127L45.9527 66.3122C40.0239 67.8902 33.794 67.9461 27.8379 66.4748L28.005 65.7753ZM65.6062 25.2501C64.4904 21.4843 62.7343 17.9398 60.4152 14.7727L60.9952 14.3491C63.3639 17.5827 65.1567 21.2023 66.2945 25.0481L65.6062 25.2501ZM40.4716 74.1788C35.1836 75.4775 29.6897 75.7036 24.3132 74.8438L24.4262 74.1296C29.7061 74.9743 35.1012 74.7533 40.2946 73.4794L40.4716 74.1788ZM56.9003 65.1152L57.6524 66.3467C41.8873 75.8339 20.5476 74.701 5.7608 63.6079L6.62107 62.4553C20.9507 73.2085 41.6268 74.302 56.9003 65.1152ZM61.6392 35.8752C62.8485 40.3183 64.0922 44.9191 65.8816 49.2244L64.5445 49.7662C62.7256 45.3772 61.4672 40.737 60.248 36.2446C59.432 33.2447 58.5914 30.1415 57.5886 27.1564C54.5654 18.1125 50.4508 11.9058 45.0089 8.17693L45.8249 6.98978C51.5322 10.9059 55.8286 17.3539 58.96 26.7081C59.9727 29.7326 60.8183 32.8556 61.6392 35.8752ZM49.9444 43.4413C45.3629 37.0919 38.9574 32.3433 32.7684 27.7475L33.1961 27.1712C39.4343 31.7966 45.879 36.5796 50.5294 43.0226L49.9444 43.4413ZM52.4564 40.875C55.5681 44.8157 58.788 48.8845 62.3962 52.4606L61.3836 53.4803C57.7115 49.845 54.467 45.7368 51.3209 41.7666C49.8363 39.8849 48.2976 37.9391 46.7344 36.0722C42.6542 31.1956 37.0354 25.1565 29.7797 21.733L30.3892 20.4325C37.9055 23.9742 43.662 30.1612 47.8404 35.1511C49.4135 37.0328 50.962 38.9883 52.4564 40.875ZM55.4403 39.8701C53.7563 36.0698 51.5615 32.5182 48.917 29.3139L49.4725 28.8607C52.1608 32.1155 54.392 35.7235 56.104 39.5844L55.4403 39.8701ZM52.6825 46.3772L52.2253 46.9338L44.7976 40.8158L45.2547 40.2592L52.6825 46.3772ZM42.3543 38.7617C37.8858 35.1511 33.2649 31.5896 28.6195 28.1711L29.0423 27.5899C33.6976 31.0133 38.3283 34.5846 42.8066 38.2052L42.3543 38.7617ZM68.2215 40.7863L67.0908 29.2745L67.8135 29.2105L68.9392 40.7223C68.9834 41.1902 69.0965 41.4612 69.2685 41.5203L69.0473 42.205C68.3345 41.9735 68.2461 41.0819 68.2215 40.7863ZM71.7806 23.797C75.1173 32.3509 75.629 41.7515 73.2406 50.6184C73.1007 51.1908 72.898 51.7459 72.6359 52.2735C72.4823 52.5698 72.2906 52.8447 72.0657 53.0912C72.0117 53.1454 71.9477 53.1847 71.8887 53.2389C73.6564 55.503 75.2692 57.8844 76.7161 60.3667C77.6354 61.874 78.5054 63.2976 79.3854 64.5783C87.3589 76.2132 97.6379 85.3803 109.111 91.0894C116.952 95.0234 125.515 97.3035 134.271 97.7886L133.524 99.1974C124.804 98.6143 116.288 96.2967 108.472 92.38C96.7727 86.5576 86.3069 77.2231 78.1958 65.3862C77.2962 64.0759 76.4162 62.6375 75.4822 61.1154C74.055 58.6498 72.4567 56.2878 70.6991 54.0468C70.2301 54.2543 69.7491 54.4336 69.2588 54.5837L68.7426 54.7512C63.2762 56.6082 59.5401 62.7409 60.3463 68.455C69.6028 71.7947 77.0946 78.4841 84.3406 84.9764C88.7402 88.9122 93.2874 92.981 98.1835 96.2616C107.558 102.446 118.415 106.003 129.625 106.562L128.858 108.005C117.619 107.347 106.756 103.708 97.3823 97.4586C92.4026 94.1188 87.8161 90.0156 83.3771 86.0453C76.1655 79.5875 68.7032 72.9178 59.5893 69.7111C51.6915 76.6494 41.6773 80.6959 31.1855 81.1884C21.7581 81.5059 12.4521 78.9855 4.46799 73.9523C-3.9381 68.6717 1.53817 58.554 4.48275 53.101L11.8467 39.4809C14.0539 35.3974 16.3348 31.1759 19.2155 27.4027C22.1454 23.5605 25.6945 20.1862 29.1258 16.9204C32.5866 13.6299 36.1653 10.2212 39.0607 6.37404L39.5966 5.64995C40.6289 4.251 41.6907 2.80776 43.1556 1.74869C46.8376 -0.916213 51.9452 -0.206897 55.3666 1.67479C59.0437 3.6944 61.7473 7.0292 64.1217 10.3345C67.6955 15.3047 70.1288 19.5853 71.7806 23.797ZM44.0061 2.91612C42.723 3.84219 41.7693 5.13766 40.7616 6.50705L40.216 7.24593C37.2517 11.1866 33.6287 14.6348 30.1237 17.9647C26.7318 21.1911 23.2268 24.526 20.3657 28.2795C17.5539 31.9641 15.2975 36.1363 13.1198 40.1706L5.75588 53.7906C2.01001 60.7558 -1.4654 68.5289 5.22997 72.7307C12.9648 77.6101 21.9819 80.0535 31.1167 79.7451C41.3945 79.2714 51.1973 75.2713 58.8814 68.4156C58.5545 65.5757 59.1071 62.7038 60.4643 60.1893C62.1107 57.0103 64.9012 54.5769 68.2707 53.3818L68.8114 53.2094C69.6717 52.9335 70.4827 52.6725 70.9989 52.1109C71.4199 51.5563 71.7092 50.9127 71.8445 50.2292C74.1554 41.6639 73.6608 32.5815 70.4336 24.3191C68.8311 20.2158 66.4518 16.0387 62.9517 11.1719C60.6757 8.00457 58.0998 4.81747 54.6783 2.93579C51.6502 1.27576 47.1768 0.625586 44.0061 2.91612ZM59.2944 21.1566C57.3812 16.4 54.8702 11.9075 51.8222 7.78783L52.4024 7.36415C55.4866 11.5323 58.0272 16.0779 59.9629 20.8907L59.2944 21.1566ZM54.0246 29.1465C52.7833 25.5968 50.9498 22.2839 48.6024 19.3489L49.1677 18.9006C51.5639 21.9005 53.437 25.2846 54.7079 28.91L54.0246 29.1465ZM45.2449 23.1073C46.164 23.9388 46.9719 24.8858 47.6487 25.9249L47.0293 26.2845C46.3817 25.3023 45.6119 24.4068 44.7385 23.6196L44.2666 23.1516C42.8362 21.716 41.5213 20.1694 40.334 18.5262L40.9189 18.1075C42.0841 19.7191 43.3745 21.2361 44.7779 22.6443L45.2449 23.1073ZM60.9805 55.6427L60.4987 56.1797C59.4369 55.2438 58.3751 54.3078 57.2985 53.3818C47.7077 45.1605 36.9765 38.0967 26.5942 31.2596L26.9875 30.6587C37.3894 37.5057 48.1452 44.5891 57.7704 52.835C58.847 53.7677 59.917 54.7035 60.9805 55.6427ZM64.6477 37.9441L65.3605 37.8357C65.9461 41.4619 66.9202 45.0143 68.2658 48.4312L67.5972 48.6923C66.2295 45.2268 65.2405 41.6231 64.6477 37.9441ZM58.1539 42.2936C59.6292 45.1335 61.42 47.7973 63.4924 50.2341L62.9419 50.7021C60.8356 48.2212 59.0135 45.5115 57.5099 42.6237L58.1539 42.2936ZM64.9624 35.6338L64.2495 35.7422C63.5971 31.6662 62.2801 27.7254 60.3512 24.0777L60.9854 23.7427C62.955 27.4601 64.2987 31.4778 64.9624 35.6338ZM56.0843 32.4911C57.3821 36.0525 58.7634 39.6336 60.189 43.1409L59.5205 43.4069C58.09 39.8947 56.7037 36.3037 55.4059 32.7325L56.0843 32.4911ZM49.8019 52.4557C53.3118 54.5295 56.92 56.5442 60.5283 58.4357L60.1988 59.0712C56.5758 57.1747 52.9529 55.1551 49.4381 53.0764L49.8019 52.4557ZM29.7452 41.5399C27.0562 39.7814 24.2837 38.0968 21.5063 36.5353L21.8602 35.9048C24.6524 37.4761 27.4348 39.1706 30.1336 40.939L29.7452 41.5399ZM35.4575 41.5892C33.1175 40.1509 30.8022 38.5943 28.5753 36.9688L29.0029 36.3924C31.2101 38.0032 33.5108 39.5499 35.8311 40.9784L35.4575 41.5892ZM56.0942 53.7512L55.6812 54.3423C50.4458 50.7021 44.9794 47.2786 39.4294 44.1704L39.7784 43.5448C45.353 46.6629 50.8391 50.0962 56.0942 53.7512ZM45.2842 50.4065L44.9303 51.0321C40.6093 48.5692 36.3079 45.9289 32.1491 43.1902L32.5423 42.5892C36.6913 45.3181 40.978 47.9534 45.2842 50.4065Z" fill="url(#paint0_linear)" fill-opacity="0.6"/>
</g>
<defs>
<linearGradient id="paint0_linear" x1="67.132" y1="-0.00146484" x2="67.132" y2="108.005" gradientUnits="userSpaceOnUse">
<stop stop-color="#FBA2B8"/>
<stop offset="1" stop-color="#C45ED3" stop-opacity="0.5"/>
</linearGradient>
<clipPath id="clip0">
<rect width="125" height="108" fill="white"/>
</clipPath>
</defs>
</svg>
