<svg width="36" height="36" viewBox="0 0 36 36" fill="none" xmlns="http://www.w3.org/2000/svg">
<path d="M12.5443 26.7278C13.2996 26.1247 13.8816 25.3158 14.2113 24.3873H14.5161C15.7971 24.3873 16.8387 23.3457 16.8387 22.0647C16.8387 21.2088 16.3684 20.468 15.6774 20.0651V17.4196C15.6774 14.8583 13.5936 12.7744 11.0323 12.7744H7.54839C4.98708 12.7744 2.90323 14.8583 2.90323 17.4196V20.0651C2.21229 20.468 1.74194 21.2088 1.74194 22.0647C1.74194 23.3457 2.78358 24.3873 4.06452 24.3873H4.3693C4.69903 25.3158 5.28109 26.1242 6.03638 26.7278C2.67783 26.9115 0 29.6934 0 33.097V35.4196C0 35.74 0.259419 36.0002 0.580645 36.0002H18C18.3212 36.0002 18.5806 35.74 18.5806 35.4196V33.097C18.5806 29.6934 15.9028 26.9115 12.5443 26.7278ZM10.4045 27.8712L9.29032 29.2641L8.1761 27.8712H10.4045ZM14.5161 23.226H14.4818C14.5034 23.0349 14.5161 22.8416 14.5161 22.6454V20.9034C15.1566 20.9034 15.6774 21.4243 15.6774 22.0647C15.6774 22.7052 15.1566 23.226 14.5161 23.226ZM4.06452 17.4196C4.06452 15.4982 5.62698 13.9357 7.54839 13.9357H11.0323C12.9537 13.9357 14.5161 15.4982 14.5161 17.4196V19.7422H12.1935C11.5531 19.7422 11.0323 19.2213 11.0323 18.5809V16.2583H9.87097V16.8389C9.87097 18.4397 8.56849 19.7422 6.96774 19.7422H4.06452V17.4196ZM4.06452 23.226C3.42405 23.226 2.90323 22.7052 2.90323 22.0647C2.90323 21.4243 3.42405 20.9034 4.06452 20.9034V22.6454C4.06452 22.8416 4.07727 23.0349 4.09882 23.226H4.06452ZM5.22581 22.6454V20.9034H6.96774C8.20105 20.9034 9.30592 20.3489 10.0521 19.4785C10.404 20.3146 11.2307 20.9034 12.1935 20.9034H13.3548V22.6454C13.3548 24.8866 11.531 26.7099 9.29032 26.7099C7.04968 26.7099 5.22581 24.8866 5.22581 22.6454ZM17.4194 34.8389H1.16129V33.097C1.16129 30.2159 3.50542 27.8712 6.3871 27.8712H6.68848L8.83698 30.5567C8.94727 30.6942 9.11369 30.7744 9.29032 30.7744C9.46695 30.7744 9.63338 30.6942 9.74367 30.5567L11.8922 27.8712H12.1935C15.0752 27.8712 17.4194 30.2159 17.4194 33.097V34.8389Z" fill="url(#paint0_linear)"/>
<path d="M36 10.4516C36 8.47634 32.9854 7.18208 29.3447 6.6553C28.8179 3.01465 27.5237 0 25.5484 0C23.5731 0 22.2783 3.01522 21.7515 6.65644C21.3305 6.71683 20.9231 6.78827 20.5259 6.86851C20.112 6.23088 19.3964 5.80645 18.5807 5.80645C17.2997 5.80645 16.2581 6.8481 16.2581 8.12903C16.2581 8.25208 16.276 8.37059 16.2947 8.48853C15.3211 9.21065 15.0968 9.94298 15.0968 10.4516C15.0968 12.4269 18.1115 13.7211 21.7521 14.2479C22.2789 17.8886 23.5731 20.9032 25.5484 20.9032C27.5237 20.9032 28.8185 17.888 29.3453 14.2468C29.7663 14.1864 30.1737 14.115 30.5709 14.0347C30.9849 14.6723 31.7005 15.0968 32.5162 15.0968C33.7971 15.0968 34.8387 14.0551 34.8387 12.7742C34.8387 12.6511 34.8209 12.5326 34.8022 12.4147C35.7758 11.6926 36 10.9602 36 10.4516ZM25.5484 1.16129C26.4526 1.16129 27.6218 3.12862 28.1585 6.51553C27.298 6.43246 26.4194 6.3871 25.5484 6.3871C24.6596 6.3871 23.7855 6.43303 22.9389 6.51298C23.4756 3.12806 24.6443 1.16129 25.5484 1.16129ZM28.4516 10.4516C28.4516 11.4417 28.3989 12.3608 28.3093 13.2125C27.4211 13.3061 26.4925 13.3548 25.5484 13.3548C24.5584 13.3548 23.6392 13.3021 22.7875 13.2125C22.6979 12.3608 22.6452 11.4417 22.6452 10.4516C22.6452 9.46157 22.6979 8.5424 22.7875 7.69071C23.6758 7.59715 24.6043 7.54839 25.5484 7.54839C26.5385 7.54839 27.4576 7.60112 28.3093 7.69071C28.3989 8.5424 28.4516 9.46157 28.4516 10.4516ZM18.5807 6.96774C19.2211 6.96774 19.742 7.48856 19.742 8.12903C19.742 8.7695 19.2211 9.29032 18.5807 9.29032C17.9402 9.29032 17.4194 8.7695 17.4194 8.12903C17.4194 7.48856 17.9402 6.96774 18.5807 6.96774ZM16.2581 10.4516C16.2581 10.1763 16.4427 9.87664 16.7823 9.58064C17.2087 10.1074 17.852 10.4516 18.5807 10.4516C19.8616 10.4516 20.9033 9.40997 20.9033 8.12903C20.9033 8.07857 20.8916 8.03093 20.8882 7.98104C21.1275 7.93397 21.3631 7.88464 21.6118 7.8458C21.5293 8.70457 21.4839 9.58235 21.4839 10.4516C21.4839 11.3226 21.5293 12.2012 21.6123 13.0617C18.2254 12.525 16.2581 11.3558 16.2581 10.4516ZM25.5484 19.7419C24.6443 19.7419 23.475 17.7746 22.9383 14.3877C23.7988 14.4708 24.6774 14.5161 25.5484 14.5161C26.4372 14.5161 27.3113 14.4702 28.1585 14.3902C27.6212 17.7752 26.4526 19.7419 25.5484 19.7419ZM32.5162 13.9355C31.8757 13.9355 31.3549 13.4147 31.3549 12.7742C31.3549 12.1337 31.8757 11.6129 32.5162 11.6129C33.1566 11.6129 33.6774 12.1337 33.6774 12.7742C33.6774 13.4147 33.1566 13.9355 32.5162 13.9355ZM34.3145 11.3226C33.8881 10.7958 33.2448 10.4516 32.5162 10.4516C31.2352 10.4516 30.1936 11.4933 30.1936 12.7742C30.1936 12.8247 30.2052 12.8723 30.2086 12.9222C29.9693 12.9693 29.7343 13.0186 29.4851 13.0574C29.5676 12.1987 29.6129 11.3209 29.6129 10.4516C29.6129 9.58064 29.5676 8.70202 29.4845 7.84154C32.8714 8.37824 34.8387 9.54747 34.8387 10.4516C34.8387 10.7269 34.6542 11.0266 34.3145 11.3226Z" fill="url(#paint1_linear)"/>
<path d="M22.5111 24.0155C22.2899 23.7507 21.8397 23.7507 21.6185 24.0155L18.7153 27.4994C18.5713 27.6726 18.5401 27.9136 18.6359 28.1172C18.7309 28.321 18.9359 28.4517 19.1613 28.4517H19.7419V31.3549H20.9032V27.8711C20.9032 27.5756 20.6827 27.3315 20.3969 27.295L22.0645 25.2942L23.7322 27.295C23.4464 27.3315 23.2258 27.5756 23.2258 27.8711V31.3549H24.3871V28.4517H24.9677C25.1931 28.4517 25.3981 28.321 25.4931 28.1172C25.5889 27.9127 25.5577 27.672 25.4137 27.4994L22.5111 24.0155Z" fill="url(#paint2_linear)"/>
<path d="M19.7419 32.5161H20.9032V33.6774H19.7419V32.5161Z" fill="url(#paint3_linear)"/>
<path d="M19.7419 34.8389H20.9032V36.0002H19.7419V34.8389Z" fill="url(#paint4_linear)"/>
<path d="M23.2258 32.5161H24.3871V33.6774H23.2258V32.5161Z" fill="url(#paint5_linear)"/>
<path d="M23.2258 34.8389H24.3871V36.0002H23.2258V34.8389Z" fill="url(#paint6_linear)"/>
<path d="M30.6401 20.5316C30.419 20.2668 29.9687 20.2668 29.7476 20.5316L26.8444 24.0155C26.7003 24.1887 26.6691 24.4297 26.765 24.6333C26.86 24.8371 27.0649 24.9678 27.2903 24.9678H27.871V27.871H29.0323V24.3872C29.0323 24.0917 28.8117 23.8476 28.5259 23.8111L30.1936 21.8103L31.8612 23.8111C31.5754 23.8476 31.3549 24.0917 31.3549 24.3872V27.871H32.5161V24.9678H33.0968C33.3222 24.9678 33.5272 24.8371 33.6222 24.6333C33.718 24.4289 33.6868 24.1881 33.5428 24.0155L30.6401 20.5316Z" fill="url(#paint7_linear)"/>
<path d="M27.871 29.0322H29.0323V30.1935H27.871V29.0322Z" fill="url(#paint8_linear)"/>
<path d="M27.871 31.355H29.0323V32.5163H27.871V31.355Z" fill="url(#paint9_linear)"/>
<path d="M31.3549 29.0322H32.5161V30.1935H31.3549V29.0322Z" fill="url(#paint10_linear)"/>
<path d="M31.3549 31.355H32.5161V32.5163H31.3549V31.355Z" fill="url(#paint11_linear)"/>
<defs>
<linearGradient id="paint0_linear" x1="9.29032" y1="12.7744" x2="9.29032" y2="36.0002" gradientUnits="userSpaceOnUse">
<stop stop-color="#FBA2B8"/>
<stop offset="1" stop-color="#C45ED3"/>
</linearGradient>
<linearGradient id="paint1_linear" x1="25.5484" y1="0" x2="25.5484" y2="20.9032" gradientUnits="userSpaceOnUse">
<stop stop-color="#FBA2B8"/>
<stop offset="1" stop-color="#C45ED3"/>
</linearGradient>
<linearGradient id="paint2_linear" x1="22.0645" y1="23.8169" x2="22.0645" y2="31.3549" gradientUnits="userSpaceOnUse">
<stop stop-color="#FBA2B8"/>
<stop offset="1" stop-color="#C45ED3"/>
</linearGradient>
<linearGradient id="paint3_linear" x1="20.3226" y1="32.5161" x2="20.3226" y2="33.6774" gradientUnits="userSpaceOnUse">
<stop stop-color="#FBA2B8"/>
<stop offset="1" stop-color="#C45ED3"/>
</linearGradient>
<linearGradient id="paint4_linear" x1="20.3226" y1="34.8389" x2="20.3226" y2="36.0002" gradientUnits="userSpaceOnUse">
<stop stop-color="#FBA2B8"/>
<stop offset="1" stop-color="#C45ED3"/>
</linearGradient>
<linearGradient id="paint5_linear" x1="23.8065" y1="32.5161" x2="23.8065" y2="33.6774" gradientUnits="userSpaceOnUse">
<stop stop-color="#FBA2B8"/>
<stop offset="1" stop-color="#C45ED3"/>
</linearGradient>
<linearGradient id="paint6_linear" x1="23.8065" y1="34.8389" x2="23.8065" y2="36.0002" gradientUnits="userSpaceOnUse">
<stop stop-color="#FBA2B8"/>
<stop offset="1" stop-color="#C45ED3"/>
</linearGradient>
<linearGradient id="paint7_linear" x1="30.1936" y1="20.333" x2="30.1936" y2="27.871" gradientUnits="userSpaceOnUse">
<stop stop-color="#FBA2B8"/>
<stop offset="1" stop-color="#C45ED3"/>
</linearGradient>
<linearGradient id="paint8_linear" x1="28.4516" y1="29.0322" x2="28.4516" y2="30.1935" gradientUnits="userSpaceOnUse">
<stop stop-color="#FBA2B8"/>
<stop offset="1" stop-color="#C45ED3"/>
</linearGradient>
<linearGradient id="paint9_linear" x1="28.4516" y1="31.355" x2="28.4516" y2="32.5163" gradientUnits="userSpaceOnUse">
<stop stop-color="#FBA2B8"/>
<stop offset="1" stop-color="#C45ED3"/>
</linearGradient>
<linearGradient id="paint10_linear" x1="31.9355" y1="29.0322" x2="31.9355" y2="30.1935" gradientUnits="userSpaceOnUse">
<stop stop-color="#FBA2B8"/>
<stop offset="1" stop-color="#C45ED3"/>
</linearGradient>
<linearGradient id="paint11_linear" x1="31.9355" y1="31.355" x2="31.9355" y2="32.5163" gradientUnits="userSpaceOnUse">
<stop stop-color="#FBA2B8"/>
<stop offset="1" stop-color="#C45ED3"/>
</linearGradient>
</defs>
</svg>
