<svg width="105" height="163" viewBox="0 0 105 163" fill="none" xmlns="http://www.w3.org/2000/svg">
<g clip-path="url(#clip0)">
<path fill-rule="evenodd" clip-rule="evenodd" d="M86.5796 8.92717C91.5515 7.86808 97.2277 6.78073 102.913 6.53443C103.236 6.49445 103.564 6.55504 103.852 6.70789C104.023 6.84123 104.164 7.0095 104.265 7.20139C104.366 7.39328 104.424 7.60436 104.436 7.82045C104.754 9.92712 104.733 12.0705 104.374 14.1702C104.05 23.287 99.4797 32.7689 90.4561 43.0824C87.2984 46.6885 83.4121 50.733 78.5308 53.3617C73.3622 56.1464 67.7251 56.8344 63.0681 55.2504C62.4962 55.0487 61.9394 54.8067 61.4021 54.5262C59.8847 54.2305 58.4161 53.7261 57.0384 53.0276C47.6522 59.4948 38.6787 66.8258 29.9997 73.9217C26.6731 76.64 -76.7864 150.509 -80.212 153.241C-80.3992 153.062 -80.6292 152.933 -80.8802 152.867C-77.381 150.079 26.1522 76.1491 29.5463 73.3732C38.1514 66.3406 47.0445 59.0787 56.3524 52.641C56.2572 52.5842 56.1587 52.5303 56.0666 52.4706C54.2677 52.9513 52.0274 53.1222 50.8822 51.5277C50.8621 51.5022 50.8482 51.474 50.8311 51.4487C38.5629 60.703 -73.9255 141.015 -86.4228 150.13C-86.3282 149.903 -86.2271 149.67 -86.1188 149.416C-86.0531 149.26 -86.0075 149.096 -85.9831 148.928C-73.7408 139.996 38.4893 59.8721 50.5053 50.8061C50.0303 49.5454 50.023 47.4909 50.0233 45.6473C50.0223 44.7774 50.0221 43.9532 49.9664 43.3674C49.5015 38.5329 49.3373 32.2765 52.1976 26.7687C53.3941 24.4651 55.1451 22.2421 57.5521 19.9768C65.2413 12.7319 75.9821 8.73422 86.5796 8.92717ZM103.795 12.0137L103.904 11.9196C103.997 10.5896 103.94 9.25325 103.733 7.93578C103.727 7.69998 103.632 7.47495 103.468 7.30458C103.302 7.23692 103.121 7.2152 102.943 7.24171C98.2953 7.44309 93.6482 8.21621 89.3836 9.07139C90.0802 9.134 90.7757 9.2164 91.4705 9.31401C92.7743 8.92636 94.109 8.65041 95.4603 8.48918L95.5004 8.84104C94.4449 8.97109 93.3997 9.17327 92.3722 9.44615L92.5091 9.4685L92.3625 9.86992C92.2552 10.1632 92.1485 10.4458 92.0384 10.7349C92.4005 10.6182 92.7656 10.5018 93.1247 10.3834C94.533 9.91786 96.1319 9.39078 97.501 8.49622L97.6975 8.79237C96.2902 9.71243 94.6664 10.2474 93.2363 10.7194C92.7866 10.8675 92.335 11.0141 91.8814 11.1593C91.7391 11.5356 91.5999 11.9127 91.4549 12.2825C91.5327 12.2621 91.6104 12.2435 91.6883 12.2216C94.5096 11.4142 97.1484 10.0754 99.4613 8.2778L99.6802 8.55652C97.3311 10.3813 94.6518 11.7411 91.7873 12.5621C91.6253 12.6081 91.4606 12.6475 91.2958 12.6893C91.1682 13.0185 91.0407 13.3476 90.9134 13.6719C90.9823 13.6449 91.0482 13.6178 91.1171 13.5909C91.5209 13.439 91.9277 13.2898 92.3344 13.1402C94.4433 12.3642 96.6241 11.5635 98.5459 10.3694C99.2847 9.91108 99.9898 9.39451 100.669 8.89463L100.882 9.18031C100.196 9.68414 99.4844 10.2047 98.7359 10.6699C96.7793 11.8838 94.5829 12.6913 92.4584 13.4732C92.0516 13.6222 91.645 13.7708 91.2442 13.9225C91.0721 13.9859 90.9059 14.0549 90.7367 14.1218C90.5042 14.6999 90.2711 15.269 90.0375 15.8291L90.1501 15.7894C92.7599 14.8815 95.4751 13.8369 97.4819 11.9489L97.7264 12.2057C95.668 14.1423 92.9121 15.2026 90.2678 16.1233L89.8521 16.2682C89.6141 16.8333 89.3733 17.3935 89.1331 17.9426C90.0673 17.5775 90.9747 17.1477 91.8485 16.6566C93.0258 15.9715 94.4707 15.0375 96.0013 14.0491C97.9669 12.7797 99.9991 11.4678 101.565 10.6225L101.736 10.9335C100.18 11.772 98.1539 13.08 96.1977 14.3459C94.6608 15.3364 93.2127 16.2727 92.0261 16.9621C91.0296 17.5196 89.9931 18.0031 88.9249 18.4086C88.7097 18.8898 88.4945 19.3698 88.2768 19.8402C89.9756 19.0411 91.7281 18.2116 93.2592 17.0959C93.843 16.6682 94.4109 16.1913 94.9598 15.7276C96.1055 14.7623 97.2897 13.7645 98.6984 13.1741L98.838 13.5009C97.4764 14.0714 96.3146 15.0515 95.1914 15.9982C94.6362 16.4657 94.0648 16.9489 93.4684 17.382C91.8894 18.5343 90.0931 19.3793 88.3566 20.1962C88.2497 20.2456 88.1426 20.2981 88.0388 20.3476C87.7215 21.021 87.4018 21.6831 87.0796 22.3338L88.7706 21.3897C89.236 21.1417 89.6867 20.8675 90.1206 20.5683C90.4619 20.3205 90.7867 20.0351 91.1018 19.7584C91.2818 19.6004 91.4619 19.4413 91.6478 19.2891C92.2474 18.7936 92.887 18.3564 93.5073 17.9343L97.2078 15.4066L97.4106 15.6988L93.7071 18.2261C93.0962 18.6441 92.463 19.0774 91.8763 19.5607C91.6935 19.7115 91.5166 19.8675 91.3397 20.024C91.015 20.3064 90.6839 20.5975 90.3299 20.8539C89.8855 21.1623 89.423 21.4441 88.9449 21.6979L86.802 22.8933C86.4495 23.5954 86.0947 24.2852 85.7314 24.9592C92.11 21.1597 98.1529 16.829 103.795 12.0137ZM71.4712 55.0868C71.7738 54.8735 72.0794 54.6604 72.3817 54.4532C78.5949 50.1659 85.0182 45.7338 89.8823 39.878L90.1561 40.1028C85.2624 45.9967 78.8169 50.443 72.5846 54.7446C72.5049 54.8015 72.4221 54.8582 72.3394 54.915C74.3828 54.4649 76.3527 53.7327 78.1917 52.7395C82.975 50.1637 86.8031 46.1772 89.9186 42.6178C98.3256 33.0079 102.805 24.1562 103.557 15.6736C103.514 15.6048 103.467 15.5383 103.417 15.4746C103.507 15.0325 103.585 14.6018 103.653 14.1762C103.666 13.7972 103.686 13.4179 103.684 13.0403C97.8698 17.9461 91.6398 22.3425 85.0635 26.1803C84.8773 26.5156 84.6859 26.8353 84.4971 27.1613C84.6798 27.0701 84.8655 26.982 85.0453 26.8875C87.2783 25.6621 89.4361 24.3061 91.5077 22.8268L96.2429 19.5807L96.4457 19.8726L91.7074 23.1179C89.6254 24.605 87.4569 25.9685 85.2132 27.2014C84.8756 27.3793 84.5265 27.5413 84.1834 27.7067C84.0856 27.8756 83.9908 28.0477 83.8902 28.2134L94.2953 22.3392L94.4697 22.6474L83.5079 28.8377C83.1289 29.4591 82.7454 30.069 82.3574 30.6675C85.1641 29.4545 88.0354 28.1808 90.5919 26.4665C93.8318 24.2962 96.5548 21.4398 99.1716 18.6185C99.266 18.6939 99.3509 18.7713 99.4387 18.8552C96.8058 21.6909 94.0633 24.5676 90.7915 26.7607C88.057 28.594 84.9802 29.9242 82.001 31.2076C81.6082 31.7977 81.2128 32.3816 80.809 32.9498C83.2299 31.7779 85.672 30.6519 88.1353 29.5717L88.3362 29.4844C89.3699 29.0596 90.3769 28.5736 91.352 28.0289C94.1249 26.4021 96.2279 23.9013 98.2592 21.4822L98.5328 21.7101C96.4819 24.1525 94.3593 26.6768 91.5326 28.3343C90.5451 28.8859 89.5255 29.3784 88.479 29.8092L88.2811 29.8967C85.6222 31.0593 82.9892 32.2782 80.3818 33.5534C80.2957 33.6741 80.2126 33.798 80.1267 33.9156C80.9427 33.8632 81.7553 33.8198 82.5712 33.7705C85.1201 32.6174 87.7236 31.4184 90.1805 30.0255C95.1546 27.2033 98.6446 24.0569 100.847 20.4053L101.154 20.5882C98.9179 24.2908 95.3858 27.4808 90.3579 30.3338C88.1573 31.5782 85.8448 32.6702 83.5564 33.7116C84.6737 33.6504 85.7817 33.5918 86.8926 33.5363C90.8062 31.2208 94.6262 28.6959 97.8594 25.5302L98.1103 25.7813C95.0065 28.8194 91.3747 31.2655 87.6433 33.5019C88.3141 33.4695 88.9852 33.431 89.6526 33.4045C92.153 31.6697 94.5625 29.8089 96.8717 27.8293L97.1066 28.0948C94.9404 29.9789 92.634 31.7244 90.2856 33.3915L90.104 33.8765C89.5633 35.3072 88.9282 36.7009 88.203 38.0483C91.2099 35.7607 93.9815 33.1825 96.4772 30.3514L96.7475 30.5852C94.0512 33.6328 91.0446 36.3944 87.776 38.8259C86.6934 40.7282 85.4362 42.5269 84.0203 44.1988C87.4594 41.4436 90.4159 38.1079 93.2881 34.8594L93.5553 35.0929C90.2787 38.8028 86.8858 42.6226 82.7823 45.5845C81.1599 47.3179 79.3635 48.8818 77.4211 50.2517C75.0968 51.9202 72.5158 53.2029 69.7783 54.0499C69.201 54.4717 68.6303 54.9021 68.0664 55.3409C67.8921 55.3288 67.7178 55.3167 67.5375 55.3013C67.9757 54.9577 68.4226 54.6268 68.8695 54.2928C67.5433 54.6332 66.1825 54.8238 64.8132 54.8612C64.6256 54.8667 64.4294 54.8627 64.2302 54.8585C66.5991 55.4544 69.0696 55.5324 71.4711 55.087L71.4712 55.0868ZM77.7226 45.0784C76.3111 46.3178 74.4771 46.8822 72.5689 47.3969C70.8632 47.855 69.1188 48.2897 67.4303 48.712C63.7643 49.6272 59.9981 50.5799 56.3635 51.8355C56.7577 52.0913 57.1669 52.3235 57.5889 52.5307C61.5908 50.8302 65.7739 49.5865 70.0581 48.8237C70.3214 48.7762 70.5878 48.729 70.851 48.6846C72.1289 48.5024 73.3897 48.2176 74.6212 47.8328C77.2829 46.9046 79.5304 45.0736 80.9692 42.6612L81.2762 42.8389C79.7947 45.3255 77.4789 47.2126 74.7359 48.1684C73.4866 48.5603 72.2068 48.8493 70.9097 49.0325C70.6464 49.08 70.3832 49.1243 70.1199 49.1717C65.9679 49.9124 61.9112 51.1069 58.0235 52.7333C58.586 52.9844 59.163 53.2018 59.7516 53.3844C61.6577 52.3624 63.6766 51.5635 65.7679 51.0037C66.5518 50.8032 67.3582 50.6404 68.1397 50.4855C69.8362 50.146 71.5884 49.7971 73.1475 49.0293L73.306 49.3458C71.7059 50.1359 69.9258 50.4894 68.2076 50.8339C67.4322 50.9891 66.629 51.149 65.8575 51.3472C63.9107 51.8662 62.028 52.599 60.2443 53.532C60.9097 53.7177 61.5858 53.8627 62.269 53.9664C63.9781 53.2212 65.7431 52.6094 67.5478 52.1366L73.932 50.2969L74.0312 50.6348L67.6437 52.4773C66.0516 52.9077 64.4877 53.4353 62.961 54.0572C63.5715 54.1295 64.1859 54.1623 64.8006 54.1555C68.7272 54.0779 72.9509 52.5293 77.009 49.6748C82.5165 45.7818 86.7671 40.3807 89.2438 34.1281C85.4568 34.2953 81.6183 34.5086 77.8205 34.7669C70.7948 35.2426 64.0264 35.9636 58.4682 39.5157C56.5828 40.7183 54.2243 43.0564 53.5047 45.5738C57.7329 40.9967 63.2899 37.8429 69.4042 36.5502L69.4754 36.8958C63.2269 38.2152 57.5733 41.5016 53.3521 46.268C53.2588 46.8516 53.2748 47.4475 53.3993 48.0255C58.7409 43.0246 65.4805 39.7748 73.0305 36.4052L73.1734 36.727C65.5919 40.1133 58.8301 43.3772 53.5051 48.4125C53.5537 48.5788 53.613 48.742 53.6824 48.9008C53.721 48.9853 53.7693 49.061 53.8112 49.1395C58.8397 45.8012 64.3555 43.187 69.7195 40.6596L73.9728 38.6577C75.8112 37.7359 77.7159 36.9511 79.6713 36.3095L79.7733 36.6505C77.8355 37.2866 75.9476 38.0642 74.1251 38.9769L69.8716 40.9819C64.5108 43.5064 58.995 46.1205 53.9822 49.4536C54.03 49.5385 54.084 49.6206 54.1381 49.7028C58.8484 47.4102 63.7895 45.5232 68.5926 43.6932C73.114 41.9677 77.7917 40.1862 82.2284 38.0809L82.3838 38.4002C77.9315 40.5108 73.2472 42.2982 68.7197 44.0234C63.9418 45.8425 59.0288 47.7217 54.3501 49.9946C54.553 50.2689 54.7767 50.5274 55.0191 50.7678C58.0175 49.3511 61.2929 48.5134 64.4866 47.7111L65.6683 47.4122C69.8359 46.3551 74.1833 45.0875 77.6456 42.3579C77.6682 42.4366 77.7026 42.5114 77.7476 42.58C77.7734 42.6149 77.8065 42.6288 77.8324 42.6606C74.3198 45.4151 69.9475 46.6905 65.7549 47.7554L64.5731 48.0544C61.4448 48.8387 58.2408 49.6618 55.3067 51.0238C55.5297 51.2216 55.7625 51.4076 56.005 51.585C59.7281 50.279 63.5877 49.3037 67.3438 48.3688C69.0291 47.9493 70.7735 47.5146 72.4763 47.0533C74.3438 46.5518 76.1341 46.0004 77.4878 44.813L77.7226 45.0784ZM55.2816 51.923C54.6646 51.452 54.1186 50.8954 53.6606 50.2702C53.417 49.9321 53.2064 49.5717 53.0319 49.1938C52.9768 49.0719 52.9433 48.9481 52.9005 48.8268C52.3705 49.5197 51.8581 50.2257 51.3576 50.9415C52.1327 52.2151 53.8269 52.2173 55.2816 51.9232L55.2816 51.923ZM51.1774 50.569C51.6906 49.8447 52.2176 49.1323 52.7582 48.4318C52.5914 47.8067 52.5438 47.1562 52.6181 46.5138C52.0042 47.3062 51.4137 48.118 50.8469 48.9494C50.8874 49.5011 50.9985 50.0454 51.1774 50.5693L51.1774 50.569ZM50.4405 39.8418C50.4486 40.0406 50.4566 40.2425 50.4647 40.4413C51.9325 37.5657 53.5855 34.7874 55.4132 32.1236C54.6832 33.0016 53.9997 33.9168 53.3653 34.8654C52.4333 36.267 51.6043 37.7563 50.7992 39.1981L50.4405 39.8418ZM58.0412 20.4902C55.6923 22.7005 53.9874 24.8618 52.8283 27.0941C52.2075 28.3028 51.7139 29.5722 51.3554 30.8819C53.8687 26.5774 56.9632 22.6359 60.5528 19.1673L60.8006 19.4213C56.9218 23.1734 53.6275 27.4799 51.0264 32.1988C50.7584 33.4562 50.5827 34.7315 50.5005 36.0144C50.6389 35.7712 50.7804 35.5282 50.9248 35.2885C51.6402 33.7414 52.3848 32.1653 53.2272 30.6553C56.3159 25.123 60.7042 20.4161 66.0181 16.9357L66.2146 17.2319C60.9487 20.6812 56.5995 25.3454 53.5375 30.8273C53.1687 31.4889 52.8205 32.1668 52.4843 32.8514C57.9618 24.7958 65.5515 18.3848 74.4318 14.3126L74.5778 14.6348C64.881 19.084 56.7542 26.3294 51.2519 35.4309C51.1517 35.6485 51.0484 35.866 50.9513 36.0807C50.7786 36.4533 50.6086 36.8322 50.4357 37.2078C50.414 37.8629 50.4103 38.5078 50.4245 39.1423L50.4887 39.0297C51.2941 37.5819 52.1297 36.0837 53.0683 34.6733C54.3209 32.7942 55.7595 31.0445 57.3625 29.4503C58.5135 27.9389 59.7867 26.5236 61.1696 25.2186C64.1557 22.4369 67.7334 20.3237 71.194 18.2793C73.0716 17.1696 75.0155 16.0231 76.8415 14.7825L77.0412 15.0749C75.2056 16.3229 73.2585 17.4714 71.3747 18.5835C67.93 20.6178 64.3683 22.7195 61.4111 25.4753C60.7144 26.126 60.0304 26.8292 59.3426 27.6055C62.691 24.7393 66.4571 22.3944 70.5126 20.6507C70.8801 20.4896 71.2504 20.3318 71.6208 20.1739C73.1742 19.5157 74.7809 18.8364 76.1608 17.8526C77.7891 16.6956 79.0719 15.1571 80.2141 13.6672L80.4976 13.8818C79.3359 15.3933 78.0334 16.9561 76.3699 18.1406C74.9551 19.147 73.3326 19.8352 71.7605 20.4986C71.3932 20.6566 71.0229 20.8145 70.6554 20.9755C65.8046 23.0442 61.3866 25.9979 57.6297 29.684C57.0411 30.441 56.4436 31.2525 55.8297 32.1425C53.8432 35.0136 52.0639 38.0212 50.5051 41.1427C50.5495 41.8867 50.6072 42.61 50.6728 43.3001C50.6811 43.3769 50.6858 43.4626 50.6909 43.5422C55.1532 36.3776 61.3318 27.9557 70.2484 22.9689C70.9532 22.5751 71.6849 22.1978 72.3883 21.8313C74.2299 20.8828 76.1317 19.8977 77.718 18.5443C78.5258 17.8271 79.2899 17.0626 80.0064 16.2551C81.0013 15.1794 82.0288 14.0663 83.2607 13.2153L83.4666 13.5062C82.2666 14.335 81.2521 15.4332 80.2703 16.4946C79.5433 17.3113 78.7695 18.0854 77.9527 18.8131C76.3342 20.1945 74.4137 21.1853 72.5532 22.1451C71.8499 22.5085 71.1213 22.8859 70.4228 23.2771C61.3925 28.3251 55.1789 36.9466 50.7198 44.1694C50.7332 44.6218 50.7351 45.1195 50.7359 45.6384C52.0084 43.7104 53.3812 41.8498 54.8488 40.0642C59.3569 34.4433 64.7785 28.1952 72.0914 25.1368C72.6184 24.9169 73.157 24.7097 73.6955 24.5056C75.571 23.7908 77.5092 23.0518 78.917 21.6473C79.3298 21.2193 79.7142 20.7651 80.0678 20.2876C80.2552 20.047 80.4394 19.8093 80.6357 19.5753L80.9095 19.8001C80.7195 20.0314 80.5354 20.266 80.3513 20.5037C79.9873 20.9916 79.5933 21.4564 79.1712 21.8955C77.7084 23.3551 75.7326 24.1074 73.8227 24.8357C73.2872 25.04 72.7519 25.2443 72.2311 25.4615C64.9936 28.4871 59.6076 34.7005 55.126 40.283C53.5444 42.2054 52.0781 44.2189 50.7348 46.3129C50.7389 47.0029 50.7537 47.724 50.7987 48.3978C51.4156 47.508 52.0611 46.64 52.7352 45.7938C53.375 42.9211 55.9898 40.2576 58.0846 38.9223C58.7631 38.4899 59.4639 38.0932 60.1841 37.7337C61.5542 36.4067 62.9417 35.0989 64.3222 33.809C67.8281 30.5323 71.4503 27.1456 75.7812 24.8303L75.9523 25.1413C71.6593 27.4342 68.0534 30.8065 64.5667 34.0659C63.4378 35.1215 62.3022 36.1891 61.172 37.269C62.2027 36.8136 63.2603 36.4209 64.339 36.093C65.407 35.0861 66.4759 34.0854 67.5453 33.0907C69.3605 31.3474 71.2652 29.6987 73.252 28.1515C73.7182 27.8032 74.19 27.4645 74.6649 27.1258C75.6681 26.4345 76.6338 25.6908 77.5579 24.8978C79.3501 23.3027 80.7904 21.3292 82.1844 19.4216L85.3854 15.0395L85.6754 15.2474L82.4744 19.6296C81.0675 21.5499 79.6172 23.5381 77.7959 25.1623C76.862 25.9639 75.8856 26.7152 74.871 27.413C74.3993 27.7488 73.9275 28.0876 73.4676 28.4331C71.4903 29.9726 69.5952 31.6136 67.7897 33.3494C66.8935 34.179 65.9935 35.0237 65.0934 35.8684C66.6657 35.4359 68.2626 35.0976 69.8756 34.8553C70.912 33.9872 71.9738 33.16 73.0192 32.3534L78.6651 27.997L78.8839 28.2769L73.238 32.6333C72.3524 33.317 71.4593 34.0277 70.5745 34.7541C71.6133 34.6095 72.6602 34.4866 73.7214 34.3828C74.2482 33.9889 74.7754 33.5889 75.2822 33.1664C78.682 30.339 81.2949 26.5857 83.4761 23.2861L83.7731 23.4785C81.5785 26.7987 78.9487 30.5817 75.5106 33.4377C75.1449 33.7423 74.7676 34.0341 74.3905 34.3229C74.9487 34.2724 75.5098 34.2251 76.0737 34.1811C78.6948 31.459 81.1666 28.5985 83.4785 25.6121L83.7621 25.8252C81.5236 28.7213 79.1321 31.4972 76.5976 34.1411C76.9889 34.1125 77.3802 34.0839 77.7713 34.0583C78.2488 34.025 78.7288 34.0011 79.2092 33.971C83.9393 27.6199 87.8732 19.9884 91.5438 10.0311C79.6106 8.24719 66.808 12.231 58.0411 20.4905L58.0412 20.4902ZM79.442 26.1519C78.6783 26.8116 77.8491 27.3925 76.9674 27.8857L76.5808 28.119C73.2039 30.2042 70.0455 32.6205 67.153 35.3318C67.3766 35.2824 67.5969 35.2358 67.823 35.1956C70.5789 32.6575 73.5733 30.3881 76.7649 28.4185L77.1514 28.1851C78.0558 27.6842 78.9045 27.0897 79.6833 26.4116C80.4743 25.6173 81.1744 24.7384 81.771 23.7909C82.5814 22.6028 83.3453 21.4825 84.4754 20.7016L84.2695 20.4102C83.0883 21.2311 82.268 22.4309 81.4774 23.5926C80.8949 24.5171 80.2123 25.3754 79.442 26.1522L79.442 26.1519Z" fill="url(#paint0_linear)" fill-opacity="0.6"/>
</g>
<defs>
<linearGradient id="paint0_linear" x1="13.2002" y1="1.86667" x2="5.1363" y2="157.659" gradientUnits="userSpaceOnUse">
<stop stop-color="#FBA2B8"/>
<stop offset="1" stop-color="#CB72D9"/>
</linearGradient>
<clipPath id="clip0">
<rect width="128" height="156" fill="white" transform="matrix(-0.998663 -0.0516914 -0.0516914 0.998663 104.893 6.6167)"/>
</clipPath>
</defs>
</svg>
