<svg width="36" height="36" viewBox="0 0 36 36" fill="none" xmlns="http://www.w3.org/2000/svg">
<g clip-path="url(#clip0)">
<path d="M19.7672 18.8935C19.7672 19.1848 20.0033 19.4209 20.2945 19.4209C20.5857 19.4209 20.8219 19.1848 20.8219 18.8935V6.89006C20.8219 5.91567 21.6146 5.12297 22.5889 5.12297C23.5633 5.12297 24.356 5.91567 24.356 6.89006V8.32071C24.356 8.61195 24.5922 8.84805 24.8834 8.84805C25.1746 8.84805 25.4107 8.61195 25.4107 8.32071V6.89006C25.4107 5.33412 24.1449 4.06828 22.5889 4.06828C21.9206 4.06828 21.3058 4.30179 20.8219 4.6916V2.82178C20.8219 1.26584 19.556 0 18.0001 0C16.4441 0 15.1783 1.26584 15.1783 2.82178V4.6916C14.6943 4.30186 14.0794 4.06828 13.4112 4.06828C11.8553 4.06828 10.5894 5.33412 10.5894 6.89006V13.3004C9.75706 12.305 8.50627 11.6706 7.11028 11.6706C6.49842 11.6706 6.00061 12.1684 6.00061 12.7803V16.3999C6.00061 16.6911 6.23672 16.9272 6.52795 16.9272C6.81919 16.9272 7.0553 16.6911 7.0553 16.3999V12.7803C7.0553 12.75 7.07998 12.7253 7.11028 12.7253C9.02869 12.7253 10.5894 14.286 10.5894 16.2044V18.8935C10.5894 19.1848 10.8255 19.4209 11.1168 19.4209C11.408 19.4209 11.6441 19.1848 11.6441 18.8935V6.89006C11.6441 5.91567 12.4368 5.12297 13.4112 5.12297C14.3856 5.12297 15.1783 5.91567 15.1783 6.89006V18.8936C15.1783 19.1848 15.4144 19.4209 15.7056 19.4209C15.9969 19.4209 16.233 19.1848 16.233 18.8936V2.82178C16.233 1.84739 17.0257 1.05469 18.0001 1.05469C18.9745 1.05469 19.7672 1.84739 19.7672 2.82178V18.8935Z" fill="url(#paint0_linear)"/>
<path d="M24.356 18.8937C24.356 19.1849 24.5921 19.421 24.8833 19.421C25.1746 19.421 25.4107 19.1849 25.4107 18.8937V16.2046C25.4107 14.2861 26.9714 12.7254 28.8899 12.7254C28.9202 12.7254 28.9449 12.7501 28.9449 12.7804V24.0006C28.9449 30.0356 24.0351 34.9454 18 34.9454C11.965 34.9454 7.05518 30.0356 7.05518 24.0006V18.6983C7.05518 18.407 6.81907 18.1709 6.52783 18.1709C6.2366 18.1709 6.00049 18.407 6.00049 18.6983V24.0006C6.00049 30.6171 11.3835 36.0001 18 36.0001C24.6166 36.0001 29.9995 30.6171 29.9995 24.0006V12.7804C29.9995 12.1685 29.5017 11.6707 28.8899 11.6707C27.4937 11.6707 26.243 12.305 25.4107 13.3006V10.6191C25.4107 10.3279 25.1746 10.0918 24.8833 10.0918C24.5921 10.0918 24.356 10.3279 24.356 10.6191V18.8937Z" fill="url(#paint1_linear)"/>
<path d="M22.4544 24.521C22.5989 24.8356 22.7111 25.169 22.786 25.5172C22.8473 25.8019 23.1278 25.9828 23.4126 25.9217C23.6973 25.8604 23.8784 25.5799 23.8171 25.2951C23.5351 23.9856 22.8055 22.7952 21.7626 21.943C20.7047 21.0786 19.3684 20.6025 17.9999 20.6025C14.7187 20.6025 12.0493 23.272 12.0493 26.5531C12.0493 29.8342 14.7187 32.5036 17.9999 32.5036C19.3669 32.5036 20.702 32.0285 21.7593 31.1659C22.8015 30.3155 23.5317 29.1272 23.8152 27.8197C23.8769 27.5351 23.6962 27.2542 23.4116 27.1926C23.1271 27.1308 22.8462 27.3115 22.7845 27.5962C22.7095 27.9418 22.5977 28.2727 22.4542 28.5852L19.0326 26.5532L22.4544 24.521ZM13.1041 26.5531C13.1041 25.8287 13.2635 25.1411 13.547 24.5219L16.9672 26.5531L13.547 28.5843C13.2635 27.9651 13.1041 27.2776 13.1041 26.5531ZM21.9126 23.6161L18.5273 25.6266V21.6872C19.8878 21.8364 21.1096 22.5541 21.9126 23.6161ZM17.4726 21.6861V25.6266L14.0861 23.6154C14.8805 22.5597 16.0914 21.8348 17.4726 21.6861ZM14.0861 29.4909L17.4726 27.4797V31.4202C16.0914 31.2716 14.8805 30.5466 14.0861 29.4909ZM18.5273 31.419V27.4797L21.9125 29.4901C21.1092 30.552 19.8872 31.2697 18.5273 31.419Z" fill="url(#paint2_linear)"/>
<path d="M8.83043 6.40227C8.83043 5.13257 7.79747 4.09961 6.52776 4.09961C5.25806 4.09961 4.2251 5.13257 4.2251 6.40227C4.2251 7.67198 5.25806 8.70494 6.52776 8.70494C7.79747 8.70487 8.83043 7.67191 8.83043 6.40227ZM5.27986 6.40227C5.27986 5.71413 5.83968 5.1543 6.52783 5.1543C7.21598 5.1543 7.77581 5.71413 7.77581 6.40227C7.77581 7.09042 7.21598 7.65025 6.52783 7.65025C5.83968 7.65018 5.27986 7.09035 5.27986 6.40227Z" fill="url(#paint3_linear)"/>
<path d="M29.4722 4.09961C28.2025 4.09961 27.1696 5.13257 27.1696 6.40227C27.1696 7.67198 28.2025 8.70494 29.4722 8.70494C30.7419 8.70494 31.7749 7.67198 31.7749 6.40227C31.7749 5.1325 30.7419 4.09961 29.4722 4.09961ZM29.4722 7.65018C28.7841 7.65018 28.2242 7.09035 28.2242 6.4022C28.2242 5.71405 28.7841 5.15423 29.4722 5.15423C30.1604 5.15423 30.7202 5.71405 30.7202 6.4022C30.7202 7.09035 30.1604 7.65018 29.4722 7.65018Z" fill="url(#paint4_linear)"/>
</g>
<defs>
<linearGradient id="paint0_linear" x1="15.7057" y1="0" x2="15.7057" y2="19.4209" gradientUnits="userSpaceOnUse">
<stop stop-color="#C45ED3"/>
<stop offset="1" stop-color="#FBA2B8"/>
</linearGradient>
<linearGradient id="paint1_linear" x1="18" y1="10.0918" x2="18" y2="36.0001" gradientUnits="userSpaceOnUse">
<stop stop-color="#C45ED3"/>
<stop offset="1" stop-color="#FBA2B8"/>
</linearGradient>
<linearGradient id="paint2_linear" x1="17.9392" y1="20.6025" x2="17.9392" y2="32.5036" gradientUnits="userSpaceOnUse">
<stop stop-color="#C45ED3"/>
<stop offset="1" stop-color="#FBA2B8"/>
</linearGradient>
<linearGradient id="paint3_linear" x1="6.52776" y1="4.09961" x2="6.52776" y2="8.70494" gradientUnits="userSpaceOnUse">
<stop stop-color="#C45ED3"/>
<stop offset="1" stop-color="#FBA2B8"/>
</linearGradient>
<linearGradient id="paint4_linear" x1="29.4722" y1="4.09961" x2="29.4722" y2="8.70494" gradientUnits="userSpaceOnUse">
<stop stop-color="#C45ED3"/>
<stop offset="1" stop-color="#FBA2B8"/>
</linearGradient>
<clipPath id="clip0">
<rect width="36" height="36" fill="white"/>
</clipPath>
</defs>
</svg>
