<svg width="55" height="62" viewBox="0 0 55 62" fill="none" xmlns="http://www.w3.org/2000/svg">
<g filter="url(#filter0_d)">
<path d="M44.9628 21.3332C45.0246 11.4609 37.2028 3.37779 27.5267 3.31418C17.8375 3.25559 9.9271 11.231 9.86475 21.1027C9.81989 28.2428 13.8998 34.4442 19.8214 37.3555L19.8789 52.9515C19.88 53.2863 20.0763 53.5876 20.3783 53.7182C20.4816 53.7634 20.591 53.7852 20.6993 53.7852C20.9066 53.7852 21.1107 53.7048 21.2665 53.5536L27.3304 47.6445L33.4352 53.5123C33.6737 53.7422 34.0249 53.803 34.3241 53.6708C34.6249 53.538 34.8191 53.2349 34.818 52.9001L34.766 37.4693C40.7429 34.6429 44.918 28.4866 44.9628 21.3332ZM33.1705 50.9582L27.8883 45.8817C27.571 45.5765 27.0749 45.5781 26.7593 45.8856L21.5127 50.9983L21.4651 38.0592C23.2898 38.7322 25.2529 39.1083 27.3008 39.1217C27.3391 39.1217 27.3769 39.1222 27.4151 39.1222C29.4138 39.1222 31.3343 38.7746 33.1267 38.1429L33.1705 50.9582ZM27.4151 37.4481C27.3812 37.4481 27.3457 37.4476 27.3118 37.4476C18.5398 37.3901 11.4493 30.0631 11.5062 21.1133C11.5626 12.1992 18.6881 4.98773 27.413 4.98773C27.4469 4.98773 27.4824 4.98773 27.5163 4.98773C36.2877 5.04576 43.3782 12.3728 43.3219 21.322C43.2661 30.2361 36.14 37.4481 27.4151 37.4481Z" fill="white"/>
<path d="M35.3901 18.6456L30.4017 17.8733L28.1995 13.245C28.0633 12.9581 27.7789 12.7757 27.4671 12.7734C27.4655 12.7734 27.4638 12.7734 27.4616 12.7734C27.1515 12.7734 26.8676 12.952 26.7281 13.2355L24.468 17.8348L19.4724 18.5413C19.1634 18.5854 18.9047 18.8041 18.8068 19.1066C18.7083 19.409 18.7865 19.7422 19.0092 19.966L22.5979 23.5815L21.714 28.6473C21.6593 28.9609 21.7834 29.279 22.035 29.4682C22.2867 29.6574 22.6214 29.6836 22.8987 29.5374L27.3769 27.1724L31.8276 29.596C31.9491 29.6618 32.0814 29.6948 32.2138 29.6948C32.3823 29.6948 32.5496 29.6417 32.6919 29.5379C32.9457 29.3527 33.0742 29.0363 33.0233 28.7215L32.2029 23.6445L35.837 20.0759C36.0618 19.8549 36.1444 19.5229 36.0503 19.2193C35.9546 18.9163 35.6997 18.6936 35.3901 18.6456ZM30.7539 22.7439C30.5597 22.9347 30.4689 23.2109 30.5132 23.4833L31.1335 27.3209L27.769 25.4883C27.6482 25.4224 27.5152 25.3895 27.3823 25.3895C27.2527 25.3895 27.1236 25.4208 27.0055 25.4833L23.6207 27.2706L24.2886 23.4414C24.3362 23.1702 24.2498 22.8929 24.0572 22.6992L21.3448 19.9665L25.1211 19.4319C25.3886 19.394 25.621 19.2243 25.7419 18.9782L27.4501 15.5022L29.1146 19.0006C29.2328 19.2483 29.463 19.4213 29.73 19.4626L33.5014 20.0463L30.7539 22.7439Z" fill="white"/>
</g>
<defs>
<filter id="filter0_d" x="-4" y="0" width="62.8911" height="64" filterUnits="userSpaceOnUse" color-interpolation-filters="sRGB">
<feFlood flood-opacity="0" result="BackgroundImageFix"/>
<feColorMatrix in="SourceAlpha" type="matrix" values="0 0 0 0 0 0 0 0 0 0 0 0 0 0 0 0 0 0 127 0"/>
<feOffset dy="4"/>
<feGaussianBlur stdDeviation="2"/>
<feColorMatrix type="matrix" values="0 0 0 0 0 0 0 0 0 0 0 0 0 0 0 0 0 0 0.12 0"/>
<feBlend mode="normal" in2="BackgroundImageFix" result="effect1_dropShadow"/>
<feBlend mode="normal" in="SourceGraphic" in2="effect1_dropShadow" result="shape"/>
</filter>
</defs>
</svg>
