<svg xmlns="http://www.w3.org/2000/svg" width="48" height="49" fill="none"  ><g clip-path="url(#D)"><path d="M42.186 42.55c-1.894-.708-2.725-2.562-3.051-3.605a.91.91 0 0 0-.87-.639h0a.91.91 0 0 0-.87.639c-.327 1.042-1.157 2.897-3.052 3.605-.359.134-.59.469-.59.854s.232.719.59.853c1.894.708 2.725 2.563 3.051 3.605a.91.91 0 0 0 .87.639h0a.91.91 0 0 0 .87-.639c.326-1.042 1.157-2.897 3.051-3.605.358-.134.59-.469.59-.853s-.232-.719-.59-.854zm-3.921 3.695c-.473-.982-1.244-2.095-2.472-2.842 1.229-.747 1.999-1.86 2.472-2.842.473.982 1.244 2.095 2.472 2.842-1.229.747-1.999 1.86-2.472 2.842z" fill="url(#A)"/><path d="M14.909 13.539h-1.531c-.79 0-1.433.643-1.433 1.432v2.404c0 .551.313 1.029.769 1.269v12.664c0 .989.804 1.793 1.793 1.793h18.986c.989 0 1.793-.804 1.793-1.793v-4.402c0-.388-.315-.703-.703-.703s-.703.315-.703.703v4.402c0 .213-.174.387-.387.387H14.507c-.213 0-.387-.174-.387-.387v-12.5h6.458v8.28c0 .48.262.921.682 1.152s.933.213 1.338-.045L24 27.3l1.401.895c.215.137.461.206.707.206a1.31 1.31 0 0 0 .631-.162c.421-.231.682-.672.682-1.152v-8.28h6.458v4.84c0 .388.315.703.703.703s.703-.315.703-.703v-5.004c.457-.24.769-.718.769-1.269v-2.404c0-.79-.643-1.433-1.433-1.433h-1.531c.192-1.516-.164-3.161-.183-3.244l-.013-.051c-.411-1.36-1.22-1.806-1.826-1.94-1.183-.262-2.68.367-4.577 1.924l-1.017.893a2.91 2.91 0 0 0-1.074-.205h-.802a2.91 2.91 0 0 0-1.074.205l-1.017-.893c-1.897-1.556-3.394-2.185-4.577-1.924-.607.134-1.416.58-1.826 1.94l-.013.051c-.018.083-.375 1.728-.183 3.244zm11.107 13.38l-1.309-.836a1.32 1.32 0 0 0-1.414 0l-1.309.836v-8.111h4.031v8.111zm1.381-15.615c1.45-1.187 2.677-1.781 3.369-1.627.129.028.517.115.776.949.112.522.308 1.865.131 2.914h-4.36c-.062-.598-.305-1.143-.672-1.58l.757-.655zm-3.798 1.017h.802c.735 0 1.35.524 1.49 1.218h-3.782c.141-.694.755-1.218 1.49-1.218zm-7.14-1.696c.259-.834.648-.92.776-.948.691-.153 1.919.44 3.368 1.627l.757.655c-.368.437-.611.982-.672 1.58h-4.36c-.176-1.046.019-2.392.13-2.914zm18.19 4.347v2.404c0 .015-21.298.015-21.298 0v-2.404c0-.014 21.298-.014 21.298 0z" fill="url(#B)"/><path d="M43.347 4.931H17.501c-.388 0-.703.315-.703.703s.315.703.703.703h25.847c1.154 0 2.093.939 2.093 2.093v25.078c0 1.154-.939 2.093-2.093 2.093h-26.23a2.91 2.91 0 0 0-2.495 1.422c-2.079 3.516-5.299 5.337-7.634 6.246-.019.007-.069.027-.12-.028s-.029-.091-.02-.111c.563-1.24.913-2.72 1.042-4.399a2.92 2.92 0 0 0-.766-2.201 2.91 2.91 0 0 0-2.127-.929h-.344c-1.154 0-2.093-.939-2.093-2.093V8.431c0-1.018.73-1.868 1.694-2.055.048.029.098.054.152.074 1.894.708 2.725 2.563 3.051 3.605a.91.91 0 0 0 .87.639h0a.91.91 0 0 0 .87-.639c.327-1.042 1.157-2.897 3.051-3.605a.92.92 0 0 0 .211-.112h1.768c.388 0 .703-.315.703-.703s-.315-.703-.703-.703h-1.675a.91.91 0 0 0-.304-.188c-1.894-.708-2.725-2.563-3.051-3.605C9.078.757 8.728.5 8.327.5h0c-.401 0-.75.257-.87.639C7.131 2.181 6.3 4.035 4.406 4.744a.91.91 0 0 0-.356.241c-1.643.287-2.896 1.722-2.896 3.446v25.078c0 1.929 1.57 3.499 3.499 3.499h.344c.42 0 .809.17 1.095.478a1.49 1.49 0 0 1 .396 1.138c-.116 1.515-.426 2.836-.92 3.925a1.5 1.5 0 0 0 .279 1.659c.293.31.692.476 1.1.476a1.52 1.52 0 0 0 .552-.104c2.542-.989 6.051-2.979 8.334-6.841a1.5 1.5 0 0 1 1.285-.731h26.23c1.93 0 3.499-1.57 3.499-3.499V8.431c0-1.93-1.57-3.499-3.499-3.499zM8.327 2.755c.473.982 1.244 2.095 2.472 2.842-1.229.747-1.999 1.86-2.472 2.842-.473-.982-1.244-2.095-2.472-2.842 1.229-.747 1.999-1.86 2.472-2.842z" fill="url(#C)"/></g><defs><linearGradient id="A" x1="38.264" y1="38.306" x2="38.264" y2="48.5" gradientUnits="userSpaceOnUse"><stop stop-color="#c45ed3"/><stop offset="1" stop-color="#fba2b8"/></linearGradient><linearGradient id="B" x1="24" y1="8.246" x2="24" y2="33.101" gradientUnits="userSpaceOnUse"><stop stop-color="#c45ed3"/><stop offset="1" stop-color="#fba2b8"/></linearGradient><linearGradient id="C" x1="24" y1=".5" x2="24" y2="44.684" gradientUnits="userSpaceOnUse"><stop stop-color="#c45ed3"/><stop offset="1" stop-color="#fba2b8"/></linearGradient><clipPath id="D"><path fill="#fff" transform="translate(0 .5)" d="M0 0h48v48H0z"/></clipPath></defs></svg>