<svg xmlns="http://www.w3.org/2000/svg" width="48" height="48" fill="none"  ><g clip-path="url(#C)"><path d="M45.712 28.115h-.718v-6.47c0-1.024-.51-1.931-1.288-2.482v-.881a2.32 2.32 0 0 0-2.317-2.318h-.536l2.052-3.011a2.22 2.22 0 0 0-.583-3.078L28.395.385a2.2 2.2 0 0 0-1.66-.346 2.2 2.2 0 0 0-1.418.929L13.298 18.605H9.954l.807-8.168c.009-.092.069-.172.152-.203a5.2 5.2 0 0 0 2.537-2.061.24.24 0 0 1 .227-.107l5.246.518c.376.036.711-.237.748-.613s-.238-.711-.613-.748l-5.246-.518a1.6 1.6 0 0 0-1.516.734c-.438.689-1.101 1.227-1.865 1.515a1.6 1.6 0 0 0-1.031 1.349l-.82 8.303h-.872L8.983 5.686a.85.85 0 0 1 .927-.76L20.51 5.973c.376.036.711-.237.748-.613s-.237-.711-.613-.748L10.044 3.565a2.22 2.22 0 0 0-2.422 1.987L6.593 15.964H4.842a2.32 2.32 0 0 0-2.318 2.318v.601c-1.045.481-1.773 1.538-1.773 2.762V44.96c0 1.676 1.364 3.04 3.04 3.04h38.163c1.676 0 3.04-1.364 3.04-3.04v-6.47h.718a1.54 1.54 0 0 0 1.538-1.538v-7.3a1.54 1.54 0 0 0-1.538-1.538zm-4.324-10.783a.95.95 0 0 1 .95.95v.348c-.126-.016-.254-.025-.384-.025h-2.902l.867-1.273h1.469zM26.448 1.739a.84.84 0 0 1 .542-.355.86.86 0 0 1 .16-.015.84.84 0 0 1 .475.147l13.925 9.489a.85.85 0 0 1 .223 1.177l-4.377 6.423h-1.05l2.146-3.149a1.6 1.6 0 0 0 .075-1.696 3.82 3.82 0 0 1-.458-2.359 1.6 1.6 0 0 0-.692-1.535l-7.219-4.919a1.6 1.6 0 0 0-1.682-.082c-.715.395-1.554.55-2.363.436a1.62 1.62 0 0 0-1.551.69l-8.597 12.615h-1.05L26.448 1.739zm.301 11.615c-2.979 0-5.424 2.323-5.623 5.251h-3.467L25.731 6.76c.046-.067.122-.108.2-.108.011 0 .021.001.031.002a5.2 5.2 0 0 0 3.214-.594c.076-.042.175-.036.25.015l7.219 4.919c.076.052.117.141.106.227a5.2 5.2 0 0 0 .623 3.209c.044.078.039.177-.014.254l-2.671 3.919h-2.319c-.199-2.929-2.644-5.251-5.623-5.251zM31 18.605h-8.503c.196-2.174 2.027-3.883 4.251-3.883s4.056 1.71 4.251 3.883zm-27.108-.323a.95.95 0 0 1 .95-.95h1.617l-.126 1.273h-2.44v-.323zm-1.773 3.363c0-.922.75-1.672 1.672-1.672h38.163c.922 0 1.672.75 1.672 1.672v1.898H2.119v-1.898zM43.625 44.96c0 .922-.75 1.672-1.672 1.672H3.791c-.922 0-1.672-.75-1.672-1.672v-1.898h3.688c.378 0 .684-.306.684-.684s-.306-.684-.684-.684H2.119V24.911h41.507v3.204h-6.503c-2.049 0-3.824 1.194-4.666 2.923l-.029.062c-.1.213-.187.434-.258.661-.152.488-.234 1.005-.234 1.541 0 2.86 2.327 5.188 5.187 5.188h6.503v3.204H10.186c-.378 0-.684.306-.684.684s.306.684.684.684h33.439v1.898zm2.256-8.008a.17.17 0 0 1-.17.17h-8.589c-1.448 0-2.71-.81-3.358-2.001l-.084-.165-.145-.343a3.8 3.8 0 0 1-.232-1.312c0-.461.082-.903.232-1.312l.145-.343.084-.165c.648-1.19 1.91-2 3.358-2h8.589a.17.17 0 0 1 .17.17v7.3z" fill="url(#A)"/><path d="M37.283 30.528a2.78 2.78 0 0 0-2.775 2.775 2.78 2.78 0 0 0 2.775 2.775 2.78 2.78 0 0 0 2.775-2.775 2.78 2.78 0 0 0-2.775-2.775zm0 4.182a1.41 1.41 0 0 1-1.407-1.407 1.41 1.41 0 0 1 1.407-1.407 1.41 1.41 0 0 1 1.407 1.407 1.41 1.41 0 0 1-1.407 1.407z" fill="url(#B)"/></g><defs><linearGradient id="A" x1="24" y1="0" x2="24" y2="48" gradientUnits="userSpaceOnUse"><stop stop-color="#c45ed3"/><stop offset="1" stop-color="#fba2b8"/></linearGradient><linearGradient id="B" x1="37.283" y1="30.528" x2="37.283" y2="36.078" gradientUnits="userSpaceOnUse"><stop stop-color="#c45ed3"/><stop offset="1" stop-color="#fba2b8"/></linearGradient><clipPath id="C"><path fill="#fff" d="M0 0h48v48H0z"/></clipPath></defs></svg>