<svg xmlns="http://www.w3.org/2000/svg" xmlns:xlink="http://www.w3.org/1999/xlink" width="48" height="48" fill="none"  ><path d="M21.265 41.057c.642-.644 1.497-.999 2.406-.999s1.763.355 2.405.999a.7.7 0 0 0 .994.002c.275-.274.276-.719.002-.994a4.77 4.77 0 0 0-3.401-1.413 4.77 4.77 0 0 0-3.401 1.413c-.274.275-.273.72.002.994s.72.273.994-.002z" fill="url(#A)"/><path d="M19.566 32.777c.279-.27.287-.715.017-.994s-.715-.287-.994-.017a1.84 1.84 0 0 1-2.54.001c-.279-.27-.724-.264-.994.015s-.264.724.015.994a3.22 3.22 0 0 0 2.248.901c.814 0 1.629-.3 2.249-.9z" fill="url(#B)"/><path d="M32.275 32.777c.279-.27.287-.715.017-.994s-.715-.287-.994-.017c-.701.678-1.843.678-2.544 0-.279-.27-.724-.262-.994.017s-.262.724.017.994c.62.6 1.435.9 2.25.9s1.629-.3 2.249-.9z" fill="url(#C)"/><path d="M46.123 9.223c-.073-2.304-1.881-4.199-4.164-4.406-.712-1.077-1.915-1.732-3.221-1.732-.327 0-.655.043-.98.127l-.018-.037A5.35 5.35 0 0 0 32.942.159a5.33 5.33 0 0 0-5.325 5.322v.075a3.85 3.85 0 0 0-2.777 3.324 3.96 3.96 0 0 0-2.724-.886c-.745-1.593-2.338-2.612-4.109-2.612l-.241.007c-.496-1.72-2.132-2.921-3.969-2.822C13.06 1.001 11.492 0 9.751 0a4.46 4.46 0 0 0-4.045 2.567c-1.041-.056-2.07.311-2.848 1.02a3.86 3.86 0 0 0-1.275 2.889c0 .367.045.625.092.807l-.141.116a3.29 3.29 0 0 0-1.206 2.55c0 1.819 1.48 3.299 3.3 3.299h5.672a3.33 3.33 0 0 0-.863 2.241c0 1.26.7 2.359 1.731 2.929-1.302 2.477-2.007 5.338-2.096 8.528H6.519a2.22 2.22 0 0 0-2.218 2.218v1.499c0 1.048.519 2.161 1.423 3.054.801.791 1.803 1.308 2.768 1.449a15.53 15.53 0 0 0 1.297 3.173c-.556 1.107-1.007 2.32-1.007 3.206 0 1.125.41 2.078 1.187 2.754.677.59 1.58.915 2.542.915 1.853 0 3.729-1.26 3.729-3.669 0-1.66-1.583-4.467-2.469-5.572-.258-.321-.668-.747-1.26-.747s-1.002.427-1.259.748c-.186.232-.402.539-.629.894-.398-.851-.695-1.694-.888-2.512-.177-.752-.266-1.468-.266-2.15v-3.921c2.88-.369 4.215-1.73 5.207-2.742 1.008-1.028 1.563-1.594 3.213-1.168l1.932.509c1.891.504 2.84.757 3.851.757s1.955-.252 3.839-.754l1.944-.512c1.649-.425 2.204.141 3.21 1.168.992 1.012 2.327 2.373 5.208 2.742v3.921a9.34 9.34 0 0 1-.25 2.088.7.7 0 0 0-.021.091c-1.113 4.663-5.517 9.675-10.444 11.5-1.298.483-2.406.708-3.486.708s-2.191-.225-3.49-.709c-.794-.294-1.595-.677-2.38-1.139-.334-.197-.765-.086-.963.249s-.086.765.249.963a16.27 16.27 0 0 0 2.605 1.246c1.46.543 2.724.796 3.979.796s2.516-.253 3.976-.796c3.064-1.135 5.978-3.354 8.205-6.248 1.425-1.852 2.453-3.858 2.993-5.789.967-.14 1.969-.657 2.772-1.45.904-.893 1.423-2.006 1.423-3.054v-1.499a2.22 2.22 0 0 0-2.218-2.218h-1.553c-.154-5.497-2.093-9.147-4.077-11.459h3.299c.388 0 .703-.315.703-.703s-.315-.703-.703-.703H26.47a2.01 2.01 0 0 1-2.005-2.005 2.02 2.02 0 0 1 1.154-1.813c.037-.018.067-.03.09-.04a.78.78 0 0 0 .523-.848c-.002-.026-.005-.061-.005-.111a2.45 2.45 0 0 1 1.861-2.38c.08-.02.146-.035.198-.046.215-.048.869-.192.761-1.022-.011-.08-.024-.179-.024-.337 0-2.159 1.758-3.916 3.919-3.916 1.498 0 2.883.871 3.531 2.22a2.38 2.38 0 0 1 .132.334c.047.146.135.417.433.564s.569.056.764-.013l.195-.066c.246-.076.495-.115.741-.115.907 0 1.736.497 2.166 1.299.138.277.398.431.705.416a3.18 3.18 0 0 1 3.11 3.163c0 .047-.002.083-.003.111-.01.265.035.598.471.823.024.012.056.029.102.057.602.361.977 1.019.977 1.717a2.01 2.01 0 0 1-2.005 2.005h-2.522c-.388 0-.703.315-.703.703s.315.703.703.703h2.522c1.881 0 3.411-1.53 3.411-3.411 0-1.147-.592-2.23-1.549-2.854zM12.349 36.855a1.62 1.62 0 0 1 .162-.179 1.6 1.6 0 0 1 .163.179c.87 1.084 2.16 3.532 2.16 4.692 0 1.563-1.167 2.263-2.323 2.263s-2.322-.7-2.322-2.263c0-1.16 1.29-3.608 2.16-4.692zM3.628 11.842c-1.044 0-1.893-.849-1.893-1.893 0-.569.252-1.102.691-1.463.523-.428.9-.738.65-1.434-.039-.108-.087-.243-.087-.577a2.47 2.47 0 0 1 .816-1.849c.524-.477 1.225-.713 1.923-.648.074.007.124.016.168.024.476.086.802-.106.972-.569.013-.037.031-.084.058-.149.479-1.141 1.588-1.878 2.825-1.878s2.347.738 2.827 1.877c.026.062.043.11.056.146.168.466.495.659.972.573.045-.008.096-.017.17-.024 1.18-.109 2.249.623 2.609 1.702A4.53 4.53 0 0 0 13.9 7.994c-1.056-.058-2.104.314-2.895 1.033-.805.733-1.26 1.729-1.29 2.815H3.628zm3.085 20.876c-.639-.631-1.005-1.379-1.005-2.053v-1.499c0-.447.364-.812.812-.812h1.543v3.854c0 .468.037.949.107 1.438a4 4 0 0 1-1.457-.928zm34.921-3.552v1.499c0 .674-.366 1.423-1.005 2.053a4 4 0 0 1-1.458.93 9.96 9.96 0 0 0 .109-1.439v-3.854h1.543c.447 0 .812.364.812.812zm-14.05-13.675l5.68-.001c2.859 2.773 4.44 6.688 4.597 11.378-2.259-.337-3.28-1.377-4.19-2.306-1.047-1.069-2.13-2.173-4.566-1.545l-1.956.514c-1.766.471-2.652.707-3.476.707s-1.716-.237-3.488-.71l-1.944-.512c-2.437-.628-3.52.477-4.568 1.546-.911.928-1.931 1.969-4.19 2.306.101-3.032.794-5.731 2.063-8.041a3.32 3.32 0 0 0 .235.009h12.459a3.35 3.35 0 0 0 3.345-3.345zm-1.407-.015c.001 1.083-.869 1.953-1.938 1.953H11.779a1.94 1.94 0 0 1-1.936-1.938 1.93 1.93 0 0 1 .708-1.498c.527-.433.907-.746.657-1.445a1.45 1.45 0 0 1-.045-.141c-.026-.109-.045-.24-.045-.448a2.53 2.53 0 0 1 .834-1.891 2.57 2.57 0 0 1 1.965-.662 1.85 1.85 0 0 1 .174.025c.479.086.807-.108.974-.576.013-.037.031-.086.056-.147.489-1.165 1.622-1.918 2.886-1.918s2.397.753 2.887 1.919c.027.064.045.113.058.15.17.466.498.658.974.572.045-.008.097-.017.172-.024a2.56 2.56 0 0 1 1.758.49c-.504.604-.799 1.374-.799 2.182 0 1.782 1.373 3.248 3.117 3.397z" fill="url(#D)"/><path d="M30.775 7.54c-1.336.212-1.844.987-2.034 1.6-.115.371.092.765.463.88a.7.7 0 0 0 .209.032c.3 0 .578-.193.671-.495.078-.251.247-.522.911-.627.383-.061.645-.421.584-.804s-.42-.645-.805-.585z" fill="url(#E)"/><path d="M15.132 10.535c-.942.149-1.695.737-1.965 1.535-.124.368.073.767.441.891a.7.7 0 0 0 .225.037c.293 0 .567-.185.666-.478.102-.301.428-.53.852-.597.384-.06.646-.42.585-.804s-.42-.645-.804-.585z" fill="url(#F)"/><path d="M6.143 5.174c-1.201.523-1.489 1.375-1.519 1.998-.019.388.28.718.668.736l.035.001c.373 0 .684-.293.702-.669.012-.244.101-.526.676-.777.356-.155.519-.569.364-.925s-.569-.519-.925-.364z" fill="url(#G)"/><defs><linearGradient id="A" x1="23.671" y1="38.651" x2="23.671" y2="41.263" xlink:href="#H"><stop stop-color="#c45ed3"/><stop offset="1" stop-color="#fba2b8"/></linearGradient><linearGradient id="B" x1="17.317" y1="31.568" x2="17.317" y2="33.677" xlink:href="#H"><stop stop-color="#c45ed3"/><stop offset="1" stop-color="#fba2b8"/></linearGradient><linearGradient id="C" x1="30.025" y1="31.568" x2="30.025" y2="33.677" xlink:href="#H"><stop stop-color="#c45ed3"/><stop offset="1" stop-color="#fba2b8"/></linearGradient><linearGradient id="D" x1="24" y1="0" x2="24" y2="48" xlink:href="#H"><stop stop-color="#c45ed3"/><stop offset="1" stop-color="#fba2b8"/></linearGradient><linearGradient id="E" x1="30.149" y1="7.531" x2="30.149" y2="10.051" xlink:href="#H"><stop stop-color="#c45ed3"/><stop offset="1" stop-color="#fba2b8"/></linearGradient><linearGradient id="F" x1="14.537" y1="10.526" x2="14.537" y2="12.998" xlink:href="#H"><stop stop-color="#c45ed3"/><stop offset="1" stop-color="#fba2b8"/></linearGradient><linearGradient id="G" x1="5.875" y1="5.115" x2="5.875" y2="7.909" xlink:href="#H"><stop stop-color="#c45ed3"/><stop offset="1" stop-color="#fba2b8"/></linearGradient><linearGradient id="H" gradientUnits="userSpaceOnUse"/></defs></svg>