<svg xmlns="http://www.w3.org/2000/svg" width="48" height="48" fill="none"  ><g clip-path="url(#E)"><path d="M10.868 26.087a.7.7 0 0 0-.856.501L9.01 30.416.231 41.373a.7.7 0 0 0 .109.986.7.7 0 0 0 .438.154.7.7 0 0 0 .548-.263l8.872-11.074c.062-.077.106-.166.131-.261l1.04-3.972a.7.7 0 0 0-.501-.856z" fill="url(#A)"/><path d="M12.24 24.169c.57-1.21 1.436-2.27 2.505-3.065l4.218-3.142c.563-.42 1.26-.631 1.961-.592l4.04.218c.433.023.826.239 1.078.591s.329.794.212 1.211c-.158.562-.636.965-1.216 1.027l-3.556.379a.7.7 0 0 0-.603.514l-1.358 5.015a3.38 3.38 0 0 0-.101 1.223l.209 2.106a.7.7 0 0 0 .697.632c.023 0 .047-.001.07-.004a.7.7 0 0 0 .629-.768l-.209-2.106c-.024-.241-.004-.483.059-.717l1.233-4.552 3.078-.328a2.81 2.81 0 0 0 1.997-4.45 2.81 2.81 0 0 0-2.143-1.176l-4.04-.218a4.43 4.43 0 0 0-2.707.749l.011-.027a12.32 12.32 0 0 1 4.956-5.882l3.038-1.884a.7.7 0 0 0 .179-.159l6.074-7.628a.7.7 0 0 0-1.098-.874l-5.998 7.533-2.935 1.821c-2.503 1.553-4.411 3.817-5.517 6.548l-.874 2.159-2.222 1.655c-1.253.933-2.268 2.175-2.936 3.592a.7.7 0 1 0 1.269.598z" fill="url(#B)"/><path d="M47.659 2.279a.7.7 0 0 0-.986.109l-3.898 4.866a.7.7 0 0 0 .547 1.14.7.7 0 0 0 .548-.263l3.899-4.866a.7.7 0 0 0-.109-.986z" fill="url(#C)"/><path d="M41.889 9.481a.7.7 0 0 0-.986.109l-2.976 3.715c-.198.248-.309.559-.311.877l-.02 3.201-.715-.032c-1.47-.067-2.728 1.079-2.794 2.553l-.009.194c-.029.642.169 1.259.559 1.76a2.63 2.63 0 0 0-.382.29 2.6 2.6 0 0 0-.849 1.814l-.009.188c-.029.64.176 1.237.539 1.709-.689.444-1.161 1.204-1.2 2.083l-.008.188a2.6 2.6 0 0 0 .595 1.783c-.689.445-1.171 1.197-1.23 2.066-.035.518.078 1.022.321 1.465a.7.7 0 0 0-.037.153l-.415 3.442c-.003.028-.014.054-.03.077l-1.901 2.636c-.244.337-.709.426-1.059.202a.78.78 0 0 1-.344-.493c-.035-.161-.019-.326.045-.474l1.072-1.636a4.04 4.04 0 0 0 .211-.413c.069-.178.115-.364.136-.554l.666-6.114a.7.7 0 1 0-1.395-.152l-.666 6.113c-.006.052-.018.104-.034.154l-2.761 4.269c-.249.381-.733.524-1.15.342a.92.92 0 0 1-.462-1.26l1.142-2.334a4.54 4.54 0 0 0 .184-.711l.764-6.645a.7.7 0 0 0-.617-.777c-.385-.044-.733.232-.777.617l-.764 6.645c-.014.125-.061.245-.136.347l-2.678 3.656a.91.91 0 0 1-1.16.27c-.429-.224-.609-.745-.41-1.186l1.46-3.234a3.04 3.04 0 0 0 .254-1.551l-.233-2.343a.7.7 0 1 0-1.396.139l.233 2.343c.028.285-.019.574-.137.835l-1.46 3.234c-.169.375-.23.772-.196 1.156l-1.014.352c-.233.081-.438.226-.592.418l-4.72 5.891a.7.7 0 0 0 .547 1.14.7.7 0 0 0 .548-.263l4.703-5.87 1.07-.372a2.31 2.31 0 0 0 .693.553c.345.18.714.267 1.078.267.715 0 1.411-.334 1.863-.951l.366-.5.029.085a2.31 2.31 0 0 0 1.255 1.333c.305.133.623.197.938.197.765 0 1.505-.379 1.948-1.056l.551-.841c.158.216.355.405.588.554a2.18 2.18 0 0 0 1.177.345c.681 0 1.351-.317 1.776-.908l.317-.44c.143.23.33.439.56.611.404.302.875.449 1.341.449a2.23 2.23 0 0 0 1.744-.841l1.157-1.444a3.12 3.12 0 0 0 .666-1.596l.3-2.607c.916-.378 1.593-1.252 1.664-2.295.047-.683-.163-1.341-.592-1.869.707-.441 1.194-1.21 1.234-2.104l.008-.188c.028-.629-.169-1.216-.52-1.684.709-.441 1.196-1.211 1.237-2.106l.008-.188c.028-.633-.169-1.241-.556-1.733.705-.454 1.188-1.231 1.228-2.131l.009-.194a2.66 2.66 0 0 0-1.976-2.704l.023-3.328 2.976-3.715a.7.7 0 0 0-.108-.986zm-3.314 13.854c.219.239.331.55.317.874l-.008.188c-.03.669-.595 1.188-1.267 1.158l-1.824-.095c-.587-.108-1.02-.635-.993-1.247l.008-.188c.015-.324.154-.623.394-.842.226-.206.514-.318.818-.318l1.714.076c.324.015.623.154.841.394zm-.417 5.04c-.03.669-.597 1.188-1.267 1.158l-1.603-.072c-.324-.015-.623-.154-.842-.394s-.331-.55-.317-.874l.008-.188c.03-.669.598-1.188 1.267-1.158l1.768.092c.587.108 1.02.635.993 1.247l-.009.188zm-2.965 9.657l-1.157 1.444a.83.83 0 0 1-1.149.146.83.83 0 0 1-.19-1.136l.384-.563c.148-.214.242-.455.274-.71l.314-2.606c.303.136.633.215.976.231l1.175.053-.26 2.263a1.72 1.72 0 0 1-.367.879zm2.325-5.717c-.047.685-.64 1.216-1.329 1.187l-1.48-.067c-.346-.016-.663-.166-.894-.425s-.345-.59-.321-.936c.047-.685.642-1.216 1.329-1.187l1.48.067c.346.016.663.166.894.425s.345.59.321.936zm2.055-12.164l-.009.194c-.032.701-.626 1.246-1.329 1.215l-1.54-.069c-.34-.015-.653-.162-.883-.413s-.347-.576-.332-.916l.009-.194c.032-.701.626-1.243 1.329-1.215l1.54.069c.34.015.653.162.883.413s.347.576.332.916z" fill="url(#D)"/></g><defs><linearGradient id="A" x1="5.735" y1="26.064" x2="5.735" y2="42.513" gradientUnits="userSpaceOnUse"><stop stop-color="#c45ed3"/><stop offset="1" stop-color="#fba2b8"/></linearGradient><linearGradient id="B" x1="21.802" y1="0" x2="21.802" y2="30.287" gradientUnits="userSpaceOnUse"><stop stop-color="#c45ed3"/><stop offset="1" stop-color="#fba2b8"/></linearGradient><linearGradient id="C" x1="45.272" y1="2.125" x2="45.272" y2="8.394" gradientUnits="userSpaceOnUse"><stop stop-color="#c45ed3"/><stop offset="1" stop-color="#fba2b8"/></linearGradient><linearGradient id="D" x1="27.018" y1="9.327" x2="27.018" y2="48" gradientUnits="userSpaceOnUse"><stop stop-color="#c45ed3"/><stop offset="1" stop-color="#fba2b8"/></linearGradient><clipPath id="E"><path fill="#fff" d="M0 0h48v48H0z"/></clipPath></defs></svg>