<svg xmlns="http://www.w3.org/2000/svg" xmlns:xlink="http://www.w3.org/1999/xlink" width="49" height="48" fill="none"  ><path d="M31.086 10.569a.64.64 0 0 0-.64-.64H14.645a8.87 8.87 0 0 0-8.76 10.405l1.983 11.464a.64.64 0 0 0 .631.531h1.468v9.6a.64.64 0 0 0 .64.64h10.24a.64.64 0 0 0 .64-.64v-3.84h2.183c1.972 0 3.577-1.605 3.577-3.577v-4.103h1.149a1.43 1.43 0 0 0 1.311-2.018l-2.46-5.533v-.869c.85.483 1.932.353 2.632-.347l.38-.38a.64.64 0 0 0-.905-.905l-.38.38c-.306.307-.79.355-1.151.114-.181-.121-.375-.211-.576-.273v-1.149c.85.483 1.932.353 2.632-.347l.38-.38a.64.64 0 0 0-.905-.905l-.38.38c-.306.307-.79.355-1.151.114-.181-.121-.375-.211-.576-.273V16.48c2.156-.999 3.84-3.4 3.84-5.91zM7.146 20.116c-.383-2.218.228-4.476 1.677-6.198s3.571-2.709 5.821-2.709H29.76c-.337 2.347-2.461 4.48-4.621 4.48h-6.652c-2.228 0-4.041 1.813-4.041 4.041v2.359h-1.143a3.51 3.51 0 0 0-2.968 1.636c-.618.969-.703 2.107-.232 3.123.426.918 1.223 1.578 2.138 1.813l-1.763 2.389H9.037L7.146 20.116zm18.819-3.147v1.049a2.2 2.2 0 0 0-.576.273c-.361.24-.845.192-1.151-.114l-.38-.38a.64.64 0 0 0-.905.905l.38.38c.423.422.986.641 1.552.641.372 0 .743-.1 1.08-.291v1.147a2.2 2.2 0 0 0-.576.273c-.361.24-.845.192-1.151-.114l-.38-.38a.64.64 0 0 0-.905.905l.38.38c.423.422.986.641 1.552.641.372 0 .743-.1 1.08-.291v1.003c0 .09.019.178.055.26l2.515 5.657a.15.15 0 0 1-.012.148c-.021.032-.061.071-.13.071h-1.789a.64.64 0 0 0-.64.64v1.96c-1.038-.085-2.099.062-2.982.447l-.473.206a.64.64 0 0 0 .256 1.227c.085 0 .172-.017.255-.053l.474-.206c.724-.316 1.609-.427 2.471-.339v1.5a2.3 2.3 0 0 1-2.298 2.297h-3.621a6.66 6.66 0 0 1-4.74-1.964l-1.049-1.049a.64.64 0 0 0-.905.905l1.049 1.049a7.93 7.93 0 0 0 5.645 2.338h.158v3.2h-8.96v-9.125l2.709-3.671a.64.64 0 0 0-.515-1.02h-.462c-.723 0-1.38-.446-1.713-1.165-.284-.611-.229-1.302.149-1.895.418-.654 1.124-1.044 1.889-1.044h1.783a.64.64 0 0 0 .64-.64V19.73c0-1.522 1.238-2.761 2.761-2.761h7.479z" fill="url(#A)"/><path d="M40.046 9.289a.64.64 0 0 0 .64-.64v-1.28a.64.64 0 1 0-1.28 0v1.28a.64.64 0 0 0 .64.64z" fill="url(#B)"/><path d="M40.046 10.569a.64.64 0 0 0-.64.64v1.28a.64.64 0 1 0 1.28 0v-1.28a.64.64 0 0 0-.64-.64z" fill="url(#C)"/><path d="M37.486 10.569h1.28a.64.64 0 1 0 0-1.28h-1.28a.64.64 0 1 0 0 1.28z" fill="url(#D)"/><path d="M29.807 6.799c.378 0 .684-.306.684-.684s-.306-.684-.684-.684-.684.306-.684.684.306.684.684.684z" fill="url(#E)"/><path d="M42.606 9.289h-1.28a.64.64 0 1 0 0 1.28h1.28a.64.64 0 1 0 0-1.28z" fill="url(#F)"/><path d="M22.578 24.75c.564 0 1.128-.202 1.664-.604a.64.64 0 0 0-.768-1.024c-.628.471-1.164.471-1.792 0a.64.64 0 0 0-.768 1.024c.537.403 1.1.604 1.664.604z" fill="url(#G)"/><path d="M40.502 23.369h-.456v-1.28a.64.64 0 0 0-.64-.64h-3.84a.64.64 0 0 0-.64.64v1.28h-.456c-.807 0-1.464.657-1.464 1.464v14.353c0 .807.657 1.464 1.464 1.464h6.033c.807 0 1.464-.657 1.464-1.464V24.833c0-.807-.656-1.464-1.464-1.464zm-4.296-.64h2.56v.64h-2.56v-.64zm-1.736 1.92h6.033c.101 0 .184.083.184.184v11.976h-6.4V24.833c0-.101.083-.184.184-.184zm6.033 14.72H34.47c-.101 0-.184-.083-.184-.184v-1.096h6.4v1.096c0 .101-.083.184-.184.184z" fill="url(#H)"/><path d="M36.206 31.049h1.672l-.999 2.997a.64.64 0 0 0 .405.81c.067.023.136.033.203.033a.64.64 0 0 0 .607-.438l1.28-3.84a.64.64 0 0 0-.607-.843h-1.615l.929-2.322a.64.64 0 1 0-1.189-.476l-1.28 3.2a.64.64 0 0 0 .594.878z" fill="url(#I)"/><defs><linearGradient id="A" x1="18.42" y1="9.929" x2="18.42" y2="42.569" xlink:href="#J"><stop stop-color="#c45ed3"/><stop offset="1" stop-color="#fba2b8"/></linearGradient><linearGradient id="B" x1="40.046" y1="6.729" x2="40.046" y2="9.289" xlink:href="#J"><stop stop-color="#c45ed3"/><stop offset="1" stop-color="#fba2b8"/></linearGradient><linearGradient id="C" x1="40.046" y1="10.569" x2="40.046" y2="13.129" xlink:href="#J"><stop stop-color="#c45ed3"/><stop offset="1" stop-color="#fba2b8"/></linearGradient><linearGradient id="D" x1="38.126" y1="9.289" x2="38.126" y2="10.569" xlink:href="#J"><stop stop-color="#c45ed3"/><stop offset="1" stop-color="#fba2b8"/></linearGradient><linearGradient id="E" x1="29.807" y1="5.431" x2="29.807" y2="6.799" xlink:href="#J"><stop stop-color="#c45ed3"/><stop offset="1" stop-color="#fba2b8"/></linearGradient><linearGradient id="F" x1="41.966" y1="9.289" x2="41.966" y2="10.569" xlink:href="#J"><stop stop-color="#c45ed3"/><stop offset="1" stop-color="#fba2b8"/></linearGradient><linearGradient id="G" x1="22.578" y1="22.994" x2="22.578" y2="24.75" xlink:href="#J"><stop stop-color="#c45ed3"/><stop offset="1" stop-color="#fba2b8"/></linearGradient><linearGradient id="H" x1="37.486" y1="21.449" x2="37.486" y2="40.649" xlink:href="#J"><stop stop-color="#c45ed3"/><stop offset="1" stop-color="#fba2b8"/></linearGradient><linearGradient id="I" x1="37.486" y1="26.569" x2="37.486" y2="34.889" xlink:href="#J"><stop stop-color="#c45ed3"/><stop offset="1" stop-color="#fba2b8"/></linearGradient><linearGradient id="J" gradientUnits="userSpaceOnUse"/></defs></svg>