<svg xmlns="http://www.w3.org/2000/svg" width="48" height="48" fill="none"  ><g clip-path="url(#D)"><path d="M27.437 5.756a.94.94 0 0 0-1.277-.357l-.046.026a.94.94 0 0 0-.358 1.277c.172.306.49.478.818.478.156 0 .313-.039.459-.121l.046-.026a.94.94 0 0 0 .357-1.277z" fill="url(#A)"/><path d="M47.726 8.525l-8.25-8.25a.94.94 0 0 0-1.022-.203.94.94 0 0 0-.579.866v2.437h-3.937a15.97 15.97 0 0 0-4.264.577.94.94 0 0 0-.653 1.154.94.94 0 0 0 1.154.653 14.1 14.1 0 0 1 3.764-.509h4.875a.94.94 0 0 0 .938-.937V3.201l5.987 5.987-5.987 5.987v-1.112a.94.94 0 0 0-.937-.937h-4.875c-3.412 0-6.187 2.776-6.187 6.188v12.194c-1.717-3.21-4.501-5.767-7.875-7.194v-5c0-3.885 1.549-7.501 4.363-10.182a.94.94 0 0 0 .032-1.325.94.94 0 0 0-1.326-.032C19.756 10.812 18 14.91 18 19.313v4.343c-1.372-.386-2.819-.593-4.312-.593h-3.562v-2.437a.94.94 0 0 0-1.6-.663l-8.25 8.25a.94.94 0 0 0 0 1.326l8.25 8.25c.268.268.671.348 1.022.203a.94.94 0 0 0 .579-.866v-2.437h3.563A4.32 4.32 0 0 1 18 39v8.063a.94.94 0 0 0 .938.938h9.75a.94.94 0 0 0 .938-.937v-27.75A4.32 4.32 0 0 1 33.938 15h3.938v2.438a.94.94 0 0 0 1.6.663l8.25-8.25a.94.94 0 0 0 0-1.326zm-19.975 37.6h-2.625v-6.274a.94.94 0 0 0-.937-.937.94.94 0 0 0-.937.938v6.274h-3.375V39c0-3.412-2.776-6.187-6.187-6.187h-4.5a.94.94 0 0 0-.937.938v1.112l-5.987-5.987 5.987-5.987V24a.94.94 0 0 0 .938.938h4.5c7.754 0 14.063 6.309 14.063 14.063v7.125z" fill="url(#B)"/><path d="M24.85 35.569a.94.94 0 0 0-1.326 0c-.174.174-.275.415-.275.663s.1.488.275.663.416.275.663.275.488-.1.663-.275.275-.416.275-.663-.1-.489-.275-.663z" fill="url(#C)"/></g><defs><linearGradient id="A" x1="26.597" y1="5.278" x2="26.597" y2="7.179" gradientUnits="userSpaceOnUse"><stop stop-color="#c45ed3"/><stop offset="1" stop-color="#fba2b8"/></linearGradient><linearGradient id="B" x1="24" y1="0" x2="24" y2="48" gradientUnits="userSpaceOnUse"><stop stop-color="#c45ed3"/><stop offset="1" stop-color="#fba2b8"/></linearGradient><linearGradient id="C" x1="24.188" y1="35.294" x2="24.188" y2="37.169" gradientUnits="userSpaceOnUse"><stop stop-color="#c45ed3"/><stop offset="1" stop-color="#fba2b8"/></linearGradient><clipPath id="D"><path fill="#fff" d="M0 0h48v48H0z"/></clipPath></defs></svg>