<svg width="54" height="54" viewBox="0 0 54 54" fill="none" xmlns="http://www.w3.org/2000/svg">
<g clip-path="url(#clip0)">
<path d="M16.7374 44.573C16.3123 43.9117 16.0875 43.1466 16.0875 42.3604V34.8515C16.0875 34.1314 16.2129 33.4233 16.4599 32.7468L20.6185 21.3633C20.7685 20.9527 20.5573 20.4984 20.1466 20.3483C19.7364 20.199 19.2817 20.4096 19.1316 20.8202L14.9731 32.2037C14.6622 33.0546 14.5045 33.9456 14.5045 34.8516V40.4426L3.59158 44.2536C3.17884 44.3978 2.96112 44.8493 3.10528 45.2619C3.21926 45.5883 3.5253 45.7926 3.85256 45.7926C3.9391 45.7926 4.02722 45.7783 4.11355 45.7482L14.5046 42.1191V42.3603C14.5046 43.4508 14.8162 44.5119 15.406 45.4289C15.5573 45.6641 15.8122 45.7924 16.0724 45.7924C16.219 45.7924 16.3673 45.7517 16.4997 45.6666C16.8674 45.4303 16.9738 44.9406 16.7374 44.573Z" fill="url(#paint0_linear)"/>
<path d="M36.9323 52.5435L28.5168 47.1061C28.0625 46.8127 27.7914 46.3146 27.7914 45.7737V23.7163V23.7162C27.7914 23.3922 28.055 23.1287 28.379 23.1287C28.6384 23.1287 28.864 23.2953 28.9404 23.5432L31.5859 32.1224C31.6095 32.1986 31.6214 32.2778 31.6214 32.3574V34.2292C31.6214 34.6664 31.9757 35.0207 32.4129 35.0207C32.8501 35.0207 33.2044 34.6664 33.2044 34.2292V32.3574C33.2044 32.1194 33.1688 31.8834 33.0987 31.6559L30.4531 23.0768C30.1708 22.1611 29.3372 21.5458 28.379 21.5458C28.1751 21.5458 27.9786 21.5761 27.7914 21.6289V12.1399C27.7914 11.5469 28.2739 11.0646 28.8669 11.0646C29.3166 11.0646 29.7225 11.3484 29.8769 11.7709L37.5396 32.7466C37.7868 33.4229 37.9119 34.131 37.9119 34.8513V35.0197C37.9119 35.4569 38.2662 35.8112 38.7034 35.8112C39.1407 35.8112 39.4949 35.4569 39.4949 35.0197V34.8513C39.4949 33.9452 39.3374 33.0543 39.0266 32.2035L31.3639 11.2276C30.9823 10.1832 29.9788 9.48145 28.8669 9.48145C28.1398 9.48145 27.4803 9.77504 26.9999 10.2495C26.5195 9.77504 25.8599 9.48145 25.1329 9.48145C24.0209 9.48145 23.0173 10.1831 22.6358 11.2277L20.2963 17.6321C20.1463 18.0428 20.3575 18.4971 20.7681 18.6471C21.1786 18.7969 21.6332 18.5858 21.7831 18.1752L24.1227 11.7708C24.2771 11.3483 24.6831 11.0644 25.1329 11.0644C25.7259 11.0644 26.2084 11.5468 26.2084 12.1398V21.6288C26.0211 21.576 25.8246 21.5457 25.6208 21.5457C24.6624 21.5457 23.8289 22.161 23.5465 23.0767L20.9009 31.6561C20.8308 31.8835 20.7952 32.1196 20.7952 32.3574V34.2292C20.7952 34.6664 21.1496 35.0207 21.5867 35.0207C22.0239 35.0207 22.3782 34.6664 22.3782 34.2292V32.3574C22.3782 32.2776 22.3902 32.1985 22.4136 32.1223L25.0591 23.5432C25.1355 23.2953 25.3612 23.1287 25.6206 23.1287C25.9446 23.1287 26.2083 23.3922 26.2083 23.7162V23.7163V45.7737C26.2083 46.3146 25.937 46.8127 25.4828 47.1061L17.0674 52.5435C16.7002 52.7807 16.5949 53.2707 16.8321 53.6379C16.9836 53.8722 17.2379 53.9999 17.4976 53.9999C17.6448 53.9999 17.7936 53.9589 17.9264 53.8732L26.3419 48.4358C26.5901 48.2754 26.8098 48.0835 26.9998 47.8686C27.1896 48.0835 27.4093 48.2754 27.6576 48.4358L36.073 53.8732C36.2059 53.959 36.3547 53.9999 36.5018 53.9999C36.7615 53.9999 37.0159 53.8722 37.1674 53.6379C37.4049 53.2707 37.2995 52.7807 36.9323 52.5435Z" fill="url(#paint1_linear)"/>
<path d="M50.4081 44.2535L39.4951 40.4422V38.3928C39.4951 37.9556 39.1408 37.6013 38.7036 37.6013C38.2663 37.6013 37.9121 37.9556 37.9121 38.3928V42.3602C37.9121 43.1465 37.6874 43.9116 37.2623 44.5729C37.0259 44.9405 37.1324 45.4302 37.5 45.6666C37.6325 45.7518 37.7808 45.7924 37.9274 45.7924C38.1877 45.7924 38.4427 45.6641 38.5938 45.4288C39.1834 44.5118 39.4951 43.4506 39.4951 42.3602V42.1191L49.8862 45.7481C49.9725 45.7782 50.0606 45.7925 50.1472 45.7925C50.4744 45.7925 50.7805 45.588 50.8945 45.2618C51.0385 44.8492 50.8208 44.3978 50.4081 44.2535Z" fill="url(#paint2_linear)"/>
<path d="M45.0649 13.782C44.6453 14.9927 43.9842 16.0862 43.0998 17.0323L37.7302 22.7761C37.4316 23.0954 37.4485 23.5963 37.7678 23.8948C37.9204 24.0376 38.1144 24.1081 38.3081 24.1081C38.5197 24.1081 38.7306 24.0238 38.8864 23.8572L44.2562 18.1133C45.2927 17.0043 46.0681 15.7215 46.5606 14.3004C46.7037 13.8873 46.485 13.4364 46.0719 13.2933C45.6585 13.1504 45.2081 13.369 45.0649 13.782Z" fill="url(#paint3_linear)"/>
<path d="M15.1386 23.8027C15.2943 23.9669 15.5034 24.0497 15.7131 24.0497C15.9087 24.0497 16.1045 23.9776 16.2576 23.8325C16.5748 23.5317 16.5881 23.0308 16.2873 22.7135L10.9009 17.0326C7.44689 13.3896 7.56003 7.78789 11.1584 4.27974C14.8469 0.683574 20.8546 0.677558 24.5506 4.26613L25.7846 5.46435C26.4511 6.11117 27.494 6.11022 28.1589 5.46193L29.3568 4.29409C33.053 0.69075 39.067 0.69075 42.7627 4.29378L42.7972 4.32744C44.5384 6.02506 45.52 8.28168 45.5609 10.6817C45.5683 11.1143 45.9212 11.4597 46.352 11.4597C46.3566 11.4597 46.3613 11.4597 46.3658 11.4596C46.8029 11.4521 47.1511 11.0918 47.1437 10.6547C47.0955 7.83443 45.9443 5.1849 43.9024 3.19433L43.8679 3.16066C39.5625 -1.03673 32.5569 -1.03694 28.2517 3.16066L27.0539 4.32839C27.0072 4.37377 26.934 4.37398 26.8873 4.3286L25.6532 3.13037C21.3483 -1.04961 14.3501 -1.04264 10.0535 3.14641C8.0192 5.1296 6.86783 7.76763 6.81126 10.5744C6.7547 13.3816 7.79917 16.0619 9.75228 18.122L15.1386 23.8027Z" fill="url(#paint4_linear)"/>
</g>
<defs>
<linearGradient id="paint0_linear" x1="11.8638" y1="20.3003" x2="11.8638" y2="45.7926" gradientUnits="userSpaceOnUse">
<stop stop-color="#FBA2B8"/>
<stop offset="1" stop-color="#C45ED3"/>
</linearGradient>
<linearGradient id="paint1_linear" x1="28.1001" y1="9.48145" x2="28.1001" y2="53.9999" gradientUnits="userSpaceOnUse">
<stop stop-color="#FBA2B8"/>
<stop offset="1" stop-color="#C45ED3"/>
</linearGradient>
<linearGradient id="paint2_linear" x1="44.0377" y1="37.6013" x2="44.0377" y2="45.7925" gradientUnits="userSpaceOnUse">
<stop stop-color="#FBA2B8"/>
<stop offset="1" stop-color="#C45ED3"/>
</linearGradient>
<linearGradient id="paint3_linear" x1="42.0606" y1="13.2495" x2="42.0606" y2="24.1081" gradientUnits="userSpaceOnUse">
<stop stop-color="#FBA2B8"/>
<stop offset="1" stop-color="#C45ED3"/>
</linearGradient>
<linearGradient id="paint4_linear" x1="26.9765" y1="0" x2="26.9765" y2="24.0497" gradientUnits="userSpaceOnUse">
<stop stop-color="#FBA2B8"/>
<stop offset="1" stop-color="#C45ED3"/>
</linearGradient>
<clipPath id="clip0">
<rect width="54" height="54" fill="white"/>
</clipPath>
</defs>
</svg>
