<svg xmlns="http://www.w3.org/2000/svg" width="48" height="49" fill="none"  ><g clip-path="url(#C)"><path d="M46.998 27.035l-3.224-3.224a.94.94 0 0 0-1.326 0 .94.94 0 0 0 0 1.326l3.224 3.224a1.56 1.56 0 0 1 .001 2.2c-.607.606-1.595.605-2.201.001L31.682 18.769l2.238-2.16 2.573 2.573c.183.183.423.275.663.275s.48-.092.663-.275a.94.94 0 0 0 0-1.326l-2.549-2.549.18-.174c3.129-3.017 3.218-8.019.199-11.151a7.83 7.83 0 0 0-5.536-2.4c-2.112-.036-4.107.746-5.616 2.203L24 4.265l-.497-.479C21.992 2.328 20 1.548 17.887 1.583s-4.077.889-5.535 2.4A7.83 7.83 0 0 0 10.15 9.6c.038 2.112.891 4.077 2.401 5.533l.179.173L1 27.036a3.44 3.44 0 0 0 .004 4.851c.668.668 1.545 1.001 2.423 1.001.587 0 1.175-.15 1.7-.449v12.25c0 1.505 1.224 2.729 2.729 2.729h32.288c1.504 0 2.729-1.224 2.729-2.729V32.44a3.44 3.44 0 0 0 1.7.449c.879 0 1.757-.334 2.426-1.001.646-.646 1.002-1.508 1.002-2.426s-.356-1.78-1.002-2.426zM12.025 9.566c-.029-1.611.567-3.132 1.676-4.281s2.608-1.799 4.218-1.827l.109-.001c1.57 0 3.047.594 4.172 1.68l2.237 2.157-2.878 2.778c-.183.176-.286.419-.287.672s.102.497.283.674l2.858 2.783-2.857 2.78c-.371.361-.379.955-.018 1.326.184.189.428.284.672.284.236 0 .471-.088.654-.266l3.548-3.452c.181-.176.284-.419.284-.672s-.102-.495-.283-.672l-2.855-2.78 2.881-2.781a.94.94 0 0 0 .287-.674c0-.254-.103-.498-.286-.674L25.35 5.567l.449-.432c1.15-1.11 2.668-1.707 4.282-1.678s3.11.677 4.219 1.827a6.02 6.02 0 0 1-.152 8.499L24 23.578l-10.146-9.795c-1.15-1.109-1.799-2.607-1.828-4.217zM2.329 30.561a1.56 1.56 0 0 1-.003-2.201l11.753-11.753 2.239 2.162L4.528 30.561a1.56 1.56 0 0 1-2.199.001zm14.277 3.746c-1.159 0-2.103-.942-2.103-2.1s.943-2.103 2.103-2.103 2.1.943 2.1 2.103-.942 2.1-2.1 2.1zm-2.369 1.091a3.96 3.96 0 0 0 2.369.784c.886 0 1.706-.292 2.368-.784.894.484 1.462 1.152 1.462 2.451v7.694h-7.663v-7.694c0-1.298.568-1.966 1.464-2.451zm17.158-1.091c-1.159 0-2.103-.942-2.103-2.1s.943-2.103 2.103-2.103 2.1.943 2.1 2.103-.942 2.1-2.1 2.1zm-2.369 1.091a3.96 3.96 0 0 0 2.369.784c.887 0 1.706-.292 2.368-.784.896.485 1.465 1.153 1.465 2.451v7.694h-7.665v-7.694c0-1.298.568-1.966 1.464-2.451zm11.117 10.145h-3.041v-7.694c0-2.113-1.039-3.243-2.127-3.916a3.95 3.95 0 0 0 .394-1.725c0-2.193-1.783-3.978-3.975-3.978s-3.978 1.784-3.978 3.978a3.95 3.95 0 0 0 .395 1.726c-1.087.673-2.125 1.804-2.125 3.915v7.694h-3.376v-7.694c0-2.113-1.038-3.244-2.125-3.916a3.95 3.95 0 0 0 .394-1.725 3.98 3.98 0 0 0-3.975-3.978c-2.193 0-3.978 1.784-3.978 3.978a3.95 3.95 0 0 0 .395 1.726c-1.087.673-2.125 1.804-2.125 3.915v7.694H7.856c-.471 0-.854-.383-.854-.854V30.738l10.666-10.666 5.68 5.483c.181.175.416.263.651.263s.47-.088.651-.263l5.682-5.484 10.664 10.667V44.69c0 .471-.383.854-.854.854z" fill="url(#A)"/><path d="M40.134 22.436a.93.93 0 0 1-.659-.273l-.005-.005a.94.94 0 0 1 0-1.326.94.94 0 0 1 1.326 0 .94.94 0 0 1 .003 1.328c-.184.184-.424.276-.664.276z" fill="url(#B)"/></g><defs><linearGradient id="A" x1="24" y1="1.581" x2="24" y2="47.418" gradientUnits="userSpaceOnUse"><stop stop-color="#c45ed3"/><stop offset="1" stop-color="#fba2b8"/></linearGradient><linearGradient id="B" x1="40.133" y1="20.558" x2="40.133" y2="22.436" gradientUnits="userSpaceOnUse"><stop stop-color="#c45ed3"/><stop offset="1" stop-color="#fba2b8"/></linearGradient><clipPath id="C"><path fill="#fff" transform="translate(0 .5)" d="M0 0h48v48H0z"/></clipPath></defs></svg>