<svg width="54" height="54" viewBox="0 0 54 54" fill="none" xmlns="http://www.w3.org/2000/svg">
<g clip-path="url(#clip0)">
<path d="M34.3204 31.0721C34.1154 31.6493 33.8875 32.2255 33.6424 32.7854C33.5615 32.9608 33.4151 33.0975 33.2345 33.1662C33.054 33.2349 32.8537 33.2301 32.6766 33.1528C32.4996 33.0755 32.3599 32.9319 32.2875 32.7528C32.2151 32.5737 32.2158 32.3733 32.2895 32.1947C32.5207 31.6666 32.7358 31.1228 32.929 30.5785C32.9615 30.4871 33.0117 30.403 33.0766 30.331C33.1416 30.2589 33.2201 30.2004 33.3077 30.1587C33.3953 30.1171 33.4903 30.093 33.5872 30.088C33.684 30.0831 33.7809 30.0972 33.8724 30.1297C33.9638 30.1621 34.0479 30.2123 34.1199 30.2773C34.1919 30.3422 34.2505 30.4208 34.2922 30.5084C34.3338 30.596 34.3579 30.6909 34.3628 30.7878C34.3678 30.8847 34.3537 30.9816 34.3212 31.073L34.3204 31.0721ZM54 15.5914C54.0031 22.3294 51.3859 28.8044 46.7016 33.6477C49.1509 34.6837 51.376 36.1852 53.2533 38.0689L53.7836 38.5997C53.8522 38.6681 53.9066 38.7495 53.9437 38.839C53.9809 38.9286 54 39.0246 54 39.1215C54 39.2185 53.9809 39.3144 53.9437 39.404C53.9066 39.4935 53.8522 39.5749 53.7836 39.6434L53.2533 40.1741C50.5613 42.8834 47.1708 44.793 43.4585 45.6908C39.7463 46.5885 35.8578 46.4392 32.2254 45.2594C31.108 47.1632 29.753 48.9172 28.1931 50.4792C28.0364 50.6359 27.8503 50.7602 27.6456 50.8451C27.4409 50.9299 27.2214 50.9735 26.9998 50.9735C26.7782 50.9735 26.5587 50.9299 26.354 50.8451C26.1493 50.7602 25.9632 50.6359 25.8065 50.4792C24.247 48.9169 22.892 47.1629 21.7742 45.2594C18.1418 46.4392 14.2534 46.5885 10.5413 45.6907C6.82909 44.793 3.43861 42.8833 0.746728 40.1741L0.216432 39.6434C0.147831 39.5749 0.0934069 39.4935 0.0562742 39.404C0.0191415 39.3144 2.84176e-05 39.2185 2.84176e-05 39.1215C2.84176e-05 39.0246 0.0191415 38.9286 0.0562742 38.839C0.0934069 38.7495 0.147831 38.6681 0.216432 38.5997L0.746728 38.0689C2.61891 36.1892 4.83731 34.6897 7.27946 33.6532C6.22802 32.5608 5.27339 31.3792 4.42632 30.1217C4.36768 30.0415 4.32583 29.9503 4.30326 29.8536C4.28069 29.7568 4.27788 29.6565 4.29498 29.5587C4.31209 29.4608 4.34877 29.3674 4.40282 29.2841C4.45687 29.2008 4.52718 29.1292 4.60955 29.0737C4.69191 29.0181 4.78464 28.9798 4.88216 28.9609C4.97969 28.9421 5.08002 28.9431 5.17714 28.964C5.27427 28.9848 5.36618 29.025 5.44739 29.0822C5.5286 29.1395 5.59743 29.2125 5.64976 29.2969C7.81979 32.5251 10.7257 35.1915 14.1283 37.0766C17.5308 38.9616 21.3324 40.0113 25.2201 40.1391C20.6798 35.3239 18.1583 28.9512 18.1748 22.333C18.1748 22.141 18.1849 21.9512 18.1892 21.7601C13.6761 17.651 7.79097 15.3758 1.68751 15.3805H1.47657V15.5914C1.4744 18.0692 1.84676 20.5331 2.58104 22.8996C2.61106 22.9925 2.62236 23.0904 2.61427 23.1877C2.60618 23.285 2.57887 23.3798 2.53392 23.4665C2.48896 23.5531 2.42726 23.63 2.35239 23.6927C2.27751 23.7554 2.19094 23.8026 2.0977 23.8316C2.00446 23.8606 1.9064 23.8708 1.80918 23.8616C1.71197 23.8524 1.61755 23.8241 1.53137 23.7781C1.4452 23.7322 1.36898 23.6697 1.30715 23.5941C1.24531 23.5185 1.19908 23.4315 1.17113 23.3379C0.392588 20.8295 -0.00224836 18.2179 9.62995e-06 15.5914V14.6422C0.000121403 14.4464 0.0779403 14.2587 0.216371 14.1203C0.354801 13.9819 0.542521 13.904 0.738291 13.9039H1.68751C4.08716 13.9038 6.47532 14.2352 8.78429 14.8886C8.9594 12.4961 9.46468 10.1394 10.2857 7.88546L10.6102 6.9932C10.6772 6.80917 10.8146 6.6593 10.9921 6.57655C11.1697 6.49379 11.3728 6.48494 11.5569 6.55192L12.4487 6.87676C15.3926 7.94342 18.1186 9.53534 20.4943 11.5752C21.79 8.72259 23.5897 6.12713 25.8069 3.91351L26.4777 3.24231C26.6188 3.10867 26.8057 3.03418 27 3.03418C27.1943 3.03418 27.3812 3.10867 27.5223 3.24231L28.1935 3.91351C30.41 6.12754 32.2097 8.72254 33.5066 11.5743C35.8822 9.53503 38.6079 7.94329 41.5513 6.87634L42.4432 6.55192C42.5343 6.51869 42.6311 6.50375 42.728 6.50795C42.8249 6.51215 42.92 6.53541 43.0079 6.57639C43.0959 6.61737 43.1749 6.67527 43.2404 6.74679C43.3059 6.81831 43.3567 6.90204 43.3899 6.9932L43.7143 7.88546C44.5352 10.1395 45.0406 12.4962 45.2162 14.8886C47.525 14.2352 49.913 13.9038 52.3125 13.9039H53.2617C53.4575 13.904 53.6452 13.9819 53.7836 14.1203C53.9221 14.2587 53.9999 14.4464 54 14.6422V15.5914ZM34.1082 13.0129C34.9555 15.2207 35.495 17.5346 35.7113 19.8895C38.1015 17.9052 40.8284 16.3658 43.7624 15.3446C43.6236 12.9682 43.1397 10.6246 42.3259 8.3875L42.2537 8.18921L42.0555 8.26093C39.1276 9.32374 36.4301 10.9367 34.1082 13.0129ZM18.2921 19.8941C18.5098 17.5385 19.0491 15.2238 19.8952 13.0146C17.5722 10.9378 14.8732 9.32473 11.9437 8.26262L11.7454 8.19048L11.6733 8.38876C10.86 10.6259 10.3768 12.9695 10.2389 15.3459C13.1738 16.3679 15.9015 17.9084 18.2921 19.8941ZM21.7405 43.7098H21.7439C21.8181 43.6691 21.899 43.6417 21.9826 43.6288C23.3713 43.1189 24.6968 42.4512 25.9331 41.6388C19.451 41.6132 13.2119 39.1687 8.43751 34.7842C5.94326 35.7458 3.67881 37.2206 1.79087 39.1131L1.78243 39.1215L1.79087 39.1299C4.34532 41.6977 7.57415 43.4904 11.1043 44.3008C14.6345 45.1112 18.3219 44.9064 21.7405 43.7098ZM30.8163 44.7459C29.4767 44.1989 28.1977 43.5139 27 42.702C25.8022 43.5137 24.5232 44.1987 23.1837 44.7459C24.2115 46.4518 25.4429 48.0264 26.8507 49.4351C26.8677 49.4588 26.89 49.4781 26.916 49.4914C26.9419 49.5047 26.9706 49.5117 26.9998 49.5117C27.029 49.5117 27.0577 49.5047 27.0836 49.4914C27.1096 49.4781 27.1319 49.4588 27.1489 49.4351C28.5569 48.0265 29.7884 46.4519 30.8163 44.7459ZM52.2091 39.1131C50.3178 37.2168 48.0484 35.7398 45.5486 34.7783C40.7819 39.168 34.5452 41.6153 28.0652 41.6388C29.3019 42.4501 30.6275 43.1168 32.0161 43.6259C32.1003 43.6384 32.1816 43.6658 32.2561 43.7069L32.2599 43.7094C35.6785 44.9062 39.366 45.1111 42.8961 44.3006C46.4262 43.4901 49.655 41.6972 52.2091 39.1291L52.2176 39.1207L52.2091 39.1131ZM52.5234 15.3805H52.3125C46.2094 15.3756 40.3246 17.6505 35.8117 21.7592C35.841 23.0561 35.7749 24.3533 35.6139 25.6405C35.5892 25.8347 35.4884 26.0111 35.3336 26.131C35.1789 26.2508 34.9828 26.3043 34.7887 26.2796C34.5945 26.255 34.4181 26.1542 34.2982 25.9994C34.1783 25.8447 34.1249 25.6486 34.1495 25.4545C34.3142 24.1458 34.3751 22.8261 34.3318 21.5078C34.3276 21.4657 34.3269 21.4234 34.3297 21.3812C34.2292 18.5641 33.6406 15.7857 32.5899 13.1699C32.56 13.1167 32.5371 13.06 32.5215 13.0011C31.2811 9.9907 29.455 7.25664 27.1494 4.95765L27 4.80915L26.8511 4.9585C24.5393 7.26361 22.711 10.0071 21.4734 13.0281C21.4658 13.0515 21.4569 13.0744 21.4469 13.0969C19.6379 17.574 19.1856 22.4843 20.1465 27.2165C21.1073 31.9487 23.4388 36.2938 26.8507 39.7109L27 39.8598L27.1489 39.7109C28.1332 38.7266 29.0332 37.6614 29.8392 36.5266C29.8947 36.446 29.9656 36.3772 30.0478 36.3243C30.1301 36.2713 30.2221 36.2353 30.3184 36.2182C30.4147 36.2011 30.5134 36.2033 30.6089 36.2247C30.7044 36.2461 30.7946 36.2862 30.8744 36.3428C30.9542 36.3994 31.022 36.4712 31.0738 36.5542C31.1256 36.6372 31.1603 36.7297 31.1761 36.8262C31.1918 36.9227 31.1882 37.0215 31.1655 37.1166C31.1428 37.2118 31.1014 37.3014 31.0437 37.3804C30.3522 38.3523 29.5953 39.276 28.7782 40.145C35.1452 39.9238 41.1781 37.2411 45.607 32.6615C50.0359 28.082 52.5154 21.9627 52.5234 15.5919V15.3805Z" fill="url(#paint0_linear)"/>
</g>
<defs>
<linearGradient id="paint0_linear" x1="46.7724" y1="46.6545" x2="7.22757" y2="7.10921" gradientUnits="userSpaceOnUse">
<stop stop-color="#C45ED3"/>
<stop offset="1" stop-color="#FBA2B8"/>
</linearGradient>
<clipPath id="clip0">
<rect width="54" height="54" fill="white"/>
</clipPath>
</defs>
</svg>
