<svg xmlns="http://www.w3.org/2000/svg" xmlns:xlink="http://www.w3.org/1999/xlink" width="48" height="43" fill="none"  ><path d="M44.585 15.516l-.26-.251v-2.702a4.88 4.88 0 0 0-4.873-4.873h-8.547V5.241A4.75 4.75 0 0 0 26.164.5h-8.003a4.75 4.75 0 0 0-4.741 4.741V7.69H4.873A4.88 4.88 0 0 0 0 12.563v21.689a4.88 4.88 0 0 0 4.873 4.873h10.173c.388 0 .703-.315.703-.703s-.315-.703-.703-.703H4.873a3.47 3.47 0 0 1-3.466-3.466V20.067c1.377 2.042 3.642 3.439 6.236 3.631v2.56c0 1.462 1.19 2.652 2.651 2.652s2.652-1.19 2.652-2.652v-2.537h11.75v.034c0 2.394.718 4.678 2.051 6.606l-1.493 1.493c-.521-.148-1.105-.017-1.515.392l-5.734 5.734c-1.135 1.135-1.135 2.982 0 4.117a2.91 2.91 0 0 0 4.117 0l5.734-5.734c.409-.409.54-.993.392-1.515l1.494-1.494a11.68 11.68 0 0 0 13.178.022v.876a3.47 3.47 0 0 1-3.467 3.467H28.346c-.388 0-.703.315-.703.703s.315.703.703.703h11.106a4.88 4.88 0 0 0 4.873-4.873v-2.007l.26-.251a11.65 11.65 0 0 0 0-16.478zM14.826 5.241a3.34 3.34 0 0 1 3.335-3.335h8.003a3.34 3.34 0 0 1 3.335 3.335V7.69h-1.5V5.241a1.84 1.84 0 0 0-1.835-1.835h-8.003a1.84 1.84 0 0 0-1.835 1.835V7.69h-1.5V5.241zm2.906 2.449V5.241a.43.43 0 0 1 .429-.429h8.003a.43.43 0 0 1 .429.429V7.69h-8.861zm-6.193 16.407H9.049V21.73c0-.687.559-1.245 1.245-1.245s1.245.559 1.245 1.245v2.367zm-1.245 3.407c-.687 0-1.245-.559-1.245-1.245v-.755h2.491v.755c0 .687-.559 1.245-1.245 1.245zm2.652-5.188v-.585c0-1.462-1.189-2.652-2.652-2.652s-2.651 1.189-2.651 2.652v.556c-3.491-.313-6.236-3.253-6.236-6.823v-2.9a3.47 3.47 0 0 1 3.467-3.466h34.579a3.47 3.47 0 0 1 3.466 3.466v1.569c-4.446-3.05-10.709-2.718-14.811 1.385-1.858 1.858-3.011 4.232-3.325 6.799H12.946zm8.181 18.787c-.588.588-1.54.588-2.128 0-.284-.284-.441-.662-.441-1.064s.157-.78.441-1.064l3.972-3.972 2.128 2.128-3.972 3.972zm5.734-5.734l-.767.767-2.128-2.128.767-.767c.027-.027.062-.04.098-.04s.071.014.098.04l1.933 1.933c.054.054.054.142 0 .195zm.531-1.653l-1.006-1.006 1.234-1.234c.157.177.319.35.487.518s.342.331.519.487l-1.235 1.235zm1.71-2.716c-1.935-1.935-3.001-4.508-3.001-7.244s1.066-5.309 3.001-7.244a10.24 10.24 0 1 1 14.489 14.489 10.24 10.24 0 0 1-14.489 0z" fill="url(#A)"/><path d="M44.06 24.72c-.379-.082-.754.158-.836.538-.286 1.316-.943 2.517-1.9 3.474-2.751 2.751-7.203 2.751-9.954 0a7.05 7.05 0 0 1 0-9.954c2.751-2.751 7.203-2.751 9.954 0 .956.956 1.613 2.156 1.899 3.47.083.379.457.62.837.537s.62-.457.537-.837c-.344-1.578-1.132-3.018-2.279-4.165a8.44 8.44 0 0 0-11.943 0c-3.293 3.293-3.293 8.65 0 11.943s8.65 3.293 11.943 0c1.148-1.148 1.936-2.59 2.28-4.169.082-.379-.158-.754-.538-.836z" fill="url(#B)"/><path d="M34.115 26.815a.57.57 0 0 0-.114.366.56.56 0 0 0 .139.355c.085.095.199.15.319.155s.237-.04.328-.127c.221-.248.484-.444.774-.578a2.17 2.17 0 0 1 1.827 0c.29.134.553.33.774.578.088.1.208.158.334.16a.44.44 0 0 0 .276-.077c.083-.056.148-.139.188-.238s.051-.208.033-.315-.065-.204-.134-.28a3.34 3.34 0 0 0-1.083-.807 3.04 3.04 0 0 0-2.554 0 3.34 3.34 0 0 0-1.083.807h-.024z" fill="url(#C)"/><path d="M40.947 19.998a.5.5 0 0 0-.671-.22l-2.002 1.001a.5.5 0 0 0-.22.671.5.5 0 0 0 .446.275c.078.001.156-.018.225-.055l2.002-1.001a.5.5 0 0 0 .22-.671z" fill="url(#D)"/><path d="M39.5 23.725a.5.5 0 1 0 0-1 .5.5 0 1 0 0 1z" fill="url(#E)"/><path d="M34.73 20.788l-1.98-.992c-.058-.035-.123-.058-.191-.067s-.136-.004-.201.015-.126.051-.179.095-.095.097-.126.158-.048.127-.052.195.006.136.03.2.06.122.107.172.104.088.167.114l1.98.992a.46.46 0 0 0 .223.054c.091 0 .181-.026.259-.074s.141-.117.182-.199c.059-.117.069-.253.028-.377s-.129-.228-.246-.287z" fill="url(#F)"/><path d="M33.5 23.725a.5.5 0 1 0 0-1 .5.5 0 1 0 0 1z" fill="url(#G)"/><defs><linearGradient id="A" x1="24" y1=".5" x2="24" y2="42.949" xlink:href="#H"><stop stop-color="#c45ed3"/><stop offset="1" stop-color="#fba2b8"/></linearGradient><linearGradient id="B" x1="36.259" y1="15.308" x2="36.259" y2="32.196" xlink:href="#H"><stop stop-color="#c45ed3"/><stop offset="1" stop-color="#fba2b8"/></linearGradient><linearGradient id="C" x1="36.5" y1="25.725" x2="36.5" y2="27.725" xlink:href="#H"><stop stop-color="#c762d3"/><stop offset="1" stop-color="#fba2b8"/></linearGradient><linearGradient id="D" x1="39.5" y1="19.725" x2="39.5" y2="21.725" xlink:href="#H"><stop stop-color="#c762d3"/><stop offset="1" stop-color="#fba2b8"/></linearGradient><linearGradient id="E" x1="39.5" y1="22.725" x2="39.5" y2="23.725" xlink:href="#H"><stop stop-color="#c762d3"/><stop offset="1" stop-color="#fba2b8"/></linearGradient><linearGradient id="F" x1="33.5" y1="19.725" x2="33.5" y2="21.725" xlink:href="#H"><stop stop-color="#c762d3"/><stop offset="1" stop-color="#fba2b8"/></linearGradient><linearGradient id="G" x1="33.5" y1="22.725" x2="33.5" y2="23.725" xlink:href="#H"><stop stop-color="#c762d3"/><stop offset="1" stop-color="#fba2b8"/></linearGradient><linearGradient id="H" gradientUnits="userSpaceOnUse"/></defs></svg>