<svg width="91" height="138" viewBox="0 0 91 138" fill="none" xmlns="http://www.w3.org/2000/svg">
<path fill-rule="evenodd" clip-rule="evenodd" d="M16.0363 2.88205C11.7048 1.71906 6.75403 0.498914 1.75735 0.0213714C1.47411 -0.0287429 1.18231 0.00978006 0.921905 0.131656C0.764779 0.241618 0.633073 0.383831 0.535605 0.548748C0.438138 0.713665 0.377142 0.897475 0.35678 1.08783C-0.0193109 2.93438 -0.0986782 4.82883 0.121581 6.70024C-0.008203 14.7691 3.58518 23.3546 11.064 32.8785C13.6813 36.2087 16.9204 39.9594 21.1006 42.5049C25.5267 45.2013 30.4613 46.0669 34.636 44.8805C35.149 44.7285 35.6505 44.5401 36.1366 44.3169C37.4868 44.1251 38.8036 43.7466 40.0491 43.1925C48.0227 49.335 55.5934 56.2218 62.9154 62.8875C65.722 65.441 153.494 135.43 156.387 138C156.56 137.851 156.768 137.748 156.993 137.701C154.037 135.077 66.2032 65.0311 63.3398 62.4236C56.08 55.8173 48.577 48.9953 40.6709 42.8824C40.7575 42.8366 40.8467 42.7934 40.9305 42.7449C42.4933 43.2518 44.459 43.5053 45.5406 42.149C45.5595 42.1274 45.573 42.1031 45.5892 42.0816C55.9746 50.8181 151.406 126.912 162 135.535C161.927 135.331 161.849 135.12 161.765 134.891C161.714 134.75 161.681 134.603 161.667 134.454C151.29 126.003 56.0773 50.0873 45.9055 41.5288C46.3814 40.4367 46.4815 38.622 46.5653 36.9933C46.6059 36.2249 46.6437 35.4968 46.7194 34.9818C47.3494 30.7321 47.7793 25.2125 45.5108 20.216C44.5617 18.1262 43.1206 16.0823 41.1035 13.971C34.6603 7.21904 25.3807 3.19618 16.0363 2.88205ZM0.729943 4.82161L0.637989 4.73344C0.616762 3.55419 0.728312 2.37628 0.970555 1.22184C0.986955 1.01382 1.08045 0.819348 1.23282 0.676346C1.38214 0.624164 1.54284 0.613262 1.69787 0.644796C5.78336 1.03524 9.84185 1.93074 13.5596 2.88124C12.9431 2.9047 12.3266 2.94568 11.7102 3.00015C10.5793 2.59807 9.41606 2.29325 8.23308 2.08902L8.18165 2.39804C9.10556 2.56119 10.0171 2.7876 10.9098 3.07566L10.7882 3.08914L10.899 3.45047C10.9801 3.71445 11.0613 3.96899 11.1451 4.22947C10.8315 4.10975 10.5151 3.99029 10.2042 3.86922C8.98475 3.39357 7.60034 2.85482 6.43499 2.00193L6.24844 2.25457C7.44624 3.13173 8.85222 3.67858 10.0906 4.16097C10.4799 4.31233 10.8711 4.46253 11.2641 4.61156C11.3722 4.9505 11.4777 5.28999 11.5885 5.62327C11.5209 5.6017 11.4533 5.58174 11.3857 5.55882C8.93715 4.71659 6.67361 3.41314 4.7181 1.71933L4.5126 1.95555C6.49872 3.67504 8.79702 4.9988 11.283 5.85516C11.4236 5.90316 11.5669 5.9455 11.7102 5.98999C11.8075 6.2866 11.9049 6.58321 12.0022 6.8755C11.9427 6.84854 11.886 6.82158 11.8265 6.79461C11.4777 6.64199 11.1262 6.49154 10.7747 6.3408C8.95227 5.55883 7.06769 4.75177 5.42917 3.60901C4.79918 3.17029 4.20165 2.68171 3.62574 2.20902L3.42566 2.45169C4.00698 2.92815 4.60993 3.42053 5.24804 3.86572C6.9163 5.02762 8.81439 5.84142 10.6503 6.62933C11.0018 6.77952 11.3533 6.92944 11.6993 7.08179C11.8481 7.14569 11.9914 7.21419 12.1374 7.28106C12.3158 7.80237 12.4952 8.31577 12.6755 8.82127L12.5781 8.7811C10.3204 7.85972 7.97617 6.81268 6.29439 5.05297L6.06731 5.26869C7.79235 7.0737 10.1717 8.13636 12.4591 9.07069L12.8188 9.21766C13.0026 9.72783 13.1892 10.2337 13.3758 10.7298C12.5695 10.3645 11.7897 9.94336 11.0423 9.4695C10.0365 8.81048 8.80624 7.9193 7.50299 6.97608C5.82932 5.76483 4.09892 4.51287 2.75782 3.69449L2.59285 3.96144C3.92584 4.77334 5.65088 6.02154 7.31644 7.22928C8.6251 8.17466 9.85808 9.068 10.872 9.73132C11.7244 10.2694 12.6155 10.7439 13.538 11.151C13.7056 11.586 13.8733 12.0198 14.0436 12.4453C12.5835 11.6617 11.0775 10.8487 9.77966 9.79307C9.28486 9.38861 8.80627 8.94126 8.34391 8.50659C7.37864 7.60139 6.38093 6.66572 5.16691 6.07978L5.02901 6.3621C6.20247 6.92836 7.18125 7.84731 8.12759 8.73498C8.59536 9.17342 9.07667 9.62643 9.58229 10.0363C10.9207 11.1265 12.4646 11.9551 13.9571 12.7562C14.049 12.8048 14.1409 12.856 14.2302 12.9045C14.4789 13.5139 14.7304 14.1134 14.9845 14.7031L13.538 13.7916C13.1393 13.5513 12.7547 13.2884 12.3861 13.0043C12.0968 12.7697 11.8237 12.5027 11.5587 12.2439C11.4073 12.0961 11.2559 11.9473 11.0991 11.8044C10.5935 11.3392 10.0501 10.9237 9.52281 10.5225L6.37822 8.1202L6.18626 8.36907L9.33349 10.7711C9.85263 11.1683 10.3907 11.58 10.8855 12.0338C11.0396 12.1754 11.1884 12.3213 11.3371 12.4677C11.6102 12.7319 11.8886 13.0043 12.1888 13.247C12.5662 13.5397 12.9608 13.8099 13.3704 14.0559L15.2036 15.21C15.4821 15.8464 15.7632 16.4719 16.0525 17.084C10.6067 13.4358 5.48081 9.33359 0.729943 4.82161ZM27.241 44.3517C26.9841 44.1495 26.7246 43.9472 26.4677 43.7504C21.1898 39.6787 15.7335 35.4696 11.7156 30.074L11.4641 30.26C15.5064 35.6907 20.9816 39.9133 26.2757 43.9985C26.3433 44.0524 26.4136 44.1063 26.4839 44.1603C24.7044 43.6692 23.0024 42.9322 21.4277 41.9707C17.3314 39.4765 14.1409 35.7797 11.5587 32.4927C4.59096 23.6186 1.04897 15.594 0.773181 8.06572C0.814186 8.00689 0.858414 7.95036 0.905666 7.89639C0.846182 7.50162 0.797499 7.11765 0.756942 6.73852C0.76235 6.40308 0.762373 6.06711 0.7813 5.73356C5.67927 10.3334 10.9669 14.5022 16.5852 18.1934C16.7339 18.4981 16.888 18.7893 17.0394 19.0859C16.8826 18.9969 16.7231 18.9106 16.5689 18.8189C14.6578 17.6342 12.8187 16.3377 11.0613 14.936L7.03794 11.8518L6.84598 12.1004L10.872 15.1841C12.6383 16.593 14.4864 17.8968 16.4068 19.0886C16.6961 19.2612 16.9962 19.4202 17.2909 19.582C17.3693 19.7357 17.445 19.8921 17.5261 20.0431L8.62783 14.3779L8.46016 14.6421L17.8344 20.6121C18.1399 21.1783 18.4499 21.7347 18.7645 22.2812C16.3473 21.0813 13.8759 19.8247 11.7021 18.1934C8.94685 16.1279 6.67836 13.4799 4.50178 10.8679C4.41525 10.9302 4.33687 10.9946 4.25575 11.0647C6.44586 13.6903 8.73055 16.3571 11.5128 18.4441C13.8381 20.1887 16.4879 21.5046 19.0538 22.7746C19.3729 23.3139 19.6946 23.8478 20.0245 24.3682C17.9452 23.2222 15.8452 22.1158 13.7245 21.0489L13.5515 20.9626C12.6603 20.5401 11.7953 20.0646 10.9612 19.5389C8.59265 17.9749 6.85411 15.6695 5.17503 13.4395L4.92359 13.6283C6.61889 15.8798 8.37366 18.2068 10.7882 19.8005C11.6329 20.3329 12.5087 20.8146 13.4109 21.2431L13.5813 21.3293C15.8705 22.478 18.1345 23.6753 20.3733 24.921C20.4436 25.0316 20.5112 25.1448 20.5815 25.2527C19.8649 25.1691 19.1511 25.0936 18.4346 25.0127C16.2418 23.8775 14.003 22.6992 11.9021 21.3563C7.649 18.6356 4.71808 15.6964 2.94437 12.3698L2.66586 12.5173C4.46662 15.8906 7.43273 18.8702 11.7318 21.6206C13.6137 22.8205 15.601 23.891 17.5694 24.9156C16.5879 24.8105 15.6145 24.708 14.6384 24.6082C11.2965 22.3836 8.04646 19.9784 5.34263 17.0339L5.11014 17.2442C7.70582 20.0701 10.7936 22.3971 13.9787 24.5435C13.3893 24.4842 12.7998 24.4195 12.2131 24.3655C10.0896 22.7186 8.0518 20.9645 6.10784 19.1101L5.88881 19.334C7.71119 21.0975 9.66338 22.745 11.6561 24.3251L11.794 24.7619C12.2051 26.0506 12.7009 27.3108 13.2784 28.5343C10.7338 26.3759 8.40986 23.9715 6.3404 21.3563L6.0916 21.5505C8.32789 24.3661 10.8505 26.9433 13.6191 29.2408C14.486 30.9709 15.5115 32.6173 16.6826 34.1591C13.7786 31.5678 11.3262 28.4857 8.94415 25.4846L8.69813 25.6787C11.4155 29.1059 14.2301 32.6356 17.71 35.4399C19.0601 37.0455 20.5713 38.5091 22.22 39.8082C24.1914 41.3884 26.4067 42.6396 28.7795 43.5131C29.2689 43.9122 29.7519 44.3184 30.2287 44.7319C30.3828 44.7292 30.5369 44.7265 30.6965 44.7211C30.326 44.3975 29.9475 44.0848 29.569 43.7693C30.7218 44.1306 31.9118 44.3613 33.1165 44.4569C33.2814 44.4703 33.4544 44.4757 33.6302 44.4811C31.5161 44.8993 29.3363 44.8552 27.241 44.352V44.3517ZM22.1902 35.2242C23.3772 36.3837 24.9671 36.9661 26.6246 37.5081C28.1063 37.9907 29.6231 38.4546 31.0913 38.9049C34.2791 39.881 37.5534 40.8948 40.6979 42.1703C40.339 42.3782 39.968 42.5646 39.5867 42.7284C36.1389 41.0431 32.5107 39.7532 28.7714 38.8833C28.5416 38.8294 28.309 38.7754 28.0792 38.7242C26.9618 38.5048 25.8641 38.1955 24.7968 37.7993C22.4943 36.8576 20.598 35.1373 19.4405 32.9403L19.1619 33.0832C20.3536 35.3477 22.3076 37.1207 24.6804 38.0905C25.7631 38.4939 26.8773 38.8077 28.0116 39.0289C28.2414 39.0828 28.4713 39.134 28.7011 39.188C32.3248 40.0322 35.844 41.2729 39.1947 42.8875C38.6877 43.0836 38.1695 43.2493 37.6427 43.3837C36.0101 42.3936 34.268 41.5956 32.4513 41.0054C31.7699 40.7924 31.0669 40.6117 30.3856 40.4391C28.9066 40.0616 27.3789 39.6733 26.0405 38.9237L25.8864 39.1961C27.26 39.9673 28.8119 40.3609 30.3098 40.7438C30.9858 40.9164 31.6861 41.0944 32.3567 41.3047C34.048 41.8523 35.6731 42.5858 37.2019 43.4915C36.6073 43.6251 36.005 43.7224 35.3985 43.7827C33.9268 43.0462 32.3999 42.4251 30.8317 41.9249L25.2915 40.0077L25.1888 40.3016L30.7317 42.2215C32.1146 42.6744 33.4682 43.2121 34.7847 43.8313C34.2437 43.8672 33.7009 43.8681 33.1597 43.834C29.7042 43.5859 26.054 42.0247 22.6093 39.3174C17.9351 35.6264 14.437 30.6604 12.5403 25.0235C15.8687 25.3444 19.2404 25.7084 22.5742 26.1101C28.7417 26.8517 34.6712 27.7981 39.4056 31.1903C41.0117 32.339 42.9827 34.5123 43.5019 36.7693C39.9858 32.5323 35.2343 29.4921 29.907 28.0705L29.8286 28.3725C35.2728 29.8238 40.1034 32.9857 43.6046 37.3895C43.6602 37.9093 43.6189 38.435 43.4829 38.9399C39.0054 34.2777 33.2165 31.0986 26.7191 27.7766L26.5785 28.0543C33.1029 31.3925 38.9108 34.5851 43.3721 39.277C43.3217 39.4217 43.262 39.5631 43.1936 39.7003C43.1557 39.7731 43.1098 39.8378 43.0692 39.9052C38.7917 36.7261 34.052 34.1645 29.4419 31.6864L25.7863 29.7234C24.2088 28.825 22.5667 28.0445 20.8735 27.3883L20.768 27.6849C22.4461 28.3355 24.0737 29.1087 25.6376 29.9984L29.2932 31.9642C33.9005 34.4395 38.6404 37.0011 42.9043 40.1749C42.8583 40.2477 42.807 40.3178 42.7556 40.3879C38.7107 38.1472 34.444 36.2542 30.2963 34.4179C26.392 32.6868 22.3525 30.8991 18.5401 28.8363L18.3886 29.1113C22.2145 31.1795 26.2595 32.9727 30.1692 34.7038C34.2953 36.5293 38.5376 38.4141 42.5555 40.636C42.3643 40.8691 42.1555 41.0872 41.9309 41.2885C39.3542 39.8998 36.507 39.01 33.7302 38.1552L32.7028 37.8371C29.0796 36.7127 25.3077 35.3941 22.3822 32.8243C22.3586 32.8928 22.3249 32.9573 22.2822 33.0158C22.2578 33.0455 22.2281 33.0562 22.2038 33.0832C25.1726 35.6772 28.966 37.0039 32.6108 38.1364L33.6383 38.4545C36.3583 39.2904 39.1433 40.1641 41.6659 41.5016C41.4604 41.666 41.2469 41.8197 41.0252 41.9653C37.8049 40.6414 34.4494 39.6032 31.1832 38.6056C29.7177 38.1579 28.2008 37.6941 26.7219 37.2088C25.0996 36.6803 23.5476 36.1113 22.4093 35.0004L22.1902 35.2242ZM41.647 42.297C42.212 41.9091 42.7183 41.4424 43.1503 40.911C43.3804 40.6235 43.5823 40.3147 43.7533 39.9888C43.8074 39.8837 43.8425 39.7758 43.8858 39.6706C44.3211 40.307 44.7402 40.9542 45.1485 41.6094C44.4077 42.6991 42.9151 42.6235 41.647 42.2973V42.297ZM45.3242 41.2885C44.9051 40.6252 44.4734 39.9717 44.0291 39.3282C44.2046 38.7836 44.2761 38.2111 44.24 37.6402C44.7447 38.3682 45.2278 39.1125 45.6893 39.8729C45.6284 40.3584 45.5057 40.8342 45.3242 41.2888V41.2885ZM46.4625 31.8455C46.4463 32.0208 46.4301 32.1988 46.4139 32.374C45.2519 29.7665 43.9225 27.2365 42.4339 24.7997C43.0369 25.6087 43.5973 26.4484 44.1129 27.3155C44.87 28.5963 45.5324 29.9499 46.1759 31.2604L46.4625 31.8455ZM40.6493 14.4021C42.6177 16.4622 44.021 18.4495 44.9403 20.4746C45.4321 21.5708 45.809 22.7148 46.0651 23.8883C44.0474 19.9706 41.501 16.347 38.4971 13.1186L38.2672 13.3316C41.513 16.8237 44.2187 20.7788 46.2949 25.0666C46.4737 26.1897 46.5703 27.3244 46.5842 28.4615C46.4733 28.2404 46.3598 28.0192 46.2435 27.8008C45.6838 26.4014 45.0998 24.975 44.4265 23.6025C41.9579 18.5738 38.3068 14.2149 33.7843 10.8973L33.5977 11.1499C38.0793 14.438 41.6979 18.7573 44.1453 23.7402C44.44 24.3415 44.7159 24.9564 44.9808 25.5765C40.5229 18.2095 34.1293 12.1988 26.4921 8.19515L26.3488 8.47315C34.688 12.8471 41.5167 19.6195 45.9488 27.9117C46.0272 28.1085 46.1083 28.3054 46.184 28.4995C46.3192 28.8366 46.4517 29.179 46.5869 29.5188C46.5761 30.0985 46.5499 30.6683 46.5085 31.2283L46.4571 31.1258C45.8136 29.81 45.1458 28.4483 44.3833 27.1594C43.3656 25.442 42.178 23.8304 40.8386 22.3489C39.8936 20.961 38.8365 19.6525 37.6778 18.4363C35.174 15.8423 32.1187 13.8119 29.1634 11.8475C27.56 10.7813 25.8999 9.67956 24.3479 8.50013L24.1586 8.74928C25.7187 9.93572 27.3816 11.0394 28.9904 12.108C31.9322 14.0627 34.9739 16.0823 37.4533 18.652C38.0374 19.2587 38.6079 19.9113 39.1784 20.6285C36.3594 17.9433 33.1486 15.6996 29.6555 13.9737C29.3392 13.8146 29.0201 13.6582 28.7011 13.5018C27.3627 12.8492 25.9783 12.1757 24.8075 11.2435C23.4259 10.1469 22.366 8.72905 21.4277 7.3606L21.1682 7.53721C22.1226 8.92562 23.1987 10.3658 24.6101 11.4883C25.8106 12.4421 27.2086 13.1243 28.5632 13.7822C28.8795 13.9386 29.1986 14.095 29.5149 14.2541C33.6938 16.3034 37.4511 19.1148 40.5925 22.543C41.0765 23.2387 41.5659 23.9829 42.0661 24.7973C43.6852 27.4245 45.1155 30.1629 46.3463 32.9918C46.2733 33.647 46.1894 34.2834 46.1002 34.8901C46.0894 34.9575 46.0813 35.033 46.0732 35.1031C42.469 28.5696 37.4101 20.8469 29.7826 16.0338C29.1797 15.6536 28.5524 15.2868 27.9494 14.9309C26.3704 14.0087 24.7399 13.0515 23.4042 11.7833C22.7253 11.1128 22.087 10.4025 21.4927 9.65636C20.6653 8.66056 19.8109 7.63024 18.7645 6.82211L18.5698 7.06966C19.5892 7.85675 20.4327 8.8733 21.2493 9.85589C21.8525 10.6106 22.4988 11.3298 23.1852 12.0101C24.548 13.3044 26.1946 14.2676 27.7899 15.2006C28.3928 15.5538 29.0174 15.9205 29.6149 16.298C37.3398 21.1705 42.4203 29.0711 46.0191 35.6559C45.9867 36.055 45.9623 36.4945 45.938 36.9529C44.9049 35.1915 43.7804 33.485 42.569 31.8404C38.854 26.6686 34.3629 20.9009 28.0602 17.8647C27.606 17.6462 27.141 17.4386 26.6759 17.2337C25.0563 16.5164 23.3826 15.7749 22.2065 14.4698C21.8624 14.0728 21.5445 13.654 21.2547 13.216C21.1006 12.9948 20.9492 12.7764 20.787 12.5607L20.5355 12.7468C20.6923 12.9598 20.8437 13.1755 20.9952 13.3939C21.2935 13.8415 21.6195 14.2702 21.9712 14.6774C23.1933 16.0338 24.8995 16.7888 26.5488 17.5195C27.0112 17.7244 27.4735 17.9294 27.9223 18.1451C34.1601 21.1489 38.6214 26.8843 42.3148 32.0211C43.6204 33.7917 44.8203 35.6375 45.9082 37.5488C45.8731 38.1582 45.8272 38.7946 45.7569 39.3878C45.254 38.5735 44.7249 37.7771 44.1697 36.9987C43.7371 34.4317 41.5551 31.959 39.7705 30.6836C39.1926 30.2706 38.5933 29.8881 37.9752 29.5376C36.8288 28.3026 35.6661 27.0838 34.5089 25.8812C31.5698 22.8261 28.5334 19.6686 24.8238 17.4251L24.6589 17.6921C28.3361 19.914 31.3589 23.058 34.2818 26.0969C35.2281 27.0812 36.1799 28.0762 37.1262 29.0819C36.239 28.6325 35.3252 28.2372 34.3899 27.8982C33.495 26.9598 32.5991 26.0268 31.7023 25.0993C30.1828 23.4761 28.58 21.9326 26.9003 20.4748C26.5056 20.1459 26.1054 19.825 25.7025 19.5041C24.8502 18.8475 24.0334 18.1464 23.2555 17.4036C21.7495 15.9124 20.5706 14.1031 19.4296 12.3542L16.8096 8.33645L16.5447 8.50686L19.1647 12.5246C20.3165 14.2854 21.5035 16.1082 23.0339 17.6263C23.82 18.3772 24.6458 19.0856 25.5078 19.7484C25.908 20.0666 26.3082 20.3875 26.6976 20.7137C28.3692 22.1642 29.9639 23.7006 31.4752 25.3166C32.2269 26.0905 32.9812 26.8778 33.7356 27.6652C32.3703 27.2113 30.9789 26.8394 29.569 26.5516C28.6957 25.7372 27.798 24.958 26.9138 24.1976L22.1389 20.0908L21.9334 20.3281L26.7083 24.4349C27.4573 25.0793 28.2117 25.748 28.9579 26.4302C28.0494 26.2549 27.1329 26.0985 26.2027 25.9583C25.7566 25.5862 25.3104 25.2087 24.8832 24.8123C22.0172 22.159 19.8865 18.7237 18.1155 15.7091L17.8451 15.8655C19.627 18.899 21.7712 22.3613 24.6697 25.0416C24.9779 25.3274 25.297 25.6024 25.616 25.8748C25.1266 25.8047 24.6345 25.7372 24.1397 25.6725C21.9549 23.1479 19.9078 20.5078 18.0074 17.7638L17.7478 17.9391C19.5877 20.6 21.5679 23.1617 23.68 25.6132C23.3367 25.5701 22.9933 25.5269 22.6499 25.4865C22.2308 25.4352 21.809 25.3921 21.3872 25.3436C17.5099 19.5165 14.3924 12.5947 11.6129 3.63032C22.2065 2.6 33.303 6.70482 40.6493 14.4024V14.4021ZM21.5386 18.4252C22.1813 19.043 22.8852 19.5941 23.6395 20.0701L23.9694 20.2939C26.8492 22.2904 29.5212 24.5695 31.9457 27.0971C31.751 27.0431 31.5591 26.9919 31.3617 26.9461C29.0497 24.5778 26.5154 22.436 23.7936 20.55L23.4637 20.3262C22.6898 19.8424 21.9694 19.2784 21.3142 18.6437C20.6536 17.9058 20.0769 17.0974 19.5946 16.233C18.9349 15.1464 18.313 14.1217 17.3531 13.3802L17.5478 13.1321C18.5509 13.9114 19.2188 15.0088 19.8623 16.0712C20.3333 16.9146 20.8954 17.7041 21.5386 18.4255V18.4252Z" fill="url(#paint0_linear)"/>
<defs>
<linearGradient id="paint0_linear" x1="81" y1="0" x2="81" y2="138" gradientUnits="userSpaceOnUse">
<stop stop-color="#FBA2B8"/>
<stop offset="1" stop-color="white"/>
<stop offset="1" stop-color="white"/>
</linearGradient>
</defs>
</svg>
