<svg width="192" height="375" viewBox="0 0 192 375" fill="none" xmlns="http://www.w3.org/2000/svg">
    <path style="transform: translate(0px, 30px);" fill-rule="evenodd" clip-rule="evenodd" d="M54.2981 1.12714C88.8685 0.563743 126.68 0.960274 153.014 22.3671C178.746 43.2838 183.38 78.5751 188.775 110.441C193.434 137.958 190.638 165.207 181.689 191.739C172.719 218.329 156.11 240.166 137.696 261.867C112.266 291.837 93.7148 333.489 54.2981 341.868C13.5693 350.526 -31.178 331.787 -61.259 304.16C-89.7368 278.005 -87.8847 236.016 -100.051 200.108C-112.198 164.254 -144.327 130.149 -132.384 94.2333C-120.434 58.2995 -76.9832 42.9923 -42.0013 25.5453C-11.8214 10.4933 20.259 1.68187 54.2981 1.12714Z" stroke="#FBA2B8"/>
    <path fill-rule="evenodd" clip-rule="evenodd" d="M54.2981 0.127138C88.8685 -0.436257 126.68 -0.0397261 153.014 21.3671C178.746 42.2838 183.38 77.5751 188.775 109.441C193.434 136.958 190.638 164.207 181.689 190.739C172.719 217.329 156.11 239.166 137.696 260.867C112.266 290.837 93.7148 332.49 54.2981 340.868C13.5693 349.526 -31.178 330.788 -61.259 303.16C-89.7368 277.005 -87.8847 235.016 -100.051 199.108C-112.198 163.254 -144.327 129.149 -132.384 93.2333C-120.434 57.2995 -76.9832 41.9923 -42.0013 24.5453C-11.8214 9.49328 20.259 0.681872 54.2981 0.127138Z" fill="#FFF0F3"/>
</svg>
