<svg width="226" height="268" viewBox="0 0 226 268" fill="none" xmlns="http://www.w3.org/2000/svg">
<path fill-rule="evenodd" clip-rule="evenodd" d="M71.9173 68.8001C71.1868 68.7141 70.7527 67.9446 70.5176 67.2451C70.2173 66.3519 70.0665 65.291 70.6183 64.5317C71.2133 63.7143 72.4341 63.5837 73.3749 63.9583C74.3156 64.3329 75.4456 65.3382 76.1391 66.0778L71.9173 68.8001ZM91.1005 58.6523C90.6234 58.3843 90.5484 57.7335 90.5854 57.1869C90.6348 56.4907 90.8341 55.7223 91.4299 55.3622C92.0711 54.9746 92.9445 55.2362 93.482 55.7621C94.0486 56.4215 94.4856 57.1822 94.7698 58.0039L91.1005 58.6523ZM65.6735 79.0519C65.3456 78.3907 64.4775 78.2414 63.742 78.2556C62.8027 78.2739 61.7569 78.4891 61.2318 79.2681C60.6661 80.1065 60.9564 81.3036 61.6258 82.0655C62.2951 82.8273 63.6197 83.5541 64.5477 83.9599L65.6735 79.0519ZM80.9423 63.4879C79.9022 63.3653 79.2849 62.2697 78.9499 61.2744C78.5222 60.0028 78.3063 58.4932 79.0932 57.4118C79.9401 56.2485 81.6781 56.0622 83.0168 56.5956C84.3555 57.129 85.9647 58.5602 86.9524 59.6126L80.9423 63.4879ZM63.6031 89.3802C62.9109 88.5172 61.5921 88.5785 60.5209 88.8374C59.1524 89.1675 57.6915 89.8209 57.1733 91.1319C56.6151 92.5431 57.4248 94.2032 58.6495 95.1036C59.8741 96.004 62.0465 96.6414 63.5354 96.9367L63.6031 89.3802ZM255.834 266.663L254.627 267.757C254.404 267.729 254.194 267.637 254.021 267.493C253.849 267.349 253.721 267.159 253.653 266.944C253.613 266.775 253.626 266.597 253.689 266.435C253.753 266.274 253.865 266.135 254.01 266.039L254.767 267.111C254.824 267.066 254.87 267.008 254.899 266.941C254.929 266.874 254.943 266.801 254.939 266.728C254.94 266.678 254.93 266.627 254.91 266.58C254.89 266.534 254.86 266.492 254.823 266.457C254.765 266.456 254.708 266.471 254.658 266.501C254.608 266.53 254.567 266.572 254.54 266.623C254.54 266.623 254.561 266.458 254.21 266.018C237.026 244.472 217.883 224.022 199.372 204.246C181.327 184.971 162.671 165.037 142.706 147.129C136.153 141.252 129.348 135.493 122.479 130.011L123.294 128.985C130.182 134.482 137.007 140.258 143.579 146.151C163.587 164.098 182.264 184.051 200.327 203.347C218.857 223.144 238.014 243.612 255.235 265.2C255.602 265.601 255.815 266.12 255.834 266.663ZM265.578 257.833L208.024 196.496C193.944 181.49 179.382 165.973 163.416 152.471C159.35 149.032 155.102 145.645 150.991 142.37C140.263 133.819 129.169 124.977 120.187 114.3L121.19 113.454C130.086 124.031 141.128 132.831 151.805 141.342C155.923 144.624 160.18 148.017 164.26 151.468C180.285 165.02 194.87 180.565 208.978 195.597L266.551 256.951L265.578 257.833ZM97.6788 115.347C93.7164 112.717 90.0874 109.614 86.8718 106.106C84.4575 103.459 82.2507 100.546 80.1165 97.7293C77.7662 94.6269 75.3324 91.4314 72.6083 88.5524C72.4646 88.6686 72.3106 88.7715 72.1483 88.8599C74.8807 91.7356 77.3239 94.9432 79.6829 98.0573C81.8262 100.883 84.039 103.806 86.4695 106.472C89.6828 109.978 93.3062 113.083 97.261 115.721C97.4004 115.597 97.539 115.472 97.6788 115.347ZM95.6952 117.164C88.2166 112.534 81.9095 106.231 77.271 98.7497L76.8085 99.0366C81.4713 106.545 87.8012 112.876 95.3037 117.536C95.4326 117.41 95.5648 117.288 95.6952 117.164ZM100.61 113.046C91.1715 105.816 82.8505 96.1915 76.4214 84.8504L75.9473 85.1185C82.36 96.4289 90.6449 106.045 100.044 113.3C100.223 113.196 100.413 113.111 100.61 113.046ZM98.2499 104.963C98.6546 105.268 99.0575 105.575 99.4588 105.884C101.371 107.358 103.225 108.91 105.04 110.51C105.17 110.367 105.295 110.234 105.42 110.12C103.589 108.507 101.72 106.939 99.7899 105.451C99.3873 105.141 98.9832 104.834 98.5777 104.528C97.2136 103.492 95.8001 102.421 94.5169 101.253C90.6852 97.7645 87.8581 93.3106 86.3319 88.3575L85.8138 88.5169C87.3683 93.5635 90.2484 98.1016 94.1522 101.655C95.453 102.841 96.8757 103.92 98.2499 104.963ZM103.095 111.541C103.133 111.506 103.172 111.474 103.209 111.439C103.311 111.349 103.419 111.265 103.532 111.188C102.242 110.222 100.955 109.245 99.6942 108.253C94.7662 104.374 88.5632 99.0302 84.3101 92.0777C84.0337 91.6271 83.766 91.1701 83.4985 90.7135C82.8253 89.503 82.0727 88.3384 81.2457 87.2274L80.8186 87.5622C81.6302 88.6547 82.3691 89.7993 83.0307 90.9887C83.2995 91.4485 83.5684 91.9086 83.8468 92.3631C88.1476 99.388 94.3972 104.774 99.3614 108.681C100.586 109.648 101.841 110.6 103.095 111.541ZM109.879 109.068C108.766 107.588 107.629 106.031 106.456 104.371C104.917 102.194 103.297 99.8372 101.865 97.3457C101.218 96.217 100.599 95.0439 100 93.9095C99.228 92.4455 98.4292 90.93 97.5541 89.4869C94.7617 84.8826 91.1048 80.8384 87.5676 76.9271L87.1646 77.2923C90.6841 81.1849 94.3239 85.2098 97.0898 89.769C97.9562 91.1989 98.7509 92.7064 99.5198 94.1636C100.12 95.3018 100.74 96.4795 101.394 97.6167C102.837 100.128 104.467 102.498 106.013 104.687C107.108 106.237 108.171 107.691 109.214 109.081C109.436 109.07 109.657 109.063 109.879 109.068ZM93.2907 75.9417L92.9074 76.3291C97.5709 80.9593 100.197 87.224 102.736 93.2818C103.585 95.307 104.462 97.4025 105.404 99.4047C107.011 102.792 108.876 106.05 110.982 109.151C111.228 109.184 111.474 109.231 111.721 109.278C109.513 106.071 107.566 102.692 105.897 99.174C104.96 97.1805 104.084 95.0922 103.238 93.0717C100.677 86.9639 98.0305 80.648 93.2901 75.9405L93.2907 75.9417ZM110.003 71.9048C112.68 78.3749 115.715 85.7086 115.838 93.1857C115.862 94.6176 115.78 96.0762 115.7 97.4877C115.699 97.513 115.698 97.5382 115.697 97.5648C115.431 94.3485 114.903 91.1586 114.118 88.0272C113.273 84.6737 112.29 82.0639 111.026 79.814C110.007 78.0891 108.876 76.4328 107.641 74.8559L102.996 68.6507L102.562 68.978L107.206 75.182C108.427 76.7395 109.544 78.3754 110.55 80.0793C111.79 82.2853 112.757 84.852 113.591 88.1585C114.688 92.5134 115.282 96.979 115.362 101.467C115.622 100.989 115.877 100.508 116.127 100.025C116.13 99.9582 116.128 99.8918 116.13 99.8251C116.158 99.0571 116.2 98.2878 116.244 97.5189C116.324 96.0993 116.406 94.6308 116.382 93.1791C116.257 85.5972 113.202 78.2128 110.505 71.697L110.003 71.9048ZM97.1753 66.8812L100.408 70.698C101.884 72.4419 103.411 74.244 104.613 76.2201C106.722 79.6833 107.855 83.6951 108.949 87.5759L109.267 88.7012C110.71 93.7699 112.358 98.7956 114.166 103.767C114.275 103.54 114.387 103.314 114.502 103.089C112.769 98.2901 111.183 93.4413 109.79 88.552L109.471 87.4306C108.366 83.5132 107.223 79.4637 105.076 75.9382C103.852 73.9254 102.312 72.1057 100.821 70.3464L97.5882 66.5297L97.1753 66.8812ZM93.5642 119.397C93.6885 119.25 93.8117 119.102 93.938 118.96C92.245 118.111 90.57 117.215 88.956 116.214C81.4448 111.557 75.9012 105.604 72.9236 98.9972L72.4262 99.2204C75.4499 105.927 81.0664 111.965 88.6702 116.678C90.2604 117.662 91.9021 118.557 93.5642 119.397ZM138.536 64.3159C139.38 70.3261 139.443 75.1282 138.731 79.4306C137.327 87.9216 132.706 95.4722 128.235 102.774C125.673 106.959 123.066 111.242 121.014 115.746C121.126 115.952 121.242 116.151 121.35 116.37C123.414 111.751 126.073 107.351 128.7 103.061C133.197 95.7143 137.848 88.1177 139.27 79.5226C139.99 75.1634 139.928 70.3083 139.076 64.2418L138.536 64.3159ZM133.611 75.5746C133.507 75.5405 133.405 75.499 133.306 75.4503C133.226 83.4476 130.379 91.0672 127.527 97.5556C126.689 99.4629 125.797 101.392 124.935 103.256C123.271 106.856 121.577 110.533 120.146 114.312C120.277 114.501 120.402 114.701 120.528 114.902C121.981 111.003 123.714 107.2 125.43 103.488C126.293 101.621 127.186 99.6895 128.026 97.7774C130.882 91.282 133.731 83.6526 133.849 75.6174C133.769 75.6018 133.692 75.5967 133.612 75.575L133.611 75.5746ZM142.489 74.6416C141.884 78.3736 140.543 82.0273 139.183 85.4185C135.441 94.7403 130.943 103.738 125.732 112.32L125.361 112.927C124.847 113.77 124.329 114.624 123.835 115.493C124.131 115.346 124.425 115.192 124.721 115.047C125.084 114.429 125.457 113.818 125.826 113.213L126.197 112.603C131.424 103.996 135.936 94.9727 139.689 85.6233C141.059 82.2032 142.413 78.5166 143.027 74.7303C143.619 71.0797 143.536 67.3336 143.456 63.7113L142.913 63.6788L142.861 64.0687L142.918 64.0765C142.998 67.563 143.055 71.1582 142.489 74.6422L142.489 74.6416ZM141.35 93.6147C145.453 86.4319 149.804 77.8512 150.975 68.6701L150.435 68.5983C149.277 77.6859 144.954 86.2063 140.879 93.3426C139.921 95.0188 138.94 96.6851 137.959 98.3529C135.271 102.925 132.516 107.618 130.248 112.521C130.498 112.413 130.747 112.304 130.999 112.197C133.207 107.517 135.849 103.018 138.428 98.6316C139.411 96.9615 140.392 95.2931 141.35 93.6147ZM129.253 81.0934C128.01 88.6515 125.941 96.0478 123.083 103.149C122.321 105.043 121.487 106.952 120.68 108.798C120.096 110.133 119.515 111.484 118.945 112.846C119.082 112.989 119.225 113.129 119.355 113.28C119.951 111.845 120.565 110.423 121.179 109.018C121.987 107.167 122.822 105.256 123.588 103.353C126.399 96.3705 128.45 89.1033 129.708 81.6771L129.73 81.6798L129.792 81.1706L129.253 81.0934ZM146.153 75.4161C143.924 85.9532 138.292 95.4628 132.847 104.663C131.337 107.212 129.777 109.847 128.315 112.461C128.081 112.878 127.862 113.277 127.648 113.673C127.928 113.545 128.204 113.411 128.485 113.285C128.588 113.099 128.683 112.922 128.79 112.731C130.249 110.122 131.808 107.489 133.316 104.944C138.785 95.7074 144.439 86.1562 146.688 75.534C147.957 69.5566 148.113 63.393 147.147 57.3536L146.61 57.4373C147.564 63.4097 147.409 69.5046 146.154 75.4155L146.153 75.4161ZM126.261 86.5724C125.027 94.0143 122.172 101.165 119.412 108.081C118.909 109.34 118.409 110.61 117.91 111.891C118.06 112.013 118.212 112.133 118.353 112.26C118.87 110.926 119.391 109.6 119.917 108.284C122.688 101.342 125.554 94.1632 126.798 86.6632L126.261 86.5724ZM152.57 63.9968C153.591 69.2148 152.154 74.6045 150.613 79.188C148.654 85.0598 146.141 90.7307 143.11 96.1241C142.093 97.9203 140.995 99.7168 139.931 101.454C138.189 104.301 136.43 107.225 134.929 110.274C134.959 110.254 134.984 110.229 135.016 110.208C135.296 110.028 135.567 109.837 135.842 109.651C137.237 106.931 138.826 104.305 140.395 101.74C141.461 99.9994 142.563 98.1984 143.583 96.3938C146.632 90.9704 149.159 85.2677 151.13 79.3626C152.694 74.7117 154.151 69.2355 153.104 63.8923L152.57 63.9968ZM114.977 110.065C115.593 108.691 116.12 107.278 116.554 105.835L116.032 105.681C115.606 107.095 115.089 108.479 114.486 109.826C114.66 109.903 114.817 109.985 114.977 110.065ZM116.851 111.118C118.896 105.933 120.992 100.575 121.918 94.9878L121.382 94.8955C120.472 100.391 118.407 105.689 116.384 110.816C116.546 110.914 116.696 111.018 116.851 111.118ZM95.3441 98.7998C96.6624 100.201 98.1024 101.52 99.494 102.796L100.488 103.709C102.498 105.566 104.461 107.495 106.404 109.439C106.538 109.367 106.673 109.296 106.829 109.221C107.036 109.123 107.254 109.05 107.479 109.002C104.8 105.401 102.272 101.691 99.8025 98.0197C98.796 96.5231 97.7913 95.0286 96.7765 93.5435C94.8759 90.7632 92.8187 87.8382 90.3832 85.2807C88.714 83.5855 86.9611 81.975 85.1313 80.4553L78.0568 74.3788L77.7038 74.7933L84.7783 80.8698C86.54 82.3823 88.3599 83.9451 89.9896 85.6568C92.397 88.1826 94.4402 91.0901 96.3279 93.8521C97.3423 95.3348 98.3457 96.8285 99.3511 98.3237C101.768 101.917 104.231 105.557 106.844 109.092C104.88 107.13 102.888 105.185 100.858 103.31L99.8617 102.395C98.4772 101.127 97.0459 99.8148 95.7406 98.4278C93.8167 96.3065 92.0076 94.0836 90.3211 91.7685C87.2598 87.7198 84.0949 83.5323 79.7676 80.7482L79.4726 81.2072C83.7177 83.938 86.8535 88.0867 89.8863 92.0979C91.5844 94.428 93.4064 96.6652 95.3441 98.7998ZM100.788 74.0996L100.405 74.487C102.902 76.9713 104.785 80.3607 106.16 84.8497C106.94 87.3887 107.492 90.0397 108.025 92.6028C108.3 93.923 108.584 95.2885 108.896 96.6235C109.605 99.6305 110.477 102.597 111.509 105.509C108.295 99.9172 105.432 93.4037 102.827 85.7715L102.682 85.3474C102.053 83.5012 101.404 81.5916 100.391 79.8786C99.4877 78.4484 98.4609 77.1 97.3225 75.8491L91.7691 69.3833L91.3571 69.7392L96.9137 76.2082C98.0297 77.4346 99.0366 78.7562 99.9228 80.1579C100.906 81.8216 101.547 83.7037 102.167 85.5236L102.313 85.9487C105.287 94.6618 108.598 101.928 112.384 108.033C112.498 107.779 112.608 107.525 112.74 107.279C111.395 103.765 110.288 100.164 109.426 96.5025C109.116 95.1734 108.832 93.8116 108.557 92.4949C108.022 89.9197 107.468 87.2558 106.682 84.6933C105.279 80.1139 103.35 76.6503 100.788 74.0996ZM146.659 49.6721C145.323 49.3905 143.936 49.5092 142.67 50.0132C140.331 51.0061 139.055 53.2881 137.848 55.7369L127.495 76.7077C125.482 80.7838 123.375 84.9177 121.336 88.9152C117.978 95.5012 114.542 102.275 111.358 109.099C111.725 109.175 112.083 109.265 112.438 109.362C115.587 102.622 118.985 95.9265 122.306 89.4143C124.346 85.4135 126.456 81.2766 128.47 77.1933L138.824 56.2224C139.634 54.5805 140.471 53.0222 141.633 51.9692C142.064 51.572 142.559 51.2506 143.097 51.0185C144.168 50.6022 145.337 50.5072 146.462 50.745C150.301 51.4659 152.875 54.8567 154.002 57.7895C155.36 61.3216 155.394 65.3066 155.318 68.7653C155.163 75.928 154.46 85.1615 150.371 93.0656C147.172 99.2491 141.904 104.73 134.713 109.362C130.332 112.183 125.647 114.42 121.305 116.286C121.463 116.6 121.616 116.937 121.768 117.277C126.143 115.394 130.87 113.134 135.303 110.279C137.855 108.65 140.268 106.815 142.519 104.79C146.106 101.61 149.093 97.8103 151.337 93.5704C155.529 85.4689 156.248 76.0729 156.406 68.7926C156.484 65.2306 156.448 61.118 155.017 57.3995C153.442 53.3064 150.239 50.3461 146.657 49.6727L146.659 49.6721ZM89.666 58.3495C86.5233 59.1275 83.7725 60.8153 81.1117 62.4484L72.3646 67.8141C71.1235 68.5741 69.7173 69.4349 68.6983 70.6849C67.4614 72.1981 66.9 74.1557 66.4483 75.7287C64.1575 83.7176 61.8275 93.0054 63.1907 102.143C64.681 112.126 70.8087 120.201 78.8005 122.715C83.8968 124.319 87.7254 122.996 91.7774 121.595C91.9049 121.551 92.0358 121.507 92.1655 121.463C92.2514 121.183 92.3815 120.919 92.551 120.681C92.6268 120.576 92.7075 120.476 92.7846 120.372C92.8341 120.263 92.8857 120.154 92.9348 120.045C92.4225 120.216 91.9189 120.39 91.4192 120.563C87.54 121.903 83.8765 123.17 79.122 121.674C71.526 119.284 65.6945 111.555 64.2658 101.984C62.935 93.0632 65.2334 83.9105 67.4933 76.0318C67.9168 74.556 68.4444 72.7184 69.5389 71.3771C69.766 71.1016 70.0134 70.8434 70.2788 70.6046C71.1045 69.904 71.993 69.2813 72.9332 68.7443L81.6806 63.3784C84.2702 61.789 86.9483 60.1458 89.9274 59.4086C97.7252 57.4813 105.534 62.3341 109.816 67.9983C114.414 74.0813 116.492 81.6779 118.384 89.5799C118.774 91.2083 119.134 92.7796 119.437 94.3197C119.598 93.8189 119.891 93.3711 120.285 93.0234C120.029 91.8163 119.744 90.5889 119.443 89.329C117.524 81.3089 115.409 73.5927 110.682 67.3408C106.187 61.3912 97.9417 56.304 89.666 58.3495ZM139.743 1.18603C138.246 0.0145153 135.604 1.8119 133.624 3.55828C132.262 4.56447 130.872 6.29256 129.594 7.96976C126.835 11.6313 124.486 15.5865 122.591 19.7642C119.101 27.3703 116.736 35.9132 115.362 45.8768C114.094 55.0826 113.781 64.4974 113.517 73.6405C113.679 73.8479 113.809 74.0791 113.9 74.326C113.953 74.4805 114.02 74.6295 114.076 74.7823C114.131 74.9025 114.178 75.0256 114.219 75.1511C114.323 75.4255 114.424 75.7013 114.535 75.9728C114.545 75.6244 114.558 75.2759 114.568 74.9275C114.841 65.4238 115.122 55.596 116.442 46.0299C117.799 36.1727 120.135 27.7299 123.58 20.2221C125.442 16.1174 127.748 12.231 130.458 8.63265C131.417 7.3205 132.485 6.0917 133.65 4.95924C134.518 4.17204 135.379 3.63824 136.019 3.80754C136.695 3.98784 137.21 5.1071 137.469 6.96192C137.713 8.71877 137.298 10.5197 136.895 12.2601L119.707 86.499L120.768 86.7489L137.956 12.5113C138.361 10.759 138.819 8.77289 138.546 6.81559C138.22 4.47543 137.519 3.15537 136.408 2.78796C137.658 1.9839 138.627 1.69606 139.076 2.04618C139.58 2.43781 139.813 3.13707 140.048 3.94165C144.209 18.2869 148.907 34.5237 147.388 50.4111C147.759 50.452 148.12 50.5589 148.454 50.7267C150.053 34.5645 145.298 18.1425 141.091 3.64037C140.871 2.87519 140.566 1.82858 139.743 1.18603ZM80.2309 63.9318C80.2542 63.9152 80.2753 63.9031 80.2985 63.887C80.5268 63.7005 80.7784 63.5445 81.0469 63.423C80.1568 61.0938 79.1621 58.7887 78.1772 56.5561C77.0218 53.9378 75.8279 51.231 74.8466 48.5027C70.9982 37.6811 70.2077 26.012 72.5624 14.7839C72.5956 14.4832 72.7067 14.1966 72.8846 13.9525C73.1305 13.7193 73.5904 13.6655 74.3245 13.8099C79.5875 14.8508 84.5462 18.244 89.9292 24.4887C99.9902 36.1886 106.384 50.5968 108.306 65.9043C108.74 66.2716 109.147 66.6689 109.525 67.0932C107.794 51.092 101.246 35.9849 90.7514 23.7777C85.1998 17.3378 80.0456 13.8298 74.5307 12.7392C73.8151 12.598 72.8169 12.4767 72.103 13.1894C71.7758 13.5769 71.5655 14.0498 71.4965 14.553C69.1001 25.9803 69.904 37.8563 73.8194 48.8702C74.8147 51.635 76.0167 54.3595 77.1791 56.9956C78.1915 59.2885 79.2183 61.6568 80.1203 64.0393C80.162 64.0045 80.1878 63.9632 80.2309 63.9318ZM93.0858 137.534C87.7563 146.353 80.3421 153.72 71.4951 158.987C68.8642 160.603 66.0505 161.901 63.1129 162.853C53.2028 165.898 42.577 163.317 32.543 160.412C29.479 159.524 26.7821 158.635 24.8142 156.728C24.2937 156.224 23.4527 155.226 23.6623 154.203C23.8174 153.694 24.0781 153.223 24.4273 152.821C31.1652 143.801 39.2392 133.59 49.8058 126.557C56.2558 122.263 63.5596 119.255 70.7933 116.938L70.7547 116.911C70.4237 116.686 70.135 116.404 69.9019 116.078C62.7732 118.396 55.5881 121.396 49.2024 125.647C38.4893 132.774 30.3468 143.073 23.5545 152.164C23.1045 152.691 22.7769 153.311 22.595 153.981C22.3631 155.118 22.8821 156.371 24.0586 157.512C26.2068 159.593 29.037 160.531 32.2432 161.46C42.4362 164.411 53.2386 167.03 63.4353 163.896C66.4547 162.919 69.347 161.587 72.0516 159.927C75.6875 157.764 79.0976 155.242 82.2309 152.399C83.4588 151.287 84.6482 150.124 85.7993 148.911C88.9561 145.563 91.744 141.884 94.1149 137.938C93.7579 137.842 93.4127 137.705 93.0858 137.532L93.0858 137.534ZM31.354 143.398C21.1951 141.072 10.3907 137.066 2.20492 129.149C1.50171 128.469 1.39122 128.119 1.3818 127.981C1.42694 127.913 1.47788 127.836 1.53211 127.749C2.21405 127.288 4.86812 127.344 5.79889 127.365C6.25433 127.374 6.65174 127.382 6.94531 127.372C10.3229 127.274 14.3273 127.144 18.4213 126.934C27.3195 126.477 34.581 125.76 41.2725 124.676C42.3004 124.509 43.3268 124.332 44.3532 124.154C47.5622 123.6 50.8807 123.026 54.1709 122.813C54.4751 122.793 54.7821 122.791 55.0871 122.777C55.3091 122.563 55.5667 122.389 55.8484 122.263C56.4046 122.016 56.9378 121.805 57.4639 121.623C56.3401 121.629 55.2152 121.652 54.0961 121.724C50.7496 121.941 47.402 122.519 44.1646 123.079C43.1419 123.256 42.119 123.433 41.0963 123.598C34.4449 124.676 27.2203 125.391 18.3635 125.845C14.2793 126.055 10.2825 126.185 6.91043 126.284C6.62996 126.292 6.25 126.283 5.8168 126.275C4.84484 126.238 3.87175 126.255 2.9019 126.326C16.2694 119.25 30.2045 113.304 44.563 108.547C50.6819 106.522 57.3143 104.605 64.1056 103.627C64.0189 103.269 63.9945 102.9 64.0333 102.534C57.1378 103.52 50.4165 105.46 44.2174 107.511C29.5783 112.36 15.3778 118.442 1.76772 125.691C1.41567 125.874 1.11548 126.344 0.722421 126.982C0.707312 127.007 0.692385 127.033 0.676658 127.057C0.549143 127.179 0.448372 127.327 0.380662 127.49C-0.0354206 128.498 1.08077 129.58 1.44776 129.935C9.69602 137.912 20.4918 141.986 30.6757 144.361C30.8476 144.004 31.0767 143.678 31.354 143.396L31.354 143.398ZM4.98633 106.039C5.45433 105.676 5.99557 105.419 6.57274 105.286C23.7741 100.313 41.6919 98.2583 59.5844 99.2084C60.9357 99.2791 62.2955 99.3728 63.6521 99.5074C63.5386 99.1774 63.4735 98.8328 63.459 98.4843C63.4583 98.4534 63.4574 98.4226 63.4569 98.392C62.1812 98.2708 60.9047 98.1842 59.6378 98.1176C41.6246 97.1609 23.5859 99.2291 6.26846 104.237C5.63861 104.417 3.72221 104.969 3.53763 106.555C3.40823 107.659 4.22141 108.54 4.94493 109.184C8.96731 112.748 13.4933 115.698 18.3754 117.936C18.5019 117.851 18.6356 117.778 18.7751 117.718C19.1036 117.582 19.4394 117.464 19.781 117.364C14.6356 115.126 9.87233 112.09 5.66654 108.369C5.1085 107.873 4.54882 107.285 4.61881 106.686C4.65667 106.432 4.78763 106.2 4.98632 106.037L4.98633 106.039ZM53.2534 56.3208C53.1708 56.3128 53.0884 56.2987 53.0051 56.2911C41.5797 55.2439 30.0083 57.6014 20.4195 62.9332C19.6218 63.3752 18.8082 63.8756 18.3549 64.7329C18.0594 65.3788 17.9118 66.083 17.9227 66.7941C17.4019 78.8252 21.1365 90.6649 28.4686 100.228C28.6952 100.159 28.9295 100.12 29.1661 100.111L29.7358 100.088C22.2966 90.6473 18.4895 78.8489 19.0099 66.8482C18.9959 66.2976 19.1005 65.7508 19.3167 65.245C19.6275 64.6549 20.293 64.2506 20.9485 63.8869C30.3505 58.6612 41.7016 56.3518 52.9111 57.3773C53.2885 57.4119 53.6646 57.4702 54.0413 57.512C53.6717 57.1972 53.3985 56.7842 53.2534 56.3208ZM68.0024 54.4678C65.1847 53.2856 62.4343 51.9176 59.7502 50.582C59.4115 50.4128 58.7623 50.0167 58.0114 49.5571C55.367 47.9413 53.1711 46.6554 51.8331 46.4415C51.9338 46.3498 52.0397 46.2639 52.1503 46.1845C53.3179 45.3523 54.949 45.3458 56.3847 45.4047C58.5883 45.4961 60.7862 45.6997 62.9698 46.0146C62.7651 45.6146 62.5692 45.23 62.3733 44.8447C60.3953 44.584 58.4102 44.3941 56.4272 44.3154C54.8123 44.2498 52.9675 44.2658 51.5205 45.2955C51.0804 45.6078 50.7024 45.9995 50.4057 46.4506C50.4057 46.4506 49.9817 47.2087 49.7794 47.6713C49.0532 49.3332 49.8186 51.9954 50.305 53.0241C51.0072 54.5118 52.0333 55.7966 53.0274 57.0378C53.6398 57.8036 54.2729 58.596 54.8095 59.4148C55.8391 60.9841 56.5945 62.7704 57.3251 64.4972C58.032 66.3179 58.9008 68.0717 59.921 69.7373C61.8073 72.5047 64.1819 74.9046 66.9278 76.8185C66.978 76.4619 67.081 76.1149 67.2334 75.7889C67.2442 75.7664 67.2581 75.7467 67.2691 75.7245C64.7523 73.9272 62.5724 71.698 60.8309 69.1402C59.8071 67.5757 59.0545 65.7955 58.327 64.0738C57.5774 62.3015 56.8028 60.469 55.7192 58.8174C55.1531 57.9548 54.5045 57.1426 53.8756 56.3567C52.8791 55.1085 51.9373 53.9298 51.2902 52.5589C50.7688 51.4542 50.2889 49.2364 50.7789 48.1114C50.8411 47.9573 50.9355 47.8184 51.0557 47.704C51.1569 47.613 51.2769 47.5456 51.4072 47.5064C52.1771 47.2668 55.8705 49.5238 57.4473 50.4882C58.2532 50.9799 58.8883 51.3685 59.2708 51.559C62.5639 53.1997 65.9657 54.8724 69.4851 56.2197C68.9741 55.6695 68.4763 55.0912 68.0021 54.4672L68.0024 54.4678ZM58.8323 20.0734C57.6697 19.9812 56.0241 19.9925 55.1396 21.192C54.844 21.5911 54.8369 22.2589 54.888 23.0178C54.6632 23.7207 54.612 24.6811 54.7167 25.9851C55.2819 32.7467 57.5562 39.257 61.3253 44.9024C62.0967 46.0656 62.8835 47.3199 63.6944 48.6125C66.6068 53.2562 69.9079 58.5192 73.908 61.6684C75.5698 62.9517 77.4652 63.8978 79.4876 64.4534C79.5382 64.3989 79.5804 64.337 79.6355 64.2869L80.0386 63.9217C80.1724 63.801 80.3177 63.6936 80.4722 63.6009C78.3281 63.1158 76.3161 62.1629 74.5798 60.8103C70.7289 57.7791 67.4809 52.6019 64.6152 48.0335C63.8 46.7333 63.0078 45.4694 62.2314 44.3009C58.566 38.8103 56.3534 32.4791 55.8017 25.9033C55.6946 25.0721 55.7305 24.2291 55.9078 23.4109C55.9325 23.3616 55.9502 23.3091 55.9606 23.255C56.0275 23.0575 56.146 22.8816 56.3039 22.7457C56.8141 22.3323 57.9014 22.406 59.8312 22.9862C62.4714 23.7788 65.101 25.5138 67.4358 28.0035C68.7959 29.4958 70.0371 31.0925 71.1479 32.7789C71.1334 32.6851 71.1077 32.596 71.0957 32.5013C71.033 31.9333 71.0305 31.3604 71.0884 30.7922C70.2118 29.5535 69.2563 28.3726 68.228 27.257C65.7609 24.6269 62.9646 22.7886 60.1402 21.9409C58.38 21.4123 57.2045 21.2692 56.3716 21.5088C56.862 21.1845 57.6348 21.0737 58.7499 21.1627C62.9656 21.5111 67.0981 22.5447 70.9854 24.2228C70.9667 23.8468 70.9482 23.4699 70.9623 23.081C70.963 23.0614 70.9675 23.044 70.9688 23.0248C67.1009 21.4107 63.0054 20.4146 58.832 20.0728L58.8323 20.0734ZM89.069 121.688C89.0926 121.672 89.1195 121.662 89.1424 121.644C84.2317 120.212 79.364 118.498 75.5379 115.16C71.6436 111.738 69.1998 106.957 68.7075 101.797L68.1646 101.846C68.6707 107.146 71.1815 112.057 75.1821 115.571C78.994 118.896 83.7771 120.629 88.6185 122.058C88.7578 121.922 88.9084 121.798 89.0686 121.688L89.069 121.688ZM73.6535 108.14L73.191 108.427C76.4331 113.657 81.2867 117.69 87.016 119.915C88.0893 120.329 89.1924 120.675 90.2984 120.99C90.5522 120.867 90.8072 120.745 91.0706 120.638C89.764 120.292 88.4753 119.88 87.2095 119.405C81.5915 117.224 76.8322 113.268 73.6532 108.139L73.6535 108.14ZM76.2145 120.784C76.0248 120.675 75.8388 120.554 75.6526 120.435C71.9343 121.997 67.9657 123.036 64.0958 124.042C58.7023 125.445 53.1234 126.897 48.2549 129.767L48.5313 130.238C53.3331 127.406 58.8761 125.965 64.234 124.572C68.2447 123.525 72.3608 122.444 76.2142 120.783L76.2145 120.784ZM73.372 118.605C67.3727 120.609 61.3608 122.75 55.4643 124.999L55.6595 125.51C61.6375 123.228 67.7338 121.06 73.8173 119.033C73.6675 118.897 73.5201 118.75 73.372 118.605ZM68.2238 129.639C66.383 130.299 64.4802 130.979 62.6466 131.757C55.7842 134.664 49.5301 139.073 44.3177 143.004L44.6459 143.44C49.8322 139.531 56.0526 135.145 62.8602 132.26C64.6802 131.489 66.5763 130.809 68.4088 130.153C69.8156 129.649 71.2705 129.128 72.6855 128.567C76.979 126.803 81.1538 124.764 85.184 122.462C84.7505 122.506 84.32 122.534 83.8963 122.549C80.2102 124.621 76.3992 126.461 72.485 128.06C71.0786 128.616 69.628 129.136 68.2238 129.639ZM51.5938 141.142L51.7844 141.654C59.2627 138.836 66.9949 135.923 74.2287 132.196C80.5387 128.945 85.7959 125.417 90.1813 121.493C89.7987 121.588 89.416 121.683 89.0283 121.773C84.8367 125.391 79.8752 128.672 73.9797 131.71C66.7748 135.422 59.0584 138.329 51.5953 141.141L51.5938 141.142ZM92.0807 121.831C90.8521 123.071 89.5609 124.247 88.212 125.355C83.5285 129.187 78.2823 132.152 73.3092 134.859C65.8336 138.929 57.7135 143.089 48.9994 145.92L49.1699 146.439C57.9253 143.594 66.0715 139.423 73.5707 135.339C78.5652 132.619 83.837 129.64 88.5573 125.779C89.2504 125.211 89.9293 124.626 90.5942 124.024C90.9058 123.742 91.2032 123.444 91.5072 123.154C91.6899 122.747 91.8757 122.342 92.0647 121.937C92.0699 121.901 92.0762 121.865 92.0822 121.83L92.0807 121.831ZM89.7028 128.54C89.8055 127.938 89.9448 127.343 90.1198 126.759C76.4735 139.419 58.533 148.344 37.965 152.682L38.0782 153.216C57.3941 149.142 74.4034 141.024 87.742 129.594C83.9304 133.05 80.0019 136.423 76.0099 139.801C74.3262 141.226 72.4183 142.839 70.443 144.226C67.254 146.465 63.5312 148.396 59.0601 150.127C55.1573 151.638 51.1374 152.828 47.0402 153.686L47.1526 154.22C51.2789 153.356 55.3274 152.157 59.258 150.635C63.7699 148.889 67.5315 146.938 70.7563 144.673C72.7517 143.272 74.6703 141.65 76.3609 140.218C80.3285 136.86 84.2399 133.514 88.0314 130.079C88.5961 129.57 89.1482 129.053 89.7042 128.539L89.7028 128.54ZM77.9774 150.035C80.2877 147.942 82.4292 145.692 84.4362 143.514C86.1936 141.607 88.0468 139.541 89.6941 137.356C90.1412 136.763 90.5688 136.151 90.9928 135.537C90.8878 135.374 90.7879 135.201 90.6911 135.022C90.2262 135.701 89.7523 136.373 89.2597 137.027C87.6271 139.193 85.7839 141.246 84.0361 143.143C81.2356 146.184 78.1717 149.364 74.7615 152.046C68.5043 156.956 61.1112 160.208 53.262 161.504L53.351 162.042C61.2905 160.732 68.7687 157.442 75.0976 152.475C76.0885 151.698 77.0476 150.879 77.9794 150.035L77.9774 150.035ZM75.2106 145.901C76.7274 144.527 78.1817 143.093 79.6148 141.682C82.9416 138.401 86.3113 135.07 89.6189 131.652C89.589 131.413 89.5693 131.175 89.5573 130.937C86.1465 134.47 82.6642 137.906 79.23 141.293C76.1429 144.336 72.9492 147.486 69.267 149.893C65.1867 152.561 60.657 154.288 55.1147 156.062L55.2807 156.582C60.8672 154.795 65.4347 153.051 69.5651 150.351C71.5607 149.018 73.4489 147.53 75.2125 145.902L75.2106 145.901ZM91.5458 136.28C91.5068 136.338 91.4729 136.4 91.4343 136.459C86.2235 144.411 79.1341 151.793 69.7593 159.035L70.0919 159.468C72.7471 157.418 75.2227 155.353 77.5187 153.274C83.3823 147.962 88.123 142.509 91.8895 136.761C91.9045 136.738 91.9177 136.713 91.9331 136.69C91.8017 136.562 91.6728 136.427 91.5478 136.281L91.5458 136.28ZM62.0904 128.494C63.4097 128.181 64.7737 127.858 66.1078 127.504C70.9554 126.214 75.6668 124.46 80.1772 122.267C79.8959 122.209 79.6171 122.144 79.3409 122.07C75.0424 124.113 70.5646 125.756 65.9639 126.977C64.6378 127.33 63.2764 127.652 61.9606 127.963C59.4943 128.547 56.9439 129.152 54.4981 129.978C51.9749 130.831 49.539 131.923 47.2232 133.238L47.4938 133.713C49.7789 132.414 52.1828 131.337 54.6731 130.496C57.1007 129.678 59.6385 129.075 62.0924 128.494L62.0904 128.494ZM56.9012 131.926C60.3233 130.477 63.9429 129.353 67.4425 128.265L68.3458 127.984C73.4262 126.401 78.3875 124.755 83.0422 122.56C82.6478 122.556 82.2573 122.538 81.8707 122.506C77.517 124.472 72.9016 125.992 68.1829 127.465L67.2793 127.746C63.7676 128.838 60.1356 129.967 56.6881 131.425C53.6759 132.705 50.7733 134.229 48.0088 135.981C45.6429 137.476 43.3779 139.124 41.2284 140.916L41.5787 141.337C43.7099 139.561 45.9551 137.926 48.2999 136.444C51.0403 134.706 53.918 133.195 56.9043 131.926L56.9012 131.926ZM63.3278 96.913C56.8408 93.3199 50.836 88.793 44.9999 84.3696C40.2826 80.7953 35.4037 77.0992 30.3113 73.9317L30.0259 74.3948C35.0993 77.5488 39.9667 81.2373 44.673 84.8041C50.5844 89.2834 56.6669 93.8712 63.2622 97.4978C63.2856 97.3031 63.3081 97.1082 63.3298 96.9131L63.3278 96.913ZM33.9229 99.7158C33.9622 99.6916 34.006 99.6726 34.0471 99.6513C33.0592 98.5609 32.0868 97.4671 31.1385 96.3965L26.4385 91.0766L26.0307 91.4371L30.731 96.7568C31.6226 97.7657 32.5347 98.7926 33.4621 99.8194C33.6169 99.7869 33.7715 99.7439 33.9248 99.7159L33.9229 99.7158ZM42.022 93.3507C42.9648 94.2927 43.9397 95.2655 44.9454 96.179C45.7088 96.8713 46.4976 97.5347 47.3119 98.1689C47.6102 98.1647 47.9061 98.1617 48.202 98.1588C47.2034 97.4051 46.2349 96.6125 45.3102 95.7719C44.3151 94.868 43.3441 93.8999 42.4055 92.9629C41.6059 92.1651 40.7787 91.3386 39.936 90.5533C35.5045 86.4167 30.3641 83.1157 24.7633 80.8101L24.558 81.3153C30.0979 83.5956 35.1825 86.8606 39.5659 90.9523C40.4031 91.7352 41.2255 92.5558 42.022 93.3507ZM63.5794 94.695C57.2999 91.4939 51.3686 87.6474 45.8813 83.2177C43.7088 81.4488 41.571 79.5455 39.5035 77.7055C34.9965 73.695 30.3366 69.5461 25.0085 66.515L24.7417 66.9899C30.0189 69.9925 34.6573 74.1223 39.1425 78.1133C41.2143 79.9574 43.3567 81.8644 45.5384 83.6402C51.1089 88.1372 57.1342 92.0367 63.5151 95.2743L63.5794 94.695ZM37.9154 98.7798C32.6718 95.0917 28.1676 90.4473 24.6393 85.0903L24.1835 85.3879C27.6438 90.6444 32.0364 95.2223 37.1429 98.8942C37.3976 98.8509 37.6571 98.8163 37.9149 98.7789L37.9154 98.7798ZM43.8342 91.4071C46.6122 93.817 49.5243 96.0672 52.5565 98.1465L53.5332 98.1424C50.2714 95.9579 47.1498 93.5699 44.1872 90.9925C42.7056 89.7302 41.2421 88.4415 39.7772 87.1543C35.0724 83.0159 30.2073 78.7367 24.8042 75.3678L24.5189 75.8312C29.8835 79.1757 34.7321 83.4398 39.4202 87.5626C40.8849 88.853 42.3515 90.1419 43.8338 91.4062L43.8342 91.4071ZM29.2452 84.443L28.7951 84.7502C32.4524 90.0547 37.0329 94.6576 42.3168 98.3378C42.6027 98.3205 42.8865 98.2978 43.1728 98.2837C37.7144 94.5742 32.9911 89.8803 29.2447 84.4422L29.2452 84.443ZM58.946 98.2805C59.3572 98.3107 59.766 98.3494 60.1754 98.3956C55.2002 95.3541 50.5654 91.6993 46.0456 88.1125C40.4902 83.706 34.7466 79.1491 28.4064 75.786L28.1543 76.2676C34.4488 79.6077 40.173 84.1491 45.7087 88.5401C49.9553 91.908 54.302 95.3443 58.9456 98.2796L58.946 98.2805ZM63.7204 93.4205C63.7417 93.2245 63.7642 93.0283 63.7857 92.8325C59.9917 90.7114 56.37 88.2942 52.9542 85.6033C45.8377 80.0441 39.4082 73.4955 33.1901 67.1643L32.8025 67.5471C39.0337 73.8911 45.4744 80.4519 52.6201 86.0326C56.1167 88.7891 59.8286 91.2594 63.7199 93.4196L63.7204 93.4205ZM53.9707 68.1728C58.6312 70.188 62.7933 73.2064 66.1609 77.0133C66.2076 76.8037 66.2562 76.5927 66.3074 76.3767C62.9339 72.6394 58.7991 69.6707 54.1836 67.672C52.1925 66.8181 50.096 66.1447 48.0696 65.4926C45.2657 64.5895 42.364 63.6564 39.7401 62.2436L39.4832 62.7239C42.1523 64.1608 45.0749 65.1025 47.9048 66.0114C49.9193 66.6587 52.0028 67.3295 53.9703 68.1719L53.9707 68.1728ZM58.7578 66.7648C58.5346 66.6584 58.3266 66.5426 58.0999 66.4381C52.5983 63.9076 46.4794 62.254 41.5633 60.9263L41.4227 61.4513C46.3188 62.7743 52.4135 64.4205 57.8736 66.9319C58.338 67.1455 58.7708 67.3773 59.2193 67.6002C59.0521 67.3281 58.9038 67.0468 58.7573 66.7639L58.7578 66.7648ZM57.5447 62.9287C53.6487 61.4103 49.622 60.2545 45.516 59.4761L45.4117 60.0109C49.582 60.7992 53.669 61.9828 57.6175 63.5457C57.5785 63.344 57.5701 63.1333 57.5442 62.9279L57.5447 62.9287ZM51.4216 73.4325C56.5677 75.8108 60.9917 79.6398 64.96 83.5661C64.9948 83.3439 65.0248 83.1223 65.0596 82.9008C61.1292 79.038 56.7493 75.2946 51.6475 72.9373C50.4078 72.3639 49.1024 71.8614 47.8398 71.3732C44.895 70.2377 41.849 69.0636 39.5087 66.9403L39.1443 67.3453C41.5587 69.536 44.6536 70.7285 47.6463 71.8824C48.9009 72.368 50.198 72.8683 51.4216 73.4325ZM48.7038 68.362C54.88 71.6493 60.2974 76.1142 65.4073 80.8469C65.4463 80.6326 65.4785 80.4197 65.5178 80.206C60.4573 75.5374 55.0854 71.1408 48.9593 67.8805C44.8262 65.6803 40.3829 64.0277 36.0857 62.428L33.4751 61.4566L33.2872 61.9685L35.8983 62.9401C40.1792 64.5339 44.6047 66.181 48.7047 68.3637L48.7038 68.362ZM59.7195 83.7758C61.241 85.115 62.7867 86.4623 64.3774 87.7479C64.4039 87.5364 64.4338 87.3249 64.4611 87.1134C62.9684 85.8964 61.5135 84.6277 60.0784 83.3661C59.1988 82.5929 58.3212 81.8212 57.4377 81.0658C50.5061 75.1376 42.9248 70.0182 34.8404 65.8065L34.591 66.2912C42.6383 70.4838 50.1848 75.5798 57.0848 81.4806C57.9691 82.2383 58.8429 83.007 59.7204 83.7776L59.7195 83.7758ZM63.9779 91.1054C64.0011 90.9012 64.0236 90.6958 64.047 90.492C63.1731 89.8687 62.3248 89.2084 61.4877 88.5539L42.5771 73.7734L42.243 74.2026L61.1539 88.983C62.0477 89.6838 62.9886 90.4161 63.9792 91.108L63.9779 91.1054ZM87.9906 33.7563C88.7048 35.8778 89.0501 38.1452 89.3836 40.3378L89.4703 40.9098C89.9929 44.3181 90.601 47.7559 91.2794 51.127C91.796 53.6946 92.3337 56.075 92.9565 58.32C93.1457 58.3141 93.3339 58.3185 93.5225 58.3192C92.8862 56.0455 92.3378 53.6322 91.8131 51.0206C91.1368 47.6578 90.5292 44.2284 90.0089 40.8275L89.9217 40.2565C89.5844 38.0407 89.2363 35.7491 88.5069 33.5825C87.5429 30.7261 85.9409 28.134 84.3922 25.6291L83.9297 25.9159C85.4626 28.3947 87.0476 30.9592 87.9906 33.7563ZM100.117 59.6605C97.33 49.2366 94.4399 38.4652 89.7223 28.5274L89.2307 28.7597C93.8713 38.5363 96.7408 49.1436 99.4906 59.4292C99.6991 59.5023 99.9079 59.5793 100.117 59.6604L100.117 59.6605ZM91.1024 58.4844C91.2865 58.4578 91.4709 58.4404 91.6552 58.42C90.478 54.7123 89.6175 50.8782 88.7782 47.1081C87.2654 40.3097 85.7016 33.2801 82.2878 27.1338C81.8449 26.3365 81.3642 25.5415 80.9002 24.7751C79.7498 22.8733 78.5589 20.9051 77.8789 18.7779L77.3605 18.9427C78.0615 21.1336 79.2684 23.1281 80.4355 25.0563C80.8973 25.8207 81.3747 26.61 81.8128 27.3973C85.1875 33.4754 86.743 40.4653 88.2466 47.2243C89.0814 50.975 89.9356 54.7882 91.1027 58.4843L91.1024 58.4844ZM82.8662 32.5557L82.4005 32.8393C84.8371 36.8364 85.5473 41.6361 86.2344 46.2785C86.9044 50.8018 87.5601 54.9894 88.4887 59.0639C88.6633 59.0109 88.8367 58.9586 89.0128 58.9108C88.0918 54.864 87.4391 50.6994 86.7726 46.1995C86.0777 41.5038 85.3597 36.6479 82.8662 32.5557ZM92.0275 39.1734L91.5273 39.3871C93.4577 43.8878 94.2453 48.8416 95.0074 53.6321C95.263 55.239 95.523 56.8677 95.8268 58.4922C95.9612 58.5132 96.0993 58.5165 96.233 58.5412C96.2866 58.5511 96.3431 58.5651 96.3974 58.5757C96.0792 56.895 95.8097 55.2106 95.5458 53.5477C94.7776 48.7239 93.9841 43.7362 92.0275 39.1734ZM100.491 45.2029C102.028 47.6509 102.949 50.4349 103.174 53.3152C103.222 53.6702 103.269 54.0249 103.32 54.3784C103.642 56.5803 104.136 58.7849 104.616 60.9211L104.909 62.2273C105.141 62.398 105.366 62.5746 105.585 62.7555L105.146 60.7984C104.67 58.6775 104.178 56.483 103.86 54.3017C103.809 53.9517 103.761 53.597 103.714 53.2451C103.479 50.2997 102.538 47.4528 100.971 44.9463C100.405 43.9349 99.8923 42.895 99.4341 41.8306L98.9299 42.0366C99.3952 43.1184 99.9162 44.1753 100.491 45.203L100.491 45.2029ZM94.8442 33.3585L94.3323 33.5429L95.4019 36.5008L102.107 60.5358C102.329 60.6464 102.549 60.7603 102.768 60.8789L96.0401 36.7642L96.0724 36.7542L95.7889 35.8609L95.7537 35.8713L94.8442 33.3585ZM82.8353 62.0613C79.7517 54.5819 77.2942 46.8599 75.4884 38.9753L74.9583 39.0952C76.7831 47.0611 79.2708 54.8613 82.3953 62.414C82.5358 62.2903 82.6897 62.1802 82.8353 62.0613ZM83.9249 47.3548C84.1275 49.531 84.3381 51.7806 84.674 53.9685C84.9998 56.0205 85.4411 58.0527 85.9958 60.0553C86.162 59.9747 86.327 59.8924 86.4958 59.8176C85.9585 57.8656 85.5301 55.8855 85.2124 53.8863C84.8785 51.7154 84.6692 49.4735 84.4655 47.3051C84.0274 42.6056 83.5733 37.7479 81.8232 33.2798C81.116 31.5672 80.3166 29.8939 79.4286 28.2676L76.4409 22.5551L75.9588 22.8077L78.9464 28.5202C79.8251 30.1285 80.6163 31.783 81.3166 33.4766C83.0395 37.8736 83.4897 42.6942 83.9249 47.3548ZM82.0227 52.2922C82.5751 55.2553 83.305 58.183 84.2083 61.0592C84.3649 60.9577 84.5235 60.8591 84.6841 60.7632C83.8079 57.9489 83.0974 55.0858 82.5561 52.1889C82.2384 50.5642 81.9505 48.9333 81.6619 47.301C80.9933 43.5284 80.3027 39.6272 79.2602 35.868C78.4689 33.0171 77.4739 30.2265 76.2829 27.5177L75.784 27.7361C76.965 30.4208 77.9512 33.187 78.7349 36.013C79.7717 39.7462 80.4597 43.6348 81.1255 47.3956C81.4153 49.0296 81.7052 50.665 82.0227 52.2922ZM71.2986 64.3424C72.013 65.3566 72.7372 66.3899 73.5105 67.3909C73.6546 67.2784 73.7987 67.1678 73.9426 67.0592C73.1758 66.0635 72.4531 65.0389 71.7431 64.0287C70.5956 62.3259 69.3499 60.6915 68.0122 59.1339C65.6103 56.4551 62.6906 54.2926 59.4308 52.7779L59.2044 53.2721C62.3959 54.7554 65.2546 56.8727 67.6064 59.4952C68.9299 61.038 70.1628 62.6564 71.2986 64.3424ZM62.3249 57.2279C63.8618 58.6228 65.1149 60.3338 66.327 61.9899L71.4717 69.0197C71.6112 68.9044 71.7513 68.7887 71.8933 68.6743L66.7657 61.6672C65.5374 59.9901 64.2675 58.2554 62.6891 56.8234C61.3686 55.6912 59.9567 54.6707 58.4681 53.7723L55.6035 51.9371L55.3113 52.3973L58.1849 54.2376C59.6449 55.1182 61.0296 56.1184 62.3249 57.2279ZM76.1554 65.6368C73.1461 62.6717 70.295 59.5498 67.6139 56.2841L67.193 56.6307C69.849 59.8662 72.671 62.9614 75.6474 65.904C75.8126 65.8091 75.9838 65.7244 76.1547 65.6391L76.1554 65.6368ZM61.3393 58.3115C63.9167 62.5338 66.7957 66.5642 69.9536 70.3711C70.0828 70.2445 70.2165 70.1216 70.3495 69.9972C67.2177 66.2182 64.3625 62.2178 61.8062 58.0273L61.3393 58.3115ZM68.8587 71.589C66.6811 68.8251 64.6837 65.9237 62.8788 62.9028L62.5116 62.2839C61.7284 60.8531 60.8087 59.5013 59.7655 58.2475C58.9907 57.4147 58.1618 56.6342 57.2841 55.9112C55.9308 54.7442 54.6511 53.643 53.7908 52.1704L53.3213 52.4461C54.2282 53.9959 55.6025 55.1795 56.9299 56.3241C57.789 57.0315 58.6005 57.795 59.3592 58.6095C60.3784 59.8371 61.2771 61.1601 62.0428 62.5601L62.41 63.1798C64.2515 66.2642 66.2923 69.225 68.5194 72.0432C68.628 71.89 68.7403 71.7379 68.8572 71.5898L68.8587 71.589ZM67.5729 73.7495C66.312 72.3594 65.1509 70.8817 64.0981 69.3277C62.0788 66.425 60.2094 63.4206 58.4971 60.3266L58.0217 60.59C59.743 63.7006 61.6222 66.7211 63.652 69.6396C64.77 71.295 66.0124 72.8628 67.3683 74.3292C67.4318 74.1339 67.4946 73.9359 67.5711 73.7497L67.5729 73.7495ZM69.8475 31.9966C70.1906 32.4333 70.521 32.8837 70.8568 33.3286C70.8292 32.9997 70.8056 32.6688 70.7862 32.3361C70.6136 32.1123 70.4478 31.8812 70.2738 31.6604C69.0508 30.1048 67.691 28.4862 66.045 27.1932C64.2938 25.8169 62.2712 24.8437 60.3133 23.9033L60.08 24.3943C62.011 25.3228 64.0076 26.2827 65.7124 27.6216C67.3088 28.8801 68.6432 30.4686 69.8475 31.9966ZM71.1631 35.9116C69.0584 32.4851 66.4415 29.4017 63.4038 26.7691L63.0496 27.182C66.4017 30.0839 69.2333 33.5392 71.4211 37.3975C71.3263 36.9063 71.2399 36.4112 71.1619 35.9122L71.1631 35.9116ZM64.8703 31.4232C67.6467 34.2648 69.5433 37.8823 71.3779 41.3818C72.1015 42.7611 72.8395 44.1601 73.6345 45.5285C73.3469 44.6612 73.0708 43.7917 72.806 42.9201C72.4865 42.322 72.1707 41.7239 71.8594 41.1295C70.006 37.595 68.0903 33.9422 65.2588 31.0422C64.9517 30.7277 64.634 30.4225 64.3171 30.1173C63.5837 29.4507 62.9078 28.7233 62.2965 27.943L61.8594 28.2671C62.4887 29.072 63.1848 29.8223 63.94 30.5101C64.253 30.8121 64.5658 31.113 64.8692 31.4238L64.8703 31.4232ZM58.3582 26.6207C59.3607 28.6109 60.6821 30.4499 61.9595 32.2281C63.436 34.2835 64.9623 36.4086 65.9762 38.7493C66.437 39.8169 66.8012 40.9488 67.1519 42.0438C67.3245 42.5795 67.4966 43.1159 67.6816 43.6478C69.9435 50.0947 73.8717 55.8289 79.0649 60.2646C78.9472 59.9798 78.8691 59.6803 78.8329 59.3743C73.9962 55.0622 70.3348 49.5879 68.1951 43.4693C68.0123 42.9415 67.8414 42.4098 67.6692 41.8777C67.3138 40.7708 66.9455 39.6252 66.4735 38.5337C65.4367 36.1389 63.8926 33.9895 62.3988 31.9096C61.1347 30.1483 59.8251 28.3269 58.8427 26.3748L58.3582 26.6207ZM68.6346 41.0042C68.8475 41.4403 69.0542 41.8789 69.2603 42.3185C69.6594 43.166 70.0716 44.0396 70.5223 44.8803C71.5869 46.7782 72.7641 48.6107 74.0475 50.3679L76.3894 53.7188C76.3488 53.5617 76.2951 53.4099 76.2591 53.2508C76.1208 52.8253 75.9807 52.4021 75.8387 51.9811L74.4925 50.0566C73.2222 48.3166 72.0568 46.5023 71.0024 44.6235C70.5573 43.7953 70.1485 42.9268 69.7528 42.0865C69.5456 41.6456 69.3374 41.204 69.1238 40.7657C67.4576 37.3942 65.5049 34.172 63.2871 31.135L62.8468 31.4529C65.0454 34.4653 66.9817 37.6609 68.6343 41.0044L68.6346 41.0042ZM80.2428 62.6426C80.1851 62.5596 80.1353 62.4724 80.0838 62.3861C79.8531 62.2218 79.6177 62.06 79.3918 61.8948C77.7045 60.6646 75.9855 59.4066 74.4044 57.9985C75.1847 58.6651 76.0137 59.3185 76.881 59.99C77.8456 60.7614 78.8607 61.4671 79.9195 62.1023C79.7549 61.8034 79.6091 61.495 79.4677 61.1807C78.6696 60.6563 77.9073 60.096 77.2144 59.5592C74.9306 57.7893 72.9172 56.154 71.3962 54.0744C69.7444 51.8151 68.7557 49.1008 67.7987 46.4755C66.8313 43.8165 65.8301 41.0677 64.1347 38.7456C63.4068 37.7905 62.6239 36.8788 61.79 36.015C60.7142 34.8573 59.6027 33.6597 58.8013 32.2876L58.3316 32.5635C59.1635 33.9872 60.2966 35.2067 61.3926 36.3867C62.2121 37.2347 62.9811 38.1301 63.6957 39.0684C65.3453 41.3269 66.3327 44.0381 67.2885 46.6617C67.9243 48.5281 68.6832 50.3504 69.5601 52.1165C69.0846 51.33 68.6295 50.5323 68.1842 49.7419C67.5407 48.6038 66.8771 47.4268 66.3213 46.2263C66.1862 45.937 66.0567 45.6442 65.9278 45.3525C65.5416 44.4043 65.07 43.4931 64.5186 42.6304C64.0638 41.9973 63.5666 41.3959 63.0304 40.8302C62.202 39.9147 61.4188 39.05 60.9842 37.967L60.4792 38.1685C60.9508 39.343 61.8037 40.2854 62.6282 41.1965C63.1475 41.7437 63.629 42.3257 64.0693 42.9383C64.6012 43.7735 65.0567 44.6549 65.4303 45.572C65.561 45.868 65.6919 46.1635 65.8268 46.4559C66.3947 47.6754 67.0655 48.8641 67.716 50.0177C68.7063 51.8859 69.8436 53.6723 71.1172 55.3599C73.3501 58.159 76.2594 60.2814 79.0739 62.3349C79.4749 62.6277 79.8846 62.9212 80.3013 63.2081L80.5143 63.0396C80.4209 62.9095 80.3271 62.7789 80.2425 62.6427L80.2428 62.6426ZM118.256 64.6541C117.257 69.3332 116.555 74.0718 116.154 78.8413C116.315 79.224 116.476 79.6064 116.626 79.9934C116.874 76.371 117.313 72.7649 117.943 69.1902C117.679 73.3936 117.485 77.5897 117.297 81.7576C117.461 82.2088 117.624 82.6592 117.781 83.1085L117.811 82.4305C118.074 76.5707 118.342 70.6491 118.796 64.7357C120.236 57.8305 122.156 51.012 124.043 44.308C125.901 37.7128 127.821 30.8948 129.256 24.1109L128.723 23.9954C127.294 30.7618 125.375 37.5717 123.52 44.158C121.99 49.5857 120.446 55.0925 119.143 60.6611C120.257 48.7555 122.317 36.9415 126.858 25.7794C127.253 24.8092 127.666 23.8444 128.08 22.8801C129.394 19.8133 130.753 16.6426 131.474 13.32L130.942 13.2033C130.232 16.4727 128.882 19.6189 127.579 22.6612C127.164 23.6303 126.749 24.599 126.353 25.571C121.27 38.0632 119.282 51.3444 118.256 64.6541ZM115.009 76.2756C115.585 72.8288 116.122 69.356 116.618 65.9125C116.465 68.7041 116.271 71.5055 115.961 74.2564C115.902 74.7807 115.839 75.3071 115.776 75.8322C115.712 76.3573 115.65 76.8969 115.589 77.4326C115.617 77.5153 115.655 77.5906 115.676 77.6777C115.802 77.9579 115.906 78.2482 116.026 78.531C116.113 77.6481 116.211 76.7685 116.316 75.8996C116.38 75.3726 116.442 74.8458 116.502 74.3192C117.03 69.6377 117.239 64.8157 117.439 60.1521C119.295 47.0566 121.286 33.5748 125.718 20.9656L125.205 20.7834C121.38 31.6594 119.374 43.1662 117.704 54.5132C118.151 46.2476 119.001 37.9147 121.999 30.2176L121.492 30.0177C117.783 39.5426 117.333 49.9872 116.898 60.0878L116.899 60.0896C116.84 60.5084 116.779 60.9299 116.72 61.3479C116.063 65.9889 115.382 70.7539 114.604 75.4668C114.741 75.7355 114.875 76.0052 115.009 76.2756ZM129.333 33.1102C131.864 25.2221 134.48 17.0651 133.592 8.78457L133.05 8.84C133.926 17.0065 131.328 25.1067 128.814 32.9408C128.501 33.9165 128.191 34.8897 127.884 35.8605C122.858 51.8652 119.683 68.3992 118.421 85.1382C118.683 86.0331 118.922 86.9279 119.123 87.822C119.308 85.6568 119.608 83.498 119.989 81.3498C119.956 84.5668 120.126 87.7832 120.499 90.9796C120.595 90.6824 120.753 90.4093 120.963 90.1787C120.538 86.1486 120.427 82.0922 120.631 78.0464C121.259 75.0601 121.991 72.096 122.719 69.1688C123.939 64.2657 125.201 59.1983 125.926 54.1398L125.388 54.0603C124.666 59.0894 123.408 64.1459 122.191 69.0351C121.746 70.8245 121.302 72.6292 120.877 74.4426C121.647 65.8438 123.682 56.7145 126.985 47.1296C127.321 46.1542 127.668 45.1799 128.014 44.2044C129.768 39.2674 131.581 34.1616 132.075 28.8638L131.532 28.8117C131.046 34.0424 129.244 39.1133 127.501 44.0197C127.154 44.9963 126.807 45.9725 126.471 46.9506C122.691 57.9164 120.567 68.2947 120.089 77.9724C119.731 79.6766 119.419 81.3892 119.153 83.1101C120.503 67.119 123.605 51.3295 128.403 36.026C128.708 35.0571 129.018 34.0852 129.333 33.1102ZM56.2451 107.673C58.9328 106.918 61.6886 106.144 64.4905 105.727C64.4484 105.55 64.4217 105.369 64.4108 105.187C61.5776 105.61 58.8039 106.389 56.0985 107.149L38.7969 112.007C36.6772 112.602 34.2767 113.277 32.4274 114.797L32.7744 115.22C34.5346 113.773 36.8784 113.114 38.9447 112.533L56.2451 107.673ZM50.9419 110.679C55.7231 109.541 60.5869 108.781 65.4886 108.404C65.4135 108.227 65.3434 108.052 65.272 107.876C60.3989 108.258 55.5637 109.017 50.8099 110.149C47.0773 111.074 43.3803 112.318 39.8045 113.52L25.5757 118.305L25.751 118.823L39.9796 114.037C43.5443 112.837 47.2306 111.597 50.943 110.678L50.9419 110.679ZM33.4196 117.422L33.503 117.962C37.9879 117.285 42.4848 116.168 46.8332 115.087C53.4136 113.452 60.1951 111.779 67.0345 111.613C66.9353 111.433 66.843 111.25 66.7478 111.068C59.943 111.272 53.2238 112.936 46.7006 114.558C42.3646 115.635 37.8798 116.75 33.4196 117.422ZM59.4236 120.407C49.0204 120.224 38.6433 121.443 28.5715 124.032L28.7082 124.561C38.423 122.064 48.4245 120.848 58.4597 120.943C58.7806 120.758 59.1013 120.578 59.4236 120.407ZM67.2365 117.805C56.4759 117.211 47.0544 117.754 38.5628 119.453L38.671 119.988C46.5116 118.419 55.165 117.853 64.933 118.25C65.6931 118.062 66.4624 117.913 67.238 117.804L67.2365 117.805ZM64.3154 118.432C59.1561 118.703 53.9942 119.103 48.9216 119.519C47.0715 119.672 45.1581 119.829 43.267 120.033C36.1237 120.804 29.0716 122.254 22.2064 124.366L22.3673 124.888C29.1996 122.787 36.2176 121.343 43.3264 120.575C45.2118 120.372 47.1208 120.215 49.0274 120.058C53.4122 119.698 57.8851 119.344 62.371 119.077C63.016 118.832 63.6646 118.617 64.3169 118.431L64.3154 118.432ZM28.0452 121.055C36.877 118.534 45.8594 117.187 55.0534 115.917C59.2359 115.34 64.1548 114.674 69.1047 114.79C68.9653 114.612 68.8351 114.424 68.701 114.24C63.852 114.168 59.0649 114.812 54.9769 115.376C45.7627 116.648 36.7591 118 27.8944 120.529C26.963 120.795 26.0333 121.075 25.102 121.353C21.2391 122.511 17.2439 123.708 13.1822 123.911L13.2107 124.455C17.3387 124.25 21.3654 123.043 25.2592 121.876C26.1873 121.598 27.1159 121.319 28.0452 121.055ZM121.137 137.55C122.384 136.094 123.2 134.178 123.704 131.518C124.703 126.161 124.095 120.625 121.956 115.606C121.413 114.22 120.619 112.945 119.614 111.847C117.892 110.094 115.505 109.31 113.619 108.823C112.039 108.417 109.966 108.002 107.942 108.399C105.783 108.824 103.886 110.135 102.362 111.187C96.7365 115.079 91.1022 119.438 89.368 126.157C88.8822 128.039 87.8734 131.953 89.0902 134.609C90.2125 137.056 93.2589 138.7 95.4532 139.726C98.6191 141.206 102.391 141.966 106.983 142.051C111.314 142.132 114.638 141.556 117.444 140.239C118.506 139.755 119.489 139.116 120.363 138.343C120.638 138.096 120.896 137.831 121.137 137.55ZM102.982 112.087C104.815 110.82 106.359 109.823 108.155 109.469C109.964 109.114 111.882 109.503 113.351 109.881C115.101 110.331 117.307 111.05 118.839 112.613C119.748 113.614 120.466 114.774 120.957 116.034C123.009 120.852 123.593 126.167 122.635 131.31C122.167 133.775 121.428 135.532 120.31 136.837C119.381 137.867 118.246 138.69 116.978 139.251C114.329 140.494 111.158 141.036 107 140.959C102.563 140.878 98.9355 140.151 95.9091 138.737C93.8725 137.784 91.0504 136.275 90.0786 134.156C89.0247 131.854 89.9678 128.193 90.4215 126.434C91.4075 122.612 93.7753 119.563 96.6925 116.92C98.6821 115.174 100.783 113.56 102.982 112.087Z" fill="url(#paint0_linear)"/>
<defs>
<linearGradient id="paint0_linear" x1="49.0362" y1="24.0734" x2="192.344" y2="300.094" gradientUnits="userSpaceOnUse">
<stop stop-color="white"/>
<stop offset="1" stop-color="#FBA2B8"/>
</linearGradient>
</defs>
</svg>
