<svg width="11" height="10" viewBox="0 0 11 10" fill="none" xmlns="http://www.w3.org/2000/svg">
<path d="M4.3043 9.72989C4.20035 9.73016 4.09738 9.7045 4.00129 9.6544C3.90521 9.60429 3.81791 9.53071 3.7444 9.43789L0.384987 5.19489C0.309299 5.10271 0.248907 4.99242 0.207335 4.87046C0.165763 4.74849 0.143845 4.61729 0.142857 4.48451C0.14187 4.35174 0.161834 4.22004 0.201585 4.09711C0.241335 3.97418 0.300076 3.86248 0.374381 3.76852C0.448685 3.67456 0.537064 3.60023 0.634361 3.54986C0.731659 3.49949 0.835926 3.4741 0.941079 3.47516C1.04623 3.47622 1.15017 3.50371 1.24681 3.55603C1.34346 3.60835 1.43089 3.68445 1.504 3.77989L4.30351 7.31489L9.34422 0.951894C9.49271 0.764254 9.69416 0.658785 9.90423 0.658691C10.1143 0.658598 10.3158 0.763886 10.4644 0.951394C10.613 1.1389 10.6965 1.39327 10.6966 1.65854C10.6967 1.92381 10.6133 2.17825 10.4648 2.36589L4.86421 9.43789C4.7907 9.53071 4.7034 9.60429 4.60731 9.6544C4.51123 9.7045 4.40826 9.73016 4.3043 9.72989Z" fill="url(#paint0_linear)"/>
<defs>
<linearGradient id="paint0_linear" x1="5.41972" y1="0.658691" x2="5.41972" y2="9.7299" gradientUnits="userSpaceOnUse">
<stop stop-color="#C45ED3"/>
<stop offset="1" stop-color="#FBA2B8"/>
</linearGradient>
</defs>
</svg>
