<svg width="206" height="230" viewBox="0 0 206 230" fill="none" xmlns="http://www.w3.org/2000/svg">
<path fill-rule="evenodd" clip-rule="evenodd" d="M114.005 1.08451C137.017 0.71001 162.185 0.973593 179.715 15.2032C196.843 29.107 199.928 52.566 203.519 73.7477C206.62 92.0393 204.759 110.152 198.802 127.788C192.832 145.464 181.776 159.979 169.519 174.405C152.591 194.326 140.243 222.013 114.005 227.583C86.8943 233.338 57.1085 220.882 37.0853 202.517C18.1292 185.131 19.362 157.22 11.2639 133.352C3.17803 109.519 -18.2085 86.8486 -10.2584 62.9743C-2.30428 39.0883 26.6185 28.9132 49.904 17.3158C69.9931 7.3104 91.3473 1.45326 114.005 1.08451Z" stroke="#FBA2B8"/>
</svg>
