<svg xmlns="http://www.w3.org/2000/svg" width="206" height="230" fill="none"  ><path d="M114.005 1.085c23.012-.375 48.18-.111 65.71 14.119 17.128 13.904 20.213 37.363 23.804 58.544 3.101 18.292 1.24 36.404-4.717 54.04-5.97 17.676-17.026 32.191-29.283 46.617-16.928 19.921-29.276 47.608-55.514 53.178-27.111 5.755-56.896-6.701-76.92-25.066-18.956-17.386-17.723-45.297-25.821-69.165-8.086-23.833-29.472-46.503-21.522-70.378 7.954-23.886 36.877-34.061 60.162-45.658C69.993 7.31 91.347 1.453 114.005 1.085z" stroke="#fba2b8"/></svg>