<svg width="53" height="45" viewBox="0 0 53 45" fill="none" xmlns="http://www.w3.org/2000/svg">
<g opacity="0.3" clip-path="url(#clip0)">
<path fill-rule="evenodd" clip-rule="evenodd" d="M52.7676 7.0282C44.8642 10.9328 40.9125 15.5206 40.9125 20.7918C44.2812 21.1822 47.0668 22.5651 49.2694 24.9403C51.4719 27.3156 52.5732 30.0651 52.5732 33.1887C52.5732 36.5076 51.5043 39.3058 49.3665 41.5835C47.2287 43.8612 44.5403 45 41.3012 45C37.6734 45 34.5316 43.5195 31.8755 40.5586C29.2194 37.5976 27.8914 34.0022 27.8914 29.7722C27.8914 17.0824 34.9526 7.15839 49.075 0L52.7676 7.0282ZM24.8761 7.0282C16.908 10.9328 12.9239 15.5206 12.9239 20.7918C16.3574 21.1822 19.1753 22.5651 21.3779 24.9403C23.5805 27.3156 24.6818 30.0651 24.6818 33.1887C24.6818 36.5076 23.5967 39.3058 21.4265 41.5835C19.2563 43.8612 16.5517 45 13.3126 45C9.68483 45 6.55915 43.5195 3.93548 40.5586C1.31181 37.5976 0 34.0022 0 29.7722C0 17.0824 7.02874 7.15839 21.0864 0L24.8761 7.0282Z" fill="white"/>
</g>
<defs>
<clipPath id="clip0">
<rect width="53" height="45" fill="white"/>
</clipPath>
</defs>
</svg>
