<svg width="126" height="114" viewBox="0 0 126 114" fill="none" xmlns="http://www.w3.org/2000/svg">
<g clip-path="url(#clip0)">
<path fill-rule="evenodd" clip-rule="evenodd" d="M25.5179 101.473C25.7418 104.827 26.0751 108.633 26.9468 112.291C26.9798 112.504 27.0779 112.702 27.2275 112.857C27.3436 112.942 27.4765 113.001 27.6172 113.03C27.7579 113.059 27.9032 113.057 28.0433 113.026C29.4453 112.844 30.8094 112.441 32.0846 111.831C37.8444 109.965 43.0688 105.335 48.018 97.7214C49.748 95.0578 51.6259 91.8512 52.4202 88.2698C53.262 84.4774 52.6809 80.7687 50.8271 78.0966C50.5948 77.7697 50.3396 77.4599 50.0634 77.1693C49.6 76.2586 49.0123 75.4168 48.3171 74.6681C50.7459 67.5244 53.8006 60.4858 56.7587 53.6773C57.8915 51.0678 86.3118 -28.1442 87.4351 -30.8189C87.2871 -30.9054 87.1635 -31.0282 87.0759 -31.1757C85.9294 -28.4438 57.4839 50.8261 56.3265 53.4888C53.3956 60.2389 50.3704 67.2139 47.9463 74.3024C47.8928 74.2522 47.8406 74.1994 47.7858 74.1518C47.767 72.9207 47.4707 71.4655 46.2457 71.0277C46.2258 71.0195 46.2053 71.0158 46.1861 71.0096C49.872 61.5265 80.7703 -24.5977 84.3254 -34.2008C84.1976 -34.0994 84.0673 -33.9927 83.9249 -33.8777C83.8372 -33.8075 83.7409 -33.7487 83.6384 -33.7027C80.1534 -24.2948 49.3283 61.631 45.717 70.9194C44.8264 70.8469 43.5139 71.2162 42.3373 71.5519C41.7819 71.7096 41.2559 71.8594 40.8719 71.9307C37.7023 72.515 33.6796 73.5493 30.6821 76.3699C29.4285 77.5498 28.3267 79.0675 27.3165 81.0098C24.0843 87.2163 23.4768 94.7717 25.5179 101.473ZM30.6035 111.855L30.5632 111.942C29.7312 112.243 28.8679 112.45 27.9897 112.558C27.838 112.597 27.6773 112.578 27.5389 112.504C27.4656 112.411 27.419 112.3 27.4038 112.182C26.6911 109.191 26.3434 106.096 26.1174 103.23C26.2835 103.661 26.4619 104.088 26.65 104.512C26.6385 105.411 26.704 106.31 26.8456 107.198L27.0775 107.16C26.9694 106.465 26.9093 105.764 26.8975 105.061L26.9365 105.144L27.1662 104.978C27.3339 104.856 27.495 104.737 27.6596 104.614C27.6506 104.866 27.6424 105.119 27.6318 105.369C27.5896 106.349 27.5426 107.461 27.2195 108.494L27.444 108.565C27.7765 107.503 27.8241 106.374 27.8665 105.379C27.8796 105.066 27.8914 104.752 27.902 104.437C28.1165 104.278 28.3319 104.121 28.5417 103.962C28.5427 104.015 28.5449 104.068 28.545 104.121C28.5404 106.062 28.1635 107.983 27.4348 109.78L27.6523 109.869C28.3918 108.043 28.7747 106.093 28.7803 104.122C28.7803 104.011 28.7757 103.899 28.7725 103.787C28.9595 103.646 29.1465 103.505 29.3304 103.365C29.3257 103.413 29.3203 103.46 29.3156 103.509C29.2917 103.793 29.2701 104.079 29.2483 104.365C29.1347 105.847 29.0183 107.379 28.6041 108.818C28.4453 109.371 28.2432 109.913 28.0472 110.436L28.2679 110.519C28.4653 109.991 28.6688 109.444 28.8302 108.884C29.2509 107.419 29.3687 105.876 29.4832 104.383C29.5047 104.097 29.5259 103.812 29.5502 103.529C29.5596 103.408 29.5735 103.29 29.5856 103.17C29.9124 102.917 30.2335 102.666 30.5486 102.415L30.5437 102.494C30.4366 104.318 30.2613 106.235 29.4195 107.854L29.6277 107.963C30.4912 106.302 30.6691 104.357 30.7781 102.508L30.7953 102.218C31.113 101.963 31.4269 101.708 31.7339 101.456C31.6699 102.116 31.5599 102.771 31.4045 103.416C31.1804 104.289 30.8458 105.378 30.492 106.53C30.0376 108.011 29.5681 109.542 29.312 110.691L29.5415 110.743C29.7949 109.601 30.2631 108.075 30.7169 106.601C31.071 105.444 31.4064 104.353 31.6317 103.473C31.8071 102.738 31.9281 101.991 31.9936 101.239C32.2618 101.014 32.5291 100.79 32.7899 100.566C32.5874 101.791 32.3752 103.056 31.9402 104.233C31.7729 104.682 31.5713 105.13 31.3748 105.563C30.966 106.467 30.5435 107.401 30.4217 108.404L30.6555 108.433C30.7732 107.464 31.1884 106.547 31.5893 105.661C31.7872 105.223 31.9922 104.772 32.1607 104.314C32.6103 103.1 32.8245 101.805 33.0316 100.552C33.0438 100.475 33.0579 100.397 33.0707 100.322C33.4431 99.9982 33.8078 99.6744 34.1648 99.3512L33.8683 100.598C33.7942 100.939 33.7008 101.275 33.5884 101.606C33.4919 101.868 33.3686 102.126 33.249 102.377C33.1808 102.52 33.1118 102.663 33.0484 102.809C32.8407 103.281 32.6773 103.767 32.5203 104.238L31.5767 107.05L31.7999 107.126L32.7426 104.312C32.8988 103.847 33.0607 103.366 33.263 102.905C33.3262 102.761 33.3937 102.621 33.4616 102.48C33.5831 102.222 33.7089 101.958 33.8085 101.687C33.9249 101.348 34.0211 101.003 34.0965 100.653L34.4716 99.0729C34.8559 98.721 35.2319 98.3699 35.5963 98.0163C34.3259 102.763 32.6556 107.392 30.6035 111.855ZM52.2435 83.4681C52.1621 83.6993 52.0814 83.9324 52.0039 84.1623C50.3922 88.8922 48.726 93.782 45.8691 97.9398L46.0621 98.073C48.938 93.8894 50.6092 88.9829 52.2266 84.2382C52.2485 84.1772 52.2697 84.1142 52.291 84.0513C52.3736 85.4322 52.2627 86.8177 51.9617 88.1675C51.1835 91.677 49.3321 94.836 47.6242 97.4642C43.0125 104.557 38.1738 109.016 32.8962 111.038C32.8445 111.023 32.7936 111.005 32.7438 110.985C32.478 111.123 32.2172 111.25 31.9579 111.371C31.7184 111.449 31.4799 111.53 31.2385 111.598C33.3173 107.009 34.9956 102.248 36.2548 97.3695C36.4351 97.1901 36.6045 97.0102 36.7784 96.8309C36.7532 96.9637 36.7306 97.0977 36.7029 97.2292C36.3249 98.8717 35.85 100.49 35.2808 102.076L34.0661 105.677L34.2891 105.753L35.5028 102.15C36.075 100.556 36.5528 98.9295 36.9336 97.2788C36.986 97.0318 37.0262 96.7804 37.0697 96.5322C37.1598 96.4393 37.2525 96.3477 37.34 96.2536L35.4741 103.937L35.7024 103.992L37.6693 95.897C37.9972 95.543 38.3171 95.1882 38.6288 94.8326C38.3627 96.8376 38.0694 98.8946 37.438 100.832C36.6392 103.286 35.309 105.537 33.9821 107.714C34.0472 107.76 34.112 107.8 34.1814 107.841C35.5147 105.651 36.8543 103.384 37.6619 100.905C38.337 98.8332 38.6291 96.6352 38.909 94.5077C39.2146 94.1507 39.5157 93.7931 39.8052 93.4329C39.4954 95.1852 39.2188 96.9425 38.9752 98.705L38.9558 98.8486C38.8718 99.583 38.7439 100.312 38.5727 101.031C38.0363 103.089 36.8209 104.881 35.6446 106.613L35.8395 106.745C37.0272 104.997 38.254 103.188 38.8003 101.09C38.9736 100.362 39.1034 99.6239 39.189 98.8803L39.209 98.7385C39.4698 96.8367 39.7712 94.9411 40.1131 93.0515C40.1746 92.9748 40.2386 92.8994 40.2981 92.8234C40.4124 93.3517 40.5318 93.8761 40.6479 94.4038C40.3733 96.2339 40.0793 98.1072 39.635 99.9225C38.734 103.598 37.3576 106.389 35.4257 108.454L35.5979 108.616C37.5563 106.521 38.9529 103.695 39.8638 99.9792C40.2597 98.3538 40.5382 96.685 40.7887 95.0408C40.9518 95.7622 41.1149 96.4772 41.2806 97.1935C40.5111 100.103 39.591 102.991 38.1557 105.622L38.3614 105.736C39.7386 103.21 40.6425 100.456 41.3945 97.6769C41.4952 98.1093 41.5921 98.5429 41.696 98.972C41.0413 100.877 40.2898 102.748 39.4443 104.576L39.6563 104.677C40.4667 102.957 41.1633 101.173 41.8022 99.3767L42.0789 99.173C42.8942 98.5689 43.6687 97.9116 44.3974 97.2053C43.4816 99.5331 42.3377 101.764 40.9826 103.866L41.1807 103.995C42.6377 101.727 43.8561 99.3127 44.8163 96.7923C45.8346 95.7579 46.7549 94.6314 47.5657 93.4271C46.4297 96.1147 44.8359 98.6012 43.2825 101.018L43.4799 101.146C45.2545 98.3875 47.0784 95.5355 48.2261 92.3879C49.0388 91.0411 49.7117 89.6145 50.2345 88.1304C50.8787 86.3492 51.2302 84.475 51.2753 82.5807C51.4401 82.1369 51.6114 81.6958 51.7895 81.2575C51.7502 81.1489 51.7109 81.0403 51.6684 80.9285C51.5285 81.2696 51.3982 81.6139 51.2659 81.9588C51.2431 81.0537 51.1185 80.154 50.8945 79.2768C50.8641 79.1565 50.826 79.0326 50.7873 78.9066C51.5963 80.3041 52.0932 81.8603 52.2436 83.4681L52.2435 83.4681ZM46.9874 89.2636C47.5229 88.1407 47.5512 86.8721 47.5343 85.5655C47.518 84.3978 47.4797 83.2098 47.4437 82.0596C47.3642 79.5625 47.2907 76.995 47.4342 74.4561C47.6688 74.6601 47.891 74.878 48.0997 75.1085C47.7386 77.9619 47.702 80.8474 47.9905 83.7097C48.0079 83.8857 48.0259 84.0637 48.0452 84.2391C48.1602 85.0846 48.2066 85.9379 48.184 86.7908C48.0733 88.6517 47.3115 90.4136 46.0322 91.7673L46.2012 91.9301C47.5201 90.5358 48.3053 88.7203 48.4189 86.8026C48.4429 85.9371 48.3958 85.071 48.2779 84.2131C48.2605 84.037 48.2412 83.8617 48.2238 83.6856C47.9451 80.9115 47.9732 78.1153 48.3077 75.3479C48.5697 75.6598 48.8129 75.987 49.0359 76.3279C48.7286 77.7256 48.5842 79.1544 48.6054 80.5857C48.6193 81.1205 48.6613 81.6628 48.7039 82.1877C48.7942 83.328 48.8887 84.5053 48.6809 85.6362L48.9115 85.6793C49.1262 84.5184 49.0297 83.3225 48.9386 82.1675C48.8973 81.6464 48.854 81.1067 48.8408 80.5802C48.8197 79.2481 48.9467 77.918 49.2193 76.6143C49.4582 77.0035 49.6732 77.4069 49.863 77.8223C49.6967 79.0444 49.6257 80.2777 49.6506 81.511L49.6319 85.9042L49.8654 85.9057L49.8854 81.5099C49.8719 80.4195 49.9256 79.3294 50.0462 78.2457C50.2028 78.6206 50.3349 79.0052 50.4418 79.3972C51.103 81.9074 50.879 84.8742 49.7917 87.9734C48.3039 92.183 45.626 95.868 42.0838 98.5804C41.5051 96.1426 40.9466 93.6637 40.424 91.2025C39.4561 86.6497 38.6913 82.216 39.9524 78.0362C40.3787 76.6188 41.444 74.694 42.9205 73.7783C40.7645 77.2992 39.7575 81.4057 40.039 85.5278L40.2724 85.5101C39.9836 81.2979 41.0579 77.1059 43.3359 73.5551C43.6915 73.3895 44.0747 73.2912 44.4661 73.2652C42.2412 77.5709 41.3869 82.4467 40.6028 87.8593L40.834 87.8917C41.6231 82.4559 42.4823 77.5634 44.7322 73.262C44.8472 73.2626 44.962 73.2706 45.076 73.2858C45.1369 73.295 45.194 73.3119 45.2516 73.3243C44.0311 77.1284 43.361 81.1105 42.7188 84.9803L42.2109 88.0484C41.9553 89.3848 41.7991 90.7385 41.7435 92.0982L41.9796 92.1011C42.0349 90.7534 42.1895 89.4118 42.4422 88.0871L42.952 85.0183C43.5929 81.1511 44.2631 77.169 45.483 73.3758C45.5458 73.3907 45.6081 73.4101 45.6703 73.4295C45.0596 76.8411 44.7496 80.3255 44.4509 83.7118C44.168 86.9001 43.8776 90.1979 43.3369 93.4014L43.5688 93.4421C44.11 90.2276 44.403 86.9246 44.6846 83.7326C44.9809 80.3642 45.2911 76.899 45.8949 73.5112C46.1067 73.5903 46.3121 73.6854 46.5095 73.7958C46.148 75.9596 46.2061 78.1942 46.2721 80.3704L46.2952 81.1761C46.3748 84.0178 46.3526 87.012 45.2371 89.7097C45.2914 89.7098 45.3454 89.7181 45.3973 89.7342C45.4243 89.7442 45.4391 89.7627 45.4642 89.7734C46.5864 87.0392 46.609 84.0276 46.5299 81.1687L46.5069 80.363C46.4412 78.2316 46.3867 76.0451 46.7249 73.932C46.8915 74.0378 47.0523 74.1519 47.2094 74.2738C47.0498 76.8782 47.1258 79.5092 47.2089 82.0671C47.2462 83.2147 47.2845 84.4027 47.2983 85.5691C47.3162 86.8476 47.2883 88.086 46.7754 89.1626L46.9874 89.2636ZM47.2942 73.7524C46.882 73.4459 46.4279 73.2001 45.946 73.0228C45.6862 72.9294 45.418 72.8611 45.1452 72.819C45.0575 72.8061 44.9724 72.8074 44.8873 72.8022C45.2335 72.3392 45.5914 71.885 45.9577 71.4366C46.9107 71.6975 47.2188 72.7741 47.2944 73.7523L47.2942 73.7524ZM45.6873 71.3898C45.3179 71.8479 44.9586 72.3125 44.6094 72.7837C44.1803 72.7914 43.7565 72.8796 43.36 73.0437C43.7545 72.5092 44.1658 71.9861 44.5938 71.4744C44.9533 71.3998 45.3208 71.3714 45.6875 71.3898L45.6873 71.3898ZM38.7076 72.8737C38.836 72.8427 38.9663 72.811 39.0946 72.78C37.525 74.2364 36.051 75.7928 34.6817 77.4395C35.11 76.8157 35.5703 76.2146 36.061 75.6386C36.7868 74.7911 37.5873 73.9931 38.3617 73.2189L38.7076 72.8737ZM27.7326 81.2273C28.7182 79.3319 29.789 77.8547 31.0039 76.7117C31.663 76.097 32.3838 75.5522 33.1549 75.086C30.8625 77.467 28.907 80.1516 27.3429 83.0647L27.5498 83.176C29.2425 80.0274 31.3948 77.1495 33.9357 74.6371C34.6898 74.2379 35.4718 73.8941 36.2757 73.6084C36.1456 73.7407 36.0162 73.8748 35.8893 74.0103C35.0314 74.7466 34.1602 75.5067 33.349 76.3171C30.3772 79.2874 28.1673 82.9336 26.9078 86.945L27.1324 87.0161C28.3808 83.0408 30.5704 79.4272 33.5149 76.483C33.8704 76.1282 34.2401 75.7835 34.6161 75.4451C30.4662 80.3932 27.7482 86.3847 26.7564 92.7709L26.9885 92.8051C28.0731 85.8312 31.2264 79.3465 36.0394 74.1923C36.1601 74.0889 36.2802 73.9837 36.3997 73.8829C36.6062 73.7053 36.8172 73.5283 37.0257 73.35C37.4399 73.217 37.8508 73.0973 38.2583 72.9909L38.198 73.0521C37.4198 73.8276 36.6149 74.6315 35.8846 75.4848C34.912 76.6231 34.0556 77.856 33.3284 79.1652C32.5721 80.1719 31.8992 81.2388 31.3166 82.3554C30.0817 84.76 29.3806 87.4189 28.7021 89.9908C28.3336 91.3863 27.9537 92.8307 27.4925 94.2172L27.7152 94.291C28.1795 92.897 28.5601 91.4502 28.9289 90.0503C29.6038 87.4903 30.3006 84.8436 31.5241 82.4622C31.8133 81.901 32.1383 81.3381 32.5093 80.7596C31.2861 83.4098 30.4711 86.2307 30.0922 89.1261C30.0559 89.389 30.0222 89.6531 29.9885 89.9173C29.8495 91.0245 29.7068 92.1695 29.3287 93.2258C28.8849 94.4714 28.1352 95.5669 27.391 96.5641L27.5793 96.7053C28.3337 95.6918 29.0954 94.5794 29.5503 93.3063C29.9365 92.2237 30.0821 91.0671 30.221 89.947C30.2554 89.6848 30.2891 89.4206 30.3254 89.1577C30.7677 85.6976 31.8532 82.3516 33.5258 79.2925C33.9025 78.7806 34.3122 78.253 34.7691 77.7008C36.242 75.9155 37.8395 74.237 39.5496 72.678C40.0324 72.5708 40.5045 72.4759 40.9569 72.392C41.0073 72.3833 41.0629 72.3707 41.1146 72.3594C37.3496 76.5 33.0928 81.9604 31.524 88.5362C31.4001 89.0559 31.2918 89.5897 31.1852 90.1035C30.9131 91.4468 30.6286 92.8351 30.0519 94.0898C29.7404 94.7338 29.3908 95.3587 29.0051 95.9611C28.4986 96.7893 27.9742 97.6451 27.654 98.5831L27.8769 98.661C28.1887 97.7473 28.706 96.9026 29.2057 96.0853C29.5953 95.4745 29.9494 94.8417 30.266 94.19C30.8547 92.9098 31.1395 91.5086 31.4153 90.1512C31.52 89.638 31.629 89.1062 31.7522 88.5909C33.3396 81.9317 37.7174 76.4128 41.5202 72.2636C41.8113 72.1898 42.1293 72.1005 42.4606 72.0065C41.4604 73.1663 40.5214 74.3776 39.6474 75.6355C36.8759 79.5243 33.8695 84.1079 33.2411 89.3132C33.1961 89.6882 33.1614 90.0683 33.1286 90.4478C33.0118 91.7701 32.8909 93.1367 32.2494 94.2872C32.0509 94.6275 31.8306 94.9545 31.5898 95.2663C31.4702 95.4292 31.3518 95.5895 31.238 95.7569L31.431 95.89C31.5442 95.7271 31.6607 95.5675 31.779 95.4071C32.0245 95.087 32.2499 94.7519 32.4538 94.4037C33.1205 93.2081 33.2431 91.8152 33.3623 90.4685C33.3957 90.091 33.4292 89.7135 33.4736 89.3429C34.0947 84.1915 37.0854 79.6369 39.8372 75.7719C40.7779 74.4167 41.7975 73.1181 42.8909 71.883C43.332 71.7601 43.7949 71.6383 44.2331 71.5442C43.7768 72.0983 43.3397 72.6667 42.9216 73.2492C41.204 74.1787 39.9773 76.3256 39.5042 77.9003C39.3511 78.4103 39.2247 78.928 39.1257 79.4513C38.5267 80.5637 37.9431 81.6838 37.3698 82.7961C35.913 85.6211 34.4071 88.54 33.7133 91.7145L33.9427 91.7667C34.6291 88.6204 36.1287 85.7144 37.5779 82.9048C38.0474 81.995 38.5231 81.0788 39.0079 80.1638C38.9038 80.9019 38.8445 81.6457 38.8305 82.3911C38.3812 83.2533 37.9359 84.1148 37.4947 84.9757C36.7105 86.4469 36.003 87.9577 35.3752 89.5023C35.2373 89.862 35.1064 90.2236 34.9763 90.5871C34.7166 91.3507 34.4168 92.1 34.0779 92.8317C33.3842 94.2613 32.3854 95.5361 31.4202 96.7694L29.2028 99.6017L29.3879 99.7483L31.6054 96.9159C32.5764 95.672 33.5828 94.3882 34.2897 92.9348C34.6323 92.1953 34.9351 91.4379 35.1969 90.6659C35.3258 90.305 35.4566 89.9434 35.5939 89.5881C36.2186 88.051 36.9229 86.5476 37.704 85.084C38.0712 84.3633 38.4475 83.6374 38.8236 82.9116C38.8322 83.9897 38.9053 85.0664 39.0426 86.1359C38.6761 86.9527 38.3404 87.7782 38.0148 88.5896L36.2562 92.9715L36.4745 93.0596L38.233 88.6777C38.5091 87.9904 38.801 87.2933 39.1045 86.5986C39.2002 87.2853 39.3113 87.9731 39.4371 88.6666C39.281 89.0732 39.1211 89.4811 38.9432 89.8802C37.754 92.556 35.8314 94.9001 34.1204 96.8871L34.2969 97.0409C36.0188 95.0416 37.9572 92.6813 39.1577 89.976C39.2859 89.6881 39.4039 89.3952 39.5199 89.1029C39.5887 89.4669 39.6601 89.8322 39.734 90.1987C38.4711 92.3603 37.0928 94.4522 35.6053 96.4653L35.7926 96.6068C37.2359 94.6568 38.5747 92.6313 39.8033 90.539C39.8559 90.7929 39.9084 91.0469 39.9629 91.3002C40.0281 91.6097 40.0997 91.9192 40.1674 92.2301C36.9701 96.3928 32.8115 100.283 27.1209 104.428C23.8227 97.1669 24.0481 88.3034 27.7328 81.2272L27.7326 81.2273ZM35.2192 93.8011C35.5021 93.1956 35.7228 92.5628 35.8779 91.9125L35.9569 91.6243C36.6765 89.0981 37.6471 86.6506 38.854 84.3185C38.8629 84.4696 38.873 84.6181 38.8883 84.7692C37.7672 86.983 36.8607 89.2995 36.1813 91.6868L36.1024 91.975C35.9463 92.6411 35.7205 93.2888 35.4287 93.9073C35.0649 94.5547 34.6307 95.1597 34.134 95.7114C33.5224 96.4428 32.9456 97.1323 32.6517 97.9927L32.4285 97.9149C32.7386 97.0146 33.3559 96.2748 33.9542 95.5608C34.4389 95.0223 34.8631 94.4322 35.2194 93.8011L35.2192 93.8011Z" fill="white"/>
</g>
<defs>
<clipPath id="clip0">
<rect width="84.6007" height="103.532" fill="white" transform="translate(27.3577 113.535) rotate(-108.867)"/>
</clipPath>
</defs>
</svg>
