<svg xmlns="http://www.w3.org/2000/svg" width="207" height="225" fill="none"  ><g clip-path="url(#A)"><path fill-rule="evenodd" d="M64.712 165.813c-.461-.013-.8.424-1.01.835-.267.526-.457 1.17-.184 1.691.295.562 1.04.755 1.658.609s1.41-.664 1.907-1.059l-2.372-2.076zm10.98 8.055c-.32.122-.426.519-.453.861-.033.436.021.93.358 1.208.363.3.928.218 1.31-.059a4.31 4.31 0 0 0 1.003-1.271l-2.218-.739zm-13.922-14.983c-.263.38-.816.392-1.271.316-.581-.098-1.21-.328-1.465-.859-.275-.571.014-1.287.498-1.697s1.372-.74 1.985-.906l.253 3.146zm8.059 11.051c-.656-.019-1.139.603-1.437 1.189-.381.749-.652 1.665-.262 2.407.42.799 1.481 1.074 2.36.867s2.007-.946 2.716-1.508l-3.377-2.955zm-8.405-17.643c-.508.471-1.321.312-1.962.053-.819-.331-1.666-.87-1.869-1.73-.218-.926.435-1.881 1.277-2.326s2.247-.641 3.198-.687l-.644 4.69zm135.361-92.196l-.649-.789c-.141-.003-.28.034-.4.108a.73.73 0 0 0-.278.307c-.041.101-.049.212-.024.319s.082.202.163.275l.567-.595c.031.033.054.074.066.118s.015.091.006.135a.22.22 0 0 1-.032.089c-.016.027-.039.05-.065.068-.036-.005-.07-.019-.098-.042s-.05-.053-.063-.087c0 0-.001.105-.259.344-12.619 11.773-26.353 22.687-39.633 33.241-12.946 10.287-26.331 20.926-40.343 30.188-4.599 3.04-9.344 5.983-14.103 8.749l.412.711c4.773-2.773 9.532-5.725 14.144-8.773 14.043-9.283 27.442-19.932 40.401-30.23 13.294-10.565 27.039-21.489 39.683-33.285a1.43 1.43 0 0 0 .505-.851zm5.243 6.369L160.75 99.188c-10.098 8.005-20.541 16.284-31.673 23.183-2.835 1.758-5.778 3.466-8.626 5.118-7.433 4.313-15.118 8.773-21.66 14.564l.545.617c6.48-5.737 14.13-10.176 21.526-14.469l8.647-5.13c11.173-6.925 21.633-15.219 31.751-23.238l41.291-32.731-.524-.636zM84.922 139.333a36.74 36.74 0 0 0-7.544 4.734c-1.738 1.419-3.372 3.021-4.952 4.57-1.74 1.707-3.54 3.464-5.492 4.997a1.89 1.89 0 0 0-.257-.232c1.956-1.532 3.763-3.295 5.51-5.008 1.585-1.555 3.225-3.162 4.975-4.591a36.99 36.99 0 0 1 7.535-4.74l.225.27zm-1.066-1.308c-5.06 2.181-9.546 5.508-13.103 9.718l-.261-.22a35.93 35.93 0 0 1 13.155-9.765l.209.267zm2.675 3.004c-6.512 3.613-12.549 8.813-17.567 15.251l-.27-.21c5.006-6.42 11.018-11.619 17.509-15.25a1.86 1.86 0 0 0 .328.209zm-2.198 4.793l.834-.459c1.32-.738 2.612-1.53 3.883-2.354.068.1.133.194.2.276-1.282.832-2.584 1.631-3.917 2.376l-.836.461c-.94.516-1.915 1.05-2.817 1.656a18.11 18.11 0 0 0-6.249 7.24l-.308-.147c1.423-2.985 3.622-5.533 6.367-7.377.915-.614 1.896-1.152 2.843-1.672zm3.604-3.631c.02.025.042.049.061.073a2 2 0 0 0 .177.186l-2.647 1.465c-3.41 1.952-7.743 4.693-11.013 8.611l-.627.771c-.528.688-1.1 1.341-1.714 1.953l-.234-.247a19.3 19.3 0 0 0 1.684-1.92l.631-.777c3.306-3.958 7.673-6.722 11.107-8.686.848-.487 1.713-.962 2.576-1.429zm3.984 2.156c-.825.816-1.672 1.676-2.55 2.597-1.152 1.207-2.371 2.519-3.486 3.932-.504.64-.995 1.31-1.469 1.958-.612.836-1.245 1.702-1.919 2.516-2.151 2.597-4.787 4.767-7.336 6.866l-.217-.263c2.537-2.089 5.161-4.249 7.291-6.82.667-.807 1.297-1.668 1.907-2.501l1.477-1.967c1.123-1.424 2.35-2.743 3.508-3.957l2.385-2.43c.137.028.273.052.411.069zm-13.3 19.006l-.203-.275c3.314-2.441 5.512-6.082 7.637-9.603l2.211-3.55a45.81 45.81 0 0 1 4.346-5.528c.155.003.312-.003.47-.01-1.661 1.784-3.176 3.7-4.531 5.727-.762 1.149-1.495 2.363-2.204 3.537-2.143 3.55-4.359 7.221-7.728 9.703v-.001zm10.002 4.039c2.248-3.764 4.797-8.03 5.553-12.653.145-.885.226-1.797.305-2.679a1.3 1.3 0 0 1 .005-.048c-.457 1.969-1.074 3.897-1.846 5.766-.829 2.001-1.676 3.528-2.665 4.806a28.63 28.63 0 0 1-2.55 2.762l-3.445 3.419-.24-.243 3.445-3.419c.899-.853 1.74-1.764 2.52-2.728.97-1.253 1.802-2.755 2.62-4.728a36.75 36.75 0 0 0 2.308-8.086l.344.965c-.004.041-.011.082-.016.124l-.139 1.44c-.079.887-.161 1.805-.308 2.702-.767 4.688-3.333 8.984-5.597 12.775l-.293-.175zm-8.414 1.934l2.352-2.068c1.074-.945 2.185-1.922 3.11-3.036 1.623-1.953 2.691-4.335 3.722-6.64l.299-.668a138.89 138.89 0 0 1 4.408-8.887l.147.451c-1.511 2.815-2.935 5.674-4.243 8.577l-.3.665c-1.041 2.327-2.118 4.731-3.77 6.719-.943 1.135-2.063 2.121-3.148 3.074l-2.352 2.068-.224-.255zm2.529-32.881l.193.306c-1.127.37-2.248.771-3.34 1.243-5.083 2.195-9.063 5.375-11.51 9.196l-.288-.184c2.485-3.879 6.518-7.104 11.663-9.326 1.075-.464 2.175-.868 3.282-1.235zm22.897 38.276c1.07-3.647 1.545-6.618 1.494-9.35-.1-5.392-2.281-10.497-4.391-15.434-1.21-2.829-2.438-5.724-3.302-8.704.088-.117.178-.23.265-.356.861 3.053 2.111 6.025 3.351 8.925 2.123 4.967 4.318 10.103 4.42 15.562.051 2.768-.429 5.771-1.509 9.453l-.328-.096zm-2.032-7.431a1.55 1.55 0 0 0-.201.049c.677-4.964-.397-9.948-1.577-14.232l-1.09-3.772c-.706-2.384-1.423-4.819-1.967-7.293.098-.105.194-.218.29-.33.548 2.55 1.277 5.066 2.005 7.525l1.092 3.778c1.181 4.29 2.256 9.28 1.599 14.271-.051.002-.1-.002-.151.004zm5.423 1.395c-.037-2.368-.537-4.756-1.073-6.983-1.474-6.122-3.448-12.113-5.901-17.912l-.175-.41-.714-1.731.509.358.519 1.238.175.413c2.461 5.815 4.441 11.823 5.919 17.964.54 2.246 1.045 4.655 1.082 7.058.036 2.318-.356 4.632-.735 6.869l-.34-.029.003-.247.037.001c.366-2.155.728-4.377.694-6.589zm1.017-11.865c1.893 4.83 3.813 10.548 3.705 16.347l-.341-.006c.107-5.739-1.802-11.417-3.681-16.215l-1.357-3.374c-1.252-3.081-2.535-6.243-3.497-9.491l.436.27c.945 3.104 2.175 6.135 3.377 9.092l1.358 3.377zm-8.642 6.648a65.5 65.5 0 0 0-1.825-14.238c-.301-1.243-.645-2.504-.978-3.722l-.708-2.668c.098-.077.199-.15.293-.232l.744 2.81.98 3.732c1.109 4.587 1.721 9.28 1.827 13.998l.014.001-.008.321-.34-.002zm9.968 5.074c-.425-6.736-3.056-13.148-5.598-19.352l-2.104-5.25-.303-.813.484.318.139.371c.668 1.752 1.396 3.527 2.1 5.243 2.554 6.228 5.195 12.668 5.625 19.459.244 3.821-.219 7.655-1.366 11.309l-.326-.102c1.134-3.613 1.591-7.404 1.35-11.182l-.001-.001zm-11.327-8.745c-.09-4.726-1.212-9.421-2.296-13.961l-.586-2.5c.104-.062.209-.122.308-.188l.609 2.608c1.089 4.558 2.214 9.271 2.305 14.034l-.341.007zm14.271 16.413c1.108-3.14.706-6.613.166-9.596-.682-3.82-1.726-7.566-3.117-11.188a115.66 115.66 0 0 0-1.488-3.596c-.822-1.924-1.648-3.899-2.303-5.927.017.016.031.034.048.049.158.137.309.281.463.422.617 1.814 1.365 3.588 2.106 5.322l1.492 3.607c1.399 3.642 2.448 7.409 3.135 11.25.547 3.027.954 6.555-.181 9.771l-.321-.114zm-19.138-32.012a22.05 22.05 0 0 1 .594 2.767l-.338.048c-.136-.916-.331-1.821-.582-2.711.115-.032.219-.068.326-.104zm1.259-.48c.798 3.402 1.611 6.916 1.678 10.464l-.342.007c-.065-3.489-.865-6.963-1.655-10.327.11-.045.213-.096.318-.144zm-14.462 5.657c.945-.748 1.958-1.432 2.938-2.095l.7-.475c1.416-.966 2.808-1.981 4.191-3.007a6.74 6.74 0 0 0 .243.174c.12.08.249.146.383.196-1.989 1.985-3.894 4.052-5.76 6.1l-2.284 2.496c-1.432 1.549-2.974 3.172-4.717 4.534a44.48 44.48 0 0 1-3.697 2.507l-4.941 3.116-.181-.29 4.941-3.115c1.23-.776 2.501-1.577 3.668-2.488 1.723-1.344 3.255-2.958 4.677-4.496l2.282-2.494c1.826-2.004 3.684-4.034 5.626-5.985-1.396 1.036-2.809 2.058-4.239 3.034l-.701.475c-.974.658-1.981 1.34-2.917 2.08a49.95 49.95 0 0 0-3.967 3.629c-2.267 2.227-4.611 4.532-7.548 5.859l-.141-.311c2.882-1.302 5.204-3.585 7.45-5.793 1.265-1.288 2.599-2.507 3.995-3.651zm1.134 15.81l-.203-.276c1.775-1.31 3.251-3.237 4.512-5.893.714-1.502 1.297-3.094 1.861-4.634l.906-2.412c.713-1.798 1.523-3.557 2.428-5.267-2.502 3.171-4.869 6.944-7.179 11.435l-.129.25c-.558 1.086-1.134 2.21-1.918 3.178-.69.804-1.45 1.545-2.27 2.216l-4.033 3.496-.223-.258 4.035-3.499a17.8 17.8 0 0 0 2.226-2.171c.761-.94 1.33-2.048 1.88-3.119l.129-.25c2.637-5.127 5.351-9.326 8.254-12.762.047.168.093.336.152.501-1.153 2.054-2.167 4.184-3.035 6.374-.313.795-.613 1.613-.903 2.404-.566 1.547-1.152 3.147-1.872 4.663-1.286 2.709-2.797 4.679-4.619 6.024zm26.239 19.36c-.853.052-1.703-.149-2.443-.578-1.361-.831-1.945-2.363-2.472-3.991l-4.518-13.951-2.712-8.133-4.357-13.427c.234-.014.465-.037.694-.064 1.341 4.467 2.841 8.929 4.31 13.271l2.714 8.142 4.519 13.95c.353 1.093.731 2.135 1.357 2.895a3.26 3.26 0 0 0 .821.724 3.72 3.72 0 0 0 2.063.479c2.447-.094 4.352-1.959 5.317-3.673 1.164-2.064 1.547-4.531 1.814-6.681.554-4.454.957-10.242-.862-15.517-1.422-4.127-4.193-8.008-8.233-11.54-2.462-2.152-5.166-3.969-7.69-5.525.126-.18.252-.375.377-.572 2.544 1.57 5.271 3.405 7.762 5.583 1.435 1.244 2.766 2.604 3.978 4.066 1.937 2.3 3.445 4.931 4.452 7.765 1.864 5.406 1.457 11.296.894 15.823-.276 2.215-.672 4.76-1.897 6.934-1.349 2.392-3.605 3.932-5.888 4.02h0zm-34.569-10.621c-1.879-.771-3.432-2.07-4.935-3.327l-4.939-4.131c-.701-.585-1.495-1.248-2.014-2.116-.63-1.052-.8-2.317-.938-3.334-.696-5.162-1.298-11.133.378-16.671 1.831-6.05 6.366-10.491 11.553-11.315 3.307-.525 5.563.647 7.949 1.888l.229.118c.028.181.085.357.168.52.037.072.079.141.117.213l.064.216-.893-.46c-2.285-1.187-4.443-2.309-7.528-1.82-4.93.783-9.249 5.037-11.005 10.837-1.636 5.407-1.041 11.292-.355 16.383.129.953.289 2.141.846 3.073.116.192.246.374.389.547a11.04 11.04 0 0 0 1.478 1.397l4.939 4.131c1.462 1.223 2.974 2.488 4.756 3.219 4.662 1.912 9.948-.378 13.119-3.495 3.405-3.347 5.385-7.864 7.276-12.588.39-.973.756-1.914 1.084-2.841.055.326.196.63.409.882-.268.725-.557 1.459-.858 2.212-1.919 4.795-3.932 9.383-7.432 12.823-3.33 3.273-8.907 5.668-13.856 3.639h.001zm25.875 40.037c-1.035.588-2.511-.769-3.581-2.033-.754-.749-1.459-1.948-2.099-3.105a39.26 39.26 0 0 1-3.274-7.955c-1.474-5.035-2.165-10.548-2.113-16.85.05-5.822.711-11.686 1.377-17.378a1.59 1.59 0 0 0 .3-.389c.047-.091.102-.177.151-.267a2.16 2.16 0 0 0 .122-.215l.271-.48-.075.65c-.694 5.916-1.412 12.033-1.462 18.084-.053 6.234.629 11.682 2.085 16.652.782 2.716 1.86 5.337 3.215 7.816.476.902 1.026 1.762 1.646 2.571.467.567.953.978 1.365.931.436-.049.857-.695 1.186-1.821.311-1.067.217-2.221.125-3.337l-3.921-47.595.681-.057 3.92 47.594c.092 1.123.196 2.396-.151 3.585-.415 1.42-.969 2.174-1.692 2.299.702.614 1.277.881 1.588.705.348-.196.556-.608.775-1.085 3.885-8.509 8.273-18.141 8.774-28.127.234.009.468-.023.691-.097-.476 10.165-4.917 19.906-8.845 28.507-.207.454-.491 1.074-1.06 1.397zm-31.222-44.365c.013.012.025.022.038.034a2.15 2.15 0 0 0 .422.356c-.764 1.362-1.59 2.699-2.404 3.992-.955 1.517-1.941 3.085-2.798 4.685a39.04 39.04 0 0 0-4.48 20.689c-.007.19.036.378.124.545.132.168.412.243.88.221 3.36-.161 6.744-1.808 10.651-5.183a49.08 49.08 0 0 0 15.163-23.979 7.65 7.65 0 0 0 .864-.625 49.73 49.73 0 0 1-15.58 25.121c-4.029 3.481-7.545 5.181-11.066 5.349-.457.022-1.087.006-1.465-.502a1.68 1.68 0 0 1-.252-.901c-.449-7.303 1.129-14.59 4.558-21.056.869-1.622 1.862-3.2 2.822-4.727.836-1.328 1.688-2.702 2.464-4.095.022.024.034.052.058.076zm14.66-44.437c-2.505-5.956-6.436-11.204-11.446-15.283a24.47 24.47 0 0 0-4.849-3.167c-5.873-2.8-12.698-2.177-19.187-1.299-1.981.268-3.735.571-5.129 1.572-.369.264-.981.805-.944 1.459.05.33.169.646.349.927 3.361 6.21 7.443 13.282 13.359 18.613 3.612 3.255 7.87 5.791 12.147 7.893l-.026.013c-.226.109-.431.257-.605.438-4.212-2.093-8.397-4.613-11.973-7.835-5.999-5.404-10.115-12.536-13.503-18.795-.231-.368-.378-.783-.43-1.215-.041-.726.395-1.455 1.229-2.053 1.522-1.093 3.363-1.414 5.436-1.694 6.592-.892 13.531-1.522 19.573 1.359a25.14 25.14 0 0 1 4.985 3.253 39.78 39.78 0 0 1 5.631 5.602 41.51 41.51 0 0 1 1.897 2.491 40.27 40.27 0 0 1 4.162 7.565 3.13 3.13 0 0 0-.675.157v-.001zm-37.765-9.313c-6.514.507-13.581 1.995-19.378 6.15-.498.356-.598.563-.617.648l.072.157c.381.349 2.033.558 2.612.631l.712.101 7.08 1.327c5.479 1.102 9.919 2.215 13.972 3.502l1.864.607c1.941.639 3.947 1.3 5.969 1.734.187.04.377.07.565.107a1.68 1.68 0 0 0 .426.389c.323.204.634.384.944.545-.697-.107-1.392-.225-2.08-.373-2.056-.442-4.081-1.108-6.038-1.753l-1.856-.604c-4.029-1.28-8.446-2.388-13.899-3.484l-7.066-1.326c-.173-.031-.41-.06-.679-.095a16.67 16.67 0 0 1-1.804-.3 170.73 170.73 0 0 0 24.232 14.852c3.612 1.819 7.553 3.617 11.677 4.848a2.01 2.01 0 0 0-.144.671c-4.188-1.246-8.182-3.067-11.842-4.908a171.54 171.54 0 0 1-24.684-15.174c-.202-.145-.345-.464-.531-.896-.007-.017-.014-.034-.022-.05a.81.81 0 0 1-.144-.296c-.167-.663.624-1.231.884-1.417 5.842-4.186 12.909-5.717 19.443-6.253a2.28 2.28 0 0 0 .333.661v-.001zM26.57 136.575c.257.268.57.477.916.613 10.22 4.665 21.15 7.586 32.336 8.644.845.08 1.697.147 2.551.188-.1.195-.172.402-.213.617l-.01.057c-.802-.042-1.602-.106-2.394-.181a101.37 101.37 0 0 1-32.554-8.703c-.374-.17-1.513-.688-1.484-1.688.02-.696.605-1.167 1.112-1.5 2.819-1.839 5.895-3.251 9.127-4.189a1.57 1.57 0 0 0 .228.172c.191.115.389.219.592.312-3.395.914-6.626 2.357-9.574 4.277-.391.256-.792.568-.803.946a.65.65 0 0 0 .169.436v-.001zm25.429 35.256c-.052-.002-.104-.001-.157-.004-7.183-.402-14.148-2.928-19.613-7.115-.455-.347-.914-.732-1.117-1.305-.125-.428-.152-.878-.081-1.318.77-7.504 4.162-14.499 9.579-19.752.134.063.276.109.422.137l.351.066a31.38 31.38 0 0 0-9.673 19.616 2.4 2.4 0 0 0 .045 1.022c.139.394.515.706.889.992 5.358 4.104 12.191 6.579 19.238 6.975.237.013.476.012.713.02a1.61 1.61 0 0 0-.597.666zm8.982 2.506c-1.855.473-3.686 1.068-5.473 1.649-.225.074-.664.259-1.172.475-1.787.758-3.266 1.353-4.116 1.363a2.16 2.16 0 0 0 .173.188c.649.623 1.66.778 2.556.873a40.91 40.91 0 0 0 4.141.228l-.476.67c-1.251-.02-2.5-.085-3.737-.219-1.008-.108-2.151-.287-2.955-1.059-.245-.234-.444-.511-.587-.818 0 0-.194-.509-.278-.814-.3-1.097.417-2.677.812-3.27.571-.857 1.324-1.559 2.053-2.238.45-.418.914-.851 1.322-1.309.781-.878 1.412-1.916 2.022-2.919.604-1.063 1.302-2.07 2.086-3.009 1.422-1.541 3.113-2.81 4.99-3.744-.001.226.031.45.096.666.005.015.011.029.016.043-1.725.883-3.279 2.064-4.592 3.489-.777.876-1.406 1.91-2.014 2.91-.626 1.029-1.273 2.094-2.095 3.018-.43.483-.906.926-1.367 1.356-.732.681-1.423 1.325-1.949 2.116-.424.636-.923 1.967-.721 2.709a.73.73 0 0 0 .135.278c.054.066.123.119.2.155.456.219 2.953-.839 4.018-1.293.545-.23.974-.413 1.229-.495 2.192-.714 4.454-1.438 6.76-1.95-.366.295-.727.607-1.078.951zm-8.813 20.474c-.73-.05-1.749-.208-2.189-1.033-.147-.275-.091-.689.01-1.155-.076-.456-.02-1.056.163-1.855a25.05 25.05 0 0 1 5.818-11.117c.584-.65 1.186-1.355 1.807-2.082 2.229-2.61 4.755-5.568 7.522-7.152 1.147-.643 2.409-1.055 3.715-1.213.026.038.047.081.077.117l.217.263c.072.087.153.168.24.239-1.374.104-2.709.509-3.909 1.188-2.664 1.524-5.15 4.434-7.342 7.002l-1.818 2.094c-2.773 3.066-4.721 6.787-5.66 10.812a4.59 4.59 0 0 0-.16 1.554.38.38 0 0 1 .018.102c.024.128.081.248.167.347.279.303.96.358 2.21.176 1.71-.249 3.499-1.082 5.174-2.411a24.09 24.09 0 0 0 2.737-2.618c-.017.057-.041.11-.058.167a5.07 5.07 0 0 0-.16 1.059 22.09 22.09 0 0 1-2.096 1.928c-1.769 1.403-3.671 2.285-5.5 2.551-1.14.166-1.882.146-2.377-.079.275.246.744.386 1.444.433a24.42 24.42 0 0 0 7.869-.771c-.046.232-.092.464-.118.706-.001.012 0 .023-.001.035a25.07 25.07 0 0 1-7.798.713zm27.988-60.2c.013.012.029.021.042.034-3.177.436-6.352 1.051-9.029 2.768-2.727 1.762-4.677 4.5-5.451 7.653l-.332-.08a13.07 13.07 0 0 1 5.6-7.861c2.667-1.71 5.792-2.345 8.925-2.784.074.097.156.187.246.27zm-10.794 6.979l-.261-.22c2.486-2.944 5.864-4.997 9.62-5.849.703-.158 1.419-.271 2.134-.364a8.16 8.16 0 0 0 .447.289c-.842.094-1.679.231-2.507.409-3.684.835-6.995 2.848-9.433 5.735zm2.737-7.601c-.128.05-.254.108-.38.164-2.165-1.31-4.533-2.319-6.842-3.299-3.219-1.365-6.548-2.779-9.308-5.005l.214-.267c2.722 2.197 6.03 3.6 9.227 4.957 2.393 1.017 4.849 2.066 7.089 3.45zm-1.961 1.089c-3.54-1.794-7.075-3.674-10.529-5.611l.167-.298a283.13 283.13 0 0 0 10.677 5.685c-.105.07-.21.148-.315.224zm-2.192-7.312c-1.082-.579-2.201-1.176-3.268-1.827-3.993-2.433-7.473-5.741-10.35-8.656l.243-.241c2.862 2.9 6.323 6.191 10.285 8.605 1.059.646 2.174 1.241 3.251 1.817l2.509 1.376c2.503 1.488 4.908 3.136 7.2 4.934-.265-.067-.529-.124-.791-.173a64.18 64.18 0 0 0-6.579-4.465c-.822-.474-1.675-.929-2.5-1.37zm-9.272-8.66l.165-.3c4.384 2.434 8.916 4.952 13.065 7.927 3.62 2.595 6.561 5.266 8.925 8.101l-.69-.279c-2.272-2.628-5.052-5.119-8.433-7.544-4.133-2.963-8.656-5.475-13.031-7.905h-.001zM82.038 134.8a31.9 31.9 0 0 0-2.08-2.54c-2.557-2.807-5.543-5.127-8.382-7.262-4.268-3.211-8.928-6.536-14.077-9.092l.153-.306c5.173 2.569 9.848 5.903 14.13 9.124 2.852 2.146 5.852 4.477 8.429 7.304.378.416.746.841 1.104 1.275.168.204.325.416.487.624l.235.805c0 .023.001.046.001.068h-.001zm-.866-4.377a9.39 9.39 0 0 0 .097 1.142c-7.316-9.102-17.636-16.285-30.002-20.866l.119-.32c11.614 4.302 21.429 10.899 28.666 19.21-2.051-2.493-4.182-4.945-6.351-7.406-.915-1.038-1.952-2.213-3.052-3.254-1.775-1.682-3.909-3.221-6.526-4.705a48.39 48.39 0 0 0-7.134-3.312l.118-.321c2.481.916 4.884 2.031 7.185 3.336 2.641 1.497 4.797 3.053 6.592 4.753 1.111 1.052 2.154 2.234 3.073 3.277l6.32 7.358.898 1.108zm-5.322-14.402c1.243 1.51 2.367 3.102 3.415 4.636.917 1.344 1.879 2.795 2.703 4.301.224.408.433.827.641 1.246a5.11 5.11 0 0 0-.234.292c-.227-.464-.46-.924-.706-1.375-.816-1.492-1.773-2.934-2.685-4.271-1.461-2.142-3.073-4.395-4.945-6.371-3.436-3.619-7.727-6.315-12.479-7.84l.104-.326a30.08 30.08 0 0 1 12.623 7.931 33.46 33.46 0 0 1 1.566 1.777h-.001zm-2.092 2.307c.816.992 1.588 2.014 2.349 3.021l5.295 7.137c-.04.145-.074.291-.103.437-1.795-2.503-3.643-4.953-5.466-7.368-1.639-2.17-3.334-4.417-5.4-6.247-2.289-2.029-4.943-3.517-8.22-5.126l.15-.307c3.304 1.622 5.979 3.123 8.296 5.176a28.88 28.88 0 0 1 3.099 3.278l-.001-.001zm9.261 7.466c-.019-.039-.034-.081-.053-.121-2.51-5.408-6.238-10.635-11.397-15.986l.246-.238a77.66 77.66 0 0 1 4.045 4.522c3.155 3.832 5.601 7.648 7.416 11.557.007.016.013.033.021.048-.093.068-.185.14-.276.219l-.001-.001zm-18.981 2.117l2.402.983c2.89 1.245 5.654 2.766 8.253 4.54a9.66 9.66 0 0 0-.537.045 48.74 48.74 0 0 0-7.853-4.272 96.62 96.62 0 0 0-2.394-.979c-1.477-.589-3.004-1.198-4.447-1.935a26.32 26.32 0 0 1-4.217-2.691l.211-.269a25.98 25.98 0 0 0 4.162 2.655c1.432.73 2.952 1.337 4.421 1.923h-.001zm-2.908-2.605c1.992 1.213 4.135 2.243 6.207 3.239l.535.257c3.008 1.449 5.937 2.926 8.625 4.714-.245-.034-.489-.058-.732-.074-2.522-1.619-5.248-2.986-8.041-4.333l-.535-.257c-2.079-1-4.23-2.034-6.237-3.255-1.752-1.071-3.415-2.282-4.971-3.622-1.332-1.144-2.588-2.374-3.758-3.683l.256-.228a39.95 39.95 0 0 0 3.725 3.65 37.46 37.46 0 0 0 4.928 3.593l-.002-.001zm.807 22.293c-4.351 1.63-8.487 3.883-12.51 6.088-3.251 1.781-6.614 3.623-10.061 5.118l-.135-.313c3.434-1.488 6.789-3.327 10.032-5.104 4.074-2.233 8.265-4.517 12.686-6.158l-.011.369h-.001zm-17.988-4.443c.022.019.048.035.071.052l-2.1 1.749-3.399 2.865-.22-.261 3.399-2.864 1.972-1.647c.093.034.186.076.278.106h-.001zm4.447 4.69c.67-.497 1.364-1.01 2.071-1.484.537-.358 1.086-.697 1.649-1.015l.551.088c-.688.375-1.361.777-2.011 1.213-.699.469-1.39.98-2.057 1.474l-1.751 1.266c-3.125 2.157-6.614 3.73-10.298 4.643l-.081-.332a31.11 31.11 0 0 0 10.186-4.592 64.61 64.61 0 0 0 1.742-1.261zm13.496 1.151c-4.186 1.406-8.216 3.244-12.022 5.485-1.508.897-3.008 1.88-4.457 2.83-3.16 2.071-6.428 4.214-10.009 5.602l-.122-.319c3.547-1.375 6.799-3.507 9.944-5.569 1.453-.953 2.955-1.937 4.47-2.837a63.99 63.99 0 0 1 12.209-5.557l-.013.365zm-15.551-4.893a31.95 31.95 0 0 0-9.48 7.263l-.256-.226c2.624-2.94 5.765-5.373 9.267-7.179.154.05.312.095.469.142zm3.002 5.114c1.942-1.238 3.953-2.365 6.023-3.375l.606.093a58.36 58.36 0 0 0-6.448 3.571l-3.085 1.974c-3.295 2.132-6.702 4.336-10.36 5.927l-.135-.313c3.632-1.579 7.027-3.776 10.31-5.9l3.088-1.977zm-9.684 2.974l-.251-.232c2.751-2.951 6.011-5.382 9.623-7.177l.526.112a33.31 33.31 0 0 0-9.898 7.297zm19.683-5.844c.258.019.515.033.773.042-3.363 1.427-6.57 3.266-9.7 5.073-3.847 2.22-7.824 4.516-12.063 6.018l-.113-.322c4.208-1.491 8.172-3.779 12.005-5.992 2.94-1.696 5.95-3.427 9.097-4.819zm2.521 3.451l-.013.371c-2.546.966-5.013 2.131-7.376 3.484-4.92 2.791-9.504 6.258-13.936 9.61l-.206-.272c4.442-3.359 9.034-6.833 13.974-9.635 2.42-1.386 4.947-2.577 7.558-3.558zm-8.342 14.752c3.074-.82 5.931-2.308 8.366-4.358l.033.408a21.99 21.99 0 0 1-8.312 4.28c-1.313.346-2.675.571-3.991.788-1.822.302-3.706.614-5.463 1.248l-.116-.321c1.786-.645 3.686-.96 5.523-1.263 1.309-.216 2.663-.441 3.96-.782zm2.842 1.313l-.438.142c-3.643 1.063-7.589 1.525-10.76 1.895l-.04-.338c3.158-.37 7.088-.829 10.704-1.884.307-.089.597-.193.896-.29-.128.153-.246.313-.362.475zm-1.101 2.266c-2.555.583-5.158.929-7.776 1.034l-.016-.341c2.659-.105 5.302-.463 7.894-1.068-.042.121-.066.25-.101.375zm-2.844-7.075c3.409-1 6.501-2.967 9.32-5.035l.001.422c-2.789 2.032-5.846 3.949-9.226 4.941-.821.241-1.677.433-2.504.619-1.93.433-3.926.881-5.571 1.981l-.189-.284c1.697-1.136 3.725-1.59 5.687-2.03.822-.184 1.672-.376 2.483-.614zm-2.147 2.893c4.13-1.469 7.897-3.738 11.497-6.201l.01.407c-3.564 2.428-7.296 4.659-11.392 6.116-2.764.983-5.671 1.599-8.482 2.195l-1.708.362-.07-.335 1.708-.362c2.8-.592 5.695-1.206 8.437-2.182zm8.234-8.54c1.066-.69 2.147-1.383 3.251-2.034l-.006.401a97.07 97.07 0 0 0-3.059 1.92l-1.847 1.183a75.29 75.29 0 0 1-15.405 7.379l-.111-.324a74.88 74.88 0 0 0 15.335-7.345l1.843-1.18zm3.308-4.151l-.013.386c-.599.306-1.185.637-1.764.966l-13.075 7.421-.168-.296 13.075-7.422c.617-.35 1.267-.718 1.945-1.055zm9.688 37.756c.636-1.25 1.056-2.623 1.462-3.951l.106-.347c.634-2.064 1.323-4.139 2.05-6.166.554-1.544 1.103-2.97 1.694-4.304.117.021.234.035.351.052-.601 1.351-1.161 2.796-1.724 4.367-.725 2.022-1.413 4.091-2.045 6.151l-.106.346c-.41 1.343-.835 2.731-1.484 4.007-.858 1.681-2.087 3.141-3.275 4.551l-.261-.221c1.176-1.395 2.392-2.839 3.232-4.485zm9.876-14.94c-2.676 6.204-5.447 12.614-9.276 18.34l-.284-.189c3.767-5.633 6.511-11.943 9.151-18.066a15.61 15.61 0 0 0 .409-.085zm-5.699-.101c.112.034.225.061.337.091-1.067 2.19-1.949 4.487-2.812 6.747-1.556 4.074-3.165 8.287-5.841 11.783a45.83 45.83 0 0 1-1.075 1.334c-.886 1.073-1.804 2.183-2.419 3.439l-.307-.15c.634-1.293 1.564-2.418 2.463-3.506l1.067-1.324c2.646-3.457 4.246-7.646 5.792-11.697.859-2.248 1.735-4.533 2.794-6.717zm-7.465 15.313l-.263-.218c1.875-2.254 2.751-5.163 3.599-7.977.826-2.742 1.614-5.278 2.56-7.717l.311.143c-.939 2.423-1.722 4.944-2.544 7.672-.858 2.847-1.744 5.79-3.663 8.097zm6.285-3.259l-.291-.178c1.606-2.612 2.545-5.61 3.453-8.509l.95-2.937c.085-.001.171.01.257.007.034-.001.07-.005.105-.006-.35 1.012-.67 2.031-.985 3.038-.915 2.919-1.86 5.937-3.488 8.585zm5.799-2.958a11.18 11.18 0 0 0 2.401-4.781l.187-.646c.4-1.335.906-2.656 1.398-3.936l.3-.783a9.34 9.34 0 0 0 .468-.265l-.45 1.173c-.488 1.271-.993 2.586-1.388 3.908l-.187.642a11.51 11.51 0 0 1-2.456 4.891 20.97 20.97 0 0 0-1.237 1.79l-.294-.174c.387-.628.806-1.235 1.256-1.819zm-4.579 6.822l-.301-.162.932-1.735 6.343-14.28c.148-.048.295-.098.441-.152l-6.364 14.328.019.009-.257.528-.021-.01-.793 1.474zm-4.843-18.895a91.36 91.36 0 0 0-6.655 13.633l-.318-.124a91.63 91.63 0 0 1 6.732-13.768c.076.089.161.172.241.259zm-.66 9.215c.323-1.33.658-2.705 1.065-4.03.388-1.242.847-2.461 1.373-3.651l.289.193a34.13 34.13 0 0 0-1.335 3.558c-.404 1.315-.738 2.685-1.061 4.011-.699 2.872-1.422 5.841-2.913 8.45-.594.996-1.242 1.96-1.941 2.886l-2.372 3.266-.276-.201 2.372-3.266c.691-.916 1.332-1.869 1.921-2.854 1.468-2.567 2.185-5.513 2.879-8.362zm-.732-3.235a47.09 47.09 0 0 1 2.152-5.233c.088.077.178.153.268.227-.799 1.664-1.5 3.373-2.099 5.119l-.999 2.947c-.757 2.277-1.54 4.631-2.528 6.865a38.59 38.59 0 0 1-2.606 4.902l-.29-.181c.976-1.555 1.84-3.179 2.583-4.859.982-2.218 1.762-4.565 2.517-6.835l1.001-2.952zm-5.559-8.456c.535-.562 1.079-1.136 1.649-1.686l.238.246c-.566.546-1.108 1.115-1.64 1.676-.867.95-1.788 1.848-2.759 2.69-1.733 1.44-3.741 2.511-5.901 3.15l-.096-.327a16.28 16.28 0 0 0 5.778-3.084 32.63 32.63 0 0 0 2.731-2.665zm-6.213 3.584c1.08-.723 2.013-1.668 2.915-2.583l3.83-3.884.23.253-3.818 3.871c-.914.927-1.86 1.885-2.969 2.628-.922.58-1.891 1.083-2.896 1.502l-1.944.874-.139-.312 1.95-.876c.986-.411 1.936-.904 2.84-1.473zm9.344-3.94c-2.136 1.56-4.189 3.233-6.149 5.011l-.23-.254c1.942-1.761 3.974-3.42 6.087-4.97.094.076.193.144.291.213zm-9.857 3.177c1.983-2.38 4.135-4.613 6.44-6.682.069.09.14.178.212.268-2.286 2.054-4.421 4.271-6.388 6.634l-.263-.22zm5.871-7.538c-1.602 1.513-3.105 3.127-4.499 4.834l-.284.351a15.8 15.8 0 0 1-2.07 2.249c-.556.445-1.142.852-1.752 1.22-.946.599-1.84 1.163-2.507 1.997l-.266-.214c.703-.877 1.664-1.484 2.591-2.072.597-.359 1.17-.758 1.715-1.193.744-.667 1.422-1.404 2.024-2.201l.284-.351a51.63 51.63 0 0 1 4.595-4.931 7.13 7.13 0 0 0 .168.312v-.001zm-.602-1.457a24.78 24.78 0 0 0-2.557 2.421 64.71 64.71 0 0 0-4.292 5.063l-.271-.207a65.22 65.22 0 0 1 4.315-5.091c.844-.923 1.757-1.78 2.731-2.564.022.128.043.256.073.379l.001-.001zm-2.381 26.089c.253-.239.498-.488.747-.733l-.134.609-.379.372c-.9.851-1.891 1.729-3.029 2.379-1.211.692-2.555 1.109-3.855 1.512l-.101-.326c1.282-.398 2.608-.809 3.787-1.482 1.106-.633 2.078-1.495 2.964-2.331zm1.172-2.305a24.59 24.59 0 0 1-5.644 4.952l-.182-.288a24.3 24.3 0 0 0 6.121-5.562 26.14 26.14 0 0 0-.296.897l.001.001zm-4.312 2.203c1.981-1.506 3.486-3.574 4.942-5.574l1.777-2.363-.751 1.541-.75 1.023c-1.471 2.02-2.991 4.107-5.011 5.644-.219.167-.444.327-.668.487a11 11 0 0 0-1.451 1.162l-.242-.241c.464-.441.964-.842 1.495-1.199l.66-.481.001.001zm-4.476 2.377c.803-1.141 1.789-2.159 2.743-3.144 1.103-1.138 2.243-2.315 3.084-3.672.383-.62.712-1.288 1.029-1.934l.474-.946a24.2 24.2 0 0 1 8.571-9.252 2.12 2.12 0 0 0-.225.531 23.88 23.88 0 0 0-8.044 8.879l-.471.938c-.321.654-.654 1.33-1.046 1.963-.861 1.389-2.014 2.579-3.13 3.731-.944.975-1.922 1.984-2.709 3.103l-.278-.197zm7.682-7.97l.508-.757c.325-.488.66-.992 1.016-1.471a33.98 33.98 0 0 1 2.685-3.077l1.757-1.862c-.039.094-.087.183-.123.278l-.376.749-1.01 1.069c-.946.961-1.834 1.979-2.659 3.046a33.03 33.03 0 0 0-1.006 1.458l-.51.76c-1.34 1.937-2.844 3.754-4.496 5.433l-.244-.238a40.72 40.72 0 0 0 4.458-5.388zm9.168-12.343c-.043.047-.082.096-.122.145l-.474.241c-1.158.607-2.339 1.228-3.448 1.956.545-.342 1.118-.67 1.717-1.007a17.42 17.42 0 0 1 2.076-1.03c-.129.17-.248.348-.364.53a22.18 22.18 0 0 0-1.545.797c-1.578.887-2.975 1.716-4.108 2.865-1.23 1.248-2.09 2.839-2.922 4.378-.842 1.56-1.713 3.171-2.975 4.454-.538.525-1.107 1.019-1.703 1.477-.773.619-1.571 1.259-2.193 2.035l-.266-.214c.645-.806 1.459-1.457 2.246-2.088a18.76 18.76 0 0 0 1.672-1.45c1.229-1.248 2.087-2.838 2.919-4.376.564-1.098 1.2-2.158 1.905-3.172-.366.444-.721.896-1.069 1.345-.503.647-1.021 1.315-1.475 2.008l-.324.505a10.5 10.5 0 0 1-1.121 1.558 10.81 10.81 0 0 1-1.087.979c-.597.491-1.162.955-1.53 1.586l-.295-.171c.399-.685 1.014-1.19 1.608-1.679a10.49 10.49 0 0 0 1.052-.947c.406-.469.769-.973 1.084-1.507l.326-.512c.463-.703.987-1.378 1.496-2.034.784-1.066 1.652-2.069 2.595-2.998 1.639-1.529 3.637-2.577 5.57-3.591l.841-.428.117.124c-.07.072-.14.144-.205.221h.001zm23.766 2.251a71.05 71.05 0 0 1-.016-8.987l.398-.671c-.175 2.268-.23 4.544-.164 6.818l.741-7.849.422-.793-.043.423-.996 11.058c.267 4.412.838 8.815 1.4 13.144.554 4.259 1.125 8.661 1.4 12.998l-.341.022c-.272-4.325-.844-8.722-1.397-12.975l-1.216-10.632c-.39 7.482-.186 14.994 1.618 22.33l.495 1.91c.537 2.021 1.092 4.111 1.238 6.237l-.341.024c-.144-2.092-.695-4.166-1.227-6.172l-.497-1.916c-2.02-8.211-2.047-16.626-1.475-24.97l.001.001zm-.959-7.502l.057 6.571c.159-1.744.293-3.498.351-5.232l.028-.993.03-1.01c.025-.048.055-.091.076-.144.103-.162.194-.332.295-.496l-.059 1.657-.028.997c-.098 2.95-.406 5.958-.706 8.867-.037 8.287-.027 16.827 1.578 25.05l-.335.065c-1.385-7.092-1.584-14.409-1.59-21.596-.473 5.165-.703 10.408.458 15.454l-.332.077c-1.436-6.244-.767-12.759-.119-19.06l.001-.001.003-.796-.03-8.946.324-.465.001.001zm4.966 28.072c.853 5.122 1.736 10.418.433 15.468l-.331-.084c1.285-4.981.409-10.241-.439-15.327l-.312-1.896a137.52 137.52 0 0 1-1.395-31.413 27.17 27.17 0 0 0 .68-1.599 45.19 45.19 0 0 0-.051 4.092 47.72 47.72 0 0 1 1.191-5.922 1.37 1.37 0 0 0 .215.539c-.63 2.459-1.067 4.963-1.308 7.489.118 1.909.303 3.813.489 5.694.311 3.152.633 6.41.624 9.611l-.341-.001c.009-3.183-.312-6.433-.623-9.575l-.324-3.473c-.303 5.401.131 11.247 1.309 17.491l.373 1.908c.64 3.221 1.301 6.553 1.126 9.882l-.341-.018c.173-3.287-.484-6.595-1.119-9.797l-.373-1.911c-1.349-7.144-1.724-13.772-1.141-19.815-.067-1.089-.105-2.179-.114-3.27a137.18 137.18 0 0 0 1.46 30.034l.314 1.893zM58.52 140.279c1.599.715 3.238 1.448 4.939 1.964-.042.106-.075.216-.099.327-1.719-.522-3.369-1.26-4.979-1.98l-10.294-4.604c-1.261-.563-2.689-1.203-3.698-2.315l.254-.23c.96 1.059 2.355 1.683 3.584 2.233l10.293 4.605zm-3.017-2.351a58.97 58.97 0 0 0 8.818 2.748l-.182.307a59.07 59.07 0 0 1-8.766-2.739c-2.232-.917-4.412-2.028-6.522-3.102l-8.393-4.275.156-.305 8.393 4.276c2.101 1.071 4.276 2.179 6.496 3.09zm-10.258-5.791l.101-.328c2.721.832 5.409 1.938 8.009 3.009 3.934 1.618 7.989 3.279 12.217 4.011-.078.103-.152.208-.227.312-4.203-.753-8.221-2.402-12.12-4.008-2.593-1.067-5.274-2.17-7.98-2.997l.001.001zm16.403.541c-6.471-.844-12.798-2.554-18.811-5.085l.133-.316a72.38 72.38 0 0 0 18.129 4.98 20.77 20.77 0 0 0 .549.421zm4.611 2.331c-6.73-.622-12.526-1.825-17.639-3.659l.116-.322c4.722 1.694 10.039 2.841 16.135 3.493.454.187.918.35 1.389.489l-.001-.001zm-1.755-.657c-3.176-.643-6.342-1.366-9.451-2.09l-3.461-.839c-4.362-1.135-8.605-2.683-12.672-4.623l.147-.309c4.048 1.931 8.271 3.472 12.611 4.602 1.151.299 2.321.572 3.49.845l8.189 1.835a15.09 15.09 0 0 0 1.149.579h-.001zm-22.264-4.963c5.25 2.375 10.7 4.037 16.289 5.669 2.542.743 5.533 1.609 8.615 1.992-.103.097-.201.202-.3.304-3.015-.402-5.926-1.241-8.411-1.967-5.601-1.636-11.064-3.302-16.334-5.686l-1.658-.767c-2.291-1.073-4.661-2.183-7.163-2.682l.067-.335c2.542.507 4.931 1.626 7.241 2.707l1.654.765zm59.252-1.659c.641 1.017.973 2.28 1.045 3.975.133 3.412-.748 6.787-2.53 9.701a7.57 7.57 0 0 1-1.794 2.115c-1.228.928-2.78 1.194-3.994 1.322-1.017.106-2.341.174-3.56-.259-1.301-.462-2.359-1.449-3.209-2.242-3.137-2.929-6.236-6.149-6.702-10.474-.13-1.21-.401-3.729.595-5.264.918-1.413 2.958-2.152 4.412-2.585 2.099-.627 4.508-.751 7.364-.381 2.694.348 4.704 1.011 6.326 2.085a7.4 7.4 0 0 1 1.639 1.444 5.64 5.64 0 0 1 .408.563zm-13.576 14.112c1.022.954 1.889 1.714 2.971 2.098 1.09.387 2.315.322 3.261.223 1.127-.118 2.561-.361 3.653-1.188.655-.537 1.205-1.19 1.624-1.926 1.712-2.797 2.557-6.038 2.428-9.314-.066-1.571-.365-2.728-.94-3.639a6.21 6.21 0 0 0-1.848-1.803c-1.531-1.014-3.448-1.642-6.036-1.977-2.76-.357-5.076-.241-7.082.358-1.35.402-3.238 1.078-4.033 2.302-.863 1.33-.61 3.686-.489 4.818.264 2.46 1.457 4.567 3.026 6.474a38.33 38.33 0 0 0 3.463 3.574z" fill="#fff"/></g><defs><clipPath id="A"><path fill="#fff" transform="matrix(-.810819 -.585297 .585297 -.810819 92.9114 224.961)" d="M0 0h114.59v194.732H0z"/></clipPath></defs></svg>