<svg xmlns="http://www.w3.org/2000/svg" width="126" height="114" fill="none"  ><g clip-path="url(#A)"><path fill-rule="evenodd" d="M25.518 101.473c.224 3.354.557 7.16 1.429 10.818.033.213.131.411.281.566a1 1 0 0 0 .39.173 1.02 1.02 0 0 0 .426-.004c1.402-.182 2.766-.585 4.041-1.195 5.76-1.866 10.984-6.496 15.933-14.11 1.73-2.664 3.608-5.87 4.402-9.452.842-3.792.261-7.501-1.593-10.173-.232-.327-.488-.637-.764-.927a11.02 11.02 0 0 0-1.746-2.501c2.429-7.144 5.483-14.182 8.442-20.991 1.133-2.61 29.553-81.821 30.676-84.496a1.01 1.01 0 0 1-.359-.357c-1.147 2.732-29.592 82.002-30.749 84.665-2.931 6.75-5.956 13.725-8.38 20.814-.053-.05-.106-.103-.16-.151-.019-1.231-.315-2.686-1.54-3.124-.02-.008-.04-.012-.06-.018 3.686-9.483 34.584-95.607 38.139-105.21l-.401.323a1.33 1.33 0 0 1-.286.175L45.717 70.919c-.891-.072-2.203.297-3.38.633-.555.158-1.081.307-1.465.379-3.17.584-7.192 1.619-10.19 4.439-1.254 1.18-2.355 2.698-3.366 4.64-3.232 6.207-3.84 13.762-1.799 20.463zm5.086 10.382l-.04.087a11.8 11.8 0 0 1-2.573.616c-.152.039-.312.02-.451-.054-.073-.093-.12-.204-.135-.322-.713-2.991-1.06-6.086-1.286-8.952a27.93 27.93 0 0 0 .533 1.282 15.78 15.78 0 0 0 .196 2.686l.232-.038a15.33 15.33 0 0 1-.18-2.099l.039.083.23-.166.493-.364-.028.755c-.042.98-.089 2.092-.412 3.125l.224.071c.332-1.062.38-2.191.422-3.186l.036-.942.64-.475.003.159c-.005 1.941-.382 3.862-1.11 5.659l.218.089c.739-1.826 1.122-3.776 1.128-5.747 0-.111-.005-.223-.008-.335l.558-.422-.015.144-.067.856c-.114 1.482-.23 3.014-.644 4.453-.159.553-.361 1.095-.557 1.618l.221.083c.197-.528.401-1.075.562-1.635.421-1.465.538-3.008.653-4.501l.067-.854c.009-.121.023-.239.035-.359l.963-.755-.005.079c-.107 1.824-.282 3.741-1.124 5.36l.208.109c.863-1.661 1.041-3.606 1.15-5.455l.017-.29.939-.762c-.064.66-.174 1.315-.329 1.96-.224.873-.559 1.962-.912 3.114-.454 1.481-.924 3.012-1.18 4.161l.229.052c.253-1.142.722-2.668 1.175-4.142l.915-3.128c.175-.735.296-1.482.362-2.234l.796-.673c-.203 1.225-.415 2.49-.85 3.667-.167.449-.369.897-.565 1.33-.409.904-.831 1.838-.953 2.841l.234.029c.118-.969.533-1.886.934-2.772.198-.438.403-.889.571-1.347.45-1.214.664-2.509.871-3.762l.039-.23 1.094-.971-.297 1.247c-.074.341-.167.677-.28 1.008-.096.262-.22.52-.339.771l-.201.432c-.208.472-.371.958-.528 1.429l-.944 2.812.223.076.943-2.814c.156-.465.318-.946.52-1.407.063-.144.131-.284.199-.425.122-.258.247-.522.347-.793.116-.339.213-.684.288-1.034l.375-1.58 1.125-1.057c-1.27 4.747-2.941 9.376-4.993 13.839zm21.64-28.387l-.24.694c-1.612 4.73-3.278 9.62-6.135 13.778l.193.133c2.876-4.184 4.547-9.09 6.164-13.835l.064-.187a14.84 14.84 0 0 1-.329 4.116c-.778 3.51-2.63 6.668-4.337 9.297-4.612 7.093-9.45 11.552-14.728 13.574-.052-.015-.103-.033-.152-.053a20.62 20.62 0 0 1-.786.386c-.239.078-.478.159-.719.227a87.45 87.45 0 0 0 5.016-14.228c.18-.179.35-.359.524-.539l-.075.398c-.378 1.642-.853 3.261-1.422 4.847l-1.215 3.601.223.076 1.214-3.603a43.08 43.08 0 0 0 1.431-4.871c.052-.247.093-.498.136-.747l.27-.279-1.866 7.683.228.055 1.967-8.095.959-1.064c-.266 2.005-.559 4.062-1.191 5.999-.799 2.454-2.129 4.705-3.456 6.882.065.046.13.086.199.127 1.333-2.19 2.673-4.457 3.481-6.936.675-2.072.967-4.27 1.247-6.397l.896-1.075c-.31 1.752-.586 3.51-.83 5.272l-.019.144a18.5 18.5 0 0 1-.383 2.182c-.536 2.058-1.752 3.85-2.928 5.582l.195.132c1.188-1.748 2.414-3.557 2.961-5.655.173-.728.303-1.466.389-2.21l.02-.142c.261-1.902.562-3.797.904-5.687l.185-.228.35 1.58c-.275 1.83-.569 3.703-1.013 5.519-.901 3.675-2.277 6.466-4.209 8.531l.172.162c1.958-2.095 3.355-4.921 4.266-8.637.396-1.625.674-3.294.925-4.938l.492 2.153c-.77 2.909-1.69 5.797-3.125 8.429l.206.114c1.377-2.526 2.281-5.28 3.033-8.059l.301 1.295a59.13 59.13 0 0 1-2.252 5.604l.212.101c.81-1.72 1.507-3.504 2.146-5.3l.277-.204c.815-.604 1.59-1.261 2.319-1.968a37.9 37.9 0 0 1-3.415 6.661l.198.129c1.457-2.268 2.675-4.682 3.636-7.203a23.52 23.52 0 0 0 2.749-3.365c-1.136 2.688-2.73 5.174-4.283 7.591l.197.128c1.775-2.758 3.599-5.611 4.746-8.758a23.09 23.09 0 0 0 2.008-4.258c.644-1.781.996-3.655 1.041-5.55a46.69 46.69 0 0 1 .514-1.323l-.121-.329c-.14.341-.27.685-.402 1.03a12.07 12.07 0 0 0-.371-2.682c-.03-.12-.069-.244-.107-.37.809 1.398 1.306 2.954 1.456 4.562h0zm-5.256 5.795c.535-1.123.564-2.391.547-3.698l-.091-3.506c-.08-2.497-.153-5.065-.01-7.603a7.82 7.82 0 0 1 .666.652c-.361 2.853-.398 5.739-.109 8.601l.055.529c.115.846.161 1.699.139 2.552a7.93 7.93 0 0 1-2.152 4.977l.169.163c1.319-1.394 2.104-3.21 2.218-5.127a15.8 15.8 0 0 0-.141-2.59l-.054-.528c-.279-2.774-.251-5.57.084-8.338.262.312.505.639.728.98a18.55 18.55 0 0 0-.43 4.258 29.36 29.36 0 0 0 .098 1.602c.09 1.14.185 2.318-.023 3.448l.231.043c.215-1.161.118-2.357.027-3.512-.041-.521-.085-1.061-.098-1.587-.021-1.332.106-2.662.378-3.966a11.23 11.23 0 0 1 .644 1.208c-.166 1.222-.237 2.455-.212 3.689l-.019 4.393.233.001.02-4.396a26.54 26.54 0 0 1 .161-3.264 9.41 9.41 0 0 1 .396 1.151c.661 2.51.437 5.477-.65 8.576a23.02 23.02 0 0 1-7.708 10.607l-1.66-7.378c-.968-4.553-1.733-8.987-.472-13.166.426-1.417 1.492-3.342 2.968-4.258-2.156 3.521-3.163 7.627-2.881 11.749l.233-.018a19.65 19.65 0 0 1 3.064-11.955c.356-.166.739-.264 1.13-.29-2.225 4.306-3.079 9.182-3.863 14.594l.231.032c.789-5.436 1.648-10.328 3.898-14.63a2.71 2.71 0 0 1 .344.024c.061.009.118.026.176.038-1.221 3.804-1.891 7.786-2.533 11.656l-.508 3.068a27.55 27.55 0 0 0-.467 4.05l.236.003a27.42 27.42 0 0 1 .463-4.014l.51-3.069c.641-3.867 1.311-7.849 2.531-11.642a2.82 2.82 0 0 1 .187.054c-.611 3.412-.921 6.896-1.219 10.282-.283 3.188-.573 6.486-1.114 9.69l.232.041c.541-3.215.834-6.517 1.116-9.709.296-3.368.606-6.834 1.21-10.221.212.079.417.174.615.285-.361 2.164-.303 4.398-.237 6.575l.023.806c.08 2.842.057 5.836-1.058 8.534.054 0 .108.008.16.025.027.01.042.028.067.039 1.122-2.734 1.145-5.746 1.066-8.605l-.023-.806c-.066-2.131-.12-4.318.218-6.431.167.106.327.22.485.342-.16 2.604-.084 5.235-.001 7.793l.089 3.502c.018 1.278-.01 2.517-.523 3.593l.212.101zm.307-15.511c-.412-.306-.866-.552-1.348-.73a4.31 4.31 0 0 0-.801-.204c-.088-.013-.173-.012-.258-.017.346-.463.704-.917 1.07-1.366.953.261 1.261 1.338 1.337 2.316h0zm-1.607-2.363a43.14 43.14 0 0 0-1.078 1.394 3.43 3.43 0 0 0-1.249.26c.395-.534.806-1.058 1.234-1.569a4.32 4.32 0 0 1 1.094-.085h0zm-6.98 1.484l.387-.094a49.74 49.74 0 0 0-4.413 4.659c.428-.624.889-1.225 1.379-1.801.726-.847 1.526-1.645 2.301-2.42l.346-.345zm-10.975 8.354c.986-1.895 2.056-3.373 3.271-4.516.659-.615 1.38-1.159 2.151-1.626a36.18 36.18 0 0 0-5.812 7.979l.207.111a35.94 35.94 0 0 1 6.386-8.539c.754-.399 1.536-.743 2.34-1.029l-.386.402c-.858.736-1.729 1.496-2.54 2.307-2.972 2.97-5.182 6.617-6.441 10.628l.225.071c1.248-3.975 3.438-7.589 6.382-10.533.355-.355.725-.7 1.101-1.038a35.42 35.42 0 0 0-7.86 17.326l.232.034c1.085-6.974 4.238-13.459 9.051-18.613l.36-.309.626-.533a23.22 23.22 0 0 1 1.233-.359l-.06.061c-.778.776-1.583 1.579-2.313 2.433a22.44 22.44 0 0 0-2.556 3.68c-.756 1.007-1.429 2.074-2.012 3.19-1.235 2.405-1.936 5.063-2.614 7.635-.369 1.396-.748 2.84-1.21 4.226l.223.074c.464-1.394.845-2.841 1.214-4.241.675-2.56 1.372-5.207 2.595-7.588a20.76 20.76 0 0 1 .985-1.703 28.92 28.92 0 0 0-2.417 8.366l-.104.791c-.139 1.107-.282 2.252-.66 3.309-.444 1.246-1.194 2.341-1.938 3.338l.188.141c.754-1.013 1.516-2.126 1.971-3.399.386-1.083.532-2.239.671-3.359l.104-.789a27.95 27.95 0 0 1 3.2-9.865 35.39 35.39 0 0 1 1.243-1.592 48.95 48.95 0 0 1 4.78-5.023 40.96 40.96 0 0 1 1.407-.286c.05-.009.106-.021.158-.033-3.765 4.141-8.022 9.601-9.591 16.177-.124.52-.232 1.053-.339 1.567-.272 1.343-.557 2.732-1.133 3.986a18.03 18.03 0 0 1-1.047 1.871c-.506.828-1.031 1.684-1.351 2.622l.223.078c.312-.914.829-1.758 1.329-2.576.39-.611.744-1.244 1.06-1.895.589-1.28.874-2.681 1.149-4.039l.337-1.56c1.587-6.659 5.965-12.178 9.768-16.327.291-.074.609-.163.94-.257-1 1.16-1.939 2.371-2.813 3.629-2.771 3.889-5.778 8.472-6.406 13.678-.045.375-.08.755-.113 1.135-.117 1.322-.238 2.689-.879 3.839a9.12 9.12 0 0 1-.66.979l-.352.491.193.133c.113-.163.23-.323.348-.483a9.72 9.72 0 0 0 .675-1.003c.667-1.196.789-2.588.908-3.935l.111-1.126c.621-5.151 3.612-9.706 6.364-13.571.941-1.355 1.96-2.654 3.054-3.889.441-.123.904-.245 1.342-.339-.456.554-.893 1.123-1.312 1.705-1.718.93-2.944 3.076-3.417 4.651a15.26 15.26 0 0 0-.378 1.551l-1.756 3.345c-1.457 2.825-2.963 5.744-3.657 8.918l.229.052c.686-3.146 2.186-6.052 3.635-8.862l1.43-2.741c-.104.738-.163 1.482-.177 2.227l-1.336 2.585c-.784 1.471-1.492 2.982-2.12 4.527l-.399 1.085c-.26.764-.559 1.513-.898 2.245-.694 1.43-1.693 2.704-2.658 3.938l-2.217 2.832.185.147 2.218-2.832c.971-1.244 1.977-2.528 2.684-3.981a22.87 22.87 0 0 0 .907-2.269l.397-1.078a47.75 47.75 0 0 1 2.11-4.504l1.12-2.172c.009 1.078.082 2.155.219 3.224-.367.817-.702 1.642-1.028 2.454l-1.759 4.382.218.088 1.758-4.382a75.6 75.6 0 0 1 .872-2.079 51.07 51.07 0 0 0 .333 2.068c-.156.407-.316.814-.494 1.214-1.189 2.676-3.112 5.02-4.823 7.007l.177.154c1.722-1.999 3.66-4.36 4.861-7.065.128-.288.246-.581.362-.873l.214 1.096a69.77 69.77 0 0 1-4.129 6.267l.187.142a68.51 68.51 0 0 0 4.011-6.068l.16.761.205.93c-3.197 4.163-7.356 8.053-13.047 12.198-3.298-7.261-3.073-16.125.612-23.201h0zm7.487 12.574c.283-.606.504-1.238.659-1.889l.079-.288a39.35 39.35 0 0 1 2.897-7.306c.009.151.019.3.034.451a38.85 38.85 0 0 0-2.707 6.918l-.079.288c-.156.666-.382 1.314-.674 1.932-.364.647-.798 1.252-1.295 1.804-.612.731-1.188 1.421-1.482 2.281l-.223-.078c.31-.9.927-1.64 1.526-2.354a9.92 9.92 0 0 0 1.265-1.76h0z" fill="#fff"/></g><defs><clipPath id="A"><path fill="#fff" transform="matrix(-.323372 -.946272 .946272 -.323372 27.3577 113.535)" d="M0 0h84.601v103.532H0z"/></clipPath></defs></svg>