<svg width="207" height="225" viewBox="0 0 207 225" fill="none" xmlns="http://www.w3.org/2000/svg">
<g clip-path="url(#clip0)">
<path fill-rule="evenodd" clip-rule="evenodd" d="M64.7116 165.813C64.2506 165.8 63.9114 166.237 63.702 166.648C63.4345 167.174 63.2446 167.818 63.518 168.339C63.8129 168.901 64.5584 169.094 65.1761 168.948C65.7938 168.803 66.5861 168.284 67.0835 167.889L64.7116 165.813ZM75.6911 173.868C75.3707 173.99 75.2651 174.387 75.2384 174.729C75.2058 175.165 75.2597 175.659 75.5966 175.937C75.9592 176.237 76.5248 176.155 76.9061 175.878C77.3174 175.522 77.6576 175.09 77.9087 174.607L75.6911 173.868ZM61.7691 158.885C61.5057 159.265 60.9535 159.277 60.4985 159.201C59.9174 159.103 59.2882 158.873 59.0331 158.342C58.7584 157.771 59.0472 157.055 59.5316 156.645C60.0161 156.234 60.9039 155.905 61.5165 155.739L61.7691 158.885ZM69.8282 169.936C69.1718 169.917 68.6893 170.539 68.3911 171.125C68.0102 171.874 67.7392 172.79 68.1292 173.532C68.5489 174.331 69.6102 174.606 70.4892 174.399C71.3682 174.192 72.4965 173.453 73.2048 172.891L69.8282 169.936ZM61.4228 152.293C60.9149 152.764 60.1023 152.605 59.4613 152.346C58.6422 152.015 57.7952 151.476 57.5928 150.616C57.3747 149.69 58.0278 148.735 58.8694 148.29C59.7109 147.844 61.1166 147.649 62.0671 147.603L61.4228 152.293ZM196.784 60.0967L196.135 59.3077C195.994 59.3046 195.855 59.3419 195.735 59.4153C195.615 59.4887 195.518 59.5951 195.457 59.7219C195.416 59.8232 195.408 59.9344 195.433 60.0405C195.458 60.1467 195.515 60.2426 195.596 60.3154L196.163 59.7205C196.194 59.7539 196.217 59.7943 196.229 59.8383C196.242 59.8824 196.244 59.9288 196.235 59.9737C196.231 60.0053 196.22 60.0357 196.203 60.0628C196.187 60.09 196.164 60.1133 196.138 60.1311C196.102 60.1263 196.068 60.1118 196.04 60.0891C196.011 60.0664 195.99 60.0364 195.977 60.0023C195.977 60.0023 195.976 60.1069 195.718 60.3467C183.099 72.1193 169.365 83.0334 156.085 93.5878C143.139 103.875 129.754 114.514 115.742 123.776C111.143 126.816 106.398 129.759 101.639 132.525L102.051 133.236C106.824 130.463 111.583 127.511 116.195 124.463C130.238 115.18 143.637 104.531 156.596 94.2326C169.89 83.6675 183.635 72.7435 196.279 60.9476C196.543 60.7332 196.722 60.4315 196.784 60.0967ZM202.027 66.4659L160.75 99.1883C150.652 107.193 140.209 115.472 129.077 122.371C126.242 124.129 123.299 125.837 120.451 127.489C113.018 131.802 105.333 136.262 98.7907 142.053L99.3358 142.67C105.816 136.933 113.466 132.494 120.862 128.201C123.715 126.545 126.664 124.834 129.509 123.071C140.682 116.146 151.142 107.852 161.26 99.8329L202.551 67.1021L202.027 66.4659ZM84.9217 139.333C82.2245 140.599 79.6913 142.189 77.3778 144.067C75.6395 145.486 74.0058 147.088 72.4259 148.637C70.686 150.344 68.8859 152.101 66.9344 153.634C66.8557 153.549 66.7696 153.471 66.6769 153.402C68.6333 151.87 70.4403 150.107 72.1867 148.394C73.7722 146.839 75.4114 145.232 77.1614 143.803C79.4734 141.925 82.0034 140.334 84.6964 139.063C84.7717 139.153 84.8463 139.243 84.9217 139.333ZM83.8561 138.025C78.7959 140.206 74.3105 143.533 70.7533 147.743L70.4924 147.523C74.0672 143.298 78.5693 139.956 83.647 137.758C83.7155 137.848 83.7864 137.936 83.8561 138.025ZM86.5311 141.029C80.0189 144.642 73.9824 149.842 68.9638 156.28L68.6939 156.07C73.6997 149.65 79.7121 144.451 86.2028 140.82C86.3047 140.901 86.4147 140.971 86.5311 141.029ZM84.3329 145.822C84.6115 145.67 84.8894 145.517 85.1664 145.363C86.4866 144.625 87.7779 143.833 89.0493 143.009C89.1169 143.109 89.1826 143.203 89.2493 143.285C87.9673 144.117 86.6652 144.916 85.3326 145.661C85.0547 145.816 84.776 145.97 84.4967 146.122C83.5563 146.638 82.5821 147.172 81.6799 147.778C78.9859 149.588 76.8275 152.088 75.4307 155.018L75.1229 154.871C76.5457 151.886 78.7447 149.338 81.4894 147.494C82.4049 146.88 83.3855 146.342 84.3329 145.822ZM87.9364 142.191C87.9565 142.216 87.9785 142.24 87.9977 142.264C88.0529 142.33 88.1121 142.392 88.1749 142.45C87.287 142.929 86.4 143.417 85.5277 143.915C82.118 145.867 77.7844 148.608 74.5143 152.526C74.3019 152.78 74.0943 153.038 73.8869 153.297C73.3593 153.985 72.7866 154.638 72.1726 155.25L71.9381 155.003C72.5408 154.401 73.1032 153.76 73.6217 153.083C73.8302 152.823 74.0388 152.563 74.2528 152.306C77.559 148.348 81.9255 145.584 85.3601 143.62C86.2079 143.133 87.0728 142.658 87.9364 142.191ZM91.9203 144.347C91.0952 145.163 90.2484 146.023 89.3699 146.944C88.2177 148.151 86.9985 149.463 85.884 150.876C85.3797 151.516 84.8892 152.186 84.4149 152.834C83.8027 153.67 83.1695 154.536 82.4955 155.35C80.3449 157.947 77.7089 160.117 75.1592 162.216L74.9423 161.953C77.4794 159.864 80.103 157.704 82.2331 155.133C82.9005 154.326 83.5304 153.465 84.1398 152.632C84.6157 151.982 85.1073 151.309 85.6163 150.665C86.7392 149.241 87.9659 147.922 89.1238 146.708C89.9444 145.847 90.7354 145.044 91.5089 144.278C91.6455 144.306 91.7824 144.33 91.9203 144.347ZM78.6202 163.353L78.4176 163.078C81.7314 160.637 83.9294 156.996 86.055 153.475C86.7657 152.298 87.5003 151.08 88.2664 149.925C89.5711 147.974 91.024 146.126 92.6125 144.397C92.7679 144.4 92.9248 144.394 93.0823 144.387C91.4213 146.171 89.9061 148.087 88.5512 150.114C87.7891 151.263 87.0559 152.477 86.3473 153.651C84.2039 157.201 81.9882 160.872 78.6197 163.354L78.6202 163.353ZM88.6222 167.392C90.8705 163.628 93.4197 159.362 94.1754 154.739C94.3202 153.854 94.4015 152.942 94.4806 152.06C94.4819 152.044 94.4837 152.028 94.4856 152.012C94.0286 153.981 93.4113 155.909 92.6399 157.778C91.8108 159.779 90.9636 161.306 89.9754 162.584C89.1866 163.56 88.3346 164.482 87.425 165.346L83.9797 168.765L83.74 168.522L87.1852 165.103C88.0839 164.25 88.9255 163.339 89.7048 162.375C90.6746 161.122 91.5068 159.62 92.3248 157.647C93.4008 155.049 94.1751 152.336 94.6325 149.561C94.7501 149.882 94.8646 150.203 94.976 150.526C94.9716 150.567 94.9645 150.608 94.9599 150.65C94.9075 151.129 94.8639 151.609 94.8209 152.09C94.7419 152.977 94.6595 153.895 94.5126 154.792C93.7461 159.48 91.1801 163.776 88.9155 167.567L88.6222 167.392ZM80.208 169.326L82.5603 167.258C83.6342 166.313 84.7453 165.336 85.6703 164.222C87.2933 162.269 88.3608 159.887 89.3918 157.582L89.691 156.914C91.047 153.905 92.526 150.942 94.0991 148.027C94.146 148.178 94.195 148.328 94.246 148.478C92.7349 151.293 91.3107 154.152 90.0025 157.055L89.7025 157.72C88.6611 160.047 87.5843 162.451 85.9321 164.439C84.9895 165.574 83.8688 166.56 82.7842 167.513L80.4318 169.581L80.208 169.326ZM82.7368 136.445C82.8007 136.547 82.8636 136.65 82.9298 136.751C81.8024 137.121 80.6819 137.522 79.5897 137.994C74.5068 140.189 70.5268 143.369 68.0795 147.19L67.7912 147.006C70.2762 143.127 74.309 139.902 79.4546 137.68C80.5296 137.216 81.6293 136.812 82.7368 136.445ZM105.634 174.721C106.704 171.074 107.179 168.103 107.128 165.371C107.028 159.979 104.847 154.874 102.737 149.937C101.527 147.108 100.299 144.213 99.4352 141.233C99.5231 141.116 99.613 141.003 99.7003 140.877C100.561 143.93 101.811 146.902 103.051 149.802C105.174 154.769 107.369 159.905 107.471 165.364C107.522 168.132 107.042 171.135 105.962 174.817L105.634 174.721ZM103.602 167.29C103.534 167.302 103.467 167.318 103.401 167.339C104.078 162.375 103.004 157.391 101.824 153.107C101.477 151.847 101.099 150.57 100.734 149.335C100.028 146.951 99.3113 144.516 98.7667 142.042C98.865 141.937 98.9608 141.824 99.0568 141.712C99.6044 144.262 100.334 146.778 101.062 149.237C101.428 150.474 101.806 151.753 102.154 153.015C103.335 157.305 104.41 162.295 103.753 167.286C103.702 167.288 103.653 167.284 103.602 167.29ZM109.025 168.685C108.988 166.317 108.488 163.929 107.952 161.702C106.478 155.58 104.504 149.589 102.051 143.79L101.876 143.38C101.633 142.811 101.389 142.233 101.162 141.649C101.332 141.767 101.501 141.89 101.671 142.007C101.84 142.424 102.016 142.836 102.19 143.245L102.365 143.658C104.826 149.473 106.806 155.481 108.284 161.622C108.824 163.868 109.329 166.277 109.366 168.68C109.402 170.998 109.01 173.312 108.631 175.549L108.291 175.52L108.294 175.273L108.331 175.274C108.697 173.119 109.059 170.897 109.025 168.685ZM110.042 156.82C111.935 161.65 113.855 167.368 113.747 173.167L113.406 173.161C113.513 167.422 111.604 161.744 109.725 156.946C109.283 155.819 108.825 154.696 108.368 153.572C107.116 150.491 105.833 147.329 104.871 144.081C105.017 144.171 105.161 144.261 105.307 144.351C106.252 147.455 107.482 150.486 108.684 153.443C109.142 154.568 109.599 155.692 110.042 156.82ZM101.4 163.468C101.315 158.669 100.703 153.895 99.5748 149.23C99.2739 147.987 98.9299 146.726 98.5967 145.508C98.3556 144.627 98.118 143.736 97.8885 142.84C97.9867 142.763 98.0876 142.69 98.1819 142.608C98.4215 143.552 98.6734 144.49 98.9262 145.418C99.2593 146.639 99.6043 147.901 99.9066 149.15C101.016 153.737 101.628 158.43 101.734 163.148L101.748 163.149L101.74 163.47L101.4 163.468ZM111.368 168.542C110.943 161.806 108.312 155.394 105.77 149.19C105.065 147.472 104.336 145.695 103.666 143.94C103.559 143.66 103.459 143.392 103.363 143.127C103.525 143.233 103.684 143.341 103.847 143.445C103.894 143.57 103.937 143.688 103.986 143.816C104.654 145.568 105.382 147.343 106.086 149.059C108.64 155.287 111.281 161.727 111.711 168.518C111.955 172.339 111.492 176.173 110.345 179.827L110.019 179.725C111.153 176.112 111.61 172.321 111.369 168.543L111.368 168.542ZM100.041 159.797C99.9512 155.071 98.8292 150.376 97.7453 145.836C97.5479 145.01 97.3526 144.176 97.1597 143.336C97.2635 143.274 97.3687 143.214 97.4679 143.148C97.6677 144.023 97.8706 144.892 98.0767 145.756C99.1656 150.314 100.291 155.027 100.382 159.79L100.041 159.797ZM114.312 176.21C115.42 173.07 115.018 169.597 114.478 166.614C113.796 162.794 112.752 159.048 111.361 155.426C110.893 154.219 110.375 153.005 109.873 151.83C109.051 149.906 108.225 147.931 107.57 145.903C107.587 145.919 107.601 145.937 107.618 145.952C107.776 146.089 107.927 146.233 108.081 146.374C108.698 148.188 109.446 149.962 110.187 151.696C110.69 152.873 111.21 154.09 111.679 155.303C113.078 158.945 114.127 162.712 114.814 166.553C115.361 169.58 115.768 173.108 114.633 176.324L114.312 176.21ZM95.1736 144.198C95.4308 145.107 95.6294 146.031 95.768 146.965L95.4297 147.013C95.2937 146.097 95.0992 145.192 94.8475 144.302C94.9621 144.27 95.067 144.234 95.1736 144.198ZM96.4322 143.718C97.2298 147.12 98.0434 150.634 98.1105 154.182L97.7686 154.189C97.7033 150.7 96.9035 147.226 96.1141 143.862C96.2243 143.817 96.3268 143.766 96.4322 143.718ZM81.9703 149.375C82.9155 148.627 83.9286 147.943 84.9078 147.28L85.6077 146.805C87.0233 145.839 88.4159 144.824 89.7984 143.798C89.875 143.855 89.952 143.911 90.0418 143.972C90.1616 144.052 90.2903 144.118 90.4252 144.168C88.4361 146.153 86.5308 148.22 84.6654 150.268C83.9051 151.103 83.146 151.937 82.3816 152.764C80.9499 154.313 79.4079 155.936 77.6647 157.298C76.4751 158.195 75.2414 159.032 73.9681 159.805L69.0272 162.921L68.8459 162.631L73.7868 159.516C75.0171 158.74 76.2881 157.939 77.4547 157.028C79.1776 155.684 80.7093 154.07 82.1313 152.532C82.8952 151.706 83.6534 150.873 84.413 150.038C86.2389 148.034 88.0973 146.004 90.0393 144.053C88.6429 145.089 87.2303 146.111 85.8006 147.087L85.0996 147.562C84.1254 148.22 83.1183 148.902 82.1825 149.642C80.7962 150.779 79.472 151.991 78.2154 153.271C75.9485 155.498 73.6047 157.803 70.6671 159.13L70.5258 158.819C73.4075 157.517 75.7297 155.234 77.9756 153.026C79.2407 151.738 80.5742 150.519 81.9703 149.375ZM83.1041 165.185L82.9015 164.909C84.6765 163.599 86.1523 161.672 87.4137 159.016C88.1277 157.514 88.7111 155.922 89.2747 154.382C89.5654 153.589 89.8655 152.769 90.1802 151.97C90.8931 150.172 91.7036 148.413 92.6082 146.703C90.1066 149.874 87.739 153.647 85.4295 158.138L85.3009 158.388C84.7429 159.474 84.1667 160.598 83.3827 161.566C82.6924 162.37 81.9329 163.111 81.113 163.782L77.0804 167.278L76.8571 167.02L80.892 163.521C81.6957 162.864 82.4405 162.137 83.1177 161.35C83.8786 160.41 84.4475 159.302 84.9974 158.231L85.1263 157.981C87.7629 152.854 90.4769 148.655 93.3805 145.219C93.4278 145.387 93.4735 145.555 93.5327 145.72C92.3794 147.774 91.3655 149.904 90.498 152.094C90.1847 152.889 89.885 153.707 89.595 154.498C89.0289 156.045 88.4433 157.645 87.7228 159.161C86.4365 161.87 84.9257 163.84 83.1041 165.185ZM109.343 184.545C108.49 184.597 107.64 184.396 106.9 183.967C105.539 183.136 104.955 181.604 104.428 179.976L99.9096 166.025C99.0315 163.314 98.0996 160.558 97.1979 157.892C95.7128 153.501 94.196 148.987 92.8408 144.465C93.0751 144.451 93.3054 144.428 93.5346 144.401C94.8759 148.868 96.3753 153.33 97.8446 157.672C98.747 160.34 99.6804 163.098 100.559 165.814L105.078 179.764C105.431 180.857 105.809 181.899 106.435 182.659C106.666 182.945 106.944 183.19 107.256 183.383C107.883 183.739 108.599 183.906 109.319 183.862C111.766 183.768 113.671 181.903 114.636 180.189C115.8 178.125 116.183 175.658 116.45 173.508C117.004 169.054 117.407 163.266 115.588 157.991C114.166 153.864 111.395 149.983 107.355 146.451C104.893 144.299 102.189 142.482 99.6652 140.926C99.7914 140.746 99.917 140.551 100.042 140.354C102.586 141.924 105.313 143.759 107.804 145.937C109.239 147.181 110.57 148.541 111.782 150.003C113.719 152.303 115.227 154.934 116.234 157.768C118.098 163.174 117.691 169.064 117.128 173.591C116.852 175.806 116.456 178.351 115.231 180.525C113.882 182.917 111.626 184.457 109.343 184.545L109.343 184.545ZM74.7743 173.924C72.8953 173.153 71.342 171.854 69.8396 170.597L64.9002 166.466C64.1993 165.881 63.4051 165.218 62.8865 164.35C62.2565 163.298 62.086 162.033 61.9487 161.016C61.2531 155.854 60.6511 149.883 62.3268 144.345C64.1581 138.295 68.6931 133.854 73.8796 133.03C77.187 132.505 79.4421 133.677 81.8287 134.918C81.9037 134.957 81.981 134.997 82.0574 135.036C82.0853 135.217 82.1421 135.393 82.2256 135.556C82.263 135.628 82.3041 135.697 82.3424 135.769C82.3632 135.841 82.3854 135.913 82.406 135.985C82.1036 135.832 81.8069 135.678 81.5126 135.525C79.2277 134.338 77.07 133.216 73.9844 133.705C69.0548 134.488 64.735 138.742 62.9794 144.542C61.3435 149.949 61.9381 155.834 62.6245 160.925C62.7532 161.878 62.9136 163.066 63.4708 163.998C63.5867 164.19 63.7167 164.372 63.8597 164.545C64.3083 165.055 64.803 165.523 65.3375 165.942L70.277 170.073C71.7392 171.296 73.2514 172.561 75.0327 173.292C79.6952 175.204 84.9809 172.914 88.1515 169.797C91.5569 166.45 93.5362 161.933 95.4275 157.209C95.8173 156.236 96.1834 155.295 96.5111 154.368C96.5657 154.694 96.7068 154.998 96.9196 155.25C96.6513 155.975 96.363 156.709 96.0616 157.462C94.1425 162.257 92.1297 166.845 88.6293 170.285C85.2992 173.558 79.722 175.953 74.7736 173.924L74.7743 173.924ZM100.649 213.961C99.6138 214.549 98.138 213.192 97.0682 211.928C96.3147 211.179 95.6095 209.98 94.969 208.823C93.5897 206.299 92.4919 203.632 91.6953 200.868C90.2209 195.833 89.5299 190.32 89.5822 184.018C89.6321 178.196 90.293 172.332 90.9593 166.64C91.0789 166.527 91.1802 166.395 91.2595 166.251C91.3063 166.16 91.3616 166.074 91.4102 165.984C91.4548 165.915 91.4954 165.843 91.532 165.769C91.622 165.608 91.7095 165.447 91.8032 165.289C91.7778 165.505 91.7538 165.723 91.7284 165.939C91.0347 171.855 90.3166 177.972 90.266 184.023C90.2131 190.257 90.8953 195.705 92.3507 200.675C93.133 203.391 94.211 206.012 95.5654 208.491C96.0412 209.393 96.5918 210.253 97.2117 211.062C97.6788 211.629 98.1647 212.04 98.5769 211.993C99.0129 211.944 99.4337 211.298 99.7629 210.172C100.074 209.105 99.9801 207.951 99.8883 206.835L95.9674 159.24L96.6487 159.183L100.569 206.777C100.661 207.9 100.765 209.173 100.418 210.362C100.003 211.782 99.4486 212.536 98.7258 212.661C99.4281 213.275 100.003 213.542 100.314 213.366C100.662 213.17 100.87 212.758 101.089 212.281C104.974 203.772 109.362 194.14 109.863 184.154C110.097 184.163 110.331 184.131 110.554 184.057C110.078 194.222 105.637 203.963 101.709 212.564C101.502 213.018 101.218 213.638 100.649 213.961ZM69.4272 169.596C69.4401 169.608 69.4521 169.618 69.465 169.63C69.5897 169.766 69.7316 169.886 69.8872 169.986C69.1234 171.348 68.2969 172.685 67.4832 173.978C66.5285 175.495 65.542 177.063 64.6854 178.663C61.315 185.017 59.7647 192.177 60.2057 199.352C60.1991 199.542 60.2419 199.73 60.33 199.897C60.4616 200.065 60.7419 200.14 61.2104 200.118C64.5701 199.957 67.9547 198.31 71.8614 194.935C79.1659 188.609 84.4409 180.267 87.0242 170.956C87.3264 170.768 87.615 170.559 87.8879 170.331C85.3613 180.09 79.9274 188.851 72.308 195.452C68.2787 198.933 64.7626 200.633 61.2421 200.801C60.7853 200.823 60.155 200.807 59.7769 200.299C59.609 200.029 59.5215 199.716 59.5244 199.398C59.0756 192.095 60.653 184.808 64.0825 178.342C64.9511 176.72 65.9442 175.142 66.9049 173.615C67.7412 172.287 68.5933 170.913 69.3693 169.52C69.391 169.544 69.4033 169.572 69.4272 169.596ZM84.0873 125.159C81.5819 119.203 77.6513 113.955 72.6411 109.876C71.1557 108.632 69.528 107.569 67.792 106.709C61.9195 103.909 55.0937 104.532 48.6048 105.41C46.6233 105.678 44.8694 105.981 43.4753 106.982C43.1066 107.246 42.4942 107.787 42.5314 108.441C42.5813 108.771 42.7002 109.087 42.8804 109.368C46.2413 115.578 50.323 122.65 56.2396 127.981C59.8512 131.236 64.1092 133.772 68.3865 135.874L68.3602 135.887C68.1344 135.996 67.9296 136.144 67.7554 136.325C63.5433 134.232 59.3582 131.712 55.7826 128.49C49.7836 123.086 45.6674 115.954 42.2793 109.695C42.048 109.327 41.901 108.912 41.849 108.48C41.8084 107.754 42.2442 107.025 43.0777 106.427C44.5995 105.334 46.4405 105.013 48.514 104.733C55.1057 103.841 62.0454 103.211 68.0867 106.092C69.8712 106.975 71.5446 108.067 73.0717 109.345C75.131 111.02 77.0175 112.896 78.7032 114.947C79.3641 115.75 79.9964 116.58 80.6002 117.438C82.2546 119.803 83.65 122.339 84.7625 125.003C84.5323 125.03 84.3058 125.083 84.0872 125.16L84.0873 125.159ZM46.3218 115.846C39.808 116.353 32.7412 117.841 26.9436 121.996C26.4456 122.352 26.3453 122.559 26.3269 122.644C26.3488 122.69 26.3733 122.742 26.3991 122.801C26.7803 123.15 28.432 123.359 29.0113 123.432C29.2947 123.468 29.542 123.5 29.7232 123.533C31.8097 123.904 34.2823 124.353 36.803 124.86C42.282 125.962 46.7218 127.075 50.7748 128.362C51.3973 128.56 52.0179 128.764 52.6386 128.969C54.5791 129.608 56.5857 130.269 58.6077 130.703C58.7946 130.743 58.9848 130.773 59.1728 130.81C59.2911 130.963 59.4351 131.095 59.5984 131.199C59.9211 131.403 60.2326 131.583 60.5426 131.744C59.8458 131.637 59.1501 131.519 58.4623 131.371C56.4059 130.929 54.3816 130.263 52.424 129.618C51.8055 129.414 51.187 129.21 50.5675 129.014C46.539 127.734 42.1218 126.626 36.6683 125.53C34.1535 125.024 31.6857 124.576 29.6027 124.204C29.4294 124.173 29.1929 124.144 28.9234 124.109C28.3171 124.042 27.7149 123.942 27.1196 123.809C34.7701 129.425 42.8753 134.392 51.3512 138.661C54.9634 140.48 58.904 142.278 63.0284 143.509C62.9422 143.723 62.8935 143.95 62.8844 144.18C58.696 142.934 54.7023 141.113 51.0427 139.272C42.4011 134.919 34.1436 129.843 26.3584 124.098C26.1566 123.953 26.013 123.634 25.8271 123.202C25.82 123.185 25.813 123.168 25.8055 123.152C25.7375 123.064 25.6884 122.963 25.6613 122.856C25.4946 122.193 26.2853 121.625 26.5453 121.439C32.387 117.253 39.4547 115.722 45.9885 115.186C46.0627 115.423 46.1753 115.646 46.3216 115.847L46.3218 115.846ZM26.5702 136.575C26.8276 136.843 27.14 137.052 27.486 137.188C37.706 141.853 48.6355 144.774 59.8222 145.832C60.667 145.912 61.5191 145.979 62.373 146.02C62.2726 146.215 62.2009 146.422 62.1602 146.637C62.157 146.656 62.1536 146.675 62.1505 146.694C61.3481 146.652 60.5483 146.588 59.7563 146.513C48.4941 145.448 37.4908 142.507 27.2019 137.81C26.8276 137.64 25.6888 137.122 25.7183 136.122C25.7383 135.426 26.3228 134.955 26.8302 134.622C29.6494 132.783 32.7252 131.371 35.9573 130.433C36.0281 130.497 36.1044 130.555 36.1855 130.605C36.3769 130.72 36.5745 130.824 36.7774 130.917C33.3819 131.831 30.1511 133.274 27.2038 135.194C26.8126 135.45 26.412 135.762 26.401 136.14C26.4014 136.301 26.4616 136.457 26.57 136.576L26.5702 136.575ZM51.9991 171.831C51.9472 171.829 51.8947 171.83 51.8424 171.827C44.659 171.425 37.6943 168.899 32.2297 164.712C31.775 164.365 31.3157 163.98 31.1123 163.407C30.9877 162.979 30.96 162.529 31.0314 162.089C31.8011 154.585 35.1933 147.59 40.6107 142.337C40.745 142.4 40.8869 142.446 41.0328 142.474L41.3842 142.54C35.9115 147.707 32.478 154.67 31.7108 162.156C31.6521 162.496 31.6673 162.844 31.7555 163.178C31.8947 163.572 32.2709 163.884 32.6445 164.17C38.0028 168.274 44.8352 170.749 51.8827 171.145C52.12 171.158 52.3587 171.157 52.5961 171.165C52.3382 171.326 52.1312 171.557 51.9991 171.831ZM60.9811 174.337C59.1256 174.81 57.295 175.405 55.5085 175.986C55.283 176.06 54.8442 176.245 54.3366 176.461C52.5493 177.219 51.0702 177.814 50.2207 177.824C50.2748 177.89 50.3327 177.953 50.3941 178.012C51.0429 178.635 52.0543 178.79 52.9503 178.885C54.3257 179.031 55.7078 179.107 57.0911 179.113C56.9278 179.342 56.7713 179.562 56.6147 179.783C55.3639 179.763 54.1151 179.698 52.8777 179.564C51.8699 179.456 50.7268 179.277 49.9226 178.505C49.678 178.271 49.4791 177.994 49.336 177.687C49.336 177.687 49.1417 177.178 49.0582 176.873C48.7587 175.776 49.4754 174.196 49.8705 173.603C50.4413 172.746 51.1946 172.044 51.9232 171.365C52.3727 170.947 52.8374 170.514 53.2447 170.056C54.026 169.178 54.6569 168.14 55.267 167.137C55.8709 166.074 56.5692 165.067 57.3534 164.128C58.775 162.587 60.4662 161.318 62.3436 160.384C62.3423 160.61 62.3747 160.834 62.4397 161.05C62.4443 161.065 62.4511 161.079 62.4559 161.093C60.7313 161.976 59.1765 163.157 57.8637 164.582C57.0865 165.458 56.4578 166.492 55.8501 167.492C55.2241 168.521 54.5771 169.586 53.7548 170.51C53.3253 170.993 52.8491 171.436 52.3876 171.866C51.6559 172.547 50.9646 173.191 50.4386 173.982C50.0149 174.618 49.5156 175.949 49.7175 176.691C49.7421 176.792 49.788 176.887 49.8522 176.969C49.9067 177.035 49.975 177.088 50.0523 177.124C50.5082 177.343 53.0054 176.285 54.0704 175.831C54.615 175.601 55.0444 175.418 55.299 175.336C57.491 174.622 59.7534 173.898 62.0592 173.386C61.693 173.681 61.3319 173.993 60.9811 174.337ZM52.168 194.811C51.4384 194.761 50.4185 194.603 49.9787 193.778C49.8315 193.503 49.8878 193.089 49.9884 192.623C49.9128 192.167 49.9683 191.567 50.1517 190.768C51.1165 186.629 53.1187 182.803 55.9698 179.651C56.5541 179.001 57.1561 178.296 57.7766 177.569C60.0052 174.959 62.5312 172.001 65.2989 170.417C66.4464 169.774 67.7082 169.362 69.0134 169.204C69.0398 169.242 69.0604 169.285 69.09 169.321L69.3069 169.584C69.3791 169.671 69.4596 169.752 69.5471 169.823C68.1729 169.927 66.8381 170.332 65.6381 171.011C62.9737 172.535 60.4884 175.445 58.2956 178.013C57.6717 178.744 57.0655 179.455 56.4777 180.107C53.705 183.173 51.7572 186.894 50.8177 190.919C50.6758 191.424 50.6215 191.95 50.6572 192.473C50.668 192.506 50.6742 192.54 50.6757 192.575C50.6993 192.703 50.7569 192.823 50.8424 192.922C51.1215 193.225 51.8027 193.28 53.0526 193.098C54.7626 192.849 56.5516 192.016 58.2262 190.687C59.2055 189.888 60.1206 189.012 60.9629 188.069C60.9454 188.126 60.9214 188.179 60.9053 188.236C60.8148 188.583 60.7612 188.937 60.7455 189.295C60.0892 189.982 59.3892 190.626 58.6498 191.223C56.8804 192.626 54.9786 193.508 53.1494 193.774C52.0094 193.94 51.2671 193.92 50.7721 193.695C51.0469 193.941 51.5163 194.081 52.2162 194.128C54.8632 194.3 57.521 194.04 60.0851 193.357C60.0392 193.589 59.9935 193.821 59.9671 194.063C59.9658 194.075 59.967 194.086 59.9659 194.098C57.4195 194.743 54.7883 194.983 52.168 194.811ZM80.1561 134.611C80.1693 134.623 80.1851 134.632 80.1977 134.645C77.021 135.081 73.8454 135.696 71.1685 137.413C68.4417 139.175 66.4914 141.913 65.7173 145.066L65.3849 144.986C66.1803 141.747 68.184 138.935 70.9852 137.125C73.652 135.415 76.7769 134.78 79.9102 134.341C79.9843 134.438 80.0667 134.528 80.1561 134.611ZM69.3619 141.59L69.101 141.37C71.5874 138.426 74.9649 136.373 78.7214 135.521C79.4249 135.363 80.1407 135.25 80.8555 135.157C81.0017 135.257 81.1489 135.355 81.3025 135.446C80.4605 135.54 79.6236 135.677 78.7952 135.855C75.1116 136.69 71.8 138.703 69.3619 141.59ZM72.0991 133.989C71.9715 134.039 71.8452 134.097 71.7188 134.153C69.5539 132.843 67.1862 131.834 64.8767 130.854C61.658 129.489 58.3287 128.075 55.569 125.849L55.7833 125.582C58.5051 127.779 61.8131 129.182 65.0105 130.539C67.4037 131.556 69.8593 132.605 72.0991 133.989ZM70.1378 135.078C66.5978 133.284 63.0625 131.404 59.6086 129.467L59.7761 129.169C63.2776 131.133 66.8628 133.038 70.4529 134.854C70.3476 134.924 70.2428 135.002 70.1378 135.078ZM67.946 127.766C66.864 127.187 65.7453 126.59 64.6783 125.939C60.685 123.506 57.2054 120.198 54.3286 117.283L54.5719 117.042C57.4344 119.942 60.8951 123.233 64.8565 125.647C65.9156 126.293 67.0302 126.888 68.1075 127.464C68.9344 127.906 69.7897 128.362 70.6166 128.84C73.1201 130.328 75.525 131.976 77.8162 133.774C77.5513 133.707 77.2867 133.65 77.0252 133.601C74.9266 131.978 72.7293 130.487 70.4462 129.136C69.6241 128.662 68.7714 128.207 67.946 127.766ZM58.6736 119.106L58.8383 118.806C63.222 121.24 67.7543 123.758 71.9037 126.733C75.5232 129.328 78.4642 131.999 80.8285 134.834C80.5998 134.74 80.371 134.646 80.1386 134.555C77.8667 131.927 75.0866 129.436 71.7051 127.011C67.5723 124.048 63.0491 121.536 58.6745 119.106L58.6736 119.106ZM82.0375 134.8C81.388 133.918 80.6937 133.07 79.9575 132.26C77.4 129.453 74.4145 127.133 71.5751 124.998C67.3069 121.787 62.6471 118.462 57.498 115.906L57.6509 115.6C62.8243 118.169 67.4994 121.503 71.7809 124.724C74.6324 126.87 77.6325 129.201 80.2103 132.028C80.5886 132.444 80.9567 132.869 81.3146 133.303C81.4822 133.507 81.6397 133.719 81.8019 133.927C81.8783 134.196 81.9568 134.464 82.0373 134.732C82.0372 134.755 82.0378 134.778 82.0384 134.8L82.0375 134.8ZM81.1717 130.423C81.1807 130.805 81.2131 131.187 81.2686 131.565C73.9524 122.463 63.6328 115.28 51.2666 110.699L51.3852 110.379C62.9988 114.681 72.8139 121.278 80.0509 129.589C78.0001 127.096 75.8693 124.644 73.6995 122.183C72.7843 121.145 71.7472 119.97 70.6476 118.929C68.8727 117.247 66.7384 115.708 64.1217 114.224C61.8377 112.928 59.4519 111.821 56.9879 110.912L57.1062 110.591C59.5876 111.507 61.9904 112.622 64.2907 113.927C66.9313 115.424 69.0877 116.98 70.8826 118.68C71.9933 119.732 73.0363 120.914 73.9551 121.957C76.1116 124.403 78.2343 126.837 80.2746 129.315C80.5787 129.682 80.8742 130.053 81.1725 130.423L81.1717 130.423ZM75.8496 116.021C77.0928 117.531 78.217 119.123 79.2643 120.657C80.1814 122.001 81.1435 123.452 81.967 124.958C82.1905 125.366 82.4003 125.785 82.6076 126.204C82.5276 126.296 82.4498 126.394 82.3735 126.496C82.1468 126.032 81.9139 125.572 81.6676 125.121C80.8515 123.629 79.8945 122.187 78.9824 120.85C77.5212 118.708 75.9092 116.455 74.0371 114.479C70.6012 110.86 66.3099 108.164 61.558 106.639L61.6621 106.313C66.4687 107.856 70.8094 110.583 74.2847 114.244C74.8288 114.817 75.3495 115.412 75.8508 116.021L75.8496 116.021ZM73.7576 118.328C74.5739 119.32 75.3459 120.342 76.1068 121.349C77.8727 123.689 79.6608 126.063 81.4023 128.486C81.3621 128.631 81.3282 128.777 81.2991 128.923C79.5039 126.42 77.6557 123.97 75.8327 121.555C74.1938 119.385 72.4986 117.138 70.4329 115.308C68.1437 113.279 65.4904 111.791 62.213 110.182L62.3633 109.875C65.6669 111.497 68.3421 112.998 70.6594 115.051C71.7763 116.061 72.8126 117.157 73.7589 118.329L73.7576 118.328ZM83.0181 125.794C82.9992 125.755 82.9838 125.713 82.9652 125.673C80.4547 120.265 76.727 115.038 71.5686 109.687L71.8142 109.449C73.2752 110.964 74.6236 112.471 75.8592 113.971C79.0146 117.803 81.4604 121.619 83.275 125.528C83.2822 125.544 83.2881 125.561 83.2956 125.576C83.2024 125.644 83.1102 125.716 83.0193 125.795L83.0181 125.794ZM64.0369 127.911C64.8269 128.226 65.6438 128.552 66.4393 128.894C69.3296 130.139 72.0932 131.66 74.6922 133.434C74.5131 133.444 74.3342 133.459 74.1556 133.479C71.6744 131.818 69.0455 130.387 66.3022 129.207C65.5115 128.867 64.6962 128.542 63.9081 128.228C62.4311 127.639 60.9038 127.03 59.4614 126.293C57.9735 125.532 56.5615 124.631 55.2442 123.602L55.4552 123.333C56.7549 124.348 58.1485 125.237 59.617 125.988C61.0488 126.718 62.5685 127.325 64.0381 127.911L64.0369 127.911ZM61.1292 125.306C63.1207 126.519 65.2641 127.549 67.3365 128.545L67.8714 128.802C70.8795 130.251 73.8079 131.728 76.4964 133.516C76.2513 133.482 76.0074 133.458 75.7646 133.442C73.2422 131.823 70.5169 130.456 67.7232 129.109L67.1881 128.852C65.1087 127.852 62.9579 126.818 60.9516 125.597C59.1991 124.526 57.5367 123.315 55.9808 121.975C54.6487 120.831 53.3932 119.601 52.2224 118.292L52.478 118.064C53.6388 119.36 54.8833 120.58 56.2034 121.714C57.7457 123.044 59.3937 124.245 61.1311 125.307L61.1292 125.306ZM61.9362 147.599C57.5853 149.229 53.4488 151.482 49.4263 153.687C46.1751 155.468 42.8125 157.31 39.3655 158.805L39.2305 158.492C42.6645 157.004 46.0192 155.165 49.263 153.388C53.3372 151.155 57.5275 148.871 61.9486 147.23C61.9454 147.353 61.9416 147.476 61.9374 147.599L61.9362 147.599ZM43.948 143.156C43.9702 143.175 43.9957 143.191 44.0192 143.208C43.3073 143.793 42.6038 144.381 41.9191 144.957L38.52 147.822L38.2998 147.561L41.6991 144.697C42.3438 144.153 43.0029 143.601 43.6716 143.05C43.7646 143.084 43.8575 143.126 43.9492 143.156L43.948 143.156ZM48.3946 147.846C49.065 147.349 49.7582 146.836 50.4651 146.362C51.0016 146.004 51.5512 145.665 52.114 145.347C52.2987 145.377 52.482 145.406 52.6653 145.435C51.9773 145.81 51.3045 146.212 50.6544 146.648C49.955 147.117 49.2647 147.628 48.5972 148.122C48.0287 148.543 47.4404 148.979 46.8463 149.388C43.7213 151.545 40.2324 153.118 36.5483 154.031L36.4668 153.699C40.1109 152.796 43.5619 151.24 46.653 149.107C47.2435 148.699 47.8282 148.266 48.3946 147.846ZM61.8908 148.997C57.7043 150.403 53.6751 152.241 49.8685 154.482C48.36 155.379 46.8608 156.362 45.4111 157.312C42.2507 159.383 38.9829 161.526 35.402 162.914L35.2796 162.595C38.8263 161.22 42.0785 159.088 45.2241 157.026C46.677 156.073 48.1793 155.089 49.6941 154.189C53.5585 151.914 57.6507 150.051 61.9035 148.632L61.8908 148.997ZM46.3399 144.104C42.7519 145.907 39.5357 148.372 36.8601 151.367L36.6044 151.141C39.2286 148.201 42.3695 145.768 45.8711 143.962C46.0251 144.012 46.1834 144.057 46.3399 144.104ZM49.3423 149.218C51.2846 147.98 53.2957 146.853 55.3657 145.843L55.9712 145.936C53.7492 146.989 51.5958 148.182 49.5237 149.507C48.4898 150.153 47.4648 150.818 46.4391 151.481C43.1444 153.613 39.7374 155.817 36.0793 157.408L35.9445 157.095C39.5764 155.516 42.9717 153.319 46.2547 151.195C47.2806 150.53 48.3079 149.865 49.3423 149.218ZM39.6588 152.192L39.4075 151.96C42.1582 149.009 45.418 146.578 49.0304 144.783C49.2062 144.82 49.3802 144.86 49.5566 144.895C45.8333 146.692 42.477 149.166 39.6588 152.192ZM59.3419 146.348C59.5998 146.367 59.8569 146.381 60.1151 146.39C56.7522 147.817 53.5449 149.656 50.415 151.463C46.5682 153.683 42.591 155.979 38.3521 157.481L38.2395 157.159C42.4479 155.668 46.4117 153.38 50.2449 151.167C53.1853 149.471 56.1945 147.74 59.3419 146.348ZM61.8625 149.799C61.8579 149.923 61.854 150.047 61.8496 150.17C59.3032 151.136 56.8367 152.301 54.4732 153.654C49.5532 156.445 44.9696 159.912 40.5368 163.264L40.3312 162.992C44.7732 159.633 49.3648 156.159 54.3049 153.357C56.7245 151.971 59.2521 150.78 61.8625 149.799ZM53.5206 164.551C56.595 163.731 59.4513 162.243 61.8864 160.193C61.8963 160.327 61.9073 160.463 61.9194 160.601C59.487 162.607 56.6522 164.067 53.6072 164.881C52.2944 165.227 50.9326 165.452 49.6162 165.669C47.7946 165.971 45.9097 166.283 44.1535 166.917L44.0378 166.596C45.8241 165.951 47.7237 165.636 49.561 165.333C50.8697 165.117 52.2235 164.892 53.5206 164.551ZM56.3626 165.864C56.2145 165.91 56.0749 165.962 55.9248 166.006C52.2818 167.069 48.3355 167.531 45.1649 167.901L45.1254 167.563C48.2831 167.193 52.2138 166.734 55.8293 165.679C56.1368 165.59 56.4264 165.486 56.7249 165.389C56.5964 165.542 56.4792 165.702 56.3626 165.864ZM55.2616 168.13C52.7066 168.713 50.1035 169.059 47.4855 169.164L47.4693 168.823C50.1282 168.718 52.7712 168.36 55.3628 167.755C55.3203 167.876 55.2964 168.005 55.2616 168.13ZM52.4179 161.055C55.8265 160.055 58.919 158.088 61.7375 156.02C61.7389 156.161 61.7373 156.301 61.7388 156.442C58.9496 158.474 55.8923 160.391 52.5131 161.383C51.6919 161.624 50.8364 161.816 50.0087 162.002C48.0786 162.435 46.0823 162.883 44.4375 163.983L44.2482 163.699C45.9451 162.563 47.9735 162.109 49.9349 161.669C50.7564 161.485 51.6069 161.293 52.4179 161.055ZM50.2712 163.948C54.4015 162.479 58.168 160.21 61.768 157.747C61.7727 157.883 61.7733 158.018 61.7783 158.154C58.2147 160.582 54.4827 162.813 50.386 164.27C47.622 165.253 44.7153 165.869 41.9041 166.465L40.1962 166.827L40.1261 166.492L41.8343 166.13C44.6339 165.538 47.5293 164.924 50.2712 163.948ZM58.5053 155.408C59.5709 154.718 60.6522 154.025 61.7558 153.374C61.7531 153.508 61.7524 153.642 61.7501 153.775C60.7135 154.392 59.6957 155.045 58.6908 155.695C58.0748 156.093 57.4603 156.491 56.8435 156.878C52.0048 159.914 46.8364 162.39 41.4383 164.257L41.3276 163.933C46.7009 162.075 51.8456 159.611 56.6623 156.588C57.2787 156.201 57.8909 155.805 58.5053 155.408ZM61.8129 151.257C61.8088 151.385 61.8041 151.515 61.8001 151.643C61.2014 151.949 60.6151 152.28 60.0363 152.609L46.9617 160.03L46.7934 159.734L59.8682 152.312C60.4853 151.962 61.1355 151.594 61.8129 151.257ZM71.5006 189.013C72.1364 187.763 72.5566 186.39 72.9626 185.062L73.0684 184.715C73.7022 182.651 74.3917 180.576 75.1186 178.549C75.6723 177.005 76.2221 175.579 76.8124 174.245C76.9292 174.266 77.0464 174.28 77.1635 174.297C76.5622 175.648 76.0029 177.093 75.44 178.664C74.715 180.686 74.0266 182.755 73.3949 184.815L73.2889 185.161C72.8784 186.504 72.4543 187.892 71.805 189.168C70.9475 190.849 69.7182 192.309 68.5299 193.719L68.269 193.498C69.4453 192.103 70.6614 190.659 71.5006 189.013ZM81.3764 174.073C78.7008 180.277 75.9295 186.687 72.1 192.413L71.8161 192.224C75.5832 186.591 78.3269 180.281 80.967 174.158C81.1032 174.132 81.2393 174.103 81.3764 174.073ZM75.6772 173.972C75.789 174.006 75.9018 174.033 76.0143 174.063C74.9472 176.253 74.0651 178.55 73.202 180.81C71.646 184.884 70.0373 189.097 67.3613 192.593C67.0141 193.046 66.6437 193.495 66.286 193.927C65.3998 195 64.4822 196.11 63.8671 197.366L63.5605 197.216C64.1944 195.923 65.1243 194.798 66.0233 193.71C66.3794 193.279 66.7471 192.833 67.0904 192.386C69.7363 188.929 71.3361 184.74 72.8827 180.689C73.7412 178.441 74.6175 176.156 75.6772 173.972ZM68.2123 189.285L67.9491 189.067C69.8238 186.813 70.7004 183.904 71.5483 181.09C72.3747 178.348 73.1618 175.812 74.1081 173.373C74.2116 173.421 74.3144 173.47 74.4194 173.516C73.4804 175.939 72.6974 178.46 71.875 181.188C71.0174 184.035 70.1309 186.978 68.2123 189.285ZM74.497 186.026L74.2061 185.848C75.8126 183.236 76.7512 180.238 77.6591 177.339C77.9636 176.367 78.2729 175.381 78.6087 174.402C78.694 174.401 78.7801 174.412 78.8652 174.409C78.8993 174.408 78.9356 174.404 78.9703 174.403C78.6202 175.415 78.3001 176.434 77.9853 177.441C77.0706 180.36 76.1253 183.378 74.497 186.026ZM80.2955 183.068C81.4712 181.692 82.2952 180.051 82.6965 178.287C82.7586 178.071 82.8198 177.855 82.8839 177.641C83.2835 176.306 83.7903 174.985 84.2822 173.705L84.5825 172.922C84.7422 172.838 84.8972 172.749 85.0501 172.657L84.6001 173.83C84.1118 175.101 83.6071 176.416 83.212 177.738C83.1481 177.95 83.0865 178.166 83.0255 178.38C82.6121 180.184 81.7697 181.862 80.5698 183.271C80.127 183.846 79.7143 184.443 79.3333 185.061L79.0393 184.887C79.4261 184.259 79.8455 183.652 80.2955 183.068ZM75.7163 189.89L75.4155 189.728L76.3477 187.993L82.6903 173.713C82.8382 173.665 82.9852 173.615 83.1316 173.561L76.7677 187.889L76.7869 187.898L76.5299 188.426L76.509 188.416L75.7163 189.89ZM70.873 170.995C68.2806 175.347 66.0547 179.907 64.2182 184.628L63.9003 184.504C65.7558 179.735 68.0077 175.129 70.6321 170.736C70.708 170.825 70.7935 170.908 70.873 170.995ZM70.2133 180.21C70.5366 178.88 70.8716 177.505 71.2787 176.18C71.6672 174.938 72.1256 173.719 72.6516 172.529C72.7474 172.594 72.8423 172.66 72.9402 172.722C72.4296 173.882 71.9839 175.07 71.6053 176.28C71.2011 177.595 70.8676 178.965 70.5443 180.291C69.8455 183.163 69.1227 186.132 67.6312 188.741C67.0368 189.737 66.3889 190.701 65.6903 191.627L63.3179 194.893L63.0417 194.692L65.4141 191.426C66.1053 190.51 66.7464 189.557 67.3347 188.572C68.8028 186.005 69.52 183.059 70.2133 180.21ZM69.4816 176.975C70.0934 175.189 70.8121 173.442 71.6338 171.742C71.7219 171.819 71.8113 171.895 71.9021 171.969C71.1029 173.633 70.402 175.342 69.8031 177.088C69.4584 178.066 69.1317 179.05 68.8044 180.035C68.047 182.312 67.2642 184.666 66.276 186.9C65.526 188.595 64.6553 190.233 63.6704 191.802L63.3808 191.621C64.3573 190.066 65.2205 188.442 65.9634 186.762C66.9458 184.544 67.7257 182.197 68.4804 179.927C68.8084 178.941 69.1368 177.954 69.4816 176.975ZM63.9229 168.519C64.4582 167.957 65.0014 167.383 65.572 166.833C65.6511 166.916 65.7304 166.998 65.81 167.079C65.2445 167.625 64.7024 168.194 64.1702 168.755C63.3036 169.705 62.3823 170.603 61.411 171.445C59.6775 172.885 57.6697 173.956 55.5098 174.595L55.4142 174.268C57.529 173.642 59.4947 172.593 61.192 171.184C62.1533 170.35 63.0651 169.46 63.9229 168.519ZM57.7095 172.103C58.7897 171.38 59.7224 170.435 60.6249 169.52L64.4551 165.636C64.5312 165.721 64.6076 165.805 64.6853 165.889L60.8677 169.76C59.9533 170.687 59.008 171.645 57.8987 172.388C56.9766 172.968 56.008 173.471 55.0028 173.89L53.059 174.764L52.9195 174.452L54.8694 173.576C55.8551 173.165 56.8051 172.672 57.7095 172.103ZM67.0534 168.163C64.9171 169.723 62.8647 171.396 60.9048 173.174L60.6751 172.92C62.6168 171.159 64.6486 169.5 66.7624 167.95C66.8566 168.026 66.9551 168.094 67.0534 168.163ZM57.1962 171.34C59.1787 168.96 61.3309 166.727 63.6358 164.658C63.7045 164.748 63.7763 164.836 63.8474 164.926C61.561 166.98 59.426 169.197 57.4592 171.56L57.1962 171.34ZM63.0671 163.802C61.4652 165.315 59.9624 166.929 58.5683 168.636L58.2845 168.987C57.6686 169.802 56.9753 170.555 56.2142 171.236C55.6579 171.681 55.0727 172.088 54.4626 172.456C53.517 173.055 52.623 173.619 51.9555 174.453L51.6894 174.239C52.3927 173.362 53.3537 172.755 54.2803 172.167C54.8775 171.808 55.4504 171.409 55.995 170.974C56.7388 170.307 57.4165 169.57 58.0188 168.773L58.3028 168.422C59.7254 166.68 61.2605 165.033 62.8981 163.491C62.9516 163.596 63.0074 163.7 63.0665 163.803L63.0671 163.802ZM62.4656 162.345C61.5572 163.09 60.7026 163.899 59.9083 164.766C58.3919 166.379 56.9592 168.069 55.6159 169.829L55.3449 169.622C56.6953 167.853 58.1355 166.153 59.6599 164.531C60.5038 163.608 61.417 162.751 62.3914 161.967C62.4133 162.095 62.4343 162.223 62.4648 162.346L62.4656 162.345ZM60.0847 188.434C60.3373 188.195 60.5831 187.946 60.8319 187.701C60.7848 187.903 60.7401 188.105 60.6979 188.31C60.5706 188.433 60.4467 188.561 60.3187 188.682C59.4186 189.533 58.428 190.411 57.2894 191.061C56.078 191.753 54.7348 192.17 53.4347 192.573L53.3337 192.247C54.616 191.849 55.9419 191.438 57.1211 190.765C58.2267 190.132 59.1988 189.27 60.0847 188.434ZM61.2565 186.129C59.6396 188.059 57.736 189.729 55.6123 191.081L55.4301 190.793C57.7733 189.303 59.8438 187.421 61.5516 185.231C61.448 185.527 61.3495 185.826 61.2559 186.128L61.2565 186.129ZM56.9449 188.332C58.9254 186.826 60.4306 184.758 61.8866 182.758C62.4608 181.97 63.0458 181.17 63.6632 180.395C63.4059 180.906 63.1557 181.42 62.9124 181.936C62.6598 182.277 62.4096 182.619 62.1625 182.959C60.6916 184.979 59.1713 187.066 57.1513 188.603C56.9322 188.77 56.7074 188.93 56.483 189.09C55.9675 189.436 55.4821 189.824 55.032 190.252L54.7902 190.011C55.2538 189.57 55.7537 189.169 56.2847 188.812C56.5064 188.654 56.7278 188.496 56.9442 188.331L56.9449 188.332ZM52.4686 190.709C53.2713 189.568 54.2581 188.55 55.2121 187.565C56.3148 186.427 57.4547 185.25 58.2963 183.893C58.6792 183.273 59.0079 182.605 59.325 181.959C59.4807 181.643 59.6362 181.326 59.7993 181.013C61.7881 177.226 64.746 174.033 68.3707 171.761C68.2718 171.927 68.1962 172.106 68.1459 172.292C64.7536 174.52 61.9848 177.576 60.1016 181.171C59.9403 181.482 59.786 181.795 59.6308 182.109C59.3098 182.763 58.9772 183.439 58.5853 184.072C57.7245 185.461 56.5713 186.651 55.4557 187.803C54.5115 188.778 53.5336 189.787 52.7468 190.906L52.4686 190.709ZM60.1504 182.739C60.3221 182.489 60.4902 182.236 60.6579 181.982C60.9825 181.494 61.3176 180.99 61.6736 180.511C62.5064 179.432 63.4032 178.405 64.3591 177.434L66.1163 175.572C66.0768 175.666 66.0297 175.755 65.9929 175.85C65.8685 176.101 65.7431 176.351 65.6168 176.599L64.6068 177.668C63.6607 178.629 62.7729 179.647 61.9481 180.714C61.5968 181.186 61.2642 181.687 60.9424 182.172C60.7739 182.426 60.6046 182.68 60.4322 182.932C59.0923 184.869 57.5882 186.686 55.9365 188.365L55.6921 188.127C57.3298 186.462 58.8215 184.66 60.1504 182.739ZM69.3183 170.396C69.2749 170.443 69.2361 170.492 69.1963 170.541C69.0383 170.621 68.8776 170.7 68.7224 170.782C67.5639 171.389 66.3831 172.01 65.2744 172.738C65.819 172.396 66.3927 172.068 66.9917 171.731C67.6599 171.342 68.3535 170.998 69.0678 170.701C68.9386 170.871 68.82 171.049 68.7038 171.231C68.161 171.482 67.6372 171.759 67.1586 172.028C65.581 172.915 64.1834 173.744 63.0508 174.893C61.8208 176.141 60.961 177.732 60.1288 179.271C59.2871 180.831 58.4162 182.442 57.1535 183.725C56.6152 184.25 56.0467 184.744 55.4509 185.202C54.6783 185.821 53.88 186.461 53.2581 187.237L52.9918 187.023C53.6372 186.217 54.451 185.566 55.2381 184.935C55.8235 184.485 56.382 184.001 56.9105 183.485C58.139 182.237 58.9979 180.647 59.8291 179.109C60.3931 178.011 61.0294 176.951 61.7339 175.937C61.3675 176.381 61.0126 176.833 60.6646 177.282C60.162 177.929 59.6434 178.597 59.1896 179.29C59.0795 179.457 58.9725 179.626 58.866 179.795C58.5404 180.348 58.165 180.869 57.7446 181.353C57.4049 181.703 57.0418 182.031 56.6578 182.332C56.0607 182.823 55.4962 183.287 55.1282 183.918L54.8333 183.747C55.2325 183.062 55.8472 182.557 56.4415 182.068C56.8134 181.776 57.165 181.46 57.4938 181.121C57.8996 180.652 58.2623 180.148 58.5773 179.614C58.6853 179.442 58.7934 179.271 58.9036 179.102C59.3667 178.399 59.8908 177.724 60.3992 177.068C61.1832 176.002 62.0511 174.999 62.9945 174.07C64.634 172.541 66.6317 171.493 68.5643 170.479C68.8397 170.334 69.1205 170.19 69.4051 170.051L69.5219 170.175C69.4522 170.247 69.3821 170.319 69.3173 170.396L69.3183 170.396ZM93.0843 172.647C92.8894 169.655 92.8841 166.653 93.0685 163.66C93.2032 163.438 93.3378 163.216 93.4664 162.989C93.291 165.257 93.2361 167.533 93.3019 169.807C93.5201 167.177 93.7806 164.558 94.043 161.958C94.1858 161.693 94.3277 161.429 94.4654 161.165L94.4227 161.588C94.0535 165.244 93.682 168.939 93.4265 172.646C93.6933 177.058 94.2645 181.461 94.8266 185.79C95.3803 190.049 95.952 194.451 96.2264 198.788L95.8851 198.81C95.6132 194.485 95.0415 190.088 94.4883 185.835C94.0327 182.329 93.5735 178.774 93.272 175.203C92.8818 182.685 93.0865 190.197 94.8904 197.533C95.047 198.171 95.2159 198.807 95.3849 199.443C95.9215 201.464 96.4766 203.554 96.6226 205.68L96.2819 205.704C96.1382 203.612 95.5868 201.538 95.0547 199.532C94.8849 198.893 94.7157 198.255 94.558 197.616C92.5384 189.405 92.5112 180.99 93.0833 172.646L93.0843 172.647ZM92.1253 165.145C92.17 167.334 92.1876 169.536 92.1823 171.716C92.3411 169.972 92.4751 168.218 92.533 166.484C92.5437 166.154 92.5523 165.822 92.561 165.491C92.5697 165.159 92.5794 164.819 92.5907 164.481C92.6155 164.433 92.6456 164.39 92.6667 164.337C92.7701 164.175 92.8611 164.005 92.9615 163.841C92.9353 164.396 92.9162 164.95 92.9023 165.498C92.8942 165.831 92.8848 166.163 92.874 166.495C92.7762 169.445 92.4681 172.453 92.1683 175.362C92.1311 183.649 92.1409 192.189 93.7458 200.412L93.4107 200.477C92.0258 193.385 91.8263 186.068 91.8204 178.881C91.3474 184.046 91.1178 189.289 92.2785 194.335L91.946 194.412C90.5101 188.168 91.1792 181.653 91.827 175.352L91.8277 175.351C91.8291 175.086 91.8296 174.819 91.8309 174.555C91.8448 171.618 91.8556 168.602 91.8006 165.609C91.9089 165.454 92.0168 165.3 92.1243 165.144L92.1253 165.145ZM97.0916 193.217C97.9451 198.339 98.8271 203.635 97.5249 208.685L97.1936 208.601C98.4787 203.62 97.6026 198.36 96.7547 193.274C96.649 192.64 96.5451 192.008 96.443 191.378C94.7785 180.996 94.3105 170.456 95.048 159.965C95.292 159.435 95.5212 158.902 95.7275 158.366C95.6455 159.725 95.6352 161.091 95.6767 162.458C95.9483 160.461 96.3461 158.483 96.8679 156.536C96.9003 156.729 96.9736 156.913 97.0829 157.075C96.4531 159.534 96.0158 162.038 95.7749 164.564C95.8932 166.473 96.078 168.377 96.2638 170.258C96.5753 173.41 96.8971 176.668 96.8877 179.869L96.5466 179.868C96.5558 176.685 96.2347 173.435 95.9238 170.293C95.8098 169.143 95.6985 167.983 95.5994 166.82C95.2965 172.221 95.7302 178.067 96.9082 184.311C97.0286 184.947 97.155 185.583 97.2813 186.219C97.9209 189.44 98.5819 192.772 98.407 196.101L98.0658 196.083C98.239 192.796 97.5818 189.488 96.9464 186.286C96.8198 185.649 96.6931 185.012 96.5734 184.375C95.2243 177.231 94.8492 170.603 95.432 164.56C95.3648 163.471 95.3267 162.381 95.3178 161.29C94.7026 171.325 95.1923 181.397 96.7781 191.324C96.8795 191.952 96.9836 192.583 97.0905 193.216L97.0916 193.217ZM58.5203 140.279C60.1192 140.994 61.7586 141.727 63.4591 142.243C63.4169 142.349 63.3839 142.459 63.3606 142.57C61.6412 142.048 59.9912 141.31 58.3818 140.59L48.0882 135.986C46.8272 135.423 45.3993 134.783 44.39 133.671L44.6437 133.441C45.6042 134.5 46.9985 135.124 48.2276 135.674L58.5203 140.279ZM55.5033 137.928C58.3662 139.073 61.3146 139.992 64.3215 140.676C64.2588 140.779 64.1993 140.881 64.1391 140.983C61.1505 140.299 58.2198 139.383 55.3733 138.244C53.1416 137.327 50.961 136.216 48.8517 135.142L40.4589 130.867L40.6147 130.562L49.0074 134.838C51.1088 135.909 53.2835 137.017 55.5033 137.928ZM45.245 132.137L45.3458 131.809C48.0667 132.641 50.7551 133.747 53.3546 134.818C57.2886 136.436 61.3438 138.097 65.572 138.829C65.4941 138.932 65.4201 139.037 65.3446 139.141C61.1415 138.388 57.124 136.739 53.2243 135.133C50.6311 134.066 47.95 132.963 45.2439 132.136L45.245 132.137ZM61.6479 132.678C55.1772 131.834 48.85 130.124 42.8366 127.593L42.9695 127.277C48.7697 129.718 54.8642 131.392 61.0986 132.257C61.2808 132.401 61.4635 132.542 61.6479 132.678ZM66.2586 135.009C59.5289 134.387 53.7331 133.184 48.6193 131.35L48.735 131.028C53.4568 132.722 58.7739 133.869 64.87 134.521C65.3244 134.708 65.7882 134.871 66.2595 135.01L66.2586 135.009ZM64.5034 134.352C61.3272 133.709 58.1611 132.986 55.0519 132.262C53.9179 131.997 52.7452 131.723 51.5905 131.423C47.2288 130.288 42.9854 128.74 38.9181 126.8L39.0653 126.491C43.1132 128.422 47.336 129.963 51.6765 131.093C52.8278 131.392 53.9979 131.665 55.1664 131.938C57.854 132.564 60.5968 133.195 63.3556 133.773C63.7336 133.984 64.1164 134.177 64.5042 134.352L64.5034 134.352ZM42.2397 129.389C47.49 131.764 52.9402 133.426 58.5289 135.058C61.0712 135.801 64.0623 136.667 67.1438 137.05C67.0412 137.147 66.9433 137.252 66.8435 137.354C63.8285 136.952 60.9172 136.113 58.4322 135.387C52.8313 133.751 47.3683 132.085 42.0984 129.701C41.5447 129.451 40.9933 129.192 40.4408 128.934C38.1495 127.861 35.7796 126.751 33.2782 126.252L33.3453 125.917C35.8876 126.424 38.2761 127.543 40.5859 128.624C41.1364 128.882 41.6872 129.14 42.2397 129.389ZM101.492 127.73C102.133 128.747 102.465 130.01 102.537 131.705C102.67 135.117 101.789 138.492 100.007 141.406C99.5443 142.216 98.9359 142.932 98.2125 143.521C96.9849 144.449 95.4325 144.715 94.2184 144.843C93.2014 144.949 91.8776 145.017 90.658 144.584C89.3568 144.122 88.2992 143.135 87.4495 142.342C84.3128 139.413 81.2131 136.193 80.7475 131.868C80.6171 130.658 80.3467 128.139 81.3429 126.604C82.2614 125.191 84.3007 124.452 85.7552 124.019C87.8537 123.392 90.2628 123.268 93.1193 123.638C95.8136 123.986 97.8235 124.649 99.4449 125.723C100.06 126.121 100.612 126.607 101.084 127.167C101.231 127.346 101.368 127.534 101.492 127.73ZM87.916 141.842C88.9378 142.796 89.8053 143.556 90.8872 143.94C91.9774 144.327 93.2026 144.262 94.1479 144.163C95.2749 144.045 96.7085 143.802 97.8012 142.975C98.456 142.438 99.0066 141.785 99.4255 141.049C101.137 138.252 101.982 135.011 101.854 131.735C101.788 130.164 101.489 129.007 100.914 128.096C100.431 127.372 99.8018 126.758 99.0662 126.293C97.5354 125.279 95.6177 124.651 93.0306 124.316C90.2708 123.959 87.9542 124.075 85.9482 124.674C84.5982 125.076 82.7103 125.752 81.915 126.976C81.052 128.306 81.3046 130.662 81.4263 131.794C81.6908 134.254 82.8829 136.361 84.4527 138.268C85.5285 139.533 86.6853 140.727 87.916 141.842Z" fill="white"/>
</g>
<defs>
<clipPath id="clip0">
<rect width="114.59" height="194.732" fill="white" transform="translate(92.9114 224.961) rotate(-144.176)"/>
</clipPath>
</defs>
</svg>
